<?xml version="1.0" encoding="utf-8" ?><svg xmlns="http://www.w3.org/2000/svg" xmlns:xlink="http://www.w3.org/1999/xlink" width="1024" height="1024" viewBox="0 0 1024 1024"><path transform="scale(2 2)" d="M353.652 135.002C356.53 118.472 365.664 102.217 379.417 91.8983C402.831 74.3315 422.835 106.715 411.318 113.445C404.65 116.995 401.09 111.714 401.262 105.767C401.404 100.844 393.441 97.8344 389.799 100.654C376.457 109.019 369.01 123.043 365.911 137.927C372.798 140.696 379.285 144.142 384.608 149.457C400.479 135.234 417.254 129.393 438.583 130.338C478.184 132.093 461.587 177.1 450.635 162.025C445.7 154.918 460.298 144.762 437.356 143.117C422.377 142.043 403.008 147.804 393.041 159.461C400.611 166.392 407.274 181.703 407.554 191.909C432.984 201.294 421.985 227.923 396.734 229.502C395.547 231.824 394.031 234.611 393.041 236.978C397.121 239.16 406.521 244.133 410.968 243.16C414.548 242.377 418.61 235.049 423.233 238.176C432.902 244.715 420.848 254.259 414.242 255.572C402.237 257.957 391.099 249.811 380.835 245.46C363.478 252.374 339.852 248.536 324.396 238.637C322.661 239.55 321.929 240.015 320.336 241.164L320.36 241.568C320.907 250.117 321.635 249.057 320.336 258.389C324.486 262.591 328.772 266.855 333.026 271.071C345.856 283.788 341.704 281.738 358.581 287.019L385.698 295.361C392.622 297.552 399.511 297.404 401.441 305.203C398.463 314.311 392.414 310.919 385.468 308.751L371.934 304.484C365.714 302.554 339.296 295.455 335.729 291.951C328.301 284.655 321.008 277 313.575 269.712C306.78 276.636 303.104 278.03 294.103 280.786C303.122 295.442 302.709 298.058 319.125 305.401C329.137 309.879 328.107 322.165 327.009 330.797L325.4 343.431C323.88 355.516 322.71 367.798 321.036 379.859C320.05 386.953 306.672 386.522 307.8 378.356C310.225 360.794 312.715 343.228 314.897 325.634C315.929 317.316 314.373 316.885 306.668 314.311C296.702 310.983 287.518 295.422 282.676 286.556C277.676 293.352 276.948 294.336 269.906 298.895C283.995 329.991 280.778 325.248 267.188 355.808C255.864 381.271 263.391 379.438 238.79 394.228L199.074 418.21C195.626 420.317 190.138 424.822 186.08 422.948C172.075 416.48 196.252 404.24 200.53 401.667L228.882 384.704C248.654 372.929 243.667 378.377 252.809 356.552C262.986 332.252 272.539 328.836 258.026 303.653L246.61 303.653C242.211 315.195 220.61 356.236 205.395 354.227L204.82 354.152C204.038 353.578 203.402 353.111 202.669 352.478C197.843 357.308 188.251 358.274 187.926 361.8C187.271 367.593 180.135 368.777 175.366 369.699C134.137 377.672 96.5185 341.818 105.829 299.999C107.307 293.363 108.499 287.677 115.658 286.556C119.836 288.173 120.228 288.894 121.453 293.162C118.225 304.694 114.866 312.701 119.331 325.446C120.735 326.096 121.838 327.416 122.935 328.546C122.916 327.139 122.37 325.226 122.334 323.613C121.38 280.926 161.385 257.05 200.067 256.844C203.129 256.828 206.133 257.294 209.159 257.064L209.536 257.033C209.573 252.398 203.732 252.751 199.013 252.022C176.721 248.581 152.784 256.065 136.708 271.958C135.067 273.581 133.069 275.943 131.204 277.201C127.02 280.021 114.409 274.41 127.849 262.22C150.852 241.356 182.978 233.234 212.977 242.212C214.577 238.463 217.585 235.67 220.609 233.068C219.066 230.939 210.943 222.878 208.711 220.541L198.356 209.59C188.573 199.327 190.109 202.061 176.197 204.826L143.439 211.544C138.384 212.596 132.501 214.057 127.441 214.734C119.932 215.739 117.315 203.995 125.993 202.137C144.529 198.171 163.131 194.4 181.718 190.667C193.007 188.4 196.478 188.938 204.434 197.468C211.392 204.928 218.706 212.516 225.859 219.786C225.982 215.854 226.057 203.304 229.749 201.184C217.209 191.576 219.222 187.041 221.228 172.492L225.044 146.41C225.631 142.107 225.678 136.792 231.267 136.178C242.022 134.997 237.733 148.472 236.825 154.352L233.681 176.064C232.113 187.144 230.257 187.133 240.754 192.057C245.85 194.448 256.402 201.969 259.49 206.353C270.058 202.354 278.341 200.742 289.389 205.227C289.833 186.042 289.749 172.105 302.889 156.427C306.337 152.313 314.359 154.185 314.17 159.916C313.994 165.24 299.589 178.127 301.778 197.235C302.922 207.223 303.15 209.919 295.015 217.078C288.831 222.519 266.87 203.745 256.926 228.62C254.966 233.522 254.905 241.109 247.871 239.521C229.601 235.396 215.816 249.078 225.859 267.028C226.976 259.146 228.122 253.391 235.692 248.668C248.951 240.603 256.456 257.164 260.427 239.63C263.033 228.125 274.337 220.004 285.688 224.499C287.686 225.29 289.837 226.681 291.917 227.141C296.469 228.148 304.213 220.904 306.283 217.405C308.862 213.047 307.26 207.321 307.264 202.426C306.499 179.182 328.107 152.131 351.713 155.786C351.261 152.191 351.313 151.099 351.713 147.502C345.263 147.482 340.852 147.588 334.784 149.925C320.328 155.491 320.187 143.552 324.082 140.946C331.907 135.713 344.741 134.661 353.652 135.002ZM363.777 155.786C366.764 155.441 372.58 157.276 374.613 159.461C378.266 157.776 365.184 151.202 363.777 150.505L363.777 155.786Z"/><path fill="#BCDEF6" transform="scale(2 2)" d="M122.935 328.546C122.916 327.139 122.37 325.226 122.334 323.613C121.38 280.926 161.385 257.05 200.067 256.844C203.129 256.828 206.133 257.294 209.159 257.064L209.536 257.033C210.699 269.408 216.377 279.99 227.133 286.556C236.295 292.257 235.728 295.598 232.46 303.778C226.98 317.498 218.94 329.75 207.528 339.263C203.446 342.665 198.205 346.819 202.669 352.478C197.843 357.308 188.251 358.274 187.926 361.8C187.271 367.593 180.135 368.777 175.366 369.699C134.137 377.672 96.5185 341.818 105.829 299.999C107.307 293.363 108.499 287.677 115.658 286.556C119.836 288.173 120.228 288.894 121.453 293.162C118.225 304.694 114.866 312.701 119.331 325.446C120.735 326.096 121.838 327.416 122.935 328.546Z"/><path fill="#7AC5F9" transform="scale(2 2)" d="M227.133 286.556C236.295 292.257 235.728 295.598 232.46 303.778C226.98 317.498 218.94 329.75 207.528 339.263C203.446 342.665 198.205 346.819 202.669 352.478C197.843 357.308 188.251 358.274 187.926 361.8C187.271 367.593 180.135 368.777 175.366 369.699C134.137 377.672 96.5185 341.818 105.829 299.999C107.307 293.363 108.499 287.677 115.658 286.556C119.836 288.173 120.228 288.894 121.453 293.162C118.225 304.694 114.866 312.701 119.331 325.446C120.735 326.096 121.838 327.416 122.935 328.546C127.666 334.301 135.752 338.52 142.824 340.519C177.91 350.436 218.107 319.253 227.133 286.556Z"/><path transform="scale(2 2)" d="M187.926 361.8C187.271 367.593 180.135 368.777 175.366 369.699C134.137 377.672 96.5185 341.818 105.829 299.999C107.307 293.363 108.499 287.677 115.658 286.556C119.836 288.173 120.228 288.894 121.453 293.162C118.225 304.694 114.866 312.701 119.331 325.446C124.68 347.361 151.379 362.317 173.346 357.029C179.459 355.558 187.284 352.27 187.926 361.8Z"/><path fill="#FEC302" transform="scale(2 2)" d="M225.859 267.028C226.976 259.146 228.122 253.391 235.692 248.668C248.951 240.603 256.456 257.164 260.427 239.63C263.033 228.125 274.337 220.004 285.688 224.499C287.686 225.29 289.837 226.681 291.917 227.141C296.469 228.148 304.213 220.904 306.283 217.405C308.862 213.047 307.26 207.321 307.264 202.426C306.499 179.182 328.107 152.131 351.713 155.786C353.705 162.183 361.237 161.151 363.777 155.786C366.764 155.441 372.58 157.276 374.613 159.461C370.499 165.762 376.239 171.773 384.608 167.936C388.661 175.309 392.892 180.638 394.356 189.372C395.254 194.724 394 200.743 399.047 203.716C398.317 206.153 397.068 206.734 397.258 209.053L397.641 209.711C411.634 212.731 395.046 211.682 391.437 213.072C388.547 214.185 386.514 216.088 384.012 217.774C369.735 227.398 350.114 226.006 335.276 218.393C327.876 214.597 321.812 211.26 315.284 219.786C315.278 221.736 315.118 226.857 315.284 228.594L315.006 228.814C309.819 232.839 301.928 233.752 305.443 242.212C303.593 243.87 302.671 246.135 301.236 248.109C290.071 263.464 274.92 251.753 268.598 257.408C263.95 261.566 267.812 272.143 256.388 278.023C247.892 282.395 243.813 277.703 238.574 279.495C234.572 276.207 228.004 271.732 225.859 267.028Z"/><path transform="scale(2 2)" d="M359.836 178.295C366.649 177.737 381.951 195.513 370.406 201.184C362.911 202.101 348.802 183.626 359.836 178.295Z"/><path fill="#FDB301" transform="scale(2 2)" d="M399.047 203.716L399.356 203.799C401.739 204.413 407.259 204.463 408.323 206.809C412.589 216.214 392.53 216.866 388.15 218.915C385.536 220.228 384.476 226.645 382.467 228.879C373.398 240.001 344.789 237.055 333.092 229.316C322.792 222.502 325.089 223.815 315.284 228.594C315.118 226.857 315.278 221.736 315.284 219.786C321.812 211.26 327.876 214.597 335.276 218.393C350.114 226.006 369.735 227.398 384.012 217.774C386.514 216.088 388.547 214.185 391.437 213.072C395.046 211.682 411.634 212.731 397.641 209.711L397.258 209.053C397.068 206.734 398.317 206.153 399.047 203.716Z"/><path fill="#FDB301" transform="scale(2 2)" d="M305.443 242.212C311.117 250.48 307.384 259.317 299.627 264.659C290.354 271.044 279.781 266.912 277.176 268.571C272.473 271.565 274.259 291.263 247.966 291.31C245.026 286.39 242.92 283.422 238.574 279.495C243.813 277.703 247.892 282.395 256.388 278.023C267.812 272.143 263.95 261.566 268.598 257.408C274.92 251.753 290.071 263.464 301.236 248.109C302.671 246.135 303.593 243.87 305.443 242.212Z"/><path fill="#BCDEF6" transform="scale(2 2)" d="M229.749 201.184C236.875 203.697 245.543 209.962 250.826 215.22C247.924 218.486 246.107 221.293 244.788 225.521C239.617 225.362 237.235 225.567 232.1 226.688C230.774 225.274 226.892 221.243 225.859 219.786C225.982 215.854 226.057 203.304 229.749 201.184Z"/><path transform="scale(2 2)" d="M109.443 367.543C114.79 367.534 118.086 371.611 115.817 376.924C114.468 380.083 85.1282 396.571 80.5202 399.376L64.454 409.037C61.9098 410.567 57.9345 413.292 55.3314 414.169C50.2513 415.12 46.0466 408.221 49.0475 403.983C51.0297 401.184 106.282 368.2 109.443 367.543Z"/><path transform="scale(2 2)" d="M84.5089 251.249C88.0466 249.977 90.4925 250.808 91.9941 254.384C94.6982 260.823 87.7558 263.231 83.3035 265.85L69.696 273.767C66.9965 275.308 59.6174 279.807 57.0748 280.786C48.2565 282.165 46.1504 271.937 53.1787 268.436C61.1789 264.45 78.346 252.366 84.5089 251.249Z"/><path transform="scale(2 2)" d="M79.4302 324.077C83.6931 324.567 84.8541 326.444 85.9217 330.304C84.3895 336.485 81.4586 336.543 76.3964 339.719L63.458 347.816C61.1684 349.233 57.6907 351.521 55.3314 352.478C50.0228 352.354 45.7448 346.817 49.3308 341.934C51.0966 339.529 75.0041 324.697 79.4302 324.077Z"/><path fill="#258DF5" transform="scale(2 2)" d="M312.375 100.95C317.485 99.8525 322.518 103.102 323.621 108.211C324.724 113.32 321.48 118.356 316.372 119.464C311.257 120.575 306.211 117.324 305.106 112.208C304.002 107.091 307.257 102.049 312.375 100.95Z"/><path fill="#258DF5" transform="scale(2 2)" d="M452.861 273.404C457.706 271.977 462.786 274.776 464.169 279.635C465.551 284.494 462.706 289.547 457.835 290.886C453.026 292.207 448.051 289.406 446.686 284.61C445.322 279.813 448.077 274.813 452.861 273.404Z"/><path fill="#258DF5" transform="scale(2 2)" d="M388.175 370.002C393.124 369.58 397.474 373.261 397.877 378.212C398.28 383.163 394.582 387.499 389.63 387.883C384.704 388.264 380.397 384.591 379.996 379.667C379.596 374.743 383.252 370.422 388.175 370.002Z"/><path fill="#258DF5" transform="scale(2 2)" d="M135.622 405.653C140.226 404.903 144.591 407.955 145.467 412.537C146.343 417.119 143.411 421.565 138.855 422.566C135.795 423.238 132.611 422.196 130.541 419.843C128.472 417.491 127.843 414.2 128.899 411.251C129.955 408.301 132.53 406.157 135.622 405.653Z"/></svg>