<?xml version="1.0" encoding="utf-8" ?><svg xmlns="http://www.w3.org/2000/svg" xmlns:xlink="http://www.w3.org/1999/xlink" width="1024" height="1024" viewBox="0 0 1024 1024"><path transform="scale(2 2)" d="M150.353 105.511C150.359 91.6227 147.326 76.5238 158.457 66.3712C166.155 59.3496 173.041 59.743 182.668 59.7405L240.445 59.74C254.247 59.7445 267.762 57.0324 277.704 68.3579C284.71 76.3398 283.949 94.6642 283.249 105.511C285.748 105.403 287.475 105.377 289.967 105.511L290.054 104.878C293.735 79.2998 336.834 81.5555 331.631 118.601C330.71 125.156 332.137 134.963 322.102 132.472C321.35 136.764 318.719 144.488 316.633 148.399C319.246 149.864 319.534 150.851 320.414 153.658C318.785 158.758 310.064 170.707 304.209 162.993C298.819 168.079 294.659 170.715 289.346 175.171C291.335 175.956 291.89 177.658 292.757 179.626C291.471 190.131 270.827 191.374 262.941 190.879C260.372 192.561 258.469 194.71 256.02 196.411C245.003 204.058 234.688 205.296 234.727 219.901C234.748 227.657 234.58 235.493 234.882 243.242C235.09 248.405 238.618 249.756 241.94 252.711L242.137 252.533C250.85 244.582 259.751 234.374 268.296 225.93C276.579 217.744 282.516 208.124 295.652 209.061C305.155 209.739 311.193 214.694 314.85 223.244C328.601 219.069 339.581 224.729 344.464 238.189C364.065 230.53 380.877 243.722 375.194 264.694C389.202 268.896 393.62 279.132 391.249 292.441C407.5 296.375 415.402 314.619 404.77 328.472C395.337 340.762 357.022 374.17 354.431 381.148C353.062 384.833 353.745 402.324 353.75 407.071C367.559 410.952 366.364 428.623 364.449 439.818C361.368 453.88 346.302 452.016 335.668 452.018L273.386 452.016C262.435 452.012 239.706 454.569 238.916 437.54C238.246 423.104 236.059 414.574 250.234 407.071C249.128 383.411 249.799 367.554 240.664 343.687C232.822 343.262 217.645 347.124 217.598 337.237C213.28 337.227 204.404 337.536 200.46 337.237C196.057 353.147 154.776 343.899 167.597 313.745C158.765 296.975 170.197 278.704 188.892 283.633C190.961 281.64 193.95 278.892 196.253 277.185C196.219 268.891 196.373 257.264 205.985 253.643C205.953 252.066 206.202 243.029 205.985 242.393C190.319 240.228 208.055 213.165 192.539 205.218C185.251 201.485 179.793 197.548 173.201 192.491C134.779 191.12 104.331 160.799 102.781 122.196C102.603 117.749 102.171 112.028 102.893 107.756C106.857 84.3152 139.839 78.9614 144.79 105.511C146.941 105.624 148.21 105.638 150.353 105.511ZM301.524 223.244C290.506 215.083 282.842 227.985 275.139 235.715L234.766 276.368C225.407 285.739 217.327 293.71 229.919 305.032C229.202 291.875 234.021 290.887 243.534 281.419L261.385 263.667C274.719 250.448 288.061 236.233 301.524 223.244ZM150.353 150.818C150.665 147.542 150.385 142.314 150.364 138.907L150.353 116.787C147.221 117.379 139.644 117.313 136.469 116.787C135.889 128.917 141.125 142.745 150.353 150.818ZM302.283 104.79C302.7 106.139 309.636 100.776 310.843 99.774C306.544 99.6571 303.611 100.196 302.283 104.79ZM282.427 150.818C285.16 147.863 287.044 145.895 289.346 142.595C291.327 139.453 299.862 121.095 297.159 117.658C294.752 116.273 286.565 116.762 283.249 116.787C283.256 126.843 283.66 141.186 282.427 150.818Z"/><path fill="#BCDEF6" transform="scale(2 2)" d="M161.566 92.0365C162.531 91.1489 163.635 89.3593 164.39 88.2492C174.272 73.7226 179.846 75.8476 196.032 75.8393L239.388 75.8429C245.187 75.8474 257.585 75.8466 262.941 77.2258C261.09 80.8405 261.779 88.9313 261.775 93.3112L261.763 121.631C261.763 127.918 261.907 134.536 261.353 140.759C258.576 171.963 230.34 198.861 198.155 192.413C196.049 191.991 193.325 190.727 191.504 190.879C186.862 189.274 181.705 184.426 178.253 181.011C160.402 163.008 161.556 146.639 161.567 123.882L161.566 92.0365Z"/><path transform="scale(2 2)" d="M179.059 114.258C191.547 113.718 182.949 137.609 187.678 147.293C192.883 157.951 207.771 149.846 209.672 157.59C210.405 160.749 209.033 163.522 205.985 164.717C192.284 166.857 177.161 160.3 175.025 145.174C174.096 138.599 171.839 117.602 179.059 114.258Z"/><path transform="scale(2 2)" d="M180.174 83.5692C188.387 83.9864 189.188 99.4618 181.006 101.561C172.347 101.181 171.475 85.1125 180.174 83.5692Z"/><path fill="#62C1F6" transform="scale(2 2)" d="M266.404 73.4955C272.555 78.2768 271.624 84.8006 271.596 91.7358L271.595 128.879C271.625 150.934 269.177 162.543 254.778 180.866C238.939 201.144 222.526 188.849 223.258 227.187C223.588 244.461 219.733 248.399 233.854 260.676C227.45 268.376 219.203 274.04 214.358 283.061C211.352 282.722 208.954 283.154 205.985 283.633C209.113 278.612 206.467 271.331 208.553 266.533C210.616 261.787 213.453 262.858 211.907 256.173C209.996 254.31 208.523 253.912 205.985 253.643C205.953 252.066 206.202 243.029 205.985 242.393C208.294 241.698 209.87 239.66 210.772 237.527L210.797 223.139C210.806 201.481 205.812 202.116 191.833 191.14L191.504 190.879C193.325 190.727 196.049 191.991 198.155 192.413C230.34 198.861 258.576 171.963 261.353 140.759C261.907 134.536 261.763 127.918 261.763 121.631L261.775 93.3112C261.779 88.9313 261.09 80.8405 262.941 77.2258L266.404 73.4955Z"/><path fill="#BCDEF6" transform="scale(2 2)" d="M210.772 237.527C212.006 238.874 212.35 254.391 211.907 256.173C209.996 254.31 208.523 253.912 205.985 253.643C205.953 252.066 206.202 243.029 205.985 242.393C208.294 241.698 209.87 239.66 210.772 237.527Z"/><path transform="scale(2 2)" d="M205.985 253.643C208.523 253.912 209.996 254.31 211.907 256.173C213.453 262.858 210.616 261.787 208.553 266.533C206.467 271.331 209.113 278.612 205.985 283.633C208.954 283.154 211.352 282.722 214.358 283.061C210.417 292.416 211.222 300.954 217.598 308.91C207.568 321.183 194.489 326.196 181.006 331.962C190.073 335.895 195.955 326.265 200.46 337.237C196.057 353.147 154.776 343.899 167.597 313.745C158.765 296.975 170.197 278.704 188.892 283.633C190.961 281.64 193.95 278.892 196.253 277.185C196.219 268.891 196.373 257.264 205.985 253.643Z"/><path fill="#BCDEF6" transform="scale(2 2)" d="M205.985 283.633C208.954 283.154 211.352 282.722 214.358 283.061C210.417 292.416 211.222 300.954 217.598 308.91C207.568 321.183 194.489 326.196 181.006 331.962C172.193 325.699 177.64 320.627 180.241 313.739C181.717 309.831 168.935 302.12 179.56 295.099C183.878 292.061 189.196 297.985 192.597 295.747C197.387 292.593 200.839 286.66 205.985 283.633Z"/><path fill="#62C1F6" transform="scale(2 2)" d="M310.843 99.774C331.163 103.936 312.794 123.729 322.102 132.472C321.35 136.764 318.719 144.488 316.633 148.399C319.246 149.864 319.534 150.851 320.414 153.658C318.785 158.758 310.064 170.707 304.209 162.993C298.819 168.079 294.659 170.715 289.346 175.171C283.754 174.34 276.861 178.848 269.909 179.626C271.943 175.524 274.668 170.533 276.854 166.447C293.929 159.021 304.027 146.378 307.732 127.919C308.102 127.116 308.729 120.466 308.938 120.152C316.883 108.154 302.393 111.542 302.283 104.79C302.7 106.139 309.636 100.776 310.843 99.774Z"/><path transform="scale(2 2)" d="M304.209 162.993C302.335 157.275 310.017 146.445 316.633 148.399C319.246 149.864 319.534 150.851 320.414 153.658C318.785 158.758 310.064 170.707 304.209 162.993Z"/><path fill="#62C1F6" transform="scale(2 2)" d="M217.598 308.91C222.206 314.157 233.362 325.147 234.75 331.962C229.19 331.947 217.329 329.643 217.598 337.237C213.28 337.227 204.404 337.536 200.46 337.237C195.955 326.265 190.073 335.895 181.006 331.962C194.489 326.196 207.568 321.183 217.598 308.91Z"/><path fill="white" transform="scale(2 2)" d="M173.201 71.3306L249.316 71.3249C254.489 71.3266 262.064 70.6348 266.404 73.4955L262.941 77.2258C257.585 75.8466 245.187 75.8474 239.388 75.8429L196.032 75.8393C179.846 75.8476 174.272 73.7226 164.39 88.2492C163.635 89.3593 162.531 91.1489 161.566 92.0365C161.454 88.7408 160.95 84.0599 162.397 81.1647C163.46 75.9796 168.237 72.4263 173.201 71.3306Z"/><path fill="#FEC302" transform="scale(2 2)" d="M301.524 223.244C303.905 225.469 304.553 226.951 305.527 229.934C302.329 233.219 298.938 236.312 295.697 239.566L276.018 259.585C269.806 265.836 262.218 272.275 257.451 279.816C252.611 287.474 252.42 314.821 265.248 303.193C267.642 301.024 265.208 287.991 268.335 284.357C270.366 281.304 275.563 276.525 278.24 273.862L307.771 244.387C313.436 238.68 322.871 226.576 331.369 237.527C337.076 245.31 332.344 249.669 327.106 254.872C320.844 261.091 302.365 274.593 305.527 283.061C309.03 286.5 313.436 290.107 316.633 293.737C321.981 292.945 323.162 291.32 324.315 286.315C325.302 286.824 325.504 286.944 326.371 287.627C328.364 290.002 330.263 291.577 332.25 293.737C328.71 295.928 326.523 297.679 326.371 302.171C328.441 305.056 332.815 309.673 335.853 311.564C340.707 311.125 341.46 309.523 342.61 305.032C345.046 306.611 346.48 308.189 348.53 310.231C350.321 312.204 352.231 313.766 353.75 315.43C348.848 315.769 346.725 316.775 346.462 322.094C352.104 333.36 357.192 329.389 364.186 323.116C371.032 316.976 387.976 292.683 396.13 310.231C402.995 315.769 387.974 328.684 384.864 331.918C375.881 341.262 366.649 350.321 357.563 359.56C337.335 380.126 341.697 377.526 341.688 406.275L330.645 406.275C324.904 406.255 312.788 405.364 316.633 415.27C315.777 415.515 306.003 415.276 304.209 415.27C306.279 404.51 293.997 407.064 286.652 407.064L261.165 407.071C264.785 378.308 256.105 341.934 240.424 317.722C237.342 312.963 233.645 309.549 230.115 305.272L229.919 305.032C229.202 291.875 234.021 290.887 243.534 281.419L261.385 263.667C274.719 250.448 288.061 236.233 301.524 223.244Z"/><path fill="#FEA601" transform="scale(2 2)" d="M330.645 406.275C332.029 394.862 327.286 380.782 334.4 370.763C342.099 359.92 353.69 349.939 363.114 340.416L383.267 320.344C386.08 317.585 392.996 308.765 396.13 310.231C402.995 315.769 387.974 328.684 384.864 331.918C375.881 341.262 366.649 350.321 357.563 359.56C337.335 380.126 341.697 377.526 341.688 406.275L330.645 406.275Z"/><path fill="#FEA601" transform="scale(2 2)" d="M331.369 237.527C337.076 245.31 332.344 249.669 327.106 254.872C320.844 261.091 302.365 274.593 305.527 283.061C288.438 274.384 303.378 267.334 311.274 257.89C313.435 255.306 330.14 238.115 331.369 237.527Z"/><path fill="#A95C04" transform="scale(2 2)" d="M342.61 305.032C345.046 306.611 346.48 308.189 348.53 310.231C350.321 312.204 352.231 313.766 353.75 315.43C348.848 315.769 346.725 316.775 346.462 322.094C343.105 318.976 338.792 315.016 335.853 311.564C340.707 311.125 341.46 309.523 342.61 305.032Z"/><path fill="#A95C04" transform="scale(2 2)" d="M324.315 286.315C325.302 286.824 325.504 286.944 326.371 287.627C328.364 290.002 330.263 291.577 332.25 293.737C328.71 295.928 326.523 297.679 326.371 302.171C324.168 300.766 319.667 295.987 316.633 293.737C321.981 292.945 323.162 291.32 324.315 286.315Z"/><path fill="#D0790C" transform="scale(2 2)" d="M250.234 432.118C250.087 416.799 250.81 418.537 265.532 418.548L287.708 418.567C293.693 418.571 300.527 420.208 304.209 415.27C306.003 415.276 315.777 415.515 316.633 415.27C321.538 420.968 336.654 418.542 344.464 418.558C348.181 418.427 351.112 417.659 353.75 420.73C352.081 445.195 355.806 440.128 327.243 440.133L259.683 440.102C252.773 440.064 250.118 439.897 250.234 432.118Z"/><path fill="#A95C04" transform="scale(2 2)" d="M344.464 418.558C348.181 418.427 351.112 417.659 353.75 420.73C352.081 445.195 355.806 440.128 327.243 440.133L259.683 440.102C252.773 440.064 250.118 439.897 250.234 432.118L331.805 432.124C341.241 432.122 359.319 433.338 344.464 418.558Z"/><path fill="#62C1F6" transform="scale(2 2)" d="M124.284 99.774C128.156 98.548 131.022 99.8598 132.722 103.706C133.641 105.783 126.625 107.755 124.444 111.574L124.284 111.859C122.715 136.221 134.94 157.065 156.654 168.368C158.998 172.923 160.613 175.838 163.351 180.148L163.246 180.449L162.397 180.454C138.665 175.645 117.51 151.775 114.946 127.926C113.88 118.009 110.263 101.69 124.284 99.774Z"/><path fill="#FEC302" transform="scale(2 2)" d="M318.428 280.206L340.564 258.058C346.343 252.372 354.938 240.791 363.041 251.637C367.928 260.093 361.527 264.163 355.935 269.77L336.811 289.182C335.74 290.257 333.284 292.888 332.25 293.737C330.263 291.577 328.364 290.002 326.371 287.627C325.504 286.944 325.302 286.824 324.315 286.315C322.732 283.633 320.829 282.108 318.428 280.206Z"/><path fill="#FEA601" transform="scale(2 2)" d="M363.041 251.637C367.928 260.093 361.527 264.163 355.935 269.77L336.811 289.182C335.74 290.257 333.284 292.888 332.25 293.737C330.263 291.577 328.364 290.002 326.371 287.627C328.645 286.419 335.406 278.911 337.55 276.732L363.041 251.637Z"/><path fill="#FEC302" transform="scale(2 2)" d="M340.552 302.171C346.709 294.849 354.743 288.192 361.254 281.147C366.199 275.796 371.561 273.079 377.676 279.03C380.461 282.914 381.74 287.964 378.36 291.72C375.627 294.756 355.914 317.063 353.75 315.43C352.231 313.766 350.321 312.204 348.53 310.231C346.48 308.189 345.046 306.611 342.61 305.032C341.942 303.873 341.377 303.201 340.552 302.171Z"/><path fill="#FEA601" transform="scale(2 2)" d="M377.676 279.03C380.461 282.914 381.74 287.964 378.36 291.72C375.627 294.756 355.914 317.063 353.75 315.43C352.231 313.766 350.321 312.204 348.53 310.231C349.723 309.302 350.773 308.234 351.791 307.122C359.148 299.09 372.12 287.738 377.676 279.03Z"/></svg>