<?xml version="1.0" encoding="utf-8" ?><svg xmlns="http://www.w3.org/2000/svg" xmlns:xlink="http://www.w3.org/1999/xlink" width="1024" height="1024" viewBox="0 0 1024 1024"><path transform="scale(2 2)" d="M328.044 158.107C425.57 159.891 470.319 282.378 391.464 344.538L391.453 370.259C391.438 375.315 391.238 379.792 391.464 384.876C399.983 384.628 404.765 387.302 404.758 396.41C404.754 403.06 404.75 409.723 404.744 416.377C411.627 416.469 428.019 415.293 433.785 416.455C443.558 418.423 441.826 430.688 434.478 431.222L77.8996 431.219C71.7772 430.922 68.622 421.801 73.6665 418.052C77.3146 415.341 83.3612 416.46 87.7635 416.377C89.8174 404.394 82.752 389.778 100.754 383.627L100.741 318.123C100.742 310.607 100.222 297.497 112.841 303.363L112.995 303.088C109.009 300.339 110.312 297.465 107.067 293.201C107.643 292.519 108.193 292.035 108.847 291.426C109.28 289.465 110.821 286.218 112.727 285.351L112.841 284.902C96.6089 291.69 100.63 266.679 100.754 257.5C88.9323 253.064 87.2068 246.871 87.7297 234.951C88.3387 223.277 87.7954 210.832 105.188 211.987L198.182 211.975C205.213 211.964 215.947 209.728 217.7 218.954C221.187 218.97 226.386 218.828 229.689 219.397C248.132 180.331 285.521 157.782 328.044 158.107Z"/><path fill="white" transform="scale(2 2)" d="M105.188 211.987L198.182 211.975C205.213 211.964 215.947 209.728 217.7 218.954C221.187 218.97 226.386 218.828 229.689 219.397C225.386 229.179 223.27 235.061 221.377 245.707C218.823 264.037 220.319 283.114 227.631 300.364C230.431 306.97 232.219 313.61 241.061 310.863C243.83 315.123 246.053 318.876 249.034 323.1C257.33 316.107 266.21 326.376 259.624 334.309C261.916 336.632 268.421 342.154 271.329 343.25C266.983 351.579 276.362 355.062 282.314 357.875C305.064 368.627 334.151 370.15 358.002 362.339C358.033 372.825 356.597 390.448 349.057 398.386C342.335 405.464 331.761 404.045 322.717 404.241C321.986 396.772 315.516 393.24 309.756 398.918C307.27 401.371 308.095 412.088 308.095 416.377L253.423 416.377C253.439 412.228 253.531 407.616 253.313 403.86C252.872 396.257 245.18 394.027 240.233 398.877C237.671 401.389 238.589 413.095 238.578 416.377L183.725 416.377C183.749 411.751 184.816 400.706 181.276 398.013C175.33 393.491 169.483 397.226 168.999 404.241L115.76 404.241C115.849 402.414 115.806 400.805 115.76 398.974C119.566 398.99 129.172 399.889 132.435 397.001C136.837 393.103 135.58 384.86 129.34 383.861C125.873 383.306 119.806 383.621 115.76 383.627C115.48 365.67 115.74 346.904 115.75 328.863L115.787 315.892C115.81 310.281 116.756 307.795 112.841 303.363L112.995 303.088C109.009 300.339 110.312 297.465 107.067 293.201C107.643 292.519 108.193 292.035 108.847 291.426C109.28 289.465 110.821 286.218 112.727 285.351L112.841 284.902C96.6089 291.69 100.63 266.679 100.754 257.5C88.9323 253.064 87.2068 246.871 87.7297 234.951C88.3387 223.277 87.7954 210.832 105.188 211.987Z"/><path transform="scale(2 2)" d="M105.188 211.987L198.182 211.975C205.213 211.964 215.947 209.728 217.7 218.954C221.187 218.97 226.386 218.828 229.689 219.397C225.386 229.179 223.27 235.061 221.377 245.707C214.395 245.15 182.029 246.672 178.061 244.909C176.386 245.102 176.128 245.104 174.455 244.909C164.524 247.957 144.412 243.899 133.848 245.707C140.883 259.061 122.487 257.551 115.76 257.5C115.774 264.45 116.069 273.853 115.45 280.794C115.362 281.772 113.03 284.322 112.841 284.902C96.6089 291.69 100.63 266.679 100.754 257.5C88.9323 253.064 87.2068 246.871 87.7297 234.951C88.3387 223.277 87.7954 210.832 105.188 211.987Z"/><path fill="#BCDEF6" transform="scale(2 2)" d="M102.837 226.815L168.999 226.815C169.163 234.197 165.978 241.721 174.455 244.909C164.524 247.957 144.412 243.899 133.848 245.707C130.099 241.751 124.33 242.755 119.225 242.774L102.837 242.814C102.299 238.584 102.622 231.178 102.837 226.815Z"/><path fill="#BCDEF6" transform="scale(2 2)" d="M217.7 218.954C221.187 218.97 226.386 218.828 229.689 219.397C225.386 229.179 223.27 235.061 221.377 245.707C214.395 245.15 182.029 246.672 178.061 244.909C185.874 241.082 183.76 234.512 183.725 226.815C193.152 226.716 217.17 230.969 217.7 218.954Z"/><path transform="scale(2 2)" d="M249.034 323.1C257.33 316.107 266.21 326.376 259.624 334.309C249.615 341.204 241.585 327.832 249.034 323.1Z"/><path fill="#FEC302" transform="scale(2 2)" d="M241.061 310.863C248.699 304.25 241.43 296.525 238.748 288.054C214.98 212.983 299.735 146.256 367.267 182.4C366.368 185.044 370.771 188.12 372.239 190.207C375.142 194.336 378.439 198.859 381.056 203.123C415.677 259.547 395.557 337.028 325.594 350.979C323.062 351.484 321.943 352.345 319.126 352.588C309.022 351.693 299.721 349.412 290.426 345.523C283.59 342.664 277.558 335.86 271.329 343.25C268.421 342.154 261.916 336.632 259.624 334.309C266.21 326.376 257.33 316.107 249.034 323.1C246.053 318.876 243.83 315.123 241.061 310.863Z"/><path transform="scale(2 2)" d="M324.991 204.295C331.773 204.701 332.408 210.401 332.271 215.786C342.746 219.336 349.845 225.57 352.633 236.582C354.414 243.616 354.766 250.261 346.338 252.365C337.121 250.059 340.508 246.042 338.42 239.498C330.995 216.231 298.564 239.724 317.474 253.733C321.384 256.884 326.852 255.651 331.384 256.64C360.183 262.923 361.689 302.144 333.167 312.185C333.055 317.797 332.919 321.08 327.144 323.1C320.053 323.524 317.94 318.329 318.297 312.185C293.604 304.277 291.44 271.918 308.663 277.93C313.02 279.451 311.925 285.848 313.169 289.521C317.171 301.348 333.077 301.042 337.88 290.003C341.717 281.342 336.194 271.267 326.652 270.595C324.54 270.328 322.077 270.574 320.003 270.222C292.071 265.471 288.955 226.106 318.297 215.786C316.72 209.646 318.308 205.633 324.991 204.295Z"/><path fill="#F2B202" transform="scale(2 2)" d="M367.267 182.4C390.309 194.581 406.464 213.657 413.666 238.524C430.83 297.787 379.572 358.284 319.126 352.588C321.943 352.345 323.062 351.484 325.594 350.979C395.557 337.028 415.677 259.547 381.056 203.123C378.439 198.859 375.142 194.336 372.239 190.207C370.771 188.12 366.368 185.044 367.267 182.4Z"/><path fill="#6BBEF2" transform="scale(2 2)" d="M358.002 362.339C365.793 359.791 369.985 357.095 376.81 354.428L376.81 384.876C372.862 384.834 366.667 384.034 363.678 386.819C360.013 390.232 361.288 397.621 366.619 398.564C369.787 399.119 373.14 398.992 376.364 398.993L389.931 398.974L389.931 416.377L322.717 416.377L322.717 404.241C331.761 404.045 342.335 405.464 349.057 398.386C356.597 390.448 358.033 372.825 358.002 362.339Z"/><path fill="#BCDEF6" transform="scale(2 2)" d="M102.837 398.974C107.104 398.881 111.483 398.952 115.76 398.974C115.806 400.805 115.849 402.414 115.76 404.241L168.999 404.241L168.999 416.377L102.837 416.377C102.758 410.646 102.836 404.721 102.837 398.974Z"/><path fill="#6BBEF2" transform="scale(2 2)" d="M115.76 186.736C108.207 182.806 109.67 172.959 114.721 168.295C122.684 161.31 155.211 147.145 165.274 142.672L217.481 119.697C230.556 113.872 239.423 112 254.33 113.951C264.543 115.287 276.131 122.521 285.955 125.903L286.256 126.004C296.121 118.987 297.844 130.325 297.873 137.122C307.361 138.749 323.256 156.407 328.044 158.107C285.521 157.782 248.132 180.331 229.689 219.397C226.386 218.828 221.187 218.97 217.7 218.954C215.947 209.728 205.213 211.964 198.182 211.975L105.188 211.987C105.46 208.123 113.358 189.975 115.76 186.736Z"/><path transform="scale(2 2)" d="M115.76 186.736C108.207 182.806 109.67 172.959 114.721 168.295C122.684 161.31 155.211 147.145 165.274 142.672L217.481 119.697C230.556 113.872 239.423 112 254.33 113.951C264.543 115.287 276.131 122.521 285.955 125.903L286.256 126.004C296.121 118.987 297.844 130.325 297.873 137.122C295.59 147.5 287.04 142.677 280.868 140.017L268.406 134.652C247.876 125.733 239.785 125.382 218.685 135.693C194.96 147.286 170.12 156.395 146.534 168.345C140.26 171.524 132.108 174.71 126.319 178.608C125.316 184.77 122.504 188.147 115.76 186.736Z"/><path transform="scale(2 2)" d="M182.864 78.7502L325.862 78.753C330.873 78.7522 337.23 78.4934 342.13 78.7088C351.156 79.1056 354.006 92.2205 342.8 94.1141C341.184 94.3279 333.265 94.1194 331.086 94.1126L194.241 94.1119C191.046 94.1136 187.752 94.2591 184.576 94.1189C174.779 93.6862 172.932 81.4904 182.864 78.7502Z"/><path transform="scale(2 2)" d="M141.983 78.7502C144.752 78.6303 152.097 78.3862 154.466 79.0484C163.079 81.4561 162.04 90.4 154.882 94.1141C152.764 94.3826 149.926 93.9823 147.959 94.228C135.425 95.7936 131.642 82.5079 141.983 78.7502Z"/></svg>