<?xml version="1.0" encoding="utf-8" ?><svg xmlns="http://www.w3.org/2000/svg" xmlns:xlink="http://www.w3.org/1999/xlink" width="1024" height="1024" viewBox="0 0 1024 1024"><path transform="scale(2 2)" d="M394.857 156.837C394.118 149.616 397.477 147.722 404.255 147.304C413.828 146.712 444.788 147.942 452.801 154.258C465.098 163.951 423.418 175.746 445.069 197.482C448.897 201.326 456.308 202.825 456.756 208.623C456.918 214.871 449.392 215.553 444.865 216.992C423.866 223.667 419.092 249.291 431.066 266.121C434.854 270.688 438.493 275.206 432.937 280.529C428.126 285.137 424.043 280.526 419.727 279.208C404.345 274.511 382.683 284.826 386.292 303.252C387.439 308.084 390.535 311.303 385.726 315.657C380.505 320.383 374.14 312.271 362.517 314.522C365.706 324.104 363.812 331.713 352.382 327.593C344.042 324.588 338.638 333.99 337.107 340.985C349.432 352.412 340.452 362.764 330.002 369.499C307.656 383.904 307.975 362.123 295.508 359.416C291.94 370.786 287.282 366.113 280.318 364.749C260.21 366.825 276.49 386.309 262.864 387.219C257.123 387.603 255.474 378.467 242.932 378.698C215.731 379.198 221.005 410.421 214.493 413.839C207.349 417.588 205.404 410.249 202.103 406.066C190.09 390.846 166.376 387.136 151.766 400.789C145.741 406.42 145.812 416.06 138.735 415.984C129.934 415.889 132.23 405.576 130.977 399.918C125.196 373.812 93.2045 366.948 72.4996 379.076C70.2016 380.422 67.7328 382.732 65.0964 383.276C60.4813 384.228 57.0662 380.444 57.4089 376.037C58.0799 367.408 72.373 334.605 82.3542 331.554C84.2398 332.068 85.6108 332.371 87.3127 333.373C88.9482 329.721 95.3885 323.822 98.6308 321.569C88.57 315.419 97.7658 307.906 103.423 302.616C121.289 285.908 142.453 272.963 165.082 263.776C177.575 258.704 185.254 265.694 190.301 275.754C196.335 287.78 211.944 289.109 223.424 284.766C219.815 274.037 215.633 260.409 214.408 249.28C212.914 235.706 237.829 245.06 243.339 248.452C248.639 242.185 260.052 236.972 268.147 236.202C269.821 229.603 269.424 205.299 278.091 207.787C289.855 211.163 301.11 228.459 308.153 237.156C316.594 227.13 322.641 222.1 322.495 207.915C297.15 183.233 343.834 163.792 362.121 157.434C368.159 155.335 376.654 151.665 379.449 159.851C380.575 159.818 394.533 157.111 394.857 156.837ZM255.121 254.198C252.66 269.373 238.566 259.013 229.474 257.017C230.056 260.749 230.731 263.806 232.07 267.359C232.837 267.522 235.288 268.643 236.041 269.047C248.39 275.69 260.776 270.407 264.485 257.017C283.348 266.073 298.233 246.689 282.884 233.062C278.663 242.426 281.637 251.998 267.12 250.236C263.557 249.804 258.079 252.124 255.121 254.198Z"/><path fill="#6FB3EF" transform="scale(2 2)" d="M169.528 297.451C185.726 317.656 213.143 320.746 236.137 310.425C243.412 321.586 256.636 336.217 268.147 343.115C263.184 347.402 259.604 351.401 256.11 356.968C234.489 351.033 211.798 355.058 203.891 379.283C186.042 361.337 164.238 360.992 144.908 376.915C137.109 355.647 118.456 349.311 96.6455 350.452C110.487 334.051 151.667 302.649 169.528 297.451Z"/><path fill="#6FB3EF" transform="scale(2 2)" d="M346.553 199.959C358.774 191.369 405.927 165.904 421.428 166.227C412.544 177.202 413.928 190.251 419.598 202.131C402.344 213.488 393.21 236.696 401.897 255.941C383.034 255.331 362.728 263.348 362.404 285.382C362.362 288.191 362.452 291.048 362.517 293.888C353.981 295.766 346.685 297.876 338.971 302.157C338.018 302.686 335.363 304.533 334.634 304.096C333.649 292.371 328.643 276.776 324.433 265.977C328.482 263.186 341.961 243.852 344.961 237.241C351.238 223.413 351.587 213.887 346.553 199.959Z"/><path fill="#BCDEF6" transform="scale(2 2)" d="M98.6308 321.569C100.06 321.799 102.951 321.849 104.029 320.859C122.381 304.014 141.096 288.597 164.759 279.559C181.262 272.494 172.605 279.955 182.814 289.52C195.923 301.803 212.328 304.392 228.709 297.451L236.137 310.425C213.143 320.746 185.726 317.656 169.528 297.451C151.667 302.649 110.487 334.051 96.6455 350.452C93.2283 351.128 90.0165 351.649 86.6843 352.699C85.7675 352.988 81.5424 354.691 81.0431 354.698C84.5051 347.565 93.2543 340.415 87.3127 333.373C88.9482 329.721 95.3885 323.822 98.6308 321.569Z"/><path fill="#BCDEF6" transform="scale(2 2)" d="M394.857 156.837C397.711 163.945 407.367 161.049 414.217 160.965C416.931 160.868 421.404 161.244 423.796 161.01L424.517 161.433C424.277 162.611 422.215 165.005 421.428 166.227C405.927 165.904 358.774 191.369 346.553 199.959C351.587 213.887 351.238 223.413 344.961 237.241C341.961 243.852 328.482 263.186 324.433 265.977C321.272 258.734 319.513 255.186 315.257 248.452C327.344 239.195 342.223 215.183 333.622 200.295C332.564 198.463 326.162 193.836 329.025 191.337C340.219 181.568 354.254 175.188 367.988 169.823C373.663 167.607 380.489 167.796 379.449 159.851C380.575 159.818 394.533 157.111 394.857 156.837Z"/><path fill="#1F63A1" transform="scale(2 2)" d="M423.796 161.01C427.383 161.715 430.219 161.887 433.844 161.822C424.384 176.992 419.828 190.963 433.844 206.569C411.1 217.667 407.443 241.99 414.055 264.245C390.176 264.12 372.338 275.913 372.025 301.258C364.603 301.149 355.136 302.216 350.055 307.864C344.423 314.126 341.409 313.977 334.634 318.014C334.673 313.463 334.538 308.587 334.634 304.096C335.363 304.533 338.018 302.686 338.971 302.157C346.685 297.876 353.981 295.766 362.517 293.888C362.452 291.048 362.362 288.191 362.404 285.382C362.728 263.348 383.034 255.331 401.897 255.941C393.21 236.696 402.344 213.488 419.598 202.131C413.928 190.251 412.544 177.202 421.428 166.227C422.215 165.005 424.277 162.611 424.517 161.433L423.796 161.01Z"/><path fill="#1F63A1" transform="scale(2 2)" d="M268.147 343.115C272.235 345.685 276.029 348.213 280.318 350.452C268.694 352.881 262.264 355.277 256.11 366.864C235.512 358.8 215.246 371.324 206.853 390.452C189.608 376.036 158.421 372.467 142.568 390.452C132.098 361.986 104.345 355.694 77.5524 361.759C77.975 360.886 80.6879 355.171 81.0431 354.698C81.5424 354.691 85.7675 352.988 86.6843 352.699C90.0165 351.649 93.2283 351.128 96.6455 350.452C118.456 349.311 137.109 355.647 144.908 376.915C164.238 360.992 186.042 361.337 203.891 379.283C211.798 355.058 234.489 351.033 256.11 356.968C259.604 351.401 263.184 347.402 268.147 343.115Z"/><path fill="#FEC302" transform="scale(2 2)" d="M282.884 227.702C305.75 251.377 321.515 283.389 321.616 316.856C321.637 323.844 320.074 325.36 318.786 331.554C317.243 340.957 317.846 341.65 325.426 348.09C332.723 354.289 322.934 358.716 317.46 360.192C313.633 357.451 310.714 350.407 308.012 348.934C302.85 346.119 298.506 344.733 293.212 340.985C262.064 327.703 239.459 300.338 232.07 267.359C232.837 267.522 235.288 268.643 236.041 269.047C248.39 275.69 260.776 270.407 264.485 257.017C283.348 266.073 298.233 246.689 282.884 233.062C282.653 230.819 282.514 229.958 282.884 227.702Z"/><path fill="#F28B04" transform="scale(2 2)" d="M318.786 331.554C317.243 340.957 317.846 341.65 325.426 348.09C332.723 354.289 322.934 358.716 317.46 360.192C313.633 357.451 310.714 350.407 308.012 348.934C302.85 346.119 298.506 344.733 293.212 340.985C300.663 341.07 307.191 340.621 313.444 336.058C315.324 334.686 316.736 332.648 318.786 331.554Z"/><path transform="scale(2 2)" d="M298.407 302.008C311.688 301.719 306.533 324.836 287.322 321.569C281.765 319.595 277.321 315.396 282.003 309.252C284.495 305.984 288.404 308.875 291.377 308.852C294.949 307.386 292.84 303.726 298.407 302.008Z"/><path transform="scale(2 2)" d="M292.077 269.13C295.698 268.271 299.337 270.483 300.241 274.094C301.145 277.704 298.978 281.371 295.379 282.319C293.011 282.943 290.49 282.246 288.779 280.493C287.069 278.74 286.434 276.202 287.117 273.85C287.799 271.498 289.694 269.695 292.077 269.13Z"/><path transform="scale(2 2)" d="M261.403 284.895C265.013 284.071 268.608 286.327 269.436 289.936C270.263 293.545 268.01 297.142 264.401 297.973C260.789 298.804 257.187 296.548 256.358 292.935C255.529 289.321 257.789 285.721 261.403 284.895Z"/><path fill="#FEC302" transform="scale(2 2)" d="M136.602 248.452C133.902 261.999 117.374 252.048 110.374 247.583C54.443 211.257 69.7573 124.539 135.855 109.172C176.205 99.7912 217.521 126.586 226.11 166.917C227.79 174.808 230.305 184.444 220.06 186.104C220.075 197.425 216.359 206.312 211.962 216.312C214.446 217.6 215.903 220.265 215.647 223.052C215.391 225.838 213.473 228.193 210.795 229.007C208.118 229.821 205.214 228.933 203.45 226.761C183.381 247.064 163.308 251.084 136.602 248.452Z"/><path transform="scale(2 2)" d="M136.602 248.452C133.902 261.999 117.374 252.048 110.374 247.583C54.443 211.257 69.7573 124.539 135.855 109.172C176.205 99.7912 217.521 126.586 226.11 166.917C227.79 174.808 230.305 184.444 220.06 186.104C211.853 183.954 214.309 180.151 213.268 173.468C205.35 122.648 142.775 103.069 106.955 141.052C78.6122 171.106 85.7346 221.504 124.334 239.242C129.659 241.689 136.109 241.003 136.602 248.452Z"/><path transform="scale(2 2)" d="M201.941 221.764C202.16 219.488 203.494 217.469 205.503 216.376C207.512 215.283 209.932 215.259 211.962 216.312C214.446 217.6 215.903 220.265 215.647 223.052C215.391 225.838 213.473 228.193 210.795 229.007C208.118 229.821 205.214 228.933 203.45 226.761C202.311 225.358 201.769 223.563 201.941 221.764Z"/><path transform="scale(2 2)" d="M147.92 136.254C153.728 135.576 167.065 135.279 164.854 145.12C162.868 152.645 154.315 149.177 148.714 149.855C130.556 152.052 121.504 164.594 117.738 180.938C113.365 192.633 92.3724 183.253 113.638 155.57C122.574 143.937 133.623 138.137 147.92 136.254Z"/><path transform="scale(2 2)" d="M111.821 196.795C120.322 196.089 129.953 211.277 119.187 216.308C109.606 216.91 101.147 200.886 111.821 196.795Z"/><path transform="scale(2 2)" d="M299.279 110.08C320.172 92.6371 331.39 109.584 322.796 114.556C317.722 117.491 314.965 114.54 309.255 119.605C305.787 123.097 306.083 124.394 305.917 129.104C305.507 139.35 291.554 138.671 292.833 127.611C294.334 114.643 276.758 116.372 275.233 115.029C269.981 110.406 271.769 103.587 279.277 102.592C286.426 101.833 294.127 105.286 299.279 110.08Z"/><path transform="scale(2 2)" d="M75.1614 269.044C84.2977 267.108 86.2684 280.545 76.1446 283.201C66.4746 284.475 64.9412 270.779 75.1614 269.044Z"/><path transform="scale(2 2)" d="M267.077 152.579C270.796 152.064 274.235 154.643 274.783 158.357C275.331 162.072 272.783 165.533 269.074 166.115C265.317 166.703 261.802 164.116 261.247 160.354C260.692 156.593 263.311 153.1 267.077 152.579Z"/><path transform="scale(2 2)" d="M353.875 94.8967C357.569 94.2683 361.077 96.7409 361.727 100.431C362.377 104.121 359.926 107.644 356.239 108.316C352.522 108.993 348.964 106.516 348.308 102.795C347.653 99.0741 350.15 95.5303 353.875 94.8967Z"/></svg>