<?xml version="1.0" encoding="utf-8" ?><svg xmlns="http://www.w3.org/2000/svg" xmlns:xlink="http://www.w3.org/1999/xlink" width="1024" height="1024" viewBox="0 0 1024 1024"><path transform="scale(2 2)" d="M90.8786 223.627C90.6106 216.564 90.8698 209.007 90.8738 201.892L90.869 136.724C90.8698 128.822 90.5725 119.647 92.4169 112.002C105.843 58.3889 184.099 63.8954 190.504 116.193C190.987 120.138 190.873 124.466 190.89 128.483C201.914 129.488 213.124 137.71 219.12 147.031C236.555 174.135 217.525 185.211 210.804 172.739C204.731 172.94 198.283 172.66 192.128 172.739C192.137 176.08 192.252 179.324 192.005 182.681C191.519 189.318 183.201 191.971 178.564 187.661C175.1 184.441 176.229 177.306 176.152 172.739L157.548 172.739C151.399 185.55 131.235 176.388 147.047 148.767C153.418 137.637 162.956 131.79 175.134 128.483C175.377 117.795 173.69 108.648 166.035 100.659C143.674 77.3245 106.947 93.2266 106.744 127.128L106.75 223.627C138.398 224.002 170.884 223.632 202.593 223.633L229.616 223.616C237.806 223.609 251.336 220.879 251.523 232.862C256.471 232.682 268.655 232.602 273.284 233.224C272.784 229.943 274.203 226.665 276.937 224.783C279.671 222.902 283.24 222.748 286.126 224.388C289.012 226.027 290.707 229.171 290.491 232.483C294.126 232.33 306.379 232.152 309.449 233.228L309.831 232.862C308.69 219.925 328.626 223.623 337.135 223.627L410.511 223.623C416.088 223.627 423.401 223.279 428.836 224.069C449.935 227.138 458.999 252.459 445.197 268.449C440.929 273.397 436.988 274.449 431.567 277.491L423.783 333.299C419.602 363.22 400.219 387.847 371.856 398.938C367.837 400.51 363.523 401.479 359.69 403.308C362.142 406.669 366.042 413.231 367.953 416.979C373.646 416.955 384.556 415.604 388.595 419.725C392.779 423.995 390.397 432.297 384.469 433.089C355.465 436.965 357.686 428.218 344.358 407.944C343.77 407.051 343.153 405.762 342.743 404.791L322.463 404.81C313.807 404.812 304.298 406.803 304.225 394.985C298.091 394.985 290.155 395.295 284.186 394.985C281.058 386.108 268.346 388.915 260.085 388.928L182.443 388.944C175.179 388.941 166.469 388.679 159.34 388.938C136.727 381.762 123.186 377.196 110.865 353.287C107.415 346.593 105.64 339.498 96.4203 342.972C95.2889 336.933 94.7927 329.998 93.6926 323.745C84.3179 323.957 84.8004 314.865 84.1195 308.261L82.2545 289.589C81.9232 286.246 81.4924 280.965 80.838 277.825L80.7666 277.491C46.7546 264.807 57.1008 222.372 90.8786 223.627Z"/><path fill="#FEC302" transform="scale(2 2)" d="M167.888 312.583C170.676 311.933 178.299 301.603 184.214 298.305C193.903 292.825 206.951 294.295 217.695 294.295L401.704 294.316C402.948 294.316 411.988 294.121 412.641 294.303C409.45 324.185 408.882 353.4 383.774 373.51C365.435 388.11 346.685 389.54 324.278 388.933C317.29 388.744 306.423 386.576 304.225 394.985C298.091 394.985 290.155 395.295 284.186 394.985C281.058 386.108 268.346 388.915 260.085 388.928L182.443 388.944C175.179 388.941 166.469 388.679 159.34 388.938C158.483 387.298 157.664 386.683 156.237 385.618C140.459 373.865 130.253 356.376 127.74 336.862C127.265 333.17 126.421 324.458 127.895 321.221C141.719 331.759 159.397 327.418 167.888 312.583Z"/><path fill="#BCDEF6" transform="scale(2 2)" d="M273.284 233.224C272.784 229.943 274.203 226.665 276.937 224.783C279.671 222.902 283.24 222.748 286.126 224.388C289.012 226.027 290.707 229.171 290.491 232.483C294.126 232.33 306.379 232.152 309.449 233.228L309.831 232.862C313.314 242.382 320.648 239.845 329.637 239.8L404.804 239.803C410.854 239.804 424.117 239.097 429.123 240.708C438.523 243.732 437.78 258.063 428.876 261.18C425.361 262.41 395.127 261.794 389.552 261.792L203.317 261.78C195.553 261.777 186.86 261.49 179.251 262.202C166.778 263.368 155.578 275.219 154.749 287.71C153.689 296.823 157.393 306.376 146.514 310.464C146.237 309.766 146.501 302.58 146.505 301.133L146.512 277.759C146.521 266.127 146.076 254.017 154.89 245.223C156.575 243.541 159.141 241.914 160.138 239.809C164.351 239.997 170.184 239.808 174.512 239.807L229.182 239.813C237.359 239.829 249.128 242.498 251.523 232.862C256.471 232.682 268.655 232.602 273.284 233.224Z"/><path transform="scale(2 2)" d="M273.284 233.224C272.784 229.943 274.203 226.665 276.937 224.783C279.671 222.902 283.24 222.748 286.126 224.388C289.012 226.027 290.707 229.171 290.491 232.483C290.203 236.895 286.638 240.383 282.22 240.573C277.802 240.764 273.95 237.596 273.284 233.224Z"/><path fill="#FDB102" transform="scale(2 2)" d="M167.888 312.583C172.613 301.618 168.205 287.583 174.087 281.703C178.296 277.495 182.604 278.193 188.042 278.189L414.974 278.192C414.226 282.75 413.573 290.316 412.641 294.303C411.988 294.121 402.948 294.316 401.704 294.316L217.695 294.295C206.951 294.295 193.903 292.825 184.214 298.305C178.299 301.603 170.676 311.933 167.888 312.583Z"/><path fill="#FDB102" transform="scale(2 2)" d="M97.3003 278.192L117.861 278.192C117.836 293.948 114.636 309.951 127.895 321.221C126.421 324.458 127.265 333.17 127.74 336.862C130.253 356.376 140.459 373.865 156.237 385.618C157.664 386.683 158.483 387.298 159.34 388.938C136.727 381.762 123.186 377.196 110.865 353.287C107.415 346.593 105.64 339.498 96.4203 342.972C95.2889 336.933 94.7927 329.998 93.6926 323.745C104.078 321.532 100.517 310.642 99.6948 302.416L97.3003 278.192Z"/><path fill="#FEC302" transform="scale(2 2)" d="M157.548 172.739C157.252 136.325 204.424 134.833 209.958 166.329C210.296 168.249 210.302 170.954 210.804 172.739C204.731 172.94 198.283 172.66 192.128 172.739C192.137 176.08 192.252 179.324 192.005 182.681C191.519 189.318 183.201 191.971 178.564 187.661C175.1 184.441 176.229 177.306 176.152 172.739L157.548 172.739Z"/><path transform="scale(2 2)" d="M176.152 172.739C175.772 157.771 192.652 158.64 192.128 172.739C192.137 176.08 192.252 179.324 192.005 182.681C191.519 189.318 183.201 191.971 178.564 187.661C175.1 184.441 176.229 177.306 176.152 172.739Z"/><path fill="#62BDFB" transform="scale(2 2)" d="M146.514 310.464C129.244 316.409 134.416 280.966 134.125 272.52C133.526 255.061 143.96 244.141 160.138 239.809C159.141 241.914 156.575 243.541 154.89 245.223C146.076 254.017 146.521 266.127 146.512 277.759L146.505 301.133C146.501 302.58 146.237 309.766 146.514 310.464Z"/><path fill="#62BDFB" transform="scale(2 2)" d="M99.396 239.809L129.206 239.809C123.504 246.995 120.594 252.587 118.992 261.786L93.6926 261.786C68.297 262.167 75.0801 242.221 83.7433 240.253C87.729 239.348 95.0487 239.792 99.396 239.809Z"/><path fill="#4199EA" transform="scale(2 2)" d="M93.6926 261.786C68.297 262.167 75.0801 242.221 83.7433 240.253C87.729 239.348 95.0487 239.792 99.396 239.809C91.5605 241.301 92.1606 255.127 93.483 260.897L93.6926 261.786Z"/><path transform="scale(2 2)" d="M96.4203 342.972C105.64 339.498 107.415 346.593 110.865 353.287C123.186 377.196 136.727 381.762 159.34 388.938C166.469 388.679 175.179 388.941 182.443 388.944L260.085 388.928C268.346 388.915 281.058 386.108 284.186 394.985C284.917 408.988 265.891 404.792 255.681 404.793L183.774 404.794C179.148 404.797 173.563 405.243 169.154 404.791L159.522 420.387C149.26 437.054 151.716 430.924 133.426 432.421C117.196 433.749 119.506 417.848 126.786 416.596C131.361 415.809 138.64 416.223 143.399 416.253C145.857 412.386 149.479 407.172 151.563 403.308C130.946 397.72 115.13 387.947 102.541 370.123C98.2882 364.101 87.3833 348.614 96.4203 342.972Z"/></svg>