<?xml version="1.0" encoding="utf-8" ?><svg xmlns="http://www.w3.org/2000/svg" xmlns:xlink="http://www.w3.org/1999/xlink" width="1024" height="1024" viewBox="0 0 1024 1024"><path transform="scale(2 2)" d="M184.181 92.8982C166.906 79.4347 191.183 74.3842 204.395 77.675C220.679 81.7306 229.157 91.1323 237.364 104.856C251.891 100.333 259.215 100.808 273.338 104.856C277.204 93.0672 291.76 81.7681 303.367 78.4132C332.171 70.0871 340.854 88.9072 325.63 92.8982C307.851 87.7515 293.873 94.8253 285.525 111.54C291.336 115.475 299.606 123.811 301.295 130.862C300.362 135.155 299.265 136.765 295.157 138.241C297.642 143.719 297.898 148.221 297.901 154.171C314.804 147.96 306.191 171.854 304.228 178.547C310.631 175.493 316.901 171.574 323.054 168.44C336.832 161.422 355.581 155.188 356.287 136.753C355.641 116.297 370.843 118.351 370.886 133.522C370.966 161.95 349.236 172.468 326.773 182.539C321.107 185.078 314.616 189.498 308.708 192.493C309.566 194.603 310.4 196.458 311.37 198.522C322.087 198.449 357.404 201.664 362.106 206.433C363.465 207.812 363.974 209.81 364.435 211.633C363.441 214.927 362.859 216.667 359.528 218.214C360.22 219.075 375.868 223.313 378.758 225.966C379.321 225.951 379.155 226.016 379.643 225.81C375.695 209.552 402.045 215.634 392.677 228.696C397.343 228.325 402.555 232.639 406.634 235.059C410.646 231.051 414.558 232.831 418.475 235.789C467.082 272.421 445.219 348.759 383.334 347.463C367.351 347.128 356.179 340.864 342.328 334.381C345.502 338.333 350.162 345.415 352.418 349.895C354.147 353.327 337.521 403.017 335.957 409.12C339.445 412.784 344.531 417.053 347.175 421.212C350.803 426.917 342.801 434.824 337.643 430.474C332.595 426.217 327.723 420.438 323.03 415.714C320.443 413.004 321.688 409.628 322.501 406.467L333.571 368.994C335.027 363.97 337.119 357.54 338.031 352.505C333.029 345.681 326.421 335.325 322.007 327.906C316.085 353.451 292.853 398.141 269.981 413.243C246.343 429.231 223.769 395.386 213.47 378.656C208.874 371.189 203.341 364.502 211.074 358.118C208.154 352.932 206.138 347.753 205.057 341.867C193.701 345.516 193.789 329.153 192.636 321.56C186.207 332.515 180.153 343.588 173.343 354.345C174.868 358.395 176.101 363.61 177.316 367.862L183.985 391.174C186.016 398.313 188.644 406.004 190.047 413.335C189.882 418.771 180.218 424.333 177.6 427.591C170.752 436.116 159.856 430.358 164.544 421.171C165.627 419.049 173.011 412.927 175.452 410.694L164.948 373.844C163.157 367.582 161.3 361.352 159.613 355.054C157.955 348.86 166.56 340.228 169.083 334.381C113.246 370.21 51.2072 328.671 71.6948 263.704C73.6534 257.493 77.5767 250.018 85.2261 256.011C85.3604 251.598 91.986 245.054 95.743 242.951C90.684 238.902 91.122 234.095 95.9623 230.263C122.649 209.136 156.507 201.371 189.871 199.572C192.793 199.414 196.185 199.266 199.07 198.63L199.549 198.522C200.385 196.545 201.185 194.488 201.989 192.493C183.486 180.752 153.194 170.611 144.511 150.71C141.298 143.606 139.098 133.721 140.717 125.982C141.4 122.715 146.932 121.035 150.01 122.495C155.487 125.093 154.375 129.831 154.92 134.87C156.912 153.27 170.376 158.432 184.422 166.297L199.147 174.428C203.23 176.658 206.775 178.716 211.074 180.495C195.559 159.493 203.139 125.742 224.477 111.54C219.222 100.208 205.874 89.0072 192.753 91.1338C189.827 91.6081 187.21 92.7589 184.181 92.8982Z"/><path fill="#BCDEF6" transform="scale(2 2)" d="M281.566 247.189C276.775 239.354 278.647 227.526 284.496 220.722C297.045 206.125 332.291 213.63 348.83 216.953C352.203 217.63 355.708 218.591 359.164 218.253L359.528 218.214C360.22 219.075 375.868 223.313 378.758 225.966C379.321 225.951 379.155 226.016 379.643 225.81C375.695 209.552 402.045 215.634 392.677 228.696C397.343 228.325 402.555 232.639 406.634 235.059C402.029 243.276 408.349 244.924 413.351 249.442C426.945 261.722 431.676 278.32 430.994 295.969C428.694 296.773 426.487 299.375 424.413 300.783C382.168 329.476 321.807 287.889 290.921 256.871C288.364 254.302 284.413 249.039 281.566 247.189Z"/><path transform="scale(2 2)" d="M379.643 225.81C375.695 209.552 402.045 215.634 392.677 228.696C387.575 232.255 382.736 231.345 379.643 225.81Z"/><path fill="#BCDEF6" transform="scale(2 2)" d="M95.743 242.951C98.0245 243.598 100.515 244.085 102.596 242.601C134.349 219.952 161.082 214.482 200.381 213.011C204.356 212.862 212.668 212.431 216.201 213.295C227.556 216.071 237.6 231.732 232.069 243.965C230.333 244.256 226.171 249.493 224.573 251.162C191.194 286.018 136.76 330.199 86.798 300.451C85.3358 299.58 84.1665 298.444 82.5273 297.8C78.9274 279.949 89.9461 264.053 85.2261 256.011C85.3604 251.598 91.986 245.054 95.743 242.951Z"/><path fill="#FED511" transform="scale(2 2)" d="M246.837 267.843C253.73 266.659 268.301 265.04 275.09 265.584C286.779 283.991 296.89 295.803 311.37 311.421C309.715 326.37 305.058 338.995 298.859 352.505C295.835 353.516 292.296 356.696 289.416 358.359C280.153 363.704 270.011 366.518 259.353 364.317C256.78 363.786 252.791 363.474 251.276 361.259C257.619 356.188 253.381 346.391 243.678 349.671C239.502 347.075 235.509 324.479 235.144 319.585C244.453 317.042 255.338 315.467 264.98 314.481C270.409 313.926 272.023 312.702 273.338 307.246C271.509 300.878 268.852 299.884 262.65 300.539C253.297 301.526 244.331 303.25 235.144 305.17C233.295 292.031 246.48 273.975 246.837 267.843Z"/><path fill="#83BDF8" transform="scale(2 2)" d="M220.851 170.149C201.212 133.276 253.001 95.2307 283.793 128.712C287.59 132.84 288.836 138.312 295.157 138.241C297.642 143.719 297.898 148.221 297.901 154.171C293.879 158.123 293.021 165.96 291.435 171.694C272.922 157.415 246.981 154.955 226.49 166.941C224.622 168.034 222.741 169.095 220.851 170.149Z"/><path fill="#83BDF8" transform="scale(2 2)" d="M82.5273 297.8C84.1665 298.444 85.3358 299.58 86.798 300.451C136.76 330.199 191.194 286.018 224.573 251.162C226.171 249.493 230.333 244.256 232.069 243.965C230.23 248.516 227.256 253.689 224.65 257.984C205.026 289.817 152.789 348.602 109.21 330.709C95.7907 325.199 84.3641 312.473 82.5273 297.8Z"/><path fill="#83BDF8" transform="scale(2 2)" d="M281.566 247.189C284.413 249.039 288.364 254.302 290.921 256.871C321.807 287.889 382.168 329.476 424.413 300.783C426.487 299.375 428.694 296.773 430.994 295.969C425.874 314.447 416.755 327.101 396.907 332.354C357.456 342.795 311.142 294.909 292.035 265.828C288.66 260.69 283.141 253.071 281.566 247.189Z"/><path fill="#FEC302" transform="scale(2 2)" d="M251.276 361.259C252.791 363.474 256.78 363.786 259.353 364.317C270.011 366.518 280.153 363.704 289.416 358.359C292.296 356.696 295.835 353.516 298.859 352.505C293.937 363.336 272.735 397.275 260.916 402.274C247.92 407.771 230.49 381.099 225.645 372.259L240.357 366.179C243.905 364.726 248.095 363.305 251.276 361.259Z"/><path fill="#FEC302" transform="scale(2 2)" d="M207.282 327.074C214.83 324.544 227.603 321.054 235.144 319.585C235.509 324.479 239.502 347.075 243.678 349.671C235.604 353.194 227.568 356.573 219.415 359.913C216.476 357.733 214.752 356.425 211.074 358.118C208.154 352.932 206.138 347.753 205.057 341.867C210.468 337.349 208.502 333.138 207.282 327.074Z"/><path fill="#FEC302" transform="scale(2 2)" d="M234.301 270.034C238.471 269.062 242.603 268.43 246.837 267.843C246.48 273.975 233.295 292.031 235.144 305.17C226.354 307.014 213.68 310.357 205.057 313.121C204.368 310.518 204.08 309.715 203.014 307.246C216.075 297.184 224.281 282.647 234.122 270.255L234.301 270.034Z"/><path fill="#FEC302" transform="scale(2 2)" d="M252.684 173.356C271.136 171.54 287.503 183.301 296.643 198.522C283.518 203.501 275.672 204.877 268.464 219.8C262.957 231.2 264.076 240.235 267.922 251.685C263.839 251.729 259.067 252.104 254.941 252.332C251.26 253.076 246.469 253.642 242.707 254.113C244.282 250.875 246.274 246.701 247.161 243.209C251.487 226.164 238.592 206.728 222.788 200.828C220.506 199.977 216.8 199.135 214.368 198.522C223.415 184.01 234.873 174.918 252.684 173.356Z"/></svg>