<?xml version="1.0" encoding="utf-8" ?><svg xmlns="http://www.w3.org/2000/svg" xmlns:xlink="http://www.w3.org/1999/xlink" width="1024" height="1024" viewBox="0 0 1024 1024"><path transform="scale(2 2)" d="M186.054 220.46C170.873 220.26 148.81 224.131 139.009 211.522C128.551 198.066 135.439 178.376 152.356 175.179C156.515 174.411 160.434 174.574 164.692 174.576L205.338 174.565C232.581 174.56 238.069 221.998 201.066 220.46C204.974 233.957 212.006 251.091 217.058 264.487L222.097 277.872C223.452 281.484 224.67 285.312 226.636 288.595C228.424 288.323 230.106 288.088 231.902 287.886C233.649 285.834 244.949 273.568 247.051 272.381C253.807 268.565 257.484 273.15 257.54 279.557C258.951 278.308 261.284 275.735 262.679 274.314L272.536 264.29C274.444 262.32 276.082 260.344 278.247 258.65C270.793 255.845 270.003 249.859 276.173 244.913C280.314 241.594 295.949 220.749 298.628 239.468C307.347 230.079 318.571 220.518 326.596 210.896C329.319 209.836 330.2 210.335 333.094 210.896C336.867 208.842 338.275 207.553 339.761 203.461C341.132 207.549 345.034 218.611 345.697 222.128C347.536 225.471 348.401 228.396 349.602 231.994L353.915 245.01C354.695 247.414 355.571 250.553 356.517 252.834C375.35 246.565 394.886 246.459 413.128 254.869C417.02 256.664 418.816 259.93 417.487 264.109C421.409 265.569 426.148 268.861 429.292 271.594C436.569 267.064 440.779 274.229 444.657 279.523C470.803 315.209 461.685 367.963 423.904 391.256C430.865 391.86 438.181 397.04 431.467 402.533C428.658 404.83 424.546 403.904 421.142 403.917L341.982 403.88C337.117 403.884 331.205 404.112 326.347 403.671C321.191 403.202 319.542 394.319 324.547 391.85C328.541 389.88 335.11 390.746 339.761 390.705C304.172 366.514 294.783 316.92 318.894 281.55C324.065 273.965 335.504 262.03 344.254 258.65C342.685 253.342 340.464 245.334 338.608 240.33L273.631 306.253C271.726 308.191 268.184 311.654 266.75 313.747C267.134 331.133 264.367 341.477 249.288 350.66C250.662 354.201 252.047 357.734 253.344 361.303C258.207 361.307 263.452 360.192 266.946 363.572C270.649 367.155 268.697 373.526 263.607 374.483C254.564 374.84 244.975 374.606 235.89 374.327C229.378 374.128 223.445 362.576 239.617 361.303C238.866 359.473 237.846 357.178 237.204 355.351C233.128 355.382 224.17 355.372 220.901 353.278C214.633 349.261 211.483 350.842 205.043 349.12L204.764 349.524C203.076 351.995 202.057 354.662 200.781 357.343C194.436 370.683 184.674 383.161 171.753 390.705L204.946 390.694C209.104 390.692 214.659 390.442 218.591 390.783C223.349 391.196 226.177 399.146 221.595 402.44C218.303 404.806 213.482 403.88 209.522 403.875L58.6213 403.84C50.3815 403.786 50.3459 390.841 58.0464 390.756C67.7366 390.648 77.9851 390.585 87.6642 390.705C70.015 378.541 57.6401 361.857 53.6418 340.536C52.2795 333.271 48.5662 317.707 58.6357 316.798C61.8557 317.207 64.3039 318.21 65.4508 321.587C67.4047 322.249 68.7276 324.202 71.6025 324.513C73.7661 323.366 74.1059 314.662 75.2667 312.107C75.1622 308.522 73.1948 302.019 70.7089 299.218C71.9535 296.834 72.4875 295.996 72.1814 293.404C73.1264 292.403 72.951 291.167 75.1073 288.978C77.5806 286.466 83.2595 281.84 84.6421 278.985L84.3332 278.606C77.9616 280.57 72.463 275.225 76.2112 269C79.6438 263.3 95.0581 255.517 101.327 253.102C121.816 245.209 144.244 247.402 163.837 256.98C171.03 245.948 180.158 232.196 186.054 220.46ZM175.501 264.109C185.485 268.66 196.617 284.504 202.093 293.404C203.022 294.787 203.997 296.323 205.043 297.599C210.171 296.939 209.991 296.277 214.153 293.404C212.465 288.282 210.149 282.572 208.198 277.503L197.399 249.413C196.538 247.134 193.306 236.99 192.392 235.691C187.407 242.909 179.163 256.344 175.501 264.109Z"/><path fill="#BCDEF6" transform="scale(2 2)" d="M360.318 265.409C372.433 260.388 388.893 260.472 401.323 264.459C407.988 266.598 411.804 270.796 417.487 264.109C421.409 265.569 426.148 268.861 429.292 271.594C423.925 278.248 430.342 282.172 434.046 287.397C444.785 302.543 448.162 319.741 445.464 338.021C442.394 339.511 438.28 348.29 435.837 351.372C417.878 374.034 390.374 391.001 360.9 383.326C358.129 382.605 349.01 379.223 347.006 379.407C311.721 358.663 308.948 301.83 341.963 275.696C344.03 274.059 345.88 272.396 348.485 271.594C354 291.087 360.751 316.688 378.978 326.904C383.426 329.398 389.259 332.372 392.593 326.074C396.25 319.167 387.363 316.897 383.148 313.938C372.409 306.399 369.694 294.527 365.89 282.59L360.318 265.409Z"/><path transform="scale(2 2)" d="M423.904 317.288C443.267 315.007 427.588 376.132 385.215 375.687C379.869 376.096 374.735 373.213 377.131 366.907C379.897 359.465 414.904 365.17 418.417 330.69C419.075 324.222 416.671 320.222 423.904 317.288Z"/><path fill="#BCDEF6" transform="scale(2 2)" d="M84.3332 278.606C86.5475 277.026 88.5416 275.165 90.7244 273.553C111.909 258.001 134.253 258.905 157.33 268.296C156.243 270.091 155.193 271.911 154.137 273.725C148.674 282.385 143.123 292.809 137.487 301.162C118.696 304.998 117.959 334.389 138.42 338.901C150.377 341.001 163.354 343.15 175.501 344.78C174.449 347.391 171.925 350.354 170.24 352.656C154.353 374.355 135.983 381.295 110.044 383.199C107.936 383.354 103.695 383.361 102.057 383.555C78.67 374.8 64.1176 345.671 65.4508 321.587C67.4047 322.249 68.7276 324.202 71.6025 324.513C73.7661 323.366 74.1059 314.662 75.2667 312.107C75.1622 308.522 73.1948 302.019 70.7089 299.218C71.9535 296.834 72.4875 295.996 72.1814 293.404C73.1264 292.403 72.951 291.167 75.1073 288.978C77.5806 286.466 83.2595 281.84 84.6421 278.985L84.3332 278.606Z"/><path fill="white" transform="scale(2 2)" d="M84.3332 278.606C86.5475 277.026 88.5416 275.165 90.7244 273.553C111.909 258.001 134.253 258.905 157.33 268.296C156.243 270.091 155.193 271.911 154.137 273.725C150.001 273.342 145.217 271.197 140.661 270.617C115.376 267.396 90.3566 281.299 79.0113 303.926C78.0261 305.891 76.2609 310.698 75.2667 312.107C75.1622 308.522 73.1948 302.019 70.7089 299.218C71.9535 296.834 72.4875 295.996 72.1814 293.404C73.1264 292.403 72.951 291.167 75.1073 288.978C77.5806 286.466 83.2595 281.84 84.6421 278.985L84.3332 278.606Z"/><path transform="scale(2 2)" d="M87.6642 316.798C100.07 317.793 85.6014 354.622 123.31 362.43C126.81 363.154 131.186 362.759 134.369 364.516C139.503 367.854 137.188 375.42 131.143 376.431C105.719 377.278 82.5171 355.438 81.1205 330.267C80.7287 323.206 79.3716 318.709 87.6642 316.798Z"/><path fill="#FEC302" transform="scale(2 2)" d="M339.761 203.461C341.132 207.549 345.034 218.611 345.697 222.128C343.475 221.326 341.085 220.54 338.819 221.673C336.17 222.997 320.815 239.359 317.564 242.714L278.73 282.255C273.318 287.746 265.671 296.249 260.12 301.162C257.353 298.376 255.488 296.389 252.321 294.068C250.703 292.906 249.119 292.102 247.341 291.225C250.035 287.818 256.066 282.814 257.54 279.557C258.951 278.308 261.284 275.735 262.679 274.314L272.536 264.29C274.444 262.32 276.082 260.344 278.247 258.65C270.793 255.845 270.003 249.859 276.173 244.913C280.314 241.594 295.949 220.749 298.628 239.468C307.347 230.079 318.571 220.518 326.596 210.896C329.319 209.836 330.2 210.335 333.094 210.896C336.867 208.842 338.275 207.553 339.761 203.461Z"/><path fill="#FEE41C" transform="scale(2 2)" d="M326.596 210.896C329.319 209.836 330.2 210.335 333.094 210.896L333.522 211.057C335.204 215.969 284.951 262.47 278.613 268.244C274.373 272.106 254.954 292.986 252.321 294.068C250.703 292.906 249.119 292.102 247.341 291.225C250.035 287.818 256.066 282.814 257.54 279.557C258.951 278.308 261.284 275.735 262.679 274.314L272.536 264.29C274.444 262.32 276.082 260.344 278.247 258.65C270.793 255.845 270.003 249.859 276.173 244.913C280.314 241.594 295.949 220.749 298.628 239.468C307.347 230.079 318.571 220.518 326.596 210.896Z"/><path transform="scale(2 2)" d="M278.247 258.65C270.793 255.845 270.003 249.859 276.173 244.913C280.314 241.594 295.949 220.749 298.628 239.468C296.77 243.586 283.04 258.099 278.247 258.65Z"/><path fill="#8BC2E8" transform="scale(2 2)" d="M175.501 344.78C180.164 345.495 186.225 346.207 190.663 347.062C177.089 381.478 135.634 403.349 102.057 383.555C103.695 383.361 107.936 383.354 110.044 383.199C135.983 381.295 154.353 374.355 170.24 352.656C171.925 350.354 174.449 347.391 175.501 344.78Z"/><path fill="#8BC2E8" transform="scale(2 2)" d="M347.006 379.407C349.01 379.223 358.129 382.605 360.9 383.326C390.374 391.001 417.878 374.034 435.837 351.372C438.28 348.29 442.394 339.511 445.464 338.021C437.49 381.872 382.117 407.826 347.006 379.407Z"/><path fill="#FEC302" transform="scale(2 2)" d="M136.224 321.587C133.638 310.949 153.629 312.494 160.467 311.83L185.448 309.402C191.384 308.868 196.143 308.2 202.093 308.585C199.982 311.841 200.195 311.512 199.367 315.581C198.041 324.159 199.588 328.003 202.093 335.966C184.454 332.64 166.402 330.439 148.645 327.782C142.943 326.928 139.066 327.611 136.224 321.587Z"/><path fill="#FEE41C" transform="scale(2 2)" d="M136.224 321.587C133.638 310.949 153.629 312.494 160.467 311.83L185.448 309.402C191.384 308.868 196.143 308.2 202.093 308.585C199.982 311.841 200.195 311.512 199.367 315.581C190.943 314.33 157.21 318.671 147.606 319.619C144.151 319.96 139.357 321.531 136.224 321.587Z"/><path fill="#FEC302" transform="scale(2 2)" d="M148.432 202.288C146.067 197.253 147.275 191.891 152.333 189.103C156.343 186.893 205.337 187.56 208.005 188.443C210.899 189.401 212.772 192.182 214.153 194.739C216.439 206.94 206.539 207.604 198.448 207.604L166.395 207.589C159.493 207.584 152.526 209.007 148.432 202.288Z"/><path fill="#FEE41C" transform="scale(2 2)" d="M148.432 202.288C146.067 197.253 147.275 191.891 152.333 189.103C156.343 186.893 205.337 187.56 208.005 188.443C210.899 189.401 212.772 192.182 214.153 194.739C212.23 195.05 206.508 194.758 204.147 194.751L174.142 194.725C168.33 194.722 161.556 194.205 155.907 195.336C152.88 195.942 150.654 201.271 148.432 202.288Z"/><defs><linearGradient id="gradient_0" gradientUnits="userSpaceOnUse" x1="243.47966" y1="338.21249" x2="221.57208" y2="304.20355"><stop offset="0" stop-color="#FBAF05"/><stop offset="1" stop-color="#FBD814"/></linearGradient></defs><path fill="url(#gradient_0)" transform="scale(2 2)" d="M230.424 301.162C244.146 296.458 264.916 319.679 245.543 338.021C243.322 333.306 236.253 307.747 226.636 320.476C223.262 326.458 231.18 336.122 233.105 342.588C206.995 341.801 204.098 303.539 230.424 301.162Z"/><path fill="#BCDEF6" transform="scale(2 2)" d="M168.877 274.896C177.336 281.7 182.444 286.963 188.551 295.907C184.041 296.667 177.374 297.133 172.615 297.599C167.17 298.159 159.347 299.166 154.137 299.218C157.224 292.367 164.769 281.86 168.877 274.896Z"/><path transform="scale(2 2)" d="M321.061 150.018L295.854 150.098C291.201 150.159 280.901 151.258 277.729 148.076C273.58 143.917 276.066 136.83 281.98 136.54C285.249 136.38 288.609 136.514 291.888 136.514L336.185 136.5C340.457 136.501 344.839 136.398 349.081 136.611C371.718 137.748 372.134 171.809 348.97 173.227C342.825 173.52 336.422 173.233 330.228 173.284C330.963 176.495 332.261 180.044 333.316 183.195L337.739 196.712C338.197 198.135 339.67 202.183 339.761 203.461C338.275 207.553 336.867 208.842 333.094 210.896C330.2 210.335 329.319 209.836 326.596 210.896C318.584 209.971 316.969 201.719 324.326 197.248C321.179 188.235 318.524 180.261 315.742 171.113C308.655 166.676 310.55 159.374 318.719 157.876C321.602 156.342 319.978 154.33 321.061 150.018Z"/><path fill="#737273" transform="scale(2 2)" d="M321.061 150.018C330.561 149.837 340.528 150.007 350.067 150.018C355.683 154.328 353.22 159.93 348.016 159.894C340.423 159.84 332.77 160.04 325.188 159.761C322.655 159.668 321.692 157.877 318.719 157.876C321.602 156.342 319.978 154.33 321.061 150.018Z"/><path transform="scale(2 2)" d="M377.725 106.625C430.633 100.466 440.611 180.297 389.838 187.487C386.716 187.929 384.704 188.048 381.812 186.487C380.209 185.416 379.143 183.584 379.045 181.644C378.585 173.103 388.052 175.286 393.4 172.927C421.481 160.538 412.303 120.698 382.403 119.687C378.001 119.538 372.665 122.085 368.923 118.785C362.079 112.748 368.931 106.529 377.725 106.625Z"/><path transform="scale(2 2)" d="M144.87 143.624C148.795 143.289 156.695 143.326 160.075 145.663C162.744 147.509 163.14 152.515 160.92 155.068C155.088 161.773 135.064 149.058 117.859 171.864C115.298 175.935 114.805 177.01 109.857 177.717C99.4867 174.064 105.528 165.954 110.242 160.742C119.194 150.845 131.479 144.294 144.87 143.624Z"/><path transform="scale(2 2)" d="M270.603 390.705C278.638 389.967 293.248 390.405 301.413 390.619C308.557 390.805 309.871 401.894 301.367 403.877C293.202 403.478 273.218 405.274 268.416 402.672C262.764 399.611 264.151 392.136 270.603 390.705Z"/><path transform="scale(2 2)" d="M100.644 191.257C112.25 190.92 111.033 205.638 104.121 208.723C92.4975 209.227 93.9899 193.992 100.644 191.257Z"/><path transform="scale(2 2)" d="M70.7089 299.218C62.2565 310.821 50.963 290.295 65.4508 287.886C69.6098 288.532 70.5249 289.644 72.1814 293.404C72.4875 295.996 71.9535 296.834 70.7089 299.218Z"/></svg>