<?xml version="1.0" encoding="utf-8" ?><svg xmlns="http://www.w3.org/2000/svg" xmlns:xlink="http://www.w3.org/1999/xlink" width="1024" height="1024" viewBox="0 0 1024 1024"><path fill="#FED915" transform="scale(2 2)" d="M183.725 83.7523C175.517 83.6581 166.353 82.7395 158.718 87.2365C138.085 101.478 135.186 73.8958 167.31 71.0679C174.897 70.4 183.212 70.6252 190.713 70.6254L266.962 70.6166C275.941 70.6166 291.144 66.9813 291.769 78.0605C297.276 78.1473 303.075 77.6392 308.544 78.0605C308.223 73.1815 311.759 70.4544 316.31 70.6095C325.194 70.9123 335.008 70.1276 343.787 70.837C368.444 72.8295 388.067 95.5527 388.146 119.998C388.161 121.971 388.053 124.214 388.141 126.141C406.684 126.218 406.142 137.494 406.509 151.831C406.728 160.369 408.13 173.911 401.619 180.08C395.17 186.192 387.96 184.377 379.956 184.491L376.021 231.362C375.298 239.879 377.422 254.066 368.295 256.133C368.679 261.474 367.629 270.254 366.539 275.5C370.651 277.039 371.997 279.179 371.619 283.46L362.335 392.223C360.868 409.707 361.874 437.376 337.25 438.208C328.474 438.328 319.569 438.242 310.79 438.241L202.805 438.244C184.012 438.263 154.407 443.002 151.222 416.808C150.315 409.341 150.282 401.215 149.556 393.674C149.203 390.01 152.042 387.769 155.35 386.778C161.893 387.995 162.285 390.424 162.615 396.737C163.152 407.024 161.473 424.777 174.915 425.295L179.663 425.295C179.481 421.24 179.336 416.719 178.89 412.725C178.053 406.66 177.906 400.77 177.447 394.685L163.871 219.457C163.383 211.703 163.076 201.963 161.411 194.467C161.737 190.773 161.466 188.14 161.411 184.491C156.204 184.588 150.465 184.569 145.258 184.491C145.57 189.645 148.996 213.286 146.4 216.519C143.122 220.941 135.515 219.028 134.899 213.502C133.857 204.143 132.645 193.868 132.188 184.491C101.238 184.256 108.044 178.457 106.17 152.097C105.107 137.144 106.082 126.602 124.253 126.141C124.275 119.62 124.484 113.073 125.87 106.69C127.462 99.3602 137.221 98.2973 138.75 105.675C139.207 109.632 137.041 119.985 137.238 126.141C140.228 126.294 144.406 126.172 147.475 126.141C150.167 126.001 150.007 126.195 150.069 123.401C150.73 93.1962 182.252 86.9771 183.725 83.7523ZM133.557 171.548L133.557 156.786C133.115 145.5 138.65 145.018 146.125 139.091C137.885 139.224 127.028 139.323 118.879 139.091L118.86 158.039C118.801 174.667 117.421 171.437 133.557 171.548Z"/><path transform="scale(2 2)" d="M183.725 83.7523C175.517 83.6581 166.353 82.7395 158.718 87.2365C138.085 101.478 135.186 73.8958 167.31 71.0679C174.897 70.4 183.212 70.6252 190.713 70.6254L266.962 70.6166C275.941 70.6166 291.144 66.9813 291.769 78.0605C297.276 78.1473 303.075 77.6392 308.544 78.0605C308.223 73.1815 311.759 70.4544 316.31 70.6095C325.194 70.9123 335.008 70.1276 343.787 70.837C368.444 72.8295 388.067 95.5527 388.146 119.998C388.161 121.971 388.053 124.214 388.141 126.141C406.684 126.218 406.142 137.494 406.509 151.831C406.728 160.369 408.13 173.911 401.619 180.08C395.17 186.192 387.96 184.377 379.956 184.491L376.021 231.362C375.298 239.879 377.422 254.066 368.295 256.133C359.333 256.146 361.302 247.225 361.785 241.331L363.01 227.187C364.303 212.947 365.546 198.754 366.539 184.491C356.604 185.003 341.819 184.926 331.738 184.46C326.594 184.223 325.698 181.776 324.634 177.484C319.33 177.418 313.863 177.487 308.544 177.484C306.774 187.754 295.076 184.504 286.082 184.495L161.411 184.491C156.204 184.588 150.465 184.569 145.258 184.491C145.57 189.645 148.996 213.286 146.4 216.519C143.122 220.941 135.515 219.028 134.899 213.502C133.857 204.143 132.645 193.868 132.188 184.491C101.238 184.256 108.044 178.457 106.17 152.097C105.107 137.144 106.082 126.602 124.253 126.141C124.275 119.62 124.484 113.073 125.87 106.69C127.462 99.3602 137.221 98.2973 138.75 105.675C139.207 109.632 137.041 119.985 137.238 126.141C140.228 126.294 144.406 126.172 147.475 126.141C150.167 126.001 150.007 126.195 150.069 123.401C150.73 93.1962 182.252 86.9771 183.725 83.7523ZM133.557 171.548L133.557 156.786C133.115 145.5 138.65 145.018 146.125 139.091C137.885 139.224 127.028 139.323 118.879 139.091L118.86 158.039C118.801 174.667 117.421 171.437 133.557 171.548Z"/><path fill="#BCDEF6" transform="scale(2 2)" d="M183.725 83.7523C175.517 83.6581 166.353 82.7395 158.718 87.2365C138.085 101.478 135.186 73.8958 167.31 71.0679C174.897 70.4 183.212 70.6252 190.713 70.6254L266.962 70.6166C275.941 70.6166 291.144 66.9813 291.769 78.0605C297.276 78.1473 303.075 77.6392 308.544 78.0605C309.082 79.9457 309.897 81.9365 311.68 82.9731C316.782 85.9378 340.34 80.7718 355.587 88.0942C360.004 103.644 363.728 107.821 357.095 126.141C347.612 126.132 337.921 126.017 328.456 126.141C332.817 113.33 328.313 98.5259 313.025 98.282C306.229 98.1736 299.408 98.2538 292.606 98.2632L217.822 98.2578C210.422 98.2564 198.243 97.2814 191.74 100.026C182.364 103.982 178.452 117.169 182.785 126.141C171.128 126.15 159.101 126.308 147.475 126.141C150.167 126.001 150.007 126.195 150.069 123.401C150.73 93.1962 182.252 86.9771 183.725 83.7523Z"/><path transform="scale(2 2)" d="M183.725 83.7523C175.517 83.6581 166.353 82.7395 158.718 87.2365C138.085 101.478 135.186 73.8958 167.31 71.0679C174.897 70.4 183.212 70.6252 190.713 70.6254L266.962 70.6166C275.941 70.6166 291.144 66.9813 291.769 78.0605C289.699 85.9124 281.558 83.7978 274.699 83.7727L256.557 83.742C232.449 83.7681 207.777 83.4514 183.725 83.7523Z"/><path fill="#BCDEF6" transform="scale(2 2)" d="M146.125 139.091L368.295 139.091C370.211 139.4 375.783 139.058 378.219 139.091C378.413 152.367 378.048 156.741 363.18 156.763L133.557 156.786C133.115 145.5 138.65 145.018 146.125 139.091Z"/><path fill="#81C8EF" transform="scale(2 2)" d="M368.295 139.091C373.976 139.052 393.275 136.209 393.194 142.981C392.826 173.827 400.477 171.614 373.26 171.559L343.233 171.537C336.84 171.538 326.561 169.498 324.634 177.484C319.33 177.418 313.863 177.487 308.544 177.484C305.021 168.344 292.215 171.529 283.085 171.537L133.557 171.548L133.557 156.786L363.18 156.763C378.048 156.741 378.413 152.367 378.219 139.091C375.783 139.058 370.211 139.4 368.295 139.091Z"/><path fill="#81C8EF" transform="scale(2 2)" d="M355.587 88.0942C369.823 95.5243 375.504 110.838 374.855 126.141L357.095 126.141C363.728 107.821 360.004 103.644 355.587 88.0942Z"/><path fill="#FEC302" transform="scale(2 2)" d="M255.639 111.383L310.895 111.34C319.985 110.994 318.414 124.027 311.339 124.964C306.204 125.645 298.883 125.288 293.617 125.287L255.639 125.273L218.559 125.288C212.605 125.289 206.619 125.496 200.687 125.06C193.291 124.515 191.866 112.293 199.206 111.59C204.744 111.059 211.559 111.391 217.209 111.393L255.639 111.383Z"/><path fill="#FEC302" transform="scale(2 2)" d="M308.544 177.484C313.863 177.487 319.33 177.418 324.634 177.484C325.698 181.776 326.594 184.223 331.738 184.46C341.819 184.926 356.604 185.003 366.539 184.491C365.546 198.754 364.303 212.947 363.01 227.187L361.785 241.331C361.302 247.225 359.333 256.146 368.295 256.133C368.679 261.474 367.629 270.254 366.539 275.5C370.651 277.039 371.997 279.179 371.619 283.46L362.335 392.223C360.868 409.707 361.874 437.376 337.25 438.208C328.474 438.328 319.569 438.242 310.79 438.241L202.805 438.244C184.012 438.263 154.407 443.002 151.222 416.808C150.315 409.341 150.282 401.215 149.556 393.674C149.203 390.01 152.042 387.769 155.35 386.778C161.893 387.995 162.285 390.424 162.615 396.737C163.152 407.024 161.473 424.777 174.915 425.295L179.663 425.295C179.481 421.24 179.336 416.719 178.89 412.725L305.05 412.735C328.324 412.738 331.675 414.238 333.958 387.758L348.486 221.193C351.382 190.964 349.154 194.449 323.271 194.463L161.411 194.467C161.737 190.773 161.466 188.14 161.411 184.491L286.082 184.495C295.076 184.504 306.774 187.754 308.544 177.484Z"/><path transform="scale(2 2)" d="M174.915 425.295C178.075 425.569 181.597 425.333 184.801 425.308L331.789 425.292C345.762 425.277 346.909 420.05 347.948 406.872L357.673 292.555C358.194 285.709 356.661 274.899 366.539 275.5C370.651 277.039 371.997 279.179 371.619 283.46L362.335 392.223C360.868 409.707 361.874 437.376 337.25 438.208C328.474 438.328 319.569 438.242 310.79 438.241L202.805 438.244C184.012 438.263 154.407 443.002 151.222 416.808C150.315 409.341 150.282 401.215 149.556 393.674C149.203 390.01 152.042 387.769 155.35 386.778C161.893 387.995 162.285 390.424 162.615 396.737C163.152 407.024 161.473 424.777 174.915 425.295Z"/><path transform="scale(2 2)" d="M315.197 230.781C326.308 230.086 323.239 246.06 323.241 253.69L323.237 373.318C323.231 376.72 320.97 378.751 317.887 379.74C315.159 379.907 310.642 378.563 310.327 376.018C309.296 367.672 309.725 354.674 309.723 346.635L309.72 261.169C309.721 252.369 306.275 233.5 315.197 230.781Z"/><path transform="scale(2 2)" d="M194.63 230.781C205.957 229.509 202.59 247.19 202.59 254.822L202.54 372.362C202.509 376.311 201.07 378.321 197.36 379.74C187.435 381.654 189.224 368.659 189.241 362.656L189.234 237.351C189.234 233.266 190.84 231.81 194.63 230.781Z"/><path transform="scale(2 2)" d="M256.648 230.781C262.343 231.599 262.677 234.605 262.676 239.62L262.66 344.505C262.656 353.723 262.746 362.944 262.652 372.161C262.6 377.188 260.712 379.327 255.639 379.74C249.997 379.228 249.401 376.046 249.422 371.134L249.456 248.491C249.402 241.095 246.92 232.388 256.648 230.781Z"/><path transform="scale(2 2)" d="M145.258 267.27C152.643 266.822 152.603 272.785 152.976 278.124L158.785 351.264C159.386 358.562 162.781 368.706 155.35 372.187C148.451 372.9 147.529 368.435 147.129 363.011L141.334 291.057C140.668 282.683 136.645 270.812 145.258 267.27Z"/><path transform="scale(2 2)" d="M374.855 425.295C378.745 425.032 397.74 424.927 400.835 425.739C406.785 427.3 406.873 434.995 400.481 438.249C397.929 438.562 376.4 438.455 374.799 437.941C368.465 435.909 369.549 427.745 374.855 425.295Z"/><path transform="scale(2 2)" d="M143.308 233.329C151.93 233.811 154.271 250.189 145.258 252.517C136.023 252.928 134.344 235.367 143.308 233.329Z"/></svg>