<?xml version="1.0" encoding="utf-8" ?><svg xmlns="http://www.w3.org/2000/svg" xmlns:xlink="http://www.w3.org/1999/xlink" width="1024" height="1024" viewBox="0 0 1024 1024"><path transform="scale(2 2)" d="M269.624 190.913C271.933 179.556 272.892 167.789 274.579 156.322C278.08 132.513 277.596 136.229 299.073 139.552C303.517 140.389 314.306 140.473 314.361 147.157C314.441 156.768 306.541 155.004 300.954 153.927L293.839 152.554C292.48 152.293 290.649 151.779 289.37 152.183C288.532 152.994 285.858 174.638 285.641 177.251L285.866 177.495C298.012 171.137 302.898 175.255 308.14 173.551C303.854 157.965 335.594 163.321 340.274 166.48C350.725 173.336 347.133 184.036 347.926 194.133C363.817 201.203 372.215 211.008 376.372 227.962C390.165 227.719 404.76 227.963 418.619 227.957L431.407 227.944C441.037 227.886 459.092 229.762 458.186 243.127C457.585 251.979 449.788 261.839 445.69 269.594C443.224 274.261 439.545 276.993 434.248 274.45C432.766 277.112 426.761 285.611 424.81 287.861C431.076 294.07 423.5 300.256 420.677 306.366C416.697 314.979 412.8 324.615 411.209 334.014C416.028 337.038 419.418 340.873 424.767 343.251C429.974 345.565 436.644 343.642 441.275 345.531C447.178 347.938 445.418 358.026 438.773 358.569C414.506 361.236 413.811 348.938 401.384 344.059C395.207 341.633 384.862 347.106 382.654 338.798C380.884 339.849 368.718 346.354 367.38 346.676C369.399 352.833 365.669 356.062 360.149 357.37C326.703 365.295 325.278 342.107 309.046 342.694C300.178 341.937 295.657 346.271 289.509 351.765C278.423 361.671 255.512 360.716 244.543 351.613C241.574 349.149 238.798 345.783 235.081 344.487C227.834 342.103 217.938 347.785 215.458 337.426C203.503 340.081 206.964 341.47 200.654 347.586C201.578 355.636 194.331 358.109 187.316 358.604C170.669 359.776 167.72 357.331 156.059 348.117C147.607 341.438 132.721 342.082 124.601 348.856C114.272 357.472 112.958 357.732 98.7695 358.494C79.3959 359.533 80.4956 350.082 69.6248 344.63C64.7563 342.189 61.5584 345.059 57.5524 341.869C47.3575 333.75 65.9335 319.611 85.9217 340.392C90.9135 345.582 96.9771 344.791 103.705 344.75C90.5454 329.088 86.4901 317.574 82.1312 298.496C79.043 296.72 76.5058 295.959 73.8093 293.251C66.2257 285.634 66.5096 268.691 74.0904 261.168C80.4727 254.835 86.9048 255.737 94.9461 255.759L108.457 255.792C114.126 249.585 133.533 231.344 138.876 229.397C145.692 227.487 165.442 228.45 172.933 228.535C175.705 219.01 184.242 208.528 189.721 220.908C192.892 214.923 191.539 214.63 197.04 208.649C183.98 211.309 183.489 194.906 200.716 191.34C204.142 190.63 209.634 190.872 213.384 190.887L256.495 190.909C260.589 190.903 265.653 190.716 269.624 190.913Z"/><path fill="#BCDEF6" transform="scale(2 2)" d="M123.033 300.247C154.514 299.929 186.537 300.25 218.07 300.25L408.619 300.247C404.515 307.94 399.482 320.785 398.372 329.494C392.521 329.449 377.86 328.491 382.654 338.798C380.884 339.849 368.718 346.354 367.38 346.676C369.399 352.833 365.669 356.062 360.149 357.37C326.703 365.295 325.278 342.107 309.046 342.694C300.178 341.937 295.657 346.271 289.509 351.765C278.423 361.671 255.512 360.716 244.543 351.613C241.574 349.149 238.798 345.783 235.081 344.487C227.834 342.103 217.938 347.785 215.458 337.426C203.503 340.081 206.964 341.47 200.654 347.586C199.048 344.878 197.621 343.593 194.576 342.746C182.259 343.761 172.422 326.149 159.186 327.563C156.098 327.893 149.681 328.531 146.922 329.815C145.85 329.698 143.138 329.799 141.939 329.815C141.405 329.4 132.517 329.741 128.49 326.975C120.808 321.697 116.401 308.744 114.19 300.247C116.926 300.294 120.356 300.447 123.033 300.247Z"/><path transform="scale(2 2)" d="M309.909 329.494C334.631 328.549 330.104 351.492 358.437 343.492C362.34 342.035 365.166 343.089 367.38 346.676C369.399 352.833 365.669 356.062 360.149 357.37C326.703 365.295 325.278 342.107 309.046 342.694C300.178 341.937 295.657 346.271 289.509 351.765C278.423 361.671 255.512 360.716 244.543 351.613C241.574 349.149 238.798 345.783 235.081 344.487C227.834 342.103 217.938 347.785 215.458 337.426C216.637 329.581 221.221 330.076 227.706 329.815C235.931 330.265 242.367 330.898 248.536 336.883C255.694 343.829 268.254 347.505 277.302 342.746C289.378 337.946 291.615 327.008 309.909 329.494Z"/><path fill="#89C2F4" transform="scale(2 2)" d="M309.909 329.494C313.185 327.119 324.752 326.972 328.776 327.538C337.809 328.808 341.814 336.271 349.405 340.367C352.095 341.82 357.27 341.987 358.437 343.492C330.104 351.492 334.631 328.549 309.909 329.494Z"/><path fill="#89C2F4" transform="scale(2 2)" d="M227.706 329.815C231.434 327.249 243.146 326.713 247.681 327.546C256.343 329.136 259.473 335.528 266.643 339.875C270.447 342.181 275.431 341.573 277.302 342.746C268.254 347.505 255.694 343.829 248.536 336.883C242.367 330.898 235.931 330.265 227.706 329.815Z"/><path fill="#FEC302" transform="scale(2 2)" d="M175.972 241.976L428.51 241.966C434.17 241.964 440.065 241.147 445.047 244.075C441.904 250.329 432.283 263.063 430.934 268.204C427.028 271.377 424.753 277.961 418.601 278.704C411.868 279.518 404.947 279.239 398.159 279.225L124.885 279.201C116.504 279.226 101.907 282.437 108.457 269.402L122.527 269.428C124.241 269.443 128.43 269.615 129.869 269.402C135.741 268.877 151.551 270.774 155.937 268.35C162.097 264.946 159.695 257.101 152.457 255.792L152.64 255.172C155.034 252.254 172.293 254.269 175.972 241.976Z"/><path transform="scale(2 2)" d="M288.972 256.477C303.966 255.728 320.315 256.958 335.423 256.564C342.992 256.366 346.924 268.07 336.857 270.545C323.82 271.749 303.462 270.781 290.24 270.378C281.19 270.102 279.674 258.52 288.972 256.477Z"/><path transform="scale(2 2)" d="M362.304 256.477C366.142 256.036 384.491 255.914 387.38 258.235C392.157 262.072 390.227 269.662 382.654 270.545C377.245 270.865 367.026 271.048 361.525 270.764C352.585 270.302 352.447 257.69 362.304 256.477Z"/><path fill="#BCDEF6" transform="scale(2 2)" d="M232.686 204.779L320.717 204.776C340.561 204.785 354.053 206.095 362.304 227.962L238.2 227.976C235.561 227.979 227.088 228.199 224.781 227.962C223.288 227.768 217.319 227.942 215.458 227.962L215.441 227.752C214.559 216.5 223.025 210.57 231.16 204.779L230.896 204.835C231.68 204.925 231.915 205.002 232.686 204.779Z"/><path fill="#F2A002" transform="scale(2 2)" d="M430.934 268.204C431.502 271.146 432.09 272.186 434.248 274.45C432.766 277.112 426.761 285.611 424.81 287.861C420.046 285.106 405.542 286.294 399.569 286.296L121.493 286.305C114.584 286.305 88.6684 287.989 84.1483 283.856C81.1909 281.152 81.1175 270.145 86.4105 269.621C99.4475 268.821 116.94 268.888 129.869 269.402C128.43 269.615 124.241 269.443 122.527 269.428L108.457 269.402C101.907 282.437 116.504 279.226 124.885 279.201L398.159 279.225C404.947 279.239 411.868 279.518 418.601 278.704C424.753 277.961 427.028 271.377 430.934 268.204Z"/><path fill="#89C2F4" transform="scale(2 2)" d="M96.9447 300.247C101.921 299.695 117.897 299.885 123.033 300.247C120.356 300.447 116.926 300.294 114.19 300.247C116.401 308.744 120.808 321.697 128.49 326.975C132.517 329.741 141.405 329.4 141.939 329.815C131.525 329.204 125.272 331.34 116.995 337.426C106.145 328.469 99.7263 313.832 96.9447 300.247Z"/><path fill="#B9BABE" transform="scale(2 2)" d="M197.04 208.649C205.448 203.392 204.762 204.75 215.308 204.768L232.686 204.779C231.915 205.002 231.68 204.925 230.896 204.835L231.16 204.779C223.025 210.57 214.559 216.5 215.441 227.752L215.458 227.962C217.319 227.942 223.288 227.768 224.781 227.962C217.799 229.056 194.746 228.299 187.54 227.962C189.236 225.174 189.683 224.163 189.721 220.908C192.892 214.923 191.539 214.63 197.04 208.649Z"/><path fill="#F2A002" transform="scale(2 2)" d="M143.423 241.976L175.972 241.976C172.293 254.269 155.034 252.254 152.64 255.172L152.457 255.792C151.048 255.947 146.531 255.814 144.794 255.811L127.985 255.792C132.673 251.297 138.364 246.157 143.423 241.976Z"/><path fill="#BCDEF6" transform="scale(2 2)" d="M308.14 173.551C309.481 175.145 310.245 176.126 312.048 177.251C305.249 182.256 307.389 184.46 308.65 190.634L308.14 190.913L284.1 190.913C284.21 188.858 285.121 178.848 285.641 177.251L285.866 177.495C298.012 171.137 302.898 175.255 308.14 173.551Z"/><path fill="#598CCA" transform="scale(2 2)" d="M312.048 177.251C329.866 177.991 334.005 171.615 333.873 190.913C325.756 190.908 316.134 190.644 308.14 190.913L308.65 190.634C307.389 184.46 305.249 182.256 312.048 177.251Z"/><path fill="#89C2F4" transform="scale(2 2)" d="M146.922 329.815C149.681 328.531 156.098 327.893 159.186 327.563C172.422 326.149 182.259 343.761 194.576 342.746C189.947 343.483 186.856 345.125 181.685 345.246C170.913 345.497 168.764 339.165 160.712 334.14C156.903 331.763 151.307 330.673 146.922 329.815Z"/><path transform="scale(2 2)" d="M352.219 134.614C377.744 134.091 380.238 169.971 366.138 166.957C355.914 163.219 364.023 157.279 358.547 150.986C354.835 146.721 350.922 150.04 346.951 147.511C342.005 144.361 343.616 135.52 352.219 134.614Z"/></svg>