<?xml version="1.0" encoding="utf-8" ?><svg xmlns="http://www.w3.org/2000/svg" xmlns:xlink="http://www.w3.org/1999/xlink" width="1024" height="1024" viewBox="0 0 1024 1024"><path fill="white" transform="scale(2 2)" d="M319.679 155.161C316.885 149.587 316.784 139.919 317.823 133.88C325.735 87.8962 389.789 90.2773 385.138 109.868C388.797 112.684 394 116.972 396.336 120.961C406.887 118.262 407.856 134.904 409.701 142.553C435.977 142.634 456.47 162.965 456.264 189.27C455.999 223.008 421.678 242.923 391.379 228.378C382.685 224.204 379.132 215.819 369.768 224.811C354.771 239.211 339.946 253.806 325.171 268.431C321.922 271.654 311.754 281.471 309.827 284.462C309.656 286.482 309.673 287.243 309.827 289.271C315.233 290.231 320.702 287.358 323.033 282.519C337.866 251.722 379.664 247.007 399.915 275.484C415.347 297.185 408.298 319.433 390.04 335.786C406.34 348.37 413.286 370.418 402.474 388.931C400.489 392.331 395.792 391.813 392.841 390.084C390.582 394.371 385.796 396.808 382.201 400.078C389.432 417.198 343.483 419.819 323.477 392.446C314.702 380.44 320.957 377.296 302.456 377.256L228.454 377.257C221.174 377.236 214.668 378.201 214.739 368.525C210.5 368.509 204.411 368.778 200.445 368.525C200.828 379.769 188.678 377.256 180.691 377.256L158.902 377.282C157.361 377.276 152.755 376.87 151.677 377.052C146.479 377.93 146.569 381.056 140.692 378.373C138.801 381.874 137.491 384.819 134.565 387.565C124.565 383.398 124.377 391.579 116.503 395.658C100.173 404.115 81.5624 399.334 73.0139 382.59C59.7044 357.705 85.8162 346.314 86.6945 335.901C87.5105 326.227 79.0524 324.602 74.2312 318.16C71.008 313.853 70.4901 308.241 67.3436 304.646C67.4796 301.936 69.8401 289.862 69.7412 289.271C64.2127 289.931 61.7704 287.368 60.6892 282.244C62.2104 276.68 67.3255 267.668 73.8703 267.229C76.9456 267.447 77.1634 267.389 79.3174 269.393C81.8268 267.392 84.8552 266.872 87.8732 265.614C88.9586 266.213 91.8946 268.388 92.9329 267.229C92.2597 266.266 92.0703 265.745 91.5898 264.653C89.7872 246.271 127.572 258.384 138.094 276.179C140.19 279.723 141.139 284.374 144.513 286.969C154.482 294.636 179.092 281.499 182.38 295.95C186.263 295.896 191.881 295.79 195.706 295.95C196.082 292.77 197.9 290.917 200.445 289.271C203.14 289.185 205.894 289.245 208.595 289.271C203.375 283.044 188.551 258.555 204.54 256.749C205.631 256.531 206.211 246.136 209.511 241.995C205.155 237.499 206.145 233.18 211.014 229.273C224.367 218.562 237.632 217.242 253.55 220.426C255.443 219.207 259.616 214.916 261.447 213.111L304.262 170.64C309.449 165.5 314.681 160.486 319.679 155.161Z"/><path fill="#FEC302" transform="scale(2 2)" d="M319.679 155.161C316.885 149.587 316.784 139.919 317.823 133.88C325.735 87.8962 389.789 90.2773 385.138 109.868C388.797 112.684 394 116.972 396.336 120.961C406.887 118.262 407.856 134.904 409.701 142.553C435.977 142.634 456.47 162.965 456.264 189.27C455.999 223.008 421.678 242.923 391.379 228.378C382.685 224.204 379.132 215.819 369.768 224.811C354.771 239.211 339.946 253.806 325.171 268.431C321.922 271.654 311.754 281.471 309.827 284.462C309.656 286.482 309.673 287.243 309.827 289.271C315.233 290.231 320.702 287.358 323.033 282.519C337.866 251.722 379.664 247.007 399.915 275.484C415.347 297.185 408.298 319.433 390.04 335.786C406.34 348.37 413.286 370.418 402.474 388.931C400.489 392.331 395.792 391.813 392.841 390.084C388.046 384.234 391.891 381.682 393.27 375.851C395.589 366.04 392.626 353.301 383.004 348.527C373.157 339.555 373.673 330.537 384.102 322.695C384.068 321.415 384.369 319.993 384.657 318.735C387.719 305.396 386.162 290.894 380.624 278.407C380.017 277.037 379.381 276.028 379.021 274.55C365.43 266.463 345.16 270.534 337.17 284.946C326.774 303.695 319.49 302.868 300.503 302.863L228.436 302.866C220.055 302.866 211.67 302.931 203.292 302.785C197.671 302.688 197.11 300.681 195.706 295.95C196.082 292.77 197.9 290.917 200.445 289.271C203.14 289.185 205.894 289.245 208.595 289.271C203.375 283.044 188.551 258.555 204.54 256.749C205.631 256.531 206.211 246.136 209.511 241.995C205.155 237.499 206.145 233.18 211.014 229.273C224.367 218.562 237.632 217.242 253.55 220.426C255.443 219.207 259.616 214.916 261.447 213.111L304.262 170.64C309.449 165.5 314.681 160.486 319.679 155.161Z"/><path transform="scale(2 2)" d="M396.336 120.961C406.887 118.262 407.856 134.904 409.701 142.553C435.977 142.634 456.47 162.965 456.264 189.27C455.999 223.008 421.678 242.923 391.379 228.378C382.685 224.204 379.132 215.819 369.768 224.811C354.771 239.211 339.946 253.806 325.171 268.431C321.922 271.654 311.754 281.471 309.827 284.462C309.656 286.482 309.673 287.243 309.827 289.271C315.233 290.231 320.702 287.358 323.033 282.519C337.866 251.722 379.664 247.007 399.915 275.484C415.347 297.185 408.298 319.433 390.04 335.786C406.34 348.37 413.286 370.418 402.474 388.931C400.489 392.331 395.792 391.813 392.841 390.084C388.046 384.234 391.891 381.682 393.27 375.851C395.589 366.04 392.626 353.301 383.004 348.527C373.157 339.555 373.673 330.537 384.102 322.695C384.068 321.415 384.369 319.993 384.657 318.735C387.719 305.396 386.162 290.894 380.624 278.407C380.017 277.037 379.381 276.028 379.021 274.55C365.43 266.463 345.16 270.534 337.17 284.946C326.774 303.695 319.49 302.868 300.503 302.863L228.436 302.866C220.055 302.866 211.67 302.931 203.292 302.785C197.671 302.688 197.11 300.681 195.706 295.95C196.082 292.77 197.9 290.917 200.445 289.271C203.14 289.185 205.894 289.245 208.595 289.271C203.375 283.044 188.551 258.555 204.54 256.749C212.667 257.182 210.281 265.771 212.971 270.758C214.156 271.361 216.47 272.947 217.551 273.775C228.774 282.37 237.484 282.261 250.923 282.257L273.271 282.244L273.586 282.01C275.662 280.497 293.434 261.759 294.625 260.193C300.861 261.634 304.597 256.544 302.924 250.781C315.538 241.721 333.009 222.182 344.824 210.834C356.41 200.329 369.312 185.606 387.568 197.013C394.345 201.248 395.888 204.913 405.124 203.698C420.796 201.636 432.599 185.299 429.416 169.748C428.873 167.097 427.855 164.266 427.591 161.622C422.662 158.599 416.476 156.098 410.588 156.301C394.929 156.84 397.358 149.354 394.145 136.661C392.599 129.953 388.535 125.27 396.336 120.961Z"/><path fill="#E5A003" transform="scale(2 2)" d="M427.591 161.622C463.276 183.688 429.028 235.923 396.889 215.661C394.639 214.227 392.521 212.403 390.282 210.882C370.152 197.198 353.473 221.425 340.683 233.979L311.762 262.549C301.053 273.221 296.589 273.985 295.631 289.271L259.758 289.274C242.346 289.276 220.495 290.877 212.971 270.758C214.156 271.361 216.47 272.947 217.551 273.775C228.774 282.37 237.484 282.261 250.923 282.257L273.271 282.244L273.586 282.01C275.662 280.497 293.434 261.759 294.625 260.193C300.861 261.634 304.597 256.544 302.924 250.781C315.538 241.721 333.009 222.182 344.824 210.834C356.41 200.329 369.312 185.606 387.568 197.013C394.345 201.248 395.888 204.913 405.124 203.698C420.796 201.636 432.599 185.299 429.416 169.748C428.873 167.097 427.855 164.266 427.591 161.622Z"/><path fill="#6BC9F1" transform="scale(2 2)" d="M379.021 274.55C396.376 283.892 400.593 310.583 384.102 322.695C384.068 321.415 384.369 319.993 384.657 318.735C387.719 305.396 386.162 290.894 380.624 278.407C380.017 277.037 379.381 276.028 379.021 274.55Z"/><path transform="scale(2 2)" d="M319.679 155.161C316.885 149.587 316.784 139.919 317.823 133.88C325.735 87.8962 389.789 90.2773 385.138 109.868C380.243 118.694 375.882 112.407 369.302 110.938C348.017 106.186 326.527 126.016 331.518 147.657C334.718 161.534 336.873 157.092 325.764 168.326L261.612 231.764C253.426 239.85 239.443 225.033 223.159 237.543C218.649 241.008 215.667 245.861 209.511 241.995C205.155 237.499 206.145 233.18 211.014 229.273C224.367 218.562 237.632 217.242 253.55 220.426C255.443 219.207 259.616 214.916 261.447 213.111L304.262 170.64C309.449 165.5 314.681 160.486 319.679 155.161Z"/><path transform="scale(2 2)" d="M294.625 260.193C280.442 258.048 279.229 248.179 281.885 235.174C283.808 225.755 294.66 208.546 306.432 211.752C310.099 212.772 315.983 214.105 318.13 217.529C320.162 220.771 318.47 225.047 315.188 226.693C311.554 228.516 307.222 226.105 303.733 224.877C297.249 231.621 293.269 236.702 294.625 246.349C298.866 247.13 300.29 247.331 302.924 250.781C304.597 256.544 300.861 261.634 294.625 260.193Z"/><path transform="scale(2 2)" d="M331.306 188.037C343.791 187.411 339.884 201.634 329.536 205.565C317.851 206.638 320.029 192.491 331.306 188.037Z"/><path fill="#6BC9F1" transform="scale(2 2)" d="M252.086 347.322L255.006 347.322C257.343 347.477 258.348 347.464 260.674 347.322C262.076 349.527 270.415 348.53 273.354 348.528L296.879 348.518C323.108 348.517 330.039 348.881 342.191 371.664C356.06 397.664 393.939 378.134 384.602 352.565C384.189 351.434 383.154 349.588 383.004 348.527C392.626 353.301 395.589 366.04 393.27 375.851C391.891 381.682 388.046 384.234 392.841 390.084C390.582 394.371 385.796 396.808 382.201 400.078C389.432 417.198 343.483 419.819 323.477 392.446C314.702 380.44 320.957 377.296 302.456 377.256L228.454 377.257C221.174 377.236 214.668 378.201 214.739 368.525C210.5 368.509 204.411 368.778 200.445 368.525C200.828 379.769 188.678 377.256 180.691 377.256L158.902 377.282C157.361 377.276 152.755 376.87 151.677 377.052C146.479 377.93 146.569 381.056 140.692 378.373C138.801 381.874 137.491 384.819 134.565 387.565C124.565 383.398 124.377 391.579 116.503 395.658C100.173 404.115 81.5624 399.334 73.0139 382.59C86.2298 385.119 106.639 392.471 114.807 376.38C116.268 373.502 117.107 370.266 118.666 367.37C128.245 349.57 142.658 348.528 160.747 348.52L250.987 348.527C251.224 348.46 251.587 348.309 251.828 348.217L252.086 347.322Z"/><path transform="scale(2 2)" d="M214.739 368.525C218.373 361.102 228.716 363.525 236.248 363.544L294.066 363.549C307.928 363.548 324.818 361.935 331.656 378.027C337.816 392.522 354.429 402.11 370.044 397.836C375.644 396.303 377.336 394.745 382.201 400.078C389.432 417.198 343.483 419.819 323.477 392.446C314.702 380.44 320.957 377.296 302.456 377.256L228.454 377.257C221.174 377.236 214.668 378.201 214.739 368.525Z"/><path transform="scale(2 2)" d="M140.692 378.373C129.052 366.34 148.534 363.429 157.032 363.516L172.036 363.573C182.808 363.575 194.352 360.058 200.445 368.525C200.828 379.769 188.678 377.256 180.691 377.256L158.902 377.282C157.361 377.276 152.755 376.87 151.677 377.052C146.479 377.93 146.569 381.056 140.692 378.373Z"/><path fill="#BCDEF6" transform="scale(2 2)" d="M252.086 347.322L255.006 347.322C254.017 348.523 252.496 348.505 250.987 348.527C251.224 348.46 251.587 348.309 251.828 348.217L252.086 347.322Z"/><path transform="scale(2 2)" d="M91.5898 264.653C89.7872 246.271 127.572 258.384 138.094 276.179C140.19 279.723 141.139 284.374 144.513 286.969C154.482 294.636 179.092 281.499 182.38 295.95C181.616 299.601 179.714 302.473 175.66 302.71C166.038 303.274 145.417 304.25 137.909 298.983C125.419 291.188 129.046 273.553 105.697 269.599C100.263 268.574 97.613 270.868 92.9329 267.229C92.2597 266.266 92.0703 265.745 91.5898 264.653Z"/><path transform="scale(2 2)" d="M252.086 347.322C244.917 343.498 239.519 340.044 237.044 331.835C235.66 327.241 235.492 321.094 241.225 319.858C252.96 317.328 246.8 336.112 259.464 333.578C266.124 332.246 265.896 319.831 274.512 324.608C285.415 330.787 271.242 345.411 260.674 347.322C258.348 347.464 257.343 347.477 255.006 347.322L252.086 347.322Z"/><path transform="scale(2 2)" d="M73.8703 267.229C76.9456 267.447 77.1634 267.389 79.3174 269.393C83.9373 275.779 73.8726 286.921 69.7412 289.271C64.2127 289.931 61.7704 287.368 60.6892 282.244C62.2104 276.68 67.3255 267.668 73.8703 267.229Z"/><path transform="scale(2 2)" d="M296.391 321.097C310.842 320.863 309.627 332.579 299.929 335.114C282.603 333.492 287.922 321.718 296.391 321.097Z"/><path transform="scale(2 2)" d="M72.0606 335.114C65.3777 328.661 53.0547 317.366 57.5316 306.75C59.1312 302.957 63.7186 302.512 67.3436 304.646C70.4901 308.241 71.008 313.853 74.2312 318.16C79.0524 324.602 87.5105 326.227 86.6945 335.901C85.8162 346.314 59.7044 357.705 73.0139 382.59C81.5624 399.334 100.173 404.115 116.503 395.658C124.377 391.579 124.565 383.398 134.565 387.565C141.15 394.245 134.275 399.854 129.012 404.018C81.1703 441.866 28.3743 369.064 72.0606 335.114Z"/></svg>