<?xml version="1.0" encoding="utf-8" ?><svg xmlns="http://www.w3.org/2000/svg" xmlns:xlink="http://www.w3.org/1999/xlink" width="1024" height="1024" viewBox="0 0 1024 1024"><path transform="scale(2 2)" d="M250.287 134.195C232.786 131.628 238.915 105.994 238.363 91.7306C237.768 76.3457 253.027 77.2094 263.822 77.2326L399.789 77.2465C408.901 77.2416 429.338 74.8091 429.602 89.3074C429.897 105.499 435.862 130.676 415.53 134.195C414.968 144.438 413.88 155.208 413.089 165.491L405.866 253.434C405.232 261.163 404.652 269.05 403.821 276.739C400.959 303.225 402.772 308.913 412.2 334.508C419.137 353.34 418.693 373.412 410.719 391.677C416.692 396.975 414.624 406.3 414.759 413.466C415.147 434.035 398.361 434.24 384.156 434.38C377.976 434.306 371.147 435.756 370.582 427.481C364.962 427.47 357.195 427.764 351.8 427.481C351.345 431.323 350.604 432.342 347.33 434.396C339.691 433.993 331.564 434.665 323.862 434.409C318.128 434.218 310.473 435.927 310.257 427.481C305.12 427.489 297.806 427.73 292.846 427.481C292.549 430.654 290.935 433.208 287.605 433.692C280.358 434.747 276.495 423.653 269.48 422.629C264.778 421.943 235.642 421.979 231.988 423.464C226.269 425.789 222.905 433.12 216.684 434.126C211.939 434.893 204.304 434.402 199.312 434.399L123.192 434.412C113.373 434.413 101.129 436.28 92.8558 430.264C82.3411 422.618 80.5046 401.459 87.5524 391.677C75.7113 366.321 85.0997 332.575 103.897 312.994C127.843 288.049 157.784 286.431 189.843 283.409C192.838 282.675 197.362 284.184 200.083 283.786C222.122 280.562 244.041 265.241 248.763 242.472C250.124 235.909 250.352 229.808 251.264 223.217C252.123 217.001 250.411 204.661 260.299 206.777C260.224 203.975 260.041 196.873 261.746 194.867C252.168 196.96 251.06 179.441 261.746 179.306C261.854 179.116 261.839 170.466 262.328 168.466C259.6 168.777 258.538 168.236 256.31 166.835C255.869 166.049 250.857 137.871 250.287 134.195ZM101.905 385.874C98.9756 361.639 98.0108 347.366 113.762 325.72C116.268 322.277 125.14 314.669 123.917 311.739C100.361 327.031 87.868 359.115 98.0266 385.874C99.2262 385.719 100.675 385.83 101.905 385.874Z"/><path fill="#FEC302" transform="scale(2 2)" d="M348.933 129.299C354.047 129.72 362.575 129.159 368.086 129.299C370.993 136.037 377.413 134.334 383.703 134.195C383.792 140.354 382.992 146.127 382.363 152.244L370.032 279.348C367.058 308.397 368.002 308.745 378.971 333.811C384.77 347.063 388.727 368.661 383.703 382.919C381.491 383.099 375.699 382.929 373.279 382.927L275.056 382.919C281.928 361.57 298.418 361.978 316.205 361.98L345.045 361.981C348.965 361.983 354.144 362.631 357.879 361.574C363.051 360.111 363.527 351.937 358.53 350.184C356.294 349.4 302.648 349.562 297.235 350.309C278.624 352.874 267.969 365.596 262.328 382.919L130.171 382.925C125.015 382.933 119.041 383.117 113.988 382.919C111.003 382.915 108.814 382.692 107.625 385.874C105.092 385.971 100.505 386.121 98.0266 385.874C99.2262 385.719 100.675 385.83 101.905 385.874C98.9756 361.639 98.0108 347.366 113.762 325.72C116.268 322.277 125.14 314.669 123.917 311.739C133.322 302.442 163.103 298.296 175.662 297.069C181.617 296.488 187.726 295.345 193.86 295.133C196.922 300.997 198.527 305.038 197.841 311.739C194.577 326.306 210.435 329.609 209.738 308.261C212.585 308.192 217.974 305.96 220.672 305.014C240.407 298.089 259.563 286.188 269.842 267.379C271.052 265.164 272.724 261.194 274.461 259.603C274.707 262.376 273.609 264.554 273.479 267.282C273.129 274.748 288.884 277.541 286.459 259.546C285.431 251.919 281.8 246.3 275.846 241.615C271.215 238.944 267.645 237.443 262.328 237.168C262.163 227.82 267.451 211.458 260.299 206.777C260.224 203.975 260.041 196.873 261.746 194.867C252.168 196.96 251.06 179.441 261.746 179.306C261.854 179.116 261.839 170.466 262.328 168.466C265.697 166.862 266.127 165.964 266.68 162.405L282.272 162.405L304.085 162.429C307.655 162.442 312.575 162.734 315.996 162.205C321.64 161.333 321.983 151.587 316.034 150.588C312.502 149.995 307.76 150.304 304.138 150.306L281.96 150.324C282.069 144.949 281.598 139.554 281.181 134.195L321.967 134.203C328.976 134.203 346.623 137.009 348.933 129.299Z"/><path fill="#BCDEF6" transform="scale(2 2)" d="M123.917 311.739C133.322 302.442 163.103 298.296 175.662 297.069C181.617 296.488 187.726 295.345 193.86 295.133C196.922 300.997 198.527 305.038 197.841 311.739C194.444 311.958 170.032 315.004 169.112 315.397C176.298 324.843 164.191 326.063 158.798 327.198C141.82 329.823 127.641 343.362 123.392 359.898C122.332 364.04 119.449 366.717 115.069 365.422C112.702 370.615 115.132 379.995 113.988 382.919C111.003 382.915 108.814 382.692 107.625 385.874C105.092 385.971 100.505 386.121 98.0266 385.874C99.2262 385.719 100.675 385.83 101.905 385.874C98.9756 361.639 98.0108 347.366 113.762 325.72C116.268 322.277 125.14 314.669 123.917 311.739Z"/><path transform="scale(2 2)" d="M115.069 365.422C111.044 362.881 110.854 360.034 112.101 355.682C118.482 333.407 137.681 317.379 160.558 314.374C164.227 313.892 165.716 313.227 169.112 315.397C176.298 324.843 164.191 326.063 158.798 327.198C141.82 329.823 127.641 343.362 123.392 359.898C122.332 364.04 119.449 366.717 115.069 365.422Z"/><path fill="white" transform="scale(2 2)" d="M266.68 162.405L282.272 162.405C282.101 183.404 280.078 204.409 278.167 225.317C277.636 231.13 277.361 235.912 275.846 241.615C271.215 238.944 267.645 237.443 262.328 237.168C262.163 227.82 267.451 211.458 260.299 206.777C260.224 203.975 260.041 196.873 261.746 194.867C252.168 196.96 251.06 179.441 261.746 179.306C261.854 179.116 261.839 170.466 262.328 168.466C265.697 166.862 266.127 165.964 266.68 162.405Z"/><path transform="scale(2 2)" d="M261.746 179.306C268.406 183.219 268.135 192.55 261.746 194.867C252.168 196.96 251.06 179.441 261.746 179.306Z"/><path transform="scale(2 2)" d="M342.369 150.324C345.659 150.296 352.721 149.676 355.276 151.391C359.705 154.364 358.483 161.501 352.721 162.405C346.246 162.458 332.768 163.701 338.166 152.725C338.881 151.272 340.653 150.644 342.369 150.324Z"/><path fill="#88C6FD" transform="scale(2 2)" d="M113.072 398.011L382.59 398.011C386.463 411.228 386.079 410.804 380.806 422.329C375.799 422.029 371.913 421.509 370.582 427.481C364.962 427.47 357.195 427.764 351.8 427.481C351.345 431.323 350.604 432.342 347.33 434.396C339.691 433.993 331.564 434.665 323.862 434.409C318.128 434.218 310.473 435.927 310.257 427.481C305.12 427.489 297.806 427.73 292.846 427.481C291.401 419.741 277.169 410.625 269.945 410.574C257.707 410.487 245.183 410.257 232.951 410.715C225.18 411.006 219.24 417.459 213.734 422.329L115.069 422.329C111.989 414.693 113.057 406.121 113.072 398.011Z"/><path transform="scale(2 2)" d="M310.257 427.481C311.34 423.909 312.588 422.589 316.269 422.363C320.075 422.13 345.617 421.979 347.678 422.655C349.97 423.405 351.069 425.36 351.8 427.481C351.345 431.323 350.604 432.342 347.33 434.396C339.691 433.993 331.564 434.665 323.862 434.409C318.128 434.218 310.473 435.927 310.257 427.481Z"/><path fill="#F5B108" transform="scale(2 2)" d="M383.703 134.195C389.494 134.185 397.642 133.905 403.282 134.195C403.557 139.704 402.959 144.814 402.519 150.302L391.473 277.934C389.21 301.503 390.415 312.489 399.684 335.513C405.877 350.895 406.917 366.973 401.229 382.919C396.06 382.663 389.002 382.898 383.703 382.919C388.727 368.661 384.77 347.063 378.971 333.811C368.002 308.745 367.058 308.397 370.032 279.348L382.363 152.244C382.992 146.127 383.792 140.354 383.703 134.195Z"/><path fill="#BCDEF6" transform="scale(2 2)" d="M263.11 89.9536C273.246 89.7338 284.116 89.953 294.326 89.9536L379.101 89.9623C385.749 89.9641 391.113 90.2158 397.738 89.2894C397.96 92.357 397.761 97.5181 397.75 100.725L397.738 122.1C394.113 122.092 389.259 121.93 385.738 122.1C379.561 122.059 367.203 119.903 368.086 129.299C362.575 129.159 354.047 129.72 348.933 129.299C347.852 120.238 342.403 122.081 335.061 122.087L261.746 122.1C262.632 121.958 264.011 122.064 264.948 122.1L264.967 101.984C264.974 98.1702 266.561 90.5843 263.11 89.9536Z"/><path fill="white" transform="scale(2 2)" d="M260.299 248.676C267.801 249.71 272.168 251.864 274.461 259.603C272.724 261.194 271.052 265.164 269.842 267.379C259.563 286.188 240.407 298.089 220.672 305.014C217.974 305.96 212.585 308.192 209.738 308.261C209.584 302.794 208.643 300.271 206.904 295.133C227.669 286.957 240.998 283.36 254.088 261.901C256.572 257.829 258.169 253.031 260.299 248.676Z"/><path fill="#0C98FA" transform="scale(2 2)" d="M397.738 89.2894C420.623 90.0149 417.676 84.3032 417.774 105.398C417.854 122.589 421.304 122.075 402.921 122.115C397.225 122.127 391.422 122.36 385.738 122.1C389.259 121.93 394.113 122.092 397.738 122.1L397.75 100.725C397.761 97.5181 397.96 92.357 397.738 89.2894Z"/><path fill="white" transform="scale(2 2)" d="M250.287 89.9536C253.006 89.6322 260.113 89.9166 263.11 89.9536C266.561 90.5843 264.974 98.1702 264.967 101.984L264.948 122.1C264.011 122.064 262.632 121.958 261.746 122.1C258.78 122.15 253.048 122.37 250.287 122.1C249.636 112.477 250.154 99.7219 250.287 89.9536Z"/><path fill="#D28104" transform="scale(2 2)" d="M113.988 382.919C119.041 383.117 125.015 382.933 130.171 382.925L262.328 382.919L262.328 385.874L124.561 385.88C119.67 385.886 112.362 386.137 107.625 385.874C108.814 382.692 111.003 382.915 113.988 382.919Z"/><path fill="#0C98FA" transform="scale(2 2)" d="M382.59 398.011C386.353 398 399.104 397.475 401.18 399.135C403.645 401.105 403.384 418.104 399.648 420.394C394.855 423.331 385.861 422.346 380.806 422.329C386.079 410.804 386.463 411.228 382.59 398.011Z"/><path fill="#BCDEF6" transform="scale(2 2)" d="M115.069 422.329C110.284 422.265 104.429 423.674 99.4329 420.49C94.8663 417.58 94.5422 402.643 97.3108 398.873C98.3147 397.506 109.926 397.996 113.072 398.011C113.057 406.121 111.989 414.693 115.069 422.329Z"/><path fill="#D28104" transform="scale(2 2)" d="M275.056 382.919L373.279 382.927C375.699 382.929 381.491 383.099 383.703 382.919C389.002 382.898 396.06 382.663 401.229 382.919C400.929 383.591 399.985 385.161 399.586 385.874L316.034 385.873C302.735 385.873 287.589 386.244 274.461 385.874L275.056 382.919Z"/><path fill="white" transform="scale(2 2)" d="M262.328 134.195L281.181 134.195C281.598 139.554 282.069 144.949 281.96 150.324L265.693 150.324C264.505 144.922 263.401 139.622 262.328 134.195Z"/></svg>