<?xml version="1.0" encoding="utf-8" ?><svg xmlns="http://www.w3.org/2000/svg" xmlns:xlink="http://www.w3.org/1999/xlink" width="1024" height="1024" viewBox="0 0 1024 1024"><path transform="scale(2 2)" d="M157.74 183.265C155.928 177.575 156.234 172.38 156.544 166.539C160.658 88.9768 248.804 45.3985 311.726 89.7983C316.536 93.2273 322.223 96.6474 317.629 103.036C320.072 105.02 327.252 112.919 329.253 115.417C330.754 114.425 332.014 114.16 333.741 113.7C335.428 114.126 337.224 114.671 338.315 116.183C351.547 134.517 358.399 162.494 354.126 184.948C362.968 191.177 363.538 196.714 363.319 206.92C363.16 214.361 364.258 221.07 359.406 227.585C352.979 236.49 342.639 239.237 332.759 234.524C331.359 237.844 330.853 241.395 329.946 244.881C324.772 264.772 311.689 279.354 294.748 290.335C294.731 292.859 294.62 296.275 294.748 298.72C332.756 303.811 362.771 325.833 371.817 364.832C373.03 370.06 374.892 373.791 369.989 377.719C360.345 380.973 361.007 370.72 359.312 364.958C351.23 337.478 332.544 320.274 305.007 313.041C301.067 312.238 298.088 311.381 294.033 311.238C286.311 350.092 235.188 355.542 218.403 317.204C217.814 315.194 217.252 313.279 216.76 311.238C202.641 311.031 195.305 318.887 184.799 321.133C180.039 319.838 177.171 313.969 181.003 311.011C189.671 304.318 205.972 299.141 216.76 298.72C216.799 295.424 216.766 292.078 216.76 288.778C195.484 279.287 183.644 257.585 178.626 235.986C168.597 234.924 160.594 238.82 152.716 229.046C147.011 221.968 149.14 215.061 148.75 206.985C148.208 195.784 148.535 190.511 157.74 183.265Z"/><path fill="#BCDEF6" transform="scale(2 2)" d="M247.671 84.5029C255.494 84.5973 259.765 84.0831 267.902 85.467C268.772 86.5874 275.366 88.5322 277.181 89.2462C313.072 103.363 328.816 141.027 329.474 177.711C329.49 178.382 329.436 178.534 329.253 179.154C322.36 171.965 310.659 169.49 307.884 158.44C305.749 149.939 295.826 144.418 287.727 148.521C284.905 149.951 282.077 152.825 279.444 154.656C259.03 170.105 232.061 174.948 206.981 175.06C198.685 175.097 191.725 173.676 184.799 179.154C184.301 174.286 185.274 169.963 186.406 165.24C178.851 162.594 181.448 150.217 187.437 147.585C187.52 143.678 191.663 132.294 194.276 129.655C194.655 129.053 195.001 128.408 195.35 127.786C194.028 125.683 198.898 119.831 200.153 117.935C216.71 92.9088 243.492 90.4929 248.148 84.9092L247.671 84.5029Z"/><path transform="scale(2 2)" d="M195.35 127.786C211.541 106.192 230.607 94.853 258.965 96.8362C263.277 97.1377 270.75 97.0348 271.224 102.828C271.587 112.946 259.69 109.089 253.561 108.974C218.826 108.297 207.346 136.113 202.584 137.23C196.599 138.633 194.314 134.714 194.276 129.655C194.655 129.053 195.001 128.408 195.35 127.786Z"/><path transform="scale(2 2)" d="M187.437 147.585C200.301 146.992 195.237 167.081 186.406 165.24C178.851 162.594 181.448 150.217 187.437 147.585Z"/><path fill="#459AEC" transform="scale(2 2)" d="M267.902 85.467C280.54 86.7367 292.119 91.764 302.772 98.6082C308.62 102.365 310.456 107.093 317.629 103.036C320.072 105.02 327.252 112.919 329.253 115.417C325.623 123.548 330.716 125.885 334.334 133.616C340.565 146.934 345.634 168.403 341.674 183.265L332.759 183.265C331.741 181.906 330.519 180.295 329.253 179.154C329.436 178.534 329.49 178.382 329.474 177.711C328.816 141.027 313.072 103.363 277.181 89.2462C275.366 88.5322 268.772 86.5874 267.902 85.467Z"/><path fill="white" transform="scale(2 2)" d="M184.799 179.154C169.919 189.644 168.366 180.423 169.166 165.788C171.627 120.769 205.303 91.4394 247.671 84.5029L248.148 84.9092C243.492 90.4929 216.71 92.9088 200.153 117.935C198.898 119.831 194.028 125.683 195.35 127.786C195.001 128.408 194.655 129.053 194.276 129.655C191.663 132.294 187.52 143.678 187.437 147.585C181.448 150.217 178.851 162.594 186.406 165.24C185.274 169.963 184.301 174.286 184.799 179.154Z"/><path fill="white" transform="scale(2 2)" d="M294.033 159.066C296.861 161.335 296.303 163.736 297.967 166.928C303.424 177.389 311.064 181.806 320.821 187.203C320.971 200.503 321.037 214.234 320.799 227.527C320.192 261.401 286.118 290.804 253.058 288.778C226.002 288.503 194.399 260.461 190.845 233.217C190.162 227.982 190.496 220.873 190.5 215.5L190.507 189.72C191.669 188.84 193.935 187.363 195.394 187.365C229.426 187.409 260.018 184.833 288.172 163.537C290.33 161.734 291.701 160.671 294.033 159.066Z"/><path fill="#E7E6E6" transform="scale(2 2)" d="M294.033 159.066C296.861 161.335 296.303 163.736 297.967 166.928C303.424 177.389 311.064 181.806 320.821 187.203C320.971 200.503 321.037 214.234 320.799 227.527C320.192 261.401 286.118 290.804 253.058 288.778C254.606 286.232 269.249 279.85 273.034 277.109C286.988 267.001 299.335 254.513 303.767 237.099C304.802 233.031 304.485 222.853 304.484 218.335L304.471 192.135C302.754 189.415 299.986 187.304 297.87 184.819C291.052 176.81 290.89 172.567 288.233 163.734L288.172 163.537C290.33 161.734 291.701 160.671 294.033 159.066Z"/><path transform="scale(2 2)" d="M271.925 243.763C275.601 243.869 279.499 246.665 279.149 250.078C277.777 263.461 251.149 270.065 239.028 258.994C235.157 255.071 229.933 248.241 238.423 244.55C243.309 242.426 246.12 249.936 249.589 251.617C261.092 256.865 265.892 245.499 271.925 243.763Z"/><path transform="scale(2 2)" d="M223.861 201.348C229.512 199.853 235.316 203.175 236.89 208.805C238.463 214.434 235.223 220.284 229.616 221.936C225.919 223.025 221.921 222.039 219.154 219.356C216.387 216.673 215.279 212.708 216.254 208.979C217.228 205.25 220.135 202.334 223.861 201.348Z"/><path transform="scale(2 2)" d="M284.314 200.852C290.116 200.118 295.424 204.205 296.197 210.002C296.97 215.799 292.919 221.133 287.127 221.946C281.28 222.766 275.883 218.668 275.102 212.815C274.322 206.962 278.456 201.593 284.314 200.852Z"/><path fill="#BCDEF6" transform="scale(2 2)" d="M229.257 295.214C246.569 301.832 253.269 303.366 271.925 299.557C275.297 298.376 278.718 297.408 282.095 296.272C282.156 303.86 283.042 310.023 279.254 316.915C272.935 328.415 260.218 333.211 247.671 329.606C229.832 323.209 229.203 311.954 229.257 295.214Z"/><path fill="#8FA9BA" transform="scale(2 2)" d="M271.925 299.557C275.297 298.376 278.718 297.408 282.095 296.272C282.156 303.86 283.042 310.023 279.254 316.915C272.935 328.415 260.218 333.211 247.671 329.606C248.152 329.192 249.909 328.279 250.526 328.005C259.783 323.9 270.828 309.725 271.925 299.557Z"/><path fill="#FEC302" transform="scale(2 2)" d="M332.759 195.234C335.82 195.17 347.517 194.478 349.299 196.552C351.996 199.691 352.578 217.836 348.256 222.001C342.712 227.962 333.571 224.668 333.069 218.792C332.45 211.562 332.743 202.495 332.759 195.234Z"/><path fill="#FEC302" transform="scale(2 2)" d="M165.808 193.04C170.312 193.585 172.976 194.928 178.626 195.234L178.626 223.478L174.386 223.478C169.913 223.48 163.343 225.11 161.57 219.681C160.081 215.118 158.174 195.562 165.808 193.04Z"/><path fill="#FED303" transform="scale(2 2)" d="M294.033 311.238C298.088 311.381 301.067 312.238 305.007 313.041C332.544 320.274 351.23 337.478 359.312 364.958C361.007 370.72 360.345 380.973 369.989 377.719C369.99 380.047 369.633 398.476 369.989 399.689C386.163 393.53 384.424 428.302 363.186 435.229C356.847 436.878 345.697 436 338.583 435.999L225.238 436.001C218.914 436.057 209.155 438.389 207.858 429.83C202.274 429.838 194.753 430.081 189.332 429.83C188.998 438.644 177.321 436.211 170.858 436C160.641 435.667 149.012 438.089 140.696 430.594C128.51 419.966 134.83 405.053 136.739 391.575C140.178 367.305 137.956 351.222 157.143 329.988C161.715 324.929 168.851 328.185 168.187 334.824C168.037 336.315 164.496 340.505 163.371 341.993C146.357 364.514 152.593 381.842 146.875 406.225C143.379 421.128 147.993 423.801 161.774 423.821L161.661 422.951C160.261 411.747 162.223 406.066 163.532 395.23C165.343 375.661 162.481 360.125 176.491 342.409C186.824 329.342 201.655 319.266 218.403 317.204C235.188 355.542 286.311 350.092 294.033 311.238Z"/><path transform="scale(2 2)" d="M322.738 423.821L322.71 401.418C322.707 397.23 321.743 391.087 324.301 387.588C327.014 383.874 333.986 385.648 334.61 389.773C335.062 392.763 334.812 397.697 334.811 401.018L334.791 423.821C339.045 423.915 343.441 423.841 347.707 423.821C378.835 424.025 362.237 410.38 369.989 399.689C386.163 393.53 384.424 428.302 363.186 435.229C356.847 436.878 345.697 436 338.583 435.999L225.238 436.001C218.914 436.057 209.155 438.389 207.858 429.83C209.822 421.49 218.54 423.796 225.739 423.807L322.738 423.821Z"/><path transform="scale(2 2)" d="M189.332 429.83C188.998 438.644 177.321 436.211 170.858 436C160.641 435.667 149.012 438.089 140.696 430.594C128.51 419.966 134.83 405.053 136.739 391.575C140.178 367.305 137.956 351.222 157.143 329.988C161.715 324.929 168.851 328.185 168.187 334.824C168.037 336.315 164.496 340.505 163.371 341.993C146.357 364.514 152.593 381.842 146.875 406.225C143.379 421.128 147.993 423.801 161.774 423.821L177.464 423.821L177.449 400.521C177.443 394.914 175.412 385.428 183.286 384.973C191.37 384.505 189.361 398.282 189.355 403.184L189.332 429.83Z"/><path fill="#FEC302" transform="scale(2 2)" d="M305.007 313.041C332.544 320.274 351.23 337.478 359.312 364.958C361.007 370.72 360.345 380.973 369.989 377.719C369.99 380.047 369.633 398.476 369.989 399.689C362.237 410.38 378.835 424.025 347.707 423.821C347.734 386.344 351.017 359.228 322.403 328.772C318.93 325.075 305.156 316.142 305.007 313.041Z"/></svg>