<?xml version="1.0" encoding="utf-8" ?><svg xmlns="http://www.w3.org/2000/svg" xmlns:xlink="http://www.w3.org/1999/xlink" width="1024" height="1024" viewBox="0 0 1024 1024"><path fill="#BCDEF6" transform="scale(2 2)" d="M290.56 248.656C296.038 254.684 302.003 266.751 309.787 262.038L309.783 264.162C309.787 267.405 314.899 274.171 317.061 276.389C321.672 273.103 325.323 274.404 328.308 278.932C349.272 310.736 360.047 349.571 347.42 386.752C364.517 386.896 382.002 376.114 389.17 360.773C391.259 356.812 392.111 352.588 393.951 348.512C403.991 326.269 437.322 336.479 435.902 358.316C433.396 396.837 385.882 430.262 348.61 428.727C340.877 428.409 332.953 427.674 326.17 423.771C315.185 439.981 303.635 440.009 286.192 440.022L248.678 440.02C238.536 440.01 236.291 440.479 227.136 435.77C206.855 435.54 186.223 437.769 165.949 438.388C158.8 438.371 150.867 439.883 143.821 438.864C117.109 435.003 117.731 394.248 145.522 393.134C145.433 387.72 145.59 384.816 151.5 383.089C159.918 385.362 158.359 389.492 158.684 396.349C159.478 413.114 142.134 400.252 138.059 412.135C135.872 418.51 139.332 423.8 145.522 425.475C145.507 425.076 145.14 423.895 145.027 423.322C142.353 409.822 152.885 414.28 159.205 412.133C164.909 410.44 163.897 405.338 163.821 400.625C163.499 380.685 161.992 360.779 161.783 341.262C161.47 312.067 161.779 278.289 176.427 252.223C182.879 255.184 188.349 260.084 194.46 254.531C207.789 263.237 241.323 262.708 256.125 259.734C261.032 258.748 267.012 256.424 271.756 256.2C280.292 257.557 283.765 252.922 290.56 248.656ZM264.753 395.684C271.555 397.678 272.997 404.601 267.734 407.32C264.947 408.76 246.851 407.343 241.778 407.633C242.405 414.081 259.885 411.504 266.78 412.109C283.617 414.139 282.182 409.67 275.846 398.98C265.206 381.027 275.154 356.008 296.097 352.028C299.648 351.355 303.522 352.357 306.748 350.372C313.749 346.064 309.415 338.007 301.25 336.388C298.707 342.055 293.387 340.48 288.267 342.159C265.038 349.777 255.402 373.774 264.753 395.684ZM419.558 351.677C408.032 343.27 405.613 357.116 402.566 364.117C397.359 376.085 386.635 387.074 375.2 393.134C378.709 393.793 386.603 391.126 389.822 389.538C408.18 380.482 410.87 367.345 419.558 351.677Z"/><path transform="scale(2 2)" d="M317.061 276.389C321.672 273.103 325.323 274.404 328.308 278.932C349.272 310.736 360.047 349.571 347.42 386.752C364.517 386.896 382.002 376.114 389.17 360.773C391.259 356.812 392.111 352.588 393.951 348.512C403.991 326.269 437.322 336.479 435.902 358.316C433.396 396.837 385.882 430.262 348.61 428.727C340.877 428.409 332.953 427.674 326.17 423.771C315.185 439.981 303.635 440.009 286.192 440.022L248.678 440.02C238.536 440.01 236.291 440.479 227.136 435.77C206.855 435.54 186.223 437.769 165.949 438.388C158.8 438.371 150.867 439.883 143.821 438.864C117.109 435.003 117.731 394.248 145.522 393.134C145.433 387.72 145.59 384.816 151.5 383.089C159.918 385.362 158.359 389.492 158.684 396.349C159.478 413.114 142.134 400.252 138.059 412.135C135.872 418.51 139.332 423.8 145.522 425.475C148.647 426.499 160.757 425.076 164.695 425.177C170.109 425.316 175.746 416.413 175.716 411.261L175.816 381.529C175.87 373.273 176.047 347.002 177.907 339.244C179.361 333.177 189.705 334.36 190.264 339.051C191.066 345.766 190.139 356.133 189.804 362.802C188.954 379.735 192.294 409.977 185.618 423.771C196.473 423.825 207.934 422.346 218.789 422.571C214.664 399.983 231.858 394.2 249.828 394.236C246.666 381.212 246.935 371.228 251.59 358.679C243.638 359.352 231.786 361.79 224.441 360.964C209.25 359.255 200.498 341 208.941 328.116C216.129 317.146 226.322 317.793 237.448 315.28C237.693 309.512 236.916 303.55 237.495 297.922C238.16 291.47 247.562 290.165 250.074 295.926C251.027 298.111 250.788 303.56 250.884 306.106L251.238 316.913C252.108 339.6 221.212 320.786 219.255 338.587C217.413 355.337 249.859 343.861 261.25 344.908C267.916 336.118 277.926 330.894 288.564 328.603C295.615 327.084 302.207 327.552 301.25 336.388C298.707 342.055 293.387 340.48 288.267 342.159C265.038 349.777 255.402 373.774 264.753 395.684C271.555 397.678 272.997 404.601 267.734 407.32C264.947 408.76 246.851 407.343 241.778 407.633C228.596 408.586 228.647 426.151 240.52 426.861C243.958 427.066 247.086 427.027 250.458 427.016L286.752 427.034C296.443 427.039 304.619 428.329 311.811 420.564C348.261 381.208 346.441 332.314 318.629 288.523C315.538 283.656 313.086 281.667 317.061 276.389ZM419.558 351.677C408.032 343.27 405.613 357.116 402.566 364.117C397.359 376.085 386.635 387.074 375.2 393.134C378.709 393.793 386.603 391.126 389.822 389.538C408.18 380.482 410.87 367.345 419.558 351.677Z"/><path fill="#BCDEF6" transform="scale(2 2)" d="M419.558 351.677C424.233 357.044 422.519 361.614 420.142 367.67C408.189 398.118 366.923 424.738 334.456 413.018C337.314 408.867 339.864 404.788 341.972 400.183C359.04 400.304 361.025 398.295 375.2 393.134C378.709 393.793 386.603 391.126 389.822 389.538C408.18 380.482 410.87 367.345 419.558 351.677Z"/><path fill="#FEC302" transform="scale(2 2)" d="M258.705 101.421C264.186 91.1674 274.784 75.4389 285.887 71.3715C294.107 68.3598 306.676 75.1997 308.52 83.9088C311.934 100.034 314.655 122.666 312.148 139.036L312.273 139.294C319.281 153.504 324.777 160.894 325.478 178.569C331.917 180.695 363.386 194.798 348.087 204.054C344.265 206.367 330.139 195.695 325.478 192.538C324.28 199.033 323.582 203.208 321.559 209.601C328.456 212.337 338.491 220.905 342.319 227.506C345.226 232.52 339.346 239.344 333.73 236.462C330.348 234.839 327.734 230.288 324.847 227.754C322.459 225.658 319.088 223.765 317.061 221.506C315.296 223.222 303.123 237.962 301.25 240.559C304.573 245.316 312.216 250.608 312.873 256.2C312.606 258.971 312.507 260.583 309.787 262.038C302.003 266.751 296.038 254.684 290.56 248.656C283.765 252.922 280.292 257.557 271.756 256.2C267.012 256.424 261.032 258.748 256.125 259.734C241.323 262.708 207.789 263.237 194.46 254.531C188.349 260.084 182.879 255.184 176.427 252.223C172.722 250.043 168.669 247.473 165.531 244.498C150.106 285.714 149.784 318.196 153.663 362.262C154.695 373.991 142.636 373.043 141.119 367.222C139.468 360.883 139.834 353.58 139.125 347.046C136.443 310.329 139.041 271.221 154.434 237.255L155.12 235.765C151.801 231.815 148.065 226.02 145.522 221.506C142.591 223.928 139.91 226.066 137.141 228.692C133.114 232.511 126.631 243.414 120.306 235.358C114.033 227.368 133.849 213.242 139.975 209.601C138.003 203.501 137.394 198.172 135.787 192.538C128.065 195.585 125.085 198.872 118.966 203.413C111.924 208.64 104.148 196.679 112.312 191.388C119.497 185.578 126.651 180.889 135.787 178.569L135.858 178.247C136.601 174.762 136.772 171.144 137.538 167.686C140.397 154.785 144.179 149.7 150.31 139.036C146.055 121.876 149.958 112.449 150.968 97.4377C151.698 86.5904 153.429 74.8299 165.829 71.7781C183.205 67.5017 197.927 88.438 204.936 101.421C224.867 93.7452 239.044 94.7589 258.705 101.421ZM281.978 104.754C278.767 102.927 277.832 101.959 275.119 99.4472C265.599 112.409 270.3 120.524 250.255 112.232C222.996 102.493 212.057 116.691 200.083 115.366C195.572 114.867 190.429 101.57 187.094 97.9228C185.351 100.116 184.246 101.465 182.145 103.305L182.316 103.626C186.144 110.921 187.14 121.46 196.554 124.137C209.118 127.708 220.825 112.045 250.474 122.043C253.477 123.026 257.388 124.99 260.44 125.192C273.927 126.083 276.389 112.361 281.978 104.754ZM163.751 143.744C157.536 153.019 153.266 158.214 150.527 169.989C149.005 176.53 151.266 176.688 158.64 173.757C161.198 168.016 173.722 144.653 173.294 142.161C171.315 130.625 171.381 119.824 171.459 108.195C167.773 108.478 165.743 108.534 162.032 108.195C162.301 116.087 161.587 123.946 162.565 131.879C163.041 135.749 163.764 139.584 163.755 143.465L163.751 143.744ZM151.5 202.808C154.368 201.755 157.325 200.601 160.273 199.836C159.441 195.692 158.904 191.613 157.914 187.513C154.382 187.816 152.009 188.064 148.513 188.913C149.632 193.562 150.301 198.178 151.5 202.808Z"/><path transform="scale(2 2)" d="M258.705 101.421C264.186 91.1674 274.784 75.4389 285.887 71.3715C294.107 68.3598 306.676 75.1997 308.52 83.9088C311.934 100.034 314.655 122.666 312.148 139.036L312.273 139.294C319.281 153.504 324.777 160.894 325.478 178.569C331.917 180.695 363.386 194.798 348.087 204.054C344.265 206.367 330.139 195.695 325.478 192.538C324.28 199.033 323.582 203.208 321.559 209.601C328.456 212.337 338.491 220.905 342.319 227.506C345.226 232.52 339.346 239.344 333.73 236.462C330.348 234.839 327.734 230.288 324.847 227.754C322.459 225.658 319.088 223.765 317.061 221.506C315.296 223.222 303.123 237.962 301.25 240.559C304.573 245.316 312.216 250.608 312.873 256.2C312.606 258.971 312.507 260.583 309.787 262.038C302.003 266.751 296.038 254.684 290.56 248.656C283.765 252.922 280.292 257.557 271.756 256.2C263.841 245.416 274.184 243.447 280.945 239.093C289.222 233.762 299.798 223.912 304.335 215.068C302.55 214.409 300.491 213.922 298.613 213.359C292.544 211.54 289.749 194.514 309.787 202.808C310.829 198.339 312.03 193.476 312.148 188.913C304.475 184.892 297.178 190.078 294.669 179.743C296.916 170.21 304.669 173.849 312.148 173.757C309.567 164.786 307.089 155.024 301.461 147.384C297.033 141.374 299.311 136.409 299.635 129.462C299.967 122.339 299.006 114.594 299.692 107.67C291.602 108.117 289.373 108.3 281.978 104.754C278.767 102.927 277.832 101.959 275.119 99.4472C265.599 112.409 270.3 120.524 250.255 112.232C222.996 102.493 212.057 116.691 200.083 115.366C195.572 114.867 190.429 101.57 187.094 97.9228C185.351 100.116 184.246 101.465 182.145 103.305C177.482 106.567 175.816 106.308 171.459 108.195C167.773 108.478 165.743 108.534 162.032 108.195C162.301 116.087 161.587 123.946 162.565 131.879C163.041 135.749 163.764 139.584 163.755 143.465L163.751 143.744C157.536 153.019 153.266 158.214 150.527 169.989C149.005 176.53 151.266 176.688 158.64 173.757C169.101 175.067 168.431 187.3 157.914 187.513C154.382 187.816 152.009 188.064 148.513 188.913C149.632 193.562 150.301 198.178 151.5 202.808C154.368 201.755 157.325 200.601 160.273 199.836C166.765 199.783 170.299 206.851 165.561 211.402C163.818 213.075 160.131 213.831 157.914 215.068C165.645 238.053 193.197 241.407 196.136 250.085C195.612 251.942 195.259 252.758 194.46 254.531C188.349 260.084 182.879 255.184 176.427 252.223C172.722 250.043 168.669 247.473 165.531 244.498C150.106 285.714 149.784 318.196 153.663 362.262C154.695 373.991 142.636 373.043 141.119 367.222C139.468 360.883 139.834 353.58 139.125 347.046C136.443 310.329 139.041 271.221 154.434 237.255L155.12 235.765C151.801 231.815 148.065 226.02 145.522 221.506C142.591 223.928 139.91 226.066 137.141 228.692C133.114 232.511 126.631 243.414 120.306 235.358C114.033 227.368 133.849 213.242 139.975 209.601C138.003 203.501 137.394 198.172 135.787 192.538C128.065 195.585 125.085 198.872 118.966 203.413C111.924 208.64 104.148 196.679 112.312 191.388C119.497 185.578 126.651 180.889 135.787 178.569L135.858 178.247C136.601 174.762 136.772 171.144 137.538 167.686C140.397 154.785 144.179 149.7 150.31 139.036C146.055 121.876 149.958 112.449 150.968 97.4377C151.698 86.5904 153.429 74.8299 165.829 71.7781C183.205 67.5017 197.927 88.438 204.936 101.421C224.867 93.7452 239.044 94.7589 258.705 101.421Z"/><path fill="#2B84CD" transform="scale(2 2)" d="M169.847 84.0261C173.842 83.8558 175.862 86.0646 178.083 88.969C176.251 90.9792 173.804 93.1657 171.459 94.5609C169.391 95.5025 167.748 95.7731 165.531 96.1306C165.035 91.712 164.74 85.6824 169.847 84.0261Z"/><path fill="#2B84CD" transform="scale(2 2)" d="M289.345 84.0261C295.972 82.8128 296.03 89.9872 296.681 94.5609C294.874 94.6656 293.37 94.843 291.575 94.5609C287.855 93.4485 286.166 92.1832 283.991 88.969C285.53 86.7982 287.028 85.3187 289.345 84.0261Z"/><path transform="scale(2 2)" d="M222.706 173.757C228.181 173.74 242.438 171.745 245.379 177.893C248.83 185.107 243.296 192.477 237.448 195.878C238.123 200.89 237.547 204.383 243.445 206.368C252.041 209.261 251.904 201.713 257.31 198.915C262.051 196.462 269.091 203.811 265.454 208.825C259.413 219.989 246.628 223.498 235.55 217.812C233.594 216.677 231.895 215.268 230.161 213.831C223.994 218.427 220.027 221.161 211.806 220.394C195.49 218.549 189.06 200.247 200.883 199.138C207.057 198.725 206.749 206.215 213.049 206.815C220.112 207.488 223.48 201.897 224.311 195.878C216.233 190.06 209.41 176.752 222.706 173.757Z"/><path transform="scale(2 2)" d="M264.001 146.338C281.866 144.311 290.917 171.236 275.499 168.678C269.158 167.626 272.279 161.939 267.03 159.392C261.628 158.643 261.387 162.407 259.203 166.185C254.976 173.5 241.164 166.029 250.984 153.204C254.22 149.003 258.912 147.033 264.001 146.338Z"/><path transform="scale(2 2)" d="M194.46 146.338C209.635 142.144 220.853 170.324 205.275 168.415C199.193 167.669 201.872 161.694 196.136 159.392C190.159 158.515 191.041 163.169 188.441 166.9C184.044 173.208 170.044 164.775 181.27 152.435C184.901 148.444 189.085 146.645 194.46 146.338Z"/></svg>