<?xml version="1.0" encoding="utf-8" ?><svg xmlns="http://www.w3.org/2000/svg" xmlns:xlink="http://www.w3.org/1999/xlink" width="1024" height="1024" viewBox="0 0 1024 1024"><path transform="scale(2 2)" d="M170.243 185.255C157.215 188.294 143.22 178.401 141.333 165.175C140.756 161.133 141.006 156.422 141.01 152.289L141.007 108.032C140.999 97.7861 139.874 89.5993 146.525 81.1556C158.034 65.2347 186.519 70.5171 204.347 70.3117C208.222 70.2671 209.991 73.0993 210.36 76.6595C214.459 76.7527 222.91 76.9397 226.832 76.6595C229.436 66.863 245.395 70.2465 254.535 70.2468L325.459 70.2473C332.45 70.249 342.663 69.6475 349.39 71.1921C373.619 76.7548 371.15 99.5601 371.358 117.722L371.422 146.531C371.421 151.638 371.455 156.774 371.403 161.883C371.235 178.35 357.047 185.455 342.469 185.255C342.23 208.571 342.634 232.079 342.469 255.415C367.394 260.994 374.853 291.322 353.713 304.638C350.745 306.505 347.526 307.497 344.292 308.795C346.714 321.563 348.754 334.399 350.891 347.217C351.771 352.5 351.832 359.578 344.292 359.3C344.065 364.131 345.587 370.253 346.789 375.011C351.494 373.84 355.939 376.258 356.586 381.234C358.643 397.056 361.862 412.944 363.555 428.769C364.269 434.037 358.067 441.498 352.658 441.283C328.93 440.337 325.832 446.907 321.356 421.354L316.968 394.829C313.956 376.446 309.915 356.644 307.555 338.248C304.914 338.411 301.262 338.26 298.51 338.257L225.129 338.232C222.703 338.231 206.555 338.015 205.369 338.561C204.587 340.686 203.97 344.953 203.567 347.298L191.949 413.368C190.707 420.276 190.385 435.993 183.483 439.359C177.359 442.346 164.506 441.63 157.787 440.446C144.776 437.344 149.083 422.585 150.58 413.684L162.469 339.582C163.817 330.874 165.522 316.885 168.033 308.795C142.877 306.219 134.632 263.849 170.243 255.415L170.243 185.255Z"/><path fill="#BCDEF6" transform="scale(2 2)" d="M210.36 76.6595C214.459 76.7527 222.91 76.9397 226.832 76.6595C228.181 86.1939 237.357 83.8879 244.609 83.8585L322.956 83.8511C348.493 83.812 357.713 79.3923 357.736 110.335L357.735 151.606C357.723 165.764 357.574 172.272 341.276 171.504C331.88 144.707 303.486 150.846 279.693 150.831C275.666 150.82 273.218 153.151 272.373 157.008L259.483 157.008C258.085 152.155 255.847 151.099 251.103 151.014C235.14 150.725 219.153 150.947 203.187 150.895C189.392 150.851 176.437 154.755 171.155 169.25C169.331 166.176 170.206 121.89 170.233 116.078C170.301 101.361 169.049 94.9343 179.675 83.8483C188.241 83.864 211.2 87.9166 210.36 76.6595Z"/><path fill="#FEC302" transform="scale(2 2)" d="M259.483 157.008L272.373 157.008C273.195 165.742 278.126 164.251 284.782 164.344C299.072 164.543 326.289 158.776 328.808 177.581C326.53 177.36 319.681 177.56 317.151 177.565L212.845 177.587C208.795 177.59 186.574 177.876 183.902 177.088L183.665 176.202C185.791 161.601 203.172 164.342 213.83 164.343L251.061 164.441C256.369 164.464 259.508 162.777 259.483 157.008Z"/><path fill="#FEC302" transform="scale(2 2)" d="M315.504 308.795L330.621 308.795C331.74 315.532 337.461 353.606 339.161 356.506C340.181 358.246 342.496 358.767 344.292 359.3C344.065 364.131 345.587 370.253 346.789 375.011C341.554 377.799 342.405 381.524 343.275 386.587C345.445 399.212 348.671 414.778 349.819 427.37L349.85 427.723L336.047 427.723L319.743 329.787C318.525 322.349 317.672 316.041 315.504 308.795Z"/><path fill="#68BDEF" transform="scale(2 2)" d="M170.243 172.668C161.106 172.732 154.52 170.554 154.514 160.231L154.508 104.734C154.508 83.761 160.638 83.8163 179.675 83.8483C169.049 94.9343 170.301 101.361 170.233 116.078C170.206 121.89 169.331 166.176 171.155 169.25L170.243 172.668Z"/><path fill="#EFA709" transform="scale(2 2)" d="M183.665 176.202L183.902 177.088C186.574 177.876 208.795 177.59 212.845 177.587L317.151 177.565C319.681 177.56 326.53 177.36 328.808 177.581L328.808 181.6L183.665 181.6C183.345 179.472 183.187 178.351 183.665 176.202Z"/><path fill="white" transform="scale(2 2)" d="M210.36 194.695L301.832 194.695L301.823 216.923C301.82 224.626 299.553 233.658 308.746 235.318C308.751 241.682 308.953 249.147 308.746 255.415L203.271 255.415C202.877 250.936 203.268 240.426 203.271 235.318C212.658 233.48 210.117 227.203 210.381 219.813C210.675 211.558 210 202.915 210.36 194.695Z"/><path fill="#F3D785" transform="scale(2 2)" d="M185.691 268.967L325.231 268.961C333.391 268.964 342.358 267.128 348.491 272.853C356.528 280.356 351.436 294.287 340.883 295.514C336.843 295.983 330.639 295.573 326.197 295.565L183.992 295.559C175.066 295.993 159.393 296.524 159.782 283.135C160.25 267.04 174.958 268.956 185.691 268.967Z"/><path fill="#FEC302" transform="scale(2 2)" d="M183.992 295.559C175.066 295.993 159.393 296.524 159.782 283.135C160.25 267.04 174.958 268.956 185.691 268.967C173.224 272.684 171.088 286.822 180.658 293.457C181.719 294.192 182.978 294.817 183.992 295.559Z"/><path fill="#EFA709" transform="scale(2 2)" d="M181.303 308.795L196.617 308.795C196.033 310.881 195.592 313.402 195.162 315.555C193.608 325.407 176.148 427.017 175.666 427.698L175.141 427.723C171.565 427.932 165.89 427.731 162.152 427.723C164.388 415.363 166.202 402.082 168.123 389.653L179.004 322.326C179.739 317.867 180.391 313.202 181.303 308.795Z"/><defs><linearGradient id="gradient_0" gradientUnits="userSpaceOnUse" x1="158.28378" y1="369.39191" x2="199.91245" y2="366.16452"><stop offset="0" stop-color="#EB7F06"/><stop offset="1" stop-color="#E29205"/></linearGradient></defs><path fill="url(#gradient_0)" transform="scale(2 2)" d="M181.303 308.795L196.617 308.795C196.033 310.881 195.592 313.402 195.162 315.555C193.612 315.362 187.646 315.545 185.691 315.555C182.585 338.34 178.812 361.671 175.114 384.383C172.873 398.148 170.957 414.386 168.033 427.723C170.125 427.564 173.159 427.242 175.141 427.723C171.565 427.932 165.89 427.731 162.152 427.723C164.388 415.363 166.202 402.082 168.123 389.653L179.004 322.326C179.739 317.867 180.391 313.202 181.303 308.795Z"/><path fill="#44A9E0" transform="scale(2 2)" d="M210.36 308.795L302.921 308.795C303.334 312.33 303.89 315.797 304.437 319.313C304.703 321.016 304.969 323.053 305.303 324.717L207.564 324.717L208.398 319.313C208.996 315.765 209.428 312.267 210.36 308.795Z"/><path fill="#68BDEF" transform="scale(2 2)" d="M208.398 319.313C219.701 318.958 232.923 319.307 244.457 319.309L304.437 319.313C304.703 321.016 304.969 323.053 305.303 324.717L207.564 324.717L208.398 319.313Z"/><path fill="#FEC302" transform="scale(2 2)" d="M315.504 194.695C319.725 194.7 324.647 194.835 328.808 194.695L328.808 255.415L308.746 255.415C308.953 249.147 308.751 241.682 308.746 235.318C317.931 233.601 315.518 224.689 315.515 216.923L315.504 194.695Z"/><path fill="#FEC302" transform="scale(2 2)" d="M183.665 194.695L196.617 194.695L196.593 217.569C196.59 225.401 194.225 233.125 203.271 235.318C203.268 240.426 202.877 250.936 203.271 255.415L183.665 255.415C183.396 249.486 183.655 241.17 183.656 235.111L183.665 194.695Z"/></svg>