<?xml version="1.0" encoding="utf-8" ?><svg xmlns="http://www.w3.org/2000/svg" xmlns:xlink="http://www.w3.org/1999/xlink" width="1024" height="1024" viewBox="0 0 1024 1024"><path fill="#FDCF15" transform="scale(2 2)" d="M162.44 119.941C156.717 102.178 171.365 94.8465 182.473 84.3668C214.861 53.8099 211.452 51.4389 258.283 51.118C273.143 51.0162 293.639 50.3095 304.698 62.8624C305.534 63.8113 305.134 66.0477 304.892 67.1409C309.859 70.3507 313.776 74.0135 318.01 78.1088C324.897 76.0993 342.501 95.7693 346.569 100.883C351.1 106.581 351.89 113.194 349.038 119.941C375.071 143.237 378.362 163.716 383.617 195.338C388.714 226.012 393.962 256.697 402.062 286.746C403.596 292.44 407.163 297.893 399.692 300.979C400.666 306.619 402.162 311.21 403.227 316.573C411.945 315.565 411.604 322.723 413.417 329.382C421.562 359.286 414.596 356.484 386.773 363.594C363.682 369.496 357.394 363.495 354.379 339.625C354.805 338.727 355.259 337.708 355.73 336.844C353.334 329.634 350.832 322.23 349.038 314.859C352.059 346.564 355.011 377.682 356.932 409.554L358 428.171C358.751 440.665 358.226 456.879 341.086 457.864L182.022 457.848C173.809 457.849 167.236 458.357 160.393 453.054C154.113 448.188 148.237 431.554 159.749 428.737C172.967 433.375 154.738 446.416 180.237 445.69L250.633 445.69L250.652 406.125C250.687 400.697 248.62 393.948 253.478 390.668C253.655 383.889 253.384 376.799 253.478 369.964C249.392 366.537 250.59 361.841 250.608 356.898L250.643 245.783C250.685 238.535 251.72 234.81 248.109 228.111C236.671 206.889 213.475 192.088 193.687 178.947C177.528 168.361 168.422 160.079 182.949 141.776L179.736 139.178C174.957 135.982 173.258 134.318 168.995 130.41C157.907 141.283 146.573 160.766 143.762 176C142.913 181.142 143.103 186.499 142.266 191.643C140.665 201.429 138.583 211.116 137 220.906C135.84 228.08 132.2 233.517 125.239 227.841C122.928 223.032 129.595 195.517 130.466 187.622C133.354 158.871 140.888 141.252 162.44 119.941ZM239.061 63.4859C230.006 63.5824 220.393 65.7581 213.337 71.8326C200.567 82.8271 188.554 94.9555 176.184 106.424C165.662 116.179 185.652 130.13 193.427 133.956C193.31 131.525 178.035 119.601 186.506 110.741C198.682 98.0035 212.356 85.6554 225.194 73.4889C229.243 69.6513 234.951 66.8782 239.061 63.4859Z"/><path transform="scale(2 2)" d="M162.44 119.941C156.717 102.178 171.365 94.8465 182.473 84.3668C214.861 53.8099 211.452 51.4389 258.283 51.118C273.143 51.0162 293.639 50.3095 304.698 62.8624C305.534 63.8113 305.134 66.0477 304.892 67.1409C309.859 70.3507 313.776 74.0135 318.01 78.1088C324.897 76.0993 342.501 95.7693 346.569 100.883C351.1 106.581 351.89 113.194 349.038 119.941C375.071 143.237 378.362 163.716 383.617 195.338C388.714 226.012 393.962 256.697 402.062 286.746C403.596 292.44 407.163 297.893 399.692 300.979L399.432 300.977C389.788 300.839 389.093 285.276 387.154 277.041C381.64 254.116 377.267 231.271 373.244 208.037C367.348 173.994 369.212 157.453 342.929 130.41C339.994 133.517 337.892 135.727 334.395 138.289L330.141 141.776C340.503 155.687 337.053 166.198 322.963 175.679C307.674 185.968 270.506 211.641 262.526 227.841L262.526 236.714L262.537 349.815C262.546 357.821 265.227 368.553 256.13 370.819C255.324 370.576 254.233 370.284 253.478 369.964C249.392 366.537 250.59 361.841 250.608 356.898L250.643 245.783C250.685 238.535 251.72 234.81 248.109 228.111C236.671 206.889 213.475 192.088 193.687 178.947C177.528 168.361 168.422 160.079 182.949 141.776L179.736 139.178C174.957 135.982 173.258 134.318 168.995 130.41C157.907 141.283 146.573 160.766 143.762 176C142.913 181.142 143.103 186.499 142.266 191.643C140.665 201.429 138.583 211.116 137 220.906C135.84 228.08 132.2 233.517 125.239 227.841C122.928 223.032 129.595 195.517 130.466 187.622C133.354 158.871 140.888 141.252 162.44 119.941ZM239.061 63.4859C230.006 63.5824 220.393 65.7581 213.337 71.8326C200.567 82.8271 188.554 94.9555 176.184 106.424C165.662 116.179 185.652 130.13 193.427 133.956C193.31 131.525 178.035 119.601 186.506 110.741C198.682 98.0035 212.356 85.6554 225.194 73.4889C229.243 69.6513 234.951 66.8782 239.061 63.4859Z"/><path fill="#BCDEF6" transform="scale(2 2)" d="M239.061 63.4859L268.433 63.4859C270.004 65.5904 274.694 65.8557 277.097 66.7248C292.599 72.3332 319.054 101.49 319.486 116.071C319.832 127.745 299.326 136.64 299.433 142.043C299.523 146.58 312.986 155.288 308.248 161.325C303.541 167.322 295.107 172.188 289.141 177.213C285.603 180.193 264.216 200.798 262.526 200.954C265.763 182.787 277.133 151.047 287.501 135.959C291.877 129.59 298.491 125.761 301.349 118.908C304.964 110.242 299.804 101.008 291.426 97.6106C285.057 95.0281 266.976 89.8785 263.593 99.0444C262.942 99.3501 247.79 98.8875 245.486 99.0444C242.797 92.1216 236.287 94.384 230.382 95.2011C218.063 96.9054 203.782 105.182 210.027 119.619C212.75 125.868 219.647 129.172 223.306 134.845C235.674 153.254 249.155 185.611 249.32 207.886C237.891 196.492 225.454 185.968 212.35 176.545C200.75 168.205 178.632 162.85 193.246 148.462L193.427 148.285L196.345 148.285C211.251 143.948 193.444 133.982 193.427 133.956C193.31 131.525 178.035 119.601 186.506 110.741C198.682 98.0035 212.356 85.6554 225.194 73.4889C229.243 69.6513 234.951 66.8782 239.061 63.4859Z"/><path fill="#499ED5" transform="scale(2 2)" d="M245.486 99.0444C247.79 98.8875 262.942 99.3501 263.593 99.0444C264.79 112.497 288.096 102.399 290.474 112.368C291.083 115.494 286.447 119.022 284.421 120.771C272.915 130.704 259.818 163.253 256.13 177.464C251.929 162.573 239.307 131.557 227.449 121.123C204.591 101.012 245.836 114.083 245.486 99.0444Z"/><path fill="#499ED5" transform="scale(2 2)" d="M268.433 63.4859C276.513 63.2712 284.231 63.2973 291.421 67.5698C296.81 70.772 300.447 74.7103 304.892 67.1409C309.859 70.3507 313.776 74.0135 318.01 78.1088C309.682 84.1123 316.97 88.9207 321.987 93.6121L332.119 103.267C334.969 106.018 339.293 109.738 338.566 114.039C335.934 129.619 307.474 134.417 317.076 144.649C320.361 148.412 323.314 151.488 324.401 156.49C322.679 161.767 318.542 164.419 314.1 167.238C299.203 176.69 285.072 186.637 272.142 198.701C269.051 201.585 265.741 205.209 262.526 207.886C262.559 206.314 262.421 202.131 262.526 200.954C264.216 200.798 285.603 180.193 289.141 177.213C295.107 172.188 303.541 167.322 308.248 161.325C312.986 155.288 299.523 146.58 299.433 142.043C299.326 136.64 319.832 127.745 319.486 116.071C319.054 101.49 292.599 72.3332 277.097 66.7248C274.694 65.8557 270.004 65.5904 268.433 63.4859Z"/><path fill="#FEC302" transform="scale(2 2)" d="M334.395 138.289C337.892 135.727 339.994 133.517 342.929 130.41C369.212 157.453 367.348 173.994 373.244 208.037C377.267 231.271 381.64 254.116 387.154 277.041C389.093 285.276 389.788 300.839 399.432 300.977L399.692 300.979C400.666 306.619 402.162 311.21 403.227 316.573C400.01 318.874 400.324 319.633 399.692 323.464C395.556 322.822 387.16 324.857 383.292 326.442C382.522 322.403 380.702 318.235 379.65 314.222C372.78 287.798 365.845 262.041 359.941 235.238C357.347 223.459 355.513 211.595 352.175 199.953C351.074 196.117 349.672 191.165 349.038 187.268C344.639 190.565 339.752 192.632 335.217 195.713C320.496 205.713 302.6 217.023 291.592 231.123C285.41 239.041 286.717 256.985 286.723 267.109L286.609 419.563C286.552 428.233 286.863 436.933 286.729 445.69L300.475 445.662C302.169 445.647 306.378 445.454 307.828 445.69L262.526 445.69L262.532 414.394C262.532 405.787 265.615 392.121 256.13 389.714C254.949 389.992 254.588 390.158 253.478 390.668C253.655 383.889 253.384 376.799 253.478 369.964C254.233 370.284 255.324 370.576 256.13 370.819C265.227 368.553 262.546 357.821 262.537 349.815L262.526 236.714L262.526 227.841C270.506 211.641 307.674 185.968 322.963 175.679C337.053 166.198 340.503 155.687 330.141 141.776L334.395 138.289Z"/><path fill="#FDCF15" transform="scale(2 2)" d="M334.395 138.289C339.091 143.63 346.231 158.291 345.61 165.253C344.682 175.659 329.075 184.114 321.173 189.644C307.834 198.98 295.217 208.558 283.292 219.676C279.852 222.883 266.914 236.298 262.526 236.714L262.526 227.841C270.506 211.641 307.674 185.968 322.963 175.679C337.053 166.198 340.503 155.687 330.141 141.776L334.395 138.289Z"/><path transform="scale(2 2)" d="M307.828 445.69C312.865 445.768 338.593 446.227 341.579 445.258C345.399 444.019 346.798 440.516 346.533 436.812L338.709 332.39C338.327 327.34 337.996 322.283 337.543 317.239L332.438 260.693C331.378 248.881 336.737 233.12 342.145 223.073C345.306 217.199 351.906 219.496 353.527 225.012C351.103 237.287 342.466 246.652 345.324 259.182C350.822 283.286 359.3 306.721 365.636 330.533C370.12 328.376 378.254 327.124 383.292 326.442C387.16 324.857 395.556 322.822 399.692 323.464C400.324 319.633 400.01 318.874 403.227 316.573C411.945 315.565 411.604 322.723 413.417 329.382C421.562 359.286 414.596 356.484 386.773 363.594C363.682 369.496 357.394 363.495 354.379 339.625C354.805 338.727 355.259 337.708 355.73 336.844C353.334 329.634 350.832 322.23 349.038 314.859C352.059 346.564 355.011 377.682 356.932 409.554L358 428.171C358.751 440.665 358.226 456.879 341.086 457.864L182.022 457.848C173.809 457.849 167.236 458.357 160.393 453.054C154.113 448.188 148.237 431.554 159.749 428.737C172.967 433.375 154.738 446.416 180.237 445.69L250.633 445.69L250.652 406.125C250.687 400.697 248.62 393.948 253.478 390.668C254.588 390.158 254.949 389.992 256.13 389.714C265.615 392.121 262.532 405.787 262.532 414.394L262.526 445.69L307.828 445.69Z"/><path fill="#FEC302" transform="scale(2 2)" d="M383.292 338.577C389.212 337.181 396.413 335.878 402.109 334.148C406.465 350.766 404.126 348.468 386.035 351.38C386.028 348.944 384.608 339.658 383.292 338.577Z"/><path fill="#FDCF15" transform="scale(2 2)" d="M366.961 341.924C372.175 340.709 377.995 339.643 383.292 338.577C384.608 339.658 386.028 348.944 386.035 351.38C381.369 352.375 377.952 353.401 373.393 354.806C367.659 352.073 368.046 347.727 366.961 341.924Z"/><path transform="scale(2 2)" d="M302.94 293.79C309.343 293.51 309.607 300.886 310.695 305.52C313.634 318.035 317.642 331.004 324.995 341.673C328.313 346.487 330.338 352.554 322.57 354.806C311.524 352.924 294.463 303.805 298.077 296.866C298.992 295.11 301.163 294.318 302.94 293.79Z"/><path fill="#FDCF15" transform="scale(2 2)" d="M179.736 139.178L182.949 141.776C168.422 160.079 177.528 168.361 193.687 178.947C213.475 192.088 236.671 206.889 248.109 228.111C251.72 234.81 250.685 238.535 250.643 245.783L250.608 356.898C250.59 361.841 249.392 366.537 253.478 369.964C253.384 376.799 253.655 383.889 253.478 390.668C248.62 393.948 250.687 400.697 250.652 406.125L250.633 445.69L180.237 445.69C179.979 444.51 177.816 442.074 177.865 439.919C177.977 434.971 178.953 429.973 179.324 425.038L183.245 379C183.898 370.91 183.871 360.437 185.885 352.767C184.418 349.679 183.936 348.047 185.885 345.011C185.394 341.912 188.931 313.344 189.415 308.696L192.213 280.259C192.926 273.092 194.662 262.778 194.195 255.782C190.091 249.357 184.899 250.413 180.237 255.249C179.735 264.082 178.395 273.83 177.612 282.714L172.957 338.725C171.64 354.749 170.716 370.829 169.668 386.874C169.126 395.177 157.825 393.766 157.756 388.11C157.694 383.068 158.202 377.832 158.541 372.781L161.036 335.456C161.437 330.16 162.702 321.56 162.44 316.573C160.558 322.454 157.724 332.857 156.536 338.951C156.129 341.431 156.87 344.036 156.812 346.535C156.459 361.521 142.741 368.109 129.406 364.667C118.883 361.95 102.14 361.885 96.8811 351.536C93.1597 344.213 97.8173 335.256 99.9847 328.121C105.155 309.776 108.435 287.989 114.251 270.548C116.41 262.728 127.018 266.663 125.639 272.807C121.86 289.646 117.802 306.808 113.356 323.464C117.779 324.648 122.301 325.531 126.79 326.442C135.43 283.641 147.153 242.351 154.628 198.595C156.126 189.826 155.768 179.305 159.216 171.185C162.928 162.443 172.151 144.642 179.736 139.178ZM119.888 350.336C120.968 346.106 121.745 341.807 122.807 337.764L110.433 335.246C104.595 349.836 109.014 347.249 119.888 350.336Z"/><path transform="scale(2 2)" d="M157.934 226.627C159.338 220.554 164.908 218.632 169.265 223.76C171.286 226.139 178.883 251.291 180.237 255.249C179.735 264.082 178.395 273.83 177.612 282.714L172.957 338.725C171.64 354.749 170.716 370.829 169.668 386.874C169.126 395.177 157.825 393.766 157.756 388.11C157.694 383.068 158.202 377.832 158.541 372.781L161.036 335.456C161.437 330.16 162.702 321.56 162.44 316.573C160.558 322.454 157.724 332.857 156.536 338.951C156.129 341.431 156.87 344.036 156.812 346.535C156.459 361.521 142.741 368.109 129.406 364.667C118.883 361.95 102.14 361.885 96.8811 351.536C93.1597 344.213 97.8173 335.256 99.9847 328.121C105.155 309.776 108.435 287.989 114.251 270.548C116.41 262.728 127.018 266.663 125.639 272.807C121.86 289.646 117.802 306.808 113.356 323.464C117.779 324.648 122.301 325.531 126.79 326.442L146.31 330.533C147.625 326.452 148.91 321.009 150.079 316.779L160.416 278.603C162.588 270.541 164.735 261.905 167.41 254.036C164.411 246.308 159.757 234.571 157.934 226.627ZM119.888 350.336C120.968 346.106 121.745 341.807 122.807 337.764L110.433 335.246C104.595 349.836 109.014 347.249 119.888 350.336Z"/><path fill="#FDCF15" transform="scale(2 2)" d="M122.807 337.764C125.774 338.417 142.772 341.549 143.857 342.751C145.255 346.296 143.606 352.459 139.822 353.271C134.579 354.397 125.241 351.523 119.888 350.336C120.968 346.106 121.745 341.807 122.807 337.764Z"/><path transform="scale(2 2)" d="M185.885 345.011C192.343 337.157 197.284 318.194 200.574 308.398C201.633 305.248 201.479 300.782 203.205 297.709C205.608 292.927 214.544 295.412 213.947 300.558C213.145 307.468 199.54 367.633 185.885 352.767C184.418 349.679 183.936 348.047 185.885 345.011Z"/><path transform="scale(2 2)" d="M125.239 240.279C127.577 240.181 128.712 241.166 130.342 242.738C131.799 246.804 130.666 252.807 126.79 255.249C116.912 255.486 116.713 242.497 125.239 240.279Z"/><path transform="scale(2 2)" d="M160.474 404.258C168.626 404.002 171.014 414.005 162.44 417.503C161.694 417.624 160.545 417.534 159.749 417.503C154.224 414.142 153.974 406.561 160.474 404.258Z"/></svg>