<?xml version="1.0" encoding="utf-8" ?><svg xmlns="http://www.w3.org/2000/svg" xmlns:xlink="http://www.w3.org/1999/xlink" width="1024" height="1024" viewBox="0 0 1024 1024"><path transform="scale(2 2)" d="M386.783 192.115C386.216 186.768 386.165 172.878 388.02 168.305C395.69 149.398 422.564 154.257 425.67 173.109C425.935 179.975 425.784 187.608 425.779 194.571L425.774 311.982C425.75 316.483 422.003 318.58 417.87 317.628L417.554 317.558C417.535 319.596 417.165 337.484 417.554 338.184C429.004 334.771 425.789 351.088 425.782 357.6L425.779 395.749C434.135 400.931 437.612 408.876 432.209 417.943C426.594 427.365 414.887 424.775 405.845 425.067C394.641 425.467 383.145 426.141 379.86 412.686C378.363 406.216 382.007 399.82 387.605 396.527C388.075 393.189 388.07 379.813 387.605 376.37C384.075 376.099 379.451 376.354 375.764 376.363L256.989 376.387C250.802 376.4 242.147 378.418 240.545 370.354C240.272 370.166 227.808 370.366 224.994 370.026L224.632 370.354C222.881 379.204 210.41 376.376 202.698 376.364L150.321 376.363C146.001 376.364 128.327 376.051 125.187 376.916C124.417 378.27 124.478 394.125 124.668 396.527C138.46 407.2 130.923 427.064 110.417 425.799C99.0154 425.096 84.5914 429.29 78.7885 416.145C75.5244 408.662 78.6368 398.937 86.2445 395.749L86.2296 228.479C86.5442 224.042 88.2284 221.169 93.3396 221.585C93.5448 220.891 93.3912 203.327 93.3396 201.445C82.6683 204.016 86.4537 186.229 86.19 179.917C86.0946 177.633 85.7504 175.054 86.0451 172.844C88.1382 157.149 108.173 150.706 119.281 161.78C128.391 170.848 124.117 176.466 125.527 186.835C125.672 187.901 125.385 189.791 125.223 190.91C132.465 187.545 161.159 178.687 156.389 195.29C162.162 195.307 168.066 195.384 173.829 195.29C168.737 183.273 187.586 185.873 193.885 185.873L369.047 185.954C377.327 186.039 379.917 188.831 386.783 192.115Z"/><path fill="#BCDEF6" transform="scale(2 2)" d="M100.315 170.16C105.288 166.566 113.125 168.529 113.272 175.524C113.375 180.396 113.319 185.263 113.311 190.135L113.297 321.224C113.267 342.26 112.779 349.244 137.788 349.263L364.401 349.259C376.484 349.264 396.721 352.691 399.168 336.205C399.611 333.22 399.114 328.989 399.094 325.841L399.076 183.747C399.059 179.103 397.644 173.226 401.698 169.918C405.008 167.216 409.748 168.33 412.301 171.508C414.916 174.762 413.798 185.744 413.799 189.793L413.769 303.093C413.735 309.42 412.145 313.926 417.554 317.558C417.535 319.596 417.165 337.484 417.554 338.184C429.004 334.771 425.789 351.088 425.782 357.6L425.779 395.749C434.135 400.931 437.612 408.876 432.209 417.943C426.594 427.365 414.887 424.775 405.845 425.067C394.641 425.467 383.145 426.141 379.86 412.686C378.363 406.216 382.007 399.82 387.605 396.527C388.075 393.189 388.07 379.813 387.605 376.37C384.075 376.099 379.451 376.354 375.764 376.363L256.989 376.387C250.802 376.4 242.147 378.418 240.545 370.354C240.272 370.166 227.808 370.366 224.994 370.026L224.632 370.354C222.881 379.204 210.41 376.376 202.698 376.364L150.321 376.363C146.001 376.364 128.327 376.051 125.187 376.916C124.417 378.27 124.478 394.125 124.668 396.527C138.46 407.2 130.923 427.064 110.417 425.799C99.0154 425.096 84.5914 429.29 78.7885 416.145C75.5244 408.662 78.6368 398.937 86.2445 395.749L86.2296 228.479C86.5442 224.042 88.2284 221.169 93.3396 221.585C93.5448 220.891 93.3912 203.327 93.3396 201.445C103.497 196.457 93.2651 177.177 100.315 170.16Z"/><path transform="scale(2 2)" d="M86.2445 395.749L86.2296 228.479C86.5442 224.042 88.2284 221.169 93.3396 221.585C95.0101 222.397 96.7747 223.286 97.4635 225.151C98.5292 228.037 97.9372 268.847 97.9366 274.954L97.939 393.755L106.686 393.755C109.095 393.393 110.91 393.516 113.301 393.755C113.496 371.209 108.943 364.176 136.851 364.257L197.03 364.265C205.132 364.251 223.079 360.861 224.632 370.354C222.881 379.204 210.41 376.376 202.698 376.364L150.321 376.363C146.001 376.364 128.327 376.051 125.187 376.916C124.417 378.27 124.478 394.125 124.668 396.527C138.46 407.2 130.923 427.064 110.417 425.799C99.0154 425.096 84.5914 429.29 78.7885 416.145C75.5244 408.662 78.6368 398.937 86.2445 395.749Z"/><path fill="#0C74B5" transform="scale(2 2)" d="M93.3396 405.497C97.8661 404.856 109.871 405.397 115.212 405.362C119.876 405.332 122.162 412.448 116.136 413.546C114.971 413.81 92.3468 413.75 91.6785 413.51C87.9277 412.16 89.4166 406.999 93.3396 405.497Z"/><path transform="scale(2 2)" d="M417.554 338.184C429.004 334.771 425.789 351.088 425.782 357.6L425.779 395.749C434.135 400.931 437.612 408.876 432.209 417.943C426.594 427.365 414.887 424.775 405.845 425.067C394.641 425.467 383.145 426.141 379.86 412.686C378.363 406.216 382.007 399.82 387.605 396.527C388.075 393.189 388.07 379.813 387.605 376.37C384.075 376.099 379.451 376.354 375.764 376.363L256.989 376.387C250.802 376.4 242.147 378.418 240.545 370.354C241.02 366.122 243.476 364.29 247.653 364.273L373.272 364.252C380.846 364.251 397.864 361.785 399.289 372.596C400.184 379.379 399.775 386.859 399.753 393.755L413.796 393.755L413.785 358.745C413.785 352.228 411.749 341.762 417.554 338.184Z"/><path fill="#054B75" transform="scale(2 2)" d="M394.283 405.497L410.666 405.559C413.057 405.553 416.874 405.248 419.094 405.497C421.321 406.3 421.985 407.555 422.9 409.647C420.756 415.133 417.836 413.433 412.751 413.546C410.057 413.446 381.132 415.901 394.283 405.497Z"/><path fill="#09B3F8" transform="scale(2 2)" d="M419.094 405.497C421.321 406.3 421.985 407.555 422.9 409.647C420.756 415.133 417.836 413.433 412.751 413.546L412.751 405.497C415.059 405.64 416.806 405.678 419.094 405.497Z"/><path fill="#A3D4F4" transform="scale(2 2)" d="M93.3396 201.445C103.497 196.457 93.2651 177.177 100.315 170.16C101.3 171.834 104.954 174.948 106.686 177.304L106.683 372.022C106.682 379.133 106.543 386.682 106.686 393.755L97.939 393.755L97.9366 274.954C97.9372 268.847 98.5292 228.037 97.4635 225.151C96.7747 223.286 95.0101 222.397 93.3396 221.585C93.5448 220.891 93.3912 203.327 93.3396 201.445Z"/><path fill="#FEC302" transform="scale(2 2)" d="M153.11 198.089C154.421 197.359 155.312 196.347 156.389 195.29C162.162 195.307 168.066 195.384 173.829 195.29C176.477 197.882 177.163 198.202 181.025 198.186L351.2 198.085C363.031 198.075 383.736 194.89 385.818 211.532C383.338 211.191 380.114 208.919 376.744 208.765C370.627 208.485 364.278 208.608 358.161 208.608L167.751 208.618C163.726 208.618 151.861 208.892 148.714 208.034C145.079 204.323 151.057 200.742 153.11 198.089Z"/><path fill="#DD9103" transform="scale(2 2)" d="M125.223 215.017C127.763 197.863 138.144 198.085 153.11 198.089C151.057 200.742 145.079 204.323 148.714 208.034C151.861 208.892 163.726 208.618 167.751 208.618L358.161 208.608C364.278 208.608 370.627 208.485 376.744 208.765C380.114 208.919 383.338 211.191 385.818 211.532C385.865 212.986 385.828 214.547 385.818 216.012C377.433 214.496 363.416 215.02 354.365 215.021L125.223 215.017Z"/><path fill="#FEC302" transform="scale(2 2)" d="M281.297 264.497L308.677 264.497L308.677 337.216L281.297 337.216L281.297 264.497Z"/><path fill="#FEC302" transform="scale(2 2)" d="M203.259 264.497L230.552 264.497L230.552 337.216L203.259 337.216L203.259 264.497Z"/><path fill="#FEC302" transform="scale(2 2)" d="M320.554 264.497L347.825 264.497L347.825 337.216L320.554 337.216L320.554 264.497Z"/><path fill="#FEC302" transform="scale(2 2)" d="M164.256 264.497L191.481 264.497L191.481 337.216L164.256 337.216L164.256 264.497Z"/><path fill="#FEC302" transform="scale(2 2)" d="M242.474 264.497L269.448 264.497L269.448 337.216L242.474 337.216L242.474 264.497Z"/><path fill="#FEC302" transform="scale(2 2)" d="M359.746 264.497C373.562 263.326 388.858 279.443 387.575 292.754C386.88 299.972 388.894 332.174 386.783 335.986C384.605 337.875 379.014 337.253 376.037 337.248L359.746 337.216L359.746 264.497Z"/><path fill="#FEC302" transform="scale(2 2)" d="M149.166 264.497L152.261 264.497L152.261 337.216L128.673 337.216C123.731 336.18 125.123 332.084 125.181 327.884L125.209 298.792C125.175 281.766 128.737 267.718 149.166 264.497Z"/><path fill="white" transform="scale(2 2)" d="M368.645 225.242L371.104 225.233C386.97 225.205 386.802 231.887 386.797 245.749L386.783 264.497C385.046 262.17 384.366 261.589 382.11 259.827C374.662 254.314 368.59 253.152 359.746 252.009C359.286 242.467 357.149 227.488 368.645 225.242Z"/><path fill="white" transform="scale(2 2)" d="M135.004 225.242C156.742 224.332 152.234 234.133 152.261 252.499C145.585 252.722 142.746 253.38 136.458 255.868C131.963 257.792 129.041 260.26 125.223 263.222L125.196 247.597C125.19 238.541 123.962 227.951 135.004 225.242Z"/><path fill="white" transform="scale(2 2)" d="M289.127 225.242C313.329 224.682 308.703 232.568 308.677 252.499L300.818 252.499L281.297 252.499C281.348 242.685 278.159 228.894 289.127 225.242Z"/><path fill="white" transform="scale(2 2)" d="M210.911 225.242C235.244 224.658 230.573 232.435 230.552 252.499L223.125 252.499L203.259 252.499C203.29 242.781 199.823 228.822 210.911 225.242Z"/><path fill="white" transform="scale(2 2)" d="M328.408 225.242C352.521 225.04 347.863 232.548 347.825 252.499C345.512 252.541 343.075 252.5 340.752 252.499L320.554 252.499C320.577 243.394 317.304 228.138 328.408 225.242Z"/><path fill="white" transform="scale(2 2)" d="M172.435 225.242C195.917 225.128 191.518 233.11 191.481 252.499L183.625 252.499L164.256 252.499C164.319 243.32 161.271 227.547 172.435 225.242Z"/><path fill="white" transform="scale(2 2)" d="M250.71 225.242C274.051 224.912 269.513 232.881 269.448 252.499L261.375 252.499L242.474 252.499C243.28 243.218 238.67 227.827 250.71 225.242Z"/><path transform="scale(2 2)" d="M363.287 83.3108C368.071 83.1446 388.264 82.2217 391.404 85.432C402.16 96.4305 383.732 107.011 375.844 116.249C377.747 116.31 383.697 116.446 385.279 116.21C397.178 114.438 399.653 128.226 387.605 128.891C379.953 128.855 370.404 129.313 362.787 128.569C358.016 127.838 355.212 119.951 358.181 116.642C364.307 109.814 371.816 102.239 378.709 96.2388C373.371 95.7223 359.92 98.4146 357.803 91.9252C356.549 88.0808 359.236 84.361 363.287 83.3108Z"/><path transform="scale(2 2)" d="M307.086 112.009C313.517 111.691 330.522 111.112 334.437 114.066C345.686 121.21 324.741 135.898 319.909 141.49C327.186 141.554 336.152 138.989 338.428 147.373C337.516 150.765 336.673 152.612 333.06 153.526C325.75 153.7 318.415 153.347 310.981 153.627C304.556 154.686 299.007 145.783 303.141 140.875C307.509 135.69 314.742 128.696 319.909 124.388C315.888 124.312 308.084 125.162 304.909 123.605C299.626 121.015 301.179 113.514 307.086 112.009Z"/></svg>