<?xml version="1.0" encoding="utf-8" ?><svg xmlns="http://www.w3.org/2000/svg" xmlns:xlink="http://www.w3.org/1999/xlink" width="1024" height="1024" viewBox="0 0 1024 1024"><path transform="scale(2 2)" d="M92.4962 289.794C104.514 289.44 106.29 278.975 106.229 269.445L106.21 134.237C106.107 106.629 107.886 104.003 133.55 104.001L251.525 104.007C251.419 130.559 255.859 146.309 286.323 146.338L298.063 146.327L315.047 146.327L315.029 171.307C315.026 178.492 313.13 183.144 318.852 187.484L318.852 208.052C325.584 209.07 324.438 214.868 324.492 220.218C336.001 205.559 347.673 186.307 360.322 172.178C364.205 167.841 373.562 171.095 376.497 177.048C387.853 200.083 388.369 227.984 374.823 250.265C364.794 266.769 350.341 283.26 339.525 299.675C356.027 331.006 385.357 325.216 390.728 334.087C390.816 335.443 390.957 336.516 390.728 337.86L391.021 337.982C398.519 341.06 404.132 341.702 410.514 348.305C413.863 345.279 418.078 345.461 420.911 349.196C426.706 356.833 437.39 384.607 426.516 390.708C424.631 390.876 424.034 390.965 422.147 390.708L421.988 391.023C419.431 396.168 418.059 402.386 413.807 406.553C416.36 408.129 416.678 409.322 417.414 412.066C416.931 413.521 416.577 414.507 415.499 415.629C389.504 442.703 343.337 428.054 333.329 392.647C330.77 383.593 332.155 375.991 327.898 366.96C322.684 355.898 314.065 345.79 304.876 337.86C289.443 352.355 279.87 364.737 279.053 386.218C278.632 397.286 269.613 410.783 261.101 417.759C239.784 435.23 208.705 431.341 191.628 409.91C169.341 382.669 182.138 340.885 216.183 331.626C234.945 326.523 237.436 330.816 255.229 316.75L122.968 316.76C117.418 316.763 111.578 316.917 106.014 316.634C92.8644 315.965 81.2158 303.235 80.8196 290.23C80.5706 282.058 80.7356 273.637 80.7455 265.444L80.7581 253.263C80.749 247.219 79.5535 243.605 86.4851 241.702C95.2452 243.818 92.5205 253.24 92.5159 261.209L92.4962 289.794ZM384.631 404.422C398.357 402.809 408.172 390.369 406.547 376.644C404.922 362.92 392.474 353.115 378.751 354.752C365.044 356.386 355.254 368.817 356.877 382.525C358.5 396.233 370.922 406.034 384.631 404.422ZM233.378 391.744C240.212 390.246 244.559 383.516 243.112 376.67C241.665 369.825 234.967 365.428 228.111 366.825C221.183 368.236 216.731 375.02 218.193 381.937C219.655 388.854 226.472 393.257 233.378 391.744Z"/><path fill="#FEC302" transform="scale(2 2)" d="M92.4962 289.794C104.514 289.44 106.29 278.975 106.229 269.445L106.21 134.237C106.107 106.629 107.886 104.003 133.55 104.001L251.525 104.007C251.419 130.559 255.859 146.309 286.323 146.338L298.063 146.327L315.047 146.327L315.029 171.307C315.026 178.492 313.13 183.144 318.852 187.484L318.852 208.052C309.356 209.728 313.162 225.907 313.069 234.276C307.114 244.289 298.129 254.938 291.46 264.969C288.806 263.139 286.215 261.253 283.605 259.363C263.558 245.276 243.008 232.561 222.154 219.652C203.219 207.932 189.157 230.27 200.674 241.814C207.632 249.104 215.031 256.03 222.151 263.196L243.511 284.426C247.057 287.953 253.159 294.345 256.742 297.243C252.422 299.622 242.863 297.966 237.982 297.705L109.348 292.676C104.666 292.498 96.7457 291.861 92.4962 292.776C92.431 291.846 92.4801 290.739 92.4962 289.794Z"/><path fill="#FCAD00" transform="scale(2 2)" d="M298.063 146.327L315.047 146.327L315.029 171.307C315.026 178.492 313.13 183.144 318.852 187.484L318.852 208.052C309.356 209.728 313.162 225.907 313.069 234.276C307.114 244.289 298.129 254.938 291.46 264.969C288.806 263.139 286.215 261.253 283.605 259.363C283.652 259.312 283.699 259.261 283.747 259.21L283.978 258.95C287.412 255.149 301.731 231.782 302.023 229.587C302.591 225.324 302.261 212.25 302.262 207.392L302.269 146.327C301.272 146.408 298.788 146.747 298.063 146.327Z"/><path transform="scale(2 2)" d="M121.834 145.299C125.983 145.248 153.539 159.451 138.11 165.204C134.007 166.09 106.383 150.647 121.834 145.299Z"/><path transform="scale(2 2)" d="M168.293 178.303C173.436 178.024 198.242 190.878 183.718 197.455C180.125 197.929 153.074 184.64 168.293 178.303Z"/><path fill="#BCDEF6" transform="scale(2 2)" d="M313.069 329.767C324.662 324.618 324.68 319.15 331.977 309.687C343.214 326.848 359.273 336.432 379.201 340.79C385.532 342.175 386.952 343.661 390.728 337.86L391.021 337.982C398.519 341.06 404.132 341.702 410.514 348.305C413.863 345.279 418.078 345.461 420.911 349.196C426.706 356.833 437.39 384.607 426.516 390.708C424.631 390.876 424.034 390.965 422.147 390.708L421.988 391.023C419.431 396.168 418.059 402.386 413.807 406.553C410.543 405.7 409.352 406.25 406.705 408.294C384.668 427.896 352.53 415.712 344.417 388.723C343.38 385.274 343.505 381.489 343.024 377.955C340.441 358.98 327.412 341.907 313.069 329.767ZM384.631 404.422C398.357 402.809 408.172 390.369 406.547 376.644C404.922 362.92 392.474 353.115 378.751 354.752C365.044 356.386 355.254 368.817 356.877 382.525C358.5 396.233 370.922 406.034 384.631 404.422Z"/><path transform="scale(2 2)" d="M410.514 348.305C413.863 345.279 418.078 345.461 420.911 349.196C426.706 356.833 437.39 384.607 426.516 390.708C424.631 390.876 424.034 390.965 422.147 390.708C420.417 389.24 419.397 388.443 418.823 386.275C418.079 375.779 420.387 372.849 414.773 361.528C412.506 356.957 407.541 353.734 410.514 348.305Z"/><path fill="#2B9FDE" transform="scale(2 2)" d="M418.823 386.275C419.397 388.443 420.417 389.24 422.147 390.708L421.988 391.023C419.431 396.168 418.059 402.386 413.807 406.553C410.543 405.7 409.352 406.25 406.705 408.294L406.099 407.32C406.469 406.02 410.566 402.969 411.714 401.244C414.801 396.605 416.809 391.431 418.823 386.275Z"/><path transform="scale(2 2)" d="M378.751 354.752C392.474 353.115 404.922 362.92 406.547 376.644C408.172 390.369 398.357 402.809 384.631 404.422C370.922 406.034 358.5 396.233 356.877 382.525C355.254 368.817 365.044 356.386 378.751 354.752ZM383.635 392.82C388.369 392.114 392.359 388.919 394.082 384.454C395.805 379.988 394.994 374.941 391.96 371.239C388.926 367.537 384.137 365.752 379.42 366.564C372.24 367.8 367.392 374.583 368.547 381.776C369.702 388.969 376.43 393.893 383.635 392.82Z"/><path fill="#FCAD00" transform="scale(2 2)" d="M92.4962 292.776C96.7457 291.861 104.666 292.498 109.348 292.676L237.982 297.705C242.863 297.966 252.422 299.622 256.742 297.243C259.138 300.431 261.139 301.448 263.105 305.2L130.61 305.204C114.203 305.211 100.611 309.463 92.4962 292.776Z"/><path fill="#BCDEF6" transform="scale(2 2)" d="M232.513 416.882C224.028 417.835 215.365 414.847 208.56 409.927C181.725 390.527 190.077 348.981 221.984 342.199C225.047 341.548 228.237 341.471 231.322 340.942C248.312 337.853 263.446 327.716 273.483 313.979C276.88 320.424 279.27 323.737 285.517 327.482C289.205 329.362 291.734 330.314 295.836 330.906C281.124 343.36 270.649 357.666 267.849 377.299C267.296 381.176 267.436 385.198 266.37 388.998C261.91 404.477 248.58 415.806 232.513 416.882ZM233.378 391.744C240.212 390.246 244.559 383.516 243.112 376.67C241.665 369.825 234.967 365.428 228.111 366.825C221.183 368.236 216.731 375.02 218.193 381.937C219.655 388.854 226.472 393.257 233.378 391.744Z"/><path transform="scale(2 2)" d="M245.927 398.378C237.497 405.079 225.683 405.5 216.796 399.417C207.91 393.333 204.029 382.166 207.226 371.883C210.424 361.599 219.953 354.602 230.723 354.63C241.492 354.659 250.984 361.706 254.128 372.006C257.07 381.646 253.818 392.105 245.927 398.378ZM233.378 391.744C240.212 390.246 244.559 383.516 243.112 376.67C241.665 369.825 234.967 365.428 228.111 366.825C221.183 368.236 216.731 375.02 218.193 381.937C219.655 388.854 226.472 393.257 233.378 391.744Z"/><path fill="#2B9FDE" transform="scale(2 2)" d="M285.517 327.482C289.205 329.362 291.734 330.314 295.836 330.906C281.124 343.36 270.649 357.666 267.849 377.299C267.296 381.176 267.436 385.198 266.37 388.998C261.91 404.477 248.58 415.806 232.513 416.882C235.164 413.624 247.054 402.547 245.927 398.378C253.818 392.105 257.07 381.646 254.128 372.006C255.192 370.62 257.543 365.723 258.5 363.937C264.046 353.583 270.961 344.482 278.682 335.662C280.456 333.635 284.213 329.697 285.517 327.482Z"/><path fill="white" transform="scale(2 2)" d="M366.39 182.736C379.637 210.281 374.106 231.729 357.367 254.675L324.608 300.075C317.956 309.318 312.773 321.568 299.789 320.401C291.325 319.477 284.195 313.503 282.903 304.949C281.622 296.468 287.36 290.432 291.964 284.1L301.858 270.341C305.734 264.893 309.531 259.333 313.48 253.944L359.876 191.703C361.91 188.656 364.17 185.653 366.39 182.736Z"/><path fill="#BCDEF6" transform="scale(2 2)" d="M366.39 182.736C379.637 210.281 374.106 231.729 357.367 254.675L324.608 300.075C317.956 309.318 312.773 321.568 299.789 320.401C302.029 312.004 342.235 258.276 348.576 249.432C360.509 232.789 365.04 220.982 362.314 199.709C362.039 197.641 361.566 193.008 359.876 191.703C361.91 188.656 364.17 185.653 366.39 182.736Z"/><path transform="scale(2 2)" d="M301.774 293.423C305.001 292.533 308.336 294.443 309.202 297.677C310.068 300.911 308.134 304.232 304.894 305.074C301.687 305.909 298.407 303.999 297.55 300.797C296.692 297.596 298.579 294.303 301.774 293.423Z"/><path fill="white" transform="scale(2 2)" d="M211.241 227.524C213.984 227.826 218.544 231.203 220.993 232.751L231.793 239.47C250.212 250.868 267.34 261.349 284.736 274.409C281.204 279.073 277.774 283.877 274.664 288.834C273.08 291.739 272.619 293.352 271.713 296.577C266.79 291.199 260.873 285.404 255.688 280.194L220.995 245.786C216.699 241.494 202.666 231.671 211.241 227.524Z"/><path transform="scale(2 2)" d="M88.1828 132.651C77.2896 133.805 80.6713 115.405 80.7725 107.966C80.9892 92.8738 93.8193 80.6034 108.574 79.3261C114.309 79.1126 120.501 79.247 126.289 79.2486L239.385 79.2457C262.902 79.2418 265.926 75.1232 281.883 96.0208C282.712 97.1068 282.015 99.5104 281.577 100.637C284.339 104.237 292.061 112.404 295.836 114.966C297.836 113.357 300.753 113.187 302.635 114.944C307.382 119.373 324.189 134.874 326.753 138.997L326.771 168.476C326.773 175.007 329.458 189.773 318.852 187.484C313.13 183.144 315.026 178.492 315.029 171.307L315.047 146.327L298.063 146.327L286.323 146.338C255.859 146.309 251.419 130.559 251.525 104.007C251.549 99.594 251.591 95.1796 251.525 90.7674L124.515 90.7572C115.677 90.7532 104.612 89.4143 97.728 96.4709C87.0578 107.409 96.0591 121.543 91.3655 130.553C90.0272 131.623 89.6657 131.848 88.1828 132.651Z"/><path fill="#FEC302" transform="scale(2 2)" d="M263.105 93.083C268.771 98.3179 274.22 108.059 281.577 100.637C284.339 104.237 292.061 112.404 295.836 114.966C289.067 121.629 301.504 129.483 306.521 134.744L287.742 134.771C266.406 134.767 263.094 128.308 263.096 108.172L263.105 93.083Z"/><path transform="scale(2 2)" d="M84.8371 197.455C94.38 196.491 92.3965 204.776 92.4806 211.268C92.5462 216.336 93.714 220.904 88.1828 223.104C81.8136 224.588 80.3104 219.315 80.6937 214.11C81.1647 207.711 78.256 200.251 84.8371 197.455Z"/><path transform="scale(2 2)" d="M91.3655 153.061C93.5394 157.714 92.646 168.455 92.1148 173.419C90.5595 179.098 81.2019 178.179 80.7218 172.013C80.2968 164.906 78.5673 150.001 88.1828 151.358C89.3334 151.898 90.339 152.307 91.3655 153.061Z"/></svg>