<?xml version="1.0" encoding="utf-8" ?><svg xmlns="http://www.w3.org/2000/svg" xmlns:xlink="http://www.w3.org/1999/xlink" width="1024" height="1024" viewBox="0 0 1024 1024"><path transform="scale(2 2)" d="M304.355 87.7601C299.808 78.5889 311.762 72.9533 317.903 66.1684C329.466 53.3953 348.762 55.3384 359.073 68.6115C363.898 74.822 363.58 80.7724 365.718 87.799L378.837 130.443C391.701 134.571 430.334 142.949 440.113 148.574C450.843 154.746 455.359 167.184 451.57 178.878C448.73 187.643 441.9 191.819 435.354 197.662C430.235 202.206 426.979 206.834 420.536 200.795C415.547 204.626 412.913 207.532 408.626 211.863C416.131 217.71 409.539 222.701 404.651 226.413C376.42 247.858 336.821 251.616 305.115 235.713C287.308 253.844 267.897 271.385 250.092 289.545C253.419 302.315 248.216 305.868 241.229 315.57L215.562 350.587C202.789 368.172 187.336 386.693 162.284 379.138L162.176 379.23C150.2 389.25 139.614 409.321 120.529 400.126C116.164 403.665 111.656 409.034 107.545 413.043C100.16 420.243 72.7926 450.686 65.9202 452.349C61.0954 451.121 56.6917 446.009 59.9815 442.287C75.7766 424.421 93.5867 408.277 109.974 390.944C110.024 390.877 110.074 390.81 110.125 390.743C97.1167 370.224 114.619 360.412 127.458 346.491C119.563 319.299 133.577 304.28 152.566 287.55L175.804 266.882C184.927 258.793 194.031 246.334 207.054 250.38L241.475 215.863C249.273 207.951 259.073 197.434 267.348 190.159C255.69 162.059 263.067 129.724 280.363 105.619C284.484 99.8751 285.47 96.8229 293.369 99.9462C295.015 97.4299 301.858 90.5091 304.355 87.7601Z"/><defs><linearGradient id="gradient_0" gradientUnits="userSpaceOnUse" x1="308.25128" y1="113.47647" x2="427.92319" y2="191.02821"><stop offset="0" stop-color="#84DDFD"/><stop offset="1" stop-color="#CDF3FD"/></linearGradient></defs><path fill="url(#gradient_0)" transform="scale(2 2)" d="M304.355 87.7601C299.808 78.5889 311.762 72.9533 317.903 66.1684C329.466 53.3953 348.762 55.3384 359.073 68.6115C363.898 74.822 363.58 80.7724 365.718 87.799L378.837 130.443C391.701 134.571 430.334 142.949 440.113 148.574C450.843 154.746 455.359 167.184 451.57 178.878C448.73 187.643 441.9 191.819 435.354 197.662C430.235 202.206 426.979 206.834 420.536 200.795C419.442 199.367 419.132 198.379 418.649 196.724C420.072 191.335 430.48 184.09 434.872 180.317C431.85 178.747 434.209 172.977 431.336 170.378C428.121 167.468 367.81 151.229 365.813 151.379C359.449 135.915 342.643 127.423 326.513 134.105C316.594 138.214 299.507 158.018 290.901 166.458C286.526 171.348 282.194 174.821 277.893 180.317C271.994 160.718 277.489 136.562 287.958 119.306C292.012 112.625 299.457 107.531 293.369 99.9462C295.015 97.4299 301.858 90.5091 304.355 87.7601Z"/><path transform="scale(2 2)" d="M304.355 87.7601C299.808 78.5889 311.762 72.9533 317.903 66.1684C329.466 53.3953 348.762 55.3384 359.073 68.6115C363.898 74.822 363.58 80.7724 365.718 87.799L378.837 130.443C391.701 134.571 430.334 142.949 440.113 148.574C450.843 154.746 455.359 167.184 451.57 178.878C448.73 187.643 441.9 191.819 435.354 197.662C430.235 202.206 426.979 206.834 420.536 200.795C419.442 199.367 419.132 198.379 418.649 196.724C420.072 191.335 430.48 184.09 434.872 180.317C441.291 174.728 440.816 165.643 433.631 160.756C430.796 158.828 423.978 157.637 420.365 156.61L372.291 142.889C364.948 140.775 363.992 129.366 361.871 122.34L352.478 91.0076C350.621 84.6784 350.143 78.3325 344.678 74.1404C326.892 60.8525 316.909 100.405 304.355 87.7601Z"/><path fill="#199EF8" transform="scale(2 2)" d="M304.355 87.7601C316.909 100.405 326.892 60.8525 344.678 74.1404C323.982 94.6134 301.516 113.197 294.426 142.788C293.21 147.864 290.072 161.646 290.901 166.458C286.526 171.348 282.194 174.821 277.893 180.317C271.994 160.718 277.489 136.562 287.958 119.306C292.012 112.625 299.457 107.531 293.369 99.9462C295.015 97.4299 301.858 90.5091 304.355 87.7601Z"/><path fill="#95DEF9" transform="scale(2 2)" d="M365.813 151.379C367.81 151.229 428.121 167.468 431.336 170.378C434.209 172.977 431.85 178.747 434.872 180.317C430.48 184.09 420.072 191.335 418.649 196.724C419.132 198.379 419.442 199.367 420.536 200.795C415.547 204.626 412.913 207.532 408.626 211.863C407.155 211.278 406.342 211.058 404.822 210.663C400.701 211.723 394.665 217.312 390.394 219.814C367.084 233.465 340.817 235.826 315.453 225.546C326.581 213.396 339.418 201.913 350.965 190.016C362.683 177.944 371.401 169.959 365.813 151.379Z"/><path fill="#FEC302" transform="scale(2 2)" d="M174.624 366.541C152.365 370.76 132.596 344.307 141.236 321.002C144.962 310.951 150.883 307.064 158.593 300.3L192.357 270.54C194.803 268.373 199.715 263.61 202.368 262.376C207.947 263.403 210.386 267.086 214.332 271.235L229.944 286.778C240.014 296.788 239.784 295.194 230.514 307.707L204.461 342.875C196.669 353.263 189.963 366.523 174.624 366.541Z"/><path fill="#FEA401" transform="scale(2 2)" d="M174.624 366.541C152.365 370.76 132.596 344.307 141.236 321.002C144.962 310.951 150.883 307.064 158.593 300.3L192.357 270.54C194.803 268.373 199.715 263.61 202.368 262.376C207.947 263.403 210.386 267.086 214.332 271.235L182.27 298.629C175.655 304.304 167.925 310.002 162.589 316.944C153.829 328.341 152.82 346.691 162.504 357.886C165.151 360.946 169.416 363.989 172.687 366.541L172.595 366.516L174.624 366.541Z"/><path fill="#95DEF9" transform="scale(2 2)" d="M245.569 231.768C249.91 225.516 258.759 218.07 264.369 212.499L318.769 158.263C327.503 149.538 336.946 138.954 349.216 150.316C360.494 163.842 349.078 172.613 339.882 181.633L277.811 243.227C274.496 246.476 270.781 250.273 267.348 253.324C264.657 250.652 259.858 246.322 257.966 243.337C254.416 241.03 249.573 235.039 245.569 231.768Z"/><path fill="#BCDEF6" transform="scale(2 2)" d="M349.216 150.316C360.494 163.842 349.078 172.613 339.882 181.633L277.811 243.227C274.496 246.476 270.781 250.273 267.348 253.324C264.657 250.652 259.858 246.322 257.966 243.337L258.744 242.32C261.244 239.019 269.059 231.308 272.136 228.261L324.455 176.177C332.976 167.693 341.006 158.463 349.216 150.316Z"/><path fill="#236581" transform="scale(2 2)" d="M236.632 240.75C240.437 244.734 244.433 248.641 248.352 252.52C251.656 255.752 254.779 259.035 257.966 262.376C252.373 267.741 246.441 273.321 241.048 278.852C237.993 275.773 234.565 272.063 231.434 269.188C228.69 266.934 222.704 260.285 219.656 257.347C225.663 251.999 230.993 246.483 236.632 240.75Z"/><path fill="#199EF8" transform="scale(2 2)" d="M231.434 269.188C236.908 264.188 242.697 257.82 248.352 252.52C251.656 255.752 254.779 259.035 257.966 262.376C252.373 267.741 246.441 273.321 241.048 278.852C237.993 275.773 234.565 272.063 231.434 269.188Z"/><path fill="#FEA401" transform="scale(2 2)" d="M133.135 359.461C135.435 363.332 137.339 365.332 140.529 368.381C143.167 370.509 145.264 371.957 148.152 373.792C141.495 380.75 133.114 393.839 123.353 385.894C112.247 374.924 125.162 367.664 133.135 359.461Z"/><path fill="#FEC302" transform="scale(2 2)" d="M140.529 368.381C143.167 370.509 145.264 371.957 148.152 373.792C141.495 380.75 133.114 393.839 123.353 385.894C126.83 380.883 135.925 372.865 140.529 368.381Z"/></svg>