<?xml version="1.0" encoding="utf-8" ?><svg xmlns="http://www.w3.org/2000/svg" xmlns:xlink="http://www.w3.org/1999/xlink" width="1024" height="1024" viewBox="0 0 1024 1024"><path fill="white" transform="scale(2 2)" d="M174.709 100.393C171.851 94.8843 172.614 90.4435 178.617 87.7978C251.414 55.7126 340.62 71.8697 393.75 132.644C397.188 136.957 405.981 143.72 402.42 149.998C400.236 153.848 397.759 154.48 393.668 154.155L393.334 154.499C393.683 155.726 396.988 159.337 398.191 161.033C399.663 163.109 404.504 172.882 406.47 173.064C408.258 169.93 409.41 169.568 412.865 168.565C421.794 170.887 424.79 183.118 427.865 191.206C445.576 237.802 442.984 286.991 423.051 332.057C421.256 336.116 416.659 336.803 412.865 335.37C411.646 340.846 407.073 347.523 403.641 352.034C409.36 358.103 405.311 362.033 401.522 367.339C396.78 373.98 372.348 407.296 364.273 391.004C360.303 394.543 352.042 402.469 346.738 402.933C351.249 406.769 349.53 412.819 344.759 415.458C304.178 437.821 255.29 443.672 210.419 432.401C58.451 394.232 25.3269 196.345 147.713 106.119C152.046 102.924 157.455 104.928 159.751 109.626C163.829 107.116 170.485 101.611 174.709 100.393Z"/><path transform="scale(2 2)" d="M346.738 402.933C351.249 406.769 349.53 412.819 344.759 415.458C304.178 437.821 255.29 443.672 210.419 432.401C58.451 394.232 25.3269 196.345 147.713 106.119C152.046 102.924 157.455 104.928 159.751 109.626C160.006 118.582 153.636 119.661 147.371 125.08C48.9191 210.237 76.2116 372.978 201.629 414.175C242.336 429.879 296.608 424.081 334.687 404.148C339.532 401.612 341.591 399.901 346.738 402.933Z"/><path fill="#BCDEF6" transform="scale(2 2)" d="M174.709 100.393C180.078 105.142 186.267 100.502 191.919 98.3781C204.263 93.7385 216.975 89.9375 230.096 88.303L230.577 88.6759C230.395 90.4947 220.487 92.5582 218.507 93.196C120.409 124.801 76.8211 241.192 119.49 332.865C136.794 365.731 161.9 392.738 195.24 409.943C197.051 410.877 201.348 412.279 201.629 414.175C76.2116 372.978 48.9191 210.237 147.371 125.08C153.636 119.661 160.006 118.582 159.751 109.626C163.829 107.116 170.485 101.611 174.709 100.393Z"/><path transform="scale(2 2)" d="M174.709 100.393C171.851 94.8843 172.614 90.4435 178.617 87.7978C251.414 55.7126 340.62 71.8697 393.75 132.644C397.188 136.957 405.981 143.72 402.42 149.998C400.236 153.848 397.759 154.48 393.668 154.155C392.693 153.709 391.31 153.007 390.648 152.171C351.285 102.499 295.122 79.5024 230.096 88.303C216.975 89.9375 204.263 93.7385 191.919 98.3781C186.267 100.502 180.078 105.142 174.709 100.393Z"/><path transform="scale(2 2)" d="M412.865 168.565C421.794 170.887 424.79 183.118 427.865 191.206C445.576 237.802 442.984 286.991 423.051 332.057C421.256 336.116 416.659 336.803 412.865 335.37C406.814 331.557 409.042 326.64 411.383 321.353C429.536 280.361 428.915 231.466 411.748 190.268C409.322 184.445 404.765 178.992 406.47 173.064C408.258 169.93 409.41 169.568 412.865 168.565Z"/><path transform="scale(2 2)" d="M364.273 391.004C363.38 384.706 365.66 383.322 370.09 379.601C376.407 374.293 382.094 367.879 387.357 361.541C391.925 356.039 394.62 346.939 403.641 352.034C409.36 358.103 405.311 362.033 401.522 367.339C396.78 373.98 372.348 407.296 364.273 391.004Z"/><path fill="#FEC302" transform="scale(2 2)" d="M134.036 314.562C123.858 318.777 121.79 306.804 119.644 299.831C101.004 239.248 122.735 172.249 176.045 136.608C242.458 92.2061 330.646 109.454 375.038 176.005C380.928 184.836 399.11 210.389 386.37 218.063C387.286 221.542 388.475 230.635 389.471 232.861C398.57 232.029 399.434 238.61 399.784 245.703C400.141 252.935 400.82 258.64 391.512 259.588C391.418 264.27 390.185 272.778 389.471 277.532C398.007 280.719 394.638 289.544 392.758 296.093C365.9 389.683 251.257 426.843 173.084 370.319C167.917 366.583 163.936 364.832 166.143 357.579C164.699 356.735 159.389 350.952 157.203 349.083C149.056 351.94 138.495 340.014 142.602 332.327C141.065 328.708 135.929 317.72 134.036 314.562Z"/><path fill="#FCB40C" transform="scale(2 2)" d="M134.036 314.562C123.858 318.777 121.79 306.804 119.644 299.831C101.004 239.248 122.735 172.249 176.045 136.608C242.458 92.2061 330.646 109.454 375.038 176.005C380.928 184.836 399.11 210.389 386.37 218.063C377.296 219.985 376.54 211.029 374.029 205.123C354.309 158.739 312.353 131.396 262.759 126.522C258.931 128.874 248.718 131.194 244.27 132.94C234.221 136.885 205.866 151.382 201.629 158.216C195.195 156.235 171.233 171.789 179.182 182.259C177.365 185.092 173.905 191.337 172.959 194.387C175.333 199.667 173.285 201.778 170.664 206.377C164.217 217.692 159.636 230.477 158.739 243.537C158.361 249.044 156.978 253.69 150.286 253.484C149.913 260.267 150.826 265.523 151.76 272.054C158.259 319.576 191.714 356.633 235.902 373.135C245.656 376.778 255.032 378.116 265.215 379.85C265.98 379.98 267.923 380.925 266.937 381.798C230.783 382.441 205.062 376.456 176.19 354.453C172.633 351.742 168.599 354.252 166.143 357.579C164.699 356.735 159.389 350.952 157.203 349.083C149.056 351.94 138.495 340.014 142.602 332.327C141.065 328.708 135.929 317.72 134.036 314.562Z"/><path transform="scale(2 2)" d="M134.036 314.562C123.858 318.777 121.79 306.804 119.644 299.831C101.004 239.248 122.735 172.249 176.045 136.608C242.458 92.2061 330.646 109.454 375.038 176.005C380.928 184.836 399.11 210.389 386.37 218.063C377.296 219.985 376.54 211.029 374.029 205.123C354.309 158.739 312.353 131.396 262.759 126.522C173.539 123.69 108.608 206.811 132.879 293.365C134.847 300.381 141.544 309.792 134.036 314.562Z"/><path transform="scale(2 2)" d="M150.286 253.484C143.69 252.156 143.224 247.615 143.83 241.889C144.779 232.919 154.848 189.033 167.905 191.018C170.339 191.407 171.558 192.424 172.959 194.387C175.333 199.667 173.285 201.778 170.664 206.377C164.217 217.692 159.636 230.477 158.739 243.537C158.361 249.044 156.978 253.69 150.286 253.484Z"/><path transform="scale(2 2)" d="M142.602 332.327C146.93 328.179 151.235 328.378 155.108 333.009C160.797 339.811 163.489 341.544 157.203 349.083C149.056 351.94 138.495 340.014 142.602 332.327Z"/><path transform="scale(2 2)" d="M266.937 381.798C321.153 374.76 364.468 344.089 379.199 288.902C381.048 281.973 380.749 276.904 389.471 277.532C398.007 280.719 394.638 289.544 392.758 296.093C365.9 389.683 251.257 426.843 173.084 370.319C167.917 366.583 163.936 364.832 166.143 357.579C168.599 354.252 172.633 351.742 176.19 354.453C205.062 376.456 230.783 382.441 266.937 381.798Z"/><path transform="scale(2 2)" d="M179.182 182.259C171.233 171.789 195.195 156.235 201.629 158.216C217.234 165.931 195.295 175.545 191.632 180.168C187.91 184.296 184.017 186.048 179.182 182.259Z"/><path transform="scale(2 2)" d="M389.471 232.861C398.57 232.029 399.434 238.61 399.784 245.703C400.141 252.935 400.82 258.64 391.512 259.588C382.673 257.878 380.372 237.016 389.471 232.861Z"/><path transform="scale(2 2)" d="M253.314 159.305C265.526 157.661 262.794 173.159 262.759 181.097C298.717 185.905 304.189 239.615 284.219 230.185C280.163 227.928 281.125 221.729 280.623 218.063C277.303 193.809 246.638 186.321 233.972 208.121C223.383 226.347 238.03 247.22 259.001 247.23C301.145 250.255 313.636 314.347 263.751 328.564C263.727 335.461 265.773 345.228 259.361 349.083C246.573 353.62 248.708 335.756 248.75 328.564C232.479 324.989 220.295 313.69 217.279 296.866C216.513 292.589 215.921 285.282 218.604 281.617C220.819 278.592 225.689 278.148 228.513 280.561C232.765 283.971 231.358 289.238 231.925 293.828C233.521 306.744 246.89 316.099 259.604 313.932C287.035 309.258 288.638 270.776 262.484 262.794C259.609 262.012 256.417 262.081 253.464 261.876C205.322 258.543 204.595 186.811 248.75 181.097C248.161 178.135 248.95 175.259 248.714 172.398C248.226 166.48 246.764 162.438 253.314 159.305Z"/><path transform="scale(2 2)" d="M421.612 70.3656C425.912 69.5983 430.019 72.467 430.779 76.7689C431.538 81.0708 428.662 85.1725 424.359 85.9245C420.067 86.6745 415.978 83.8073 415.22 79.5163C414.462 75.2252 417.322 71.131 421.612 70.3656Z"/><path transform="scale(2 2)" d="M387.598 70.4554C391.825 69.5312 396.007 72.1851 396.972 76.4033C397.936 80.6215 395.321 84.8288 391.112 85.8327C386.847 86.85 382.571 84.1929 381.594 79.918C380.617 75.6431 383.314 71.3921 387.598 70.4554Z"/></svg>