<?xml version="1.0" encoding="utf-8" ?><svg xmlns="http://www.w3.org/2000/svg" xmlns:xlink="http://www.w3.org/1999/xlink" width="1024" height="1024" viewBox="0 0 1024 1024"><path fill="#BCDEF6" transform="scale(2 2)" d="M245.577 236.75C260.983 233.687 256.03 252.487 256.623 261.379C264.879 247.441 285.521 245.636 296.056 258.26C300.999 264.183 300.59 270.209 311.124 268.614C316.557 267.292 318.625 261.335 321.481 257.216C331.305 243.839 353.439 243.857 362.24 258.119C362.821 259.037 363.655 260.557 364.272 261.379C378.09 265.461 377.773 257.262 383.279 249.347C398.076 228.077 431.699 234.498 435.382 260.821C435.931 264.751 435.676 269.353 435.672 273.434L435.672 356.064C458.853 363.019 458.571 397.225 432.951 402.907C416.052 406.654 399.039 408.855 382.026 411.934C377.362 412.778 374.301 408.851 373.373 404.768C372.924 404.642 352.775 408.013 349.504 408.027C350.598 410.56 350.038 413.503 348.092 415.458C346.145 417.413 343.204 417.985 340.667 416.902C338.129 415.819 336.508 413.299 336.573 410.541C328.733 410.516 321.365 411.758 313.003 411.761C315.214 421.693 305.929 421.866 299.483 422.052C252.776 423.398 206.112 415.421 160.463 406.287C130.295 400.243 113.471 381.934 112.698 351.445C112.34 337.332 124.36 337.036 127.792 345.944L127.907 346.25C131.512 346.056 138.76 346.876 142.254 347.987C142.173 346.822 142.2 346.149 142.254 344.974C142.699 336.735 137.475 309.389 153.845 316.695C153.768 313.791 154.241 294.93 153.845 294.076L153.351 294.214C137.217 298.588 142.499 273.477 147.06 266.101C151.518 258.889 160.985 257.883 162.806 266.887C168.373 265.547 174.318 265.234 180.022 264.153L180.347 262.801C180.829 260.493 182.311 256.184 185.009 255.828C192.803 254.798 203.867 254.144 211.253 257.105C221.139 263.301 222.511 268.736 222.691 280.378C222.884 292.885 237.261 297.131 241.232 285.855C245.391 274.047 237.274 245.656 245.577 236.75Z"/><path transform="scale(2 2)" d="M245.577 236.75C260.983 233.687 256.03 252.487 256.623 261.379C264.879 247.441 285.521 245.636 296.056 258.26C300.999 264.183 300.59 270.209 311.124 268.614C316.557 267.292 318.625 261.335 321.481 257.216C331.305 243.839 353.439 243.857 362.24 258.119C362.821 259.037 363.655 260.557 364.272 261.379C378.09 265.461 377.773 257.262 383.279 249.347C398.076 228.077 431.699 234.498 435.382 260.821C435.931 264.751 435.676 269.353 435.672 273.434L435.672 356.064C458.853 363.019 458.571 397.225 432.951 402.907C416.052 406.654 399.039 408.855 382.026 411.934C377.362 412.778 374.301 408.851 373.373 404.768C372.924 404.642 352.775 408.013 349.504 408.027C350.598 410.56 350.038 413.503 348.092 415.458C346.145 417.413 343.204 417.985 340.667 416.902C338.129 415.819 336.508 413.299 336.573 410.541C328.733 410.516 321.365 411.758 313.003 411.761C315.214 421.693 305.929 421.866 299.483 422.052C252.776 423.398 206.112 415.421 160.463 406.287C130.295 400.243 113.471 381.934 112.698 351.445C112.34 337.332 124.36 337.036 127.792 345.944L127.907 346.25C131.512 346.056 138.76 346.876 142.254 347.987C142.173 346.822 142.2 346.149 142.254 344.974C142.699 336.735 137.475 309.389 153.845 316.695C157.682 319.856 157.091 323.681 157.155 328.158C158.198 349 151.855 356.279 178.301 361.76L196.975 365.454C255.901 376.668 312.217 378.631 371.107 367.091C380.79 365.779 390.966 362.856 400.422 361.137C423.326 356.975 420.27 351.44 420.235 330.865L420.237 277.531C420.243 273.079 420.428 268.478 420.206 264.038C419.492 249.757 399.422 246.954 394.975 260.654C394.553 261.722 394.318 263.249 393.803 264.253C387.416 276.123 364.831 282.464 354.611 273.406C351.79 270.906 351.211 264.966 346.3 263.164C338.797 260.411 334.265 264.346 330.912 270.695C323.15 285.214 300.596 287.73 289.895 275.237C285.677 270.313 284.48 263.065 275.387 264.757C268.036 266.126 268.63 276.129 256.623 281.279C259.35 313.305 208.734 317.056 207.696 282.997C207.712 271.978 209.243 270.759 197.278 271.059C189.02 271.266 181.461 272.592 180.347 262.801C180.829 260.493 182.311 256.184 185.009 255.828C192.803 254.798 203.867 254.144 211.253 257.105C221.139 263.301 222.511 268.736 222.691 280.378C222.884 292.885 237.261 297.131 241.232 285.855C245.391 274.047 237.274 245.656 245.577 236.75Z"/><path fill="#7EC5F3" transform="scale(2 2)" d="M313.003 411.761C315.214 421.693 305.929 421.866 299.483 422.052C252.776 423.398 206.112 415.421 160.463 406.287C130.295 400.243 113.471 381.934 112.698 351.445C112.34 337.332 124.36 337.036 127.792 345.944L127.907 346.25C128.081 353.53 127.187 358.162 129.727 365.539L143.783 365.562C145.255 365.568 148.821 365.759 149.98 365.539C151.09 366.086 153.176 367.711 154.14 368.526C160.487 373.897 167.807 374.76 175.671 376.344L199.164 380.849C278.956 395.489 342.669 391.998 422.318 371.309C441.172 366.412 441.407 385.338 429.155 388.032C413.495 391.475 398.362 394.657 382.548 397.058C377.538 397.815 373.991 398.888 373.373 404.768C372.924 404.642 352.775 408.013 349.504 408.027C350.598 410.56 350.038 413.503 348.092 415.458C346.145 417.413 343.204 417.985 340.667 416.902C338.129 415.819 336.508 413.299 336.573 410.541C328.733 410.516 321.365 411.758 313.003 411.761Z"/><path transform="scale(2 2)" d="M313.003 411.761C315.214 421.693 305.929 421.866 299.483 422.052C252.776 423.398 206.112 415.421 160.463 406.287C130.295 400.243 113.471 381.934 112.698 351.445C112.34 337.332 124.36 337.036 127.792 345.944L127.907 346.25C128.081 353.53 127.187 358.162 129.727 365.539C138.118 386.616 150.138 388.686 169.748 392.842C208.539 401.063 254.326 407.709 294.095 407.034C301.782 406.903 308.783 404.554 313.003 411.761Z"/><path transform="scale(2 2)" d="M336.573 410.541C336.648 407.374 338.917 404.686 342.027 404.082C345.137 403.477 348.248 405.119 349.504 408.027C350.598 410.56 350.038 413.503 348.092 415.458C346.145 417.413 343.204 417.985 340.667 416.902C338.129 415.819 336.508 413.299 336.573 410.541Z"/><path fill="#BCDEF6" transform="scale(2 2)" d="M142.254 344.974C142.872 353.554 144.738 358.584 149.98 365.539C148.821 365.759 145.255 365.568 143.783 365.562L129.727 365.539C127.187 358.162 128.081 353.53 127.907 346.25C131.512 346.056 138.76 346.876 142.254 347.987C142.173 346.822 142.2 346.149 142.254 344.974Z"/><path transform="scale(2 2)" d="M153.845 294.076L153.351 294.214C137.217 298.588 142.499 273.477 147.06 266.101C151.518 258.889 160.985 257.883 162.806 266.887C162.313 271.531 159.495 273.635 158.266 278.072C156.592 284.117 159.575 289.869 153.845 294.076Z"/><path transform="scale(2 2)" d="M371.85 331.453C372.533 331.293 389.026 331.112 391.547 331.146C401.307 331.276 402.343 344.002 392.81 346.25C388.204 346.536 375.01 346.719 370.85 346.094C362.205 344.796 362.426 331.752 371.85 331.453Z"/><path transform="scale(2 2)" d="M188.882 331.453L202.162 331.419C222.372 331.393 217.964 344.622 209.519 346.25C204.263 346.271 190.554 347.085 186.457 345.129C179.801 341.951 182.189 333.175 188.882 331.453Z"/><path fill="#FEC302" transform="scale(2 2)" d="M71.8253 104.498C52.5187 104.664 59.1895 90.5929 65.1573 89.8564C68.9313 89.3906 73.3407 89.6045 77.2033 89.6051L111.382 89.6002C118.052 89.5852 123.669 88.3357 124.622 96.9846L124.743 97.8789C125.429 98.3722 141.307 97.8426 143.92 98.012C143.587 90.5407 148.134 89.4955 154.365 89.5618L196.284 89.6178C203.333 89.6158 210.813 89.385 217.825 89.8663C254.775 92.4637 285.939 121.647 289.531 158.922C290.713 171.181 289.631 184.449 290.08 196.767C290.879 218.652 270.459 230.602 251.014 221.312C249.846 227.547 246.236 233.399 245.577 236.75C237.274 245.656 245.391 274.047 241.232 285.855C237.261 297.131 222.884 292.885 222.691 280.378C222.511 268.736 221.139 263.301 211.253 257.105C211.334 248.786 210.754 245.479 209.519 237.34C196.947 242.044 191.421 238.249 180.568 232.177C171.368 227.013 156.419 217.17 146.935 213.5C127.816 214.735 111.438 208.279 100.302 191.939C96.2643 186.014 94.0293 180.666 87.2928 176.693C79.6188 172.166 59.915 180.793 59.2714 167.858C59.1916 160.128 65.9175 159.976 71.8253 160.259L71.8253 104.498Z"/><path transform="scale(2 2)" d="M143.92 98.012C143.587 90.5407 148.134 89.4955 154.365 89.5618L196.284 89.6178C203.333 89.6158 210.813 89.385 217.825 89.8663C254.775 92.4637 285.939 121.647 289.531 158.922C290.713 171.181 289.631 184.449 290.08 196.767C290.879 218.652 270.459 230.602 251.014 221.312C242.538 214.703 234.863 200.402 239.976 190.069C241.764 186.455 246.613 185.359 249.982 187.315C257.521 191.692 249.77 203.948 259.411 208.616C265.231 211.434 271.641 208.772 274.159 202.87C275.82 198.977 275.16 163.892 274.306 157.622C270.738 131.43 249.412 110.084 223.462 105.47C215.387 104.034 206.868 104.492 198.692 104.49L165.472 104.499C156.709 104.505 147.335 107.101 143.92 98.012Z"/><path transform="scale(2 2)" d="M146.935 213.5C127.816 214.735 111.438 208.279 100.302 191.939C96.2643 186.014 94.0293 180.666 87.2928 176.693C79.6188 172.166 59.915 180.793 59.2714 167.858C59.1916 160.128 65.9175 159.976 71.8253 160.259C97.251 160.208 100.177 164.403 113.01 183.841C119.76 194.065 130.253 198.981 142.376 198.667C153.087 198.39 153.117 199.61 162.517 204.791L188.197 219.242C190.803 220.706 196.272 224.124 198.998 224.497C207.737 225.695 213.784 213.999 207.019 207.976C204.327 205.581 199.115 203.034 195.827 201.17L173.599 188.655C169.488 186.323 162.933 183.683 162.633 178.508C162.386 174.24 165.753 170.159 170.261 170.25C174.747 170.98 213.178 193.254 217.679 197.572C230.136 209.522 225.315 229.99 209.519 237.34C196.947 242.044 191.421 238.249 180.568 232.177C171.368 227.013 156.419 217.17 146.935 213.5Z"/><path transform="scale(2 2)" d="M71.8253 104.498C52.5187 104.664 59.1895 90.5929 65.1573 89.8564C68.9313 89.3906 73.3407 89.6045 77.2033 89.6051L111.382 89.6002C118.052 89.5852 123.669 88.3357 124.622 96.9846C124.182 107.424 111.353 104.52 103.583 104.504L71.8253 104.498Z"/><path transform="scale(2 2)" d="M209.519 123.747C227.385 122.839 242.004 133.294 250.803 148.355C255.747 156.818 248.474 165.777 240.225 159.713C235.37 156.144 236.629 146.577 220.474 140.373C194.429 131.627 187.076 155.242 179.772 155.137C160.516 154.861 179.911 124.07 209.519 123.747Z"/></svg>