<?xml version="1.0" encoding="utf-8" ?><svg xmlns="http://www.w3.org/2000/svg" xmlns:xlink="http://www.w3.org/1999/xlink" width="1024" height="1024" viewBox="0 0 1024 1024"><path fill="#BCDEF6" transform="scale(2 2)" d="M177.264 155.348C169.507 162.665 166.825 174.4 153.443 171.343C147.891 170.075 142.051 164.283 142.009 158.408C141.892 142.213 149.403 141.285 142.067 122.602C131.654 96.2753 151.058 68.4609 179.178 68.289C183.622 68.0886 189.027 68.6522 193.338 67.5558C203.012 65.0954 212.141 61.4946 221.936 59.2517C258.649 50.8452 277.481 58.0013 310.279 68.186C314.308 69.4187 318.59 68.3895 322.753 68.3534C349.653 68.1204 370.558 95.1583 361.653 120.954C358.527 130.01 355.676 136.319 358.375 146.024C359.781 150.885 362.064 155.427 360.169 160.57C357.844 166.883 351.709 171.552 344.817 170.798C334.332 169.651 333.586 158.953 321.996 154.573C322.227 159.731 321.082 164.747 320.681 169.923C327.589 175.296 319.246 179.879 317.934 185.279C315.072 197.052 320.146 227.143 324.861 237.743C326.833 242.177 329.314 246.656 330.993 251.251C340.696 276.835 338.258 296.343 336.898 321.887C348.238 316.595 363.337 296.715 363.243 283.604C363.204 278.122 360.716 269.154 370.223 270.491C378.229 271.616 390.329 318.131 378.554 324.956C374.99 333.726 372.756 339.911 366.783 347.727C364.095 351.245 359.628 356.079 357.519 359.593C357.286 361.117 357.328 363.116 357.519 364.649C361.989 378.706 359.644 385.119 354.186 398.661C351.746 404.713 347.592 418.854 341.081 420.736C346.335 429.396 349.497 451.291 333.984 450.099C328.219 456.722 320.876 455.65 312.869 455.365C297.531 454.82 281.927 456.958 279.441 436.366C275.651 436.506 271.355 436.306 267.428 436.366C268.001 427.301 256.677 429.7 250.138 429.705L220.561 429.716L220.561 390.029C214.722 383.552 209.252 386.807 209.248 394.896L209.318 422.87C209.34 439.492 211.167 443.846 193.37 443.814L180.128 443.783C181.551 434.766 195.717 437.226 196.768 426.919C197.728 417.506 198.766 379.841 197.668 372.373C196.96 367.565 192.748 357.738 191.092 352.451C185.741 335.365 181.665 317.274 181.607 299.302C181.577 289.906 183.739 267.075 190.275 260.571C186.693 254.986 186.108 247.891 194.774 248.577C195.183 246.86 196.122 244.79 196.703 243.064C202.846 224.797 201.561 216.57 199.637 198.993C200.094 197.85 200.636 197.07 201.283 196.033C202.901 192.507 204.021 190.543 202.775 186.641C201.559 182.838 198.043 169.436 196.096 167.454C191.921 166.201 193.313 167.601 190.275 167.454C189.323 166.368 188.555 165.35 187.28 164.657C182.385 163.27 180.508 165.739 178.987 169.923C176.769 164.704 178.051 160.257 177.264 155.348ZM178.987 169.923C180.508 165.739 182.385 163.27 187.28 164.657C188.555 165.35 189.323 166.368 190.275 167.454C193.313 167.601 191.921 166.201 196.096 167.454C198.043 169.436 201.559 182.838 202.775 186.641C204.021 190.543 202.901 192.507 201.283 196.033C200.636 197.07 200.094 197.85 199.637 198.993C201.561 216.57 202.846 224.797 196.703 243.064C196.122 244.79 195.183 246.86 194.774 248.577C186.108 247.891 186.693 254.986 190.275 260.571C195.659 268.017 213.292 275.921 219.325 268.186C233.833 273.659 258.867 285.168 271.928 286.583C275.955 281.265 283.977 285.226 288.975 283.598C295.163 281.582 301.383 274.814 303.927 286.583C308.812 285.728 320.541 279.082 325.681 276.667C327.788 293.991 325.977 306.95 325.681 323.486C321.908 323.727 320.425 324.315 317.748 327.235C318.583 338.893 314.564 352.604 314.36 364.658C314.238 371.897 315.465 379.957 314.492 386.739C318.974 384.826 321.612 384.563 324.472 388.901C324.923 399.021 322.832 409.449 323.813 419.515C336.383 427.38 339.259 437.149 333.984 450.099C349.497 451.291 346.335 429.396 341.081 420.736C347.592 418.854 351.746 404.713 354.186 398.661C359.644 385.119 361.989 378.706 357.519 364.649C357.328 363.116 357.286 361.117 357.519 359.593C359.628 356.079 364.095 351.245 366.783 347.727C372.756 339.911 374.99 333.726 378.554 324.956C390.329 318.131 378.229 271.616 370.223 270.491C360.716 269.154 363.204 278.122 363.243 283.604C363.337 296.715 348.238 316.595 336.898 321.887C338.258 296.343 340.696 276.835 330.993 251.251C329.314 246.656 326.833 242.177 324.861 237.743C320.146 227.143 315.072 197.052 317.934 185.279C319.246 179.879 327.589 175.296 320.681 169.923C321.082 164.747 322.227 159.731 321.996 154.573C333.586 158.953 334.332 169.651 344.817 170.798C351.709 171.552 357.844 166.883 360.169 160.57C362.064 155.427 359.781 150.885 358.375 146.024C355.676 136.319 358.527 130.01 361.653 120.954C370.558 95.1583 349.653 68.1204 322.753 68.3534C318.59 68.3895 314.308 69.4187 310.279 68.186C277.481 58.0013 258.649 50.8452 221.936 59.2517C212.141 61.4946 203.012 65.0954 193.338 67.5558C189.027 68.6522 183.622 68.0886 179.178 68.289C151.058 68.4609 131.654 96.2753 142.067 122.602C149.403 141.285 141.892 142.213 142.009 158.408C142.051 164.283 147.891 170.075 153.443 171.343C166.825 174.4 169.507 162.665 177.264 155.348C178.051 160.257 176.769 164.704 178.987 169.923Z"/><path fill="#BCDEF6" transform="scale(2 2)" d="M177.264 155.348C169.507 162.665 166.825 174.4 153.443 171.343C147.891 170.075 142.051 164.283 142.009 158.408C141.892 142.213 149.403 141.285 142.067 122.602C131.654 96.2753 151.058 68.4609 179.178 68.289C183.622 68.0886 189.027 68.6522 193.338 67.5558C203.012 65.0954 212.141 61.4946 221.936 59.2517C258.649 50.8452 277.481 58.0013 310.279 68.186C314.308 69.4187 318.59 68.3895 322.753 68.3534C349.653 68.1204 370.558 95.1583 361.653 120.954C358.527 130.01 355.676 136.319 358.375 146.024C359.781 150.885 362.064 155.427 360.169 160.57C357.844 166.883 351.709 171.552 344.817 170.798C334.332 169.651 333.586 158.953 321.996 154.573C322.227 159.731 321.082 164.747 320.681 169.923C313.713 167.15 312.637 172.727 308.914 177.441C304.833 182.699 300.576 187.622 295.773 192.206C284.033 203.413 277.255 206.415 262.306 197.97C260.678 196.487 258.304 194.528 257.289 192.681C257.173 191.563 257.266 189.433 257.289 188.218C272.335 183.938 278.671 170.174 277.23 155.348L276.907 154.955C271.411 148.186 271.226 145.978 260.908 144.833C252.956 143.925 236.622 143.187 229.964 148.556C215.638 160.108 228.19 184.179 245.744 188.218C245.764 189.631 245.834 191.29 245.744 192.681C239.609 200.567 226.347 206.557 217.606 199.313C213.618 196.007 207.213 189.698 204.9 198.993C203.444 197.778 202.66 197.661 201.283 196.033C202.901 192.507 204.021 190.543 202.775 186.641C201.559 182.838 198.043 169.436 196.096 167.454C191.921 166.201 193.313 167.601 190.275 167.454C189.323 166.368 188.555 165.35 187.28 164.657C182.385 163.27 180.508 165.739 178.987 169.923C176.769 164.704 178.051 160.257 177.264 155.348ZM210.65 84.0837C211.284 83.5932 212.39 83.2214 213.195 82.9601C235.984 75.5637 276.594 70.5121 299.267 81.4311C298.341 100.583 301.413 96.8116 310.355 107.865L310.409 108.249C312.48 123.305 307.292 140.06 320.113 152.032C320.621 152.506 321.769 153.932 321.996 154.573C333.586 158.953 334.332 169.651 344.817 170.798C351.709 171.552 357.844 166.883 360.169 160.57C362.064 155.427 359.781 150.885 358.375 146.024C355.676 136.319 358.527 130.01 361.653 120.954C370.558 95.1583 349.653 68.1204 322.753 68.3534C318.59 68.3895 314.308 69.4187 310.279 68.186C277.481 58.0013 258.649 50.8452 221.936 59.2517C212.141 61.4946 203.012 65.0954 193.338 67.5558C189.027 68.6522 183.622 68.0886 179.178 68.289C151.058 68.4609 131.654 96.2753 142.067 122.602C149.403 141.285 141.892 142.213 142.009 158.408C142.051 164.283 147.891 170.075 153.443 171.343C166.825 174.4 169.507 162.665 177.264 155.348C179.945 152.752 183.145 151.463 185.97 148.112C193.34 139.944 193.056 126.964 192.411 116.646C191.215 97.501 209.994 102.554 204.9 79.7492C207.769 81.2001 208.408 82.5113 210.65 84.0837Z"/><path transform="scale(2 2)" d="M177.264 155.348C169.507 162.665 166.825 174.4 153.443 171.343C147.891 170.075 142.051 164.283 142.009 158.408C141.892 142.213 149.403 141.285 142.067 122.602C131.654 96.2753 151.058 68.4609 179.178 68.289C183.622 68.0886 189.027 68.6522 193.338 67.5558C203.012 65.0954 212.141 61.4946 221.936 59.2517C258.649 50.8452 277.481 58.0013 310.279 68.186C314.308 69.4187 318.59 68.3895 322.753 68.3534C349.653 68.1204 370.558 95.1583 361.653 120.954C358.527 130.01 355.676 136.319 358.375 146.024C359.781 150.885 362.064 155.427 360.169 160.57C357.844 166.883 351.709 171.552 344.817 170.798C334.332 169.651 333.586 158.953 321.996 154.573C321.769 153.932 320.621 152.506 320.113 152.032C307.292 140.06 312.48 123.305 310.409 108.249L310.355 107.865C301.413 96.8116 298.341 100.583 299.267 81.4311C299.981 80.0225 300.892 78.4691 301.669 77.0741C276.653 66.788 246.476 63.8513 220.471 71.4035C214.729 73.0711 208.924 74.1373 203.483 77.0741C204.084 78.0564 204.408 78.7042 204.9 79.7492C209.994 102.554 191.215 97.501 192.411 116.646C193.056 126.964 193.34 139.944 185.97 148.112C183.145 151.463 179.945 152.752 177.264 155.348ZM191.181 79.7492C178.603 79.691 169.18 78.1302 158.99 87.9354C140.582 106.184 157.684 120.536 156.597 136.71C156.268 141.598 150.293 160.815 156.972 160.5C159.713 160.398 161.51 156.601 162.592 154.573C162.007 152.668 164.744 142.188 164.744 138.119C164.744 126.855 158.998 119.06 161.729 107.463C165.332 92.1597 179.287 82.5233 194.774 86.0089C193.891 83.2809 193.541 81.5145 191.181 79.7492ZM331.683 146.401C331.597 145.714 331.046 144.48 330.821 143.736C326.693 130.083 333.865 112.833 325.195 100.543C323.736 98.4746 318.072 95.191 318.262 92.1164C318.891 81.9203 336.655 87.2658 341.832 86.9324C335.516 80.6776 315.337 75.3402 310.355 84.9522C309.531 97.3136 316.472 94.351 319.906 101.563C326.267 114.923 315.366 137.388 331.683 146.401Z"/><path fill="#FEC302" transform="scale(2 2)" d="M331.683 146.401C331.597 145.714 331.046 144.48 330.821 143.736C326.693 130.083 333.865 112.833 325.195 100.543C323.736 98.4746 318.072 95.191 318.262 92.1164C318.891 81.9203 336.655 87.2658 341.832 86.9324C346.972 90.7525 350.759 97.2675 351.678 103.584C354.558 123.383 339.514 124.854 349.668 156.428C345.309 164.211 342.426 155.381 338.988 152.007C336.791 149.783 334.011 148.264 331.683 146.401Z"/><path fill="#FEC302" transform="scale(2 2)" d="M162.592 154.573C162.007 152.668 164.744 142.188 164.744 138.119C164.744 126.855 158.998 119.06 161.729 107.463C165.332 92.1597 179.287 82.5233 194.774 86.0089C192.134 93.4653 185.019 96.8368 182.288 104.363C178.271 115.579 185.151 129.031 178.046 139.406C175.748 142.762 167.272 148.427 162.592 154.573Z"/><path fill="#57B5F8" transform="scale(2 2)" d="M204.9 79.7492C207.769 81.2001 208.408 82.5113 210.65 84.0837C226.897 103.722 210.097 101.067 205.021 114.152C201.347 123.623 205.258 132.561 201.932 142.836C198.788 152.548 190.661 156.242 187.28 164.657C182.385 163.27 180.508 165.739 178.987 169.923C176.769 164.704 178.051 160.257 177.264 155.348C179.945 152.752 183.145 151.463 185.97 148.112C193.34 139.944 193.056 126.964 192.411 116.646C191.215 97.501 209.994 102.554 204.9 79.7492Z"/><path fill="#57B5F8" transform="scale(2 2)" d="M277.23 155.348C294.971 167.776 285.591 192.135 268.032 196.064C266.374 196.435 263.692 197.133 262.306 197.97C260.678 196.487 258.304 194.528 257.289 192.681C257.173 191.563 257.266 189.433 257.289 188.218C272.335 183.938 278.671 170.174 277.23 155.348Z"/><path transform="scale(2 2)" d="M220.561 109.796C231.099 108.741 230.629 125.829 223.693 128.916C213.5 129.993 212.532 113.064 220.561 109.796Z"/><path transform="scale(2 2)" d="M278.135 109.796C288.239 109.088 288.17 126.019 281.013 128.916C270.788 130.22 270.111 113.033 278.135 109.796Z"/><path transform="scale(2 2)" d="M245.744 188.218C228.19 184.179 215.638 160.108 229.964 148.556C236.622 143.187 252.956 143.925 260.908 144.833C271.226 145.978 271.411 148.186 276.907 154.955L277.23 155.348C278.671 170.174 272.335 183.938 257.289 188.218C257.266 189.433 257.173 191.563 257.289 192.681C258.304 194.528 260.678 196.487 262.306 197.97C277.255 206.415 284.033 203.413 295.773 192.206C300.576 187.622 304.833 182.699 308.914 177.441C312.637 172.727 313.713 167.15 320.681 169.923C327.589 175.296 319.246 179.879 317.934 185.279C315.072 197.052 320.146 227.143 324.861 237.743C326.833 242.177 329.314 246.656 330.993 251.251C340.696 276.835 338.258 296.343 336.898 321.887C348.238 316.595 363.337 296.715 363.243 283.604C363.204 278.122 360.716 269.154 370.223 270.491C378.229 271.616 390.329 318.131 378.554 324.956C374.99 333.726 372.756 339.911 366.783 347.727C364.095 351.245 359.628 356.079 357.519 359.593C357.286 361.117 357.328 363.116 357.519 364.649C361.989 378.706 359.644 385.119 354.186 398.661C351.746 404.713 347.592 418.854 341.081 420.736C346.335 429.396 349.497 451.291 333.984 450.099C339.259 437.149 336.383 427.38 323.813 419.515C322.832 409.449 324.923 399.021 324.472 388.901C321.612 384.563 318.974 384.826 314.492 386.739C315.465 379.957 314.238 371.897 314.36 364.658C314.564 352.604 318.583 338.893 317.748 327.235C320.425 324.315 321.908 323.727 325.681 323.486C325.977 306.95 327.788 293.991 325.681 276.667C320.541 279.082 308.812 285.728 303.927 286.583C301.383 274.814 295.163 281.582 288.975 283.598C283.977 285.226 275.955 281.265 271.928 286.583C258.867 285.168 233.833 273.659 219.325 268.186C213.292 275.921 195.659 268.017 190.275 260.571C186.693 254.986 186.108 247.891 194.774 248.577C195.183 246.86 196.122 244.79 196.703 243.064C202.846 224.797 201.561 216.57 199.637 198.993C200.094 197.85 200.636 197.07 201.283 196.033C202.66 197.661 203.444 197.778 204.9 198.993C207.213 189.698 213.618 196.007 217.606 199.313C226.347 206.557 239.609 200.567 245.744 192.681C245.834 191.29 245.764 189.631 245.744 188.218ZM346.304 337.794C348.537 335.462 353.035 333.169 355.765 331.125C366.433 323.141 365.834 317.567 372.109 309.85C372.435 305.82 371.919 302.208 372.109 298.204L371.824 298.612C369.375 302.17 367.712 306.205 365.273 309.957C358.474 320.413 350.786 325.019 341.832 332.482C343.879 334.509 344.711 335.397 346.304 337.794ZM238.787 171.574C238.68 166.59 239.118 162.982 243.598 159.972C253.389 154.786 261.542 158.95 265.378 157.808C264.611 155.168 249.893 155.159 246.88 155.348C233.253 156.403 232.315 160.034 238.787 171.574Z"/><path fill="#FEC302" transform="scale(2 2)" d="M201.283 196.033C202.66 197.661 203.444 197.778 204.9 198.993C203.593 206.537 215.609 211.557 221.24 213.71C231.986 237.943 266.737 240.194 280.542 218.849C281.617 217.187 282.563 215.423 283.536 213.71C295.045 210.19 297.723 206.297 306.202 197.97C306.178 210.091 307.262 225.876 312.226 237.029C318.643 251.448 323.821 260.364 325.681 276.667C320.541 279.082 308.812 285.728 303.927 286.583C301.383 274.814 295.163 281.582 288.975 283.598C283.977 285.226 275.955 281.265 271.928 286.583C258.867 285.168 233.833 273.659 219.325 268.186C213.292 275.921 195.659 268.017 190.275 260.571C186.693 254.986 186.108 247.891 194.774 248.577C195.183 246.86 196.122 244.79 196.703 243.064C202.846 224.797 201.561 216.57 199.637 198.993C200.094 197.85 200.636 197.07 201.283 196.033Z"/><path transform="scale(2 2)" d="M190.275 260.571C186.693 254.986 186.108 247.891 194.774 248.577C199.201 250.044 198.546 255.609 204.191 258.05C210.728 260.875 222.073 257.07 219.325 268.186C213.292 275.921 195.659 268.017 190.275 260.571Z"/><defs><linearGradient id="gradient_0" gradientUnits="userSpaceOnUse" x1="355.00577" y1="391.8385" x2="307.61212" y2="382.28967"><stop offset="0" stop-color="#0080FE"/><stop offset="1" stop-color="#2FA5FE"/></linearGradient></defs><path fill="url(#gradient_0)" transform="scale(2 2)" d="M317.748 327.235C320.425 324.315 321.908 323.727 325.681 323.486C323.151 337.97 321.623 353.829 319.848 368.48C319.325 372.799 326.196 375.409 329.244 372.532C332.475 369.868 333.754 346.966 334.757 341.62C345.333 353.28 347.526 362.963 346.953 378.105C346.552 388.678 341.631 399.16 337.449 408.73C334.229 416.097 334.454 416.359 341.081 420.736C346.335 429.396 349.497 451.291 333.984 450.099C339.259 437.149 336.383 427.38 323.813 419.515C322.832 409.449 324.923 399.021 324.472 388.901C321.612 384.563 318.974 384.826 314.492 386.739C315.465 379.957 314.238 371.897 314.36 364.658C314.564 352.604 318.583 338.893 317.748 327.235Z"/><path fill="#FEC302" transform="scale(2 2)" d="M372.109 309.85C372.443 315.54 367.874 325.445 378.554 324.956C374.99 333.726 372.756 339.911 366.783 347.727C364.095 351.245 359.628 356.079 357.519 359.593C355.66 352.029 351.885 343.312 346.304 337.794C348.537 335.462 353.035 333.169 355.765 331.125C366.433 323.141 365.834 317.567 372.109 309.85Z"/><path fill="#57B5F8" transform="scale(2 2)" d="M251.218 203.191C258.333 209.412 261.453 211.046 270.71 213.71C265.427 218.763 261.211 221.278 253.808 221.773C245.622 221.873 239.473 220.08 233.915 213.71C241.918 210.287 244.714 209.194 251.218 203.191Z"/><path fill="#57B5F8" transform="scale(2 2)" d="M279.441 346.906L279.441 436.366C275.651 436.506 271.355 436.306 267.428 436.366C268.001 427.301 256.677 429.7 250.138 429.705L220.561 429.716L220.561 390.029C224.011 390.278 235.488 387.026 238.441 385.321C242.887 382.755 241.444 377.835 245.846 374.931C249.91 371.854 255.464 373.559 258.216 369.206C260.777 365.155 258.298 358.589 260.846 354.926C264.642 349.468 270.466 358.47 279.441 346.906Z"/><path transform="scale(2 2)" d="M279.441 346.906C279.468 343.953 278.743 337.234 280.267 335.184C283.892 330.309 289.618 331.974 290.757 337.794C296.679 337.682 298.691 337.849 299.015 344.496C299.458 353.554 299.276 362.661 299.277 371.734L299.268 421.286C299.259 429.16 297.712 437.143 301.669 443.783C303.568 444.438 314.854 443.712 317.447 443.728C322.07 443.756 325.855 446.189 325.266 439.352C324.495 430.41 315.132 430.555 312.72 423.495C311.665 420.406 312.314 394.798 312.447 390.777C312.479 389.814 313.936 387.603 314.492 386.739C318.974 384.826 321.612 384.563 324.472 388.901C324.923 399.021 322.832 409.449 323.813 419.515C336.383 427.38 339.259 437.149 333.984 450.099C328.219 456.722 320.876 455.65 312.869 455.365C297.531 454.82 281.927 456.958 279.441 436.366L279.441 346.906Z"/><path fill="white" transform="scale(2 2)" d="M290.757 337.794C296.679 337.682 298.691 337.849 299.015 344.496C299.458 353.554 299.276 362.661 299.277 371.734L299.268 421.286C299.259 429.16 297.712 437.143 301.669 443.783L300.921 443.798C288.558 443.944 290.755 433.576 290.752 424.563L290.757 337.794Z"/><path transform="scale(2 2)" d="M271.928 286.583C275.955 281.265 283.977 285.226 288.975 283.598C295.163 281.582 301.383 274.814 303.927 286.583C300.186 297.056 267.411 300.609 271.928 286.583Z"/><path transform="scale(2 2)" d="M213.525 334.78C226.092 333.593 229.512 365.291 221.24 369.57C209.662 371.514 216.589 356.948 212.079 347.14C211.066 344.937 209.823 342.687 209.296 340.296C209.869 337.106 210.533 336.002 213.525 334.78Z"/><path transform="scale(2 2)" d="M167.953 317.267C174.528 317.051 174.653 319.624 175.582 325.516C177.527 337.983 187.774 364.653 187.079 373.827C186.277 384.406 186.493 394.769 186.492 405.377L186.49 418.551C186.484 438.247 173.088 426.74 172.748 439.207C172.613 444.187 176.489 443.766 180.128 443.783L193.37 443.814C211.167 443.846 209.34 439.492 209.318 422.87L209.248 394.896C209.252 386.807 214.722 383.552 220.561 390.029L220.561 429.716L250.138 429.705C256.677 429.7 268.001 427.301 267.428 436.366C265.382 443.546 253.919 441.176 247.626 441.155L220.561 441.203C211.675 453.867 209.192 456.112 191.76 455.369C183.018 454.997 162.311 457.338 162.592 442.355C149.647 442.5 137.074 440.249 140.928 422.425C142.241 416.353 145.854 414.557 150.502 411.592C149.254 402.774 140.279 390.402 137.628 381.002C131.508 359.297 152.431 322.704 157.438 343.383C156.554 346.488 154.843 349.03 153.405 351.917C142.818 373.186 147.636 376.326 156.744 395.382C158.918 399.93 160.94 405.694 163.698 409.776C168.099 402.542 148.638 385.116 159.661 361.226C162.231 355.656 165.906 349.232 167.953 343.383C166.3 336.345 160.178 321.074 167.953 317.267ZM157.438 430.746C164.263 424.733 167.196 426.171 163.698 418.563C160.622 419.834 157.386 421.1 154.619 422.609C150.122 425.06 150.148 431.563 157.438 430.746Z"/><path fill="#57B5F8" transform="scale(2 2)" d="M167.953 343.383C169.343 346.64 175.134 366.769 175.415 369.25C175.913 373.648 175.093 380.172 175.004 384.88C174.782 396.68 175.289 408.994 175.007 420.736C169.787 422.611 166.237 425.827 163.698 430.746C161.718 430.578 158.533 430.926 157.438 430.746C164.263 424.733 167.196 426.171 163.698 418.563C165.094 416.08 165.142 412.257 163.698 409.776C168.099 402.542 148.638 385.116 159.661 361.226C162.231 355.656 165.906 349.232 167.953 343.383Z"/><path transform="scale(2 2)" d="M188.284 210.779C190.426 210.708 192.326 213.244 193.247 214.915C193.438 222.583 190.675 235.725 186.718 242.076C176.771 258.038 173.391 274.511 171.648 293.139C171.342 296.407 169.181 297.72 166.222 298.204C153.584 296.027 167.762 254.792 170.528 247.88C176.879 234.26 179.851 234.908 181.919 218.512C182.612 213.016 182.991 212.071 188.284 210.779Z"/><path transform="scale(2 2)" d="M178.987 169.923C180.508 165.739 182.385 163.27 187.28 164.657C188.555 165.35 189.323 166.368 190.275 167.454C190.713 172.093 190.959 176.878 192.814 181.278C195.18 186.888 194.7 190.84 188.284 192.681C181.177 189.748 179.263 176.709 178.987 169.923Z"/></svg>