<?xml version="1.0" encoding="utf-8" ?><svg xmlns="http://www.w3.org/2000/svg" xmlns:xlink="http://www.w3.org/1999/xlink" width="1024" height="1024" viewBox="0 0 1024 1024"><path transform="scale(2 2)" d="M253.018 78.7475C242.826 78.5535 232.895 81.9427 224.018 86.7817C219.79 89.0864 214.867 94.1828 210.569 89.2373C207.389 85.578 208.339 81.6272 212.164 78.8553C257.311 46.1383 320.956 73.6453 326.834 129.997C343.025 125.444 361.024 131.716 361.43 150.795C361.616 159.587 361.84 156.948 364.703 164.711C375.114 193.923 329.559 215.48 310.61 184.003C305.544 189.869 302.759 192.721 296.455 197.539C302.869 203.895 307.823 209.12 311.667 217.618C322.149 219.796 326.06 227.162 333.6 234.758L353.839 255.242C357.471 258.885 364.216 264.828 366.784 268.901C376.29 283.974 360.846 303.274 344.015 299.238C332.967 296.589 325.269 283.875 317.035 276.627C316.863 282.73 316.2 307.105 317.313 312.203C319.503 322.223 329.681 342.861 319.737 348.225C315.195 349.408 311.657 347.886 310.542 343.04C305.823 323.394 303.744 314.282 303.747 293.727L303.76 259.529C303.774 228.846 304.323 226.359 284.946 204.854C282.228 205.811 276.123 207.834 273.73 209.145C260.32 211.499 252.896 212.475 239.278 209.145C235.424 208.031 230.112 206.358 226.367 204.854C209.238 218.271 208.759 236.536 208.75 255.808L208.746 283.82C208.749 288.592 208.955 293.473 208.637 298.212C208.182 304.993 196.703 306.562 195.398 297.734C194.342 290.598 195.658 281.77 195.253 274.392C190.118 279.993 178.362 294.485 172.785 297.863C160.223 305.47 143.045 295.392 142.588 280.814C142.315 272.11 156.688 250.682 165.671 258.791C167.362 256.189 173.263 248.966 175.871 247.378C167.19 236.77 193.955 220.233 201.679 216.35C205.897 208.566 207.943 203.697 215.015 197.539C210.416 193.235 204.852 189.687 201.679 184.003C198.625 187.602 196.635 190.438 192.804 193.404C170.237 210.85 136.126 187.141 147.737 162.145C148.458 160.591 149.525 159.2 150.256 157.646C148.496 141.248 159.707 126.284 176.915 127.257C179.424 127.399 182.158 128.009 184.756 128.251C186.367 119.268 188.391 108.858 193.299 101.07C197.026 95.2882 206.612 101.194 204.569 106.439C200.355 117.264 197.983 123.5 198.286 135.63C198.894 136.481 199.6 137.345 200.251 138.171C200.137 147.923 200.354 155.675 204.878 164.773L205.024 164.135C203.313 160.203 198.255 142.393 201.152 138.879C202.202 138.115 201.229 133.133 200.996 131.359C200.876 130.443 199.16 129.385 199.026 127.995C199.98 126.925 203.622 126.83 204.697 127.685C202.635 128.373 205.923 129.479 206.33 127.573L207.124 127.512C208.063 128.227 206.705 129.753 208.936 129.985L209.224 129.65C209.219 128.89 209.16 128.557 209.456 127.847L209.949 127.722L210.259 127.98C210.584 129.876 208.795 132.584 211.646 134.8L212.071 134.711C209.611 131.083 209.734 129.466 212.071 125.828C210.975 111.227 228.875 90.727 240.714 83.8148C244.568 81.5641 249.69 80.7457 253.018 78.7475ZM177.5 141.236C161.187 138.786 164.562 153.681 163.387 162.118C162.874 165.795 151.127 171.914 165.671 184.003C166.012 177.789 165.054 172.862 169.457 167.428C175.654 159.781 168.879 150.589 177.5 141.236Z"/><path fill="white" transform="scale(2 2)" d="M253.018 78.7475C262.822 78.0012 276.667 80.7321 284.946 86.0619C285.355 88.0164 288.873 92.267 290.295 94.4602C293.427 99.2886 303.249 118.762 300.449 124.479C303.923 128.013 303.931 132.985 299.446 135.63L299.446 135.63C299.823 136.672 299.424 138.828 299.387 140.014C298.581 165.709 280.791 190.279 254.682 194.591C252.563 194.941 244.669 195.675 243.299 196.41C227.711 192.914 210.403 179.7 204.878 164.773L205.024 164.135C203.313 160.203 198.255 142.393 201.152 138.879C202.202 138.115 201.229 133.133 200.996 131.359C200.876 130.443 199.16 129.385 199.026 127.995C199.98 126.925 203.622 126.83 204.697 127.685C202.635 128.373 205.923 129.479 206.33 127.573L207.124 127.512C208.063 128.227 206.705 129.753 208.936 129.985L209.224 129.65C209.219 128.89 209.16 128.557 209.456 127.847L209.949 127.722L210.259 127.98C210.584 129.876 208.795 132.584 211.646 134.8L212.071 134.711C209.611 131.083 209.734 129.466 212.071 125.828C210.975 111.227 228.875 90.727 240.714 83.8148C244.568 81.5641 249.69 80.7457 253.018 78.7475Z"/><path fill="#FEC302" transform="scale(2 2)" d="M253.018 78.7475C262.822 78.0012 276.667 80.7321 284.946 86.0619C285.355 88.0164 288.873 92.267 290.295 94.4602C293.427 99.2886 303.249 118.762 300.449 124.479C303.923 128.013 303.931 132.985 299.446 135.63L299.446 135.63C287.338 138.414 270.752 126.266 262.808 117.856C254.113 126.781 223.524 142.755 212.071 134.711C209.611 131.083 209.734 129.466 212.071 125.828C210.975 111.227 228.875 90.727 240.714 83.8148C244.568 81.5641 249.69 80.7457 253.018 78.7475Z"/><path transform="scale(2 2)" d="M212.071 125.828C217.832 120.341 244.256 125.936 257.002 103.8C263.577 92.3794 269.306 104.554 272.706 109.112C282.556 122.318 290.442 119.302 300.449 124.479C303.923 128.013 303.931 132.985 299.446 135.63L299.446 135.63C287.338 138.414 270.752 126.266 262.808 117.856C254.113 126.781 223.524 142.755 212.071 134.711C209.611 131.083 209.734 129.466 212.071 125.828Z"/><path transform="scale(2 2)" d="M244.558 166.041C248.885 165.56 251.298 169.377 255.505 169.458C260.88 169.561 265.599 162.498 270.4 168.781C273.346 172.638 270.326 175.707 267.215 178.097C251.694 188.316 231.541 172.986 244.558 166.041Z"/><path transform="scale(2 2)" d="M231.689 142.551C234.999 142.006 238.123 144.251 238.661 147.562C239.2 150.873 236.949 153.992 233.636 154.524C230.334 155.055 227.225 152.811 226.688 149.51C226.151 146.208 228.388 143.095 231.689 142.551Z"/><path transform="scale(2 2)" d="M277.972 142.627C281.258 141.944 284.471 144.066 285.133 147.356C285.794 150.646 283.65 153.845 280.356 154.485C277.092 155.118 273.93 152.998 273.275 149.739C272.62 146.481 274.718 143.304 277.972 142.627Z"/><path fill="#CBC7C3" transform="scale(2 2)" d="M299.446 135.63C305.578 135.761 308.248 133.382 313.237 132.084C313.361 134.293 311.929 135.948 311.814 138.113C311.669 140.847 311.574 143.839 311.291 146.622C307.889 179.999 276.65 204.078 243.299 196.41C244.669 195.675 252.563 194.941 254.682 194.591C280.791 190.279 298.581 165.709 299.387 140.014C299.424 138.828 299.823 136.672 299.446 135.63L299.446 135.63Z"/><path fill="#FEC302" transform="scale(2 2)" d="M175.871 247.378C184.6 252.244 189.794 240.462 195.725 234.963C195.724 239.04 195.653 243.319 195.725 247.378C192.671 248.649 169.868 275.39 162.29 282.439C161.695 282.992 158.655 285.385 158.386 285.687C146.847 275.699 172.926 271.684 165.671 258.791C167.362 256.189 173.263 248.966 175.871 247.378Z"/><path fill="#FBA505" transform="scale(2 2)" d="M284.946 86.0619C300.287 94.338 314.036 113.992 313.237 132.084C308.248 133.382 305.578 135.761 299.446 135.63C303.931 132.985 303.923 128.013 300.449 124.479C303.249 118.762 293.427 99.2886 290.295 94.4602C288.873 92.267 285.355 88.0164 284.946 86.0619Z"/><path fill="#FBA505" transform="scale(2 2)" d="M195.725 247.378C195.487 255.716 195.53 254.33 189.971 260.649L178.813 273.153C173.248 279.385 166.997 291.112 158.386 285.687C158.655 285.385 161.695 282.992 162.29 282.439C169.868 275.39 192.671 248.649 195.725 247.378Z"/><path fill="#FEC302" transform="scale(2 2)" d="M324.501 146.195C329.431 143.274 333.004 141.369 338.77 141.236C351.033 144.114 346.33 152.585 348.596 161.351C349.457 164.68 351.827 167.458 352.386 170.869C354.293 182.512 343.004 186.274 333.633 185.88C312.447 178.663 322.839 161.873 324.501 146.195Z"/><path fill="#FBA505" transform="scale(2 2)" d="M338.77 141.236C351.033 144.114 346.33 152.585 348.596 161.351C349.457 164.68 351.827 167.458 352.386 170.869C354.293 182.512 343.004 186.274 333.633 185.88C334.507 184.45 336.619 182.729 337.841 181.551C345.073 174.578 339.749 168.244 338.998 160.834C338.397 154.898 338.754 147.274 338.77 141.236Z"/><path fill="#FEC302" transform="scale(2 2)" d="M177.5 141.236C181.96 141.285 186.328 143 187.033 147.917C187.442 158.527 193.88 169.025 189.483 176.864C185.137 184.614 179.755 185.978 171.503 185.88C169.927 185.536 167.279 184.549 165.671 184.003C166.012 177.789 165.054 172.862 169.457 167.428C175.654 159.781 168.879 150.589 177.5 141.236Z"/><path fill="#FBA505" transform="scale(2 2)" d="M171.503 185.88C193.73 172.824 179.876 150.948 187.033 147.917C187.442 158.527 193.88 169.025 189.483 176.864C185.137 184.614 179.755 185.978 171.503 185.88Z"/><path fill="#FEC302" transform="scale(2 2)" d="M317.035 236.915C319.344 240.275 325.395 245.489 328.41 248.579C337.46 257.851 346.85 267.02 355.896 276.293C357.749 278.192 355.467 282.21 354.037 283.913C348.44 288.804 344.415 285.853 340.263 281.288C333.031 273.337 323.563 265.534 317.035 257.133C317.049 250.756 316.545 242.897 317.035 236.915Z"/><path fill="#BCDEF6" transform="scale(2 2)" d="M273.73 209.145C276.123 207.834 282.228 205.811 284.946 204.854C304.323 226.359 303.774 228.846 303.76 259.529L303.747 293.727C303.744 314.282 305.823 323.394 310.542 343.04C311.657 347.886 315.195 349.408 319.737 348.225C320.898 352.509 322.183 357.873 322.738 362.278C325.844 362.192 329.321 363.065 330.029 366.512C335.774 394.512 334.461 399.405 305.231 399.626L305.243 414.888C305.24 424.433 305.989 432.634 298.654 439.983C287.497 451.162 268.343 445.464 264.334 430.437C262.839 424.833 263.781 406.357 263.72 399.626C260.649 399.562 250.65 399.33 247.884 399.626C247.762 407.225 248.988 423.542 247.31 430.312C241.914 451.082 214.275 450.214 208.225 431.209C206.429 424.95 207.489 407.091 207.395 399.626L198.378 399.7C182.485 399.795 177.139 393.071 180.708 377.018C181.996 371.225 182.307 363.341 184.18 357.794C186.518 350.871 193.583 352.309 196.9 358.105C196.841 362.709 191.661 384.224 192.911 386.324C194.852 386.944 204.371 386.387 207.395 386.426C207.912 381.017 209.252 374.908 210.216 369.496L218.725 323.635C221.256 309.238 222.026 303.427 222.022 288.741L222.003 258.824C221.997 236.114 223.83 227.357 239.278 209.145C252.896 212.475 260.32 211.499 273.73 209.145Z"/><path transform="scale(2 2)" d="M207.395 399.626L198.378 399.7C182.485 399.795 177.139 393.071 180.708 377.018C181.996 371.225 182.307 363.341 184.18 357.794C186.518 350.871 193.583 352.309 196.9 358.105C196.841 362.709 191.661 384.224 192.911 386.324C194.852 386.944 204.371 386.387 207.395 386.426L293.124 386.426C297.704 386.453 315.564 387.074 318.737 385.977C324.904 383.846 310.158 366.43 322.738 362.278C325.844 362.192 329.321 363.065 330.029 366.512C335.774 394.512 334.461 399.405 305.231 399.626L305.243 414.888C305.24 424.433 305.989 432.634 298.654 439.983C287.497 451.162 268.343 445.464 264.334 430.437C262.839 424.833 263.781 406.357 263.72 399.626C260.649 399.562 250.65 399.33 247.884 399.626C247.762 407.225 248.988 423.542 247.31 430.312C241.914 451.082 214.275 450.214 208.225 431.209C206.429 424.95 207.489 407.091 207.395 399.626Z"/><path fill="#FEC302" transform="scale(2 2)" d="M276.724 399.626L291.989 399.626L292.008 414.82C292.01 419.727 293.143 426.308 289.469 430.127C285.58 434.691 278.25 432.485 276.964 426.886C276.4 424.432 276.693 419.828 276.696 417.113L276.724 399.626Z"/><path fill="#FEC302" transform="scale(2 2)" d="M222.013 399.626C225.985 399.658 231.193 399.346 234.998 399.626C234.991 407.891 237.481 425.787 231.911 431.231C216.863 440.263 220.622 411.903 220.386 405.737C220.277 402.885 219.302 399.746 222.013 399.626Z"/><path fill="#2C9AEB" transform="scale(2 2)" d="M273.73 209.145C276.123 207.834 282.228 205.811 284.946 204.854C304.323 226.359 303.774 228.846 303.76 259.529L303.747 293.727C303.744 314.282 305.823 323.394 310.542 343.04C311.657 347.886 315.195 349.408 319.737 348.225C320.898 352.509 322.183 357.873 322.738 362.278C310.158 366.43 324.904 383.846 318.737 385.977C315.564 387.074 297.704 386.453 293.124 386.426C295.407 386.189 302.736 386.413 305.231 386.426C303.941 382.131 302.817 374.523 301.924 369.904L296.71 344.199C293.761 329.342 288.744 314.465 289.469 299.193L291.021 296.981C291.337 291.563 291.457 251.794 290.207 249.217L289.798 243.992C288.722 230.637 284.186 218.034 273.73 209.145Z"/><path fill="#1E83E2" transform="scale(2 2)" d="M289.469 299.193C276.926 305.156 280.184 289.828 280.155 284.085C280.128 278.743 279.207 262.254 280.153 258.576C280.333 257.876 279.685 254.903 279.595 253.893C278.913 246.258 285.098 244.968 290.207 249.217C291.457 251.794 291.337 291.563 291.021 296.981L289.469 299.193Z"/><path transform="scale(2 2)" d="M195.725 317.282C207.641 316.411 204.197 336.993 196.9 340.368C184.118 341.71 189.059 319.116 195.725 317.282Z"/></svg>