<?xml version="1.0" encoding="utf-8" ?><svg xmlns="http://www.w3.org/2000/svg" xmlns:xlink="http://www.w3.org/1999/xlink" width="1024" height="1024" viewBox="0 0 1024 1024"><path transform="scale(2 2)" d="M249.403 65.7489C249.384 62.6724 248.598 53.4994 251.175 50.6778C254.238 47.3228 260.648 48.0245 262.389 52.4786C263.583 55.53 263.272 62.0954 263.264 65.7489C266.249 65.8248 269.013 65.6918 272.051 65.9215C280.387 66.5522 280.708 78.631 272.588 79.436C269.703 79.722 266.25 79.4491 263.264 79.4995L263.264 109.545C275.925 116.149 279.963 125.223 274.545 138.606C290.943 147.426 292.507 160.137 293.344 176.155C310.822 186.266 326.295 197.466 339.737 212.718C344.336 217.937 349.48 220.985 343.998 228.076C346.005 230.204 351.395 238.097 352.52 240.705C369.395 231.809 381.57 298.854 382.641 308.77C394.512 315.642 394.398 323.228 394.391 335.516L394.373 351.427C408.375 360.798 405.04 372.641 405.239 386.894C411.318 387.741 414.8 394.441 409.627 398.569C406.825 401.404 405.068 395.776 405.256 405.799C405.485 418.067 395.647 428.169 383.279 427.774C374.158 427.483 358.732 431.321 357.525 420.347C351.403 420.322 342.867 420.654 336.941 420.347C335.656 429.871 326.863 427.744 319.57 427.746L139.727 427.75C118.086 427.748 106.706 426.453 106.731 400.389C106.731 399.851 104.82 399.08 104.213 398.741C97.9423 395.241 100.507 387.39 107.004 386.285C107.155 370.66 103.51 360.892 117.757 350.42L117.731 334.714C117.717 324.022 118.52 313.85 130.243 308.77C130.094 300.856 138.729 242.049 154.672 255.312C154.678 252.566 159.739 244.319 161.802 241.91C157.796 241.022 156.665 239.133 155.685 235.422C159.166 218.244 203.958 183.849 218.757 176.155C218.577 160.696 222.696 146.614 237.343 138.606C232.121 126.017 236.357 114.454 249.403 109.545L249.403 79.4995C246.304 79.4833 243.215 79.696 240.09 79.4473C234.124 78.9973 225.186 65.4625 249.403 65.7489Z"/><path fill="#BCDEF6" transform="scale(2 2)" d="M249.403 65.7489C249.384 62.6724 248.598 53.4994 251.175 50.6778C254.238 47.3228 260.648 48.0245 262.389 52.4786C263.583 55.53 263.272 62.0954 263.264 65.7489C266.249 65.8248 269.013 65.6918 272.051 65.9215C280.387 66.5522 280.708 78.631 272.588 79.436C269.703 79.722 266.25 79.4491 263.264 79.4995L263.264 109.545C275.925 116.149 279.963 125.223 274.545 138.606C290.943 147.426 292.507 160.137 293.344 176.155C310.822 186.266 326.295 197.466 339.737 212.718C344.336 217.937 349.48 220.985 343.998 228.076C346.005 230.204 351.395 238.097 352.52 240.705C344.66 246.736 351.094 251.132 354.444 257.947C363.468 276.302 365.227 287.028 368.891 307.088C352.992 310.202 351.501 322.071 351.515 336.059L351.538 347.699L336.941 347.699C336.94 339.574 336.711 330.261 336.941 322.253C321.7 293.829 292.73 304.867 293.344 329.808C286.675 323.686 285.526 322.813 277.056 319.798C265.127 295.106 234.611 304.93 234.29 327.73C229.859 326.555 228.374 322.498 218.505 321.425C214.31 313.938 211.303 309.119 202.585 306.477C184.175 300.897 174.858 315.794 174.572 332.077C169.757 328.444 166.034 326.344 160.722 323.651C157.039 314.183 153.768 310.152 143.694 307.088C143.831 297.221 147.924 281.442 151.565 272.195C154.416 264.953 158.48 262.455 154.672 255.312C154.678 252.566 159.739 244.319 161.802 241.91C157.796 241.022 156.665 239.133 155.685 235.422C159.166 218.244 203.958 183.849 218.757 176.155C218.577 160.696 222.696 146.614 237.343 138.606C232.121 126.017 236.357 114.454 249.403 109.545L249.403 79.4995C246.304 79.4833 243.215 79.696 240.09 79.4473C234.124 78.9973 225.186 65.4625 249.403 65.7489Z"/><path transform="scale(2 2)" d="M249.403 65.7489C249.384 62.6724 248.598 53.4994 251.175 50.6778C254.238 47.3228 260.648 48.0245 262.389 52.4786C263.583 55.53 263.272 62.0954 263.264 65.7489C266.249 65.8248 269.013 65.6918 272.051 65.9215C280.387 66.5522 280.708 78.631 272.588 79.436C269.703 79.722 266.25 79.4491 263.264 79.4995L263.264 109.545C275.925 116.149 279.963 125.223 274.545 138.606C290.943 147.426 292.507 160.137 293.344 176.155C310.822 186.266 326.295 197.466 339.737 212.718C344.336 217.937 349.48 220.985 343.998 228.076C341.673 229.233 338.123 230.49 335.97 228.216C319.929 211.278 302.649 195.106 280.996 185.615C279.591 185 266.175 184.992 264.487 185.203L243.151 185.193C230.375 185.175 231.048 184.857 219.899 191.399C201.29 202.319 185.648 215.964 172.303 232.953C168.909 237.274 167.674 241.381 161.802 241.91C157.796 241.022 156.665 239.133 155.685 235.422C159.166 218.244 203.958 183.849 218.757 176.155C218.577 160.696 222.696 146.614 237.343 138.606C232.121 126.017 236.357 114.454 249.403 109.545L249.403 79.4995C246.304 79.4833 243.215 79.696 240.09 79.4473C234.124 78.9973 225.186 65.4625 249.403 65.7489Z"/><path fill="#ECAF32" transform="scale(2 2)" d="M254.573 146.845C268.292 144.994 279.663 157.867 279.478 171.612L257.112 171.636C253.845 171.648 248.173 171.841 245.119 171.612C240.831 171.628 236.521 171.667 232.236 171.612C232.792 157.172 240.405 149.109 254.573 146.845Z"/><path fill="white" transform="scale(2 2)" d="M254.573 146.845L255.266 147.048C255.895 148.907 255.754 168.315 255.706 171.612C254.016 171.602 246.296 171.423 245.119 171.612C240.831 171.628 236.521 171.667 232.236 171.612C232.792 157.172 240.405 149.109 254.573 146.845Z"/><path fill="#FEC302" transform="scale(2 2)" d="M255.706 121.971C266.503 122.532 265.798 133.752 255.706 133.769C253.744 133.684 252.42 133.738 250.666 132.778C247.598 130.747 247.582 128.473 249.403 125.473C251.386 122.848 252.624 122.53 255.706 121.971Z"/><path fill="white" transform="scale(2 2)" d="M249.403 125.473C251.386 122.848 252.624 122.53 255.706 121.971C255.735 125.725 255.856 130.037 255.706 133.769C253.744 133.684 252.42 133.738 250.666 132.778C247.598 130.747 247.582 128.473 249.403 125.473Z"/><path fill="#FCF9EE" transform="scale(2 2)" d="M249.403 125.473C250.384 126.45 250.309 127.105 251.81 127.2L252.058 127.629C250.588 130.413 251.221 132.241 250.666 132.778C247.598 130.747 247.582 128.473 249.403 125.473Z"/><path fill="#10B3FA" transform="scale(2 2)" d="M264.487 185.203C266.175 184.992 279.591 185 280.996 185.615C302.649 195.106 319.929 211.278 335.97 228.216C338.123 230.49 341.673 229.233 343.998 228.076C346.005 230.204 351.395 238.097 352.52 240.705C344.66 246.736 351.094 251.132 354.444 257.947C363.468 276.302 365.227 287.028 368.891 307.088C352.992 310.202 351.501 322.071 351.515 336.059L351.538 347.699L336.941 347.699C336.94 339.574 336.711 330.261 336.941 322.253C340.872 324.033 344.276 325.555 348.006 327.73C348.261 273.723 322.283 217.297 274.051 190.403C271.025 188.715 267.642 187.309 264.787 185.405L264.487 185.203Z"/><path fill="white" transform="scale(2 2)" d="M175.673 258.8C180.924 258.332 185.326 262.664 183.785 267.545C181.156 275.87 178.307 297.059 170.397 299.49C166.653 299.68 163.472 298.278 162.188 294.471C160.907 290.676 168.371 266.318 170.577 262.114C171.699 259.976 173.519 259.465 175.673 258.8Z"/><path transform="scale(2 2)" d="M225.308 208.289C236.697 207.226 235.594 216.756 228.615 223.372C222.849 228.838 218.443 239.879 213.376 241.91C212.238 242.03 210.622 242.055 209.576 241.64C194.987 236.15 219.733 210.567 225.308 208.289Z"/><path transform="scale(2 2)" d="M254.573 200.817C259.336 200.093 263.289 203.187 263.214 208.112C263.066 217.728 266.921 233.984 257.945 238.131C254.77 238.738 251.525 238.164 249.966 234.962C249.018 233.016 248.971 206.586 249.925 204.483C250.887 202.36 252.525 201.6 254.573 200.817Z"/><path transform="scale(2 2)" d="M254.573 252.311C266.953 251.617 263.244 270.975 263.256 279.53C263.261 282.95 261.025 285.632 257.945 286.943C255.206 287.561 251.384 286.671 250.146 283.873C248.972 281.22 248.881 258.397 250.151 255.721C251.024 253.882 252.739 252.959 254.573 252.311Z"/><path transform="scale(2 2)" d="M286.388 211.269C293.923 210.76 302.762 225.705 305.571 231.56C307.829 236.268 305.53 239.853 301.079 241.91C292.683 243.691 290.389 231.203 284.86 225.117C280.462 220.275 278.632 213.838 286.388 211.269Z"/><path transform="scale(2 2)" d="M308.801 255.312C317.837 254.463 320.926 267.714 323.873 274.908C326.119 280.387 326.587 284.294 320.574 286.943C311.125 288.72 309.564 273.876 304.983 265.99C302.358 261.471 303.942 257.447 308.801 255.312Z"/><path transform="scale(2 2)" d="M199.153 254.315C212.344 254.65 204.694 267.218 202.522 273.07C200.493 278.535 201.184 283.895 194.379 285.508C178.64 284.709 191.947 256.058 199.153 254.315Z"/><path fill="#FEC302" transform="scale(2 2)" d="M120.419 386.285C120.339 382.143 120.012 370.7 120.998 366.021C122.801 357.454 131.449 369.063 131.404 347.631L131.374 334.351C131.368 331.798 131.24 329.099 131.654 326.589C132.925 319.28 147.429 313.76 147.388 333.794L147.372 347.188C147.322 367.068 155.746 360.723 174.403 361.004C186.435 361.185 188.122 361.582 188.075 349.229L188.007 334.798C187.988 330.796 187.179 325.382 189.989 322.063C192.793 318.752 198.782 318.312 202.008 321.212C206.904 325.614 204.724 346.124 204.974 353.304C205.347 364.052 216.702 361.037 225.09 361.04C229.575 361.042 243.574 362.675 246.489 358.613C252.184 350.681 240.313 319.651 256.257 319.092C265.337 318.773 264.559 328.844 264.53 334.901L264.396 352.899C264.407 357.518 265.767 360.711 270.836 360.879C280.633 361.136 290.52 361.106 300.324 360.946C307.149 360.835 306.825 353.671 306.8 348.948L306.728 334.626C306.702 328.346 306.019 319.369 314.712 319.359C333.828 320.468 314.534 359.284 329.215 360.808C332.649 361.164 337.946 361.044 341.368 361.039L364.103 361.021C372.596 363.037 369.956 383.724 369.983 390.041C380.075 379.626 388.439 400.288 374.913 399.977C372.542 399.923 371.402 398.454 369.983 396.791C370.009 404.04 371.138 408.709 366.534 414.485C361.699 414.549 358.421 414.746 357.525 420.347C351.403 420.322 342.867 420.654 336.941 420.347C333.746 412.384 325.904 414.477 318.286 414.479L145.999 414.492C129.009 414.488 120.303 419.14 120.419 399.518L242.343 399.523C247.713 399.522 253.073 399.574 258.435 399.403C266.039 399.159 266.197 386.443 257.532 386.271C252.701 386.175 247.858 386.282 243.024 386.291L120.419 386.285Z"/><path fill="#ECAF32" transform="scale(2 2)" d="M364.103 361.021C375.301 361.011 391.833 357.23 391.683 372.033C391.636 376.666 391.688 382.156 391.676 386.894C380.662 387.604 382.594 400.186 391.676 399.518C392.259 411.841 391.574 414.426 378.375 414.496L366.534 414.485C371.138 408.709 370.009 404.04 369.983 396.791C371.402 398.454 372.542 399.923 374.913 399.977C388.439 400.288 380.075 379.626 369.983 390.041C369.956 383.724 372.596 363.037 364.103 361.021Z"/><path fill="#10B3FA" transform="scale(2 2)" d="M218.505 321.425C228.374 322.498 229.859 326.555 234.29 327.73L234.29 347.699L218.505 347.699C218.513 339.148 218.296 329.91 218.505 321.425Z"/><path fill="#10B3FA" transform="scale(2 2)" d="M277.056 319.798C285.526 322.813 286.675 323.686 293.344 329.808C293.463 335.647 293.36 341.836 293.344 347.699L278.071 347.699C278.048 339.675 278.773 327.095 277.056 319.798Z"/><path fill="#10B3FA" transform="scale(2 2)" d="M160.722 323.651C166.034 326.344 169.757 328.444 174.572 332.077L174.572 347.699L160.722 347.699L160.722 323.651Z"/><path fill="#FEC302" transform="scale(2 2)" d="M372.282 319.798C381.765 320.065 380.842 328.621 380.799 335.32L380.764 347.699C378.218 347.608 375.954 347.644 373.418 347.699C370.658 347.606 367.723 347.678 364.949 347.699C364.979 338.416 361.331 321.986 372.282 319.798Z"/></svg>