<?xml version="1.0" encoding="utf-8" ?><svg xmlns="http://www.w3.org/2000/svg" xmlns:xlink="http://www.w3.org/1999/xlink" width="1024" height="1024" viewBox="0 0 1024 1024"><path fill="#BCDEF6" transform="scale(2 2)" d="M107.061 166.627C86.0019 161.255 124.159 126.592 130.172 120.764C187.109 65.5428 279.371 54.8057 347.626 94.9503C351.298 97.1097 350.277 102.264 348.747 105.391C352.146 106.694 364.331 115.582 367.447 118.327C370.054 116.038 374.142 114.712 377.089 117.237C436.505 168.127 458.31 256.39 425.608 328.135C422.709 334.497 420.834 341.287 411.988 338.728C409.4 343.466 404.514 352.845 401.382 357.06C403.704 359.012 404.799 362.06 404.25 365.043C403.7 368.026 401.591 370.484 398.726 371.48C395.86 372.476 392.681 371.856 390.4 369.857C386.551 374.211 379.183 383.456 374.436 386.285C382.563 395.637 364.825 404.631 358.05 409.069C279.298 460.652 170.12 443.877 111.512 370.028C108.248 365.914 109.729 360.964 113.924 358.234C108.962 352.53 105.179 343.344 101.71 336.566C92.4313 345.279 88.8204 335.041 85.8311 328.18C75.9316 305.459 71.3892 280.563 70.8205 255.87C70.6756 249.576 70.9411 240.094 80.523 242.123C81.9799 235.366 81.9365 227.589 83.9427 219.476C75.333 217.381 76.9725 209.847 79.1575 203.528C81.8455 195.755 84.0756 180.16 95.725 187.188C98.1328 182.07 102.695 169.873 107.061 166.627Z"/><path fill="#94D8F7" transform="scale(2 2)" d="M313.662 96.2342C323.435 99.244 332.189 104.567 341.496 108.546C343.681 109.48 347.194 106.996 348.747 105.391C352.146 106.694 364.331 115.582 367.447 118.327C370.054 116.038 374.142 114.712 377.089 117.237C436.505 168.127 458.31 256.39 425.608 328.135C422.709 334.497 420.834 341.287 411.988 338.728C409.4 343.466 404.514 352.845 401.382 357.06C403.704 359.012 404.799 362.06 404.25 365.043C403.7 368.026 401.591 370.484 398.726 371.48C395.86 372.476 392.681 371.856 390.4 369.857C386.551 374.211 379.183 383.456 374.436 386.285C365.687 379.595 355.973 391.977 347.635 397.305C329.957 408.601 309.601 416.645 288.966 420.225C289.288 418.22 291.889 418.027 293.501 417.598C343.629 404.178 381.004 360.045 396.311 311.726C417.889 243.616 397.093 175.526 346.981 126.64C342.937 122.695 314.36 97.856 313.662 96.2342Z"/><path transform="scale(2 2)" d="M367.447 118.327C370.054 116.038 374.142 114.712 377.089 117.237C436.505 168.127 458.31 256.39 425.608 328.135C422.709 334.497 420.834 341.287 411.988 338.728C403.659 333.157 409.233 326.49 412.284 319.662C440.468 256.592 421.413 178.18 371.022 131.935C366.545 127.826 363.36 124.249 367.447 118.327Z"/><path transform="scale(2 2)" d="M390.4 369.857C386.923 366.81 386.548 361.532 389.558 358.024C392.569 354.516 397.843 354.086 401.382 357.06C403.704 359.012 404.799 362.06 404.25 365.043C403.7 368.026 401.591 370.484 398.726 371.48C395.86 372.476 392.681 371.856 390.4 369.857Z"/><path transform="scale(2 2)" d="M113.924 358.234C120.309 355.783 122.768 359.621 126.493 364.016C166.339 411.043 228.673 431.974 288.966 420.225C309.601 416.645 329.957 408.601 347.635 397.305C355.973 391.977 365.687 379.595 374.436 386.285C382.563 395.637 364.825 404.631 358.05 409.069C279.298 460.652 170.12 443.877 111.512 370.028C108.248 365.914 109.729 360.964 113.924 358.234Z"/><path transform="scale(2 2)" d="M107.061 166.627C86.0019 161.255 124.159 126.592 130.172 120.764C187.109 65.5428 279.371 54.8057 347.626 94.9503C351.298 97.1097 350.277 102.264 348.747 105.391C347.194 106.996 343.681 109.48 341.496 108.546C332.189 104.567 323.435 99.244 313.662 96.2342C246.022 70.14 165.428 95.0326 122.229 151.927C117.198 158.552 115.307 165.891 107.061 166.627Z"/><path transform="scale(2 2)" d="M101.71 336.566C92.4313 345.279 88.8204 335.041 85.8311 328.18C75.9316 305.459 71.3892 280.563 70.8205 255.87C70.6756 249.576 70.9411 240.094 80.523 242.123C86.4568 244.715 86.4562 247.741 86.4005 253.556C86.1812 276.454 90.4355 299.876 99.496 320.945C101.831 326.374 105.731 330.854 101.71 336.566Z"/><path transform="scale(2 2)" d="M83.9427 219.476C75.333 217.381 76.9725 209.847 79.1575 203.528C81.8455 195.755 84.0756 180.16 95.725 187.188C100.848 193.347 97.5833 196.889 94.9488 204.175C92.2943 211.516 93.7363 219.099 83.9427 219.476Z"/><path fill="#FEC302" transform="scale(2 2)" d="M237.188 192.697C191.919 190.622 195.843 130.709 233.627 129.621C243.324 129.446 253.046 129.575 262.744 129.594C269.733 129.608 272.951 132.071 272.991 139.21C280.173 139.457 285.852 141.03 292.608 142.985C295.135 136.268 299.992 136.449 306.039 138.734C336.725 150.331 361.322 173.878 374.732 203.764C378.775 212.774 393.512 246.367 378.474 250.464C378.577 258.415 378.238 265.393 377.641 273.303C385.577 277.858 383.143 282.865 380.967 289.766C366.621 335.266 331.529 368.973 284.496 379.881C274.127 382.548 241.561 383.959 229.963 381.675C196.942 375.172 195.437 325.702 229.701 318.57C235.261 317.373 239.029 317.986 244.438 317.702C243.467 317.027 237.67 317.76 236.582 317.218C230.187 314.03 222.675 309.267 217.449 304.613C186.387 276.951 189.753 223.791 224.281 200.291C227.149 198.339 235.564 194.916 237.188 192.697Z"/><path fill="white" transform="scale(2 2)" d="M237.188 192.697C243.24 192.643 249.354 191.497 255.406 191.389C284.49 190.87 310.269 209.119 318.422 237.077C330.769 279.414 300.748 317.636 256.961 317.704L244.438 317.702C243.467 317.027 237.67 317.76 236.582 317.218C230.187 314.03 222.675 309.267 217.449 304.613C186.387 276.951 189.753 223.791 224.281 200.291C227.149 198.339 235.564 194.916 237.188 192.697Z"/><path transform="scale(2 2)" d="M237.188 192.697C191.919 190.622 195.843 130.709 233.627 129.621C243.324 129.446 253.046 129.575 262.744 129.594C269.733 129.608 272.951 132.071 272.991 139.21L272.857 139.52C270.152 145.571 265.134 144.752 259.479 144.734L244.251 144.679C234.966 144.649 225.897 143.799 221.187 153.846C217.275 162.19 220.896 171.992 229.39 175.668C237.066 178.908 249.044 176.619 257.504 176.563C314.086 176.193 352.306 234.719 330.108 286.575C318.661 313.315 293.003 331.125 263.938 332.808C252.827 333.325 233.465 330.445 225.454 337.715C217.231 345.178 218.043 357.067 226.88 363.638C233.198 368.336 240.127 367.26 247.534 367.41C266.379 367.596 281.313 366.668 299.314 359.201C330.617 346.429 355.554 319.148 365.557 286.816C367.701 279.886 367.908 272.012 377.641 273.303C385.577 277.858 383.143 282.865 380.967 289.766C366.621 335.266 331.529 368.973 284.496 379.881C274.127 382.548 241.561 383.959 229.963 381.675C196.942 375.172 195.437 325.702 229.701 318.57C235.261 317.373 239.029 317.986 244.438 317.702L256.961 317.704C300.748 317.636 330.769 279.414 318.422 237.077C310.269 209.119 284.49 190.87 255.406 191.389C249.354 191.497 243.24 192.643 237.188 192.697Z"/><path transform="scale(2 2)" d="M292.608 142.985C295.135 136.268 299.992 136.449 306.039 138.734C336.725 150.331 361.322 173.878 374.732 203.764C378.775 212.774 393.512 246.367 378.474 250.464C367.601 250.833 369.188 237.414 367.445 229.96C360.119 198.59 338.509 170.476 309.357 156.471C301.876 152.877 292.072 153.125 292.608 142.985Z"/><path transform="scale(2 2)" d="M141.147 322.586C146.557 322.848 153.487 332.585 157.79 336.693C160.036 338.837 169.029 345.472 169.267 348.522C170.03 354.052 167.09 357.126 161.812 358.234C155.115 358.005 118.307 325.239 141.147 322.586Z"/></svg>