<?xml version="1.0" encoding="utf-8" ?><svg xmlns="http://www.w3.org/2000/svg" xmlns:xlink="http://www.w3.org/1999/xlink" width="1024" height="1024" viewBox="0 0 1024 1024"><path fill="#94C7F4" transform="scale(2 2)" d="M277.226 83.5049C273.596 65.1316 351.913 58.6076 372.037 113.721C376.062 115.329 379.178 117.991 382.679 120.405C409.695 139.07 428.095 122.769 438.614 131.098C444.321 135.617 447.615 143.653 444.568 150.595C438.111 165.306 419.562 170.395 405.905 175.348C406.216 185.023 408.252 196.089 407.432 205.594C394.911 203.347 377.217 197.812 366.046 191.13C357.584 196.246 353.926 200.222 343.768 204.787C362.82 236.746 374.558 277.228 365.271 314.375C353.095 363.082 311.498 394.517 262.587 401.324L262.587 402.075L292.24 402.095C296.841 402.087 304.957 401.525 309.225 402.42C330.014 406.78 329.281 440.52 303.242 440.65L220.899 440.626C201.948 440.655 193.69 438.168 193.726 415.334L193.753 403.093C188.686 402.791 182.23 401.433 177.279 400.619C126.983 392.353 82.0824 362.958 71.0158 311.189C69.8479 304.978 67.4568 293.451 78.8375 296.414L79.0525 296.251C79.3845 295.38 79.2978 281.948 78.8375 280.803C74.4986 285.802 65.7965 284.031 66.179 276.475C66.6268 267.627 66.7846 258.533 67.777 249.729C70.3039 227.312 102.83 227.569 105.083 250.923C105.619 256.473 104.847 260.078 107.067 265.441C113.287 265.159 121.719 265.433 128.158 265.433L170.687 265.432C197.251 265.428 221.599 266.459 245.24 251.978C271.253 236.043 272.02 229.967 255.762 209.356C230.383 177.181 223.559 129.526 251.243 96.4701C254.649 92.4027 256.776 89.0279 262.587 90.5318C266.011 88.7295 273.627 82.6619 277.226 83.5049Z"/><path transform="scale(2 2)" d="M277.226 83.5049C273.596 65.1316 351.913 58.6076 372.037 113.721C376.062 115.329 379.178 117.991 382.679 120.405C409.695 139.07 428.095 122.769 438.614 131.098C444.321 135.617 447.615 143.653 444.568 150.595C438.111 165.306 419.562 170.395 405.905 175.348C406.216 185.023 408.252 196.089 407.432 205.594C394.911 203.347 377.217 197.812 366.046 191.13C357.584 196.246 353.926 200.222 343.768 204.787C362.82 236.746 374.558 277.228 365.271 314.375C353.095 363.082 311.498 394.517 262.587 401.324L262.587 402.075L292.24 402.095C296.841 402.087 304.957 401.525 309.225 402.42C330.014 406.78 329.281 440.52 303.242 440.65L220.899 440.626C201.948 440.655 193.69 438.168 193.726 415.334L193.753 403.093C188.686 402.791 182.23 401.433 177.279 400.619C126.983 392.353 82.0824 362.958 71.0158 311.189C69.8479 304.978 67.4568 293.451 78.8375 296.414C84.0719 299.872 82.7395 305.285 84.1666 310.826C92.2136 342.072 114.863 366.569 144.698 378.226C150.145 381.298 159.514 383.133 165.651 384.857C202.403 395.182 256.466 394.936 291.53 379.844C357.285 352.235 368.773 286.843 340.516 225.957C336.874 218.109 322.446 198.413 327.385 189.673C328.758 187.245 334.6 185.615 336.979 184.126C375.17 162.777 371.064 104.536 330.073 87.8288C318.241 83.0918 305.185 81.9207 292.77 84.8207C285.668 86.4795 283.357 90.438 277.226 83.5049Z"/><path fill="#FEC302" transform="scale(2 2)" d="M366.046 175.348C382.245 178.03 389.735 178.545 405.905 175.348C406.216 185.023 408.252 196.089 407.432 205.594C394.911 203.347 377.217 197.812 366.046 191.13C357.584 196.246 353.926 200.222 343.768 204.787C342.201 202.574 340.817 199.83 339.904 197.278C352.988 189.181 355.419 188.683 366.046 175.348Z"/><path fill="white" transform="scale(2 2)" d="M258.792 402.075C260.337 401.648 261.021 401.535 262.587 401.324L262.587 402.075L258.746 402.012L258.792 402.075Z"/><path fill="#FEC302" transform="scale(2 2)" d="M206.742 405.256C211.687 404.866 216.801 405.275 221.806 405.256L221.806 414.56L275.424 414.554C280.439 414.554 305.458 413.35 308.68 416.119C312.003 418.975 311.429 422.812 308.994 425.94C304.983 428.844 289.055 427.613 283.672 427.61L225.86 427.613C204.161 427.607 206.637 428.951 206.742 405.256Z"/><path fill="#FEC302" transform="scale(2 2)" d="M376.45 131.42C392.012 143.001 411.34 146.078 429.965 141.183C437.281 146.494 425.422 152.715 421.123 155.221C406.892 163.571 388.165 165.57 372.037 163.106C375.509 149.626 376.63 146.38 376.45 131.42Z"/><path transform="scale(2 2)" d="M107.067 265.441C113.287 265.159 121.719 265.433 128.158 265.433L170.687 265.432C197.251 265.428 221.599 266.459 245.24 251.978C271.253 236.043 272.02 229.967 255.762 209.356C230.383 177.181 223.559 129.526 251.243 96.4701C254.649 92.4027 256.776 89.0279 262.587 90.5318C270.697 97.0786 263.599 101.097 259.301 106.773C237.581 135.454 244.957 174.194 265.47 201.146C284.139 225.272 286.376 237.892 259.661 258.098C234 277.507 205.903 278.317 175.537 278.316L135.232 278.308C132.535 281.355 130.772 283.863 130.08 287.95C130.246 293.353 145.389 301.321 149.741 303.554C152.669 305.056 155.974 305.215 158.671 307.31C162.764 312.704 159.608 318.451 152.831 318.238C150.169 317.518 148.578 316.971 146.002 315.946C135.936 324.159 148.622 334.105 155.731 338.418C175.786 350.586 190.598 347.944 212.467 348.559C220.981 348.691 234.085 349.492 242.284 347.358C259.608 342.851 272.733 331.134 276.348 313.257C277.312 309.762 276.597 304.473 278.483 301.409C281.941 295.789 291.13 297.294 290.341 308.813C288.53 335.254 267.594 356.457 241.698 360.661C232.694 362.123 223.582 361.392 214.498 361.576C189.42 361.506 167.17 362.711 145.323 346.992C131.977 337.39 123.35 323.939 134.411 309.105C124.357 302.997 118.438 300.77 117.32 287.95C117.533 283.546 118.051 282.347 119.867 278.308C114.986 278.27 108.087 278.6 103.488 278.2C90.5972 277.08 93.0614 251.445 91.1929 248.917C89.0142 246.261 86.1552 244.492 83.088 246.939C78.6148 250.508 79.5744 274.319 78.8375 280.803C74.4986 285.802 65.7965 284.031 66.179 276.475C66.6268 267.627 66.7846 258.533 67.777 249.729C70.3039 227.312 102.83 227.569 105.083 250.923C105.619 256.473 104.847 260.078 107.067 265.441Z"/><path fill="#BCDEF6" transform="scale(2 2)" d="M262.587 90.5318C266.011 88.7295 273.627 82.6619 277.226 83.5049C283.357 90.438 285.668 86.4795 292.77 84.8207C305.185 81.9207 318.241 83.0918 330.073 87.8288C328.526 89.4619 313.341 89.4003 309.314 89.9556C279.155 94.1147 256.538 120.112 257.694 150.662C258.417 169.757 267.411 186.091 278.298 201.243C292.412 220.887 296.803 235.274 277.646 255.972C251.107 284.645 217.627 287.957 181.713 287.953L142.682 287.948C141.523 287.949 130.436 288.592 130.08 287.95C130.772 283.863 132.535 281.355 135.232 278.308L175.537 278.316C205.903 278.317 234 277.507 259.661 258.098C286.376 237.892 284.139 225.272 265.47 201.146C244.957 174.194 237.581 135.454 259.301 106.773C263.599 101.097 270.697 97.0786 262.587 90.5318Z"/><path fill="#BCDEF6" transform="scale(2 2)" d="M78.8375 280.803C79.5744 274.319 78.6148 250.508 83.088 246.939C86.1552 244.492 89.0142 246.261 91.1929 248.917C93.0614 251.445 90.5972 277.08 103.488 278.2C108.087 278.6 114.986 278.27 119.867 278.308C118.051 282.347 117.533 283.546 117.32 287.95C111.967 287.914 104.167 288.257 99.1205 287.95C94.9731 284.293 91.609 275.096 90.0038 269.89C89.438 309.399 101.979 343.993 133.323 368.045C135.581 369.778 146.28 376.097 144.698 378.226C114.863 366.569 92.2136 342.072 84.1666 310.826C82.7395 305.285 84.0719 299.872 78.8375 296.414L79.0525 296.251C79.3845 295.38 79.2978 281.948 78.8375 280.803Z"/><path fill="#BCDEF6" transform="scale(2 2)" d="M158.671 307.31C169.211 303.044 172.411 319.833 163.414 322.87C159.591 324.161 153.633 322.928 152.831 318.238C159.608 318.451 162.764 312.704 158.671 307.31Z"/><path transform="scale(2 2)" d="M331.335 113.721C344.437 109.022 350.229 135.94 333.718 139.196C317.358 140.669 316.186 113.408 331.335 113.721Z"/></svg>