<?xml version="1.0" encoding="utf-8" ?><svg xmlns="http://www.w3.org/2000/svg" xmlns:xlink="http://www.w3.org/1999/xlink" width="1024" height="1024" viewBox="0 0 1024 1024"><path fill="#BCDEF6" transform="scale(2 2)" d="M258.133 243.295C218.58 171.393 275.284 93.9445 355.762 104.732C365.529 105.53 367.822 120.378 351.73 118.359C281.478 109.542 235.339 180.799 271.748 239.609C276.673 247.51 268.623 251.326 265.044 257.323C247.047 287.478 243.973 320.501 265.06 350.767C265.375 350.411 265.733 349.861 266.017 349.459C253.613 323.781 252.782 291.779 269.385 268.319C283.635 248.186 286.082 256.572 272.515 233.37C264.64 217.276 264.107 196.3 269.052 179.256C283.396 129.815 342.744 110.286 386.01 134.944C387.989 136.072 393.707 140.262 395.626 140.764C395.28 139.768 394.923 138.776 394.619 137.766C400.803 114.659 422.329 152.57 425.861 159.475C429.381 160.931 434.722 172.107 436.283 175.848C445.365 197.61 446.333 221.639 436.964 243.496C435.539 246.819 432.298 253.662 429.533 256.014C431.206 258.703 433.946 262.682 435.125 265.444C438.158 265.62 443.188 275.615 444.556 278.487C472.243 336.633 434.024 404.634 369.376 409.62C337.526 412.077 304.937 411.338 280.513 387.94C282.179 387.238 282.29 388.432 284.027 388.208L284.321 387.804L283.974 386.961C281.16 385.316 278.091 383.128 275.317 381.311C270.127 376.965 263.479 371.528 259.126 366.44C228.81 331.015 229.112 279.588 258.133 243.295ZM308.851 336.25C309.191 337.164 310.351 337.779 311.028 338.423C322.105 348.993 354.319 348.544 369.116 346.18C401.369 340.694 405.328 294.932 387.317 290.983C396.158 312.006 385.928 336.918 362.244 339.052C351.864 339.988 331.215 339.783 320.639 339.001C316.859 338.721 312.608 336.995 308.851 336.25ZM316.765 224.469C318.559 234.787 339.427 234.504 346.764 234.533C360.09 234.586 372.36 233.354 380.578 221.288C387.605 210.971 388.063 187.443 376.6 179.962C377.899 185.336 378.215 200.783 377.088 206.304C371.722 232.572 336.965 230.813 316.765 224.469Z"/><path transform="scale(2 2)" d="M258.133 243.295C218.58 171.393 275.284 93.9445 355.762 104.732C365.529 105.53 367.822 120.378 351.73 118.359C281.478 109.542 235.339 180.799 271.748 239.609C276.673 247.51 268.623 251.326 265.044 257.323C247.047 287.478 243.973 320.501 265.06 350.767C265.966 351.981 266.91 353.319 267.918 354.437C280.643 374.178 309.4 383.836 331.582 385.131C357.379 386.637 382.917 382.685 402.988 365.018C435.547 336.599 439.463 283.292 408.426 252.138C401.973 245.661 407.602 239.659 410.996 233.243C428.633 199.91 418.985 167.219 395.626 140.764C395.28 139.768 394.923 138.776 394.619 137.766C400.803 114.659 422.329 152.57 425.861 159.475C429.381 160.931 434.722 172.107 436.283 175.848C445.365 197.61 446.333 221.639 436.964 243.496C435.539 246.819 432.298 253.662 429.533 256.014C431.206 258.703 433.946 262.682 435.125 265.444C438.158 265.62 443.188 275.615 444.556 278.487C472.243 336.633 434.024 404.634 369.376 409.62C337.526 412.077 304.937 411.338 280.513 387.94C282.179 387.238 282.29 388.432 284.027 388.208L284.321 387.804L283.974 386.961C281.16 385.316 278.091 383.128 275.317 381.311C270.127 376.965 263.479 371.528 259.126 366.44C228.81 331.015 229.112 279.588 258.133 243.295Z"/><path fill="#BCDEF6" transform="scale(2 2)" d="M435.125 265.444C438.158 265.62 443.188 275.615 444.556 278.487C472.243 336.633 434.024 404.634 369.376 409.62C337.526 412.077 304.937 411.338 280.513 387.94C282.179 387.238 282.29 388.432 284.027 388.208L284.321 387.804L283.974 386.961C309.15 401.358 358.243 403.386 385.344 392.407C437.711 371.193 455.817 315.82 435.125 265.444Z"/><path fill="#BCDEF6" transform="scale(2 2)" d="M425.861 159.475C429.381 160.931 434.722 172.107 436.283 175.848C445.365 197.61 446.333 221.639 436.964 243.496C435.539 246.819 432.298 253.662 429.533 256.014C426.56 251.685 424.435 248.657 420.923 244.726C436.607 216.214 436.852 189.098 425.861 159.475Z"/><path fill="white" transform="scale(2 2)" d="M266.017 349.459C266.729 350.823 268.093 352.969 267.918 354.437C266.91 353.319 265.966 351.981 265.06 350.767C265.375 350.411 265.733 349.861 266.017 349.459Z"/><path transform="scale(2 2)" d="M308.851 336.25C306.428 332.546 299.91 330.434 296.556 324.084C286.164 304.407 293.663 279.045 317.055 274.674C324.763 273.64 332.769 273.952 340.521 273.971C361.147 274.02 375.194 271.108 387.317 290.983C396.158 312.006 385.928 336.918 362.244 339.052C351.864 339.988 331.215 339.783 320.639 339.001C316.859 338.721 312.608 336.995 308.851 336.25Z"/><path fill="white" transform="scale(2 2)" d="M317.751 323.962C299.476 317.171 303.227 288.301 322.799 287.92C335.224 287.678 348.469 287.733 360.927 288.14C368.577 288.39 374.435 294.791 376.6 301.847C379.262 319.561 365.489 327.102 350.173 325.499C342.388 324.685 324.388 327.139 317.751 323.962Z"/><path fill="#BCDEF6" transform="scale(2 2)" d="M317.751 323.962C299.476 317.171 303.227 288.301 322.799 287.92C335.224 287.678 348.469 287.733 360.927 288.14C368.577 288.39 374.435 294.791 376.6 301.847C366.62 298.742 341.184 298.67 329.991 299.977C318.874 301.07 313.822 313.125 317.36 322.865L317.751 323.962Z"/><path transform="scale(2 2)" d="M316.765 224.469C312.925 220.32 308.837 218.923 305.745 213.289C293.144 190.329 305.965 161.394 333.429 161.721C352.119 161.512 368.087 159.75 376.6 179.962C377.899 185.336 378.215 200.783 377.088 206.304C371.722 232.572 336.965 230.813 316.765 224.469Z"/><path fill="white" transform="scale(2 2)" d="M326.069 212.462C311.153 207.351 311.589 182.861 325.016 177.275C330.279 175.085 335.202 175.658 340.747 175.624C351.882 175.883 358.94 174.232 363.731 185.76C363.319 205.133 366.902 214.652 340.804 213.829C335.954 213.677 331.503 213.832 326.069 212.462Z"/><path fill="#BCDEF6" transform="scale(2 2)" d="M326.069 212.462C311.153 207.351 311.589 182.861 325.016 177.275C330.279 175.085 335.202 175.658 340.747 175.624C351.882 175.883 358.94 174.232 363.731 185.76C337.957 188.55 323.81 177.637 326.069 212.462Z"/><path transform="scale(2 2)" d="M81.8118 211.32C57.2782 198.973 50.2563 167.963 71.8151 149.68C75.162 146.842 78.268 145.096 81.9488 142.764L116.822 120.516C123.511 116.164 134.064 108.918 141.075 106.197C162.282 97.9671 185.085 110.117 192.845 131.055C205.249 142.09 202.598 161.06 202.596 176.263L202.586 336.25C215.511 339.096 221.865 344.699 228.061 356.271C246.448 364.516 247.183 399.919 222.744 409.003C216.321 411.391 206.233 410.644 199.24 410.639L147.006 410.643C134.588 410.652 117.997 412.54 109.68 401.58C108.468 400.31 106.976 398.047 107.109 396.234C76.181 380.456 83.6382 335.892 122.001 336.25C122.507 313.088 121.363 289.642 121.732 266.584C121.814 261.44 123.926 259.908 128.457 258.585C133.881 260.076 135.456 261.46 135.469 267.27C135.521 291.433 135.522 315.6 135.452 339.763C135.409 354.463 121.384 348.173 112.788 351.502C98.654 356.575 98.6805 376.437 111.891 382.677L111.348 381.789C108.202 376.633 107.881 368.797 112.155 364.146C120.797 354.74 144.449 367.398 145.505 346.644C145.764 338.123 145.639 329.514 145.632 320.982L145.632 229.42C145.632 218.198 149.929 199.094 135.488 198.363L135.518 211.253C135.58 216.745 137.22 223.655 128.647 223.927C126.089 224.008 123.886 222.023 122.52 219.984C114.11 228.26 92.082 225.011 84.2551 215.71C83.0451 214.273 81.6977 213.294 81.8118 211.32ZM179.399 135.515C175.43 122.112 160.903 115.118 147.664 118.622C143.135 119.82 136.457 124.748 132.293 127.356L88.9874 154.987C83.577 158.461 79.1385 160.521 75.9693 166.488C71.1043 175.647 72.589 187.321 80.9014 193.957C75.346 176.17 87.0869 168.609 99.3862 160.771L140.19 134.772C147.04 130.358 149.995 127.021 158.479 126.932C168.068 126.832 172.72 128.919 179.399 135.515ZM213.733 359.985C204.324 342.676 190.516 356.283 181.562 345.571C180.819 360.466 193.458 360.088 204.773 359.98C207.048 359.957 211.707 360.464 213.733 359.985Z"/><path fill="#FEC302" transform="scale(2 2)" d="M80.9014 193.957C75.346 176.17 87.0869 168.609 99.3862 160.771L140.19 134.772C147.04 130.358 149.995 127.021 158.479 126.932C168.068 126.832 172.72 128.919 179.399 135.515C180.994 140.749 180.539 155.108 180.532 161.185L180.516 326.358C180.516 331.478 180.151 340.912 181.562 345.571C180.819 360.466 193.458 360.088 204.773 359.98C207.048 359.957 211.707 360.464 213.733 359.985C219.24 371.41 211.401 384.691 198.734 385.102C194.076 385.253 189.482 385.221 184.823 385.218L133.914 385.224C127.924 385.232 116.891 386.198 111.891 382.677L111.348 381.789C108.202 376.633 107.881 368.797 112.155 364.146C120.797 354.74 144.449 367.398 145.505 346.644C145.764 338.123 145.639 329.514 145.632 320.982L145.632 229.42C145.632 218.198 149.929 199.094 135.488 198.363L135.565 195.191C135.773 182.713 125.515 183.516 118.246 189.302C108.277 197.238 91.5314 204.984 80.9014 193.957Z"/><path fill="#BCDEF6" transform="scale(2 2)" d="M228.061 356.271C246.448 364.516 247.183 399.919 222.744 409.003C216.321 411.391 206.233 410.644 199.24 410.639L147.006 410.643C134.588 410.652 117.997 412.54 109.68 401.58C108.468 400.31 106.976 398.047 107.109 396.234C108.431 396.754 110.684 397.562 111.891 398.154C115.577 398.064 119.468 398.98 123.243 398.98L181.766 398.965C198.879 398.973 215.236 401.396 225.341 383.952C230.79 374.546 230.607 366.425 228.061 356.271Z"/><path fill="#FEC302" transform="scale(2 2)" d="M192.845 131.055C205.249 142.09 202.598 161.06 202.596 176.263L202.586 336.25C199.12 335.855 197.928 335.837 194.456 336.25C194.316 331.214 194.452 325.406 194.453 320.314L194.466 160.773C194.469 150.063 195.193 141.559 192.845 131.055Z"/><path fill="#BCDEF6" transform="scale(2 2)" d="M81.8118 211.32C100.921 218.099 107.56 211.04 122.001 203.304C122.006 207.709 121.529 216.157 122.52 219.984C114.11 228.26 92.082 225.011 84.2551 215.71C83.0451 214.273 81.6977 213.294 81.8118 211.32Z"/><path transform="scale(2 2)" d="M379.186 113.517C389.571 113.003 395.021 125.235 384.146 129.39C372.198 129.007 368.872 116.966 379.186 113.517Z"/><path transform="scale(2 2)" d="M127.885 233.985C130.431 233.638 132.967 234.688 134.521 236.734C136.076 238.78 136.409 241.505 135.392 243.865C134.375 246.225 132.166 247.855 129.611 248.13C125.737 248.547 122.247 245.776 121.775 241.908C121.303 238.041 124.024 234.511 127.885 233.985Z"/></svg>