<?xml version="1.0" encoding="utf-8" ?><svg xmlns="http://www.w3.org/2000/svg" xmlns:xlink="http://www.w3.org/1999/xlink" width="1024" height="1024" viewBox="0 0 1024 1024"><defs><linearGradient id="gradient_0" gradientUnits="userSpaceOnUse" x1="310.27884" y1="401.74951" x2="432.71881" y2="228.47293"><stop offset="0" stop-color="#68BCF6"/><stop offset="1" stop-color="#BDE0F9"/></linearGradient></defs><path fill="url(#gradient_0)" transform="scale(2 2)" d="M366.735 185.324C368.043 176.978 370.76 169.824 377.794 164.642C394.817 152.1 411.558 167.525 409.75 187.887C426.966 170.557 454.775 192.987 438.468 218.496C474.973 214.328 469.57 259.08 440.894 263.969C437.167 264.619 436.629 274.96 434.242 279.985C441.985 279.835 443.609 285.206 442.5 291.492C438.45 314.45 433.864 337.356 429.518 360.267L424.354 387.713C423.051 394.428 421.868 402.897 419.018 408.966C404.715 439.422 373.214 457.208 339.496 451.859C300.376 445.653 275.92 402.194 293.554 365.885C296.16 360.519 299.589 356.233 302.712 351.215C311.728 336.733 321.08 307.091 305.715 293.896C291.833 281.974 288.704 277.892 289.161 258.072C289.586 239.634 295.425 222.999 316.414 219.06C325.651 217.326 346.453 218.712 355.301 220.321C355.213 212.673 361.889 190.994 366.735 185.324Z"/><path fill="#BCDEF6" transform="scale(2 2)" d="M357.851 436.993C328.818 437.694 303.395 424.307 303.205 391.383C303.131 378.597 307.684 371.075 314.701 360.903C327.708 339.499 337.415 304.896 318.348 284.217C314.615 280.216 307.909 277.19 305.912 271.743C303.664 265.611 303.572 251.796 305.836 245.753C309.721 235.378 317.902 234.475 327.678 234.643C338.139 234.823 351.66 234.221 361.659 238.189C361.697 238.305 361.735 238.421 361.773 238.537C374.468 259.701 377.958 269.262 377.902 293.228C377.873 305.877 372.976 371.104 380.913 378.926C381.633 380.682 382.109 381.588 383.303 383.126C387.567 402.036 379.593 415.842 366.306 429.359C364.321 431.379 359.055 434.91 357.851 436.993Z"/><path transform="scale(2 2)" d="M434.242 279.985C441.985 279.835 443.609 285.206 442.5 291.492C438.45 314.45 433.864 337.356 429.518 360.267L424.354 387.713C423.051 394.428 421.868 402.897 419.018 408.966C404.715 439.422 373.214 457.208 339.496 451.859C300.376 445.653 275.92 402.194 293.554 365.885C296.16 360.519 299.589 356.233 302.712 351.215C311.728 336.733 321.08 307.091 305.715 293.896C291.833 281.974 288.704 277.892 289.161 258.072C289.586 239.634 295.425 222.999 316.414 219.06C325.651 217.326 346.453 218.712 355.301 220.321C390.166 226.393 412.863 254.85 412.398 289.992C411.848 300.536 409.083 311.27 407.977 321.734C406.952 331.432 390.041 336.333 392.98 316.634C395.374 300.593 400.112 284.647 393.733 268.875C387.98 253.863 377.159 243.115 361.659 238.189C351.66 234.221 338.139 234.823 327.678 234.643C317.902 234.475 309.721 235.378 305.836 245.753C303.572 251.796 303.664 265.611 305.912 271.743C307.909 277.19 314.615 280.216 318.348 284.217C337.415 304.896 327.708 339.499 314.701 360.903C307.684 371.075 303.131 378.597 303.205 391.383C303.395 424.307 328.818 437.694 357.851 436.993C376.159 435.555 393.736 423.122 402.483 407.358C408.389 396.713 409.931 380.846 412.197 368.807L423.516 307.748C425.266 298.344 424.85 282.957 434.242 279.985Z"/><path transform="scale(2 2)" d="M366.735 185.324C368.043 176.978 370.76 169.824 377.794 164.642C394.817 152.1 411.558 167.525 409.75 187.887C426.966 170.557 454.775 192.987 438.468 218.496C474.973 214.328 469.57 259.08 440.894 263.969C422.105 264.144 416.553 243.55 426.611 229.907C408.519 232.516 397.56 223.944 400.597 204.059C390.132 213.221 373.308 210.704 368.348 196.717C366.923 192.698 366.814 189.494 366.735 185.324Z"/><path fill="#5CBCFB" transform="scale(2 2)" d="M389.056 176.713C398.135 175.307 393.947 190.61 387.135 194.669C379.428 194.153 381.512 179.135 389.056 176.713Z"/><path fill="#5CBCFB" transform="scale(2 2)" d="M422.831 197.754C431.542 197.202 427.397 211.702 420.091 215.234C412.226 215.835 415.305 201.716 422.831 197.754Z"/><path fill="#5CBCFB" transform="scale(2 2)" d="M444.871 233.708C452.703 233.238 448.747 245.338 441.729 247.982C433.121 247.88 438.284 236.293 444.871 233.708Z"/><path transform="scale(2 2)" d="M380.913 378.926C381.247 371.682 385.261 335.782 399.171 350.591C402.681 354.328 398.917 362.751 398.528 367.289C397.473 375.617 395.377 389.787 383.303 383.126C382.109 381.588 381.633 380.682 380.913 378.926Z"/><path fill="#BCDEF6" transform="scale(2 2)" d="M102.791 187.887C101.603 180.417 102.851 171.026 108.849 166.114C133.271 146.114 159.228 187.061 138.011 205.879C143.274 206.934 145.398 219.314 146.961 223.181C157.02 220 187.519 216.036 198.257 219.225C223.554 226.736 229.639 257.903 219.214 278.485C212.452 292.289 189.667 301.367 197.345 323.394C199.914 330.764 204.621 336.818 194.575 341.379C198.48 346.814 202.097 354.579 205.75 359.175C213.196 354.547 218.175 365.006 220.345 370.398C232.707 401.1 213.72 437.883 183.601 449.256C147.863 462.75 106.576 442.798 92.8243 407.67C87.1649 393.214 82.2567 357.782 79.2719 341.744L73.4561 310.838C71.7959 302.299 65.4662 287.17 75.6219 283.71C75.7283 278.353 76.9121 269.142 74.553 264.105L72.9322 263.969C42.6709 264.757 39.4411 210.973 72.9322 218.496C70.7029 213.945 69.2455 210.81 68.5746 205.709C65.8634 185.096 87.1724 175.392 102.791 187.887Z"/><path fill="#FEC302" transform="scale(2 2)" d="M163.526 422.067C166.282 420.191 168.401 417.99 168.292 414.399C168.026 405.555 158.261 406.874 152.134 405.21C135.281 400.632 134.52 390.252 131.816 375.971L119.336 309.056C118.028 302.004 115.961 294.219 115.987 287.132C116.13 247.934 149.207 233.187 184.083 233.708C189.499 240.716 194.578 250.223 193.606 259.19C192.607 268.401 185.561 272.242 179.717 278.322C162.127 296.624 160.393 327.635 175.124 348.13C185.957 363.2 189.269 372.555 190.007 392.135C190.452 403.947 174.71 423.954 163.526 422.067Z"/><path transform="scale(2 2)" d="M146.961 223.181C157.02 220 187.519 216.036 198.257 219.225C223.554 226.736 229.639 257.903 219.214 278.485C212.452 292.289 189.667 301.367 197.345 323.394C199.914 330.764 204.621 336.818 194.575 341.379C192.983 341.647 190.994 341.599 189.398 341.379C176.333 327.091 179.077 300.007 192.055 286.132C202.297 275.181 207.224 275.705 207.783 259.223C208.393 241.251 202.9 232.516 184.083 233.708C149.207 233.187 116.13 247.934 115.987 287.132C115.961 294.219 118.028 302.004 119.336 309.056L131.816 375.971C134.52 390.252 135.281 400.632 152.134 405.21C158.261 406.874 168.026 405.555 168.292 414.399C168.401 417.99 166.282 420.191 163.526 422.067C158.359 423.322 147.202 420.151 142.396 418.05C122.167 409.209 120.203 396.904 116.672 378.071L104.813 314.706C103.085 305.819 100.874 296.799 100.721 287.764C100.186 256.256 118.921 233.945 146.961 223.181Z"/><path transform="scale(2 2)" d="M75.6219 283.71C82.5126 283.246 84.173 286.65 85.3862 292.737L103.303 385.082C105.154 394.067 106.641 402.792 111.497 410.79C119.653 424.22 136.362 435.947 152.138 438.02C187.359 443.21 220.144 407.527 204.974 373.882C202.317 367.988 199.088 364.224 205.75 359.175C213.196 354.547 218.175 365.006 220.345 370.398C232.707 401.1 213.72 437.883 183.601 449.256C147.863 462.75 106.576 442.798 92.8243 407.67C87.1649 393.214 82.2567 357.782 79.2719 341.744L73.4561 310.838C71.7959 302.299 65.4662 287.17 75.6219 283.71Z"/><path transform="scale(2 2)" d="M102.791 187.887C101.603 180.417 102.851 171.026 108.849 166.114C133.271 146.114 159.228 187.061 138.011 205.879C127.272 213.021 122.022 210.226 111.596 205.879C115.147 221.538 102.499 233.384 86.8506 229.907C93.5438 244.693 92.1088 261.937 72.9322 263.969C42.6709 264.757 39.4411 210.973 72.9322 218.496C70.7029 213.945 69.2455 210.81 68.5746 205.709C65.8634 185.096 87.1724 175.392 102.791 187.887Z"/><path fill="#5CBCFB" transform="scale(2 2)" d="M121.602 176.713C128.723 177.387 133.604 191.623 126.152 194.669C118.941 194.011 114.39 180.149 121.602 176.713Z"/><path fill="#5CBCFB" transform="scale(2 2)" d="M87.9115 197.754C92.8762 197.612 101.086 211.941 92.8427 215.234C86.4489 212.735 79.2255 199.963 87.9115 197.754Z"/><path fill="#5CBCFB" transform="scale(2 2)" d="M65.9636 233.708C72.3514 233.479 79.1052 243.745 72.9322 247.982C68.3578 249.691 60.8071 237.483 65.9636 233.708Z"/><path fill="#5CBCFB" transform="scale(2 2)" d="M189.398 341.379C190.994 341.599 192.983 341.647 194.575 341.379C198.48 346.814 202.097 354.579 205.75 359.175C199.088 364.224 202.317 367.988 204.974 373.882C220.144 407.527 187.359 443.21 152.138 438.02L151.566 437.19C151.857 436.162 159.201 435.909 160.655 435.554C181.166 430.542 198.118 412.559 201.213 391.567C201.657 388.554 202.916 377.951 201.503 375.374C197.931 369.361 198.924 367.096 199.546 360.861C200.216 354.16 193.016 346.495 189.615 341.692L189.398 341.379Z"/><path transform="scale(2 2)" d="M170.606 126.816C174.471 124.955 182.028 127.337 185.6 129.309C211.607 143.667 215.161 194.727 181.812 204.059C137.84 206.556 135.61 127.913 170.606 126.816Z"/><path fill="#5CBCFB" transform="scale(2 2)" d="M171.554 142.284C188.306 137.249 199.068 183.497 180.189 187.887C163.183 192.54 152.895 148.015 171.554 142.284Z"/><path transform="scale(2 2)" d="M336.309 126.816C337.629 126.643 339.601 126.726 340.912 126.887C379.003 131.854 370.97 197.734 336.309 202.419C297.401 207.194 294.864 132.065 336.309 126.816Z"/><path fill="#5CBCFB" transform="scale(2 2)" d="M336.969 142.284C354.859 140.494 355.904 180.424 335.12 186.761C318.169 189.497 314.901 149.136 336.969 142.284Z"/><path transform="scale(2 2)" d="M255.211 56.558C264.822 56.3399 263.773 66.4736 263.771 73.0812L263.748 88.843C278.014 92.0814 280.165 102.329 280.153 114.797L280.171 126.039C280.343 146.251 273.934 152.7 253.678 152.228C245.581 152.039 248.534 158.934 248.229 164.229C248.045 167.434 246.916 169.267 249.787 171.495C256.515 171.291 263.421 171.498 270.149 171.491C280.651 171.718 283.196 187.292 267.277 186.835C257.154 186.544 252.007 186.483 242.168 185.324C230.12 177.514 229.128 154.365 236.263 144.641C245.996 131.374 260.108 141.163 264.686 134.334L264.868 134.058C264.794 129.384 265.469 109.071 264.316 106.252C262.719 102.349 253.042 103.01 250.161 104.356C246.312 106.155 248.405 112.186 247.031 115.437C242.883 125.26 224.623 117.532 234.728 98.828C237.656 93.4085 242.491 90.5211 248.257 88.843L248.238 72.1065C248.232 65.3367 246.649 58.1361 255.211 56.558Z"/><path transform="scale(2 2)" d="M269.97 297.774C277.09 296.713 298.001 318.941 282.423 324.846C273.333 325.368 253.631 301.73 269.97 297.774Z"/><path transform="scale(2 2)" d="M239.204 297.774C245.22 297.161 250.499 302.146 247.752 308.237C245.395 312.326 237.241 323.585 233.451 324.846C229.454 325.403 225.875 323.866 224.207 320.035C221.609 314.064 234.292 299.334 239.204 297.774Z"/></svg>