<?xml version="1.0" encoding="utf-8" ?><svg xmlns="http://www.w3.org/2000/svg" xmlns:xlink="http://www.w3.org/1999/xlink" width="1024" height="1024" viewBox="0 0 1024 1024"><path fill="#FEC302" transform="scale(2 2)" d="M171.38 148.184C183.812 115.94 209.346 86.0657 237.392 66.4788C242.857 62.6628 248.223 58.7736 255.072 58.2179C271.638 56.8735 284.996 71.6171 278.753 88.0789C276.888 93.1901 274.642 94.3187 275.255 100.09C277.411 120.401 287.759 114.902 297.541 123.175C306.333 130.718 304.357 135.063 305.387 143.946C318.014 136.118 321.51 139.78 330.559 148.092C362.657 177.573 378.073 222.601 366.247 265.157C364.644 270.926 360.402 274.097 355.005 270.08L354.864 270.462C352.639 276.655 351.97 280.931 348.388 287.435C357.724 290.773 352.3 297.003 349.691 302.292C346.624 308.51 339.664 313.197 335.438 304.699C333.435 308.248 325.367 316.871 322.092 319.039C326.108 322.753 325.18 327.228 321.079 330.451C301.605 345.757 275.873 353.652 251.175 352.304C246.032 352.023 241.987 352.704 240.236 346.795C233.319 346.36 215.198 341.89 209.789 338.2C205.974 344.247 201.885 342.547 196.481 339.774C155.145 318.566 129.68 274.079 131.512 227.761C131.714 222.664 134.783 220.288 139.754 220.727C139.667 198.974 143.391 212.428 145.996 200.438C144.539 199.513 144.027 198.898 142.83 197.658C133.485 194.395 134.877 173.958 136.224 166.584C139.155 150.532 156.498 139.804 171.38 148.184Z"/><path transform="scale(2 2)" d="M171.38 148.184C183.812 115.94 209.346 86.0657 237.392 66.4788C242.857 62.6628 248.223 58.7736 255.072 58.2179C271.638 56.8735 284.996 71.6171 278.753 88.0789C276.888 93.1901 274.642 94.3187 275.255 100.09C277.411 120.401 287.759 114.902 297.541 123.175C306.333 130.718 304.357 135.063 305.387 143.946C318.014 136.118 321.51 139.78 330.559 148.092C362.657 177.573 378.073 222.601 366.247 265.157C364.644 270.926 360.402 274.097 355.005 270.08C352.488 266.083 353.136 264.246 354.216 259.898C361.606 230.164 354.418 198.282 336.176 173.834C333.653 170.454 318.918 153.634 316.362 153.238C312.564 154.886 316.079 168.356 312.326 177.002C303.477 187.22 295.529 180.172 289.06 172.188C270.171 148.874 250.199 125.624 250.784 93.1394C225.3 115.594 199.718 143.424 196.829 179.302C196.925 185.664 199.072 195.181 194.406 198.871C186.087 205.449 180.603 199.452 176.127 192.982C173.742 188.934 168.384 178.834 164.768 177.002C156.857 185.012 157.252 202.745 145.996 200.438C144.539 199.513 144.027 198.898 142.83 197.658C133.485 194.395 134.877 173.958 136.224 166.584C139.155 150.532 156.498 139.804 171.38 148.184Z"/><path fill="#BCDEF6" transform="scale(2 2)" d="M171.38 148.184C183.812 115.94 209.346 86.0657 237.392 66.4788C242.857 62.6628 248.223 58.7736 255.072 58.2179C271.638 56.8735 284.996 71.6171 278.753 88.0789C276.888 93.1901 274.642 94.3187 275.255 100.09C277.411 120.401 287.759 114.902 297.541 123.175C306.333 130.718 304.357 135.063 305.387 143.946C299.061 153.189 301.932 156.338 301.732 167.293C285.147 147.161 265.17 124.473 263.784 96.9902C263.508 91.5319 264.023 85.5548 259.055 81.8692C252.281 76.8446 245.94 79.696 240.499 84.4611C210.596 110.65 188.869 138.395 183.354 178.353C168.477 157.915 156.807 158.571 147.121 181.101C144.713 186.701 140.588 191.488 142.83 197.658C133.485 194.395 134.877 173.958 136.224 166.584C139.155 150.532 156.498 139.804 171.38 148.184Z"/><path fill="#BCDEF6" transform="scale(2 2)" d="M164.768 177.002C168.384 178.834 173.742 188.934 176.127 192.982C169.015 210.922 166.508 232.521 171.078 251.12C179.808 286.652 214.258 318.398 251.913 316.73C253.717 326.355 253.393 330.101 253.758 339.298C247.096 339.108 239.599 337.099 240.236 346.795C233.319 346.36 215.198 341.89 209.789 338.2C205.974 344.247 201.885 342.547 196.481 339.774C155.145 318.566 129.68 274.079 131.512 227.761C131.714 222.664 134.783 220.288 139.754 220.727C139.667 198.974 143.391 212.428 145.996 200.438C157.252 202.745 156.857 185.012 164.768 177.002Z"/><path transform="scale(2 2)" d="M209.789 338.2C205.974 344.247 201.885 342.547 196.481 339.774C155.145 318.566 129.68 274.079 131.512 227.761C131.714 222.664 134.783 220.288 139.754 220.727C146.153 223.544 144.735 228.85 144.746 234.813C144.813 270.791 165.428 306.183 196.351 324.428C203.109 328.416 212.792 329.235 209.789 338.2Z"/><path fill="#BCDEF6" transform="scale(2 2)" d="M312.326 177.002C316.079 168.356 312.564 154.886 316.362 153.238C318.918 153.634 333.653 170.454 336.176 173.834C354.418 198.282 361.606 230.164 354.216 259.898C353.136 264.246 352.488 266.083 355.005 270.08L354.864 270.462C352.639 276.655 351.97 280.931 348.388 287.435C357.724 290.773 352.3 297.003 349.691 302.292C346.624 308.51 339.664 313.197 335.438 304.699C333.435 308.248 325.367 316.871 322.092 319.039C326.108 322.753 325.18 327.228 321.079 330.451C301.605 345.757 275.873 353.652 251.175 352.304C246.032 352.023 241.987 352.704 240.236 346.795C239.599 337.099 247.096 339.108 253.758 339.298C253.393 330.101 253.717 326.355 251.913 316.73C321.229 317.155 358.818 237.177 317.424 183.415C316.055 181.638 313.893 178.453 312.326 177.002Z"/><path transform="scale(2 2)" d="M253.758 339.298C272.266 339.805 288.303 335.513 304.241 326.195C310.906 322.298 314.787 316.034 322.092 319.039C326.108 322.753 325.18 327.228 321.079 330.451C301.605 345.757 275.873 353.652 251.175 352.304C246.032 352.023 241.987 352.704 240.236 346.795C239.599 337.099 247.096 339.108 253.758 339.298Z"/><path transform="scale(2 2)" d="M335.438 304.699C334.803 299.545 341.789 286.84 348.388 287.435C357.724 290.773 352.3 297.003 349.691 302.292C346.624 308.51 339.664 313.197 335.438 304.699Z"/><path fill="white" transform="scale(2 2)" d="M237.758 147.289C250.956 146.743 244.862 158.889 241.07 164.862C234.834 174.654 230.551 186.077 228.16 197.405C227.163 202.125 226.692 207.02 221.079 208.206C215.174 208.517 211.781 205.014 212.479 199.134C213.807 188.144 225.084 150.543 237.758 147.289Z"/><path transform="scale(2 2)" d="M216.102 282.267C224.063 281.764 227.848 293.805 240.164 296.346C251.521 298.689 255.309 306.307 245.465 310.474C231.27 311.162 197.838 289.223 216.102 282.267Z"/><path transform="scale(2 2)" d="M195.997 389.495C197.83 380.752 207.284 383.201 214.71 383.241L313.267 383.261C316.987 383.26 321.174 383.504 324.85 382.76C328.98 381.89 331.502 376.278 329.445 372.787C326.724 368.169 319.559 370.729 318.79 364.121C316.948 348.279 350.728 359.512 341.323 383.25L341.627 383.274C356.522 384.326 371.015 379.382 382.248 392.842C400.18 414.328 379.227 445.348 349.551 436.868L336.247 433.041C324.845 429.837 313.384 426.844 302.028 423.48C296.785 421.926 294.941 418.272 297.148 412.95C291.191 410.987 281.756 409.42 275.481 408.086C273.43 420.366 255.536 411.859 246.775 409.234C238.444 411.992 226.57 414.408 217.793 416.644L199.597 421.266C192.987 422.911 184.08 427.097 181.286 418.074C177.443 419.05 167.136 421.754 163.399 421.887C158.916 416.256 151.422 419.264 145.996 421.887C139.479 413.401 140.598 407.05 148.953 399.621C150.07 398.628 151.685 396.754 153.02 396.254C161.144 395.55 177.369 400.193 178.79 389.495C183.913 389.159 190.672 389.516 195.997 389.495Z"/><path fill="#BCDEF6" transform="scale(2 2)" d="M178.79 389.495C183.913 389.159 190.672 389.516 195.997 389.495C197.758 399 207.995 396.268 216.173 396.264L241.994 396.254C235.642 399.961 204.143 406.484 195.954 408.554C190.095 410.035 181.171 410.02 181.286 418.074C177.443 419.05 167.136 421.754 163.399 421.887C158.916 416.256 151.422 419.264 145.996 421.887C139.479 413.401 140.598 407.05 148.953 399.621C150.07 398.628 151.685 396.754 153.02 396.254C161.144 395.55 177.369 400.193 178.79 389.495Z"/><path fill="#54A1D2" transform="scale(2 2)" d="M250.784 396.254C262.133 396.507 274.624 396.254 286.059 396.253L358.749 396.254L358.538 396.518C353.866 402.334 348.104 405.357 349.208 414.095C350.021 420.524 352.003 420.231 354.079 424.356C349.428 423.416 343.557 421.538 338.916 420.204L316.447 413.853C310.259 412.094 302.1 408.015 297.148 412.95C291.191 410.987 281.756 409.42 275.481 408.086C274.741 399.424 258.977 399.725 250.784 396.254Z"/><path fill="#BCDEF6" transform="scale(2 2)" d="M358.749 396.254C387.198 396.672 375.344 432.423 354.079 424.356C352.003 420.231 350.021 420.524 349.208 414.095C348.104 405.357 353.866 402.334 358.538 396.518L358.749 396.254Z"/><path transform="scale(2 2)" d="M150.67 383.25C149.35 377.086 149.022 371.869 152.269 366.232C156.937 358.128 169.454 352.234 177.956 356.831C180.713 358.321 181.828 363.553 179.94 366.048C177.291 369.549 172.828 368.436 169.069 368.94C160.521 370.087 160.975 381.871 167.872 382.918C173.72 383.805 177.131 382.233 178.79 389.495C177.369 400.193 161.144 395.55 153.02 396.254C151.685 396.754 150.07 398.628 148.953 399.621C140.598 407.05 139.479 413.401 145.996 421.887C151.422 419.264 158.916 416.256 163.399 421.887C164.897 426.33 163.79 430.081 158.97 431.624C149.304 434.657 130.89 439.773 121.612 436.071C92.1345 424.308 101.758 383.229 132.543 383.231C138.452 383.231 144.787 383.324 150.67 383.25Z"/><path fill="#54A1D2" transform="scale(2 2)" d="M145.996 421.887C140.664 421.768 136.175 424.342 131.118 424.418C118.696 424.519 112.325 409.619 121.272 400.781C128 394.137 143.739 396.225 153.02 396.254C151.685 396.754 150.07 398.628 148.953 399.621C140.598 407.05 139.479 413.401 145.996 421.887Z"/></svg>