<?xml version="1.0" encoding="utf-8" ?><svg xmlns="http://www.w3.org/2000/svg" xmlns:xlink="http://www.w3.org/1999/xlink" width="1024" height="1024" viewBox="0 0 1024 1024"><path fill="#FEC302" transform="scale(2 2)" d="M279.006 98.5997C280.34 92.7607 281.038 85.5265 284.692 80.715C295.171 66.9173 316.546 78.1049 330.116 82.0419L353.998 88.983C360.943 91.0058 369.415 90.9132 370.328 98.5997C373.849 99.2693 381.631 102.157 383.623 102.368C388.024 95.7864 398.489 101.83 405.118 103.563C424.544 108.64 437.913 112.91 431.419 135.315L415.094 189.856C401.337 236.327 395.113 267.358 413.343 312.622C418.665 328.492 415.163 346.465 405.355 359.609C390.55 379.452 373.775 380.167 351.338 380.653C331.949 381.072 311.192 387.97 293.579 395.507C263.723 408.859 234.825 437.339 200.87 438.016C190.761 438.218 186.145 436.343 177.682 431.444C164.42 435.238 151.76 432.753 141.638 423.317C129.833 424.954 112.184 418.4 108.204 406.021C77.0468 405.265 67.357 366.082 93.8449 352.601C98.9782 349.988 104.896 347.159 108.204 353.887C111.171 354.001 117.388 352.385 119.628 350.57C117.761 343.878 122.662 342.875 127.546 341.134C146.644 334.322 164.599 324.057 180.936 312.115C184.205 309.725 186.142 307.481 190.426 307.84C193.467 303.527 201.049 299.905 201.243 297.245C202.06 294.183 215.114 277.818 221.011 279.036C221.566 276.609 226.971 270.187 229.266 269.007C227.798 265.256 230.139 262.849 232.355 259.967C244.225 244.543 253.467 227.064 258.892 208.345C260.386 203.189 261.791 199.3 268.226 200.827C269.072 199.23 269.07 192.523 271.215 188.957C262.707 186.144 267.309 176.976 268.723 170.099L271.545 156.859C272.234 153.564 272.941 149.664 273.887 146.489C259.46 136.945 266.617 127.554 268.413 113.467C269.3 106.51 270.658 99.7227 279.006 98.5997Z"/><path fill="#ABD2F7" transform="scale(2 2)" d="M279.006 98.5997C280.34 92.7607 281.038 85.5265 284.692 80.715C295.171 66.9173 316.546 78.1049 330.116 82.0419L353.998 88.983C360.943 91.0058 369.415 90.9132 370.328 98.5997C373.849 99.2693 381.631 102.157 383.623 102.368C380.163 113.195 395.429 112.634 403.461 115.572C407.858 125.042 403.445 134.526 400.586 143.896L393.27 167.805C385.031 195.271 377.948 222.722 374.835 251.245C359.555 249.305 342.987 255.659 334.233 268.537C328.748 276.606 324.559 283.691 314.202 285.919C294.983 290.052 290.531 280.771 278.557 269.343C274.422 265.089 270.114 260.779 266.094 256.508C262.545 252.963 259.083 249.522 255.428 246.081C261.163 235.462 265.907 225.611 269.541 214.059C271.389 208.187 274.199 204.667 268.226 200.827C269.072 199.23 269.07 192.523 271.215 188.957C262.707 186.144 267.309 176.976 268.723 170.099L271.545 156.859C272.234 153.564 272.941 149.664 273.887 146.489C259.46 136.945 266.617 127.554 268.413 113.467C269.3 106.51 270.658 99.7227 279.006 98.5997Z"/><path transform="scale(2 2)" d="M279.006 98.5997C280.34 92.7607 281.038 85.5265 284.692 80.715C295.171 66.9173 316.546 78.1049 330.116 82.0419L353.998 88.983C360.943 91.0058 369.415 90.9132 370.328 98.5997C369.361 101.117 366.758 104.903 363.704 104.082C345.605 99.2146 327.356 93.2721 309.301 88.3754C309.025 91.5496 305.786 100.203 304.278 103.11L303.808 103.426C306.684 104.06 311.716 104.858 313.737 106.46C316.88 108.951 315.88 114.371 312.582 116.145C309.511 117.796 300.118 114.551 297.301 113.787C297.147 115.775 289.984 137.81 289.298 138.427C294.26 139.717 301.462 141.21 305.909 143.217C311.783 145.868 309.848 152.763 303.808 154.685C301.966 154.38 301.258 154.2 299.483 153.615C294.664 152.36 289.982 151.015 285.203 149.632C283.156 158.747 281.449 167.961 279.282 177.034C277.819 183.159 278.367 187.951 271.215 188.957C262.707 186.144 267.309 176.976 268.723 170.099L271.545 156.859C272.234 153.564 272.941 149.664 273.887 146.489C259.46 136.945 266.617 127.554 268.413 113.467C269.3 106.51 270.658 99.7227 279.006 98.5997Z"/><path fill="#BCDEF6" transform="scale(2 2)" d="M281.45 109.826C286.527 110.871 292.233 112.479 297.301 113.787C297.147 115.775 289.984 137.81 289.298 138.427C285.748 137.648 279.068 136.569 277.025 133.6C276.623 131.275 280.666 113.243 281.45 109.826Z"/><path fill="#BCDEF6" transform="scale(2 2)" d="M290.579 100.328C294.055 85.5308 293.739 83.4523 309.301 88.3754C309.025 91.5496 305.786 100.203 304.278 103.11L303.808 103.426L290.579 100.328Z"/><path fill="#BCDEF6" transform="scale(2 2)" d="M285.203 149.632C289.982 151.015 294.664 152.36 299.483 153.615C293.459 183.373 285.03 214.54 272.749 242.431C270.933 246.556 268.517 252.928 266.094 256.508C262.545 252.963 259.083 249.522 255.428 246.081C261.163 235.462 265.907 225.611 269.541 214.059C271.389 208.187 274.199 204.667 268.226 200.827C269.072 199.23 269.07 192.523 271.215 188.957C278.367 187.951 277.819 183.159 279.282 177.034C281.449 167.961 283.156 158.747 285.203 149.632Z"/><path transform="scale(2 2)" d="M383.623 102.368C388.024 95.7864 398.489 101.83 405.118 103.563C424.544 108.64 437.913 112.91 431.419 135.315L415.094 189.856C401.337 236.327 395.113 267.358 413.343 312.622C418.665 328.492 415.163 346.465 405.355 359.609C390.55 379.452 373.775 380.167 351.338 380.653C331.949 381.072 311.192 387.97 293.579 395.507C263.723 408.859 234.825 437.339 200.87 438.016C190.761 438.218 186.145 436.343 177.682 431.444C164.42 435.238 151.76 432.753 141.638 423.317C129.833 424.954 112.184 418.4 108.204 406.021C77.0468 405.265 67.357 366.082 93.8449 352.601C98.9782 349.988 104.896 347.159 108.204 353.887C108.62 360.138 105.632 360.582 100.383 362.478C86.4893 367.498 86.4226 386.504 101.372 392.941C103.37 393.456 106.143 394.201 108.204 394.337C110.425 391.542 113.579 386.742 117.356 386.358C120.544 386.034 123.525 389.018 123.547 392.165C123.583 397.198 114.954 399.482 121.158 405.616C125.463 409.872 133 411.364 138.756 411.805C140.498 405.625 142.614 400.334 149.513 398.694C163.661 402.16 148.453 410.692 151.114 415.522C154.547 422.037 167.645 422.589 173.451 420.207C173.601 408.78 185.876 401.027 189.256 413.455C206.379 415.295 225.393 404.344 240.055 396.205C276.572 375.153 296.719 360.867 340.621 355.713C345.63 355.125 350.688 355.243 355.666 354.673C381.125 351.76 390.074 321.497 381.595 300.385C377.177 289.384 373.677 280.458 374.406 268.268C374.481 267.018 374.546 264.028 374.394 262.788C352.74 261.522 348.868 269.58 337.46 284.2C324.533 300.765 296.97 303.878 281.367 289.32C273.695 282.16 266.47 273.252 258.837 265.948L249.402 256.508C245.965 260.581 235.643 280.02 229.266 269.007C227.798 265.256 230.139 262.849 232.355 259.967C244.225 244.543 253.467 227.064 258.892 208.345C260.386 203.189 261.791 199.3 268.226 200.827C274.199 204.667 271.389 208.187 269.541 214.059C265.907 225.611 261.163 235.462 255.428 246.081C259.083 249.522 262.545 252.963 266.094 256.508C270.114 260.779 274.422 265.089 278.557 269.343C290.531 280.771 294.983 290.052 314.202 285.919C324.559 283.691 328.748 276.606 334.233 268.537C342.987 255.659 359.555 249.305 374.835 251.245C377.948 222.722 385.031 195.271 393.27 167.805L400.586 143.896C403.445 134.526 407.858 125.042 403.461 115.572C395.429 112.634 380.163 113.195 383.623 102.368Z"/><path fill="#FAA201" transform="scale(2 2)" d="M374.394 262.788C380.102 263.2 385.072 262.805 390.757 262.421C390.565 276.826 394.086 297.506 400.254 310.635C412.151 335.961 396.186 365.616 368.09 368.129C335.437 370.674 313.732 371.444 282.614 387.414C264.287 396.82 207.015 439.697 185.87 422.582C182.233 419.639 189.008 416.861 189.256 413.455C206.379 415.295 225.393 404.344 240.055 396.205C276.572 375.153 296.719 360.867 340.621 355.713C345.63 355.125 350.688 355.243 355.666 354.673C381.125 351.76 390.074 321.497 381.595 300.385C377.177 289.384 373.677 280.458 374.406 268.268C374.481 267.018 374.546 264.028 374.394 262.788Z"/><path fill="#4EA4F9" transform="scale(2 2)" d="M403.461 115.572C427.719 121.359 420.816 122.463 417.027 141.466C408.9 170.836 390.522 219.975 390.757 250.065C385.706 251.027 379.985 251.663 374.835 251.245C377.948 222.722 385.031 195.271 393.27 167.805L400.586 143.896C403.445 134.526 407.858 125.042 403.461 115.572Z"/><path fill="#BCDEF6" transform="scale(2 2)" d="M249.402 256.508L258.837 265.948C254.159 273.955 247.324 282.135 241.468 289.417C209.255 329.471 165.85 357.781 116.56 372.089C102.006 376.314 104.818 376.103 101.372 392.941C86.4226 386.504 86.4893 367.498 100.383 362.478C105.632 360.582 108.62 360.138 108.204 353.887C111.171 354.001 117.388 352.385 119.628 350.57C117.761 343.878 122.662 342.875 127.546 341.134C146.644 334.322 164.599 324.057 180.936 312.115C184.205 309.725 186.142 307.481 190.426 307.84C193.467 303.527 201.049 299.905 201.243 297.245C202.06 294.183 215.114 277.818 221.011 279.036C221.566 276.609 226.971 270.187 229.266 269.007C235.643 280.02 245.965 260.581 249.402 256.508Z"/><path transform="scale(2 2)" d="M119.628 350.57C117.761 343.878 122.662 342.875 127.546 341.134C146.644 334.322 164.599 324.057 180.936 312.115C184.205 309.725 186.142 307.481 190.426 307.84C199.926 313.259 191.281 318.974 185.716 322.979C170.199 334.148 153.404 344.083 135.414 350.694C129.621 352.821 123.406 356.865 119.628 350.57Z"/><path transform="scale(2 2)" d="M201.243 297.245C202.06 294.183 215.114 277.818 221.011 279.036C234.596 284.611 211.554 302.392 208.799 303.316C204.159 304.874 202.023 301.023 201.243 297.245Z"/><path transform="scale(2 2)" d="M310.839 402.572C317.919 401.203 323.535 409.283 310.517 416.323C299.886 422.073 289.379 427.819 279.006 433.823C270.964 435.3 268.07 426.504 273.16 423.109C277.54 420.188 284.038 417.025 288.801 414.391L303.616 406.344C305.818 405.161 308.571 403.449 310.839 402.572Z"/></svg>