<?xml version="1.0" encoding="utf-8" ?><svg xmlns="http://www.w3.org/2000/svg" xmlns:xlink="http://www.w3.org/1999/xlink" width="1024" height="1024" viewBox="0 0 1024 1024"><path fill="#BCDEF6" transform="scale(2 2)" d="M366.773 152.241C366.72 145.377 365.658 138.064 362.635 131.814C358.129 122.497 349.459 118.226 352.19 106.536C355.645 91.7489 373.838 88.5155 383.848 98.7895C395.225 110.466 403.45 127.533 404.543 143.744C406.962 145.97 410.431 147.918 413.175 149.832C458.774 181.638 460.79 240.048 430.384 283.349C428.524 285.998 426.377 288.435 425.031 291.4C438.221 304.579 438.769 323.509 418.956 329.675C414.776 336.992 404.478 359.849 395.936 361.611C394.144 361.141 393.313 360.889 391.693 359.837C389.718 362.943 381.444 372.769 378.789 375.007C380.373 376.594 380.591 377.661 381.171 379.741C379.49 386.887 362.989 396.608 356.513 400.289C327.522 416.768 309.6 418.946 278.189 418.851L234.439 418.875C222.657 418.863 208.372 420.158 197.08 419.176C140.858 414.283 99.9122 380.369 76.7192 330.615C53.6617 323.237 55.2677 284.136 95.5359 287.714C97.744 269.613 110.456 249.423 125.591 239.46C131.888 235.316 134.237 233.649 140.457 239.241C146.191 237.69 151.762 235.627 157.548 234.069C156.805 230.787 157.573 229.261 159.942 227.028C177.064 220.364 208.325 233.727 221.182 245.454L223.623 247.81C229.615 240.92 234.715 236.247 243.739 234.069C247.758 225.461 249.744 215.925 249.573 206.567C249.53 204.223 250.734 202.834 252.212 201.165C268.62 192.58 260.401 226.022 259.213 231.605C283.092 228.357 310.447 214.888 328.802 199.904C333.967 195.801 338.43 187.403 345.436 194.074C350.288 187.334 353.439 182.548 356.386 174.679C348.051 167.647 360.234 156.134 366.773 152.241Z"/><path transform="scale(2 2)" d="M366.773 152.241C366.72 145.377 365.658 138.064 362.635 131.814C358.129 122.497 349.459 118.226 352.19 106.536C355.645 91.7489 373.838 88.5155 383.848 98.7895C395.225 110.466 403.45 127.533 404.543 143.744C406.962 145.97 410.431 147.918 413.175 149.832C458.774 181.638 460.79 240.048 430.384 283.349C428.524 285.998 426.377 288.435 425.031 291.4C438.221 304.579 438.769 323.509 418.956 329.675C414.776 336.992 404.478 359.849 395.936 361.611C394.144 361.141 393.313 360.889 391.693 359.837C389.864 357.313 389.842 357.916 389.139 354.639C390.094 351.06 399.432 337.574 402.323 332.75C404.978 328.321 406.649 323.044 409.486 319.032C412.104 316.535 415.425 317.59 418.365 315.212C423.135 311.353 421.192 302.439 415.043 301.423C409.507 300.508 402.305 300.902 396.417 300.92C393.969 301.173 385.672 300.935 382.741 300.932L255.822 300.92L207.496 300.93C198.789 300.931 190.067 301.044 181.367 300.781C176.359 300.63 174.579 299.33 173.57 294.324C173.222 294.151 157.637 294.383 155.521 294.324C154.566 285.104 144.244 287.69 137.015 287.696L108.335 287.714C112.508 270.524 120.819 257.213 136.136 248.488C139.858 246.368 140.527 243.305 140.457 239.241C146.191 237.69 151.762 235.627 157.548 234.069C156.805 230.787 157.573 229.261 159.942 227.028C177.064 220.364 208.325 233.727 221.182 245.454L223.623 247.81C229.615 240.92 234.715 236.247 243.739 234.069C247.758 225.461 249.744 215.925 249.573 206.567C249.53 204.223 250.734 202.834 252.212 201.165C268.62 192.58 260.401 226.022 259.213 231.605C283.092 228.357 310.447 214.888 328.802 199.904C333.967 195.801 338.43 187.403 345.436 194.074C350.288 187.334 353.439 182.548 356.386 174.679C348.051 167.647 360.234 156.134 366.773 152.241Z"/><path fill="#FCD40E" transform="scale(2 2)" d="M356.386 174.679C366.114 177.695 365.145 170.254 371.142 165.347C372.48 166.173 374.099 167.119 375.334 168.038C373.63 173.39 368.504 184.203 376.456 186.414C384.425 188.63 385.514 179.09 387.542 173.853C392.172 159.608 395.671 183.518 400.698 184.085C405.896 185.156 407.82 183.649 410.054 179.189C412.99 182.234 414.71 185.161 416.747 188.827C435.404 222.405 420.783 260.27 397.281 287.329C396.772 287.501 396.459 287.59 395.936 287.714L372.099 287.714C395.246 269.418 410.232 245.388 411.652 215.281C411.312 208.265 398.978 203.491 397.866 218.378C395.904 244.633 379.218 268.699 356.689 281.768C354.302 283.153 353.847 285.254 353.368 287.714L245.252 287.714C244.164 282.513 243.137 279.603 241.367 274.65C248.946 267.784 246.751 262.071 262.25 261.011C280.518 261.23 313.996 251.946 327.478 240.666C334.044 235.172 351.401 209.634 345.436 202.741C346.939 199.667 347.137 197.09 345.436 194.074C350.288 187.334 353.439 182.548 356.386 174.679Z"/><path transform="scale(2 2)" d="M367.555 206.067C379.588 206.144 372.486 218.589 369.099 223.988C353.228 249.294 325.79 265.753 297.096 272.383C288.483 272.224 287.569 261.106 294.789 259.321C322.519 252.489 348.969 235.479 362.114 209.485C363.263 207.213 365.284 206.486 367.555 206.067Z"/><path fill="#FEC302" transform="scale(2 2)" d="M157.548 234.069C159.037 242.454 171.38 238.635 178.673 239.576C204.068 242.851 225.98 262.807 231.808 287.714L196.023 287.702C188.015 287.7 174.822 284.624 173.57 294.324C173.222 294.151 157.637 294.383 155.521 294.324C154.566 285.104 144.244 287.69 137.015 287.696L108.335 287.714C112.508 270.524 120.819 257.213 136.136 248.488C139.858 246.368 140.527 243.305 140.457 239.241C146.191 237.69 151.762 235.627 157.548 234.069Z"/><path fill="#FAE579" transform="scale(2 2)" d="M345.436 202.741C351.401 209.634 334.044 235.172 327.478 240.666C313.996 251.946 280.518 261.23 262.25 261.011C259.686 256.79 256.587 247.79 253.56 245.454C254.921 244.729 263.456 243.574 265.517 243.199C301.79 236.599 318.683 224.337 345.436 202.741Z"/><path fill="#FEC302" transform="scale(2 2)" d="M404.543 159.598C443.347 189.23 448.086 239.025 418.164 277.394C415.559 280.735 412.377 284.245 410.054 287.714L395.936 287.714C396.459 287.59 396.772 287.501 397.281 287.329C420.783 260.27 435.404 222.405 416.747 188.827C414.71 185.161 412.99 182.234 410.054 179.189C410.818 174.98 404.756 166.381 402.497 162.908C403.229 161.381 403.553 160.948 404.543 159.598Z"/><path fill="#FBEEB9" transform="scale(2 2)" d="M232.406 258.62C237.743 250.559 243.7 245.826 253.56 245.454C256.587 247.79 259.686 256.79 262.25 261.011C246.751 262.071 248.946 267.784 241.367 274.65C238.154 267.669 236.7 265.048 232.406 258.62Z"/><path fill="#56B2F2" transform="scale(2 2)" d="M369.088 106.009C382.189 104.959 394.179 142.165 391.494 154.79C391.25 155.938 388.877 156.772 387.907 157.074C380.769 157.919 379.929 155.277 379.781 149.175C379.518 138.282 376.274 127.401 370.037 118.423C366.881 113.881 360.626 109.403 369.088 106.009Z"/><path transform="scale(2 2)" d="M95.5359 287.714C97.744 269.613 110.456 249.423 125.591 239.46C131.888 235.316 134.237 233.649 140.457 239.241C140.527 243.305 139.858 246.368 136.136 248.488C120.819 257.213 112.508 270.524 108.335 287.714L137.015 287.696C144.244 287.69 154.566 285.104 155.521 294.324C153.073 304.116 138.543 300.915 129.761 300.915L95.3456 300.915C91.522 300.913 85.3404 300.482 81.9908 301.186C76.3198 303.111 73.3427 309.741 76.2873 315.053C78.4174 318.896 84.1122 317.52 85.6251 320.281C90.8622 329.837 95.0625 340.391 101.914 349.024C121.256 377.942 151.198 397.474 185.322 403.88C204.707 407.518 220.209 405.584 239.808 405.586L270.086 405.6C274.697 405.604 280.746 405.827 285.178 405.594C312.808 408.584 346.589 393.148 367.54 376.151C371.572 372.879 374.299 371.814 378.789 375.007C380.373 376.594 380.591 377.661 381.171 379.741C379.49 386.887 362.989 396.608 356.513 400.289C327.522 416.768 309.6 418.946 278.189 418.851L234.439 418.875C222.657 418.863 208.372 420.158 197.08 419.176C140.858 414.283 99.9122 380.369 76.7192 330.615C53.6617 323.237 55.2677 284.136 95.5359 287.714Z"/><path fill="white" transform="scale(2 2)" d="M155.521 294.324C157.637 294.383 173.222 294.151 173.57 294.324C174.579 299.33 176.359 300.63 181.367 300.781C190.067 301.044 198.789 300.931 207.496 300.93L255.822 300.92C254.818 304.122 252.112 306.376 249.508 308.313C236.451 318.027 219.606 315.74 204.276 315.73L154.639 315.737C147.88 315.733 136.47 315.161 130.434 317.134C118.632 320.992 114.701 332.037 115.859 343.312C109.005 350.159 106.655 341.608 101.914 349.024C95.0625 340.391 90.8622 329.837 85.6251 320.281C84.1122 317.52 78.4174 318.896 76.2873 315.053C73.3427 309.741 76.3198 303.111 81.9908 301.186C85.3404 300.482 91.522 300.913 95.3456 300.915L129.761 300.915C138.543 300.915 153.073 304.116 155.521 294.324Z"/><path fill="#56B2F2" transform="scale(2 2)" d="M396.417 300.92C402.305 300.902 409.507 300.508 415.043 301.423C421.192 302.439 423.135 311.353 418.365 315.212C415.425 317.59 412.104 316.535 409.486 319.032C406.649 323.044 404.978 328.321 402.323 332.75C399.432 337.574 390.094 351.06 389.139 354.639C389.842 357.916 389.864 357.313 391.693 359.837C389.718 362.943 381.444 372.769 378.789 375.007C374.299 371.814 371.572 372.879 367.54 376.151C346.589 393.148 312.808 408.584 285.178 405.594C286.496 404.552 292.191 403.487 294.207 402.926C337.15 390.974 372.615 356.144 390.691 316.039C392.716 311.547 395.675 305.674 396.417 300.92Z"/><path transform="scale(2 2)" d="M167.408 339.741C188.096 339.238 209.222 340.048 229.952 339.805C239.752 339.69 239.686 351.242 231.808 352.941C230.075 353.09 226.166 352.958 224.301 352.956L169.549 352.879C157.142 351.731 160.586 341.583 167.408 339.741Z"/><path transform="scale(2 2)" d="M140.339 340.021C143.879 339.508 147.172 341.936 147.729 345.469C148.285 349.001 145.898 352.325 142.372 352.925C140.053 353.319 137.701 352.436 136.214 350.613C134.727 348.789 134.336 346.307 135.19 344.115C136.044 341.922 138.011 340.359 140.339 340.021Z"/><path fill="white" transform="scale(2 2)" d="M179.234 146.138C184.352 116.527 223.831 110.746 214.916 127.95C212.275 133.047 186.737 131.036 192.664 160.763C211.57 149.735 230.805 150.51 245.851 167.474C250.002 172.153 255.062 178.555 247.604 182.889C249.389 187.556 251.495 196.173 252.212 201.165C250.734 202.834 249.53 204.223 249.573 206.567C249.744 215.925 247.758 225.461 243.739 234.069C234.715 236.247 229.615 240.92 223.623 247.81L221.182 245.454C208.325 233.727 177.064 220.364 159.942 227.028C154.839 222.362 155.377 220.86 153.576 215.077L153.466 214.739C135.967 228.382 134.33 171.416 180.401 165.347C175.243 156.742 161.243 149.18 151.173 153.945C148.494 155.213 147.706 156.949 144.305 157.758L143.928 157.846C124.212 153.214 148.774 127.353 179.234 146.138ZM192.664 179.189L192.321 179.237C188.909 179.688 186.968 178.362 183.983 178.347C172.08 178.287 162.086 184.902 157.548 195.746C168.303 195.753 181.507 196.946 188.289 186.505C188.986 185.432 192.554 180.015 192.664 179.189Z"/><path transform="scale(2 2)" d="M179.234 146.138C184.352 116.527 223.831 110.746 214.916 127.95C212.275 133.047 186.737 131.036 192.664 160.763C211.57 149.735 230.805 150.51 245.851 167.474C250.002 172.153 255.062 178.555 247.604 182.889C236.294 186.12 236.294 163.786 211.734 166.63C201.261 169.151 199.87 172.329 192.664 179.189L192.321 179.237C188.909 179.688 186.968 178.362 183.983 178.347C172.08 178.287 162.086 184.902 157.548 195.746C155.17 202.255 156.409 210.316 153.466 214.739C135.967 228.382 134.33 171.416 180.401 165.347C175.243 156.742 161.243 149.18 151.173 153.945C148.494 155.213 147.706 156.949 144.305 157.758L143.928 157.846C124.212 153.214 148.774 127.353 179.234 146.138Z"/><path fill="#BCDEF6" transform="scale(2 2)" d="M211.734 166.63C236.294 163.786 236.294 186.12 247.604 182.889C249.389 187.556 251.495 196.173 252.212 201.165C250.734 202.834 249.53 204.223 249.573 206.567C249.744 215.925 247.758 225.461 243.739 234.069C234.715 236.247 229.615 240.92 223.623 247.81L221.182 245.454C239.04 225.916 244.904 190.203 220.303 173.043C218.422 171.731 212.714 168.163 211.734 166.63Z"/></svg>