<?xml version="1.0" encoding="utf-8" ?><svg xmlns="http://www.w3.org/2000/svg" xmlns:xlink="http://www.w3.org/1999/xlink" width="1024" height="1024" viewBox="0 0 1024 1024"><path fill="#BCDEF6" transform="scale(2 2)" d="M229.194 129.889C229.099 129.859 229.005 129.828 228.91 129.797L228.44 129.635C223.847 128.075 223.059 125.435 223.634 120.868C229.642 73.1122 279.039 47.3706 322.605 65.3194C328.17 67.6121 336.115 71.0946 329.833 78.2263C332.9 80.5251 337.516 83.3496 340.83 85.3206C354.485 73.9609 368.259 118.476 369.888 126.665C383.272 132.442 391.688 139.467 399.333 152.21C404.885 161.464 400.664 158.321 411.189 164.362L426.633 173.379C439.029 180.515 451.804 189.26 443.979 206.701C441.013 213.313 439.604 212.642 437.341 220.838C432.718 237.581 413.388 234.406 400.585 234.518C400.201 246.093 403.527 266.584 395.044 274.399C388.154 280.746 377.3 278.635 371.446 271.979C365.915 265.69 363.22 258.077 361.258 250.095C360.063 258.053 360.247 266.119 360.35 274.134C360.475 283.896 359.153 342.976 341.669 338.075C339.77 335.883 339.414 335.399 338.589 332.631C338.964 331.202 339.549 329.73 340.088 328.35C352.389 296.878 344.436 265.255 352.126 233.737C329.043 236.763 331.105 258.129 327.844 274.508C323.62 295.72 311.175 322.617 291.782 334.307C292.95 337.325 295.745 344.072 295.974 347.161C297.018 361.777 296.244 378.79 296.225 393.587C296.219 398.761 293.6 401.419 288.313 400.642C281.451 395.967 284.509 387.714 284.246 379.369C279.376 379.187 274.981 380.094 270.202 380.728C246.066 383.931 213.128 385.53 188.793 380.574C188.617 390.101 193.064 410.51 182.27 411.696C182.247 416.772 182.371 422.184 182.27 427.219C185.608 427.243 187.063 428.351 188.793 431.125C188.851 441.457 183.786 451.696 172.224 451.764C161.229 451.828 128.102 454.574 120.308 447.435C114.707 442.316 111.867 427.06 122.507 427.219C122.56 426.209 122.555 411.793 122.507 411.696C112.331 409.574 115.904 398.291 115.715 388.992C115.512 379.025 113.341 369.889 110.679 360.365C111.413 357.301 111.967 356.184 114.679 354.576C112.516 348.895 112.219 344.782 110.679 339.691C109.066 341.494 107.694 341.757 105.466 342.301C92.4533 339.137 89.0413 296.516 91.368 285.109C64.4278 276.119 57.5363 237.008 80.2301 218.762C81.9746 217.36 83.3639 216.873 85.5079 216.386C92.5591 218.17 91.2883 221.664 91.2387 227.176C91.1392 238.244 98.8281 249.233 110.679 249.269C129.94 229.572 150.918 230.42 175.827 230.632C180.832 230.675 182.819 233.032 182.27 237.863C187.515 237.942 193.84 237.555 198.854 239.055C196.497 229.143 207.154 230.695 213.252 230.595C227.952 230.355 243.233 232.387 256.545 224.593C279.283 211.919 279.234 198.359 285.9 175.895C274.925 165.475 272.565 154.202 270.998 139.636C269.374 124.538 274.947 124.419 288.63 123.274C297.234 122.555 312.012 126.251 318.536 132.351C319.947 131.547 321.318 130.727 322.709 129.889C318.254 120.032 313.23 111.69 304.101 105.516C300.818 103.296 297.669 102.527 296.239 98.6163C290.788 97.5201 286.512 96.4832 280.834 96.2882C277.417 98.0557 273.113 97.9986 269.11 98.9331C257.527 101.637 247.008 109.225 239.772 118.533C235.811 123.626 236.047 128.307 229.194 129.889Z"/><path transform="scale(2 2)" d="M229.194 129.889C229.099 129.859 229.005 129.828 228.91 129.797L228.44 129.635C223.847 128.075 223.059 125.435 223.634 120.868C229.642 73.1122 279.039 47.3706 322.605 65.3194C328.17 67.6121 336.115 71.0946 329.833 78.2263C332.9 80.5251 337.516 83.3496 340.83 85.3206C354.485 73.9609 368.259 118.476 369.888 126.665C383.272 132.442 391.688 139.467 399.333 152.21C404.885 161.464 400.664 158.321 411.189 164.362L426.633 173.379C439.029 180.515 451.804 189.26 443.979 206.701C441.013 213.313 439.604 212.642 437.341 220.838C432.718 237.581 413.388 234.406 400.585 234.518C400.201 246.093 403.527 266.584 395.044 274.399C388.154 280.746 377.3 278.635 371.446 271.979C365.915 265.69 363.22 258.077 361.258 250.095C360.063 258.053 360.247 266.119 360.35 274.134C360.475 283.896 359.153 342.976 341.669 338.075C339.77 335.883 339.414 335.399 338.589 332.631C338.964 331.202 339.549 329.73 340.088 328.35C352.389 296.878 344.436 265.255 352.126 233.737C357.561 219.55 361.922 222.29 375.264 222.297L405.381 222.314C412.927 222.316 420.366 224.256 425.539 218.377C419.297 217.296 413.941 215.864 410.558 209.894C408.775 206.748 408.858 202.749 412.051 200.547C418.686 195.901 420.014 206.394 425.881 206.668C434.051 206.897 435.587 196.601 431.868 191.16C430.776 189.563 425.379 186.743 423.531 185.675L405.801 175.322C386.265 164.008 396.513 166.091 385.084 152.547C385.3 153.254 385.647 153.632 385.601 154.384L385.14 154.702C384.018 154.455 380.541 152.135 379.247 151.384C363.665 142.332 346.558 141.682 329.833 148.093C331.874 153.529 334.072 165.127 322.807 162.228C318.787 161.194 318.671 129.261 282.839 136.067C282.231 145.037 284.932 157.261 290.781 164.187C300.095 175.218 313.61 167.35 318.126 172.226C323.519 178.05 317.121 182.133 311.033 182.624C304.781 182.917 302.326 182.59 296.239 181.581C291.33 213.591 272.865 238.825 238.38 242.223C231.663 242.885 202.989 245.011 198.854 239.055C196.497 229.143 207.154 230.695 213.252 230.595C227.952 230.355 243.233 232.387 256.545 224.593C279.283 211.919 279.234 198.359 285.9 175.895C274.925 165.475 272.565 154.202 270.998 139.636C269.374 124.538 274.947 124.419 288.63 123.274C297.234 122.555 312.012 126.251 318.536 132.351C319.947 131.547 321.318 130.727 322.709 129.889C318.254 120.032 313.23 111.69 304.101 105.516C300.818 103.296 297.669 102.527 296.239 98.6163C290.788 97.5201 286.512 96.4832 280.834 96.2882C277.417 98.0557 273.113 97.9986 269.11 98.9331C257.527 101.637 247.008 109.225 239.772 118.533C235.811 123.626 236.047 128.307 229.194 129.889Z"/><path fill="#FEC302" transform="scale(2 2)" d="M229.194 129.889C229.099 129.859 229.005 129.828 228.91 129.797L228.44 129.635C223.847 128.075 223.059 125.435 223.634 120.868C229.642 73.1122 279.039 47.3706 322.605 65.3194C328.17 67.6121 336.115 71.0946 329.833 78.2263C332.9 80.5251 337.516 83.3496 340.83 85.3206C338.672 89.2649 339.509 91.1567 342.312 94.3337C349.989 103.035 353.969 112.705 357.468 123.727C349.362 123.506 341.528 123.245 333.97 126.665C328.827 112.308 319.387 99.7604 305.768 92.5007C300.488 89.6862 295.977 92.5983 296.239 98.6163C290.788 97.5201 286.512 96.4832 280.834 96.2882C277.417 98.0557 273.113 97.9986 269.11 98.9331C257.527 101.637 247.008 109.225 239.772 118.533C235.811 123.626 236.047 128.307 229.194 129.889Z"/><path transform="scale(2 2)" d="M229.194 129.889C229.099 129.859 229.005 129.828 228.91 129.797L228.44 129.635C223.847 128.075 223.059 125.435 223.634 120.868C229.642 73.1122 279.039 47.3706 322.605 65.3194C328.17 67.6121 336.115 71.0946 329.833 78.2263C323.619 80.4786 321.798 77.5342 315.513 75.3732C290.258 66.689 261.112 73.6533 245.097 96.2882C254.166 93.5305 268.512 82.4465 279.17 86.364C283.201 87.8455 282.949 92.8309 280.834 96.2882C277.417 98.0557 273.113 97.9986 269.11 98.9331C257.527 101.637 247.008 109.225 239.772 118.533C235.811 123.626 236.047 128.307 229.194 129.889Z"/><path fill="white" transform="scale(2 2)" d="M326.937 141.403C344.856 132.136 374.237 133.804 385.084 152.547C385.3 153.254 385.647 153.632 385.601 154.384L385.14 154.702C384.018 154.455 380.541 152.135 379.247 151.384C363.665 142.332 346.558 141.682 329.833 148.093C328.983 145.318 328.3 143.975 326.937 141.403Z"/><path fill="#048FEC" transform="scale(2 2)" d="M372.318 234.518C373.599 234.359 376.462 234.472 377.862 234.483L388.397 234.518L388.411 251.923C388.414 255.281 388.825 262.262 387.371 264.97C377.593 273.253 372.178 240.605 372.318 234.518Z"/><path transform="scale(2 2)" d="M147.069 394.211C147.175 368.842 143.918 374.944 159.753 355.029C190.568 316.274 156.74 293.175 159.927 287.157C166.473 274.794 176.617 292.423 179.318 298.421C186.269 312.964 185.749 328.679 180.647 343.092C190.76 344.975 199.883 348.382 210.604 349.317C238.232 351.561 254.881 350.016 280.834 339.691L276.965 329.376C274.035 321.514 273.241 317.999 274.817 309.197C278.528 288.469 290.507 295.976 287.289 307.653C284.362 318.273 287.771 324.524 291.782 334.307C292.95 337.325 295.745 344.072 295.974 347.161C297.018 361.777 296.244 378.79 296.225 393.587C296.219 398.761 293.6 401.419 288.313 400.642C281.451 395.967 284.509 387.714 284.246 379.369C279.376 379.187 274.981 380.094 270.202 380.728C246.066 383.931 213.128 385.53 188.793 380.574C188.617 390.101 193.064 410.51 182.27 411.696C182.247 416.772 182.371 422.184 182.27 427.219C185.608 427.243 187.063 428.351 188.793 431.125C188.851 441.457 183.786 451.696 172.224 451.764C161.229 451.828 128.102 454.574 120.308 447.435C114.707 442.316 111.867 427.06 122.507 427.219C122.56 426.209 122.555 411.793 122.507 411.696C129.994 409.677 127.943 400.652 127.89 394.211C133.936 394.265 141.23 393.917 147.069 394.211Z"/><path fill="#FEC302" transform="scale(2 2)" d="M280.834 339.691C285.777 351.108 284.185 354.568 284.246 366.646C264.053 368.993 244.034 372.942 223.533 372.16C204.483 371.434 185.167 368.702 166.303 365.869C172.647 358.541 176.823 352.12 180.647 343.092C190.76 344.975 199.883 348.382 210.604 349.317C238.232 351.561 254.881 350.016 280.834 339.691Z"/><path fill="#E79E01" transform="scale(2 2)" d="M159.123 377.143C164.623 377.625 171.223 378.678 176.824 379.369C176.817 389.879 172.775 407.001 182.27 411.696C182.247 416.772 182.371 422.184 182.27 427.219C167.485 432.401 190.26 439.963 159.123 439.838L159.123 377.143Z"/><path fill="#FEC302" transform="scale(2 2)" d="M147.069 394.211L147.069 439.838C143.595 439.846 130.321 440.62 128.796 438.68C126.131 435.29 130.34 428.575 122.507 427.219C122.56 426.209 122.555 411.793 122.507 411.696C129.994 409.677 127.943 400.652 127.89 394.211C133.936 394.265 141.23 393.917 147.069 394.211Z"/><path fill="white" transform="scale(2 2)" d="M296.239 181.581C302.326 182.59 304.781 182.917 311.033 182.624L311.807 182.938C312.591 185.078 307.566 203.224 306.601 206.18C298.782 230.144 281.032 248.402 257.355 257.03C244.617 261.672 235.357 261.247 222.377 261.244L183.712 261.234C175.002 261.233 163.887 260.703 155.507 262.061C127.923 266.533 109.686 290.184 106.699 316.939C106.63 317.556 106.036 318.096 105.466 318.254C106.542 325.795 113.295 333.496 110.679 339.691C109.066 341.494 107.694 341.757 105.466 342.301C92.4533 339.137 89.0413 296.516 91.368 285.109C64.4278 276.119 57.5363 237.008 80.2301 218.762C81.9746 217.36 83.3639 216.873 85.5079 216.386C92.5591 218.17 91.2883 221.664 91.2387 227.176C91.1392 238.244 98.8281 249.233 110.679 249.269C129.94 229.572 150.918 230.42 175.827 230.632C180.832 230.675 182.819 233.032 182.27 237.863C187.515 237.942 193.84 237.555 198.854 239.055C202.989 245.011 231.663 242.885 238.38 242.223C272.865 238.825 291.33 213.591 296.239 181.581Z"/><path transform="scale(2 2)" d="M85.5079 216.386C92.5591 218.17 91.2883 221.664 91.2387 227.176C91.1392 238.244 98.8281 249.233 110.679 249.269C129.94 229.572 150.918 230.42 175.827 230.632C180.832 230.675 182.819 233.032 182.27 237.863C180.75 244.8 163.475 242.784 157.498 242.531C118.501 240.876 92.0135 284.139 105.466 318.254C106.542 325.795 113.295 333.496 110.679 339.691C109.066 341.494 107.694 341.757 105.466 342.301C92.4533 339.137 89.0413 296.516 91.368 285.109C64.4278 276.119 57.5363 237.008 80.2301 218.762C81.9746 217.36 83.3639 216.873 85.5079 216.386Z"/><path fill="#FEC302" transform="scale(2 2)" d="M80.4977 237.863C81.0058 238.409 82.7582 243.599 83.7949 245.321C88.2668 252.751 94.1435 257.506 102.493 259.759C99.491 263.47 98.2042 266.031 96.3194 270.432C95.775 271.755 95.4842 272.389 94.7649 273.664C80.2138 267.357 75.7001 252.279 80.4977 237.863Z"/><path transform="scale(2 2)" d="M114.679 354.576C121.244 352.918 121.864 355.982 123.359 361.504C126.315 372.428 127.604 382.932 127.89 394.211C127.943 400.652 129.994 409.677 122.507 411.696C112.331 409.574 115.904 398.291 115.715 388.992C115.512 379.025 113.341 369.889 110.679 360.365C111.413 357.301 111.967 356.184 114.679 354.576Z"/><path transform="scale(2 2)" d="M360.373 162.57C375.922 161.062 377.12 171.072 369.888 173.724C365.873 173.784 357.688 174.737 356.012 170.421C354.539 166.626 356.968 163.766 360.373 162.57Z"/><path fill="#FEC302" transform="scale(2 2)" d="M291.782 334.307C311.175 322.617 323.62 295.72 327.844 274.508C331.105 258.129 329.043 236.763 352.126 233.737C344.436 265.255 352.389 296.878 340.088 328.35C339.549 329.73 338.964 331.202 338.589 332.631C339.414 335.399 339.77 335.883 341.669 338.075C341.06 339.643 335.869 350.321 335.019 351.437C336.805 353.027 337.072 353.696 337.669 356.075C336.335 361.485 330.218 366.195 326.937 371.435L326.947 414.752C326.949 435.465 328.171 454.901 299.174 452.053C279.524 450.123 281.52 422.585 288.313 420.261C288.186 413.88 288.311 407.059 288.313 400.642C293.6 401.419 296.219 398.761 296.225 393.587C296.244 378.79 297.018 361.777 295.974 347.161C295.745 344.072 292.95 337.325 291.782 334.307Z"/><path transform="scale(2 2)" d="M288.313 420.261C301.947 419.594 292.927 438.36 297.561 439.247C316.426 442.859 314.645 435.704 314.644 421.97L314.646 388.212C314.639 366.799 312.519 369.951 326.568 352.718C329.271 349.403 331.754 349.776 335.019 351.437C336.805 353.027 337.072 353.696 337.669 356.075C336.335 361.485 330.218 366.195 326.937 371.435L326.947 414.752C326.949 435.465 328.171 454.901 299.174 452.053C279.524 450.123 281.52 422.585 288.313 420.261Z"/></svg>