<?xml version="1.0" encoding="utf-8" ?><svg xmlns="http://www.w3.org/2000/svg" xmlns:xlink="http://www.w3.org/1999/xlink" width="1024" height="1024" viewBox="0 0 1024 1024"><path fill="#BCDEF6" transform="scale(2 2)" d="M138.353 224.801C135.761 221.914 135.458 217.814 137.559 214.544C153.981 188.989 169.519 182.919 195.473 172.159L285.037 134.64C291.107 132.068 296.522 128.866 303.083 126.618C358.656 107.599 415.124 170.544 383.912 168.417L383.591 168.85C384.785 170.666 392.358 182.524 393.602 183.573C395.462 179.355 399.013 177.001 403.618 178.921C410.764 181.901 418.949 214.756 420.314 221.632C421.049 225.25 421.321 230.763 422.395 234.107C434.142 234.752 444.332 231.099 453.297 241.248C461.161 250.152 460.767 263.752 451.558 271.554C445.226 276.918 440.548 276.783 432.77 276.762L422.395 276.74L422.312 277.05C421.568 279.934 421.232 283.086 420.687 286.025C412.586 329.722 387.075 379.931 338.878 388.124C328.158 389.946 313.306 389.252 302.218 389.254L220.367 389.254C212.515 389.254 205.151 391.62 202.954 382.469C198.233 382.499 192.819 382.646 188.153 382.469C185.106 392.717 173.521 389.26 163.675 389.251L100.431 389.247C90.7769 389.244 81.2688 390.139 72.3151 385.759C54.857 377.218 48.0022 355.122 56.5372 337.864C62.7345 325.333 71.7652 321.199 84.3823 317.483C97.8968 313.502 107.78 297.413 108.827 283.876C109.483 276.263 108.79 261.259 121.618 268.316C123.229 262.55 124.846 255.778 127.123 250.293C124.595 249.287 122.807 246.997 122.446 244.301C122.084 241.605 123.205 238.924 125.379 237.288C127.552 235.653 130.438 235.317 132.929 236.41C133.46 232.842 136.372 227.737 138.353 224.801ZM413.496 262.25C423.696 260.783 447.156 267.715 444.261 252.417C437.587 244.651 423.626 249.88 413.496 248.479C413.016 249.318 413.505 260.15 413.496 262.25Z"/><path fill="#FEC302" transform="scale(2 2)" d="M261.251 159.805L261.063 160.21C259.204 164.149 255.886 168.257 253.595 172.118C219.274 229.947 222.763 315.672 272.389 364.104C277.121 368.526 280.45 371.337 286.078 374.752L216.999 374.742C210.648 374.737 203.168 373.375 202.954 382.469C198.233 382.499 192.819 382.646 188.153 382.469C185.106 392.717 173.521 389.26 163.675 389.251L100.431 389.247C90.7769 389.244 81.2688 390.139 72.3151 385.759C54.857 377.218 48.0022 355.122 56.5372 337.864C62.7345 325.333 71.7652 321.199 84.3823 317.483C97.8968 313.502 107.78 297.413 108.827 283.876C109.483 276.263 108.79 261.259 121.618 268.316C123.229 262.55 124.846 255.778 127.123 250.293C124.595 249.287 122.807 246.997 122.446 244.301C122.084 241.605 123.205 238.924 125.379 237.288C127.552 235.653 130.438 235.317 132.929 236.41C133.46 232.842 136.372 227.737 138.353 224.801C147.792 231.109 149.841 221.47 154.613 215.742C170.798 196.313 182.075 193.496 203.795 184.498L240.312 169.192C246.578 166.567 255.81 163.171 261.251 159.805Z"/><path transform="scale(2 2)" d="M188.153 382.469C185.106 392.717 173.521 389.26 163.675 389.251L100.431 389.247C90.7769 389.244 81.2688 390.139 72.3151 385.759C54.857 377.218 48.0022 355.122 56.5372 337.864C62.7345 325.333 71.7652 321.199 84.3823 317.483C97.8968 313.502 107.78 297.413 108.827 283.876C109.483 276.263 108.79 261.259 121.618 268.316C122.795 269.695 123.879 271.289 123.889 273.215C124.004 293.373 117.819 314.353 99.985 326.01C97.7903 327.246 92.281 330.577 90.1272 331.122C73.8021 335.126 60.6451 347.633 70.215 364.302C76.6545 375.519 85.956 374.749 97.279 374.756L164.54 374.755C172.837 374.756 187.896 371.684 188.153 382.469Z"/><path fill="#F3A90C" transform="scale(2 2)" d="M99.985 326.01C99.9834 327.626 97.968 329.599 96.838 330.832C85.7182 342.963 93.1095 362.747 109.41 364.576C117.094 365.198 126.477 364.745 134.533 364.743L263.498 364.76C266.064 364.777 270.485 365.547 272.389 364.104C277.121 368.526 280.45 371.337 286.078 374.752L216.999 374.742C210.648 374.737 203.168 373.375 202.954 382.469C198.233 382.499 192.819 382.646 188.153 382.469C187.896 371.684 172.837 374.756 164.54 374.755L97.279 374.756C85.956 374.749 76.6545 375.519 70.215 364.302C60.6451 347.633 73.8021 335.126 90.1272 331.122C92.281 330.577 97.7903 327.246 99.985 326.01Z"/><path transform="scale(2 2)" d="M127.123 250.293C124.595 249.287 122.807 246.997 122.446 244.301C122.084 241.605 123.205 238.924 125.379 237.288C127.552 235.653 130.438 235.317 132.929 236.41C136.687 238.06 138.43 242.418 136.846 246.204C135.262 249.99 130.936 251.81 127.123 250.293Z"/><path transform="scale(2 2)" d="M110.792 341.471L199.732 341.465C203.353 341.466 215.443 341.013 217.763 342.357C223.08 345.437 222.957 353.991 215.401 355.758L123.752 355.775C119.933 355.783 116.06 355.718 112.092 355.76C102.561 355.86 101.983 342.9 110.792 341.471Z"/><path transform="scale(2 2)" d="M135.136 304.977C139.931 304.705 172.907 304.621 175.285 305.517C181.776 307.963 179.952 316.663 173.961 319.215C167.018 319.86 135.475 319.453 133.376 318.288C127.606 315.084 128.765 306.811 135.136 304.977Z"/><path transform="scale(2 2)" d="M138.353 224.801C135.761 221.914 135.458 217.814 137.559 214.544C153.981 188.989 169.519 182.919 195.473 172.159L285.037 134.64C291.107 132.068 296.522 128.866 303.083 126.618C358.656 107.599 415.124 170.544 383.912 168.417C379.956 166.758 374.459 159.101 370.252 155.646C364.151 150.635 360.93 148.479 353.92 144.656C352.354 145.565 339.048 142.281 334.421 142.214C281.78 141.418 251.616 212.226 254.811 258.405C257.597 298.68 277.1 347.999 320.133 359.244C348.609 366.686 375.723 351.089 390.077 326.74C391.158 324.905 392.683 320.566 395.003 320.448C400.556 308.724 404.235 295.691 406.448 282.91C407.785 275.187 405.716 266.661 413.496 262.25C423.696 260.783 447.156 267.715 444.261 252.417C437.587 244.651 423.626 249.88 413.496 248.479C407.151 243.542 408.235 242.442 407.397 234.858C405.735 219.839 402.048 204.789 395.409 191.16C394.037 188.343 393.284 186.763 393.602 183.573C395.462 179.355 399.013 177.001 403.618 178.921C410.764 181.901 418.949 214.756 420.314 221.632C421.049 225.25 421.321 230.763 422.395 234.107C434.142 234.752 444.332 231.099 453.297 241.248C461.161 250.152 460.767 263.752 451.558 271.554C445.226 276.918 440.548 276.783 432.77 276.762L422.395 276.74L422.312 277.05C421.568 279.934 421.232 283.086 420.687 286.025C412.586 329.722 387.075 379.931 338.878 388.124C328.158 389.946 313.306 389.252 302.218 389.254L220.367 389.254C212.515 389.254 205.151 391.62 202.954 382.469C203.168 373.375 210.648 374.737 216.999 374.742L286.078 374.752C280.45 371.337 277.121 368.526 272.389 364.104C222.763 315.672 219.274 229.947 253.595 172.118C255.886 168.257 259.204 164.149 261.063 160.21L261.251 159.805C255.81 163.171 246.578 166.567 240.312 169.192L203.795 184.498C182.075 193.496 170.798 196.313 154.613 215.742C149.841 221.47 147.792 231.109 138.353 224.801Z"/><path fill="#6CC5EB" transform="scale(2 2)" d="M395.003 320.448C384.863 342.76 370.105 362.887 345.946 371.214C320.476 379.994 292.609 366.942 275.943 347.4C239.381 304.529 237.153 236.287 261.881 187.206C280.211 150.823 312.978 123.235 353.92 144.656C352.354 145.565 339.048 142.281 334.421 142.214C281.78 141.418 251.616 212.226 254.811 258.405C257.597 298.68 277.1 347.999 320.133 359.244C348.609 366.686 375.723 351.089 390.077 326.74C391.158 324.905 392.683 320.566 395.003 320.448Z"/><path fill="white" transform="scale(2 2)" d="M365.313 221C370.173 232.198 374.136 247.365 372.715 259.611C370.934 260.145 368.232 262.926 366.489 264.096C356.995 270.472 344.339 269.594 339.212 272.704C351.092 275.113 347.617 290.819 333.434 286.925C303.922 278.823 303.468 234.493 331.612 226.094C337.016 224.482 339.68 223.121 344.297 227.029C348.256 225.275 359.654 222.936 365.313 221Z"/><path transform="scale(2 2)" d="M339.212 272.704C351.092 275.113 347.617 290.819 333.434 286.925C303.922 278.823 303.468 234.493 331.612 226.094C337.016 224.482 339.68 223.121 344.297 227.029C349.829 234.995 343.456 238.275 336.579 240.19C320.433 244.686 322.207 271.8 339.212 272.704Z"/><path transform="scale(2 2)" d="M365.313 221C362.625 216.062 359.284 210.92 365.793 206.925C377.683 199.627 384.926 233.612 385.793 240.122C389.691 269.388 383.036 304.766 358.172 323.598C354.665 326.253 351.03 329.811 346.146 328.045C342.3 326.654 340.241 321.62 342.19 317.896C344.09 314.268 349.845 312.296 352.614 309.252C364.374 298.511 373.393 275.597 372.715 259.611C374.136 247.365 370.173 232.198 365.313 221Z"/><path transform="scale(2 2)" d="M295.522 167.56C299.433 167.198 303.194 169.476 304.016 173.386C304.932 177.74 299.868 182.301 297.471 185.507C284.04 203.472 276.971 225.619 275.541 247.885C275.184 253.442 277.004 261.176 269.726 262.25C249.618 269.596 269.821 206.153 272.683 199.849C276.183 192.141 287.789 170.505 295.522 167.56Z"/><path transform="scale(2 2)" d="M351.692 183.573C360.28 184.042 366.532 196.759 354.985 200.386C345.955 201.008 339.737 185.646 351.692 183.573Z"/><path transform="scale(2 2)" d="M317.396 152.393C321.452 151.257 325.658 153.642 326.763 157.707C327.869 161.771 325.451 165.958 321.378 167.033C317.349 168.095 313.217 165.71 312.124 161.689C311.03 157.668 313.384 153.518 317.396 152.393Z"/></svg>