<?xml version="1.0" encoding="utf-8" ?><svg xmlns="http://www.w3.org/2000/svg" xmlns:xlink="http://www.w3.org/1999/xlink" width="1024" height="1024" viewBox="0 0 1024 1024"><path transform="scale(2 2)" d="M254.351 168.308C231.759 167.763 215.443 168.782 194.928 181.415C181.678 190.024 178.301 176.251 184.019 172.51C210.075 155.458 227.598 154.96 256.375 155.491C265.914 155.391 273.042 154.308 282.903 155.605C311.243 159.335 337.156 174.832 354.738 197.197C367.856 213.883 372.345 233.399 376.153 253.644C381.454 253.595 387.014 254.86 392.204 255.853C411.257 259.498 466.155 271.803 466.244 298.046C466.265 304.306 463.914 308.99 457.131 308.243C454.041 312.514 437.777 321.385 432.364 322.921C433.743 332.912 424.094 336.466 419.265 327.683C416.64 328.963 404.581 332.533 401.768 332.667C401.511 339.47 398.286 339.272 392.775 340.675C347.379 352.231 300.871 356.895 254.092 356.735C250.096 356.721 248.384 353.695 248.068 350.158C243.216 350.439 235.136 350.54 230.351 350.158C229.468 352.437 228.265 353.429 226.317 354.695C223.611 355.02 219.577 354.675 216.779 354.517L202.75 353.678C156.482 350.827 102.842 342.288 62.1585 319.429C29.9284 301.32 50.4456 275.858 78.1224 269.732C82.3628 270.775 85.4371 273.461 83.9928 278.253C81.7823 285.176 52.787 289.973 59.9323 300.244C66.36 309.483 85.5388 317.361 96.0357 320.674C96.6086 320.181 96.1307 319.763 95.633 319.468C89.7813 315.997 83.449 308.544 86.3875 301.305C92.4789 286.296 123.31 281.278 138.267 279.403C138.343 279.338 138.418 279.272 138.494 279.207C132.952 274.935 132.238 273.685 133.269 266.658C126.546 268.111 112.024 272.702 105.91 272.975C99.038 273.282 96.9058 262.83 102.892 260.585C107.074 259.016 111.606 258.177 115.959 257.173L136.077 252.445C140.355 235.691 139.307 224.355 149.81 207.603C153.705 201.39 158.503 192.513 166.096 190.612C179.631 193.739 170.037 202.651 166.12 207.739C160.931 214.478 156.524 222.472 154.317 230.702C159.885 234.145 165.689 235.232 171.313 238.065C171.208 233.948 174.837 228.253 176.839 224.754C191.795 198.609 218.235 178.203 247.506 170.914C249.582 170.397 252.722 169.619 254.351 168.308Z"/><path fill="#BCDEF6" transform="scale(2 2)" d="M378.235 266.658C393.594 269.049 441.839 279.892 451.287 293.483C455.856 300.056 448.798 303.375 457.131 308.243C454.041 312.514 437.777 321.385 432.364 322.921C433.743 332.912 424.094 336.466 419.265 327.683C416.64 328.963 404.581 332.533 401.768 332.667C401.511 339.47 398.286 339.272 392.775 340.675C347.379 352.231 300.871 356.895 254.092 356.735C250.096 356.721 248.384 353.695 248.068 350.158C243.216 350.439 235.136 350.54 230.351 350.158C229.468 352.437 228.265 353.429 226.317 354.695C223.611 355.02 219.577 354.675 216.779 354.517L202.75 353.678C156.482 350.827 102.842 342.288 62.1585 319.429C29.9284 301.32 50.4456 275.858 78.1224 269.732C82.3628 270.775 85.4371 273.461 83.9928 278.253C81.7823 285.176 52.787 289.973 59.9323 300.244C66.36 309.483 85.5388 317.361 96.0357 320.674C96.6086 320.181 96.1307 319.763 95.633 319.468C89.7813 315.997 83.449 308.544 86.3875 301.305C92.4789 286.296 123.31 281.278 138.267 279.403C138.343 279.338 138.418 279.272 138.494 279.207C186.462 310.649 304.955 307.774 356.912 287.678C364.047 284.919 375.026 280.489 378.235 273.213C378.432 270.992 378.311 268.881 378.235 266.658Z"/><path fill="#16B5F7" transform="scale(2 2)" d="M378.235 266.658C393.594 269.049 441.839 279.892 451.287 293.483C455.856 300.056 448.798 303.375 457.131 308.243C454.041 312.514 437.777 321.385 432.364 322.921C433.743 332.912 424.094 336.466 419.265 327.683C416.64 328.963 404.581 332.533 401.768 332.667C401.511 339.47 398.286 339.272 392.775 340.675C347.379 352.231 300.871 356.895 254.092 356.735C250.096 356.721 248.384 353.695 248.068 350.158C243.216 350.439 235.136 350.54 230.351 350.158C230.318 345.375 229.245 343.286 224.513 341.484C228.283 340.845 235.916 341.362 240.106 341.14L274.628 339.51C305.973 338.026 338.249 332.652 368.508 324.703C423.81 310.973 440.625 290.133 378.235 273.213C378.432 270.992 378.311 268.881 378.235 266.658Z"/><path transform="scale(2 2)" d="M248.068 350.158C249.243 342.569 256.331 343.571 262.084 343.492C303.48 342.925 345.022 338.487 385.302 328.764C392.043 327.137 398.785 323.851 401.768 332.667C401.511 339.47 398.286 339.272 392.775 340.675C347.379 352.231 300.871 356.895 254.092 356.735C250.096 356.721 248.384 353.695 248.068 350.158Z"/><path transform="scale(2 2)" d="M419.265 327.683C416.199 316.886 428.74 313.418 432.364 322.921C433.743 332.912 424.094 336.466 419.265 327.683Z"/><path transform="scale(2 2)" d="M78.1224 269.732C82.3628 270.775 85.4371 273.461 83.9928 278.253C81.7823 285.176 52.787 289.973 59.9323 300.244C66.36 309.483 85.5388 317.361 96.0357 320.674C126.996 332.494 167.888 337.578 200.597 340.088C206.943 340.575 218.234 341.619 224.513 341.484C229.245 343.286 230.318 345.375 230.351 350.158C229.468 352.437 228.265 353.429 226.317 354.695C223.611 355.02 219.577 354.675 216.779 354.517L202.75 353.678C156.482 350.827 102.842 342.288 62.1585 319.429C29.9284 301.32 50.4456 275.858 78.1224 269.732Z"/><path fill="#BCDEF6" transform="scale(2 2)" d="M254.351 168.308C260.321 168.299 267.006 167.531 272.697 167.999C274.736 169.582 279.249 171.044 281.741 172.239C303.873 182.855 321.225 198.876 331.474 221.615C333.406 225.903 336.035 235.009 337.799 238.065C307.729 245.895 277.53 248.906 246.646 248.521C242.703 248.472 240.344 251.651 240.245 255.481C235.333 255.352 225.202 254.704 220.503 253.475C219.987 256.948 216.848 259.413 213.352 259.093C209.855 258.773 207.217 255.778 207.34 252.269C200.779 251.678 194.334 249.655 187.846 249.217L187.886 249.077C190.444 240.378 177.364 237.825 171.313 238.065C171.208 233.948 174.837 228.253 176.839 224.754C191.795 198.609 218.235 178.203 247.506 170.914C249.582 170.397 252.722 169.619 254.351 168.308Z"/><path transform="scale(2 2)" d="M207.34 252.269C207.426 249.816 208.861 247.612 211.07 246.543C213.279 245.473 215.898 245.713 217.875 247.166C219.853 248.619 220.864 251.047 220.503 253.475C219.987 256.948 216.848 259.413 213.352 259.093C209.855 258.773 207.217 255.778 207.34 252.269Z"/><path fill="#FEC302" transform="scale(2 2)" d="M150.902 244.576C160.565 245.854 168.93 252.382 182.017 252.768C184.844 252.851 186.147 251.145 187.846 249.217C194.334 249.655 200.779 251.678 207.34 252.269C207.217 255.778 209.855 258.773 213.352 259.093C216.848 259.413 219.987 256.948 220.503 253.475C225.202 254.704 235.333 255.352 240.245 255.481C242.745 263.396 248.767 261.477 255.742 261.524C280.685 261.689 315.299 258.24 339.814 251.12C340.671 254.06 341.259 258.241 341.777 261.346L344.579 277.891C292.386 293.9 207.013 294.958 155.733 273.179C152.733 271.905 149.9 270.296 146.84 269.141L146.461 269C147.492 262.185 148.777 250.866 150.902 244.576Z"/><path fill="#16B5F7" transform="scale(2 2)" d="M272.697 167.999C311.104 168.579 345.81 196.17 357.891 232.132C351.484 234.196 343.812 236.019 337.799 238.065C336.035 235.009 333.406 225.903 331.474 221.615C321.225 198.876 303.873 182.855 281.741 172.239C279.249 171.044 274.736 169.582 272.697 167.999Z"/><path fill="#F9A902" transform="scale(2 2)" d="M339.814 251.12C346.584 249.523 354.7 246.936 361.235 244.576C362.875 252.673 364.245 260.803 365.281 269C357.3 273.151 353.326 275.141 344.579 277.891L341.777 261.346C341.259 258.241 340.671 254.06 339.814 251.12Z"/></svg>