<?xml version="1.0" encoding="utf-8" ?><svg xmlns="http://www.w3.org/2000/svg" xmlns:xlink="http://www.w3.org/1999/xlink" width="1024" height="1024" viewBox="0 0 1024 1024"><path fill="#BCDEF6" transform="scale(2 2)" d="M327.152 74.6096C339.042 57.6879 362.079 60.2276 370.428 79.2831C383.117 75.6154 394.502 82.1788 399.997 94.1419C404.4 103.726 399.564 125.173 386.459 119.486C386.007 122.239 385.241 124.464 383.754 126.867C391.116 134.339 394.963 143.191 397.589 153.134C397.664 153.419 419.913 161.409 421.973 162.064C431.668 165.146 432.112 173.119 422.403 177.18C414.185 180.619 404.597 185.031 396.522 189.277C413.598 207.013 410.567 255.337 375.266 222.02C382.333 254.459 398.055 289.964 381.957 322.8C380.263 326.256 376.431 326.55 373.189 325.362C371.517 329.807 368.679 335.541 366.399 339.732C374.687 347.904 362.39 357.196 355.988 363.12C341.958 376.104 327.564 383.828 309.12 388.519C306.593 393.63 303.709 410.86 298.391 411.777C283.64 414.321 292.398 397.799 293.842 391.263C287.332 391.753 280.038 392.059 273.484 391.924C277.271 401.051 286.887 419.035 292.438 428.25L317.234 428.23C321.601 428.229 326.12 428.045 330.447 428.489C338.694 429.413 338.041 441.869 330.375 442.222C325.978 442.424 321.498 442.329 317.097 442.321L268.446 442.32C263.825 442.321 259.308 442.473 254.638 442.088C247.768 441.522 241.393 428.267 261.341 428.251L277.064 428.25C276.149 425.741 270.635 415.812 269.098 412.79L262.169 399.059C261.033 396.788 259.498 393.294 258.156 391.263C254.083 390.714 249.928 390.588 245.82 390.315L206.926 387.053C193.185 385.761 189.224 386.441 176.226 393.572L176.485 393.76C185.958 400.495 197.356 405.564 207.331 412.686C214.022 417.464 206.432 427.844 199.705 424.049C196.47 422.404 193.315 420.333 190.22 418.425L127.249 379.576C122.485 376.577 122.752 367.57 131.055 367.465C135.884 367.305 156.919 381.533 162.827 384.879C169.029 381.773 176.987 378.475 182.704 375.281C176.814 373.078 173.33 371.526 168.321 367.465C164.661 366.936 163.388 365.476 160.9 363.101C141.144 344.238 133.631 313.34 133.751 286.79C105.995 292.824 88.5513 272.564 95.7153 246.293C74.9882 232.41 78.2592 204.039 101.554 194.507C92.0149 165.274 119.672 143.519 143.486 157.714C153.583 163.733 154.437 171.092 158.806 180.827C162.414 188.866 168.482 196.586 174.532 202.917C178.541 207.111 184.636 209.374 180.323 216.2C183.75 216.599 192.856 224.729 196.27 225.466C199.013 220.643 201.945 220.555 207.074 222.015C220.943 225.995 235.878 222.843 248.559 216.572C253.673 214.044 256.204 211.405 261.121 217.273C262.105 214.417 272.538 208.697 275.48 208.006C268.699 201.974 272.387 197.782 276.747 192.37C285.958 180.939 279.732 160.243 290.752 141.163C288.26 140.046 286.705 139.007 284.775 137.124C267.44 143.776 257.92 97.0794 290.752 94.7013C289.913 74.5681 310.205 67.8547 327.152 74.6096ZM307.797 168.452C313.58 138.197 344.318 125.308 371.04 139.105C371.968 139.585 379.168 143.617 379.313 143.633C359.234 108.511 311.519 119.207 298.519 157.496C298.694 158.611 298.626 158.917 298.519 160.066L298.765 160.453C300.158 159.772 299.292 159.247 300.587 158.746C304.322 162.668 305.014 164.006 307.797 168.452Z"/><path transform="scale(2 2)" d="M327.152 74.6096C339.042 57.6879 362.079 60.2276 370.428 79.2831C383.117 75.6154 394.502 82.1788 399.997 94.1419C404.4 103.726 399.564 125.173 386.459 119.486C386.007 122.239 385.241 124.464 383.754 126.867C391.116 134.339 394.963 143.191 397.589 153.134C397.664 153.419 419.913 161.409 421.973 162.064C431.668 165.146 432.112 173.119 422.403 177.18C414.185 180.619 404.597 185.031 396.522 189.277C413.598 207.013 410.567 255.337 375.266 222.02C382.333 254.459 398.055 289.964 381.957 322.8C380.263 326.256 376.431 326.55 373.189 325.362C365.237 319.189 372.724 312.95 374.198 303.557C375.158 297.438 375.677 291.883 375.266 285.731C375.026 272.364 367.822 245.359 364.033 232.05C361.03 221.499 362.224 218.126 365.462 208.006C364.567 208.097 361.412 209.381 360.47 209.725C337.812 218.005 310.622 203.044 308.109 178.417C307.753 174.926 307.76 171.934 307.797 168.452C313.58 138.197 344.318 125.308 371.04 139.105C371.968 139.585 379.168 143.617 379.313 143.633C359.234 108.511 311.519 119.207 298.519 157.496C298.694 158.611 298.626 158.917 298.519 160.066C292.904 168.98 300.424 182.684 286.637 201.763C282.803 207.07 282.091 208.118 275.48 208.006C268.699 201.974 272.387 197.782 276.747 192.37C285.958 180.939 279.732 160.243 290.752 141.163C288.26 140.046 286.705 139.007 284.775 137.124C267.44 143.776 257.92 97.0794 290.752 94.7013C289.913 74.5681 310.205 67.8547 327.152 74.6096Z"/><path transform="scale(2 2)" d="M327.152 74.6096C339.042 57.6879 362.079 60.2276 370.428 79.2831C383.117 75.6154 394.502 82.1788 399.997 94.1419C404.4 103.726 399.564 125.173 386.459 119.486C386.007 122.239 385.241 124.464 383.754 126.867C361.495 104.26 325.692 102.231 302.819 125.318C297.782 130.402 294.595 135.151 290.752 141.163C288.26 140.046 286.705 139.007 284.775 137.124C267.44 143.776 257.92 97.0794 290.752 94.7013C289.913 74.5681 310.205 67.8547 327.152 74.6096Z"/><path fill="#FEC302" transform="scale(2 2)" d="M284.775 137.124C294 128.459 283.015 126.371 282.223 119.03C281.788 115.007 285.08 109.359 289.492 108.539C295.15 107.487 300.186 113.608 304.997 108.794C309.214 103.775 296.759 85.5312 314.569 84.9435C322.41 84.6848 324.394 94.8646 330.272 94.3095C338.658 93.1832 334.9 85.415 340.199 80.2743C345.492 74.4568 355.973 77.4586 357.63 85.0122C358.644 89.6307 355.721 96.1697 362.447 97.5332C368.932 98.858 369.951 91.8805 376.767 92.1366C383.356 91.7034 389.97 98.9819 387.492 105.509C385.595 110.507 380.365 113.349 386.213 119.241L386.459 119.486C386.007 122.239 385.241 124.464 383.754 126.867C361.495 104.26 325.692 102.231 302.819 125.318C297.782 130.402 294.595 135.151 290.752 141.163C288.26 140.046 286.705 139.007 284.775 137.124Z"/><path fill="#FEC302" transform="scale(2 2)" d="M307.797 168.452C313.58 138.197 344.318 125.308 371.04 139.105C371.968 139.585 379.168 143.617 379.313 143.633C382.534 148.645 384.021 153.73 385.058 159.515C386.324 166.571 397.069 166.849 403.813 170.367C394.354 175.783 373.789 179.346 381.049 190.35C373.996 197.051 369.263 198.798 365.462 208.006C364.567 208.097 361.412 209.381 360.47 209.725C337.812 218.005 310.622 203.044 308.109 178.417C307.753 174.926 307.76 171.934 307.797 168.452Z"/><path transform="scale(2 2)" d="M349.313 151.404C351.78 150.66 354.456 151.309 356.309 153.1C358.162 154.891 358.901 157.544 358.241 160.035C357.581 162.526 355.626 164.465 353.129 165.104C349.381 166.064 345.552 163.85 344.514 160.123C343.475 156.395 345.607 152.521 349.313 151.404Z"/><path fill="#F71E1E" transform="scale(2 2)" d="M388.761 200.735C392.285 203.994 392.884 214.343 392.927 218.831C391.006 217.683 389.964 216.88 388.28 215.448C385.915 213.499 383.18 210.792 381.049 208.601C383.678 205.326 386.174 204.466 388.761 200.735Z"/><path transform="scale(2 2)" d="M350.436 283.761C360.057 278.418 366.861 277.699 375.266 285.731C375.677 291.883 375.158 297.438 374.198 303.557C372.724 312.95 365.237 319.189 373.189 325.362C371.517 329.807 368.679 335.541 366.399 339.732C374.687 347.904 362.39 357.196 355.988 363.12C341.958 376.104 327.564 383.828 309.12 388.519C306.593 393.63 303.709 410.86 298.391 411.777C283.64 414.321 292.398 397.799 293.842 391.263C287.332 391.753 280.038 392.059 273.484 391.924C277.271 401.051 286.887 419.035 292.438 428.25L317.234 428.23C321.601 428.229 326.12 428.045 330.447 428.489C338.694 429.413 338.041 441.869 330.375 442.222C325.978 442.424 321.498 442.329 317.097 442.321L268.446 442.32C263.825 442.321 259.308 442.473 254.638 442.088C247.768 441.522 241.393 428.267 261.341 428.251L277.064 428.25C276.149 425.741 270.635 415.812 269.098 412.79L262.169 399.059C261.033 396.788 259.498 393.294 258.156 391.263C254.083 390.714 249.928 390.588 245.82 390.315L206.926 387.053C193.185 385.761 189.224 386.441 176.226 393.572L176.485 393.76C185.958 400.495 197.356 405.564 207.331 412.686C214.022 417.464 206.432 427.844 199.705 424.049C196.47 422.404 193.315 420.333 190.22 418.425L127.249 379.576C122.485 376.577 122.752 367.57 131.055 367.465C135.884 367.305 156.919 381.533 162.827 384.879C169.029 381.773 176.987 378.475 182.704 375.281C188.595 372.993 189.014 372.068 195.391 372.292C198.945 372.307 209.393 373.194 212.667 374.169C215.121 369.295 222.162 363.502 227.044 361.227C219.453 358.89 210.055 353.267 210.277 344.046C222.36 350.187 232.467 348.827 245.64 348.163C261.713 347.353 280.329 347.516 295.724 342.748C319.398 335.417 337.725 316.621 345.104 293.195C345.743 291.166 346.334 288.62 347.416 286.79C348.653 285.952 348.853 284.946 350.436 283.761Z"/><path fill="#FEC302" transform="scale(2 2)" d="M350.436 283.761C360.057 278.418 366.861 277.699 375.266 285.731C375.677 291.883 375.158 297.438 374.198 303.557C372.724 312.95 365.237 319.189 373.189 325.362C371.517 329.807 368.679 335.541 366.399 339.732C357.723 336.696 356.262 342.64 351.04 347.997C324.012 375.723 298.384 379.928 261.052 377.399L234.546 375.405C228.519 374.938 218.385 373.839 212.667 374.169C215.121 369.295 222.162 363.502 227.044 361.227C219.453 358.89 210.055 353.267 210.277 344.046C222.36 350.187 232.467 348.827 245.64 348.163C261.713 347.353 280.329 347.516 295.724 342.748C319.398 335.417 337.725 316.621 345.104 293.195C345.743 291.166 346.334 288.62 347.416 286.79C348.653 285.952 348.853 284.946 350.436 283.761Z"/><path fill="#F5A903" transform="scale(2 2)" d="M347.416 286.79C348.653 285.952 348.853 284.946 350.436 283.761C351.447 302.084 345.484 321.054 333.312 334.936C311.866 359.394 282.317 361.233 252.076 361.234L227.044 361.227C219.453 358.89 210.055 353.267 210.277 344.046C222.36 350.187 232.467 348.827 245.64 348.163C261.713 347.353 280.329 347.516 295.724 342.748C319.398 335.417 337.725 316.621 345.104 293.195C345.743 291.166 346.334 288.62 347.416 286.79Z"/><path fill="#FEC302" transform="scale(2 2)" d="M272.477 268.671C289.806 249.744 319.77 236.354 336.706 262.788C351.722 252.74 347.598 281.438 347.416 286.79C346.334 288.62 345.743 291.166 345.104 293.195C337.725 316.621 319.398 335.417 295.724 342.748C280.329 347.516 261.713 347.353 245.64 348.163C232.467 348.827 222.36 350.187 210.277 344.046C206.991 341.57 203.733 339.316 201.189 336.074C184.96 315.392 197.443 283.477 223.083 281.41C236.22 280.351 247.815 280.268 258.025 270.462C262.85 265.827 266.708 260.675 272.477 268.671Z"/><path transform="scale(2 2)" d="M336.706 262.788C351.722 252.74 347.598 281.438 347.416 286.79C346.334 288.62 345.743 291.166 345.104 293.195C337.725 316.621 319.398 335.417 295.724 342.748C280.329 347.516 261.713 347.353 245.64 348.163C232.467 348.827 222.36 350.187 210.277 344.046C206.991 341.57 203.733 339.316 201.189 336.074C184.96 315.392 197.443 283.477 223.083 281.41C236.22 280.351 247.815 280.268 258.025 270.462C262.85 265.827 266.708 260.675 272.477 268.671C273.419 272.176 272.452 275.153 270.109 277.853C249.371 301.753 224.077 287.556 212.092 301.771C202.115 313.603 208.802 331.579 223.73 334.573C234.536 336.732 265.865 333.93 276.978 332.872C308.433 329.881 333.096 306.378 334.526 274.654C334.731 270.09 333.357 266.97 336.48 263.067L336.706 262.788Z"/><path transform="scale(2 2)" d="M101.554 194.507C92.0149 165.274 119.672 143.519 143.486 157.714C153.583 163.733 154.437 171.092 158.806 180.827C162.414 188.866 168.482 196.586 174.532 202.917C178.541 207.111 184.636 209.374 180.323 216.2C174.032 221.867 171.064 218.901 165.847 213.924C158.254 206.761 151.827 197.158 146.97 188.035C143.573 181.653 143.768 173.042 136.971 169.472C119.147 160.135 104.511 180.277 117.384 195.505C121.712 200.626 125.387 205.875 131.722 209.171C142.19 214.617 132.262 237.334 108.519 206.172C98.9786 209.909 93.2294 216.576 96.959 227.15C102.925 244.065 133.467 233.238 128.012 249C125.546 256.126 114.311 251.941 108.519 251.132C104.468 265.924 115.006 276.714 129.771 273.798C150.007 269.801 146.912 271.258 147.44 289.539C148.074 311.479 153.164 334.624 168.211 351.396C171.846 355.448 177.878 358.656 173.327 364.917C171.267 366.585 170.902 366.892 168.321 367.465C164.661 366.936 163.388 365.476 160.9 363.101C141.144 344.238 133.631 313.34 133.751 286.79C105.995 292.824 88.5513 272.564 95.7153 246.293C74.9882 232.41 78.2592 204.039 101.554 194.507Z"/><path transform="scale(2 2)" d="M196.27 225.466C199.013 220.643 201.945 220.555 207.074 222.015C220.943 225.995 235.878 222.843 248.559 216.572C253.673 214.044 256.204 211.405 261.121 217.273C263.212 224.189 260.199 226.171 254.522 228.987C239.311 236.533 223.081 239.8 206.248 236.139C200.338 234.854 194.13 233.273 196.27 225.466Z"/><path fill="#8CB1DB" transform="scale(2 2)" d="M173.327 364.917C179.143 367.368 185.85 371.535 192.488 372.027C193.902 372.132 193.793 371.876 195.391 372.292C189.014 372.068 188.595 372.993 182.704 375.281C176.814 373.078 173.33 371.526 168.321 367.465C170.902 366.892 171.267 366.585 173.327 364.917Z"/><path transform="scale(2 2)" d="M228.264 428.25C230.894 428.216 235.305 427.947 237.57 428.894C244.348 431.731 242.906 439.927 236.545 442.308C218.762 442.908 219.043 431.094 228.264 428.25Z"/></svg>