<?xml version="1.0" encoding="utf-8" ?><svg xmlns="http://www.w3.org/2000/svg" xmlns:xlink="http://www.w3.org/1999/xlink" width="1024" height="1024" viewBox="0 0 1024 1024"><path fill="#FEC302" transform="scale(2 2)" d="M134.748 164.467C134.414 145.472 152.404 126.878 170.555 124.028C189.379 121.072 188.493 125.818 191.625 142.791C199.97 140.079 225.273 133.48 229.138 145.061C231.327 144.125 238.993 143.722 242.821 142.791C243.047 133.146 255.937 131.516 258.832 141.265C264.167 141.532 269.96 141.129 275.375 141.265C277.674 133.032 282.714 134.406 289.738 134.746C344.156 137.384 400.873 156.918 421.044 212.25L431.278 212.277C461.357 212.31 455.64 184.598 440.8 181.934C434.508 180.805 426.346 175.839 432.926 169.764C446.932 156.834 484.785 192.421 457.562 218.065C447.342 227.75 438.169 226.544 425.241 226.5C428.395 253.643 426.927 280.862 412.592 304.85C409.533 309.968 410.434 315.063 410.438 320.894L410.46 349.062C410.464 354.649 410.829 361.706 409.838 366.945C406.644 383.827 393.282 387.726 378.701 387.675L345.427 387.627C337.175 387.614 331.414 388.407 324.525 383.046C309.612 371.437 317.743 347.845 331.919 347.214C333.25 347.499 334.012 347.609 335.271 348.165C337.333 346.902 336.236 339.625 335.271 338.551C334.56 338.581 333.593 338.673 332.931 338.551C303.148 345.866 257.428 348.757 226.983 341.673C226.598 352.111 228.828 366.093 223.822 375.387C217.049 387.961 207.241 387.736 195.441 387.657L176.289 387.635C170.485 387.634 164.782 387.75 158.991 387.865C142.444 388.196 132 366.127 143.035 353.565C148.766 347.041 148.552 339.825 158.019 343.213C158.426 342.317 157.781 323.545 158.019 320.237C153.628 317.048 150.333 314.282 146.129 310.999C118.032 318.09 93.0177 306.417 79.4656 281.229C65.2186 281.293 52.7247 280.227 46.8444 264.454C44.0747 257.025 43.9573 241.581 47.601 233.942C59.7036 208.571 91.0053 224.198 95.4665 215.268C96.9681 212.262 96.9435 206.926 98.1098 203.644C104.078 185.183 116.073 171.311 134.748 164.467ZM158.746 178.853C159.028 177.22 159.293 176.109 159.719 174.509C137.064 174.329 118.789 184.739 111.786 206.751C108.4 217.391 109.774 228.859 93.6863 231.947C75.1904 235.496 58.675 223.269 59.0648 252.496C59.1689 260.305 61.6533 267.13 70.6515 267.193C70.6214 258.978 68.5257 241.718 78.1978 239.556C90.4335 236.822 99.7595 242.258 111.328 233.708C122.815 225.218 120.807 217.562 125.214 205.882C130.394 192.151 144.214 181.124 158.746 178.853ZM365.993 368.719C366.956 373.795 368.429 373.566 373.086 373.507C379.625 370.147 382.807 367.808 385.757 360.32C391.544 345.631 378.166 341.475 376.073 350.119C378.126 362.517 367.238 359.536 365.993 368.719ZM192.386 373.507C201.128 367.853 205.401 354.281 193.844 353.954C192.569 362.896 185.57 361.838 184.814 366.449C184.112 370.844 188.47 373.878 192.386 373.507Z"/><path transform="scale(2 2)" d="M275.375 141.265C277.674 133.032 282.714 134.406 289.738 134.746C344.156 137.384 400.873 156.918 421.044 212.25L431.278 212.277C461.357 212.31 455.64 184.598 440.8 181.934C434.508 180.805 426.346 175.839 432.926 169.764C446.932 156.834 484.785 192.421 457.562 218.065C447.342 227.75 438.169 226.544 425.241 226.5C428.395 253.643 426.927 280.862 412.592 304.85C409.533 309.968 410.434 315.063 410.438 320.894L410.46 349.062C410.464 354.649 410.829 361.706 409.838 366.945C406.644 383.827 393.282 387.726 378.701 387.675L345.427 387.627C337.175 387.614 331.414 388.407 324.525 383.046C309.612 371.437 317.743 347.845 331.919 347.214C333.25 347.499 334.012 347.609 335.271 348.165C337.333 346.902 336.236 339.625 335.271 338.551C336.268 337.779 338.206 337.133 339.428 336.832C345.723 334.773 360.141 330.432 365.011 326.513C366.473 328.603 365.803 344.63 365.993 348.165C370.375 345.399 372.624 346.405 376.073 350.119C378.126 362.517 367.238 359.536 365.993 368.719C366.956 373.795 368.429 373.566 373.086 373.507C393.245 374.027 396.22 373.182 396.212 352.487L396.189 320.188C396.18 304.475 395.92 305.893 403.169 292.19C409.67 279.902 412.514 260.342 412.256 246.307C413.021 179.094 345.859 149.954 286.756 149C280.811 148.902 275.764 148.222 275.375 141.265Z"/><path fill="#BCDEF6" transform="scale(2 2)" d="M365.011 326.513C366.473 328.603 365.803 344.63 365.993 348.165C360.773 350.087 358.334 352.895 355.188 357.415C349.794 357.487 343.935 357.897 338.563 357.415C339.228 354.743 339.025 353.585 338.563 350.961C337.535 349.789 336.509 349.1 335.271 348.165C337.333 346.902 336.236 339.625 335.271 338.551C336.268 337.779 338.206 337.133 339.428 336.832C345.723 334.773 360.141 330.432 365.011 326.513Z"/><path fill="#158CF5" transform="scale(2 2)" d="M338.563 357.415C343.935 357.897 349.794 357.487 355.188 357.415C352.19 363.112 352.432 367.29 352.474 373.507C347.777 373.507 336.381 374.484 333.061 371.866C324.389 365.028 337.221 359.522 338.563 357.415Z"/><path transform="scale(2 2)" d="M134.748 164.467C134.414 145.472 152.404 126.878 170.555 124.028C189.379 121.072 188.493 125.818 191.625 142.791C199.97 140.079 225.273 133.48 229.138 145.061C230.992 153.569 232.617 161.003 232.749 169.756C232.843 186.577 228.863 202 216.876 214.522C211.748 219.878 204.351 218.534 203.368 210.615C202.958 207.312 207.891 203.526 209.688 201.058C218.771 188.935 221.691 167.419 216.507 153.041C174.101 152.491 176.423 185.119 165.976 185.663C161.895 185.8 159.669 182.265 158.746 178.853C159.028 177.22 159.293 176.109 159.719 174.509C137.064 174.329 118.789 184.739 111.786 206.751C108.4 217.391 109.774 228.859 93.6863 231.947C75.1904 235.496 58.675 223.269 59.0648 252.496C59.1689 260.305 61.6533 267.13 70.6515 267.193C78.0048 267.12 85.3703 267.237 92.7148 267.222C110.038 267.185 101.71 256.457 111.009 256.133C122.581 255.329 122.521 278.505 95.4138 281.229C105.535 294.929 121.97 301.27 138.794 298.383C152.641 296.007 147.194 293.59 158.635 302.799C163.233 306.582 168.122 309.942 173.329 312.819C178.971 315.937 191.802 319.638 181.469 329.031C174.591 331.133 163.98 323.788 158.019 320.237C153.628 317.048 150.333 314.282 146.129 310.999C118.032 318.09 93.0177 306.417 79.4656 281.229C65.2186 281.293 52.7247 280.227 46.8444 264.454C44.0747 257.025 43.9573 241.581 47.601 233.942C59.7036 208.571 91.0053 224.198 95.4665 215.268C96.9681 212.262 96.9435 206.926 98.1098 203.644C104.078 185.183 116.073 171.311 134.748 164.467Z"/><path fill="#158CF5" transform="scale(2 2)" d="M175.186 137.846L176.072 137.843C176.924 138.839 178.042 146.916 178.667 149.195L178.776 149.586C173.752 153.796 171.151 156.37 166.678 161.229C162.36 161.322 158.264 160.832 153.98 161.229C152.334 161.155 150.914 161.188 149.27 161.229C152.871 147.967 161.014 139.848 175.186 137.846Z"/><path transform="scale(2 2)" d="M350.156 318.431C349.103 314.598 344.972 305.757 346.128 302.384C348.467 295.559 357.771 295.346 360.119 302.857C362.568 309.86 367.697 319.893 365.011 326.513C360.141 330.432 345.723 334.773 339.428 336.832C338.206 337.133 336.268 337.779 335.271 338.551C334.56 338.581 333.593 338.673 332.931 338.551C303.148 345.866 257.428 348.757 226.983 341.673C226.598 352.111 228.828 366.093 223.822 375.387C217.049 387.961 207.241 387.736 195.441 387.657L176.289 387.635C170.485 387.634 164.782 387.75 158.991 387.865C142.444 388.196 132 366.127 143.035 353.565C148.766 347.041 148.552 339.825 158.019 343.213C158.426 342.317 157.781 323.545 158.019 320.237C163.98 323.788 174.591 331.133 181.469 329.031C181.788 334.728 180.677 342.931 181.469 348.165C187.413 345.449 193.095 345.657 193.797 353.48L193.844 353.954C192.569 362.896 185.57 361.838 184.814 366.449C184.112 370.844 188.47 373.878 192.386 373.507C211.95 376.639 213.138 371.031 213.117 353.129L213.092 326.75C213.081 322.535 212.129 313.816 214.741 310.627C217.625 307.106 225.833 307.769 226.666 313.005C227.387 317.534 227.009 322.845 226.983 327.507C266.372 336.377 311.853 331.198 350.156 318.431Z"/><path fill="#BCDEF6" transform="scale(2 2)" d="M158.019 320.237C163.98 323.788 174.591 331.133 181.469 329.031C181.788 334.728 180.677 342.931 181.469 348.165C179.418 353.702 173.922 353.401 172.276 362.047C166.711 361.768 160.44 362.305 154.751 362.047C160.175 356.45 163.942 349.902 158.019 343.213C158.426 342.317 157.781 323.545 158.019 320.237Z"/><path fill="#158CF5" transform="scale(2 2)" d="M172.276 373.507C167.817 373.481 163.095 373.967 158.769 373.751C153.235 373.474 149.576 366.07 154.751 362.047C160.44 362.305 166.711 361.768 172.276 362.047C171.302 366.587 171.256 368.917 172.276 373.507Z"/><path fill="#BCDEF6" transform="scale(2 2)" d="M242.821 142.791C243.047 133.146 255.937 131.516 258.832 141.265C264.167 141.532 269.96 141.129 275.375 141.265C275.764 148.222 280.811 148.902 286.756 149C345.859 149.954 413.021 179.094 412.256 246.307C407.31 249.916 399.971 251.059 396.989 244.439C395.582 241.315 395.087 236.174 394.259 232.547C379.772 169.052 301.86 163.393 248.366 168.189C243.228 168.65 237.955 169.724 232.749 169.756C232.617 161.003 230.992 153.569 229.138 145.061C231.327 144.125 238.993 143.722 242.821 142.791Z"/><path transform="scale(2 2)" d="M242.821 142.791C243.047 133.146 255.937 131.516 258.832 141.265C258.497 149.484 249.592 152.753 244.553 146.95C243.146 145.33 243.505 144.242 242.821 142.791Z"/><path transform="scale(2 2)" d="M144.358 213.562C151.446 212.9 157.736 218.092 158.429 225.177C159.123 232.262 153.959 238.575 146.877 239.301C139.75 240.031 133.388 234.827 132.69 227.697C131.992 220.566 137.224 214.227 144.358 213.562Z"/></svg>