<?xml version="1.0" encoding="utf-8" ?><svg xmlns="http://www.w3.org/2000/svg" xmlns:xlink="http://www.w3.org/1999/xlink" width="1024" height="1024" viewBox="0 0 1024 1024"><path fill="#FEDF38" transform="scale(2 2)" d="M367.28 257.987C363.809 250.602 382.717 248.952 383.3 256.819C383.865 256.877 394.482 256.842 394.554 256.819C394.311 249.665 408 252.737 413.629 252.576C419.139 252.419 425.162 259.005 417.523 262.191C415.895 262.844 416.401 265.539 416.215 267.261C428.359 266.903 425.775 273.432 425.659 284.137C425.018 342.969 380.211 386.919 326.249 402.711C326.233 419.788 318.443 422.748 302.892 422.761L226.788 422.751C217.926 422.735 217.122 421.358 212.189 415.31C194.746 415.092 196.939 397.745 194.906 395.353C173.962 393.906 148.205 377.91 133.009 364.034C129.672 360.987 121.535 354.615 129.818 351.728C125.279 347.415 124.825 345.672 121.208 341.246C116.051 346.702 113.646 339.355 110.982 335.477C107.966 329.954 100.683 321.512 108.151 317.985C104.896 312.658 103.727 308.992 102.955 302.887C103.995 299.822 99.9555 285.369 99.4511 280.48C99.153 276.854 98.7829 273.105 98.7497 269.478L259.606 269.49C266.843 269.492 274.124 269.536 281.357 269.435C286.171 269.368 289.1 269.297 290.739 264.336C290.202 261.711 289.572 260.015 286.961 259.009C293.497 258.882 303.381 258.388 309.747 259.009C298.598 268.523 318.208 275.948 321.87 264.336C320.956 261.967 320.179 260.764 318.213 259.009C328.753 259.494 340.231 259.106 350.897 259.205C351.401 259.21 352.393 258.333 352.804 257.987C354.351 258.394 365.045 257.978 367.28 257.987ZM202.602 395.958C202.675 401.552 204.87 405.7 209.98 408.253C209.773 406.108 209.856 404.887 209.98 402.711C215.982 402.42 224.814 402.703 231.028 402.704L272.871 402.71C280.539 402.716 303.638 405.355 306.498 395.958C302.356 396.047 296.417 398.169 295.045 392.9C291.433 392.892 286.3 392.682 282.854 392.9C280.26 397.989 270.233 395.973 264.489 395.973L209.84 395.941C207.647 395.927 204.723 395.783 202.602 395.958ZM122.314 323.473C123.796 322.366 124.182 321.75 125.026 320.096C124.003 316.217 121.528 312.673 119.962 308.947C117.286 302.582 117.022 289.984 110.786 290.266C109.827 290.962 108.432 291.754 108.264 293.026C107.843 296.223 116.065 324.25 122.314 323.473Z"/><path transform="scale(2 2)" d="M416.215 267.261C428.359 266.903 425.775 273.432 425.659 284.137C425.018 342.969 380.211 386.919 326.249 402.711C326.233 419.788 318.443 422.748 302.892 422.761L226.788 422.751C217.926 422.735 217.122 421.358 212.189 415.31C194.746 415.092 196.939 397.745 194.906 395.353C173.962 393.906 148.205 377.91 133.009 364.034C129.672 360.987 121.535 354.615 129.818 351.728C134.147 353.146 137.798 358.864 141.231 361.809C170.545 386.954 190.052 389.173 225.883 389.158L272.809 389.153C276.532 389.154 282.649 387.959 282.854 392.9C280.26 397.989 270.233 395.973 264.489 395.973L209.84 395.941C207.647 395.927 204.723 395.783 202.602 395.958C202.675 401.552 204.87 405.7 209.98 408.253C209.773 406.108 209.856 404.887 209.98 402.711C215.982 402.42 224.814 402.703 231.028 402.704L272.871 402.71C280.539 402.716 303.638 405.355 306.498 395.958C302.356 396.047 296.417 398.169 295.045 392.9C296.477 386.524 310.402 389.071 316.755 389.16C318.598 387.266 326.525 385.055 329.422 383.995C372.762 368.134 406.647 328.087 406.238 280.48C406.299 270.405 404.194 267.262 416.215 267.261Z"/><path fill="#FEA503" transform="scale(2 2)" d="M416.215 267.261C428.359 266.903 425.775 273.432 425.659 284.137C425.018 342.969 380.211 386.919 326.249 402.711L326.249 394.587C347.933 387.688 365.789 378.889 382.009 362.497C385.398 359.072 383.108 351.071 374.617 359.268C360.117 373.207 336.873 385.798 317.061 389.111L316.755 389.16C318.598 387.266 326.525 385.055 329.422 383.995C372.762 368.134 406.647 328.087 406.238 280.48C406.299 270.405 404.194 267.262 416.215 267.261Z"/><path transform="scale(2 2)" d="M412.271 288.021C418.418 288.016 417.03 292.73 416.243 297.231C414.466 307.388 404.524 339.926 395.452 345.763C390.809 346.241 389.861 342.608 392.038 339.214C399.465 327.638 404.623 315.056 407.58 301.624C408.573 297.114 408.282 289.774 412.271 288.021Z"/><path fill="#67BFF1" transform="scale(2 2)" d="M315.51 395.958C319.768 395.916 322.096 395.608 326.249 394.587L326.249 402.711C326.233 419.788 318.443 422.748 302.892 422.761L226.788 422.751C217.926 422.735 217.122 421.358 212.189 415.31C218.946 415.17 226.26 415.308 233.054 415.308L290.953 415.318C305.096 415.31 315.135 411.976 315.51 395.958Z"/><path fill="#67BFF1" transform="scale(2 2)" d="M306.498 395.958C310.948 396.601 304.98 405.992 301.363 407.384C296.723 409.17 282.59 408.256 277.268 408.254L220.301 408.261C217.979 408.262 211.94 408.451 209.98 408.253C209.773 406.108 209.856 404.887 209.98 402.711C215.982 402.42 224.814 402.703 231.028 402.704L272.871 402.71C280.539 402.716 303.638 405.355 306.498 395.958Z"/><path fill="#FEC302" transform="scale(2 2)" d="M367.28 257.987C363.809 250.602 382.717 248.952 383.3 256.819C383.865 256.877 394.482 256.842 394.554 256.819C394.311 249.665 408 252.737 413.629 252.576C419.139 252.419 425.162 259.005 417.523 262.191C415.895 262.844 416.401 265.539 416.215 267.261C404.194 267.262 406.299 270.405 406.238 280.48L109.534 280.46C106.955 280.456 101.797 280.284 99.4511 280.48C99.153 276.854 98.7829 273.105 98.7497 269.478L259.606 269.49C266.843 269.492 274.124 269.536 281.357 269.435C286.171 269.368 289.1 269.297 290.739 264.336C290.202 261.711 289.572 260.015 286.961 259.009C293.497 258.882 303.381 258.388 309.747 259.009C298.598 268.523 318.208 275.948 321.87 264.336C320.956 261.967 320.179 260.764 318.213 259.009C328.753 259.494 340.231 259.106 350.897 259.205C351.401 259.21 352.393 258.333 352.804 257.987C354.351 258.394 365.045 257.978 367.28 257.987Z"/><path transform="scale(2 2)" d="M394.554 256.819C394.311 249.665 408 252.737 413.629 252.576C419.139 252.419 425.162 259.005 417.523 262.191C413.313 255.419 397.859 264.741 394.554 256.819Z"/><path transform="scale(2 2)" d="M367.28 257.987C363.809 250.602 382.717 248.952 383.3 256.819C382.437 257.944 382.225 258.129 381.106 259.009C377.489 259.485 370.254 260.202 367.28 257.987Z"/><path transform="scale(2 2)" d="M108.151 317.985C111.504 319.513 122.046 337.751 121.208 341.246C116.051 346.702 113.646 339.355 110.982 335.477C107.966 329.954 100.683 321.512 108.151 317.985Z"/><path transform="scale(2 2)" d="M377.651 299.784C383.904 300.675 380.778 306.185 379.295 309.805C363.136 349.23 345.149 362.7 303.165 368.788C297.849 368.087 298.796 362.324 301.182 361.848C341.05 353.897 358.616 345.675 373.254 304.9C374.262 302.091 374.559 300.556 377.651 299.784Z"/><path transform="scale(2 2)" d="M286.961 259.009C283.766 258.873 279.594 259.002 276.315 259.002L169.047 259.029C166.557 259.032 155.78 260.082 154.297 257.783C149.119 249.759 167.509 251.98 171.186 251.976L308.445 251.974C315.884 251.976 323.235 251.964 330.721 252.098C336.697 252.169 355.398 248.815 352.804 257.987C352.393 258.333 351.401 259.21 350.897 259.205C340.231 259.106 328.753 259.494 318.213 259.009C315.533 259.082 312.522 258.972 309.747 259.009C303.381 258.388 293.497 258.882 286.961 259.009Z"/><path transform="scale(2 2)" d="M102.955 302.887C101.319 303.883 99.3667 304.833 97.6399 303.442C93.1255 299.804 88.6728 262.34 93.6053 256.293C97.8483 251.092 103.555 251.908 109.53 251.961L138.072 251.866C141.719 251.886 142.407 256.039 139.682 258.779L139.449 259.009C137.29 259.173 133.08 259.032 130.788 259.026L113.499 258.999C109.776 259.009 104.169 258.849 100.719 259.988C99.815 260.766 99.4796 261.255 98.7497 262.191C98.6621 264.444 98.7437 267.187 98.7497 269.478C98.7829 273.105 99.153 276.854 99.4511 280.48C99.9555 285.369 103.995 299.822 102.955 302.887Z"/><path transform="scale(2 2)" d="M264.789 88.552C268.961 88.8732 267.905 94.1374 267.604 96.9309C266.177 110.179 260.991 111.123 255.237 119.783C242.177 139.149 264.012 151.428 254.499 155.018C249.027 155.015 245.588 145.297 244.806 141.006C239.661 115.452 257.657 113.832 260.137 98.0413C260.869 93.3766 259.387 89.6631 264.789 88.552Z"/><path transform="scale(2 2)" d="M195.806 75.257C201.588 75.1589 200.737 79.0786 200.257 83.2913C198.827 95.827 188.366 100.571 183.943 111.337C181.062 118.35 184.543 126.423 179.797 129.105C174.405 129.983 174.87 123.685 175.018 120.088C175.754 102.271 184.233 101.241 190.249 90.0689C192.96 85.0351 191.808 77.4553 195.806 75.257Z"/><path transform="scale(2 2)" d="M329.364 75.257C334.728 75.0942 334.316 77.6587 334.088 81.9259C333.422 94.3635 323.567 99.9661 318.634 109.997C316.081 115.189 318.567 125.55 314.625 127.887C302.945 129.46 312.833 103.472 317.731 98.1977C324.825 90.5597 325.078 87.5029 327.148 77.7089C327.412 76.4555 328.278 75.8402 329.364 75.257Z"/><path transform="scale(2 2)" d="M196.767 184.274C210.031 183.671 193.265 205.728 188.377 209.163C180.972 210.31 183.773 201.717 187.763 199.388C191.993 196.921 194.019 185.933 196.767 184.274Z"/><path transform="scale(2 2)" d="M330.496 184.274C344.715 183.621 325.531 206.063 323.002 209.163C322.396 209.208 321.472 209.244 320.903 209.002C313.196 205.729 322.476 199.178 325.379 194.863C327.382 191.885 327.198 185.944 330.496 184.274Z"/><path transform="scale(2 2)" d="M263.244 193.992C274.503 194.173 259.606 215.819 254.499 218.33C243.609 216.921 256.373 206.914 259.001 200.88C260.262 197.985 259.839 194.835 263.244 193.992Z"/><path transform="scale(2 2)" d="M261.796 161.739C268.042 161.529 270.061 178.061 264.789 180.512C262.805 180.805 261.977 180.366 260.794 178.795C259.771 173.891 257.049 164.14 261.796 161.739Z"/><path transform="scale(2 2)" d="M195.806 153.253C202.727 152.927 203.927 169.103 199.888 171.779C193.691 172.683 191.674 155.544 195.806 153.253Z"/><path transform="scale(2 2)" d="M329.364 153.253C335.692 153.514 338.473 168.688 332.938 171.779C328.443 171.056 323.839 155.902 329.364 153.253Z"/><path transform="scale(2 2)" d="M184.922 136.485C189.245 136.76 193.253 142.902 188.377 146.329C183.597 146.236 178.574 138.937 184.922 136.485Z"/><path transform="scale(2 2)" d="M319.856 136.485C323.984 136.163 328.538 142.882 323.002 146.329C319.31 146.242 313.473 138.33 319.856 136.485Z"/></svg>