<?xml version="1.0" encoding="utf-8" ?><svg xmlns="http://www.w3.org/2000/svg" xmlns:xlink="http://www.w3.org/1999/xlink" width="1024" height="1024" viewBox="0 0 1024 1024"><defs><linearGradient id="gradient_0" gradientUnits="userSpaceOnUse" x1="125.46416" y1="173.39017" x2="415.3674" y2="262.55408"><stop offset="0" stop-color="#FDBB06"/><stop offset="1" stop-color="#FFD60D"/></linearGradient></defs><path fill="url(#gradient_0)" transform="scale(2 2)" d="M190.214 152.844C186.19 148.507 186.957 145.559 191.197 141.936C198.974 135.291 207.044 128.989 214.831 122.364L231.26 108.479C235.346 104.988 239.044 100.963 243.872 98.4298C260.95 89.4693 271.635 101.529 283.402 111.002L347.677 163.575C361.135 174.349 362.959 175.591 373.011 189.035L405.52 231.974C406.156 232.807 406.593 233.926 406.93 234.918C406.123 238.696 404.938 240.106 401.25 241.57C403.583 246.201 408.494 252.665 412 256.664C413.816 253.297 415.543 252.368 419.328 251.875C423.476 253.453 425.297 257.218 427.926 260.72L440.681 278.021C442.232 280.136 447.281 286.424 448.214 288.127C448.507 293.114 446.915 294.992 442.078 296.186C436.156 295.09 428.061 282.153 424.433 277.06C413.283 287.193 413.635 283.114 401.25 286.466L401.264 322.958C401.263 330.745 404.379 345.512 394.75 346.432C391.493 347.193 393.496 356.628 393.487 360.49C397.093 360.315 400.187 363.037 400.471 366.636C400.755 370.236 398.127 373.41 394.538 373.802L393.294 374.102C392.954 375.557 393.186 384.046 393.217 386.164C397.249 386.392 398.636 388.05 399.428 391.805C405.363 391.656 423.424 390.899 428.836 392.035C433.292 392.97 434.928 399.185 431.791 402.3C428.921 405.151 422.037 404.312 418.12 404.294L399.428 404.264C399.355 424.827 387.402 415.767 387.212 411.105C387.116 408.755 387.21 406.566 387.205 404.264L186.987 404.296C181.249 404.363 175.355 405.721 174.09 398.022C169.336 397.96 164.623 398.125 159.842 397.997C159.819 401.5 156.98 404.331 153.477 404.343C149.974 404.355 147.115 401.543 147.069 398.04C146.528 397.014 140.05 397.413 138.589 397.375C137.053 397.646 135.397 398.004 133.847 398.022C133.512 404.067 129.322 404.405 124.486 404.264C124.819 408.142 124.882 409.439 124.486 413.317C122.571 417.181 118.063 418.209 114.62 415.537C112.019 413.518 112.434 407.459 112.25 404.264C102.874 404.101 92.4877 404.682 83.0897 404.044C77.3108 403.651 75.9488 392.908 82.7415 391.988C85.8983 391.561 89.4574 391.769 92.7199 391.78L112.25 391.805L112.248 356.56C112.245 348.54 108.914 334.23 118.409 333.528C118.034 328.634 118.477 318.574 118.409 313.233C107.055 313.974 111.068 292.696 110.811 284.482C99.5125 283.786 96.6801 286.589 88.3727 277.06C84.8526 280.667 75.8136 294.588 72.148 295.773C67.4398 297.294 62.1251 291.949 64.7394 287.372C67.1942 283.075 71.0003 278.978 74.0443 275.064L138.248 191.092C142.998 185.024 149.579 172.048 157.708 177.627C159.413 175.262 167.775 168.346 168.253 166.802C167.726 164.136 169.166 161.472 171.684 160.452C174.202 159.432 177.09 160.343 178.567 162.624C181.05 160.061 187.25 155.056 190.214 152.844Z"/><path fill="#BCDEF6" transform="scale(2 2)" d="M218.778 278.873C219.416 280.529 220.24 281.655 221.31 283.054C225.326 284.237 238.363 283.684 243.37 283.684L312.267 283.68C318.444 283.678 326.503 283.926 332.422 283.054C337.914 282.184 338.437 281.911 343.64 284.482C351.809 284.333 367.692 285.587 375.055 284.482C377.714 283.064 378.772 282.834 381.756 282.173L388.67 284.482L388.67 333.528C382.354 333.504 375.498 333.223 369.461 333.818C364.687 334.288 362.541 340.193 365.353 343.591C369.455 348.547 387.137 345.877 394.75 346.432C391.493 347.193 393.496 356.628 393.487 360.49C397.093 360.315 400.187 363.037 400.471 366.636C400.755 370.236 398.127 373.41 394.538 373.802L393.294 374.102C392.954 375.557 393.186 384.046 393.217 386.164C397.249 386.392 398.636 388.05 399.428 391.805C405.363 391.656 423.424 390.899 428.836 392.035C433.292 392.97 434.928 399.185 431.791 402.3C428.921 405.151 422.037 404.312 418.12 404.294L399.428 404.264C399.355 424.827 387.402 415.767 387.212 411.105C387.116 408.755 387.21 406.566 387.205 404.264L186.987 404.296C181.249 404.363 175.355 405.721 174.09 398.022C169.336 397.96 164.623 398.125 159.842 397.997C159.819 401.5 156.98 404.331 153.477 404.343C149.974 404.355 147.115 401.543 147.069 398.04C146.528 397.014 140.05 397.413 138.589 397.375C137.053 397.646 135.397 398.004 133.847 398.022C133.512 404.067 129.322 404.405 124.486 404.264C124.819 408.142 124.882 409.439 124.486 413.317C122.571 417.181 118.063 418.209 114.62 415.537C112.019 413.518 112.434 407.459 112.25 404.264C102.874 404.101 92.4877 404.682 83.0897 404.044C77.3108 403.651 75.9488 392.908 82.7415 391.988C85.8983 391.561 89.4574 391.769 92.7199 391.78L112.25 391.805L112.248 356.56C112.245 348.54 108.914 334.23 118.409 333.528L139.942 333.528C139.259 320.923 139.137 299.091 139.942 286.466L139.942 284.482L165.521 284.482C168.727 283.482 169.915 283.02 172.751 281.255C174.039 282.086 174.945 282.747 176.16 283.679C181.403 284.759 199.346 285.112 203.91 283.054C204.599 281.471 204.936 280.525 205.447 278.873C208.284 279.206 215.471 278.829 218.778 278.873Z"/><path transform="scale(2 2)" d="M221.31 328.053C212.918 320.579 227.732 313.728 233.539 312.218C239.186 310.749 273.609 311.029 279.62 312.429C284.353 313.532 288.389 315.906 292.516 318.371C297.066 317.546 304.971 320.798 308.652 323.399C321.403 332.41 321.982 344.68 321.979 358.87L321.951 380.747C321.946 383.777 321.757 388.977 321.964 391.805L387.205 391.805C387.903 388.061 389.534 386.906 393.217 386.164C397.249 386.392 398.636 388.05 399.428 391.805C405.363 391.656 423.424 390.899 428.836 392.035C433.292 392.97 434.928 399.185 431.791 402.3C428.921 405.151 422.037 404.312 418.12 404.294L399.428 404.264C399.355 424.827 387.402 415.767 387.212 411.105C387.116 408.755 387.21 406.566 387.205 404.264L186.987 404.296C181.249 404.363 175.355 405.721 174.09 398.022C174.999 390.158 182.434 391.767 188.48 391.776L205.447 391.805L205.418 378.091C205.411 372.792 204.166 365.686 211.04 364.552C210.951 364.344 211.212 352.537 211.333 351.536C214.356 352.074 217.331 350.378 218.408 347.504C219.485 344.629 218.358 341.396 215.727 339.815C216.352 335.566 218.349 331.181 221.31 328.053Z"/><path fill="white" transform="scale(2 2)" d="M224.866 329.803L225.217 329.724C229.201 328.786 231.996 325.487 235.951 324.458C240.198 323.353 270.289 323.397 274.939 324.207C295.559 327.8 294.028 346.61 294.032 361.867L294.034 391.805L217.395 391.805L217.409 377.91C217.408 371.781 218.823 365.729 211.04 364.552C210.951 364.344 211.212 352.537 211.333 351.536C214.356 352.074 217.331 350.378 218.408 347.504C219.485 344.629 218.358 341.396 215.727 339.815C216.352 335.566 218.349 331.181 221.31 328.053C222.751 329.124 223.139 329.418 224.866 329.803Z"/><path fill="#1EA6F8" transform="scale(2 2)" d="M292.516 318.371C297.066 317.546 304.971 320.798 308.652 323.399C321.403 332.41 321.982 344.68 321.979 358.87L321.951 380.747C321.946 383.777 321.757 388.977 321.964 391.805L306.32 391.805L306.329 361.517C306.335 342.712 308 331.832 292.516 318.371Z"/><path transform="scale(2 2)" d="M139.942 333.528C151.965 333.556 151.264 345.479 139.942 346.432L139.95 378.093C139.952 381.774 141.016 394.995 138.589 397.375C137.053 397.646 135.397 398.004 133.847 398.022C133.512 404.067 129.322 404.405 124.486 404.264C124.819 408.142 124.882 409.439 124.486 413.317C122.571 417.181 118.063 418.209 114.62 415.537C112.019 413.518 112.434 407.459 112.25 404.264C102.874 404.101 92.4877 404.682 83.0897 404.044C77.3108 403.651 75.9488 392.908 82.7415 391.988C85.8983 391.561 89.4574 391.769 92.7199 391.78L112.25 391.805L112.248 356.56C112.245 348.54 108.914 334.23 118.409 333.528L139.942 333.528Z"/><path fill="#1EA6F8" transform="scale(2 2)" d="M124.486 346.432L139.942 346.432L139.95 378.093C139.952 381.774 141.016 394.995 138.589 397.375C137.053 397.646 135.397 398.004 133.847 398.022C132.83 392.275 129.534 391.67 124.486 391.805L124.486 346.432Z"/><path fill="#1EA6F8" transform="scale(2 2)" d="M221.31 283.054C225.326 284.237 238.363 283.684 243.37 283.684L312.267 283.68C318.444 283.678 326.503 283.926 332.422 283.054C331.122 294.01 316.461 291.874 308.731 291.874L253.676 291.866C242.758 291.864 226.692 294.565 221.31 283.054Z"/><path fill="#1EA6F8" transform="scale(2 2)" d="M343.64 284.482C351.809 284.333 367.692 285.587 375.055 284.482C369.901 295.504 346.507 294.958 343.64 284.482Z"/><path fill="#1EA6F8" transform="scale(2 2)" d="M176.16 283.679C181.403 284.759 199.346 285.112 203.91 283.054C201.086 295.874 184.594 296.649 176.16 283.679Z"/><path fill="#1EA6F8" transform="scale(2 2)" d="M139.942 284.482L165.521 284.482C159.84 295.202 147.511 295.965 139.942 286.466L139.942 284.482Z"/><path transform="scale(2 2)" d="M393.487 360.49C397.093 360.315 400.187 363.037 400.471 366.636C400.755 370.236 398.127 373.41 394.538 373.802C392.118 374.066 389.746 372.993 388.346 371.001C386.947 369.01 386.742 366.414 387.812 364.227C388.881 362.041 391.055 360.609 393.487 360.49Z"/><path transform="scale(2 2)" d="M147.069 398.04C147.022 394.489 149.881 391.581 153.433 391.569C156.985 391.557 159.864 394.445 159.842 397.997C159.819 401.5 156.98 404.331 153.477 404.343C149.974 404.355 147.115 401.543 147.069 398.04Z"/><path transform="scale(2 2)" d="M212.377 338.906C213.556 338.892 214.716 339.207 215.727 339.815C218.358 341.396 219.485 344.629 218.408 347.504C217.331 350.378 214.356 352.074 211.333 351.536C208.1 350.961 205.835 348.019 206.105 344.746C206.375 341.473 209.092 338.943 212.377 338.906Z"/><path transform="scale(2 2)" d="M88.3727 277.06C84.8526 280.667 75.8136 294.588 72.148 295.773C67.4398 297.294 62.1251 291.949 64.7394 287.372C67.1942 283.075 71.0003 278.978 74.0443 275.064L138.248 191.092C142.998 185.024 149.579 172.048 157.708 177.627C162.164 183.455 156.248 188.214 152.446 193.213L102.33 258.531C100.433 261.047 97.8916 264.185 96.2976 266.804C97.2089 268.704 98.1256 270.862 100.244 271.669C102.288 272.448 119.767 272.317 121.817 271.42C123.79 270.557 138.966 235.212 145.92 254.538C143.793 262.86 130.92 271.996 141.97 272.093L152.707 272.09C155.125 272.112 160.334 272.361 162.463 271.899C169.466 270.378 172.713 249.487 180.363 249.716C195.773 250.179 178.994 268.52 179.423 271.106C184.427 275.029 206.587 266.325 205.447 278.873C204.936 280.525 204.599 281.471 203.91 283.054C199.346 285.112 181.403 284.759 176.16 283.679C174.945 282.747 174.039 282.086 172.751 281.255C169.915 283.02 168.727 283.482 165.521 284.482L139.942 284.482L139.942 286.466C139.137 299.091 139.259 320.923 139.942 333.528L118.409 333.528C118.034 328.634 118.477 318.574 118.409 313.233C107.055 313.974 111.068 292.696 110.811 284.482C99.5125 283.786 96.6801 286.589 88.3727 277.06Z"/><path fill="#1EA6F8" transform="scale(2 2)" d="M130.233 281.255C133.698 283.219 136.038 284.121 139.942 284.482L139.942 286.466C139.137 299.091 139.259 320.923 139.942 333.528L118.409 333.528C118.034 328.634 118.477 318.574 118.409 313.233C124.443 310.152 123.028 305.791 123.018 299.864L122.985 284.482C125.428 283.421 127.812 282.369 130.233 281.255Z"/><path transform="scale(2 2)" d="M330.968 271.641C330.085 267.261 318.679 245.387 332.521 248.296C339.063 249.671 341.739 265.394 344.474 271.323L344.622 271.641C348.391 272.117 370.193 272.587 373.202 271.881C381.441 269.95 367 259.929 366.366 256.859C363.896 244.898 384.612 246.709 387.205 269.969C392.515 273.275 408.404 275.23 413.321 269.89C417.055 265.835 412.494 261.527 412 256.664C413.816 253.297 415.543 252.368 419.328 251.875C423.476 253.453 425.297 257.218 427.926 260.72L440.681 278.021C442.232 280.136 447.281 286.424 448.214 288.127C448.507 293.114 446.915 294.992 442.078 296.186C436.156 295.09 428.061 282.153 424.433 277.06C413.283 287.193 413.635 283.114 401.25 286.466L401.264 322.958C401.263 330.745 404.379 345.512 394.75 346.432C387.137 345.877 369.455 348.547 365.353 343.591C362.541 340.193 364.687 334.288 369.461 333.818C375.498 333.223 382.354 333.504 388.67 333.528L388.67 284.482L381.756 282.173C378.772 282.834 377.714 283.064 375.055 284.482C367.692 285.587 351.809 284.333 343.64 284.482C338.437 281.911 337.914 282.184 332.422 283.054C326.503 283.926 318.444 283.678 312.267 283.68L243.37 283.684C238.363 283.684 225.326 284.237 221.31 283.054C220.24 281.655 219.416 280.529 218.778 278.873C219.449 269.108 228.573 271.64 236.395 271.639L330.968 271.641Z"/><path transform="scale(2 2)" d="M190.214 152.844C186.19 148.507 186.957 145.559 191.197 141.936C198.974 135.291 207.044 128.989 214.831 122.364L231.26 108.479C235.346 104.988 239.044 100.963 243.872 98.4298C260.95 89.4693 271.635 101.529 283.402 111.002L347.677 163.575C361.135 174.349 362.959 175.591 373.011 189.035L405.52 231.974C406.156 232.807 406.593 233.926 406.93 234.918C406.123 238.696 404.938 240.106 401.25 241.57C396.732 241.671 395.583 239.198 392.966 235.948C381.502 221.711 370.726 207.032 359.868 192.336C353.101 183.178 350.291 181.821 341.493 174.561L277.859 122.847C273.949 119.589 264.693 111.03 260.7 109.107C251.757 104.801 245.394 113.102 239.445 118.17C233.814 122.968 198.917 152.779 194.928 153.962C193.193 154.476 191.696 153.628 190.214 152.844Z"/><path transform="scale(2 2)" d="M168.253 166.802C167.726 164.136 169.166 161.472 171.684 160.452C174.202 159.432 177.09 160.343 178.567 162.624C179.807 164.54 179.777 167.013 178.49 168.898C177.203 170.782 174.91 171.711 172.674 171.253C170.439 170.795 168.696 169.041 168.253 166.802Z"/><path transform="scale(2 2)" d="M301.775 217.358C306.374 217.336 323.956 216.603 326.97 218.21C332.664 221.246 329.833 228.531 324.622 230.08C319.063 230.215 313.708 229.931 307.705 230.122C292.575 230.606 293.858 219.011 301.775 217.358Z"/><path transform="scale(2 2)" d="M319 99.2614C324.665 99.0695 330.773 105.195 335.282 108.363C365.859 129.849 395.109 154.635 417.736 184.566C420.437 188.973 429.881 197.293 418.561 201.099C416.555 201.783 413.472 200.023 412.317 198.384C388.317 164.314 355.811 137.649 321.799 114.098C316.131 110.173 308.065 103.226 319 99.2614Z"/><path transform="scale(2 2)" d="M424.119 210.578C427.446 210.007 430.602 212.255 431.149 215.586C431.697 218.916 429.427 222.056 426.092 222.58C422.791 223.099 419.689 220.856 419.147 217.558C418.605 214.261 420.825 211.143 424.119 210.578Z"/></svg>