<?xml version="1.0" encoding="utf-8" ?><svg xmlns="http://www.w3.org/2000/svg" xmlns:xlink="http://www.w3.org/1999/xlink" width="1024" height="1024" viewBox="0 0 1024 1024"><path transform="scale(2 2)" d="M202.206 107.043C200.038 103.981 199.119 99.9704 201.821 96.9449C211.62 85.9718 223.667 74.525 234.118 64.0917C251.174 48.4351 257.175 45.0529 274.377 62.237L369.389 158.166C377.394 166.322 385.961 174.204 393.441 182.844L393.691 182.685C395.309 181.643 396.806 180.256 398.385 179.331C408.767 173.253 423.496 179.866 426.544 191.398C431.115 208.69 415.848 222.554 399.028 216.047L340.991 274.134C336.202 278.84 330.21 287.637 323.068 281.617C321.234 284.691 313.762 292.02 310.852 295.313C317.585 304.055 298.578 317.239 291.929 323.942L240.195 375.914C238.101 378.015 225.424 390.372 224.4 392.041L224.4 396.002C228.18 392.578 232.285 385.9 237.365 385.207C243.414 384.381 248.144 391.215 244.398 396.339C239.542 402.982 228.485 413.101 222.5 419.747C222.485 422.118 222.244 425.546 222.496 427.773C224.262 443.416 240.531 447.454 250.925 436.594C270.558 416.082 290.382 396.917 310.229 376.719C325.768 360.905 361.283 370.874 362.615 398.22C363.695 433.088 380.506 419.75 403.624 423.75C409.969 424.848 411.929 431.703 407.593 436.327C403.681 439.848 376.536 438.107 372.029 436.964C340.167 428.882 353.807 398.52 343.633 388.737C332.863 377.827 321.557 386.006 313.08 394.532L259.816 448.501C245.193 463.15 221.871 460.423 211.409 442.051C206.828 434.008 207.565 425.632 207.613 416.701C203.698 411.407 191.672 398.865 189.845 393.545C188.841 388.56 190.869 384.238 196.765 384.339C200.938 384.411 206.573 392.589 209.451 396.002C209.956 385.592 202.305 375.423 197.315 366.085L139.791 259.801C129.94 241.75 120.138 223.709 109.798 205.923C86.3931 208.406 77.546 181.454 93.3288 170.026C103.389 162.742 115.646 165.351 122.865 175.078C132.509 165.161 141.898 154.956 151.658 145.139C156.267 140.502 159.82 138.671 165.232 143.675C166.733 140.988 175.209 132.679 177.858 130.673C175.415 127.923 175.593 123.73 178.26 121.196C180.928 118.662 185.124 118.699 187.746 121.28C190.226 118.377 199.325 109.002 202.206 107.043ZM212.97 363.419L215.132 349.118C215.533 346.476 216.172 342.933 216.359 340.329C214.405 338.323 209.461 327.894 207.749 324.764L151.363 222.221C148.777 217.561 145.717 212.618 143.312 207.938C140.292 207.065 131.217 207.075 127.791 207.19L204.983 348.766C207.505 353.34 210.711 358.823 212.97 363.419Z"/><path fill="#BCDEF6" transform="scale(2 2)" d="M202.206 107.043C200.038 103.981 199.119 99.9704 201.821 96.9449C211.62 85.9718 223.667 74.525 234.118 64.0917C251.174 48.4351 257.175 45.0529 274.377 62.237L369.389 158.166C377.394 166.322 385.961 174.204 393.441 182.844L393.691 182.685C395.309 181.643 396.806 180.256 398.385 179.331C408.767 173.253 423.496 179.866 426.544 191.398C431.115 208.69 415.848 222.554 399.028 216.047L340.991 274.134C336.202 278.84 330.21 287.637 323.068 281.617C317.647 274.747 323.648 270.803 328.12 266.1C341.595 251.934 356.243 237.572 370.236 223.954C373.192 221.08 376.043 218.26 378.768 215.165C360.076 215.188 340.965 214.568 322.277 213.687C317.325 213.453 315.468 209.956 314.799 205.435C311.433 205.141 301.275 205.393 297.561 205.435C296.36 195.319 287.688 197.184 279.955 196.952L262.172 196.418C258.166 196.315 253.889 196.318 249.924 195.988C250.268 191.176 251.273 184.917 251.909 179.986L255.138 153.775C255.723 148.957 258.326 138.397 255.487 134.214C252.257 129.455 243.862 130.734 242.682 136.374C241.502 142.016 240.925 148.175 240.174 153.906L234.842 195.224C229.464 195.629 221.534 194.952 215.943 194.762L153.893 192.744C149.224 192.571 144.568 192.807 139.924 192.226C135.647 192.43 132.158 191.765 127.791 192.226C130.017 188.895 133.899 184.781 136.914 182.042C137.287 181.422 138.64 180.049 139.204 179.487C143.404 175.28 165.781 153.784 166.601 148.806C166.408 146.551 166.165 145.644 165.232 143.675C166.733 140.988 175.209 132.679 177.858 130.673C175.415 127.923 175.593 123.73 178.26 121.196C180.928 118.662 185.124 118.699 187.746 121.28C190.226 118.377 199.325 109.002 202.206 107.043Z"/><path transform="scale(2 2)" d="M202.206 107.043C200.038 103.981 199.119 99.9704 201.821 96.9449C211.62 85.9718 223.667 74.525 234.118 64.0917C251.174 48.4351 257.175 45.0529 274.377 62.237L369.389 158.166C377.394 166.322 385.961 174.204 393.441 182.844L393.691 182.685C395.309 181.643 396.806 180.256 398.385 179.331C408.767 173.253 423.496 179.866 426.544 191.398C431.115 208.69 415.848 222.554 399.028 216.047L340.991 274.134C336.202 278.84 330.21 287.637 323.068 281.617C317.647 274.747 323.648 270.803 328.12 266.1C341.595 251.934 356.243 237.572 370.236 223.954C373.192 221.08 376.043 218.26 378.768 215.165C360.076 215.188 340.965 214.568 322.277 213.687C317.325 213.453 315.468 209.956 314.799 205.435C316.838 197.548 321.841 198.593 328.421 198.673C347.816 198.911 370.593 201.304 389.561 200.243C386.054 195.503 378.704 188.682 374.405 184.293L301.811 110.664C289.998 98.687 277.865 86.2277 265.848 74.4716C264.991 82.6811 265.112 108.873 254.24 107.997C244.712 107.229 248.333 94.4369 249.086 88.8427L252.032 67.0272C244.821 73.6887 213.112 109.111 207.613 109.47C204.901 108.903 204.312 108.712 202.206 107.043Z"/><path fill="#1B9DF1" transform="scale(2 2)" d="M406.306 192.226C413.354 191.999 415.346 199.95 408.971 202.94C401.788 203.559 399.829 194.824 406.306 192.226Z"/><path transform="scale(2 2)" d="M177.858 130.673C175.415 127.923 175.593 123.73 178.26 121.196C180.928 118.662 185.124 118.699 187.746 121.28C189.004 122.518 189.733 124.195 189.781 125.959C189.836 128.013 188.963 129.982 187.404 131.32C185.845 132.658 183.766 133.222 181.745 132.857C180.241 132.584 178.873 131.816 177.858 130.673Z"/><path fill="#ACD6F4" transform="scale(2 2)" d="M177.858 130.673C178.873 131.816 180.241 132.584 181.745 132.857C182.101 133.104 182.448 133.318 182.846 133.493C178.988 138.848 169.626 144.711 166.601 148.806C166.408 146.551 166.165 145.644 165.232 143.675C166.733 140.988 175.209 132.679 177.858 130.673Z"/><path fill="#ACD6F4" transform="scale(2 2)" d="M202.206 107.043C204.312 108.712 204.901 108.903 207.613 109.47C201.939 113.628 194.048 123.535 189.781 125.959C189.733 124.195 189.004 122.518 187.746 121.28C190.226 118.377 199.325 109.002 202.206 107.043Z"/><path fill="#ACD6F4" transform="scale(2 2)" d="M127.791 192.226C130.017 188.895 133.899 184.781 136.914 182.042C136.567 184.113 132.303 186.59 131.386 188.605C136.061 192.142 132.497 190.862 132.555 191.621C136.807 192.113 148.871 190.973 139.924 192.226C135.647 192.43 132.158 191.765 127.791 192.226Z"/><path fill="#FEC302" transform="scale(2 2)" d="M297.561 205.435C301.275 205.393 311.433 205.141 314.799 205.435C315.468 209.956 317.325 213.453 322.277 213.687C340.965 214.568 360.076 215.188 378.768 215.165C376.043 218.26 373.192 221.08 370.236 223.954C356.243 237.572 341.595 251.934 328.12 266.1C323.648 270.803 317.647 274.747 323.068 281.617C321.234 284.691 313.762 292.02 310.852 295.313C304.457 289.09 299.936 294.993 295.425 299.494L233.124 361.618C231.384 363.311 229.142 365.647 227.328 367.179C231.077 343.67 235.381 318.051 237.924 294.384C238.713 285.656 224.931 281.777 222.949 295.326C220.933 309.101 218.677 322.781 216.852 336.532L216.359 340.329C214.405 338.323 209.461 327.894 207.749 324.764L151.363 222.221C148.777 217.561 145.717 212.618 143.312 207.938C173.312 207.863 203.607 210.397 233.533 210.327C231.263 225.518 229.268 242.198 227.731 257.522C227.074 264.077 240.394 267.068 242.338 259.185C243.463 254.623 243.628 249.872 244.205 245.161L248.128 211.601C260.464 210.343 276.737 212.384 289.516 212.341C294.277 212.325 296.142 209.56 297.561 205.435Z"/><path fill="#1B9DF1" transform="scale(2 2)" d="M104.543 180.88C107.404 180.132 110.333 181.825 111.115 184.676C111.896 187.527 110.238 190.477 107.396 191.292C105.528 191.828 103.515 191.318 102.128 189.956C100.74 188.595 100.192 186.593 100.691 184.714C101.191 182.836 102.663 181.371 104.543 180.88Z"/><path transform="scale(2 2)" d="M388.396 254.344C392.079 254.65 395.206 256.325 396.054 260.225C397.324 266.066 384.88 276.204 380.878 280.211L356.765 304.494C351.654 309.611 334.523 329.507 328.808 330.434C322.251 331.147 318.83 322.67 322.289 318.871C328.536 312.01 336.137 304.912 342.609 298.31L377.359 263.01C380.409 259.853 383.979 255.109 388.396 254.344Z"/><path transform="scale(2 2)" d="M369.621 339.263C393.039 338.296 405.052 370.872 391.934 374.655C381.736 376.603 383.22 367.293 380.952 361.317C378.65 355.506 373.89 355.343 369.169 353.587C361.957 350.903 362.529 342.07 369.621 339.263Z"/><path transform="scale(2 2)" d="M417.194 318.669C421.491 317.726 425.748 320.41 426.75 324.694C427.752 328.977 425.128 333.271 420.859 334.333C418.044 335.034 415.07 334.164 413.075 332.058C411.081 329.951 410.375 326.934 411.228 324.161C412.081 321.389 414.36 319.29 417.194 318.669Z"/></svg>