<?xml version="1.0" encoding="utf-8" ?><svg xmlns="http://www.w3.org/2000/svg" xmlns:xlink="http://www.w3.org/1999/xlink" width="512" height="512" viewBox="0 0 512 512"><path fill="#FEC302" d="M95.2267 218.662C91.0022 218.378 88.4839 215.378 88.489 211.209C88.4435 199.015 88.6312 186.627 88.458 174.448C88.0121 163.26 93.9132 153.229 104.255 148.725C111.895 145.398 136.852 146.877 145.943 146.745C149.645 146.691 151.587 148.996 152.72 152.164C157.236 152.151 165.752 151.681 169.459 154.599C170.077 149.283 171.981 146.841 177.453 146.819L362.826 146.821C379.031 146.813 394.472 143.634 405.379 157.94C411.594 166.091 410.427 175.969 410.42 185.712L410.422 331.659C410.439 347.119 403.812 362.133 385.81 362.386C383.003 362.425 380.189 362.234 377.378 362.218L321.812 362.22C312.602 362.264 301.236 365.391 298.614 355.466L282.664 355.466C280.8 365.48 268.1 362.205 259.571 362.206L127.749 362.22C99.5882 362.224 88.4782 357.785 88.4941 326.799L88.5136 310.264C88.5246 302.747 85.7914 289.463 95.2267 288.551L95.2267 272.897C87.9022 271.55 88.3996 266.631 88.4838 260.669C88.6104 251.705 84.9673 237.288 95.2267 235.778C95.0506 230.444 95.2179 224.074 95.2267 218.662Z"/><path fill="#BCDEF6" d="M95.2267 218.662C91.0022 218.378 88.4839 215.378 88.489 211.209C88.4435 199.015 88.6312 186.627 88.458 174.448C88.0121 163.26 93.9132 153.229 104.255 148.725C111.895 145.398 136.852 146.877 145.943 146.745C149.645 146.691 151.587 148.996 152.72 152.164C157.236 152.151 165.752 151.681 169.459 154.599C173.169 164.123 189.49 160.495 199.429 160.489L367.862 160.482C378.749 161.744 378.764 175.818 378.985 183.401C379.326 195.131 378.383 194.164 370.746 203.132C370.506 203.414 370.573 204.112 370.596 204.47C359.495 211.323 347.955 217.469 336.668 224.013C329.6 228.111 313.686 232.508 319.284 242.368C314.661 244.965 307.997 248.614 303.198 250.72C306.635 258.425 299.804 260.837 294.438 263.928L268.838 278.488C251.035 288.854 244.239 286.785 227.828 277.289L112.126 211.125C109.111 209.429 105.239 207.072 102.172 205.717L101.782 205.547C101.721 211.663 103.058 217.287 95.2267 218.662Z"/><path d="M95.2267 218.662C91.0022 218.378 88.4839 215.378 88.489 211.209C88.4435 199.015 88.6312 186.627 88.458 174.448C88.0121 163.26 93.9132 153.229 104.255 148.725C111.895 145.398 136.852 146.877 145.943 146.745C149.645 146.691 151.587 148.996 152.72 152.164C153.09 161.999 144.5 160.536 137.503 160.513L121.448 160.464C97.6526 160.409 101.513 171.108 101.782 190.217C107.98 193.184 113.335 196.382 119.309 199.766L233.74 264.756C239.215 267.89 247.319 273.882 253.487 270.848C266.507 264.445 279.539 256.433 292.151 249.151C296.799 246.468 299.787 246.512 303.198 250.72C306.635 258.425 299.804 260.837 294.438 263.928L268.838 278.488C251.035 288.854 244.239 286.785 227.828 277.289L112.126 211.125C109.111 209.429 105.239 207.072 102.172 205.717L101.782 205.547C101.721 211.663 103.058 217.287 95.2267 218.662Z"/><path d="M169.459 154.599C170.077 149.283 171.981 146.841 177.453 146.819L362.826 146.821C379.031 146.813 394.472 143.634 405.379 157.94C411.594 166.091 410.427 175.969 410.42 185.712L410.422 331.659C410.439 347.119 403.812 362.133 385.81 362.386C383.003 362.425 380.189 362.234 377.378 362.218L321.812 362.22C312.602 362.264 301.236 365.391 298.614 355.466C299.78 346.713 307.502 348.509 314.367 348.506L385.849 348.513C377.45 340.793 366.009 330.755 357.244 323.664C353.359 319.673 348.256 315.667 343.983 311.996L321.93 292.805C318.02 289.38 306.83 282.854 312.371 276.488C317.422 270.685 321.459 274.35 325.472 277.781C335.97 286.759 346.228 295.908 356.741 304.743C357.784 303.173 357.252 292.946 357.249 290.3L357.246 240.074C357.245 237.203 357.326 230.986 356.741 228.356C348.578 232.792 340.569 237.592 332.445 242.112C327.336 244.954 324.451 246.822 319.284 242.368C313.686 232.508 329.6 228.111 336.668 224.013C347.955 217.469 359.495 211.323 370.596 204.47C370.573 204.112 370.506 203.414 370.746 203.132C378.383 194.164 379.326 195.131 378.985 183.401C378.764 175.818 378.749 161.744 367.862 160.482L199.429 160.489C189.49 160.495 173.169 164.123 169.459 154.599Z"/><path fill="#F5B101" d="M356.741 228.356C366.325 222.334 386.526 209.993 396.542 205.547L396.551 326.457C396.555 329.4 396.82 336.918 396.542 339.411L369.868 316.31C367.878 314.603 357.831 306.185 356.741 304.743C357.784 303.173 357.252 292.946 357.249 290.3L357.246 240.074C357.245 237.203 357.326 230.986 356.741 228.356Z"/><path fill="#6EBBF3" d="M367.862 160.482L377.662 160.474C400.924 160.49 395.854 171.715 396.542 190.217C389.925 192.612 377.442 200.875 370.596 204.47C370.573 204.112 370.506 203.414 370.746 203.132C378.383 194.164 379.326 195.131 378.985 183.401C378.764 175.818 378.749 161.744 367.862 160.482Z"/><path d="M102.689 340.782C109.381 335.507 116.944 328.48 123.519 322.828L170.439 282.676C173.173 280.28 175.892 277.738 178.905 275.802C183.442 272.825 189.697 278.489 188.394 283.12C186.922 288.351 135.606 330.277 128.988 336.131C124.023 340.418 119.375 344.363 114.314 348.513L256.958 348.508C265.382 348.505 281.161 345.267 282.664 355.466C280.8 365.48 268.1 362.205 259.571 362.206L127.749 362.22C99.5882 362.224 88.4782 357.785 88.4941 326.799L88.5136 310.264C88.5246 302.747 85.7914 289.463 95.2267 288.551C103.815 289.922 101.818 296.585 101.808 303.303L101.774 323.356C101.772 327.86 101.664 336.515 102.689 340.782Z"/><path fill="#F5B101" d="M357.244 323.664C366.009 330.755 377.45 340.793 385.849 348.513L314.367 348.506C307.502 348.509 299.78 346.713 298.614 355.466L282.664 355.466C281.161 345.267 265.382 348.505 256.958 348.508L114.314 348.513C119.375 344.363 124.023 340.418 128.988 336.131C131.013 338.029 141.758 337.118 144.759 337.118L334.577 337.118C346.107 337.118 356.244 339.098 357.244 323.664Z"/><path d="M95.2267 235.778C99.3761 236.725 101.501 237.639 101.681 242.406C102.027 251.562 105.499 270.754 95.2267 272.897C87.9022 271.55 88.3996 266.631 88.4838 260.669C88.6104 251.705 84.9673 237.288 95.2267 235.778Z"/><path d="M247.03 116.759C255.442 116.462 265.885 116.758 274.427 116.758L366.778 116.751C374.008 116.748 381.354 116.526 388.584 117.019C414.946 118.844 437.899 140.096 440.261 166.66C441.224 177.484 440.724 189.814 440.714 200.778L440.735 221.048C440.754 227.634 442.898 236.019 435.538 239.029C424.24 241.911 426.737 226.299 426.741 219.869L426.77 186.359C426.778 163.569 425.097 141.434 398.399 132.815C387.523 129.304 375.706 130.325 364.573 130.306L271.105 130.272C266.263 130.272 249.235 130.938 245.981 129.598C239.187 126.8 240.752 118.942 247.03 116.759Z"/><path d="M223.751 377.373L331.308 377.37C334.898 377.353 342.783 376.297 345.462 378.662C350.322 382.953 347.765 390.795 340.907 390.927C337.585 390.991 334.085 390.807 330.722 390.792L231.731 390.811L114.325 390.873C108.29 391.209 105.452 383.025 109.553 379.235C112.46 376.548 121.766 377.37 125.755 377.374L223.751 377.373Z"/><path d="M433.195 258.09C435.661 257.76 439.847 259.682 440.193 262.266C441.82 274.415 440.877 295.151 440.563 308.048C440.346 312.622 438.809 314.789 434.296 315.745C426.378 315.977 426.75 307.895 426.744 302.14L426.749 274.209C426.755 267.829 425.069 259.333 433.195 258.09Z"/><path d="M210.946 116.759C227.514 116.186 226.579 127.352 218.321 130.273C202.958 131.375 201.353 119.781 210.946 116.759Z"/><path d="M77.3342 377.373C80.0174 377.426 85.8038 377.161 87.7793 378.407C92.8843 381.628 91.4177 389.329 85.5483 390.811C83.4602 390.872 78.6857 391.219 76.9767 390.482C70.5121 387.694 71.2089 380.033 77.3342 377.373Z"/></svg>