<?xml version="1.0" encoding="utf-8" ?><svg xmlns="http://www.w3.org/2000/svg" xmlns:xlink="http://www.w3.org/1999/xlink" width="1024" height="1024" viewBox="0 0 1024 1024"><path transform="scale(2 2)" d="M198.26 356.658C198.21 336.636 189.054 335.124 175.69 324.246C110.13 270.883 114.295 169.417 183.327 120.603C240.966 79.8451 320.687 95.0938 360.563 152.638C401.445 212.228 384.439 296.19 323.093 334.665C318.088 337.804 314.228 350.913 313.161 356.658C319.957 362.019 328.696 378.158 314.238 379.894C314.06 380.362 314.231 395.223 314.238 397.083C331.363 398.533 319.956 436.268 291.037 435.477C289.832 444.917 291.97 451.09 282.872 458.363C275.932 463.911 265.515 462.022 257.28 462.003C233.917 461.947 220.488 463.141 220.754 435.477C203.766 435.188 191.464 423.272 190.26 406.14C189.787 399.41 196.172 396.265 202.282 398.92C202.329 398.76 202.42 381.262 202.282 380.893C189.485 387.936 185.49 368.123 198.26 356.658Z"/><path fill="#BCDEF6" transform="scale(2 2)" d="M291.037 366.24C315.752 365.782 300.643 378.256 314.238 379.894C314.06 380.362 314.231 395.223 314.238 397.083C331.363 398.533 319.956 436.268 291.037 435.477C289.832 444.917 291.97 451.09 282.872 458.363C275.932 463.911 265.515 462.022 257.28 462.003C233.917 461.947 220.488 463.141 220.754 435.477C203.766 435.188 191.464 423.272 190.26 406.14C189.787 399.41 196.172 396.265 202.282 398.92C202.329 398.76 202.42 381.262 202.282 380.893C211.112 373.128 195.285 366.239 220.585 366.229L291.037 366.24Z"/><path transform="scale(2 2)" d="M314.238 397.083C331.363 398.533 319.956 436.268 291.037 435.477C289.832 444.917 291.97 451.09 282.872 458.363C275.932 463.911 265.515 462.022 257.28 462.003C233.917 461.947 220.488 463.141 220.754 435.477C203.766 435.188 191.464 423.272 190.26 406.14C189.787 399.41 196.172 396.265 202.282 398.92L202.547 399.173C206.769 403.258 205.617 419.02 216.052 420.605C222.074 421.52 228.808 420.862 234.954 420.866L279.229 420.883C285.873 422.164 295.1 421.389 301.22 418.064C311.449 412.507 301.618 398.027 314.238 397.083Z"/><path fill="#989897" transform="scale(2 2)" d="M235.75 435.477L259.046 435.477C259.05 439.094 259.226 444.244 259.046 447.729C243.135 447.797 235.501 452.437 235.75 435.477Z"/><path fill="#5B5B5B" transform="scale(2 2)" d="M259.046 435.477L275.972 435.477C276.1 451.011 273.031 447.63 259.046 447.729C259.226 444.244 259.05 439.094 259.046 435.477Z"/><path fill="#0C98E8" transform="scale(2 2)" d="M291.037 366.24C315.752 365.782 300.643 378.256 314.238 379.894C314.06 380.362 314.231 395.223 314.238 397.083C301.618 398.027 311.449 412.507 301.22 418.064C295.1 421.389 285.873 422.164 279.229 420.883C287.859 415.378 290.923 410.713 291.017 400.176L291.037 366.24Z"/><defs><linearGradient id="gradient_0" gradientUnits="userSpaceOnUse" x1="365.79761" y1="245.58075" x2="158.84641" y2="223.26106"><stop offset="0" stop-color="#FBBF00"/><stop offset="1" stop-color="#FBE753"/></linearGradient></defs><path fill="url(#gradient_0)" transform="scale(2 2)" d="M171.623 151.591C172.391 149.211 175.067 146.846 176.852 145.056C230.701 91.0625 321.492 105.997 355.897 174.162C379.735 221.389 367.507 280.827 325.78 314.088C308.654 327.74 305.303 327.299 298.846 351.692C293.227 351.705 285.623 351.97 280.196 351.692L280.181 330.911C280.178 311.324 281.25 295.972 302.192 288.775C307.642 286.858 316.755 288.334 316.859 280.128C316.93 274.533 312.672 271.959 307.563 272.491C291.071 274.206 276.792 284.197 269.815 299.259C264.749 310.196 265.382 318.79 265.381 330.354L265.391 351.692L246.76 351.692L246.773 329.112C246.773 324.555 246.971 318.424 246.584 314.053C244.289 290.064 226.44 273.676 202.464 272.641C195.157 272.325 191.864 280.414 196.685 285.449C199.138 288.01 205.784 287.266 208.988 288.092C230.413 293.133 232.214 310.634 232.204 328.28L232.189 351.692L213.583 351.692C211.419 331.988 201.469 325.68 187.967 315.262C181.775 310.484 170.749 300.855 166.663 293.882C136.897 258.553 136.901 202.221 161.653 164.129C164.561 159.655 167.456 155.097 171.623 151.591Z"/><path fill="#FEC302" transform="scale(2 2)" d="M171.623 151.591C171.151 153.645 165.086 157.62 166.039 159.538C169.536 166.571 174.397 175.574 171.71 184.121L169.372 191.517L169.65 191.596C172.761 185.72 188.29 157.082 193.766 157.395C186.094 166.207 169.879 184.442 170.523 195.467C170.771 199.703 173.721 202.127 177.009 204.151L176.625 204.372C174.01 203.615 170.25 198.572 169.293 195.857L169.03 196.042C168.781 197.757 161.861 209.771 160.587 212.972C158.363 219.206 160.709 225.923 160.918 232.269C161.058 237.155 160.035 247.434 160.776 251.624C161.367 251.884 161.546 251.936 162.173 252.104L162.332 252.408C158.748 255.136 160.666 259.727 160.121 264.237C159.575 268.754 166.675 282.173 161.075 284.085C160.579 285.516 166.349 291.724 166.813 293.609L166.663 293.882C136.897 258.553 136.901 202.221 161.653 164.129C164.561 159.655 167.456 155.097 171.623 151.591Z"/><path fill="white" transform="scale(2 2)" d="M193.766 157.395C200.673 151.301 218.953 135.205 227.105 145.329C234.999 155.434 222.904 160.053 216.701 164.268C207.624 170.437 198.759 178.888 193.888 188.932C190.076 196.795 188.896 207.279 177.009 204.151C173.721 202.127 170.771 199.703 170.523 195.467C169.879 184.442 186.094 166.207 193.766 157.395Z"/><path transform="scale(2 2)" d="M257.72 130.531C260.313 130.173 263.991 130.421 266.626 130.747C296.098 134.398 321.121 149.62 337.584 174.456C340.859 179.845 348.078 189.503 336.062 191.96C329.381 192.433 327.458 185.624 324.209 180.745C310.547 160.23 285.355 145.881 260.684 145.121C247.49 144.715 248.204 132.333 257.72 130.531Z"/><path transform="scale(2 2)" d="M343.919 200.79C349.457 200.204 352.857 203.66 353.224 208.968C353.865 218.262 357.486 223.791 348.005 229.249C339.552 228.85 339.031 223.277 338.471 216.556C337.912 209.837 335.161 203.384 343.919 200.79Z"/><path transform="scale(2 2)" d="M254.944 46.2907C257.689 46.1576 262.635 47.5483 263.046 50.7693C263.93 58.0083 266.761 79.25 257.72 81.6927C248.28 82.9709 248.104 73.7652 248.655 66.8374C249.268 59.1235 245.422 48.7631 254.944 46.2907Z"/><path transform="scale(2 2)" d="M85.9388 214.418C90.7509 214.378 105.668 213.598 109.392 215.384C116.204 218.652 114.065 227.524 107.431 229.249C97.6864 230.112 76.6503 232.429 80.8953 218.133C81.401 216.43 84.2595 214.951 85.9388 214.418Z"/><path transform="scale(2 2)" d="M151.996 324.29C158.489 323.92 161.449 332.048 158.521 335.118C154.474 339.361 144.849 351.401 139.524 352.514C132.139 351.81 129.211 345.453 134.009 339.615C137.007 335.966 147.692 324.702 151.996 324.29Z"/><path transform="scale(2 2)" d="M359.707 324.29C365.357 325.03 392.405 346.774 373.551 352.514C368.895 352.359 339.584 328.346 359.707 324.29Z"/><path transform="scale(2 2)" d="M406.803 214.418C410.515 214.028 425.305 213.863 428.196 215.291C435.03 218.667 433.168 226.642 425.766 229.249C421.939 229.762 410.524 229.435 406.776 229.108C398.056 228.346 397.8 215.691 406.803 214.418Z"/><path transform="scale(2 2)" d="M139.524 97.0765C143.272 96.2157 154.771 108.903 157.246 111.707C161.208 116.195 158.873 122.092 153.379 123.733C147 124.577 128.157 108.187 133.603 99.8663C134.941 97.8207 137.322 97.4739 139.524 97.0765Z"/><path transform="scale(2 2)" d="M372.712 97.0765C380.531 96.2429 383.254 106.011 377.089 110.798C372.325 114.498 368.002 121.298 362.331 123.733C341.859 122.029 366.253 97.9709 372.712 97.0765Z"/></svg>