<?xml version="1.0" encoding="utf-8" ?><svg xmlns="http://www.w3.org/2000/svg" xmlns:xlink="http://www.w3.org/1999/xlink" width="1024" height="1024" viewBox="0 0 1024 1024"><path fill="#BCDEF6" transform="scale(2 2)" d="M376.437 156.133C376.386 151.158 376.743 146.738 380.734 143.072C399.387 125.941 455.387 124.436 455.268 156.826L455.268 277.731C455.307 285.755 458.217 296.175 448.976 298.039C449.07 302.824 448.982 307.727 448.976 312.53C457.25 314.98 455.282 320.214 455.264 327.506L455.249 346.045C455.252 369.701 455.292 380.533 427.816 380.287L104.9 380.272C102.105 380.227 99.1396 380.559 96.3607 380.349C77.5497 378.926 61.0999 363.977 57.4599 345.539C55.9824 338.054 56.482 329.807 56.4875 322.215L56.4827 222.974C56.4476 216.638 54.4913 210.693 62.2933 209.147C64.2877 208.571 61.6047 200.446 64.4497 196.688C60.7855 195.772 59.7277 193.83 58.6718 190.475C60.4713 182.636 66.8812 173.219 74.4455 181.168C74.9849 177.79 81.6094 173.835 84.483 171.901C83.2213 170.98 81.5207 168.978 81.1185 167.498C78.0984 156.108 104.763 156.122 110.961 156.114L277.685 156.091C282.746 156.064 284.364 157.222 285.59 162.242C290.376 162.238 295.253 162.183 300.031 162.242C300.346 153.736 319.499 152.689 321.041 162.242C322.575 162.487 334.105 162.445 336.165 162.242C337.107 153.884 346.903 156.11 353.276 156.112L376.437 156.133Z"/><path transform="scale(2 2)" d="M62.2933 209.147C70.469 209.888 68.5081 220.129 68.5059 225.878L68.5019 307.775C86.9733 290.411 110.471 289.116 130.007 306.975L129.988 284.853C129.987 281.022 129.206 272.233 131.76 269.223C134.798 265.641 142.213 267.401 142.391 272.633C142.661 275.538 142.608 278.302 142.611 281.203L142.606 340.746L162.996 340.724C168.785 340.718 177.9 339.085 178.307 347.257C178.668 354.49 166.402 352.97 162.118 352.966L141.771 352.949C141.768 357.75 141.652 363.179 141.771 367.935L376.437 367.935L376.429 329.186C376.429 320.644 372.988 304.773 382.996 303.631C391.029 305.898 388.716 313.254 388.699 320.003L388.69 340.746L389.091 340.679C392.565 340.074 396.038 338.444 399.512 337.593C408.047 335.504 415.883 335.393 424.536 335.727C432.591 336.892 435.625 337.895 443.069 340.746C443.043 331.372 439.238 315.483 448.976 312.53C457.25 314.98 455.282 320.214 455.264 327.506L455.249 346.045C455.252 369.701 455.292 380.533 427.816 380.287L104.9 380.272C102.105 380.227 99.1396 380.559 96.3607 380.349C77.5497 378.926 61.0999 363.977 57.4599 345.539C55.9824 338.054 56.482 329.807 56.4875 322.215L56.4827 222.974C56.4476 216.638 54.4913 210.693 62.2933 209.147Z"/><path fill="#46A3DD" transform="scale(2 2)" d="M141.771 367.935L112.994 367.941C107.484 367.943 97.0618 368.485 92.0486 367.119C75.076 362.496 63.9128 343.313 71.173 326.555C84.9575 294.514 127.896 303.267 129.848 337.448C130.485 348.599 125.752 354.131 141.771 352.949C141.768 357.75 141.652 363.179 141.771 367.935Z"/><path transform="scale(2 2)" d="M98.3508 319.731C108.196 319.361 116.49 327.017 116.909 336.86C117.328 346.704 109.714 355.036 99.8728 355.504C89.9616 355.975 81.5575 348.296 81.1357 338.382C80.7139 328.469 88.4353 320.103 98.3508 319.731Z"/><path fill="white" transform="scale(2 2)" d="M98.0703 332.061C100.057 331.736 102.065 332.505 103.326 334.074C104.588 335.642 104.908 337.768 104.166 339.639C103.423 341.51 101.731 342.837 99.7369 343.113C96.7058 343.532 93.9011 341.436 93.4449 338.41C92.9886 335.384 95.0503 332.554 98.0703 332.061Z"/><defs><linearGradient id="gradient_0" gradientUnits="userSpaceOnUse" x1="388.45929" y1="364.06378" x2="425.40115" y2="354.896"><stop offset="0" stop-color="#FFB705"/><stop offset="1" stop-color="#FFDE0C"/></linearGradient></defs><path fill="url(#gradient_0)" transform="scale(2 2)" d="M409.572 348.031C414.617 348.05 419.465 347.933 424.536 348.031C431.627 349.74 437.132 350.957 443.069 355.576C443.871 372.487 430.037 367.828 417.354 367.935C409.025 368.272 397.254 367.936 388.69 367.935L388.69 355.576C393.468 352.52 398.545 350.842 403.941 349.336C405.659 348.809 407.782 348.412 409.572 348.031Z"/><path fill="#FEC302" transform="scale(2 2)" d="M424.536 348.031C431.627 349.74 437.132 350.957 443.069 355.576C443.871 372.487 430.037 367.828 417.354 367.935C424.423 366.902 424.902 353.199 424.536 348.031Z"/><path transform="scale(2 2)" d="M403.941 349.336C405.659 348.809 407.782 348.412 409.572 348.031L409.708 349.338C413.274 350.031 415.855 353.146 415.873 356.779C415.891 360.412 413.341 363.553 409.782 364.281C406.223 365.01 402.644 363.123 401.233 359.775C399.823 356.427 400.972 352.549 403.98 350.51L403.941 349.336Z"/><path fill="#FEC302" transform="scale(2 2)" d="M403.941 349.336C405.659 348.809 407.782 348.412 409.572 348.031L409.708 349.338C407.719 348.951 405.657 349.373 403.98 350.51L403.941 349.336Z"/><path fill="#FED206" transform="scale(2 2)" d="M376.437 156.133C376.386 151.158 376.743 146.738 380.734 143.072C399.387 125.941 455.387 124.436 455.268 156.826L455.268 277.731C455.307 285.755 458.217 296.175 448.976 298.039C449.07 302.824 448.982 307.727 448.976 312.53C439.238 315.483 443.043 331.372 443.069 340.746C435.625 337.895 432.591 336.892 424.536 335.727C415.883 335.393 408.047 335.504 399.512 337.593C396.038 338.444 392.565 340.074 389.091 340.679L388.69 340.746L388.699 320.003C388.716 313.254 391.029 305.898 382.996 303.631C382.911 299.06 382.884 294.473 382.996 289.903C385.117 289.58 387.386 288.259 388.169 286.193C389.125 283.67 388.919 250.9 388.652 246.341C388.422 242.414 386.873 240.711 382.996 239.548C382.821 235.238 383.103 230.344 382.996 225.892C373.408 224.953 376.431 210.525 376.43 202.855L376.437 168.332L354.04 168.348C346.39 168.349 337.994 170.822 336.165 162.242C337.107 153.884 346.903 156.11 353.276 156.112L376.437 156.133Z"/><path transform="scale(2 2)" d="M376.437 156.133C376.386 151.158 376.743 146.738 380.734 143.072C399.387 125.941 455.387 124.436 455.268 156.826L455.268 277.731C455.307 285.755 458.217 296.175 448.976 298.039C441.296 296.712 443.048 287.606 443.052 281.792L443.065 155.709C443.034 146.959 431.575 145.275 424.536 143.243C412.911 142.878 397.565 143.429 388.69 152.09L388.703 212.437C388.699 218.346 390.15 224.358 382.996 225.892C373.408 224.953 376.431 210.525 376.43 202.855L376.437 168.332L354.04 168.348C346.39 168.349 337.994 170.822 336.165 162.242C337.107 153.884 346.903 156.11 353.276 156.112L376.437 156.133Z"/><path fill="#FEC302" transform="scale(2 2)" d="M424.536 143.243C431.575 145.275 443.034 146.959 443.065 155.709L443.052 281.792C443.048 287.606 441.296 296.712 448.976 298.039C449.07 302.824 448.982 307.727 448.976 312.53C439.238 315.483 443.043 331.372 443.069 340.746C435.625 337.895 432.591 336.892 424.536 335.727C424.69 333.431 424.569 329.816 424.563 327.402L424.526 182.648C424.53 169.829 424.851 155.923 424.536 143.243Z"/><path transform="scale(2 2)" d="M84.483 171.901C83.2213 170.98 81.5207 168.978 81.1185 167.498C78.0984 156.108 104.763 156.122 110.961 156.114L277.685 156.091C282.746 156.064 284.364 157.222 285.59 162.242C284.774 166.227 283.002 168.357 278.687 168.378L116.364 168.333C110.62 168.326 104.971 168.209 99.2352 168.616C94.0449 168.984 89.5381 173.319 84.483 171.901Z"/><path transform="scale(2 2)" d="M382.996 239.548C386.873 240.711 388.422 242.414 388.652 246.341C388.919 250.9 389.125 283.67 388.169 286.193C387.386 288.259 385.117 289.58 382.996 289.903C374.883 288.385 376.409 283.464 376.419 276.785L376.424 264.925C376.427 256.716 373 240.242 382.996 239.548Z"/><path transform="scale(2 2)" d="M300.031 162.242C300.346 153.736 319.499 152.689 321.041 162.242C318.798 171.419 302.583 171.17 300.031 162.242Z"/><path transform="scale(2 2)" d="M58.6718 190.475C60.4713 182.636 66.8812 173.219 74.4455 181.168C75.1145 186.661 71.2298 196.166 64.4497 196.688C60.7855 195.772 59.7277 193.83 58.6718 190.475Z"/><path transform="scale(2 2)" d="M91.2183 191.3C100.339 191.65 98.014 203.097 98.0181 209.573L98.0245 260.586C98.022 268.923 101.096 282.015 91.9856 284.22C83.7754 284.317 85.4041 274.444 85.3989 268.771L85.385 216.091C85.3837 207.864 82.2433 193.366 91.2183 191.3Z"/><path transform="scale(2 2)" d="M136.945 228.077C144.58 228.94 146.096 251.766 136.945 254.637C128.262 254.395 130.119 245.886 129.966 239.768C129.801 233.201 129.509 229.124 136.945 228.077Z"/></svg>