<?xml version="1.0" encoding="utf-8" ?><svg xmlns="http://www.w3.org/2000/svg" xmlns:xlink="http://www.w3.org/1999/xlink" width="1024" height="1024" viewBox="0 0 1024 1024"><path fill="#BCDEF6" transform="scale(2 2)" d="M289.939 135.755C285.829 136.616 281.524 136.977 277.377 137.559C227.424 144.566 181.713 170.987 143.57 202.992C137.386 208.181 122.496 227.184 115.783 218.941C110.562 212.531 117.586 207.624 121.978 203.596C166.623 162.653 220.051 130.594 281.013 122.948C350.596 114.221 433.4 150.235 443.362 226.665C444.924 239.062 443.58 250.611 443.505 263.037L443.512 287.37C443.514 306.376 442.572 317.951 429.751 333.997C426.171 338.477 423.018 344.149 416.345 340.057C413.971 342.455 407.087 349.738 404.586 351.181C407.324 360.372 395.816 364.011 388.85 367.445C347.761 387.7 299.276 392.764 254.654 382.95C242.521 380.282 224.289 375.675 214.053 368.242C208.754 364.393 205.977 359.398 199.385 357.21C176.987 349.774 175.084 378.664 146.499 368.846C126.128 361.848 80.3787 339.145 70.7721 319.237C66.697 310.792 67.7214 302.234 67.7308 293.156C67.7603 264.753 64.5439 256.538 88.4361 235.912C93.423 231.606 100.334 226.219 103.824 235.619L103.942 235.943C107.866 238.463 109.974 243.783 115.719 241.543C117.679 240.779 149.269 211.271 153.749 207.575C183.512 183.015 252.231 140.771 292.806 136.882L292.8 136.457L292.332 136.146C291.202 136.246 291.009 136.157 289.939 135.755ZM91.3169 282.582C88.6301 264.562 95.9828 262.698 106.123 250.653C108.021 248.398 105.847 244.751 103.273 243.436L101.879 242.711C94.3241 249.136 83.1196 257.108 82.2583 267.565C81.708 274.248 84.8471 282.455 89.809 287.068C92.6673 288.195 91.3843 285.416 91.3169 282.582Z"/><path transform="scale(2 2)" d="M289.939 135.755C285.829 136.616 281.524 136.977 277.377 137.559C227.424 144.566 181.713 170.987 143.57 202.992C137.386 208.181 122.496 227.184 115.783 218.941C110.562 212.531 117.586 207.624 121.978 203.596C166.623 162.653 220.051 130.594 281.013 122.948C350.596 114.221 433.4 150.235 443.362 226.665C444.924 239.062 443.58 250.611 443.505 263.037L443.512 287.37C443.514 306.376 442.572 317.951 429.751 333.997C426.171 338.477 423.018 344.149 416.345 340.057C413.971 342.455 407.087 349.738 404.586 351.181C407.324 360.372 395.816 364.011 388.85 367.445C347.761 387.7 299.276 392.764 254.654 382.95C242.521 380.282 224.289 375.675 214.053 368.242C208.754 364.393 205.977 359.398 199.385 357.21C176.987 349.774 175.084 378.664 146.499 368.846C126.128 361.848 80.3787 339.145 70.7721 319.237C66.697 310.792 67.7214 302.234 67.7308 293.156C67.7603 264.753 64.5439 256.538 88.4361 235.912C93.423 231.606 100.334 226.219 103.824 235.619L103.942 235.943C103.892 239.042 103.863 240.235 101.879 242.711C94.3241 249.136 83.1196 257.108 82.2583 267.565C81.708 274.248 84.8471 282.455 89.809 287.068C91.003 288.31 92.157 289.344 93.4338 290.497C104.355 301.705 119.031 310.313 132.923 317.269C139.319 320.472 151.924 322.273 149.165 331.419C152.78 331.662 161.868 333.937 166.401 334.754C173.918 313.58 198.669 308.644 216.617 320.381C218.263 321.457 220.198 322.542 221.947 323.439C223.605 325.232 226.654 327.174 228.829 328.403C275.15 354.59 336.45 351.631 380.96 323.028C420.815 297.415 442.273 252.915 424.176 207.327C422.915 204.186 421.742 200.703 419.915 197.854C401.26 157.95 349.296 136.992 307.867 135.798C301.919 135.626 295.888 135.947 289.939 135.755Z"/><path fill="#65BFF6" transform="scale(2 2)" d="M193.774 342.338C188.465 339.185 203.159 331.772 205.319 330.746L205.719 330.552C210.523 332.555 214.493 335.948 218.924 338.629C268.278 368.485 335.13 366.661 384.359 337.513C387.727 335.519 391.05 333.292 394.439 331.419C393.626 336.796 368.172 349.907 371.154 360.168C363.474 362.587 356.084 365.547 348.172 367.581C307.527 378.033 261.313 376.365 223.316 357.498C214.227 352.985 212.057 341.867 193.774 342.338Z"/><path fill="#65BFF6" transform="scale(2 2)" d="M81.0143 298.402C96.4515 312.926 114.453 325.073 134.196 332.992C140.433 335.494 144.58 338.186 149.165 331.419C152.78 331.662 161.868 333.937 166.401 334.754C161.713 352.554 170.723 362.848 143.305 352.302C125.373 345.405 100.516 331.996 87.1762 318.578C81.0397 312.405 80.6464 306.552 81.0143 298.402Z"/><path fill="#1985E1" transform="scale(2 2)" d="M394.439 331.419C395.983 329.404 400.146 326.649 402.237 324.97C415.64 314.199 419.757 306.908 429.304 294.571C429.947 306.55 425.594 316.14 418.379 325.505C414.187 330.945 410.302 333.572 416.345 340.057C413.971 342.455 407.087 349.738 404.586 351.181C399.675 344.86 395.475 347.322 389.476 350.82C383.459 354.328 377.253 356.998 371.154 360.168C368.172 349.907 393.626 336.796 394.439 331.419Z"/><path fill="#1985E1" transform="scale(2 2)" d="M179.007 345.412C180.002 329.85 191.895 325.139 205.719 330.552L205.319 330.746C203.159 331.772 188.465 339.185 193.774 342.338C187.9 341.948 184.163 342.607 179.007 345.412Z"/><path fill="#FEC302" transform="scale(2 2)" d="M232.697 183.754C275.245 169.564 335.309 160.826 373.487 190.759C378.251 194.494 380.378 199.948 387.154 197.854C394.289 207.547 395.469 214.791 400.58 224.066C394.828 225.098 393.65 227.943 393.991 233.515C396.217 269.813 363.887 296.172 331.083 302.921C313.374 306.565 263.896 310.65 250.649 296.985C250.583 296.027 248.515 291.881 248.227 290.068C246.808 281.128 249.286 270.706 241.315 263.176C240.608 262.224 238.736 255.601 238.039 253.943C233.127 242.253 225.594 237.072 216.122 230.133C216.12 229.528 215.675 227.476 215.51 226.889C212.441 215.965 217.369 205.476 226.224 198.892C233.17 193.727 239.829 191.935 232.697 183.754Z"/><path transform="scale(2 2)" d="M284.418 187.263C321.216 184.998 320.754 244.065 279.892 246.54C240.578 247.597 244.696 188.32 284.418 187.263Z"/><path fill="white" transform="scale(2 2)" d="M283.387 201.069C302.952 199.063 303.48 227.473 280.701 232.53C259.281 235.663 262.085 204.467 283.387 201.069Z"/><path transform="scale(2 2)" d="M322.67 233.532C335.539 233.53 329.124 246.091 325.042 252.081C317.39 263.31 299.454 282.34 285.888 287.068C280.22 288.324 275.325 280.59 279.461 276.176C281.319 274.196 283.848 272.881 286.084 271.368C297.366 263.726 307.758 254.381 314.72 242.531C316.806 238.981 318.237 234.577 322.67 233.532Z"/><path transform="scale(2 2)" d="M221.947 172.812L222.196 172.749C225.507 171.876 229.168 170.372 232.574 169.353C276.357 156.261 329.574 148.631 370.906 172.22C377.622 176.052 399.625 189.277 387.154 197.854C380.378 199.948 378.251 194.494 373.487 190.759C335.309 160.826 275.245 169.564 232.697 183.754C239.829 191.935 233.17 193.727 226.224 198.892C217.369 205.476 212.441 215.965 215.51 226.889C215.675 227.476 216.12 229.528 216.122 230.133C225.594 237.072 233.127 242.253 238.039 253.943C238.736 255.601 240.608 262.224 241.315 263.176C249.286 270.706 246.808 281.128 248.227 290.068C248.515 291.881 250.583 296.027 250.649 296.985C263.896 310.65 313.374 306.565 331.083 302.921C363.887 296.172 396.217 269.813 393.991 233.515C393.65 227.943 394.828 225.098 400.58 224.066C416.24 225.954 403.522 254.429 404.586 261.304C401.546 265.617 399.605 270.663 396.754 275.144C382.435 297.656 357.417 312.046 331.542 317.024C315.413 320.127 270.77 321.865 256.257 316.409C241.319 310.792 229.567 296.813 227.793 280.785C226.755 271.405 228.868 267.666 224.441 257.982C223.026 256.98 214.368 247.881 213.767 246.54C212.132 244.281 209.724 242.845 207.579 241.063C196.607 231.889 190.684 215.561 194.875 201.629C199.193 187.273 209.451 179.591 221.947 172.812Z"/><path fill="white" transform="scale(2 2)" d="M232.697 183.754C239.829 191.935 233.17 193.727 226.224 198.892C217.369 205.476 212.441 215.965 215.51 226.889C215.675 227.476 216.12 229.528 216.122 230.133C195.95 212.862 212.618 191.14 232.697 183.754Z"/><path fill="white" transform="scale(2 2)" d="M241.315 263.176C249.286 270.706 246.808 281.128 248.227 290.068C248.515 291.881 250.583 296.027 250.649 296.985C239.001 287.619 242.026 275.799 241.315 263.176Z"/><path fill="#F9A908" transform="scale(2 2)" d="M213.767 246.54C218.421 248.007 222.5 253.672 224.441 257.982C223.026 256.98 214.368 247.881 213.767 246.54Z"/><path fill="#F9A908" transform="scale(2 2)" d="M221.947 172.812C225.773 170.163 230.669 167.929 234.937 166.099C291.68 141.772 369.79 140.127 413.453 190.451C414.906 192.126 418.248 196.84 419.915 197.854C421.742 200.703 422.915 204.186 424.176 207.327C442.273 252.915 420.815 297.415 380.96 323.028C336.45 351.631 275.15 354.59 228.829 328.403C226.654 327.174 223.605 325.232 221.947 323.439C223.263 323.561 230.911 327.528 233.018 328.37C284.11 348.772 371.798 335.624 397.903 281.155C399.031 278.8 404.906 263.142 404.586 261.304C403.522 254.429 416.24 225.954 400.58 224.066C395.469 214.791 394.289 207.547 387.154 197.854C399.625 189.277 377.622 176.052 370.906 172.22C329.574 148.631 276.357 156.261 232.574 169.353C229.168 170.372 225.507 171.876 222.196 172.749L221.947 172.812Z"/><path fill="white" transform="scale(2 2)" d="M91.3169 282.582C92.7347 284.613 95.2712 288.021 93.4338 290.497C92.157 289.344 91.003 288.31 89.809 287.068C92.6673 288.195 91.3843 285.416 91.3169 282.582Z"/><path transform="scale(2 2)" d="M154.158 261.304C156.902 261.286 162.721 260.97 164.807 262.319C170.423 265.953 168.385 273.227 162.149 274.697C160.652 274.759 158.623 274.616 157.097 274.723C147.094 275.42 144.952 263.182 154.158 261.304Z"/></svg>