<?xml version="1.0" encoding="utf-8" ?><svg xmlns="http://www.w3.org/2000/svg" xmlns:xlink="http://www.w3.org/1999/xlink" width="1024" height="1024" viewBox="0 0 1024 1024"><path transform="scale(2 2)" d="M218.813 84.2349C209.31 81.8662 212.115 71.3941 218.227 70.7307C221.445 70.3814 224.944 70.4979 228.261 70.4957L290.277 70.5414C296.503 70.5901 298.975 73.0855 298.695 79.3367C304.023 81.2344 310.537 85.2055 314.284 89.4604L314.385 89.1047C315.758 84.3813 319.214 82.194 324.006 83.8793C360.242 96.6229 357.72 136.332 326.325 142.963C324.459 143.357 320.673 143.772 318.988 144.491C309.204 148.662 302.721 152.233 291.873 155.431C291.517 186.992 291.868 219.308 291.867 250.923L291.883 277.993C291.89 284.895 294.272 298.189 285.706 299.865C275.739 299.983 278.406 291.81 278.463 285.378L278.482 263.295C273.928 261.053 254.525 250.318 251.477 247.367C248.011 244.011 248.781 238.412 248.786 234.041L248.8 176.279C242.706 176.378 235.096 176.323 229.014 175.457L226.199 175.457C216.918 172.743 220.039 163.595 220.025 155.431C211.454 152.623 179.904 141.294 172.881 136.98C156.4 126.782 156.679 99.7752 174.595 91.2401C178.642 89.2401 182.688 87.4194 186.765 85.4647C193.582 82.196 199.49 88.1798 196.472 95.4319C198.494 96.892 200.46 98.4496 202.429 99.9822C206.579 90.4644 212.629 90.1125 218.813 84.2349ZM202.429 133.908C196.816 127.4 194.484 128.657 190.826 117.967C189.836 115.55 190.034 110.999 191.882 109.028C189.576 106.714 186.795 104.044 184.642 101.65C175.279 105.737 171.835 109.726 175.591 120.804C177.594 126.713 195.718 132.033 202.429 133.908ZM208.011 119.68C206.04 118.717 203.802 117.359 201.788 116.311L200.394 116.184L200.091 116.504C200.643 117.919 201.574 118.053 201.788 119.68C203.083 119.712 206.999 119.916 208.011 119.68Z"/><path fill="#BCDEF6" transform="scale(2 2)" d="M218.813 84.2349C209.31 81.8662 212.115 71.3941 218.227 70.7307C221.445 70.3814 224.944 70.4979 228.261 70.4957L290.277 70.5414C296.503 70.5901 298.975 73.0855 298.695 79.3367C304.023 81.2344 310.537 85.2055 314.284 89.4604C314.199 94.795 317.702 96.0747 321.938 97.8978C321.659 107.221 315.812 108.903 307.799 112.861C284.721 124.259 261.746 125.907 236.572 125.773C240.551 118.398 237.529 115.035 230.342 113.286C220.803 110.965 209.883 106.403 202.429 99.9822C206.579 90.4644 212.629 90.1125 218.813 84.2349Z"/><path transform="scale(2 2)" d="M218.813 84.2349C209.31 81.8662 212.115 71.3941 218.227 70.7307C221.445 70.3814 224.944 70.4979 228.261 70.4957L290.277 70.5414C296.503 70.5901 298.975 73.0855 298.695 79.3367C294.739 85.6485 290.929 84.1692 284.188 84.2593C262.463 84.55 240.52 83.8061 218.813 84.2349Z"/><path fill="#68BBF4" transform="scale(2 2)" d="M321.938 97.8978C327.598 100.533 333.695 103.788 336.166 109.948C339.347 117.876 333.597 126.266 326.051 128.781C322.469 129.975 318.79 129.839 315.206 130.969C311.804 132.343 308.564 134.199 305.244 135.754C283.742 145.663 263.167 148.894 239.378 146.199C232.494 145.419 207.163 137.847 202.429 133.908C196.816 127.4 194.484 128.657 190.826 117.967C191.657 117.581 200.298 119.469 201.788 119.68C203.083 119.712 206.999 119.916 208.011 119.68C215.61 123.321 228.398 129.225 236.572 125.773C261.746 125.907 284.721 124.259 307.799 112.861C315.812 108.903 321.659 107.221 321.938 97.8978Z"/><path fill="#68BBF4" transform="scale(2 2)" d="M233.373 158.646C238.459 159.27 243.74 159.87 248.8 160.544L248.8 176.279C242.706 176.378 235.096 176.323 229.014 175.457C234.636 170.867 233.398 165.258 233.373 158.646Z"/><path fill="#BCDEF6" transform="scale(2 2)" d="M191.882 109.028C195.977 112.71 198.159 113.488 201.788 116.311L200.394 116.184L200.091 116.504C200.643 117.919 201.574 118.053 201.788 119.68C200.298 119.469 191.657 117.581 190.826 117.967C189.836 115.55 190.034 110.999 191.882 109.028Z"/><path fill="#68BBF4" transform="scale(2 2)" d="M261.799 160.544C267.114 159.622 272.98 159.486 278.482 158.646L278.495 184.716C278.497 188.847 278.642 193.847 278.482 197.878L278.482 247.984C276.394 246.813 274.279 245.647 272.208 244.45C268.844 242.487 265.222 240.56 261.799 238.671L261.799 176.279L261.799 160.544Z"/><path fill="white" transform="scale(2 2)" d="M265.863 175.457L269.455 175.457C274.475 178.92 272.198 190.831 272.2 197.287L272.208 244.45C268.844 242.487 265.222 240.56 261.799 238.671L261.799 176.279C263.192 175.956 264.439 175.654 265.863 175.457Z"/><path fill="#1A85C1" transform="scale(2 2)" d="M261.799 160.544C267.114 159.622 272.98 159.486 278.482 158.646L278.495 184.716C278.497 188.847 278.642 193.847 278.482 197.878C277.971 194.544 278.238 177.763 278.482 174.006C275.008 174.326 269.316 174.938 265.863 175.457C264.439 175.654 263.192 175.956 261.799 176.279L261.799 160.544Z"/><path fill="#FEC302" transform="scale(2 2)" d="M226.199 175.457L229.014 175.457C235.096 176.323 242.706 176.378 248.8 176.279L248.786 234.041C248.781 238.412 248.011 244.011 251.477 247.367C254.525 250.318 273.928 261.053 278.482 263.295L278.463 285.378C278.406 291.81 275.739 299.983 285.706 299.865L285.733 313.252C285.741 315.152 285.877 318.542 285.706 320.334C294.786 322.951 294.164 336.448 285.706 338.915C285.445 343.594 285.27 353.731 285.706 358.367C295.999 359.478 291.728 387.02 291.875 395.902C291.387 415.374 289.746 413.14 277.575 426.611C270.439 434.295 264.404 439.226 253.42 437.959C241.943 436.635 239.416 431.137 232.074 424.534C221.761 415.259 219.013 411.054 220.281 396.916C220.627 393.06 223.685 390.928 227.644 391.433C235.639 392.86 233.202 401.668 233.373 407.057C240.732 414.549 248.767 426.451 259.456 423.911C255.908 418.133 248.181 412.866 246.86 405.608C245.873 400.189 246.212 391.386 246.214 385.692L246.222 249.558C246.223 232.683 246.546 214.69 246.222 197.878C243.568 193.597 237.839 194.659 233.373 194.759C231.891 190.757 230.247 189.881 226.199 189.524C226.049 185.013 226.176 180.004 226.199 175.457Z"/><path transform="scale(2 2)" d="M285.706 358.367C295.999 359.478 291.728 387.02 291.875 395.902C291.387 415.374 289.746 413.14 277.575 426.611C270.439 434.295 264.404 439.226 253.42 437.959C241.943 436.635 239.416 431.137 232.074 424.534C221.761 415.259 219.013 411.054 220.281 396.916C220.627 393.06 223.685 390.928 227.644 391.433C235.639 392.86 233.202 401.668 233.373 407.057C240.732 414.549 248.767 426.451 259.456 423.911C262.795 422.655 275.996 409.526 277.362 406.328C279.205 402.009 278.569 378.35 278.452 372.237C278.325 365.619 276.721 359.357 285.706 358.367Z"/><path transform="scale(2 2)" d="M285.706 320.334C294.786 322.951 294.164 336.448 285.706 338.915C274.894 338.989 273.92 320.365 285.706 320.334Z"/><path transform="scale(2 2)" d="M226.199 189.524C230.247 189.881 231.891 190.757 233.373 194.759C233.172 199.199 233.362 205.333 233.364 209.92L233.378 355.833C233.39 359.777 233.468 363.672 233.422 367.658C233.339 374.731 220.116 380.503 220.04 363.955L220.032 197.871C220.042 192.669 220.782 190.655 226.199 189.524Z"/></svg>