<?xml version="1.0" encoding="utf-8" ?><svg xmlns="http://www.w3.org/2000/svg" xmlns:xlink="http://www.w3.org/1999/xlink" width="1024" height="1024" viewBox="0 0 1024 1024"><path transform="scale(2 2)" d="M373.642 112.043C370.17 103.729 368.429 95.9999 372.229 87.3632C387.902 51.7374 444.032 77.5222 418.25 117.336L418.25 267.894C424.574 274.135 425.712 276.941 425.492 285.862C425.195 297.88 427.729 304.29 418.25 313.353L418.25 400.131C424.762 403.264 426.512 406.321 426.506 413.474C439.036 412.906 446.329 427.761 437.606 436.986C431.195 443.767 421.052 441.787 412.606 441.773L383.513 441.766C377.022 441.769 369.908 441.884 363.418 441.792C352.08 441.632 343.543 420.451 364.494 413.474C364.805 406.455 369.166 402.764 374.807 399.443C374.57 390.832 371.444 374.257 380.064 371.564C382.464 372.38 382.806 372.594 384.475 374.5C384.655 373.665 384.198 370.338 383.896 369.533C383.231 367.758 385.41 357.718 385.172 356.99L384.475 356.685C382.684 358.245 382.382 358.297 380.064 358.709C372.343 356.047 374.799 347.074 374.797 339.461L374.807 313.353C367.875 306.33 356.772 300.804 347.525 297.695C342.318 295.944 337.023 296.824 335.363 290.713C337.502 281.234 347.674 286.102 353.772 288.995C353.79 286.249 353.882 283.13 353.772 280.412C350.931 279.161 341.897 272.021 339.366 269.712C333.932 272.306 329.674 278.249 323.877 278.818C320.365 279.164 317.301 273.466 319.948 270.535C322.788 267.389 326.778 265.397 330.04 262.612L330.298 262.39C322.158 256.743 314.057 251.001 306.032 245.191C298.517 251.54 289.419 258.1 282.326 264.68C287.969 268.823 295.182 274.609 283.605 278.399C279.885 277.114 276.722 274.421 273.634 271.993C268.891 274.342 262.043 282.095 257.476 275.787C253.607 270.443 260.772 267.191 264.532 264.68C257.283 258.742 246.911 252.779 240.44 246.567C237.24 248.644 233.049 252.173 229.995 254.619L216.383 265.399C218.702 267.279 222.624 268.698 223.115 271.865C223.536 274.578 220.883 277.698 218.2 277.82C214.313 277.997 210.473 274.351 207.653 271.993C203.922 275.027 196.685 281.64 192.446 275.922C188.765 270.957 194.786 267.83 198.224 265.399C190.249 260.039 181.599 253.356 173.874 247.555C167.872 251.782 159.543 258.3 154.048 263.085C156.105 264.528 162.565 268.563 163.531 271.225C164.999 275.267 160.099 279.508 156.212 277.357C154.692 276.516 152.529 275.277 150.703 274.299C149.734 278.668 146.157 282.009 142.743 284.836C142.723 288.036 142.696 291.221 142.743 294.421C149.904 290.887 168.071 281.166 174.816 287.742C177.922 295.721 169.992 295.551 165.201 296.905C155.129 299.753 143.739 304.184 137.087 312.609C137.394 328.855 137.085 346.218 137.085 362.545L137.09 386.826C137.094 390.96 137.232 395.35 137.087 399.443C143.084 403.36 145.802 405.995 146.59 413.474C158.158 414.475 163.799 427.65 156.668 436.769C151.582 443.272 142.093 441.771 134.545 441.777L93.3272 441.779C87.1335 441.775 81.5118 442.747 76.4924 438.519C66.0598 429.733 71.8138 414.052 85.1346 413.474C85.5631 406.213 88.5036 403.862 93.5547 399.443L93.5507 341.53C93.5519 332.913 93.9327 321.655 93.5547 313.353C91.6424 310.926 88.0245 307.599 87.4576 304.246C85.7627 294.218 84.1522 275.806 93.5547 269.123C93.5823 266.889 93.4242 264.721 93.4392 262.494L93.5187 170.528C93.5056 166.94 92.5695 158.879 95.8577 156.998C98.8479 155.287 102.038 157.034 103.628 159.743C104.916 157.098 104.347 143.725 103.628 140.762C101.82 142.43 101.332 142.667 98.9889 143.468C90.0539 140.323 93.1473 126.297 93.5547 117.336C80.5711 103.416 86.7191 78.1241 105.725 71.8048C123.949 65.7458 142.37 80.4396 141.654 99.3048C141.449 104.073 140.079 107.511 138.541 112.043C153.108 121.783 164.678 129.766 183.231 131.731C188.049 132.241 190.505 131.503 191.856 136.619C190.175 142.503 187.845 140.892 183.055 141.877C189.656 146.091 198.743 152.558 205.006 157.36C211.198 152.566 217.717 147.313 223.349 141.877C217.645 141.836 199.454 144.342 206.055 133.29C210.373 130.586 216.567 131.847 221.492 131.858L234.806 131.848C239.799 131.811 254.823 130.779 248.683 140.762C255.972 145.938 263.164 150.938 270.123 156.564C276.259 151.573 281.345 147.214 287.753 142.307L275.326 142.333C270.856 142.346 262.029 143.585 262.231 136.798C262.438 129.819 276.782 131.862 282.136 131.889L308.253 131.894C332.093 131.946 355.104 129.8 373.642 112.043ZM347.912 262.39C351.612 265.848 356.301 268.382 359.739 271.993C360.884 268.894 360.69 256.687 360.704 252.731C356.453 255.719 351.989 259.713 347.912 262.39ZM279.177 163.332C287.427 167.664 296.076 176.211 304.403 181.051C310.715 175.766 321.775 165.736 328.577 161.622C326.506 160.106 304.339 143.56 303.942 143.468C298.812 146.528 283.095 158.846 279.177 163.332ZM207.653 258.826C213.97 254.474 226.068 244.654 231.361 239.585C228.304 237.518 207.475 222.062 206.055 221.681C198.832 227.229 188.718 234.443 182.209 240.641C184.87 242.331 207.289 258.874 207.653 258.826ZM339.366 255.793C345.678 251.419 356.474 242.235 362.34 237.073C356.438 232.992 343.262 222.068 337.555 219.428C330.968 225.414 320.589 232.394 314.818 238.652C318.395 240.521 338.533 255.605 339.366 255.793ZM196.057 164.054C191.222 160.537 176.97 148.963 172.511 146.73C165.213 152.215 155.871 159.699 149.022 165.861C153.584 170.605 166.859 179.084 172.511 182.645C177.921 178.901 191.594 168.667 196.057 164.054ZM360.704 140.762C360.425 137.49 360.404 136.633 360.704 133.29C350.903 138.089 331.291 143.953 320.66 142.307C324.403 145.675 333.266 152.358 337.555 154.616C343.137 149.815 349.208 145.042 354.88 140.318C356.766 138.747 358.712 139.849 360.704 140.762ZM345.651 161.622C350.3 165.174 355.839 169.081 360.704 172.527C360.59 165.175 360.902 157.597 360.704 150.267C356.197 152.929 349.987 158.255 345.651 161.622ZM150.703 133.29L150.703 150.267C154.817 147.197 161.091 141.769 165.037 139.275C159.81 137.42 155.749 135.433 150.703 133.29ZM261.132 163.332C259.066 161.758 236.883 144.987 236.593 144.897C228.997 151.452 220.811 157.568 213.401 164.054C218.201 167.403 234.909 178.723 238.413 182.645C244.074 175.935 254.72 169.537 261.132 163.332ZM150.703 230.165L150.703 251.96C154.528 249.171 161.452 243.76 165.037 240.641C160.287 236.926 155.605 233.668 150.703 230.165ZM150.703 181.051C150.439 184.537 150.277 197.36 150.703 200.748C154.818 196.98 160.226 193.265 163.726 189.573C159.317 187.381 155.055 183.731 150.703 181.051ZM296.797 238.652C288.671 232.467 279.852 227.048 271.909 220.667C264.29 227.021 256.117 233.242 248.683 239.585C256.12 245.458 265.834 252.514 273.634 257.812C280.688 252.176 290.562 244.923 296.797 238.652ZM172.511 196.164C169.901 199.237 167.027 201.257 163.883 203.756L149.022 215.358C151.489 217.305 172.711 233.237 173.874 233.414C181.257 227.809 190.838 219.513 198.224 214.617C193.844 212.494 175.972 199.61 172.511 196.164ZM337.555 205.569C343.958 200.753 355.908 191.362 361.336 185.537C359.768 184.394 337.657 168.925 336.844 168.676C329.409 174.637 319.988 181.384 313.128 187.67L330.837 200.771C331.579 201.318 336.957 205.324 337.555 205.569ZM280.499 213.496C288.544 219.2 297.948 226.623 306.032 231.718C313.363 225.421 321.483 219.071 328.577 212.847C325.298 210.157 305.987 195.092 303.942 194.662C296.027 200.549 288.485 207.395 280.499 213.496ZM360.704 200.748C356.552 203.58 349.729 208.903 346.787 212.847C350.859 215.082 356.676 219.67 360.704 222.49C360.934 215.79 360.664 207.581 360.704 200.748ZM271.909 206.523C278.399 201.806 289.633 193.276 294.982 187.67C291.163 184.912 273.134 171.08 270.123 170.708C263.866 174.171 252.621 184.122 247.119 188.878C249.901 191.007 270.434 206.467 271.909 206.523ZM215.312 214.617L231.628 226.69C234.459 228.788 237.929 231.071 240.44 233.414C245.775 227.605 256.134 219.269 262.838 214.617C261 212.427 240.602 196.765 238.413 196.164C233.221 199.494 219.477 210.471 215.312 214.617ZM181.101 189.573C189.051 195.737 197.865 201.871 206.055 207.808C213.587 202.773 222.394 195.519 229.594 189.573C222.233 183.252 212.006 177.092 205.006 170.708C198.466 176.37 188.131 184.507 181.101 189.573Z"/><path fill="#BCDEF6" transform="scale(2 2)" d="M104.197 113.8C103.272 112.254 101.749 110.513 100.632 108.932C92.0859 97.0765 102.326 78.338 117.475 81.4453L117.474 256.095C117.475 257.738 117.743 264.858 117.462 265.945L116.99 266.208L104.197 266.208C104.01 264.473 104.166 260.534 104.173 258.621L104.197 191.139C104.197 181.651 104.626 168.835 103.628 159.743C104.916 157.098 104.347 143.725 103.628 140.762C104.335 137.575 104.208 132.335 104.209 128.955L104.197 113.8Z"/><path fill="#8AC8EC" transform="scale(2 2)" d="M117.475 81.4453C127.828 84.7912 133.45 93.799 129.929 104.527C128.892 107.687 126.814 110.068 125.488 112.911C125.171 115.799 125.5 123.673 125.501 127.044L125.488 266.208L116.99 266.208L117.462 265.945C117.743 264.858 117.475 257.738 117.474 256.095L117.475 81.4453Z"/><defs><linearGradient id="gradient_0" gradientUnits="userSpaceOnUse" x1="406.34296" y1="353.81879" x2="377.71115" y2="360.02789"><stop offset="0" stop-color="#DDF4F7"/><stop offset="1" stop-color="#FFFBFF"/></linearGradient></defs><path fill="url(#gradient_0)" transform="scale(2 2)" d="M385.42 315.213L398.805 315.213L399.166 399.002L385.42 399.002L385.46 384.572C385.492 381.518 386.054 377.046 384.475 374.5C384.655 373.665 384.198 370.338 383.896 369.533C383.231 367.758 385.41 357.718 385.172 356.99L384.475 356.685C386.008 354.162 385.439 344.885 385.436 341.603L385.42 315.213Z"/><path fill="#8AC8EC" transform="scale(2 2)" d="M398.805 315.213L407.601 315.213L407.601 399.002L399.166 399.002L398.805 315.213Z"/><path fill="#FEC302" transform="scale(2 2)" d="M360.704 252.731C362.13 250.767 367.631 247.117 370.259 244.182C372.041 245.289 373.318 246.05 374.807 247.555L374.807 269.712C367.704 278.395 370.154 285.483 369.879 295.855C364.903 293.349 359.127 290.097 353.772 288.995C353.79 286.249 353.882 283.13 353.772 280.412C358.777 279.649 360.537 276.941 359.739 271.993C360.884 268.894 360.69 256.687 360.704 252.731Z"/><path fill="#FEC302" transform="scale(2 2)" d="M145.215 269.712C147.1 271.07 149.256 272.484 150.703 274.299C149.734 278.668 146.157 282.009 142.743 284.836L142.744 284.332C142.728 279.585 142.569 277.631 139.218 274.299C141.149 272.643 143.09 271.115 145.215 269.712Z"/><path fill="#BCDEF6" transform="scale(2 2)" d="M385.42 266.208L385.488 114.549C385.632 110.379 382.921 107.482 381.699 103.607C378.106 92.2193 387.411 78.9881 399.751 81.4453C410.285 82.9703 414.941 91.5374 413.741 101.478C413.01 107.532 408.508 109.025 407.535 114.538C407.426 118.275 407.634 123.586 407.63 127.473L407.601 266.208C404.142 266.179 400.554 266.104 397.108 266.208C393.224 266.166 389.3 266.089 385.42 266.208Z"/><path fill="#8AC8EC" transform="scale(2 2)" d="M399.751 81.4453C410.285 82.9703 414.941 91.5374 413.741 101.478C413.01 107.532 408.508 109.025 407.535 114.538C407.426 118.275 407.634 123.586 407.63 127.473L407.601 266.208C404.142 266.179 400.554 266.104 397.108 266.208C400.705 265.414 399.004 256.576 399.046 252.462L399.257 133.138C399.324 116.191 399.956 98.2934 399.751 81.4453Z"/><path fill="#BCDEF6" transform="scale(2 2)" d="M104.197 315.213C108.343 315.123 112.817 315.211 116.99 315.213L126.303 315.213L126.303 399.002C123.406 399.017 116.896 399.263 114.307 399.002L104.197 399.002L104.197 315.213Z"/><path fill="#8AC8EC" transform="scale(2 2)" d="M116.99 315.213L126.303 315.213L126.303 399.002C123.406 399.017 116.896 399.263 114.307 399.002C114.934 398.776 116.245 398.957 116.99 399.002L116.99 315.213Z"/><path fill="#8AC8EC" transform="scale(2 2)" d="M383.127 409.268C391.992 408.5 403.434 409.316 412.648 409.152C419.123 409.036 414.489 418.898 418.484 422.213C421.527 424.738 430.483 421.102 430.862 427.323C431.27 433.995 400.625 431.336 395.702 431.268L374.452 431.25C371.178 431.249 362.006 432.901 362.142 427.529C362.266 422.643 370.592 424.502 373.013 422.784C377.752 419.42 371.287 408.986 383.127 409.268Z"/><path fill="#1E9FDC" transform="scale(2 2)" d="M383.127 409.268C391.992 408.5 403.434 409.316 412.648 409.152C419.123 409.036 414.489 418.898 418.484 422.213C421.527 424.738 430.483 421.102 430.862 427.323C431.27 433.995 400.625 431.336 395.702 431.268C402.996 420.424 402.772 424.168 402.554 409.268C396.327 409.263 389.257 409.486 383.127 409.268Z"/><path fill="#8AC8EC" transform="scale(2 2)" d="M106.368 409.268C113.283 409.264 131.693 407.419 136.16 411.619C136.246 414.498 135.417 420.288 137.488 422.372C140.398 425.299 148.764 421.672 149.215 427.733C149.601 432.904 139.593 431.25 136.52 431.251L116.263 431.268L95.1005 431.283C91.5222 431.284 79.43 433.046 81.8605 425.953C82.3366 424.563 85.485 423.728 86.7579 423.332C102.516 427.979 89.1305 408.579 101.671 409.22C103.207 409.298 104.824 409.243 106.368 409.268Z"/><path fill="#1E9FDC" transform="scale(2 2)" d="M106.368 409.268C113.283 409.264 131.693 407.419 136.16 411.619C136.246 414.498 135.417 420.288 137.488 422.372C140.398 425.299 148.764 421.672 149.215 427.733C149.601 432.904 139.593 431.25 136.52 431.251L116.263 431.268C116.279 424.137 116.045 416.296 116.263 409.268C113.775 409.237 108.392 409.572 106.368 409.268Z"/><path fill="#FEC302" transform="scale(2 2)" d="M118.498 276.539C136.442 276.043 131.324 282.402 131.965 297.54C132.349 306.606 125.255 305.55 118.498 304.644C111.346 304.616 96.7292 308.241 97.3832 298.65C98.9035 275.694 91.7109 276.435 118.498 276.539Z"/><path fill="#FDB605" transform="scale(2 2)" d="M118.498 276.539C136.442 276.043 131.324 282.402 131.965 297.54C132.349 306.606 125.255 305.55 118.498 304.644C118.068 296.528 118.589 285.041 118.498 276.539Z"/><path fill="#FEC302" transform="scale(2 2)" d="M384.475 276.539C390.671 275.933 404.311 276.283 410.462 276.756C417.722 277.314 414.473 301.755 412.891 303.467C411.407 305.073 401.648 304.651 399.166 304.644C395.737 304.663 382.528 306.33 381.102 302.69C379.926 299.689 377.774 278.732 384.475 276.539Z"/><path fill="#FDB605" transform="scale(2 2)" d="M384.475 276.539C390.671 275.933 404.311 276.283 410.462 276.756C417.722 277.314 414.473 301.755 412.891 303.467C411.407 305.073 401.648 304.651 399.166 304.644C398.298 297.609 399.003 283.979 399.166 276.539C396.117 276.513 386.875 276.855 384.475 276.539Z"/><path fill="#FEC302" transform="scale(2 2)" d="M360.704 133.29C366.313 130.219 369.547 128.162 374.807 124.579L374.807 175.47L370.259 179.279C367.348 176.784 364.279 173.926 360.704 172.527C360.59 165.175 360.902 157.597 360.704 150.267C364.119 146.714 364.851 144.113 360.704 140.762C360.425 137.49 360.404 136.633 360.704 133.29Z"/><path fill="#FEC302" transform="scale(2 2)" d="M136.16 225.372C137.575 224.294 138.738 223.47 140.223 222.49C143.89 224.953 147.273 227.371 150.703 230.165L150.703 251.96C146.157 256.051 140.901 258.548 136.16 262.39C136.157 250.151 136.32 237.576 136.16 225.372Z"/><path fill="#FEC302" transform="scale(2 2)" d="M360.704 200.748C361.926 199.23 368.5 194.087 370.259 192.831C371.551 193.792 373.505 195.338 374.807 196.164L374.789 217.191C374.787 219.829 374.621 224.862 374.807 227.331C373.402 228.33 372.438 229.029 371.149 230.165C368.238 228.082 363.342 224.774 360.704 222.49C360.934 215.79 360.664 207.581 360.704 200.748Z"/><path fill="#FEC302" transform="scale(2 2)" d="M139.218 172.527C142.991 175.429 147 178.131 150.703 181.051C150.439 184.537 150.277 197.36 150.703 200.748C147.026 203.051 142.679 206.764 139.218 209.534L136.16 207.808C135.774 197.828 136.152 184.51 136.16 174.263C137.128 173.619 138.191 173.08 139.218 172.527Z"/><path fill="#FEC302" transform="scale(2 2)" d="M136.16 123.485C141.423 128.09 145.211 129.583 150.703 133.29L150.703 150.267C147.823 153.069 141.789 157.813 138.541 160.326L136.16 159.743C135.205 152.446 135.865 131.12 136.16 123.485Z"/><path transform="scale(2 2)" d="M295.876 283.671L309.38 283.624C329.073 283.542 322.139 294.089 316.639 294.312C312.778 294.468 309.256 294.432 305.529 294.431L215.312 294.421C206.202 294.432 191.481 298.152 188.583 288.995C190.517 281.492 198.391 283.647 205.064 283.657L295.876 283.671Z"/></svg>