<?xml version="1.0" encoding="utf-8" ?><svg xmlns="http://www.w3.org/2000/svg" xmlns:xlink="http://www.w3.org/1999/xlink" width="1024" height="1024" viewBox="0 0 1024 1024"><path fill="#BCDEF6" transform="scale(2 2)" d="M106.256 270.259C106.452 266.666 108.464 263.753 110.377 260.796C134.465 223.572 176.422 209.404 218.441 219.96C222.095 221.236 225.716 222.478 229.314 223.911C247.518 231.977 259.78 242.225 271.166 258.474C283.281 254.459 297.587 252.015 309.805 256.989C320.323 258.264 334.37 268.84 340.53 277.253C350.855 291.352 352.794 301.154 352.273 317.779C356.977 317.357 359.358 319.619 363.176 319.807C367.314 322.029 371.784 324.223 375.554 326.991C420.72 360.147 399.659 433.709 346.109 436.038C336.856 436.338 327.43 436.166 318.153 436.152L233.104 436.171C223.816 436.18 207.693 439.834 206.473 428.261C200.973 428.308 194.282 428.589 188.919 428.461C188.966 432.709 185.581 436.201 181.333 436.287C177.086 436.373 173.562 433.021 173.437 428.774L173.171 428.433C170.937 428.38 159.268 427.975 157.839 428.261C157.605 432.476 154.479 436.329 150.046 436.247C138.863 436.042 127.656 436.323 116.48 436.039C52.4933 434.413 32.4678 347.618 95.7879 317.779C95.5597 310.363 93.8246 292.092 106.256 295.155L106.351 294.382C106.736 291.055 109.278 281.069 110.764 278.201C106.943 276.126 106.483 274.236 106.256 270.259Z"/><path transform="scale(2 2)" d="M106.256 270.259C106.452 266.666 108.464 263.753 110.377 260.796C134.465 223.572 176.422 209.404 218.441 219.96C222.095 221.236 225.716 222.478 229.314 223.911C247.518 231.977 259.78 242.225 271.166 258.474C283.281 254.459 297.587 252.015 309.805 256.989C320.323 258.264 334.37 268.84 340.53 277.253C350.855 291.352 352.794 301.154 352.273 317.779C356.977 317.357 359.358 319.619 363.176 319.807C367.314 322.029 371.784 324.223 375.554 326.991C420.72 360.147 399.659 433.709 346.109 436.038C336.856 436.338 327.43 436.166 318.153 436.152L233.104 436.171C223.816 436.18 207.693 439.834 206.473 428.261C208.615 416.312 225.379 420.507 235.571 420.517L333.936 420.519C339.492 420.519 345.948 420.855 351.311 419.683C372.57 415.038 383.835 396.542 383.933 375.912C384.622 352.951 367.085 332.066 343.243 332.479C331.97 332.674 335.122 324.789 336.356 318.831C341.71 283.477 304.395 259.362 273.341 274.889C262.738 280.19 261.599 271.875 256.978 265.273C224.137 218.379 154.27 221.973 123.495 268.857C119.126 275.513 119.811 279.044 110.764 278.201C106.943 276.126 106.483 274.236 106.256 270.259Z"/><path fill="#8DBFEE" transform="scale(2 2)" d="M95.7879 317.779C95.5597 310.363 93.8246 292.092 106.256 295.155C113.994 298.141 110.616 305.083 110.626 311.267C110.415 318.025 115.461 328.612 107.13 330.639C89.4386 334.945 73.2394 352.545 73.2349 371.106C81.2208 386.835 85.5196 397.074 104.952 403.348C116.185 406.974 127.168 406.027 138.867 406.028L325.597 406.017C332.101 406.021 338.697 406.166 345.157 406.311C358.144 406.603 373.059 394.212 379.525 383.999C380.984 381.694 382.33 377.914 383.933 375.912C383.835 396.542 372.57 415.038 351.311 419.683C345.948 420.855 339.492 420.519 333.936 420.519L235.571 420.517C225.379 420.507 208.615 416.312 206.473 428.261C200.973 428.308 194.282 428.589 188.919 428.461C188.966 432.709 185.581 436.201 181.333 436.287C177.086 436.373 173.562 433.021 173.437 428.774L173.171 428.433C170.937 428.38 159.268 427.975 157.839 428.261C157.605 432.476 154.479 436.329 150.046 436.247C138.863 436.042 127.656 436.323 116.48 436.039C52.4933 434.413 32.4678 347.618 95.7879 317.779Z"/><path transform="scale(2 2)" d="M95.7879 317.779C95.5597 310.363 93.8246 292.092 106.256 295.155C113.994 298.141 110.616 305.083 110.626 311.267C110.415 318.025 115.461 328.612 107.13 330.639C89.4386 334.945 73.2394 352.545 73.2349 371.106C69.6534 393.996 88.5162 416.899 111.445 419.938C120.89 421.189 131.131 420.207 140.681 420.517C147.795 420.749 156.399 418.608 157.839 428.261C157.605 432.476 154.479 436.329 150.046 436.247C138.863 436.042 127.656 436.323 116.48 436.039C52.4933 434.413 32.4678 347.618 95.7879 317.779Z"/><path transform="scale(2 2)" d="M173.437 428.774C173.311 424.472 176.717 420.892 181.02 420.805C185.323 420.718 188.871 424.157 188.919 428.461C188.966 432.709 185.581 436.201 181.333 436.287C177.086 436.373 173.562 433.021 173.437 428.774Z"/><path transform="scale(2 2)" d="M233.749 357.802L297.006 357.794C328.052 357.94 328.199 401.596 300.365 402.836C294.316 403.105 261.203 403.977 256.663 401.57C251.234 397 252.879 388.653 260.287 387.913C263.245 387.617 266.596 387.787 269.604 387.793L287.295 387.85C292.393 387.878 301.175 389.131 304.385 384.581C306.852 381.087 305.086 375.034 300.869 374.041C296.282 372.961 290.247 373.48 285.382 373.481L246.047 373.493C239.789 373.494 232.816 373.713 226.6 373.244C220.837 372.81 212.337 358.297 233.749 357.802Z"/><path fill="white" transform="scale(2 2)" d="M174.407 242.089C181.312 241.345 188.181 251.321 171.969 256.951C146.136 265.907 143.155 286.478 136.851 287.978C135.353 288.068 134.097 288.023 132.599 287.978C123.654 282.823 132.152 271.192 136.411 265.626C144.175 255.482 161.133 243.727 174.407 242.089Z"/><path fill="#FEC302" transform="scale(2 2)" d="M219.802 201.435C208.091 197.789 218.452 168.393 221.265 160.334C239.88 107.027 291.503 71.8214 347.393 71.7206C352.505 71.7114 357.437 71.5706 362.343 73.2833C372.872 76.9595 377.902 89.0933 374.146 99.3564C371.37 106.942 365.977 108.99 359.804 113.146C329.579 133.499 321.042 178.046 335.635 210.165C351.114 244.234 389.279 264.179 425.827 254.569C433.94 252.436 439.72 249.951 447.136 255.724C459.695 265.502 453.392 278.325 444.778 288.581C438.226 296.381 400.567 330.954 391.201 315.422C382.571 319.65 372.203 318.659 363.176 319.807C359.358 319.619 356.977 317.357 352.273 317.779C352.794 301.154 350.855 291.352 340.53 277.253C334.37 268.84 320.323 258.264 309.805 256.989C297.587 252.015 283.281 254.459 271.166 258.474C259.78 242.225 247.518 231.977 229.314 223.911C225.716 222.478 222.095 221.236 218.441 219.96C218.522 215.205 219.264 206.257 219.802 201.435Z"/><path transform="scale(2 2)" d="M219.802 201.435C208.091 197.789 218.452 168.393 221.265 160.334C239.88 107.027 291.503 71.8214 347.393 71.7206C352.505 71.7114 357.437 71.5706 362.343 73.2833C372.872 76.9595 377.902 89.0933 374.146 99.3564C371.37 106.942 365.977 108.99 359.804 113.146C329.579 133.499 321.042 178.046 335.635 210.165C351.114 244.234 389.279 264.179 425.827 254.569C433.94 252.436 439.72 249.951 447.136 255.724C459.695 265.502 453.392 278.325 444.778 288.581C438.226 296.381 400.567 330.954 391.201 315.422C388.131 306.405 394.131 305.083 400.766 302.421C413.787 297.197 425.561 287.583 434.4 276.764C435.542 275.366 442.583 265.228 436.263 267.428C358.254 294.584 287.763 211.581 322.172 136.045C329.337 120.316 341.203 105.7 356.349 97.1236C362.119 93.8565 361.363 87.6476 354.555 86.9538C293.94 82.9109 234.942 129.983 230.249 191.477C229.729 198.262 227.383 202.516 219.802 201.435Z"/><path fill="#FAB401" transform="scale(2 2)" d="M229.314 223.911C249.062 208.185 283.55 215.485 298.9 235.184C302.096 239.286 309.894 251.711 309.805 256.989C297.587 252.015 283.281 254.459 271.166 258.474C259.78 242.225 247.518 231.977 229.314 223.911Z"/><path fill="white" transform="scale(2 2)" d="M285.094 116.746C291.828 115.786 294.197 120.902 293.938 126.712C292.105 130.102 286.044 133.556 283.179 136.71C279.524 140.288 271.422 150.993 267.601 152.258C261.899 152.46 256.74 149.615 258.65 142.409C260.04 137.166 280.24 118.497 285.094 116.746Z"/><path fill="white" transform="scale(2 2)" d="M250.85 162.548C263.735 161.645 258.553 175.413 257.043 181.929C255.865 187.011 254.352 189.599 249.302 191.228C235.784 192.276 242.743 177.024 243.832 171.456C244.735 166.837 246.343 164.184 250.85 162.548Z"/><path transform="scale(2 2)" d="M419.198 77.2756C428.6 76.9695 426.902 81.5445 429.958 88.4978C437.626 105.793 450.353 97.9825 453.55 106.348C457.697 117.199 443.514 116.207 440.26 117.377C422.859 123.53 433.166 139.206 422.013 142.586C405.794 144.182 419.286 122.053 398.138 116.937C392.282 115.756 383.618 113.614 388.027 104.864C391.28 98.409 405.115 104.215 411.568 87.6185C413.579 82.3648 413.023 79.2276 419.198 77.2756Z"/><path fill="#FAB401" transform="scale(2 2)" d="M420.79 105.027C422.398 106.597 423.344 107.622 424.772 109.357C423.392 110.845 422.289 111.914 420.79 113.291C418.912 111.849 417.864 111.006 416.188 109.357C417.754 107.922 419.26 106.5 420.79 105.027Z"/><path transform="scale(2 2)" d="M401.615 182.282C417.177 180.666 405.925 200.254 424.403 205.524C429.833 207.143 439.643 209.412 434.045 218.363C429.808 225.139 416.255 220.148 411.906 235.756C410.36 241.298 411.346 245.368 404.427 247.015C393.953 246.864 397.177 239.603 393.98 233.25C387.59 219.595 373.737 224.347 371.063 217.466C369.383 213.143 371.295 208.022 376.074 206.911C384.895 204.86 392.075 204.262 395.002 193.124C396.318 188.159 396.043 184.311 401.615 182.282Z"/><path fill="#FEC302" transform="scale(2 2)" d="M402.533 211.369C404.381 210.849 406.299 211.931 406.809 213.782C407.319 215.633 406.225 217.545 404.372 218.044C402.533 218.539 400.639 217.457 400.134 215.621C399.628 213.785 400.7 211.885 402.533 211.369Z"/></svg>