<?xml version="1.0" encoding="utf-8" ?><svg xmlns="http://www.w3.org/2000/svg" xmlns:xlink="http://www.w3.org/1999/xlink" width="512" height="512" viewBox="0 0 512 512"><path fill="#BCDEF6" d="M318.144 94.9564C286.277 74.1465 249.264 66.6169 212.641 78.0826C209.975 78.9171 207.988 79.6422 205.387 80.0116C199.863 80.7962 196.049 71.3345 199.459 68.5515C206.674 62.6622 220.634 61.1839 229.769 59.6399C288.005 52.6591 334.011 77.5855 365.044 125.08C375.356 131.311 388.488 163.334 391.654 174.554C396.455 191.565 396.29 206.653 396.291 224.054L396.287 298.133C396.297 330.913 394.469 358.28 376.588 387.376C342.158 443.406 280.591 465.373 217.927 451.964C208.82 450.015 199.353 449.526 199.946 437.961C189.197 437.553 175.599 440.879 174.962 425.437C171.386 422.789 169.352 422.226 165.475 418.746C123.944 421.358 118.611 344.28 169.626 344.214C185.027 344.195 191.563 351.733 204.238 357.953C235.007 373.053 278.963 361.127 293.672 329.057C289.567 329.983 285.576 331.133 281.403 332.005C246.323 339.329 197.508 328.342 173.775 299.784C138.136 273.164 115.894 237.167 116.071 191.22C116.194 159.176 126.527 126.849 148.939 103.281C154.324 97.6182 167.986 102.832 156.884 115.48C119.788 157.741 122.167 225.525 159.435 267.442C159.541 266.052 156.743 259.984 156.066 258.443C108.586 150.4 195.671 55.8967 308.422 91.3754C311.259 92.2679 315.325 94.9325 318.144 94.9564ZM197.746 380.481C202.306 384.149 217.746 388.714 223.678 389.899C274.799 400.455 318.802 370.988 329.222 320.102C322.536 316.799 322.879 309.799 313.101 314.651C312.121 319.919 311.04 325.036 309.236 330.096C294.075 372.613 236.852 391.315 197.746 370.615C197.858 373.638 197.972 377.486 197.746 380.481ZM192.431 377.274C191.143 370.719 188.155 366.513 182.831 362.698C157.271 344.382 129.64 387.327 160.203 403.699C159.348 400.762 158.311 397.824 158.02 394.643C156.671 379.895 171.033 368.419 184.963 373.83C186.312 374.354 191.538 377.336 192.431 377.274ZM289.936 207.8C280.525 193.909 300.764 185.911 306.128 196.64C308.974 202.334 306.507 204.914 303.977 209.618C302.997 212.592 302.535 215.842 301.405 218.758C291.103 245.328 275.09 253.005 248.244 252.354C240.558 252.168 233.404 252.711 225.68 251.645C228.468 255.553 237.496 259.58 242.009 260.925C279.881 272.21 320.019 251.234 318.144 208.636C317.214 192.187 322.611 160.374 299.876 153.834C302.407 159.805 310.529 180.995 296.947 180.292C287.002 179.776 291.711 161.778 282.435 153.834C280.547 153.524 278.956 152.717 277 152.54C254.63 150.516 221.666 148.22 216.396 177.227C214.808 185.968 215.156 215.339 216.822 223.547C217.657 227.663 219.862 230.646 221.223 234.186C227.672 238.938 252.911 238.527 261.98 237.667C277.364 236.207 286.122 220.972 289.936 207.8Z"/><path fill="#FEC302" d="M173.775 299.784C138.136 273.164 115.894 237.167 116.071 191.22C116.194 159.176 126.527 126.849 148.939 103.281C154.324 97.6182 167.986 102.832 156.884 115.48C119.788 157.741 122.167 225.525 159.435 267.442C162.739 271.81 166.831 275.416 170.925 278.971C201.73 305.729 243.906 314.169 282.313 300.016C291.172 296.751 302.249 288.938 310.527 300.316C313.841 304.87 313.248 309.449 313.101 314.651C312.121 319.919 311.04 325.036 309.236 330.096C294.075 372.613 236.852 391.315 197.746 370.615C197.858 373.638 197.972 377.486 197.746 380.481C202.306 384.149 217.746 388.714 223.678 389.899C274.799 400.455 318.802 370.988 329.222 320.102L329.304 319.685C332.993 301.503 355.825 297.758 365.268 310.289C366.246 311.587 367.061 313.256 367.959 314.651C368.708 309.038 368.628 300.987 368.628 295.292L368.621 271.421C368.618 263.591 366.328 253.633 375.741 251.645C375.721 247.303 375.697 242.971 375.741 238.629C387.603 237.016 382.834 217.102 383.24 207.065C384.476 176.488 380.308 152.083 365.044 125.08C375.356 131.311 388.488 163.334 391.654 174.554C396.455 191.565 396.29 206.653 396.291 224.054L396.287 298.133C396.297 330.913 394.469 358.28 376.588 387.376C342.158 443.406 280.591 465.373 217.927 451.964C208.82 450.015 199.353 449.526 199.946 437.961C189.197 437.553 175.599 440.879 174.962 425.437C171.386 422.789 169.352 422.226 165.475 418.746C123.944 421.358 118.611 344.28 169.626 344.214C185.027 344.195 191.563 351.733 204.238 357.953C235.007 373.053 278.963 361.127 293.672 329.057C289.567 329.983 285.576 331.133 281.403 332.005C246.323 339.329 197.508 328.342 173.775 299.784ZM192.431 377.274C191.143 370.719 188.155 366.513 182.831 362.698C157.271 344.382 129.64 387.327 160.203 403.699C159.348 400.762 158.311 397.824 158.02 394.643C156.671 379.895 171.033 368.419 184.963 373.83C186.312 374.354 191.538 377.336 192.431 377.274Z"/><path d="M173.775 299.784C138.136 273.164 115.894 237.167 116.071 191.22C116.194 159.176 126.527 126.849 148.939 103.281C154.324 97.6182 167.986 102.832 156.884 115.48C119.788 157.741 122.167 225.525 159.435 267.442C162.739 271.81 166.831 275.416 170.925 278.971C201.73 305.729 243.906 314.169 282.313 300.016C291.172 296.751 302.249 288.938 310.527 300.316C313.841 304.87 313.248 309.449 313.101 314.651C312.121 319.919 311.04 325.036 309.236 330.096C294.075 372.613 236.852 391.315 197.746 370.615C197.858 373.638 197.972 377.486 197.746 380.481C196.348 379.822 193.017 378.494 192.431 377.274C191.143 370.719 188.155 366.513 182.831 362.698C157.271 344.382 129.64 387.327 160.203 403.699C165.753 406.518 165.38 400.983 175.636 408.398C198.435 424.882 234.174 430.68 261.895 426.632C278.818 424.16 276.469 438.037 269.248 440.082C245.265 446.877 201.867 439.424 180.681 428.346C178.936 427.433 176.752 426.197 174.962 425.437C171.386 422.789 169.352 422.226 165.475 418.746C123.944 421.358 118.611 344.28 169.626 344.214C185.027 344.195 191.563 351.733 204.238 357.953C235.007 373.053 278.963 361.127 293.672 329.057C289.567 329.983 285.576 331.133 281.403 332.005C246.323 339.329 197.508 328.342 173.775 299.784Z"/><path fill="#FEC302" d="M173.775 299.784C175.213 300.248 176.973 301.398 178.252 302.216C216.456 326.643 258.181 325.825 298.781 309.059C298.539 315.44 296.847 323.462 293.672 329.057C289.567 329.983 285.576 331.133 281.403 332.005C246.323 339.329 197.508 328.342 173.775 299.784Z"/><path d="M375.741 251.645C379.468 252.46 383.139 254.417 383.23 258.86C384.096 301.341 385.081 345.474 360.498 382.197C348.107 400.709 338.519 385.189 346.09 377.283C358.339 364.49 366.598 331.577 367.959 314.651C368.708 309.038 368.628 300.987 368.628 295.292L368.621 271.421C368.618 263.591 366.328 253.633 375.741 251.645Z"/><path d="M329.222 397.298C336.166 396.846 340.01 405.361 335.615 409.527C325.552 419.066 310.422 428.398 297.096 432.313C287.031 433.588 284.762 421.186 292.716 418.184C303.354 414.229 313.577 409.249 322.099 401.61C324.449 399.503 326.174 398.188 329.222 397.298Z"/><path d="M318.144 94.9564C286.277 74.1465 249.264 66.6169 212.641 78.0826C209.975 78.9171 207.988 79.6422 205.387 80.0116C199.863 80.7962 196.049 71.3345 199.459 68.5515C206.674 62.6622 220.634 61.1839 229.769 59.6399C288.005 52.6591 334.011 77.5855 365.044 125.08C380.308 152.083 384.476 176.488 383.24 207.065C382.834 217.102 387.603 237.016 375.741 238.629C372.885 238.204 369.041 235.891 368.869 232.714C367.979 216.177 369.42 199.183 368.157 182.681C365.089 142.612 346.621 119.486 318.144 94.9564Z"/><path d="M225.68 251.645C224.679 251.172 222.641 250.652 221.45 250.243C207.195 245.643 191.658 229.478 189.645 214.26C187.906 201.112 188.996 184.354 189.004 170.944C189.013 154.878 200.423 138.777 214.066 131.117C224.997 124.979 235.168 124.78 247.279 125.062C272.696 123.952 287.919 132.1 299.876 153.834C302.407 159.805 310.529 180.995 296.947 180.292C287.002 179.776 291.711 161.778 282.435 153.834C280.547 153.524 278.956 152.717 277 152.54C254.63 150.516 221.666 148.22 216.396 177.227C214.808 185.968 215.156 215.339 216.822 223.547C217.657 227.663 219.862 230.646 221.223 234.186C227.672 238.938 252.911 238.527 261.98 237.667C277.364 236.207 286.122 220.972 289.936 207.8C280.525 193.909 300.764 185.911 306.128 196.64C308.974 202.334 306.507 204.914 303.977 209.618C302.997 212.592 302.535 215.842 301.405 218.758C291.103 245.328 275.09 253.005 248.244 252.354C240.558 252.168 233.404 252.711 225.68 251.645Z"/><path fill="#FEC302" d="M221.223 234.186C213.862 231.327 205.109 219.659 204 211.815C202.725 204.111 203.466 196.022 203.258 188.298C202.788 170.756 202.196 156.181 218.652 145.308C234.499 134.836 270.988 135.932 282.435 153.834C280.547 153.524 278.956 152.717 277 152.54C254.63 150.516 221.666 148.22 216.396 177.227C214.808 185.968 215.156 215.339 216.822 223.547C217.657 227.663 219.862 230.646 221.223 234.186Z"/><path d="M211.513 101.308C219.485 100.48 223.283 109.022 217.107 113.866C215.134 115.075 212.496 116.049 210.396 116.924C173.487 132.288 176.923 165.759 166.711 169.407C142.728 171.818 172.966 111.321 211.513 101.308Z"/><path d="M176.44 79.7751C185.849 79.372 188.509 90.1603 178.046 94.1701C169.349 95.1087 165.392 83.2885 176.44 79.7751Z"/></svg>