<?xml version="1.0" encoding="utf-8" ?><svg xmlns="http://www.w3.org/2000/svg" xmlns:xlink="http://www.w3.org/1999/xlink" width="1024" height="1024" viewBox="0 0 1024 1024"><path fill="#FEC302" transform="scale(2 2)" d="M311.779 126.223C309.92 125.413 308.03 124.669 307.291 122.587C306.749 121.058 306.609 97.225 306.935 94.6616C307.993 86.3214 316.277 79.8112 324.677 81.4791C329.455 82.4277 344.998 92.2268 350.05 95.1539L381.89 113.533C386.923 116.428 399.197 121.596 400.063 128.269C400.931 134.948 403.557 157.428 396.833 160.968C396.443 168.349 397.629 178.146 396.671 185.168C393.878 205.633 363.117 201.277 365.433 180.6C363.494 171.998 364.458 159.893 364.276 150.7C356.377 145.032 339.713 136.005 330.872 131.497L330.853 131.776C330.674 134.722 330.844 139.025 330.859 142.092L330.864 217.17C330.867 237.547 333.954 255.403 316.694 270.62C301.921 283.643 278.89 286.8 264.221 271.881C249.879 266.19 239.613 249.712 240.065 234.571C241.093 200.101 282.137 182.222 306.947 207.875L306.937 167.252C306.937 159.824 303.789 142.113 311.779 140.833C311.593 136.285 311.834 130.896 311.779 126.223ZM389.757 140.833C389.78 137.46 389.805 134.113 389.757 130.74C387.647 128.64 373.707 121.233 370.416 119.338L337.949 100.674C330.081 96.1679 317.586 84.0497 317.662 99.8771C319.11 99.4176 320.529 98.9421 322.005 98.5817C327.164 100.352 333.529 105.072 338.56 107.927L368.511 125.058C376.613 129.727 384.439 132.816 389.757 140.833ZM301.155 216.656C294.058 208.406 282.89 204.906 272.354 207.628C261.817 210.351 253.744 218.824 251.532 229.48C249.321 240.135 253.357 251.121 261.94 257.812C261.359 256.344 259.96 254.272 259.179 252.735C246.107 227.306 274.698 201.78 300.864 216.655C300.961 216.656 301.058 216.656 301.155 216.656Z"/><path transform="scale(2 2)" d="M311.779 140.833C321.472 140.036 317.655 163.473 317.652 171.074L317.607 222.567C317.619 229.96 319.756 234.393 318.195 242.503C313.874 264.951 292.308 279.031 270.056 273.413C268.474 273.013 265.697 272.002 264.221 271.881C249.879 266.19 239.613 249.712 240.065 234.571C241.093 200.101 282.137 182.222 306.947 207.875L306.937 167.252C306.937 159.824 303.789 142.113 311.779 140.833ZM301.155 216.656C294.058 208.406 282.89 204.906 272.354 207.628C261.817 210.351 253.744 218.824 251.532 229.48C249.321 240.135 253.357 251.121 261.94 257.812C261.359 256.344 259.96 254.272 259.179 252.735C246.107 227.306 274.698 201.78 300.864 216.655C300.961 216.656 301.058 216.656 301.155 216.656Z"/><path fill="#FEEB13" transform="scale(2 2)" d="M261.94 257.812C261.359 256.344 259.96 254.272 259.179 252.735C246.107 227.306 274.698 201.78 300.864 216.655C300.961 216.656 301.058 216.656 301.155 216.656C310.728 227.786 310.306 244.36 300.179 254.988C290.052 265.616 273.518 266.837 261.94 257.812Z"/><path transform="scale(2 2)" d="M311.779 126.223C309.92 125.413 308.03 124.669 307.291 122.587C306.749 121.058 306.609 97.225 306.935 94.6616C307.993 86.3214 316.277 79.8112 324.677 81.4791C329.455 82.4277 344.998 92.2268 350.05 95.1539L381.89 113.533C386.923 116.428 399.197 121.596 400.063 128.269C400.931 134.948 403.557 157.428 396.833 160.968C386.591 161.528 389.992 148.405 389.757 140.833C389.78 137.46 389.805 134.113 389.757 130.74C387.647 128.64 373.707 121.233 370.416 119.338L337.949 100.674C330.081 96.1679 317.586 84.0497 317.662 99.8771C317.684 108.422 320.973 124.255 311.779 126.223Z"/><path transform="scale(2 2)" d="M330.872 131.497C327.043 128.987 325.307 126.882 328.197 122.518C331.59 117.395 340.448 124.124 344.099 126.27L358.618 134.808C375.189 144.359 377.012 141.025 375.966 162.748C375.748 167.27 377.264 191.309 365.433 180.6C363.494 171.998 364.458 159.893 364.276 150.7C356.377 145.032 339.713 136.005 330.872 131.497Z"/><path fill="#7CC9F4" transform="scale(2 2)" d="M180.338 104.367C173.106 102.792 175.638 94.2448 175.275 88.5023C173.372 58.3264 202.045 59.7144 207.805 76.2185C209.126 79.9559 208.86 83.0462 208.89 86.9103C213.49 90.2638 230.199 95.6975 219.787 103.017C224.155 105.787 232.93 110.017 236.272 112.656C236.154 105.336 241.59 104.575 246.864 108.714C261.556 120.245 264.866 151.349 250.773 143.541C248.888 149.249 255.299 166.815 244.653 167.878C239.895 168.353 237.933 166.996 236.272 162.772C233.73 165.429 230.44 165.707 227.763 163.188C225.6 161.152 226.196 154.177 226.199 151.257L226.221 135.542C218.52 130.877 205.635 122.51 197.322 119.358L197.329 200.576C197.337 206.478 197.729 212.283 196.348 218.136C191.162 240.102 168.754 255.581 147.324 243.72C146.608 243.324 145.086 242.424 144.517 241.883C142.908 240.847 140.722 239.254 140.208 237.383C88.2597 211.699 139.874 145.41 176.025 180.6C176.27 176.831 176.038 170.246 176.037 166.201L176.024 136.979C176.021 132.287 175.85 126.804 176.025 122.214C177.693 120.571 178.782 119.91 181.015 119.358C181.001 119.396 181.216 105.167 181.107 104.55L180.338 104.367ZM164.802 185.666C156.512 180.585 145.928 181.24 138.327 187.303C130.726 193.366 127.736 203.54 130.847 212.752C133.958 221.964 142.505 228.241 152.226 228.454C151.563 227.513 149.972 226.678 148.941 226.148C136.342 219.671 132.431 203.332 143.207 193.276C150.541 186.433 158.113 188.233 164.802 185.666Z"/><path transform="scale(2 2)" d="M181.015 119.358C189.982 121.13 186.768 134.683 186.765 142.952L186.748 197.276C186.756 200.094 186.66 203.231 186.77 206.015C187.666 228.849 168.452 239.781 148.002 239.233C146.581 240.592 143.081 239.324 144.517 241.883C142.908 240.847 140.722 239.254 140.208 237.383C88.2597 211.699 139.874 145.41 176.025 180.6C176.27 176.831 176.038 170.246 176.037 166.201L176.024 136.979C176.021 132.287 175.85 126.804 176.025 122.214C177.693 120.571 178.782 119.91 181.015 119.358ZM164.802 185.666C156.512 180.585 145.928 181.24 138.327 187.303C130.726 193.366 127.736 203.54 130.847 212.752C133.958 221.964 142.505 228.241 152.226 228.454C151.563 227.513 149.972 226.678 148.941 226.148C136.342 219.671 132.431 203.332 143.207 193.276C150.541 186.433 158.113 188.233 164.802 185.666Z"/><path fill="#7FD5FF" transform="scale(2 2)" d="M140.208 237.383C142.903 238.092 145.258 238.715 148.002 239.233C146.581 240.592 143.081 239.324 144.517 241.883C142.908 240.847 140.722 239.254 140.208 237.383Z"/><path fill="#BCDEF6" transform="scale(2 2)" d="M164.802 185.666C173.7 191.12 177.836 201.862 174.893 211.875C171.95 221.887 162.659 228.683 152.226 228.454C151.563 227.513 149.972 226.678 148.941 226.148C136.342 219.671 132.431 203.332 143.207 193.276C150.541 186.433 158.113 188.233 164.802 185.666Z"/><path transform="scale(2 2)" d="M180.338 104.367C173.106 102.792 175.638 94.2448 175.275 88.5023C173.372 58.3264 202.045 59.7144 207.805 76.2185C209.126 79.9559 208.86 83.0462 208.89 86.9103C213.49 90.2638 230.199 95.6975 219.787 103.017C213.153 104.084 197.328 94.0325 198.048 87.6192C198.642 82.3299 195.966 69.9056 187.356 77.9086C183.553 81.4428 192.2 103.195 180.338 104.367Z"/><path transform="scale(2 2)" d="M197.322 119.358C194.76 114.953 195.501 107.197 201.938 109.339C205.824 110.632 235.268 127.447 236.211 129.424C237.418 131.955 237.263 159.576 236.272 162.772C233.73 165.429 230.44 165.707 227.763 163.188C225.6 161.152 226.196 154.177 226.199 151.257L226.221 135.542C218.52 130.877 205.635 122.51 197.322 119.358Z"/><path transform="scale(2 2)" d="M236.272 112.656C236.154 105.336 241.59 104.575 246.864 108.714C261.556 120.245 264.866 151.349 250.773 143.541C248.555 140.487 248.67 139.454 248.74 135.569C249.011 120.37 239.145 119.75 236.272 112.656Z"/><path transform="scale(2 2)" d="M208.89 282.614C219.793 282.311 244.117 297.601 255.057 302.579C280.968 313.682 281.497 321.184 281.544 346.954L281.506 380.106C281.491 384.755 282.634 392.215 282.33 395.743C280.985 411.363 264.944 422.374 249.974 416.63C221.857 405.842 234.14 358.056 270.629 373.152L270.639 350.706C270.639 335.053 273.903 323.177 257.581 315.972C246.336 310.659 235.053 305.216 223.995 299.535C219.67 297.509 212.376 292.719 208.005 293.676C199.548 294.631 202.514 313.594 202.509 320.095L202.517 406.097C202.531 410.065 202.78 414.379 202.323 418.264C198.598 448.166 154.479 451.02 147.256 420.62C141.195 395.108 167.58 377.046 191.5 392.367L191.459 309.256C191.338 295.713 192.268 284.233 208.89 282.614ZM184.518 400.44C179.334 396.662 172.48 396.079 166.733 398.927C160.986 401.776 157.298 407.582 157.165 413.995C157.031 420.408 160.473 426.363 166.096 429.448C158.995 417.394 164.129 401.886 178.139 400.655C179.922 400.498 183.047 401.09 184.518 400.44ZM268.298 385.673C255.446 369.239 233.44 395.047 251.676 405.373C251.623 404.906 250.886 402.808 250.668 402.263C248.002 395.586 253.081 388.112 259.496 386.02C262.178 385.145 265.409 385.663 268.298 385.673Z"/><path fill="#FEC302" transform="scale(2 2)" d="M184.518 400.44C191.857 405.788 193.78 415.917 188.912 423.584C184.043 431.25 174.058 433.816 166.096 429.448C158.995 417.394 164.129 401.886 178.139 400.655C179.922 400.498 183.047 401.09 184.518 400.44Z"/><path fill="#FEC302" transform="scale(2 2)" d="M268.298 385.673C278.935 397.648 260.968 413.362 251.676 405.373C251.623 404.906 250.886 402.808 250.668 402.263C248.002 395.586 253.081 388.112 259.496 386.02C262.178 385.145 265.409 385.663 268.298 385.673Z"/><path transform="scale(2 2)" d="M353.359 344.594L353.343 267.095C353.329 263.655 353.167 259.711 353.535 256.345C355.198 241.149 382.302 236.708 385.547 259.733C391.312 262.051 401.561 266.244 396.005 273.433C390.704 277.156 385.83 271.499 381.056 268.996L380.704 268.814C379.833 270.401 380.139 278.321 380.061 280.622C373.127 278.905 369.665 286.541 375.951 291.133L375.953 360.745C375.95 365.931 376.177 371.525 374.969 376.585C369.076 401.268 336.482 402.25 331.686 388.866C300.664 375.45 320.027 327.336 353.359 344.594ZM351.278 356.71C347.875 352.645 342.467 350.85 337.308 352.075C332.15 353.3 328.125 357.333 326.913 362.495C325.7 367.656 327.507 373.06 331.581 376.454C331.836 375.648 331.71 373.194 331.648 372.315C330.62 357.532 340.893 357.139 350.812 356.734L351.278 356.71Z"/><path fill="#7CC9F4" transform="scale(2 2)" d="M331.686 388.866C344.7 392.696 358.073 388.842 363.133 374.903C365.111 369.454 364.282 353.156 364.276 346.677L364.278 268.118C364.276 265.404 364.12 262.674 364.272 259.965C364.653 253.159 375.342 250.236 374.516 264.427C375.908 266.04 378.787 267.572 380.704 268.814C379.833 270.401 380.139 278.321 380.061 280.622C373.127 278.905 369.665 286.541 375.951 291.133L375.953 360.745C375.95 365.931 376.177 371.525 374.969 376.585C369.076 401.268 336.482 402.25 331.686 388.866Z"/><path fill="#BCDEF6" transform="scale(2 2)" d="M331.581 376.454C331.836 375.648 331.71 373.194 331.648 372.315C330.62 357.532 340.893 357.139 350.812 356.734L351.278 356.71C355.929 362.267 355.572 370.455 350.454 375.585C345.336 380.715 337.149 381.092 331.581 376.454Z"/><path fill="#7CC9F4" transform="scale(2 2)" d="M380.061 280.622C380.139 278.321 379.833 270.401 380.704 268.814L381.056 268.996C385.83 271.499 390.704 277.156 396.005 273.433C402.09 274.419 405.201 278.79 409.125 280.622C412.091 265.888 438.531 280.972 434.689 312.376C432.55 315.469 430.271 316.191 426.681 314.929C426.444 320.179 427.402 325.144 425.791 330.265C423.253 338.334 410.535 339.525 407.329 331.69C397.741 332.405 400.642 311.964 400.66 305.43C394.712 301.242 382.442 294.498 375.951 291.133C369.665 286.541 373.127 278.905 380.061 280.622Z"/><path transform="scale(2 2)" d="M380.061 280.622C380.139 278.321 379.833 270.401 380.704 268.814L381.056 268.996C385.83 271.499 390.704 277.156 396.005 273.433C402.09 274.419 405.201 278.79 409.125 280.622C409.632 282.075 410.185 282.667 411.342 283.68C411.188 284.288 405.532 294.878 405.007 295.437C407.512 297.045 410.225 298.172 410.976 301.338C411.647 304.173 411.615 324.266 411.342 327.934C410.205 330.094 409.579 330.672 407.329 331.69C397.741 332.405 400.642 311.964 400.66 305.43C394.712 301.242 382.442 294.498 375.951 291.133C369.665 286.541 373.127 278.905 380.061 280.622Z"/><path fill="#BCDEF6" transform="scale(2 2)" d="M380.061 280.622C380.139 278.321 379.833 270.401 380.704 268.814L381.056 268.996C385.83 271.499 390.704 277.156 396.005 273.433C402.09 274.419 405.201 278.79 409.125 280.622C409.632 282.075 410.185 282.667 411.342 283.68C411.188 284.288 405.532 294.878 405.007 295.437C397.225 291.378 387.213 285.4 380.061 280.622Z"/><path transform="scale(2 2)" d="M409.125 280.622C412.091 265.888 438.531 280.972 434.689 312.376C432.55 315.469 430.271 316.191 426.681 314.929C420.483 307.708 429.276 296.424 417.176 287.51C415.329 286.149 413.227 285.345 411.342 283.68C410.185 282.667 409.632 282.075 409.125 280.622Z"/><path transform="scale(2 2)" d="M137.372 281.623C143.005 280.567 148.425 284.289 149.461 289.926C150.497 295.563 146.755 300.969 141.114 301.985C135.502 302.995 130.13 299.277 129.099 293.668C128.068 288.06 131.767 282.674 137.372 281.623Z"/><path transform="scale(2 2)" d="M120.603 330.016C126.098 328.95 131.423 332.518 132.528 338.005C133.632 343.492 130.101 348.843 124.622 349.985C119.088 351.139 113.674 347.565 112.558 342.024C111.443 336.482 115.054 331.093 120.603 330.016Z"/><path transform="scale(2 2)" d="M85.1169 300.819C90.5377 300.272 95.3918 304.183 96.0114 309.596C96.6311 315.009 92.7863 319.915 87.3821 320.607C83.8211 321.064 80.2902 319.568 78.1402 316.693C75.9903 313.818 75.5542 310.008 76.9987 306.721C78.4433 303.434 81.5449 301.18 85.1169 300.819Z"/></svg>