<?xml version="1.0" encoding="utf-8" ?><svg xmlns="http://www.w3.org/2000/svg" xmlns:xlink="http://www.w3.org/1999/xlink" width="1024" height="1024" viewBox="0 0 1024 1024"><path transform="scale(2 2)" d="M245.081 101.009C245.146 98.1388 247.355 94.8734 250.278 94.8706C265.444 94.8557 280.281 94.8395 295.485 94.9324C303.88 94.9838 313.044 99.6188 318.606 105.985C321.22 109.391 332.067 126.781 333.525 130.355C332.944 132.274 332.63 133.295 331.299 134.898C332.339 137.471 333.359 139.48 334.741 141.9C340.218 139.87 343.661 144.25 340.872 149.417C342.305 151.596 343.775 153.288 345.537 155.21C352.172 153.7 353.89 160.498 356.996 165.498L384.149 209.41C390.525 219.86 392.873 223.155 394.641 235.707C405.279 238.888 406.446 241.608 411.928 251.039L442.207 303.657C456.083 328.014 454.927 325.909 441.81 347.707L412.373 397.064C400.263 417.853 399.602 416.723 377.646 416.642L323.15 416.644C308.325 416.671 299.328 419.38 289.188 406.984L177.385 406.993C141.711 407.007 140.254 397.778 122.353 367.526L114.496 354.205C111.503 349.042 106.558 343.267 115.112 340.257C113.982 338.507 111.343 334.223 109.999 332.98C102.502 337.132 96.925 328.707 104.09 324C102.893 322.318 100.679 317.743 99.5262 316.866C92.5517 320.12 91.2951 315.136 88.4306 310.461L74.9006 288.355C54.4869 255 53.5528 253.21 73.5066 218.112L126.516 127.046C140.761 102.519 144.954 94.9127 177.771 94.8714L197.302 94.9201C204.173 94.9311 215.731 92.0782 216.808 101.009C218.041 101.056 225.384 101.254 225.754 100.952L225.828 100.012C226.265 97.1919 228.785 95.1729 231.633 95.3617C234.481 95.5505 236.712 97.8844 236.773 100.738C239.249 101.135 242.439 100.84 245.081 101.009ZM351.955 377.252C379.391 375.283 400.037 351.446 398.069 324.01C396.101 296.573 372.265 275.926 344.829 277.893C317.39 279.86 296.742 303.698 298.71 331.136C300.678 358.574 324.517 379.221 351.955 377.252ZM176.003 285.904C178.594 288.398 183.147 296.095 185.484 296.723C188.383 289.366 195.704 291.447 196.444 298.009C210.424 307.719 225.726 311.292 242.697 308.596C245.179 308.201 250.936 306.298 252.714 306.282C256.055 301.188 259.428 294.877 262.586 289.537L285.765 249.815C284.838 247.946 283.882 241.969 283.169 239.54C280.76 230.91 278.224 227.987 274.408 220.969C272.076 219.086 270.273 216.385 271.667 213.442C235.595 178.659 175.645 202.395 176.007 253.385C176.1 266.38 179.597 269.213 182.32 279.565C181.182 283.866 180.359 284.578 176.003 285.904ZM173.065 299.629C159.028 275.429 155.249 244.056 170.257 219.271C174.081 213.124 178.082 206.526 183.429 201.554C202.12 184.169 231.078 176.089 256.183 179.269C257.464 179.432 260.524 180.15 261.468 179.642C186.551 149.146 116.964 234.843 169.804 300.792C171.748 300.382 172.814 304.141 172.375 300.411L173.065 299.629Z"/><path fill="#FDCF08" transform="scale(2 2)" d="M245.081 101.009C245.146 98.1388 247.355 94.8734 250.278 94.8706C265.444 94.8557 280.281 94.8395 295.485 94.9324C303.88 94.9838 313.044 99.6188 318.606 105.985C321.22 109.391 332.067 126.781 333.525 130.355C332.944 132.274 332.63 133.295 331.299 134.898C332.339 137.471 333.359 139.48 334.741 141.9C340.218 139.87 343.661 144.25 340.872 149.417C342.305 151.596 343.775 153.288 345.537 155.21C337.294 160.705 345.989 168.78 350.049 175.391L367.612 203.902C373.788 213.833 381.408 224.031 383.434 235.707C377.374 235.709 369.464 235.959 363.566 235.707L320.871 235.707C299.018 153.133 195.403 134.401 152.867 206.435C112.939 274.053 174.383 354.835 250.27 337.867C260.019 356.046 275.11 377.771 283.057 396.047C271.103 396.319 257.982 396.047 245.93 396.047L173.065 396.047C150.66 395.952 147.336 389.001 136.488 370.069C132.473 363.061 122.357 341.077 115.112 340.257C113.982 338.507 111.343 334.223 109.999 332.98C102.502 337.132 96.925 328.707 104.09 324C102.893 322.318 100.679 317.743 99.5262 316.866C92.5517 320.12 91.2951 315.136 88.4306 310.461L74.9006 288.355C54.4869 255 53.5528 253.21 73.5066 218.112L126.516 127.046C140.761 102.519 144.954 94.9127 177.771 94.8714L197.302 94.9201C204.173 94.9311 215.731 92.0782 216.808 101.009C218.041 101.056 225.384 101.254 225.754 100.952L225.828 100.012C226.265 97.1919 228.785 95.1729 231.633 95.3617C234.481 95.5505 236.712 97.8844 236.773 100.738C239.249 101.135 242.439 100.84 245.081 101.009Z"/><path fill="#FEE976" transform="scale(2 2)" d="M99.5262 316.866C92.5517 320.12 91.2951 315.136 88.4306 310.461L74.9006 288.355C54.4869 255 53.5528 253.21 73.5066 218.112L126.516 127.046C140.761 102.519 144.954 94.9127 177.771 94.8714L197.302 94.9201C204.173 94.9311 215.731 92.0782 216.808 101.009C216.268 102.743 215.703 104.476 214.004 105.411C210.529 107.323 171.738 105.742 164.269 106.241C164.807 108.696 156.637 120.759 155.088 123.41L93.1949 230.236C82.2809 249.336 83.17 257.307 94.8258 276.923L149.143 368.161C154.79 377.557 159.297 387.757 169.049 393.381C170.054 393.961 172.27 395.287 173.065 396.047C150.66 395.952 147.336 389.001 136.488 370.069C132.473 363.061 122.357 341.077 115.112 340.257C113.982 338.507 111.343 334.223 109.999 332.98C102.502 337.132 96.925 328.707 104.09 324C102.893 322.318 100.679 317.743 99.5262 316.866Z"/><path transform="scale(2 2)" d="M99.5262 316.866C92.5517 320.12 91.2951 315.136 88.4306 310.461L74.9006 288.355C54.4869 255 53.5528 253.21 73.5066 218.112L126.516 127.046C140.761 102.519 144.954 94.9127 177.771 94.8714L197.302 94.9201C204.173 94.9311 215.731 92.0782 216.808 101.009C216.268 102.743 215.703 104.476 214.004 105.411C210.529 107.323 171.738 105.742 164.269 106.241C145.173 112.349 144.684 117.669 135.331 133.761L84.394 221.402C77.6549 233.123 66.794 246.131 71.5596 260.523C75.4518 272.278 94.3042 298.75 101.078 311.209C102.077 313.044 100.702 315.38 99.5262 316.866Z"/><path transform="scale(2 2)" d="M104.09 324C110.493 323.054 112.924 327.557 109.999 332.98C102.502 337.132 96.925 328.707 104.09 324Z"/><path fill="#FEC302" transform="scale(2 2)" d="M245.081 101.009C245.146 98.1388 247.355 94.8734 250.278 94.8706C265.444 94.8557 280.281 94.8395 295.485 94.9324C303.88 94.9838 313.044 99.6188 318.606 105.985C321.22 109.391 332.067 126.781 333.525 130.355C332.944 132.274 332.63 133.295 331.299 134.898C332.339 137.471 333.359 139.48 334.741 141.9C340.218 139.87 343.661 144.25 340.872 149.417C342.305 151.596 343.775 153.288 345.537 155.21C337.294 160.705 345.989 168.78 350.049 175.391L367.612 203.902C373.788 213.833 381.408 224.031 383.434 235.707C377.374 235.709 369.464 235.959 363.566 235.707C364.436 235.11 368.417 235.602 369.721 235.707C367.271 222.49 361.535 216.587 354.853 205.674L325.143 157.839C318.822 147.831 301.831 116.373 293.593 110.017C292.405 109.1 289.982 107.36 289.188 106.241C283.888 106.241 250.163 106.803 248.071 105.728C246.259 104.797 245.72 102.785 245.081 101.009Z"/><path transform="scale(2 2)" d="M245.081 101.009C245.146 98.1388 247.355 94.8734 250.278 94.8706C265.444 94.8557 280.281 94.8395 295.485 94.9324C303.88 94.9838 313.044 99.6188 318.606 105.985C321.22 109.391 332.067 126.781 333.525 130.355C332.944 132.274 332.63 133.295 331.299 134.898C319.003 141.916 317.427 109.05 298.41 106.564C295.219 106.146 292.4 106.218 289.188 106.241C283.888 106.241 250.163 106.803 248.071 105.728C246.259 104.797 245.72 102.785 245.081 101.009Z"/><path transform="scale(2 2)" d="M334.741 141.9C340.218 139.87 343.661 144.25 340.872 149.417C335.722 155.02 328.678 147.979 334.741 141.9Z"/><path transform="scale(2 2)" d="M225.828 100.012C226.265 97.1919 228.785 95.1729 231.633 95.3617C234.481 95.5505 236.712 97.8844 236.773 100.738C236.817 102.819 235.683 104.748 233.843 105.721C232.003 106.695 229.771 106.547 228.075 105.339C226.379 104.131 225.51 102.07 225.828 100.012Z"/><path fill="#BCDEF6" transform="scale(2 2)" d="M300.179 247.201L382.77 247.201C399.54 247.127 396.617 247.745 405.023 262.063L434.713 313.37C443.869 329.203 441.415 327.028 432.484 341.797L401.936 392.892C393.621 406.889 394.811 406.763 375.496 405.335C372.82 405.512 367.949 405.346 365.086 405.346L320.151 405.34C298.834 405.358 302.508 407.364 292.044 389.006L263.207 338.73C260.385 333.856 257.461 329.069 255.004 324C270.6 300.187 286.117 271.978 300.179 247.201ZM351.955 377.252C379.391 375.283 400.037 351.446 398.069 324.01C396.101 296.573 372.265 275.926 344.829 277.893C317.39 279.86 296.742 303.698 298.71 331.136C300.678 358.574 324.517 379.221 351.955 377.252Z"/><path fill="#63C1F4" transform="scale(2 2)" d="M382.77 247.201C399.54 247.127 396.617 247.745 405.023 262.063L434.713 313.37C443.869 329.203 441.415 327.028 432.484 341.797L401.936 392.892C393.621 406.889 394.811 406.763 375.496 405.335C377.764 405.089 380.457 405.256 382.77 405.335C385.562 395.36 408.742 359.749 414.758 349.697L422.28 337.107C430.944 322.521 426.509 323.502 419.82 310.433C414.999 301.014 409.356 292.423 403.755 283.518C400.222 277.9 384.518 252.683 382.77 247.201Z"/><path transform="scale(2 2)" d="M344.829 277.893C372.265 275.926 396.101 296.573 398.069 324.01C400.037 351.446 379.391 375.283 351.955 377.252C324.517 379.221 300.678 358.574 298.71 331.136C296.742 303.698 317.39 279.86 344.829 277.893ZM338.954 365.098C343.578 365.891 346.917 366.087 351.597 365.993C383.433 362.185 400.322 323.222 375.612 299.711C375.573 299.684 375.535 299.656 375.496 299.629C369.096 309.649 362.332 323.182 356.313 333.793L345.859 352.25C343.795 355.87 340.423 361.427 338.954 365.098Z"/><path fill="#FDCF08" transform="scale(2 2)" d="M319.048 353.006C295.108 326.873 317.396 285.301 354.169 289.817C358.968 290.605 361.425 291.132 365.816 293.223C362.899 299.831 358.028 307.27 354.553 313.755C346.051 329.626 337.001 344.889 328.735 360.91C324.939 358.482 322.135 356.321 319.048 353.006Z"/><path fill="#FEC302" transform="scale(2 2)" d="M354.169 289.817C358.968 290.605 361.425 291.132 365.816 293.223C362.899 299.831 358.028 307.27 354.553 313.755C346.051 329.626 337.001 344.889 328.735 360.91C324.939 358.482 322.135 356.321 319.048 353.006C319.776 352.583 320.099 352.222 320.512 351.491L348.01 301.785C350.093 298.039 352.774 293.782 354.169 289.817Z"/><path transform="scale(2 2)" d="M305.704 258.348C307.612 257.932 309.597 258.575 310.899 260.031C312.2 261.488 312.617 263.532 311.989 265.382C311.36 267.231 309.785 268.599 307.866 268.962C304.956 269.512 302.144 267.623 301.553 264.721C300.962 261.819 302.811 258.98 305.704 258.348Z"/><path transform="scale(2 2)" d="M304.461 376.931C307.39 376.552 310.07 378.623 310.442 381.553C310.814 384.483 308.737 387.158 305.806 387.523C302.885 387.887 300.221 385.818 299.85 382.898C299.479 379.978 301.542 377.309 304.461 376.931Z"/><path fill="#BCDEF6" transform="scale(2 2)" d="M173.065 299.629C159.028 275.429 155.249 244.056 170.257 219.271C174.081 213.124 178.082 206.526 183.429 201.554C202.12 184.169 231.078 176.089 256.183 179.269C257.464 179.432 260.524 180.15 261.468 179.642C271.233 183.484 276.285 188.126 284.709 193.616C282.157 197.15 280.861 201.314 278.421 204.763C281.74 208.184 286.977 211.152 284.709 216.517C282.98 218.601 282.253 219.181 279.511 219.857C277.719 219.285 277.248 219.144 275.83 217.889C274.558 216.435 273.006 214.863 271.667 213.442C235.595 178.659 175.645 202.395 176.007 253.385C176.1 266.38 179.597 269.213 182.32 279.565C181.182 283.866 180.359 284.578 176.003 285.904C178.594 288.398 183.147 296.095 185.484 296.723C188.383 289.366 195.704 291.447 196.444 298.009C210.424 307.719 225.726 311.292 242.697 308.596C245.179 308.201 250.936 306.298 252.714 306.282C250.165 310.944 244.242 319.729 242.646 324C243.485 325.584 244.205 326.468 245.081 327.906C215.689 331.485 200.95 325.798 177.95 309.255C175.119 306.486 172.454 303.73 169.804 300.792C171.748 300.382 172.814 304.141 172.375 300.411L173.065 299.629Z"/><path transform="scale(2 2)" d="M176.003 285.904C168.218 283.103 165.906 266.876 165.112 259.72C158.233 197.729 228.744 163.067 278.421 204.763C281.74 208.184 286.977 211.152 284.709 216.517C282.98 218.601 282.253 219.181 279.511 219.857C277.719 219.285 277.248 219.144 275.83 217.889C274.558 216.435 273.006 214.863 271.667 213.442C235.595 178.659 175.645 202.395 176.007 253.385C176.1 266.38 179.597 269.213 182.32 279.565C181.182 283.866 180.359 284.578 176.003 285.904Z"/><path transform="scale(2 2)" d="M185.484 296.723C188.383 289.366 195.704 291.447 196.444 298.009C194.947 305.934 184.814 305.311 185.484 296.723Z"/><path fill="white" transform="scale(2 2)" d="M173.065 299.629C174.186 301.664 178.579 307.362 177.95 309.255C175.119 306.486 172.454 303.73 169.804 300.792C171.748 300.382 172.814 304.141 172.375 300.411L173.065 299.629Z"/><path fill="#63C1F4" transform="scale(2 2)" d="M284.709 193.616L284.961 193.959C295.764 208.462 305.757 215.608 309.536 236.426C306.415 236.418 296.419 236.147 293.878 236.426C293.413 234.161 286.548 218.065 284.709 216.517C286.977 211.152 281.74 208.184 278.421 204.763C280.861 201.314 282.157 197.15 284.709 193.616Z"/><path fill="#BCDEF6" transform="scale(2 2)" d="M271.667 213.442C273.006 214.863 274.558 216.435 275.83 217.889C277.248 219.144 277.719 219.285 279.511 219.857C282.253 219.181 282.98 218.601 284.709 216.517C286.548 218.065 293.413 234.161 293.878 236.426C290.434 241.077 288.653 245.337 285.765 249.815C284.838 247.946 283.882 241.969 283.169 239.54C280.76 230.91 278.224 227.987 274.408 220.969C272.076 219.086 270.273 216.385 271.667 213.442Z"/><path fill="#BCDEF6" transform="scale(2 2)" d="M271.667 213.442C273.006 214.863 274.558 216.435 275.83 217.889L275.568 218.602C274.583 218.868 273.154 217.798 272.11 217.213C272.916 218.283 274.434 219.834 274.408 220.969C272.076 219.086 270.273 216.385 271.667 213.442Z"/></svg>