<?xml version="1.0" encoding="utf-8" ?><svg xmlns="http://www.w3.org/2000/svg" xmlns:xlink="http://www.w3.org/1999/xlink" width="1024" height="1024" viewBox="0 0 1024 1024"><path fill="#BCDEF6" transform="scale(2 2)" d="M402.014 91.3307C407.258 85.6707 418.725 70.2957 425.838 75.5519C434.092 81.6504 414.731 96.9284 410.378 101.242C414.252 108.036 423.953 141.552 411.916 144.694C411.361 149.001 409.793 156.63 408.134 160.679C411.087 161.939 412.218 163.142 413.184 166.19C411.676 176.593 405.015 196.367 401.496 206.251C400.373 209.405 396.595 210.748 393.501 209.825C392.418 210.761 387.548 222.337 386.158 224.65C392.596 229.142 388.459 233.083 385.517 237.99C346.067 303.784 286.531 355.993 219.451 392.415C212.006 396.457 188.356 413.016 184.245 400.663C179.952 402.293 174.587 404.291 170.531 406.311C168.867 405.296 166.883 404.115 164.879 404.878C154.865 408.689 144.495 412.895 134.725 417.294C124.525 421.887 118.957 424.65 108.344 418.21L108.344 416.135C106.292 407.191 112.573 400.922 121.141 400.663C119.817 395.932 120.653 393.55 124.966 391.113C120.562 389.279 116.705 386.783 117.018 381.399C117.421 374.481 147.016 320.461 155.249 313.115C156.225 295.285 165.948 286.14 180.968 279.467C182.978 275.757 207.426 249.201 209.965 248.3C210.171 248.162 210.835 247.391 211.074 247.132C218.904 238.655 227.818 233.695 239.428 233.258C239.013 223.969 243.075 212.103 251.348 207.172C255.028 200.583 258.485 196.81 264.279 191.846C264.86 190.402 273.007 182.693 274.576 181.073C298.417 156.485 326.753 135.903 357.183 120.242C361.536 118.001 370.215 113.423 374.801 112.398C376.979 108.111 379.992 100.299 381.327 95.731C361.395 95.5908 327.586 119.94 311.063 130.153C307.004 132.662 300.235 138.752 296.239 140.377C289.167 141.799 285.997 133.059 291.572 128.818C308.728 115.767 326.575 104.191 345.769 94.4024C363.159 85.533 385.037 75.5461 402.014 91.3307Z"/><path fill="#FEC302" transform="scale(2 2)" d="M264.279 191.846C278.422 183.838 293.161 181.382 307.838 190.864C312.064 193.594 314.838 196.272 312.169 201.403C313.555 203.553 316.224 208.957 318.279 209.825C273.197 271.346 213.482 336.24 148.397 378.2C143.737 381.204 129.704 389.671 124.966 391.113C120.562 389.279 116.705 386.783 117.018 381.399C117.421 374.481 147.016 320.461 155.249 313.115C156.225 295.285 165.948 286.14 180.968 279.467C182.978 275.757 207.426 249.201 209.965 248.3C210.171 248.162 210.835 247.391 211.074 247.132C218.904 238.655 227.818 233.695 239.428 233.258C239.013 223.969 243.075 212.103 251.348 207.172C255.028 200.583 258.485 196.81 264.279 191.846Z"/><path transform="scale(2 2)" d="M264.279 191.846C278.422 183.838 293.161 181.382 307.838 190.864C312.064 193.594 314.838 196.272 312.169 201.403C306.364 208.356 302.359 201.345 296.751 199.108C270.068 188.465 247.696 223.973 266.612 242.549C268.831 244.728 272.963 245.505 273.03 249.413C273.095 253.245 270.406 256.559 266.374 256.5C261.82 256.314 259.403 251.665 255.619 249.39C229.773 233.851 201.568 266.281 221.925 288.781C224.305 291.412 227.9 293.782 227.687 297.755C227.477 301.661 223.952 304.252 220.115 304.031C215.619 303.772 214.07 298.49 210.637 296.266C184.612 276.547 155.037 308.644 172.264 330.654C174.15 333.064 178.397 336.125 177.707 339.361C175.786 348.363 168.136 346.998 163.87 340.651C155.954 328.873 155.583 326.247 155.249 313.115C156.225 295.285 165.948 286.14 180.968 279.467C182.978 275.757 207.426 249.201 209.965 248.3C210.171 248.162 210.835 247.391 211.074 247.132C218.904 238.655 227.818 233.695 239.428 233.258C239.013 223.969 243.075 212.103 251.348 207.172C255.028 200.583 258.485 196.81 264.279 191.846Z"/><path fill="#FEC302" transform="scale(2 2)" d="M180.968 279.467C182.978 275.757 207.426 249.201 209.965 248.3C203.726 258.47 201.017 265.783 203.005 278.038C193.344 277.951 191.038 277.078 180.968 279.467Z"/><path fill="#FEC302" transform="scale(2 2)" d="M239.428 233.258C239.013 223.969 243.075 212.103 251.348 207.172C247.893 216.629 245.928 222.991 248.022 233.258L239.428 233.258Z"/><path transform="scale(2 2)" d="M402.014 91.3307C407.258 85.6707 418.725 70.2957 425.838 75.5519C434.092 81.6504 414.731 96.9284 410.378 101.242C414.252 108.036 423.953 141.552 411.916 144.694C406.884 144.739 403.827 141.984 404.26 136.826C405.297 124.462 402.516 108.864 393.501 100.034C388.151 116.273 380.238 131.541 372.308 146.645C324.595 237.525 223.129 356.089 132.946 401.556C128.926 403.583 124.053 405.292 121.141 400.663C119.817 395.932 120.653 393.55 124.966 391.113C129.704 389.671 143.737 381.204 148.397 378.2C213.482 336.24 273.197 271.346 318.279 209.825C316.224 208.957 313.555 203.553 312.169 201.403C314.838 196.272 312.064 193.594 307.838 190.864C293.161 181.382 278.422 183.838 264.279 191.846C264.86 190.402 273.007 182.693 274.576 181.073C298.417 156.485 326.753 135.903 357.183 120.242C361.536 118.001 370.215 113.423 374.801 112.398C376.979 108.111 379.992 100.299 381.327 95.731C361.395 95.5908 327.586 119.94 311.063 130.153C307.004 132.662 300.235 138.752 296.239 140.377C289.167 141.799 285.997 133.059 291.572 128.818C308.728 115.767 326.575 104.191 345.769 94.4024C363.159 85.533 385.037 75.5461 402.014 91.3307Z"/><path fill="#FEC302" transform="scale(2 2)" d="M374.801 112.398C365.219 136.518 348.311 164.363 334.457 186.235C329.413 194.199 323.456 201.895 318.279 209.825C316.224 208.957 313.555 203.553 312.169 201.403C314.838 196.272 312.064 193.594 307.838 190.864C293.161 181.382 278.422 183.838 264.279 191.846C264.86 190.402 273.007 182.693 274.576 181.073C298.417 156.485 326.753 135.903 357.183 120.242C361.536 118.001 370.215 113.423 374.801 112.398Z"/><path transform="scale(2 2)" d="M296.83 323.232C325.691 298.351 351.7 268.232 371.613 235.742C375.71 229.057 376.727 222.035 386.158 224.65C392.596 229.142 388.459 233.083 385.517 237.99C346.067 303.784 286.531 355.993 219.451 392.415C212.006 396.457 188.356 413.016 184.245 400.663C184.196 394.019 187.279 393.71 192.32 391.376C229.968 373.949 265.432 350.3 296.83 323.232Z"/><path fill="#7FC0F9" transform="scale(2 2)" d="M108.344 416.135C110.641 414.261 112.744 413.469 115.541 412.571C174.953 393.496 236.998 358.137 284.971 318.842C292.191 312.928 294.26 318.643 296.83 323.232C265.432 350.3 229.968 373.949 192.32 391.376C187.279 393.71 184.196 394.019 184.245 400.663C179.952 402.293 174.587 404.291 170.531 406.311C168.867 405.296 166.883 404.115 164.879 404.878C154.865 408.689 144.495 412.895 134.725 417.294C124.525 421.887 118.957 424.65 108.344 418.21L108.344 416.135Z"/><path transform="scale(2 2)" d="M393.501 209.825C391.734 208.865 388.824 206.265 389.349 204.204C392.565 191.58 396.448 178.713 400.046 166.2C401.407 161.467 403.31 160.225 408.134 160.679C411.087 161.939 412.218 163.142 413.184 166.19C411.676 176.593 405.015 196.367 401.496 206.251C400.373 209.405 396.595 210.748 393.501 209.825Z"/><path transform="scale(2 2)" d="M273.427 146.092C287.332 147.029 277.133 157.873 272.232 162.449C259.388 174.441 247.41 187.374 236.116 200.828C228.368 210.049 229.062 211.671 219.275 219.244C183.856 246.568 145.918 292.903 124.517 331.346C123.95 332.364 122.211 332.992 121.141 333.403C105.808 333.253 119.308 314.956 122.603 309.592C141.192 279.334 164.64 252.319 190.193 227.762C195.774 223.343 202.4 215.778 208.139 211.902C216.912 205.977 216.756 204.841 222.865 197.079C229.608 188.51 264.925 147.199 273.427 146.092Z"/><path transform="scale(2 2)" d="M170.531 406.311C174.373 410.666 172.504 415.659 167.316 417.725C155.581 422.398 143.914 427.246 132.384 432.405C105.734 444.355 74.0538 411.838 85.939 383.451C90.7811 371.885 97.1913 360.161 102.427 348.688C105.17 342.89 112.608 345.255 114.453 351.637C113.013 356.523 110.491 361.355 108.301 365.998L100.718 382.334C94.4087 396.088 93.5151 408.226 108.344 418.21C118.957 424.65 124.525 421.887 134.725 417.294C144.495 412.895 154.865 408.689 164.879 404.878C166.883 404.115 168.867 405.296 170.531 406.311Z"/></svg>