<?xml version="1.0" encoding="utf-8" ?><svg xmlns="http://www.w3.org/2000/svg" xmlns:xlink="http://www.w3.org/1999/xlink" width="1024" height="1024" viewBox="0 0 1024 1024"><path d="M190.961 156.665C183.953 137.795 198.145 132.802 215.844 141.3C251.844 158.585 287.128 178.918 323.02 196.202C325.622 197.456 336.688 194.742 340.038 194.971C355.008 195.098 411.072 197.018 410.512 219.236C416.824 219.928 423.738 223.696 428.008 224.438C428.914 219.86 432.258 216.146 436.718 214.764C441.178 213.384 446.036 214.558 449.372 217.824C452.708 221.09 453.986 225.92 452.7 230.408C457.846 230.978 465.164 232.824 469.546 235.566C470.718 216.74 487.354 223.374 499.254 224.866C592.196 236.518 601.538 251.43 657.674 314.044C678.386 337.136 690.898 349.42 680.606 381.526C730.942 381.434 745.566 377.112 775.876 418.052L832.702 492.87C859.948 528.784 867.372 547.29 833.89 582.936C817.196 600.708 810.652 611.414 785.496 616.334C786.264 622.492 785.816 628.35 785.646 634.51C784.014 693.37 801.91 763.59 850.224 800.898C854.99 804.578 860.446 807.1 865.2 810.632C879.986 821.618 895.422 864.858 883.902 879.372C879.756 884.594 870.078 885.75 864.968 881.344C861.288 878.174 859.196 868.36 858.348 867.894C858.32 867.878 594.818 866.956 565.706 867.764C561.052 892.622 540.168 889.614 537.276 870.934C530.226 871.504 521.64 870.98 514.338 870.958L469.546 870.934C469.272 898.962 422.314 885.49 453.288 829.66C443.642 823.496 433.764 815.24 424.568 808.322L375.464 770.946C352.096 752.818 326.628 740.054 329.698 705.632C332.678 672.204 368.874 649.224 400.294 661.626C418.094 668.652 456.376 702.496 473.712 715.166C479.38 698.34 484.978 684.484 493.01 668.476C499.746 655.048 511.956 642.892 504.608 627.368C492.12 626.862 485.2 628.236 472.826 624.038C424.244 607.55 431.58 552.124 431.034 511.024C421.186 504.518 409.476 492.31 400.642 483.774L352.942 437.348C305.448 430.426 261.716 389.022 237.738 349.448C235.47 345.704 233.766 341.634 231.258 338.036L172.648 311.624C164.199 307.792 155.894 304.146 147.318 300.134C132.89 293.382 134.989 277.766 149.354 273.6C137.624 266.908 130.033 264.31 140.025 249.964C143.263 241.926 187.205 160.514 190.961 156.665ZM824.28 841.54L856.424 841.54C852.112 830.788 838.814 826.01 830.296 818.316C780.85 773.658 758.044 706.118 759.026 640.562C759.146 632.45 759.79 624.454 759.142 616.334C753.384 611.476 747.766 609.47 741.144 603.95C727.878 679.35 751.202 770.75 806.616 825.102C810.934 829.336 821.52 837.13 824.28 841.54ZM653.718 427.316L684.75 427.298C715.606 427.244 722.652 424.578 742.352 453.012C758.288 476.01 776.168 497.548 792.448 520.29C805.068 537.958 814.232 545.05 806.726 568.766C806.008 571.036 804.946 572.872 804.686 575.254C844.922 535.02 830.458 534.652 801.77 496.308L764.652 446.792C738.896 412.27 741.254 407.228 694.35 407.25L648.082 407.288C645.418 412.128 654.11 415.78 652.126 420.416C650.362 424.536 645.944 426.138 653.718 427.316Z"/><path fill="#FEC302" d="M653.718 427.316L684.75 427.298C715.606 427.244 722.652 424.578 742.352 453.012C758.288 476.01 776.168 497.548 792.448 520.29C805.068 537.958 814.232 545.05 806.726 568.766C806.008 571.036 804.946 572.872 804.686 575.254C796.72 583.476 790.784 590.832 778.304 590.822C750.178 590.802 749.052 560.014 744.366 538.97L732.196 486.182C729.662 474.874 728.092 452.486 713.394 452.68C692.908 452.95 704.55 483.262 707.076 494.286L720.156 551.04C726.628 578.628 723.574 581.868 741.144 603.95C727.878 679.35 751.202 770.75 806.616 825.102C810.934 829.336 821.52 837.13 824.28 841.54L587.688 841.534C563.608 841.54 548.03 834.488 540.204 857.978C534.744 857.684 510.044 859.164 507.302 856.356C512.822 850.698 514.678 834.088 524.674 826.212C529.87 821.464 536.324 819.054 542.322 815.474C557.328 806.518 547.252 773.888 510.39 804.252C503.97 800.698 492.858 790.298 486.014 785.482C449.45 759.756 414.408 728.362 378.688 703.382C374.136 700.156 367.412 696.104 363.496 692.344C374.586 679.78 389.884 683.148 401.262 692.3C418.024 705.786 434.97 718.978 452.034 732.082C468.912 745.04 487.728 765.304 495.598 733.354C500.056 715.572 506.488 696.81 515.764 680.932C527.128 661.482 534.968 650.806 531.31 627.368C545.924 629.54 558.758 633.79 570.842 642.546C578.21 647.884 590.734 660.582 599.182 646.02C605.892 633.844 593.174 625.804 584.5 620.002C562.574 604.98 537.018 600.126 510.876 600.714C485.164 600.602 469.388 605.032 459.446 574.056C491.932 577.426 538.484 584.902 564.628 560.49C572.01 553.596 578.604 541.656 568.482 533.554C555.566 525.404 553.672 533.752 547.074 540.508C527.128 560.928 484.57 547.5 458.392 549.19C458.618 538.764 457.87 530.756 457.022 520.404C482.472 520.066 501.618 506.99 507.302 481.564C526.878 480.38 544.688 473.274 551.592 453.562C555.422 453.964 565.972 441.968 569.734 438.866C585.946 425.5 603.196 427.262 623.424 427.3L653.718 427.316Z"/><path d="M604.676 444.144C619.132 442.496 630.568 450.71 635.536 464.258C642.728 483.87 615.582 493.468 611.012 471.1C605.464 466.222 604.344 482.732 595.232 483.864C570.84 486.896 576.472 448.818 604.676 444.144Z"/><path fill="#7EC7EE" d="M190.961 156.665C183.953 137.795 198.145 132.802 215.844 141.3C251.844 158.585 287.128 178.918 323.02 196.202C325.622 197.456 336.688 194.742 340.038 194.971C355.008 195.098 411.072 197.018 410.512 219.236C416.824 219.928 423.738 223.696 428.008 224.438C428.914 219.86 432.258 216.146 436.718 214.764C441.178 213.384 446.036 214.558 449.372 217.824C452.708 221.09 453.986 225.92 452.7 230.408C457.846 230.978 465.164 232.824 469.546 235.566C471.654 255.032 517.032 252.892 535.57 256.95C592.634 269.442 606.308 296.642 642.602 336.628C651.47 346.4 663.876 358.716 655.34 372.89C625.606 407.864 591.87 342.052 570.026 326.074C542.072 305.626 467.658 313.448 437.27 328.438C421.698 337.574 412.732 354.05 414.092 372.008C416.35 401.804 464.654 433.868 481.75 459.706C488.71 470.228 481.99 485.588 470.71 491.45C449.254 501.738 433.672 479.022 419.222 464.97L382.068 429.186C365.388 413.24 371.46 416.376 350.47 410.23C306.254 397.276 271.452 362.196 251.656 321.442C248.558 315.064 237.098 311.414 230.776 308.654L172.49 282.928C165.486 279.82 156.557 275.424 149.354 273.6C137.624 266.908 130.033 264.31 140.025 249.964C143.263 241.926 187.205 160.514 190.961 156.665Z"/><path fill="#BCDEF6" d="M428.008 224.438C428.914 219.86 432.258 216.146 436.718 214.764C441.178 213.384 446.036 214.558 449.372 217.824C452.708 221.09 453.986 225.92 452.7 230.408C457.846 230.978 465.164 232.824 469.546 235.566C471.654 255.032 517.032 252.892 535.57 256.95C592.634 269.442 606.308 296.642 642.602 336.628C651.47 346.4 663.876 358.716 655.34 372.89C642.69 370.36 632.056 356.122 623.994 347.084C577.994 295.508 581.866 296.598 517.22 280.892C481.928 272.318 328.98 241.78 319.85 221.516C344.078 224.248 356.998 219.314 385.428 227.73C397.75 231.376 405.18 233.156 410.512 219.236C416.824 219.928 423.738 223.696 428.008 224.438Z"/><path d="M428.008 224.438C428.914 219.86 432.258 216.146 436.718 214.764C441.178 213.384 446.036 214.558 449.372 217.824C452.708 221.09 453.986 225.92 452.7 230.408C450.824 236.96 444.114 240.868 437.49 239.266C430.866 237.664 426.684 231.124 428.008 224.438Z"/><path fill="#0C99F4" d="M140.025 249.964C152.72 248.014 172.251 260.238 184.802 265.69L235.018 287.44C272.82 303.984 257.224 296.842 278.15 329.262C296.58 357.814 321.936 379.124 354.438 390.25C385.3 400.816 372.732 392.47 398.19 417.97C416.712 436.522 456.554 471.988 470.71 491.45C449.254 501.738 433.672 479.022 419.222 464.97L382.068 429.186C365.388 413.24 371.46 416.376 350.47 410.23C306.254 397.276 271.452 362.196 251.656 321.442C248.558 315.064 237.098 311.414 230.776 308.654L172.49 282.928C165.486 279.82 156.557 275.424 149.354 273.6C137.624 266.908 130.033 264.31 140.025 249.964Z"/><path d="M190.961 156.665C183.953 137.795 198.145 132.802 215.844 141.3C251.844 158.585 287.128 178.918 323.02 196.202C325.622 197.456 336.688 194.742 340.038 194.971C355.008 195.098 411.072 197.018 410.512 219.236C405.18 233.156 397.75 231.376 385.428 227.73C356.998 219.314 344.078 224.248 319.85 221.516L319.12 221.49C309.036 221.076 214.506 170.47 198.132 161.931C195.351 160.481 193.103 158.966 190.961 156.665Z"/><path fill="#DF9D01" d="M363.496 692.344C367.412 696.104 374.136 700.156 378.688 703.382C414.408 728.362 449.45 759.756 486.014 785.482C492.858 790.298 503.97 800.698 510.39 804.252C501.936 811.626 498.48 816.07 493.416 825.896C485.608 820.67 477.284 814.31 469.624 808.672L385.62 745.838C368.588 733.346 341.828 716.816 363.496 692.344Z"/><path fill="white" d="M551.592 453.562C560.842 413.406 577.532 407.16 617.716 407.25L648.082 407.288C645.418 412.128 654.11 415.78 652.126 420.416C650.362 424.536 645.944 426.138 653.718 427.316L623.424 427.3C603.196 427.262 585.946 425.5 569.734 438.866C565.972 441.968 555.422 453.964 551.592 453.562Z"/><path fill="#DF9D01" d="M475.772 845.544C489.122 852.216 489.134 859.596 507.302 856.356C510.044 859.164 534.744 857.684 540.204 857.978L537.276 870.934C530.226 871.504 521.64 870.98 514.338 870.958L469.546 870.934C469.244 861.626 471.068 853.58 475.772 845.544Z"/><path fill="white" d="M470.71 345.07C471.23 345.032 472.446 345.204 472.938 345.408C497.802 355.696 531.946 382.434 544.992 407.288C531.888 416.038 529.914 434.932 525.312 447.604L525.096 448.184C521.69 451.7 518.272 452.564 513.738 453.562C512.152 453.448 509.01 453.558 507.302 453.562C499.966 438.11 494.368 433.416 482.882 421.296L458.408 395.45C431.72 367.584 430.876 354.204 470.71 345.07Z"/><path fill="#0C99F4" d="M515.696 339.95C545.434 339.474 553.746 342.94 572.228 366.008C577.532 372.626 582.66 376.58 587.742 384.532L581.6 384.532C575.486 386.146 571.402 387.67 565.706 390.36C552.716 369.04 535.114 354.776 515.696 339.95Z"/><path d="M248.878 481.564C259.382 481.06 262.89 489.192 262.938 498.242C263.158 538.668 296.566 574.794 337.644 574.994C365.286 575.128 360.784 597.53 346.964 600.954C293.658 608.858 242.706 560.212 237.692 507.882C236.582 496.294 235.146 485.064 248.878 481.564Z"/><path d="M296 481.564C314.392 480.768 308.718 496.454 313.99 508.12C325.35 536.634 362.46 521.158 356.402 545.842C355.232 550.614 351.56 553.012 346.964 554.486C300.126 558.046 266.638 492.174 296 481.564Z"/></svg>