<?xml version="1.0" encoding="utf-8" ?><svg xmlns="http://www.w3.org/2000/svg" xmlns:xlink="http://www.w3.org/1999/xlink" width="1024" height="1024" viewBox="0 0 1024 1024"><path transform="scale(2 2)" d="M250.963 137.519C254.938 133.568 257.617 133.309 261.346 137.519C261.598 140.057 261.317 146.945 261.346 149.847C265.082 147.398 266.552 144.952 271.23 143.626C272.606 144.22 273.652 145.176 274.96 145.333C289.103 149.436 266.235 165.689 261.805 171.234C263.526 172.272 265.394 173.494 267.26 174.18C281.754 169.214 285.554 150.672 312.998 152.76L314.384 146.917C310.443 146.22 306.452 145.449 302.452 145.367C299.958 145.316 296.365 146.511 294.014 145.991C289.619 145.019 288.598 140.932 291.031 137.519C297.691 132.304 317.455 135.2 323.866 140.575C326.751 142.993 324.416 150.865 323.46 153.76C320.369 164.475 313.793 174.31 304.835 181.009C290.011 192.237 278.564 190.842 261.346 190.811L261.36 213.97C261.364 217.609 261.539 222.257 261.346 225.77C265.092 221.619 270.262 213.717 275.783 212.373C280.249 213.703 280.896 214.712 280.723 219.233C279.023 222.227 266.031 236.942 263.085 240.162C263.355 241.771 262.607 244.158 263.762 245.366C271.48 253.12 280.467 228.46 290.581 226.136C295.578 224.987 308.159 222.398 312.998 222.918C313.697 221.203 314.386 219.444 315.181 217.775C305.155 211.829 294.708 219.15 292.878 211.475C289.762 200.149 321.023 203.016 327.612 213.58C320.864 229.205 317.158 244.534 301.899 254.941C289.535 263.374 275.463 261.689 261.346 261.869L261.346 278.5C268.382 278.341 275.893 278.498 282.976 278.501L345.85 278.482C352.385 278.457 358.863 277.331 364.041 282.41C372.985 291.186 371.251 318.466 353.692 318.305L352.955 318.292C351.681 329.415 348.696 343.399 346.567 354.488L334.348 420.91C329.159 450.389 323.878 451.213 294.93 451.204L219.445 451.2C212.675 451.201 205.075 451.392 198.618 450.905C180.849 449.565 178.171 427.75 176.538 414.031C177.499 411.865 178.018 410.67 180.368 409.56C178.657 405.513 178.264 400.663 177.424 396.216C170.678 395.317 168.544 378.493 172.837 375.543C172.118 371.373 171.436 366.58 170.355 362.551C168.31 361.886 166.995 360.934 166.544 358.762C164.037 346.683 160.222 330.506 159.152 318.292L158.684 318.3C140.503 318.497 139.242 292.062 147.887 283.39C153.668 277.59 161.845 278.501 169.393 278.496L250.963 278.5C251.396 273.723 251.241 266.566 250.963 261.869C244.784 261.563 237.59 261.924 231.299 261.915C201.374 261.874 179.827 217.082 187.684 210.864C194.323 206.474 205.004 204.471 212.893 204.693C218.477 204.85 220.555 211.464 215.097 215.176L214.795 215.377C209.427 215.255 202.61 215.236 197.739 217.775C198.38 221.426 199.362 223.121 200.882 226.454C214.307 222.717 221.841 222.934 233.288 230.646C233.949 230.091 234.633 229.715 235.37 229.269L237.831 227.819C236.702 226.547 234.49 224.091 233.26 223.009C225.774 216.427 233.871 208.1 240.705 215.377C241.579 216.464 249.852 224.811 250.963 225.77C250.896 223.565 250.786 221.437 250.963 219.233C251.304 210.88 250.947 199.335 250.963 190.811C226.833 191.866 207.939 189.125 194.347 166.065C191.653 162.283 185.196 146.806 186.624 142.367C188.849 135.45 217.408 130.473 222.74 139.388C222.848 143.885 222.249 145.363 217.824 146.917C208.854 145.095 206.801 144.497 197.739 146.917C198.666 150.575 198.817 151.163 200.882 154.254C214.329 154.221 226.566 155.467 237.797 163.174C241.107 165.446 247.193 171.506 250.963 171.234C245.404 166.321 239.992 159.732 234.662 154.404C230.903 150.645 234.803 142.12 241.755 146.917C242.738 148.401 249.258 154.5 250.963 156.277C251.041 152.292 251.077 147.585 250.963 143.626C250.822 141.666 250.538 139.407 250.963 137.519ZM159.948 307.66C161.876 307.053 161.614 295.585 166.777 289.146C153.635 289.054 151.711 290.757 153.505 305.041C155.902 307.344 156.659 307.497 159.948 307.66Z"/><path fill="#FCD70C" transform="scale(2 2)" d="M171.817 330.976L289.986 330.969C297.564 330.967 315.389 328.774 314.187 341.188C312.904 354.446 309.799 367.648 307.543 380.758L301.831 414.513C299.516 427.657 301.066 431.487 291.031 440.446L210.098 440.465C194.998 440.502 192.776 441.127 189.13 424.477C187.881 418.77 188.457 407.504 180.368 409.56C178.657 405.513 178.264 400.663 177.424 396.216C170.678 395.317 168.544 378.493 172.837 375.543C172.118 371.373 171.436 366.58 170.355 362.551C182.237 362.176 173.518 339.484 171.817 330.976Z"/><path transform="scale(2 2)" d="M172.837 375.543C181.275 373.929 181.142 380.554 182.386 387.477C183.279 392.451 182.669 395.031 177.424 396.216C170.678 395.317 168.544 378.493 172.837 375.543Z"/><path fill="#FEC302" transform="scale(2 2)" d="M196.661 314.739C200.848 320.326 208.315 318.317 215.247 318.311L342.52 318.292L323.81 419.442C319.262 445.141 314.936 440.518 291.031 440.446C301.066 431.487 299.516 427.657 301.831 414.513L307.543 380.758C309.799 367.648 312.904 354.446 314.187 341.188C315.389 328.774 297.564 330.967 289.986 330.969L171.817 330.976L169.375 318.292C174.629 318.434 180.974 320.064 183.968 314.739C188.218 314.76 192.419 314.5 196.661 314.739Z"/><path fill="#85B7DD" transform="scale(2 2)" d="M166.777 289.146L337.183 289.146L337.183 307.66C328.46 307.661 235.401 307.639 235.37 307.66L212.95 307.65C205.825 307.652 196.488 305.31 196.661 314.739C192.419 314.5 188.218 314.76 183.968 314.739C184.668 306.29 178.457 307.605 172.346 307.623L159.948 307.66C161.876 307.053 161.614 295.585 166.777 289.146Z"/><path fill="#85B7DD" transform="scale(2 2)" d="M200.882 226.454C214.307 222.717 221.841 222.934 233.288 230.646C233.949 230.091 234.633 229.715 235.37 229.269L237.831 227.819C240.384 230.613 244.212 234.095 246.455 236.714C247.88 237.864 249.616 239.65 250.963 240.962C251.169 242.775 250.982 248.812 250.963 250.886C226.114 250.824 212.593 253.998 200.882 226.454Z"/><path fill="#BCDEF6" transform="scale(2 2)" d="M237.831 227.819C240.384 230.613 244.212 234.095 246.455 236.714C247.88 237.864 249.616 239.65 250.963 240.962C250.582 243.378 250.487 243.059 248.349 244.263C244.901 241.917 235.643 233.721 233.288 230.646C233.949 230.091 234.633 229.715 235.37 229.269L237.831 227.819Z"/><path fill="#85B7DD" transform="scale(2 2)" d="M200.882 154.254C214.329 154.221 226.566 155.467 237.797 163.174C241.107 165.446 247.193 171.506 250.963 171.234L250.963 179.9C237.506 179.92 225.875 181.439 214.366 173.033C208.869 169.019 202.004 161.137 200.882 154.254Z"/><path fill="#85B7DD" transform="scale(2 2)" d="M263.085 240.162C263.355 241.771 262.607 244.158 263.762 245.366C271.48 253.12 280.467 228.46 290.581 226.136C295.578 224.987 308.159 222.398 312.998 222.918C300.503 252.204 287.896 250.936 261.346 250.886C261.093 247.578 261.13 245.755 261.346 242.46C262.036 241.34 262.163 241.057 263.085 240.162Z"/><path fill="#85B7DD" transform="scale(2 2)" d="M267.26 174.18C281.754 169.214 285.554 150.672 312.998 152.76C301.135 179.116 287.961 179.957 261.346 179.9C261.327 178.468 261.114 172.327 261.478 171.492L261.805 171.234C263.526 172.272 265.394 173.494 267.26 174.18Z"/><path fill="#628194" transform="scale(2 2)" d="M337.183 289.146C340.684 289.136 354.887 288.297 357.103 290.517C358.817 292.235 358.94 304.823 356.34 307.22C354.998 308.457 330.292 307.672 327.022 307.669L235.583 307.686C235.512 307.677 235.441 307.669 235.37 307.66C235.401 307.639 328.46 307.661 337.183 307.66L337.183 289.146Z"/><path fill="#85B7DD" transform="scale(2 2)" d="M261.346 149.847C265.082 147.398 266.552 144.952 271.23 143.626C272.606 144.22 273.652 145.176 274.96 145.333C269.495 146.208 265.952 152.854 261.346 156.277C261.329 154.263 261.245 151.827 261.346 149.847Z"/><path fill="#85B7DD" transform="scale(2 2)" d="M234.322 87.2966C229.219 78.1755 248.24 57.621 259.263 61.1646C277.865 67.757 285.869 98.0746 279.404 115.867C278.17 119.262 276.113 125.743 272.325 126.913C268.302 131.535 265.158 133.608 261.346 137.519C257.617 133.309 254.938 133.568 250.963 137.519C246.832 134.331 244.206 132.218 240.705 128.32C246.75 126.735 248.817 124.457 245.695 118.76C245.773 117.019 243.785 112.732 243.707 108.741C243.463 96.3632 253.002 84.3924 261.346 76.0261C259.334 73.5688 258.466 72.7268 255.698 71.1103C245.236 77.198 245.21 85.5462 240.705 88.6795C237.784 88.9805 236.838 89.0158 234.322 87.2966Z"/><path transform="scale(2 2)" d="M234.322 87.2966C229.219 78.1755 248.24 57.621 259.263 61.1646C277.865 67.757 285.869 98.0746 279.404 115.867C278.17 119.262 276.113 125.743 272.325 126.913C268.061 126.414 266.866 124.744 265.854 120.79C267.665 113.726 271.676 110.118 271.416 101.705C271.128 92.3958 267.924 82.6569 261.346 76.0261C259.334 73.5688 258.466 72.7268 255.698 71.1103C245.236 77.198 245.21 85.5462 240.705 88.6795C237.784 88.9805 236.838 89.0158 234.322 87.2966Z"/><path transform="scale(2 2)" d="M240.705 128.32C233.752 125.136 222.174 96.3386 236.055 97.629C239.719 97.9696 241.257 112.427 245.695 118.76C248.817 124.457 246.75 126.735 240.705 128.32Z"/><path transform="scale(2 2)" d="M178.306 179.517C181.395 178.952 184.357 180.996 184.926 184.083C185.495 187.171 183.455 190.136 180.368 190.709C177.275 191.283 174.304 189.239 173.734 186.145C173.164 183.052 175.212 180.083 178.306 179.517Z"/><path transform="scale(2 2)" d="M204.057 106.359C207.055 105.498 210.181 107.24 211.026 110.243C211.871 113.245 210.113 116.362 207.106 117.191C204.122 118.014 201.033 116.271 200.194 113.291C199.355 110.311 201.082 107.213 204.057 106.359Z"/><path transform="scale(2 2)" d="M305.61 106.055C308.587 105.54 311.425 107.514 311.976 110.485C312.527 113.455 310.587 116.316 307.623 116.903C305.674 117.289 303.668 116.597 302.371 115.092C301.074 113.586 300.687 111.5 301.358 109.63C302.028 107.759 303.652 106.394 305.61 106.055Z"/><path transform="scale(2 2)" d="M331.575 180.329C333.437 179.83 335.422 180.428 336.699 181.872C337.976 183.316 338.327 185.358 337.605 187.146C336.993 188.66 335.692 189.788 334.107 190.178C332.407 190.597 330.612 190.113 329.354 188.896C328.335 187.91 327.774 186.543 327.806 185.126C327.857 182.867 329.392 180.913 331.575 180.329Z"/></svg>