<?xml version="1.0" encoding="utf-8" ?><svg xmlns="http://www.w3.org/2000/svg" xmlns:xlink="http://www.w3.org/1999/xlink" width="1024" height="1024" viewBox="0 0 1024 1024"><path fill="#BCDEF6" transform="scale(2 2)" d="M189.613 191.236C187.933 189.388 185.439 187.069 183.611 185.245L118.681 121.449C96.5746 100.062 109.526 64.6555 140.622 63.9593C160.825 63.5069 168.505 80.2931 182.109 91.7027C186.403 95.3046 187.159 100.389 182.929 104.378L182.714 104.577C187.564 106.719 190.534 112.769 194.302 114.88C202.059 107.246 210.095 119.301 215.87 125.03L248.087 156.796C251.005 159.647 255.146 163.545 257.622 166.708C266.819 149.179 287.54 142.8 303.657 155.498C307.703 158.685 311.185 162.633 314.811 166.303L344.375 195.734C362.779 214.04 372.834 230.435 375.27 257.575C376.308 269.141 374.205 304.563 376.148 309.871C380.634 322.13 401.779 330.207 404.126 347.889C406.1 362.759 395.347 370.669 386.141 379.965L333.838 432.041C313.296 452.599 304.023 454.021 282.81 432.328L266.658 416.005C263.294 412.622 259.176 408.223 255.515 405.367C238.665 406.564 219.566 402.824 205.168 394.092C192.445 386.376 177.925 368.979 166.668 357.578L145.942 336.403C118.671 308.804 113.976 299.647 144.514 272.429C132.891 251.874 144.206 226.704 167.775 226.735C164.943 209.287 172.12 195.883 189.613 191.236Z"/><path transform="scale(2 2)" d="M189.613 191.236C187.933 189.388 185.439 187.069 183.611 185.245L118.681 121.449C96.5746 100.062 109.526 64.6555 140.622 63.9593C160.825 63.5069 168.505 80.2931 182.109 91.7027C186.403 95.3046 187.159 100.389 182.929 104.378L182.714 104.577C175.575 108.199 173.205 104.064 168.543 99.4239C163.809 94.7116 154.657 84.1004 149.342 80.8243C144.547 84.6402 135.119 83.6939 133.229 95.2665C131.897 102.971 141.883 116.986 139.154 120.472C159.886 140.158 180.29 161.219 200.547 181.481L226.033 207.279C231.513 212.934 246.375 223.85 231.348 229.542C221.286 233.353 204.451 191.928 186.174 209.251C170.397 225.804 199.808 239.965 206.969 251.903C210.509 257.353 205.141 264.249 198.841 262.701C189.581 260.424 182.709 240.454 168.6 241.355C161.78 241.79 157.225 245.654 154.74 251.903C152.019 264.135 169.131 277.935 177.927 285.945C184.341 291.963 181.503 300.655 174.286 300.427C169.664 300.28 157.963 288.221 154.74 283.581C151.31 285.74 142.34 293.668 140.489 297.206C143.587 298.772 149.729 305.636 152.37 308.358C177.098 333.834 202.46 358.679 227.019 384.316C228.074 385.418 228.669 386.111 228.267 387.601C238.598 390.1 248.228 390.538 258.787 390.214C263.144 390.08 269.913 398.275 273.087 401.435L284.347 412.442C287.165 409.288 294.785 400.659 298.197 399.024C294.838 390.615 303.115 387.761 307.889 381.962C311.034 378.142 315.007 377.437 319.446 379.721C323.262 374.821 329.15 369.481 333.635 365.14C336.651 367.395 340.893 366.959 343.388 364.138C345.883 361.317 345.797 357.054 343.191 354.335C347.296 350.78 355.747 342.21 359.272 338.105L359.272 336.448C343.847 325.549 343.835 309.496 343.845 293.069L343.864 273.449C343.886 254.3 341.678 239.151 330.684 222.472C328.256 227.186 326.688 227.817 322.713 231.152C325.871 237.505 320.386 245.448 313.144 242.273C310.785 241.239 291.531 221.114 287.976 217.559L194.894 125.05C191.929 122.16 192.572 118.279 194.302 114.88C202.059 107.246 210.095 119.301 215.87 125.03L248.087 156.796C251.005 159.647 255.146 163.545 257.622 166.708C266.819 149.179 287.54 142.8 303.657 155.498C307.703 158.685 311.185 162.633 314.811 166.303L344.375 195.734C362.779 214.04 372.834 230.435 375.27 257.575C376.308 269.141 374.205 304.563 376.148 309.871C380.634 322.13 401.779 330.207 404.126 347.889C406.1 362.759 395.347 370.669 386.141 379.965L333.838 432.041C313.296 452.599 304.023 454.021 282.81 432.328L266.658 416.005C263.294 412.622 259.176 408.223 255.515 405.367C238.665 406.564 219.566 402.824 205.168 394.092C192.445 386.376 177.925 368.979 166.668 357.578L145.942 336.403C118.671 308.804 113.976 299.647 144.514 272.429C132.891 251.874 144.206 226.704 167.775 226.735C164.943 209.287 172.12 195.883 189.613 191.236Z"/><path fill="#FEC302" transform="scale(2 2)" d="M276.419 166.708C287.652 158.467 295.723 168.24 302.847 175.438L331.609 204.193C362.991 235.333 360.69 251.077 360.485 294.775C360.426 307.244 359.142 314.511 368.152 324.26C364.117 328.462 359.205 330.74 359.272 336.448C343.847 325.549 343.835 309.496 343.845 293.069L343.864 273.449C343.886 254.3 341.678 239.151 330.684 222.472C329.577 219.535 286.187 175.214 276.419 166.708Z"/><path fill="#FDDE0F" transform="scale(2 2)" d="M359.272 338.105C360.811 341.213 361.931 341.942 365.156 343.447C367.244 346.471 373.225 349.816 373.051 353.722C371.456 356.701 360.59 366.621 357.498 369.643L312.923 413.631C309.828 416.686 305.236 421.473 302.066 424.217C299.373 422.482 294.18 418.198 290.96 419.063C288.711 416.872 286.545 414.684 284.347 412.442C287.165 409.288 294.785 400.659 298.197 399.024C294.838 390.615 303.115 387.761 307.889 381.962C311.034 378.142 315.007 377.437 319.446 379.721C323.262 374.821 329.15 369.481 333.635 365.14C336.651 367.395 340.893 366.959 343.388 364.138C345.883 361.317 345.797 357.054 343.191 354.335C347.296 350.78 355.747 342.21 359.272 338.105Z"/><path transform="scale(2 2)" d="M298.197 399.024C294.838 390.615 303.115 387.761 307.889 381.962C311.034 378.142 315.007 377.437 319.446 379.721C323.624 384.449 323.314 387.885 318.84 392.187C313.053 397.75 306.123 408.104 298.197 399.024Z"/><path fill="#FEC302" transform="scale(2 2)" d="M378.408 335.263C392.999 350.559 393.363 351.595 376.995 367.829L314.936 429.406C306.169 438.033 296.986 425.133 290.96 419.063C294.18 418.198 299.373 422.482 302.066 424.217C305.236 421.473 309.828 416.686 312.923 413.631L357.498 369.643C360.59 366.621 371.456 356.701 373.051 353.722C373.225 349.816 367.244 346.471 365.156 343.447C371.989 343.9 373.637 339.1 378.408 335.263Z"/><path fill="#CCECF9" transform="scale(2 2)" d="M140.489 297.206C143.587 298.772 149.729 305.636 152.37 308.358C177.098 333.834 202.46 358.679 227.019 384.316C228.074 385.418 228.669 386.111 228.267 387.601C212.576 383.153 207.046 377.496 196.317 366.398L156.807 326.278C148.415 317.738 135.327 309.764 140.489 297.206Z"/><path fill="#FDDE0F" transform="scale(2 2)" d="M276.419 166.708C286.187 175.214 329.577 219.535 330.684 222.472C328.256 227.186 326.688 227.817 322.713 231.152C317.832 225.789 310.69 219.039 305.341 213.81L282.962 191.597C279.118 187.76 273.803 182.717 270.367 178.776L270.403 178.437C270.991 173.243 272.304 170.032 276.419 166.708Z"/><path fill="#CCECF9" transform="scale(2 2)" d="M139.154 120.472C133.985 115.666 125.607 109.193 123.349 102.505C117.937 86.4787 134.369 73.3739 149.342 80.8243C144.547 84.6402 135.119 83.6939 133.229 95.2665C131.897 102.971 141.883 116.986 139.154 120.472Z"/><path fill="#CCECF9" transform="scale(2 2)" d="M186.174 209.251C186.72 209.612 190.217 217.959 191.691 220.101C197.02 227.846 217.173 238.848 210.125 249.416C209.263 250.705 208.409 251.549 206.969 251.903C199.808 239.965 170.397 225.804 186.174 209.251Z"/><path fill="#CCECF9" transform="scale(2 2)" d="M154.74 251.903C155.919 252.51 158.46 253.124 159.26 253.728C164.415 257.61 180.167 274.219 184.534 279.493C182.009 281.707 180.257 283.504 177.927 285.945C169.131 277.935 152.019 264.135 154.74 251.903Z"/><path transform="scale(2 2)" d="M333.635 365.14C331.45 363.506 330.369 360.784 330.839 358.097C331.309 355.41 333.25 353.216 335.859 352.421C338.469 351.627 341.303 352.367 343.191 354.335C345.797 357.054 345.883 361.317 343.388 364.138C340.893 366.959 336.651 367.395 333.635 365.14Z"/><path transform="scale(2 2)" d="M318.371 130.56L318.551 130.54C324.737 129.792 330.02 137.488 334.346 141.776L353.374 160.691C372.535 179.761 388.627 193.517 398.232 220.249C401.085 228.19 409.478 251.613 398.145 255.331C387.185 256.668 388.643 244.783 387.32 237.633C382.276 210.38 369.197 197.189 350.473 178.584L325.737 153.874C320.413 148.556 303.573 136.014 318.371 130.56Z"/><path transform="scale(2 2)" d="M279.354 117.266C282.89 117.132 289.492 117.979 292.98 118.924C300.705 121.017 300.638 130.297 293.404 133.598C290.015 134.249 287.538 133.187 284.182 132.869C271.911 131.708 270.771 121.224 279.354 117.266Z"/></svg>