<?xml version="1.0" encoding="utf-8" ?><svg xmlns="http://www.w3.org/2000/svg" xmlns:xlink="http://www.w3.org/1999/xlink" width="1024" height="1024" viewBox="0 0 1024 1024"><path fill="#BCDEF6" transform="scale(2 2)" d="M155.255 157.309C156.884 128.108 192.623 114.11 213.19 134.006C262.564 112.098 292.248 184.204 239.617 200.613C240.126 202.084 240.615 203.633 241.28 205.035C257.732 203.679 260.339 200.14 272 191.581C294.41 176.409 314.279 176.522 338.785 183.052C393.874 197.731 428.971 250.902 423.577 307.169C423.134 311.791 419.307 313.151 415.236 312.394C415.45 321.666 412.634 333.904 411.542 343.563C412.657 343.532 414.163 343.44 415.236 343.563C421.311 342.834 427.803 341.404 431.633 336.37C435.819 331.527 433.919 327.046 434.672 321.708C437.492 301.732 467.86 302.088 471.081 321.736C471.471 324.115 470.896 326.842 470.821 329.248C470.848 352.942 451.92 375.956 427.762 378.026C413.339 379.262 399.903 375.169 388.016 381.365C381.769 384.621 362.696 389.944 358.799 380.811C353.083 380.791 345.992 381.535 340.427 380.811C339.425 383.423 338.321 384.374 335.992 385.749C330.92 386.071 322.143 385.756 316.796 385.752L141.039 385.84C121.362 386.361 112.72 362.752 126.172 349.278C132.172 343.269 148.185 339.048 147.425 351.757C151.797 351.681 161.97 351.538 165.884 352.658C162.863 339.743 180.82 343.566 188.887 343.563C185.335 332.347 187.124 331.44 186.513 320.956C178.779 304.229 146.768 289.406 128.554 283.561C124.746 284.576 102.046 280.393 97.2605 279.056C94.523 275.523 92.1505 273.373 87.6861 276.057C82.8542 273.585 73.3591 268.916 71.5364 263.942C77.5983 258.167 72.8165 250.005 64.1996 253.258C60.7479 247.042 60.9458 239.19 61.2659 232.154C54.2099 228.744 41.5116 226.865 39.7194 219.257C40.6562 214.97 41.9191 213.913 45.9858 212.683C51.9695 214.183 59.8165 218.176 66.7175 220.159C66.8382 219.604 67.3132 218.135 67.67 217.723C85.0342 197.658 128.611 163.227 155.255 157.309Z"/><path transform="scale(2 2)" d="M155.255 157.309C156.884 128.108 192.623 114.11 213.19 134.006C262.564 112.098 292.248 184.204 239.617 200.613C240.126 202.084 240.615 203.633 241.28 205.035C257.732 203.679 260.339 200.14 272 191.581C294.41 176.409 314.279 176.522 338.785 183.052C393.874 197.731 428.971 250.902 423.577 307.169C423.134 311.791 419.307 313.151 415.236 312.394C409.369 310.29 411.797 303.017 411.688 298.244C412.08 249.072 381.074 205.833 332.216 194.554C312.494 190.001 296.722 189.454 278.933 202.345C266.139 211.643 261.476 215.969 243.806 217.306C243.96 232.342 231.266 229.108 231.117 219.44C230.909 205.879 218.806 197.219 222.203 191.364C224.613 187.209 228.955 188.873 232.892 188.712C255.404 188.425 262.656 156.913 242.698 145.927C231.009 139.592 216.276 143.158 209.907 155.17C205.386 163.696 207.786 168.098 210.263 176.411C208.059 185.454 198.657 184.038 196.525 174.962C166.328 180.844 116.307 205.538 99.566 233.486C96.3469 238.861 97.1624 247.588 103.715 249.996C106.64 251.079 110.688 250.643 113.848 250.613L131.323 250.552C137.62 250.54 145.093 248.839 147.323 256.399L147.425 256.755C144.974 266.614 127.976 262.964 118.845 263.068C119.755 263.733 120.558 264.278 121.505 264.889C122.593 265.624 123.97 266.64 125.14 267.153C128.54 269.932 138.754 274.06 142.927 275.651C163.311 283.419 177.946 290.392 192.575 307.035C211.984 282.406 221.357 297.453 215.634 303.597C213.856 305.506 211.033 306.602 208.947 308.157C199.576 315.715 196.539 329.356 201.674 340.156C204.012 345.074 210.696 349.009 205.631 354.599C202.416 358.147 175.345 356.693 170.138 356.248C168.569 356.114 166.766 353.859 165.884 352.658C162.863 339.743 180.82 343.566 188.887 343.563C185.335 332.347 187.124 331.44 186.513 320.956C178.779 304.229 146.768 289.406 128.554 283.561C124.746 284.576 102.046 280.393 97.2605 279.056C94.523 275.523 92.1505 273.373 87.6861 276.057C82.8542 273.585 73.3591 268.916 71.5364 263.942C77.5983 258.167 72.8165 250.005 64.1996 253.258C60.7479 247.042 60.9458 239.19 61.2659 232.154C54.2099 228.744 41.5116 226.865 39.7194 219.257C40.6562 214.97 41.9191 213.913 45.9858 212.683C51.9695 214.183 59.8165 218.176 66.7175 220.159C66.8382 219.604 67.3132 218.135 67.67 217.723C85.0342 197.658 128.611 163.227 155.255 157.309Z"/><path fill="#FEC302" transform="scale(2 2)" d="M155.255 157.309C154.786 164.135 155.337 167.696 157.929 173.985C134.702 185.472 94.5583 207.584 86.3804 231.612C82.555 242.852 86.3455 255.983 97.4864 261.202C102.128 263.377 103.387 265.086 106.673 268.878C114.643 278.073 121.926 278.223 128.554 283.561C124.746 284.576 102.046 280.393 97.2605 279.056C94.523 275.523 92.1505 273.373 87.6861 276.057C82.8542 273.585 73.3591 268.916 71.5364 263.942C77.5983 258.167 72.8165 250.005 64.1996 253.258C60.7479 247.042 60.9458 239.19 61.2659 232.154C54.2099 228.744 41.5116 226.865 39.7194 219.257C40.6562 214.97 41.9191 213.913 45.9858 212.683C51.9695 214.183 59.8165 218.176 66.7175 220.159C66.8382 219.604 67.3132 218.135 67.67 217.723C85.0342 197.658 128.611 163.227 155.255 157.309Z"/><path transform="scale(2 2)" d="M45.9858 212.683C51.9695 214.183 59.8165 218.176 66.7175 220.159C70.4236 221.946 72.278 222.927 73.3583 227.107C72.2591 230.832 70.6524 232.855 66.7175 233.778C64.8377 233.269 63.1221 232.746 61.2659 232.154C54.2099 228.744 41.5116 226.865 39.7194 219.257C40.6562 214.97 41.9191 213.913 45.9858 212.683Z"/><path fill="#FEC302" transform="scale(2 2)" d="M187.824 137.328C193.935 136.878 198.504 138.77 203.46 142.12C197.584 150.293 195.964 152.733 194.92 162.87C190.097 163.427 185.058 164.789 180.333 165.969C176.902 166.992 173.42 168.246 169.953 169.314C162.951 155.514 172.504 139.582 187.824 137.328Z"/><path transform="scale(2 2)" d="M291.417 343.563C260.935 315.244 276.698 263.812 318.106 261.135C325.525 260.656 329.419 266.973 323.794 272.554C321.188 274.686 316.668 274.106 313.589 274.913C278.08 284.222 281.275 335.667 315.76 342.385C317.727 342.768 321.455 343.128 323.155 343.997C329.039 347.004 327.14 356.338 320.471 356.459C315.755 356.545 311.04 356.33 306.319 356.359L265.89 356.362C262.052 356.36 254.79 355.954 251.41 356.747C244.645 358.335 242.928 372.995 258.743 373.064L318.103 373.019C326.602 373.017 340.521 369.678 340.427 380.811C339.425 383.423 338.321 384.374 335.992 385.749C330.92 386.071 322.143 385.756 316.796 385.752L141.039 385.84C121.362 386.361 112.72 362.752 126.172 349.278C132.172 343.269 148.185 339.048 147.425 351.757L147.292 352.063C144.979 357.265 141.015 355.536 136.737 357.679C130.914 360.595 131.682 370.403 137.447 372.507C140.295 373.546 147.576 373.039 150.787 373.036L235.446 373.032C230.84 359.444 235.688 345.772 251.638 343.674C255.658 343.146 261.287 343.552 265.448 343.553L291.417 343.563Z"/><path transform="scale(2 2)" d="M415.236 343.563C421.311 342.834 427.803 341.404 431.633 336.37C435.819 331.527 433.919 327.046 434.672 321.708C437.492 301.732 467.86 302.088 471.081 321.736C471.471 324.115 470.896 326.842 470.821 329.248C470.848 352.942 451.92 375.956 427.762 378.026C413.339 379.262 399.903 375.169 388.016 381.365C381.769 384.621 362.696 389.944 358.799 380.811C356.718 366.134 385.292 380.69 399.906 353.942C394.051 351.56 381.227 343.586 387.87 336.174C394.146 329.173 400.48 344.138 415.236 343.563Z"/><path fill="#FEC302" transform="scale(2 2)" d="M451.343 318.78C456.217 318.631 458.791 321.153 458.708 325.927C458.243 352.51 441.108 366.485 415.236 366.206C412.559 366.141 409.866 366.184 407.187 366.206C410.039 361.959 411.153 360.204 412.909 355.43C428.975 355.757 443.868 348.928 446.584 331.249C447.418 325.817 444.682 321.335 451.343 318.78Z"/><path transform="scale(2 2)" d="M314.153 206.741C345.546 205.09 378.016 234.54 387.335 263.126C388.734 267.415 386.391 270.144 382.191 271.087C375.452 270.671 375.165 265.095 372.665 259.967C362.894 239.924 343.85 224.035 321.671 220.066C316.933 219.218 309.108 220.022 308.175 213.76C307.601 209.693 310.386 207.217 314.153 206.741Z"/><path transform="scale(2 2)" d="M164.224 204.408C171.564 202.916 178.723 207.657 180.212 214.998C181.702 222.338 176.957 229.495 169.616 230.982C162.28 232.468 155.127 227.726 153.639 220.39C152.15 213.054 156.888 205.9 164.224 204.408Z"/><path transform="scale(2 2)" d="M64.1996 253.258C72.8165 250.005 77.5983 258.167 71.5364 263.942C63.4969 267.122 55.3581 271.14 47.1778 273.98C41.2183 276.05 37.3113 266.062 42.5445 262.668C49.3164 259.142 57.262 256.407 64.1996 253.258Z"/><path transform="scale(2 2)" d="M71.5364 179.589C78.2058 179.076 90.8143 194.189 77.753 196.943C71.4686 197.02 58.8828 182.951 71.5364 179.589Z"/><path transform="scale(2 2)" d="M87.6861 276.057C92.1505 273.373 94.523 275.523 97.2605 279.056C99.8471 288.354 83.7732 300.275 81.6461 287.799C80.9978 283.997 85.5009 278.976 87.6861 276.057Z"/></svg>