<?xml version="1.0" encoding="utf-8" ?><svg xmlns="http://www.w3.org/2000/svg" xmlns:xlink="http://www.w3.org/1999/xlink" width="1024" height="1024" viewBox="0 0 1024 1024"><path fill="#FEC302" transform="scale(2 2)" d="M226.587 95.9491C226.524 85.2278 224.912 69.0954 232.599 61.1158C241.21 52.1764 271.278 51.3433 280.39 60.4941C287.866 68.0022 286.384 77.5562 286.371 87.1824L286.358 117.543C292.992 111.316 305.046 96.9978 312.623 93.7494C332.923 85.0467 354.207 109.506 340.834 126.717C335.914 133.049 327.832 144.013 319.383 140.408C317.565 142.54 306.146 154.124 304.384 155.163C311.882 164.375 292.97 176.004 286.358 183.657L286.358 210.872C293.17 210.868 300.584 210.71 307.342 210.872C309.024 203.686 312.613 185.144 315.805 179.471C324.458 164.088 346.838 165.18 355.621 179.625C361.314 188.987 357.707 201.066 354.575 210.872C375.402 211.078 385.175 235.897 370.541 250.377C362.519 258.315 351.664 256.694 341.375 256.693L307.675 256.698C298.685 256.697 286.276 255.405 286.299 268.601C286.403 286.276 282.79 313.344 294.976 326.003C312.3 343.999 332.971 329.168 336.198 343.45L336.331 345.147C340.791 345.663 348.313 344.791 352.279 345.251C353.89 350.108 355.139 350.367 359.928 350.92L359.626 351.308C363.398 355.103 387.156 353.534 393.147 353.81C405.629 354.384 410.805 367.473 401.954 375.996C396.732 380.919 388.66 377.952 384.777 380.064C390.257 382.806 401.605 387.85 397.355 395.691C391.265 406.923 381.808 390.715 369.795 392.752C373.004 398.048 377.017 403.412 378.268 409.561C379.731 416.75 376.276 424.38 386.601 426.306C395.633 427.991 402.764 432.428 407.504 440.401C414.343 450.544 401.59 458.185 396.063 449.755C392.759 444.716 392.664 442.97 386.037 441.414C379.337 448.184 370.536 448.809 361.632 448.858L329.778 448.851C327.139 456.293 318.532 456.162 315.717 448.851C314.624 449.065 308.047 448.908 306.664 448.894L290.015 448.851C287.763 456.101 276.846 456.325 276.043 448.851C262.961 448.85 249.26 449.072 236.232 448.851C235.075 456.172 225.739 456.627 221.731 448.593C218.651 448.916 200.302 449.324 198.462 448.593C194.637 451.542 188.465 460.162 183.022 448.851C181.479 449.048 177.57 448.902 175.858 448.888L143.594 448.85C139.539 448.872 135.536 449.38 131.436 449.439C134.88 448.103 138.243 447.5 141.657 445.566C162.956 433.502 151.224 416.12 163.249 404.579C168.354 399.68 174.293 399.35 180.63 396.776C197.007 390.124 209.412 375.26 209.522 357.031C230.972 351.702 230.596 346.38 242.08 332.496C251.92 332.348 271.425 334.637 279.094 329.219C278.059 327.441 277.224 326.013 276.043 324.338C264.546 325.026 247.444 324.886 236.232 324.338C239.292 316.566 244.021 306.672 233.254 302.921C233.404 301.253 233.276 297.489 233.27 295.697L233.254 280.695C225.224 279.482 225.927 274.668 225.958 268.086L226.045 248.886C225.993 237.83 216.061 239.347 208.219 239.344L170.981 239.341C166.448 239.335 160.131 239.791 155.779 239.209C127.168 235.376 125.892 193.998 158.109 191.332C151.379 184.936 146.031 180.508 145.644 170.437C144.772 147.753 170.137 138.057 187.977 155.69C200.847 168.411 213.444 181.394 226.587 193.835L226.587 160.048C211.647 146.554 197.191 130.963 182.679 116.831C174.66 109.021 168.071 103.682 169.571 91.2902C171.603 74.5018 190.9 65.9823 204.887 75.1603C208.502 77.5324 224.02 92.6254 226.587 95.9491ZM234.975 206.699C237.23 208.024 238.229 208.545 240.68 209.402C242.716 208.293 245.902 206.239 246.105 203.652C246.997 192.258 246.915 173.89 246.057 162.463C245.853 159.853 242.68 157.455 240.68 156.034L240.688 183.7C240.684 192.849 242.852 201.095 234.975 206.699ZM237.125 279.858C236.664 282.344 236.784 283.238 237.125 285.652C241.217 286.458 244.523 284.38 245.828 280.312C246.846 277.136 246.598 252.096 246.175 247.601C245.695 242.492 243.45 239.177 238.349 237.589C241.146 245.451 242.11 271.876 239.823 276.641C239.225 277.886 238.167 278.967 237.125 279.858ZM243.017 367.501C238.956 374.851 230.57 379.625 227.082 386.242C222.249 395.41 225.655 404.637 221.731 415.625C225.215 419.131 227.575 421.816 230.601 425.772C230.841 424.441 230.613 420.799 230.651 419.219C231.211 397.358 228.975 395.737 244.39 380.455C249.524 375.365 249.706 370.726 243.017 367.501ZM158.109 224.866C156.267 213.843 158.266 211.877 167.249 206.699C162.337 206.559 155.288 205.369 151.6 208.987C145.695 214.78 149.854 224.602 158.109 224.866ZM240.114 113.351C248.464 114.994 246.35 107.588 246.411 102.375C246.562 89.4424 242.771 76.6059 253.753 68.8791C245.305 69.0162 240.706 69.0537 240.73 79.2504L240.713 104.178C240.723 106.905 241.062 111.012 240.114 113.351ZM164.455 161.879C165.535 162.467 173.643 163.439 175.01 163.398C171.904 160.265 168.358 159.954 164.455 161.879ZM189.643 103.475C189.586 93.7477 189.745 92.238 199.565 89.8074L200.027 89.6906C190.451 80.2481 175.032 89.6278 189.643 103.475Z"/><path fill="#A3CFEF" transform="scale(2 2)" d="M279.094 329.219C287.441 341.346 294.656 344.766 307.342 350.053C308.765 368.584 322.409 385.733 340.39 391.033C344.131 392.135 347.841 392.063 350.985 395.014C357.354 400.29 363.363 406.892 364.004 415.565C364.566 430.452 371.108 439.018 386.037 441.414C379.337 448.184 370.536 448.809 361.632 448.858L329.778 448.851C327.139 456.293 318.532 456.162 315.717 448.851C314.624 449.065 308.047 448.908 306.664 448.894L290.015 448.851C287.763 456.101 276.846 456.325 276.043 448.851C262.961 448.85 249.26 449.072 236.232 448.851C235.075 456.172 225.739 456.627 221.731 448.593C218.651 448.916 200.302 449.324 198.462 448.593C194.637 451.542 188.465 460.162 183.022 448.851C181.479 449.048 177.57 448.902 175.858 448.888L143.594 448.85C139.539 448.872 135.536 449.38 131.436 449.439C134.88 448.103 138.243 447.5 141.657 445.566C162.956 433.502 151.224 416.12 163.249 404.579C168.354 399.68 174.293 399.35 180.63 396.776C197.007 390.124 209.412 375.26 209.522 357.031C230.972 351.702 230.596 346.38 242.08 332.496C251.92 332.348 271.425 334.637 279.094 329.219ZM221.731 415.625C225.215 419.131 227.575 421.816 230.601 425.772C230.841 424.441 230.613 420.799 230.651 419.219C231.211 397.358 228.975 395.737 244.39 380.455C249.524 375.365 249.706 370.726 243.017 367.501C238.956 374.851 230.57 379.625 227.082 386.242C222.249 395.41 225.655 404.637 221.731 415.625Z"/><path transform="scale(2 2)" d="M183.022 448.851C181.161 441.938 186.529 438.81 191.529 435.362C208.258 423.824 208.11 409.826 210.304 391.603C211.633 380.902 222.573 365.483 231.54 359.3C237.557 355.702 244.637 360.532 243.017 367.501C238.956 374.851 230.57 379.625 227.082 386.242C222.249 395.41 225.655 404.637 221.731 415.625C225.215 419.131 227.575 421.816 230.601 425.772C235.132 433.435 237.177 439.805 236.232 448.851C235.075 456.172 225.739 456.627 221.731 448.593C218.651 448.916 200.302 449.324 198.462 448.593C194.637 451.542 188.465 460.162 183.022 448.851Z"/><path fill="#A3CFEF" transform="scale(2 2)" d="M215.67 432.019L216.168 431.332C220.515 432.567 221.432 445.376 221.731 448.593C218.651 448.916 200.302 449.324 198.462 448.593C204.981 443.092 208.557 441.748 214.308 433.951L215.67 432.019Z"/><path transform="scale(2 2)" d="M288.939 415.625C286.268 401.633 284.093 391.68 275.548 379.555C272.927 375.293 263.84 369.04 268.64 363.297C282.481 346.735 299.697 396.046 301.642 404.524C303.119 410.962 303.683 417.906 308.054 423.161C313.805 431.257 332.049 437.006 329.834 448.546L329.778 448.851C327.139 456.293 318.532 456.162 315.717 448.851C314.624 449.065 308.047 448.908 306.664 448.894L290.015 448.851C287.763 456.101 276.846 456.325 276.043 448.851C273.407 437.487 279.724 422.468 288.939 415.625Z"/><path fill="#A3CFEF" transform="scale(2 2)" d="M290.337 440.465C291.591 440.017 292.052 434.352 293.903 433.287C296.512 433.26 296.63 436.603 299.063 436.077L299.435 435.449C303.512 439.842 313.745 445.887 315.717 448.851C314.624 449.065 308.047 448.908 306.664 448.894L290.015 448.851C290.009 446.668 289.983 442.533 290.337 440.465Z"/><path fill="#BCDEF6" transform="scale(2 2)" d="M295.027 429.873C296.492 431.775 297.916 433.586 299.435 435.449L299.063 436.077C296.63 436.603 296.512 433.26 293.903 433.287C292.052 434.352 291.591 440.017 290.337 440.465C290.758 437.298 293.371 432.542 295.027 429.873Z"/><path transform="scale(2 2)" d="M276.043 324.338C271.927 313.986 271.737 311.132 271.802 300.362L271.841 285.378C271.87 245.363 276.041 242.184 317.659 242.2L343.481 242.189C349.999 242.201 366.305 243.88 362.328 231.176C358.744 219.731 340.247 231.067 338.553 219.834C337.521 212.995 345.466 194.144 343.855 188.32C342.067 181.852 332.807 180.808 329.051 185.998C326.316 189.777 323.244 207.08 322.077 212.524C318.776 227.915 316.988 224.944 304.8 224.883C300.615 224.862 277.426 225.786 275.065 224.234C269.733 220.73 271.864 210.807 271.857 205.526L271.817 189.766C271.776 174.08 272.719 176.496 283.07 166.209C288.57 160.742 296.388 148.636 304.384 155.163C311.882 164.375 292.97 176.004 286.358 183.657L286.358 210.872C293.17 210.868 300.584 210.71 307.342 210.872C309.024 203.686 312.613 185.144 315.805 179.471C324.458 164.088 346.838 165.18 355.621 179.625C361.314 188.987 357.707 201.066 354.575 210.872C375.402 211.078 385.175 235.897 370.541 250.377C362.519 258.315 351.664 256.694 341.375 256.693L307.675 256.698C298.685 256.697 286.276 255.405 286.299 268.601C286.403 286.276 282.79 313.344 294.976 326.003C312.3 343.999 332.971 329.168 336.198 343.45L336.331 345.147C340.791 345.663 348.313 344.791 352.279 345.251C353.89 350.108 355.139 350.367 359.928 350.92L359.626 351.308C363.398 355.103 387.156 353.534 393.147 353.81C405.629 354.384 410.805 367.473 401.954 375.996C396.732 380.919 388.66 377.952 384.777 380.064C390.257 382.806 401.605 387.85 397.355 395.691C391.265 406.923 381.808 390.715 369.795 392.752C373.004 398.048 377.017 403.412 378.268 409.561C379.731 416.75 376.276 424.38 386.601 426.306C395.633 427.991 402.764 432.428 407.504 440.401C414.343 450.544 401.59 458.185 396.063 449.755C392.759 444.716 392.664 442.97 386.037 441.414C371.108 439.018 364.566 430.452 364.004 415.565C363.363 406.892 357.354 400.29 350.985 395.014C347.841 392.063 344.131 392.135 340.39 391.033C322.409 385.733 308.765 368.584 307.342 350.053C294.656 344.766 287.441 341.346 279.094 329.219C278.059 327.441 277.224 326.013 276.043 324.338Z"/><path fill="#A3CFEF" transform="scale(2 2)" d="M336.198 343.45L336.331 345.147C340.791 345.663 348.313 344.791 352.279 345.251C353.89 350.108 355.139 350.367 359.928 350.92L359.626 351.308C363.398 355.103 387.156 353.534 393.147 353.81C405.629 354.384 410.805 367.473 401.954 375.996C396.732 380.919 388.66 377.952 384.777 380.064C380.534 378.381 377.485 376.693 372.762 377.289C350.474 380.099 327.115 376.771 322.002 350.92C328.837 351.448 335.072 352.263 336.198 343.45Z"/><path transform="scale(2 2)" d="M226.587 95.9491C226.524 85.2278 224.912 69.0954 232.599 61.1158C241.21 52.1764 271.278 51.3433 280.39 60.4941C287.866 68.0022 286.384 77.5562 286.371 87.1824L286.358 117.543C292.992 111.316 305.046 96.9978 312.623 93.7494C332.923 85.0467 354.207 109.506 340.834 126.717C335.914 133.049 327.832 144.013 319.383 140.408C308.297 130.513 329.141 123.303 330.124 114.438C330.754 108.757 321.997 103.598 317.65 107.511C306.481 117.566 295.985 128.596 285.232 139.125C280.984 143.294 275.466 142.439 272.614 136.981C271.473 134.283 271.827 125.466 271.826 122.3L271.833 89.8962C271.881 70.1064 275.612 68.8438 253.753 68.8791C245.305 69.0162 240.706 69.0537 240.73 79.2504L240.713 104.178C240.723 106.905 241.062 111.012 240.114 113.351C236.903 117.123 232.566 119.238 228.371 115.934C218.458 108.124 209.528 97.9644 200.027 89.6906C190.451 80.2481 175.032 89.6278 189.643 103.475C193.63 107.896 198.221 112.345 202.458 116.574L224.442 138.254C228.499 142.222 238.87 151.386 240.68 156.034L240.688 183.7C240.684 192.849 242.852 201.095 234.975 206.699C222.542 214.166 213.183 201.187 205.195 193.301L183.229 171.424C181.263 169.465 177.085 164.875 175.01 163.398C171.904 160.265 168.358 159.954 164.455 161.879C155.185 168.07 162.253 175.606 167.955 181.247L177.46 190.594C180.232 193.307 183.959 196.053 183.252 200.433C181.904 208.774 173.527 206.486 167.249 206.699C162.337 206.559 155.288 205.369 151.6 208.987C145.695 214.78 149.854 224.602 158.109 224.866L198.058 224.857C214.324 224.856 228.388 221.672 238.349 237.589C241.146 245.451 242.11 271.876 239.823 276.641C239.225 277.886 238.167 278.967 237.125 279.858C235.496 280.345 234.972 280.486 233.254 280.695C225.224 279.482 225.927 274.668 225.958 268.086L226.045 248.886C225.993 237.83 216.061 239.347 208.219 239.344L170.981 239.341C166.448 239.335 160.131 239.791 155.779 239.209C127.168 235.376 125.892 193.998 158.109 191.332C151.379 184.936 146.031 180.508 145.644 170.437C144.772 147.753 170.137 138.057 187.977 155.69C200.847 168.411 213.444 181.394 226.587 193.835L226.587 160.048C211.647 146.554 197.191 130.963 182.679 116.831C174.66 109.021 168.071 103.682 169.571 91.2902C171.603 74.5018 190.9 65.9823 204.887 75.1603C208.502 77.5324 224.02 92.6254 226.587 95.9491Z"/><path transform="scale(2 2)" d="M233.254 302.921C244.021 306.672 239.292 316.566 236.232 324.338C229.582 338.99 217.588 347.168 201.995 350.053C201.786 362.254 198.505 371.251 189.715 379.828C176.244 392.973 161.091 388.349 151.911 404.639C149.688 408.583 147.834 413.098 147.905 417.872C148.135 444.343 126.768 435.909 118.888 445.635C115.599 449.928 110.874 457.27 104.709 450.56C99.206 444.57 106.438 436.941 110.879 432.963C118.506 426.132 127.631 427.381 131.572 424.577C132.849 423.668 134.058 402.731 142.496 392.752C130.501 391.377 122.441 404.148 115.833 396.287C108.184 387.189 125.134 381.061 131.436 379.41C130.47 378.862 128.884 378.629 127.763 378.377C115.098 375.53 114.012 367.944 114.242 357.031L158.207 357.036C166.245 357.045 179.104 357.454 186.591 356.177C186.87 354.424 187.121 352.677 187.373 350.92L110.98 350.909C102.161 350.842 97.7293 336.014 114.062 336.149L174.278 336.223C193.358 336.221 216.806 338.568 224.135 315.087C226.133 308.685 224.277 303.903 233.254 302.921Z"/><path fill="#A3CFEF" transform="scale(2 2)" d="M114.242 357.031L158.207 357.036C166.245 357.045 179.104 357.454 186.591 356.177C177.856 385.135 152.391 374.487 131.436 379.41C130.47 378.862 128.884 378.629 127.763 378.377C115.098 375.53 114.012 367.944 114.242 357.031Z"/><path transform="scale(2 2)" d="M352.279 345.251C351.955 342.032 352.928 337.419 356.392 336.85C365.332 335.528 393.637 335.508 402.991 336.637C410.838 337.583 411.055 351.075 400.111 351.071L373.835 350.926C370.992 350.928 362.329 351.166 359.928 350.92C355.139 350.367 353.89 350.108 352.279 345.251Z"/></svg>