<?xml version="1.0" encoding="utf-8" ?><svg xmlns="http://www.w3.org/2000/svg" xmlns:xlink="http://www.w3.org/1999/xlink" width="1024" height="1024" viewBox="0 0 1024 1024"><path transform="scale(2 2)" d="M238.244 306.506L151.337 301.664C126.445 300.301 122.072 292.738 134.481 270.456L234.096 93.5912C238.777 85.4189 251.993 87.1618 252.87 97.1209C253.183 100.927 253.003 105.027 252.978 108.836C304.517 154.69 349.187 224.657 355.633 293.688C357.301 311.546 341.313 312.04 329.176 311.263L279.211 308.491C269.833 307.994 260.909 307.359 251.489 307.124C251.48 315.094 251.299 323.75 251.489 331.666C260.704 331.935 271.347 331.666 280.673 331.666L339.534 331.661C347.708 331.659 357.868 331.372 365.867 331.666C369.161 317.713 378.035 315.613 391.133 315.737C396.056 315.783 405.541 316.62 402.901 324.46C400.89 330.43 393.886 329.753 388.624 329.375C378.175 328.625 380.074 332.703 378.067 341.055C374.466 356.036 366.771 362.252 362.435 373.341C365.792 373.87 371.365 374.405 374.254 375.54C383.558 379.195 395.103 385.265 405.958 380.393C411.825 378.217 422.456 369.821 427.9 376.538C434.572 384.772 420.279 388.641 415.281 391.331C417.094 392.175 419.551 392.064 421.314 393.481C436.983 406.116 389.108 412.059 383.833 412.757C380.296 413.224 378.493 413.59 376.505 416.628C381.37 418.411 386.4 420.297 384.077 427.038C381.192 435.414 370.883 428.392 366.512 427.835C353.428 426.167 349.697 429.156 337.96 433.684C331.783 436.067 323.989 435.596 317.41 435.409C309.106 435.172 302.608 429.811 294.893 428.107C281.335 425.113 275.275 430.554 264.062 434.009C257.701 435.969 250.305 435.302 243.73 435.202C227.741 434.957 221.095 419.823 197.386 431.617C188.099 436.236 181.454 435.392 171.281 435.469C158.786 435.564 152.362 425.596 133.232 427.975C127.687 428.665 121.416 434.118 115.942 431.639C110.086 428.986 111.442 421.588 118.114 418.964C111.872 415.029 100.334 411.195 93.3964 409.117C88.473 407.485 69.8774 403.13 75.2443 394.749C78.2213 390.1 81.08 392.329 84.4762 391.331C78.8939 386.503 74.6964 387.495 71.1114 384.705C68.2444 382.474 68.8483 376.736 71.5229 374.875C77.9471 370.405 87.6783 378.032 93.2993 380.76C97.7244 382.908 109.028 382.447 113.401 381.271C127.002 377.613 124.451 371.909 145.716 373.341C141.54 367.63 130.932 356.921 129.358 350.875C125.467 335.928 137.477 331.644 149.217 331.65L181.057 331.651C187.494 331.639 196.773 329.661 198.395 337.999C202.282 338.064 211.479 337.658 214.605 337.999C216.34 328.512 230.678 331.785 238.244 331.666C238.271 323.332 238.333 314.833 238.244 306.506ZM159.366 288.734C160.897 283.463 177.358 255.897 181.04 249.418L216.688 185.629C223.664 173.096 231.869 159.22 238.244 146.455C238.679 143.586 238.278 138.973 238.263 135.819L238.244 112.901C236.719 116.668 230.909 126.003 228.643 129.909L147.389 274.014C136.727 292.809 138.88 287.171 159.366 288.734Z"/><path fill="#BCDEF6" transform="scale(2 2)" d="M84.4762 391.331C87.4744 392.156 90.2336 393.895 93.3029 394.457C98.1511 395.343 112.383 395.289 116.747 393.976C128.618 390.404 129.718 385.594 143.049 386.446C150.757 386.407 157.008 391.23 164.167 393.37C173.782 396.245 190.011 395.321 198.556 390.498C213.112 382.282 220.986 387.418 234.143 392.51C244.322 396.45 260.329 395.406 270.068 390.655C287.918 381.946 292.769 388.037 308.589 393.132C316.951 395.825 331.669 395.744 339.906 392.051C359.197 383.403 359.983 386.026 378.754 392.479C390.705 396.587 403.706 396.064 415.281 391.331C417.094 392.175 419.551 392.064 421.314 393.481C436.983 406.116 389.108 412.059 383.833 412.757C380.296 413.224 378.493 413.59 376.505 416.628C381.37 418.411 386.4 420.297 384.077 427.038C381.192 435.414 370.883 428.392 366.512 427.835C353.428 426.167 349.697 429.156 337.96 433.684C331.783 436.067 323.989 435.596 317.41 435.409C309.106 435.172 302.608 429.811 294.893 428.107C281.335 425.113 275.275 430.554 264.062 434.009C257.701 435.969 250.305 435.302 243.73 435.202C227.741 434.957 221.095 419.823 197.386 431.617C188.099 436.236 181.454 435.392 171.281 435.469C158.786 435.564 152.362 425.596 133.232 427.975C127.687 428.665 121.416 434.118 115.942 431.639C110.086 428.986 111.442 421.588 118.114 418.964C111.872 415.029 100.334 411.195 93.3964 409.117C88.473 407.485 69.8774 403.13 75.2443 394.749C78.2213 390.1 81.08 392.329 84.4762 391.331Z"/><path transform="scale(2 2)" d="M118.114 418.964C130.426 414.622 144.041 411.536 156.886 416.981C177.124 425.559 178.684 423.853 197.404 416.743C204.84 413.919 222.644 413.24 230.572 416.604C252.502 425.911 249.293 423.304 270.626 416.688C279.607 413.903 294.934 413.674 303.871 416.822C323.654 423.789 322.529 425.428 343.11 416.789C351.864 413.591 367.612 413.759 376.505 416.628C381.37 418.411 386.4 420.297 384.077 427.038C381.192 435.414 370.883 428.392 366.512 427.835C353.428 426.167 349.697 429.156 337.96 433.684C331.783 436.067 323.989 435.596 317.41 435.409C309.106 435.172 302.608 429.811 294.893 428.107C281.335 425.113 275.275 430.554 264.062 434.009C257.701 435.969 250.305 435.302 243.73 435.202C227.741 434.957 221.095 419.823 197.386 431.617C188.099 436.236 181.454 435.392 171.281 435.469C158.786 435.564 152.362 425.596 133.232 427.975C127.687 428.665 121.416 434.118 115.942 431.639C110.086 428.986 111.442 421.588 118.114 418.964Z"/><defs><linearGradient id="gradient_0" gradientUnits="userSpaceOnUse" x1="251.07671" y1="382.74475" x2="252.17516" y2="339.47546"><stop offset="0" stop-color="#F79607"/><stop offset="1" stop-color="#F9C70B"/></linearGradient></defs><path fill="url(#gradient_0)" transform="scale(2 2)" d="M198.395 337.999C202.282 338.064 211.479 337.658 214.605 337.999C216.999 348.91 233.086 345.142 243.124 345.143L335.309 345.141C343.803 345.141 354.079 345.423 362.435 345.142C360.22 350.835 347.836 372.273 343.511 375.573C340.922 377.549 334.661 379.95 331.551 380.797C315.145 385.262 310.516 377.59 297.639 374.372C273.248 368.278 265.23 383.267 244.27 381.442C239.063 380.989 234.408 377.029 229.594 375.184C222.177 372.341 207.829 372.512 200.046 374.83C188.677 378.216 186.405 383.085 172.744 381.299C163.818 380.132 163.533 376.364 158.64 369.45C153.684 362.449 148.382 355.84 143.208 349.024C138.86 343.297 148.529 345.1 150.991 345.127C162.881 345.26 179.662 346.051 191.259 344.908C195.443 344.496 197.594 342.635 198.34 338.335L198.395 337.999Z"/><path fill="#FEC302" transform="scale(2 2)" d="M261.543 136.181C265.81 138.679 274.73 150.375 278.283 154.627C307.579 189.685 331.231 232.913 339.283 278.175C343.796 303.547 345.425 298.231 319.688 297.184C307.419 296.125 293.945 295.947 281.501 295.287L264.075 294.308C259.82 294.08 255.748 293.74 251.489 294.067C251.519 286.45 252.627 287.209 256.043 280.622C280.002 234.425 280.414 184.496 261.543 136.181Z"/><path fill="#BCDEF6" transform="scale(2 2)" d="M159.366 288.734C160.897 283.463 177.358 255.897 181.04 249.418L216.688 185.629C223.664 173.096 231.869 159.22 238.244 146.455C238.528 150.492 238.25 157.479 238.247 161.807L238.244 293.052L172.248 289.64C168.255 289.464 163.19 289.396 159.366 288.734Z"/><path fill="#BCDEF6" transform="scale(2 2)" d="M251.489 147.678C251.763 147.959 251.839 147.97 251.966 148.304C263.765 179.253 265.028 217.153 254.417 248.346C253.632 250.812 252.743 253.453 251.489 255.722C251.714 252.48 251.509 247.2 251.5 243.758L251.489 147.678Z"/><path fill="#FEC302" transform="scale(2 2)" d="M360.838 135.27C351.631 134.992 352.327 125.218 354.335 118.684C361.763 94.5197 397.697 92.1874 409.204 113.914C412.184 119.542 414.235 126.586 407.46 129.91C399.339 148.842 376.239 155.151 363.442 138.735C362.628 137.69 361.698 136.227 360.838 135.27Z"/><path transform="scale(2 2)" d="M360.838 135.27C351.631 134.992 352.327 125.218 354.335 118.684C361.763 94.5197 397.697 92.1874 409.204 113.914C412.184 119.542 414.235 126.586 407.46 129.91C397.761 130.595 400.948 125.489 397.924 120.078C391.216 108.077 369.614 109.052 366.611 123.53C365.282 129.938 367.722 131.766 360.838 135.27Z"/><path transform="scale(2 2)" d="M428.908 127.759C438.633 127.455 453.994 140.846 441.373 144.712C434.582 146.029 414.547 134.72 428.908 127.759Z"/><path transform="scale(2 2)" d="M424.934 87.5332C430.427 87.3099 432.02 91.0351 431.709 95.7899C429.784 99.1862 423.324 104.733 419.415 105.454C405.497 103.534 416.184 89.5543 424.934 87.5332Z"/><path transform="scale(2 2)" d="M339.215 87.5332C344.461 86.9095 360.717 97.3621 347.869 105.454C342.259 105.181 334.94 98.4126 333.616 93.2275C334.703 89.5523 335.543 88.563 339.215 87.5332Z"/><path transform="scale(2 2)" d="M380.853 69.7838C392.179 68.5614 391.836 87.3867 384.634 90.1362C374.642 92.4881 373.456 73.5634 380.853 69.7838Z"/><path transform="scale(2 2)" d="M389.255 426.777C396.495 424.345 408.401 437.854 396.528 441.837C387.975 444.068 376.225 430.082 389.255 426.777Z"/><path transform="scale(2 2)" d="M104.939 426.777C113.353 426.235 116.678 438.688 104.109 440.884C95.204 441.271 92.6941 430.401 104.939 426.777Z"/></svg>