<?xml version="1.0" encoding="utf-8" ?><svg xmlns="http://www.w3.org/2000/svg" xmlns:xlink="http://www.w3.org/1999/xlink" width="1024" height="1024" viewBox="0 0 1024 1024"><path fill="#BCDEF6" transform="scale(2 2)" d="M218.57 159.828C215.342 151.848 221.058 150.628 227.255 148.029C288.385 122.389 358.976 159.691 379.263 221.034C384.88 237.911 385.959 249.892 385.499 267.877C399.112 265.716 417.665 279.722 407.74 288.361L407.758 288.677C408.028 294.082 406.79 310.187 407.917 314.43L409.509 314.732C425.029 311.765 426.136 300.251 443.978 299.236C450.751 298.85 453.117 308.694 446.952 310.811C442.106 312.475 440.241 310.895 435.969 314.732C436.774 314.995 437.031 314.957 437.853 314.918C439.22 316.127 438.752 336.916 438.141 339.766C440.494 339.537 442.547 339.244 444.908 339.406C450.179 339.769 452.318 345.957 448.877 349.713C446.578 352.223 441.857 351.884 438.655 352.28C438.654 355.304 438.275 379.944 438.655 381.154C446.408 379.922 454.978 383.833 448.961 391.018C446.124 394.405 442.329 392.674 438.655 393.258C439.039 402.191 433.136 402.195 425.502 401.19C410.451 410.849 400.566 407.379 385.499 403.749C379.005 404.101 369.237 403.747 362.417 403.748L314.958 403.749C315.704 399.601 314.789 398.472 311.579 396.057C308.873 395.311 307.557 395.223 304.745 396.057C302.261 398.501 301.184 400.148 301.809 403.749C292.827 404.091 281.273 403.747 272.031 403.748L211.686 403.749L211.682 403.457C211.606 399.646 210.741 398.505 208.179 396.057C205.434 395.224 204.267 395.252 201.399 396.057C199.329 398.148 198.182 399.835 198.221 402.894L198.24 403.749C192.779 403.511 185.609 403.748 180 403.749L143.405 403.738C140.709 403.738 127.855 404.034 126.239 403.749C111.589 407.082 103.873 409.778 88.3677 402.785C81.3539 405.197 74.9396 400.111 74.2376 393.258C72.4113 393.222 70.0362 393.173 68.1476 393.209C61.3517 393.341 55.0925 379.056 74.2376 381.154L74.2376 352.28C71.7341 351.796 69.3203 352.064 66.7609 351.712C61.6903 351.016 55.15 339.148 74.2376 339.766C73.5753 334.158 74.0404 318.119 74.6999 312.879L74.4431 312.732C69.8412 310.142 63.8073 313.553 61.9182 307.001C61.0051 303.834 63.4961 300.118 66.6796 299.671C85.1615 297.072 89.0659 317.788 115.044 314.732C111.624 313.919 111.602 310.633 110.928 307.574C111.378 306.28 111.991 305.296 111.728 304.069C106.627 306.863 102.903 303.963 101.577 298.876C102.74 294.282 107.275 289.694 110.199 285.833C123.428 268.36 121.52 267.852 142.968 267.871L161.211 267.877C161.391 264.72 161.058 261.406 161.587 258.262L161.651 257.894L161.211 257.367C135.913 264.387 165.702 200.586 170.443 193.283C173.695 188.276 177.257 188.382 181.833 191.932C184.594 186.842 188.138 182.46 192.408 178.565C183.689 170.631 200.012 158.294 206.471 166.235C207.84 165.739 216.198 160.972 218.57 159.828Z"/><path fill="#75B2F3" transform="scale(2 2)" d="M74.2376 339.766C78.2697 340.691 81.7611 341.777 85.2744 344.002C97.0067 351.429 93.5731 353.06 108.41 353.282C119.837 353.517 123.145 347.737 131.655 342.11C146.332 332.406 170.516 333.312 184.327 344.102C186.804 346.037 189.25 348.169 191.881 349.885C199.383 354.716 213.833 354.274 221.374 349.479C224.681 347.37 227.458 344.381 230.797 342.117C244.127 333.075 266.686 333.03 280.287 342.154C284.838 345.207 289.422 350.032 294.824 351.494C314.212 356.74 317.667 350.212 330.804 341.641C345.86 331.645 368.29 333.446 382.533 344.163C384.63 345.741 386.717 347.559 388.841 349.104C395.786 354.156 410.628 354.566 417.926 349.749C425.825 344.535 428.315 342.338 438.141 339.766C440.494 339.537 442.547 339.244 444.908 339.406C450.179 339.769 452.318 345.957 448.877 349.713C446.578 352.223 441.857 351.884 438.655 352.28C438.654 355.304 438.275 379.944 438.655 381.154C446.408 379.922 454.978 383.833 448.961 391.018C446.124 394.405 442.329 392.674 438.655 393.258C439.039 402.191 433.136 402.195 425.502 401.19C410.451 410.849 400.566 407.379 385.499 403.749C379.005 404.101 369.237 403.747 362.417 403.748L314.958 403.749C315.704 399.601 314.789 398.472 311.579 396.057C308.873 395.311 307.557 395.223 304.745 396.057C302.261 398.501 301.184 400.148 301.809 403.749C292.827 404.091 281.273 403.747 272.031 403.748L211.686 403.749L211.682 403.457C211.606 399.646 210.741 398.505 208.179 396.057C205.434 395.224 204.267 395.252 201.399 396.057C199.329 398.148 198.182 399.835 198.221 402.894L198.24 403.749C192.779 403.511 185.609 403.748 180 403.749L143.405 403.738C140.709 403.738 127.855 404.034 126.239 403.749C111.589 407.082 103.873 409.778 88.3677 402.785C81.3539 405.197 74.9396 400.111 74.2376 393.258C72.4113 393.222 70.0362 393.173 68.1476 393.209C61.3517 393.341 55.0925 379.056 74.2376 381.154L74.2376 352.28C71.7341 351.796 69.3203 352.064 66.7609 351.712C61.6903 351.016 55.15 339.148 74.2376 339.766Z"/><path transform="scale(2 2)" d="M74.2376 339.766C78.2697 340.691 81.7611 341.777 85.2744 344.002C97.0067 351.429 93.5731 353.06 108.41 353.282C119.837 353.517 123.145 347.737 131.655 342.11C146.332 332.406 170.516 333.312 184.327 344.102C186.804 346.037 189.25 348.169 191.881 349.885C199.383 354.716 213.833 354.274 221.374 349.479C224.681 347.37 227.458 344.381 230.797 342.117C244.127 333.075 266.686 333.03 280.287 342.154C284.838 345.207 289.422 350.032 294.824 351.494C314.212 356.74 317.667 350.212 330.804 341.641C345.86 331.645 368.29 333.446 382.533 344.163C384.63 345.741 386.717 347.559 388.841 349.104C395.786 354.156 410.628 354.566 417.926 349.749C425.825 344.535 428.315 342.338 438.141 339.766C440.494 339.537 442.547 339.244 444.908 339.406C450.179 339.769 452.318 345.957 448.877 349.713C446.578 352.223 441.857 351.884 438.655 352.28C430.054 354.986 427.418 359.099 420.642 362.216C410.148 367.045 391.675 366.108 382.038 359.248C376.842 355.549 372.626 351.418 366.555 349.215C344.594 341.246 338.459 354.599 323.653 361.696C312.191 367.191 293.894 366.361 283.178 359.611C277.461 356.009 274.564 352.144 267.228 349.598C244.13 341.582 238.902 355.177 224.1 361.914C212.957 366.986 195.036 366.932 184.73 359.94C172.582 351.699 170.725 347.49 154.805 347.804C137.446 348.148 136.103 357.16 124.151 362.503C114.348 366.885 97.5223 367.188 88.2967 361.15C83.5184 358.022 79.7349 354.346 74.2376 352.28C71.7341 351.796 69.3203 352.064 66.7609 351.712C61.6903 351.016 55.15 339.148 74.2376 339.766Z"/><path transform="scale(2 2)" d="M74.2376 381.154C88.7438 382.992 88.5752 393.637 109.033 394.791C125.606 395.93 130.68 374.582 162.84 378.798C170.222 379.766 191.462 385.009 181.833 396.057C184.609 396.71 197.654 396.054 201.399 396.057C199.329 398.148 198.182 399.835 198.221 402.894L198.24 403.749C192.779 403.511 185.609 403.748 180 403.749L143.405 403.738C140.709 403.738 127.855 404.034 126.239 403.749C111.589 407.082 103.873 409.778 88.3677 402.785C81.3539 405.197 74.9396 400.111 74.2376 393.258C72.4113 393.222 70.0362 393.173 68.1476 393.209C61.3517 393.341 55.0925 379.056 74.2376 381.154Z"/><path fill="#1484F2" transform="scale(2 2)" d="M126.239 403.749C141.852 390.781 155.517 385.262 175.603 396.305C177.548 397.374 179.799 396.996 181.833 396.057C184.609 396.71 197.654 396.054 201.399 396.057C199.329 398.148 198.182 399.835 198.221 402.894L198.24 403.749C192.779 403.511 185.609 403.748 180 403.749L143.405 403.738C140.709 403.738 127.855 404.034 126.239 403.749Z"/><path fill="#75B2F3" transform="scale(2 2)" d="M74.2376 393.258C79.6447 396.243 83.4478 399.105 88.3677 402.785C81.3539 405.197 74.9396 400.111 74.2376 393.258Z"/><path transform="scale(2 2)" d="M328.926 396.057C318.033 381.61 363.725 368.507 386.921 389.802C391.188 393.689 395.844 394.06 401.437 394.847C418.162 397.197 422.829 383.505 438.655 381.154C446.408 379.922 454.978 383.833 448.961 391.018C446.124 394.405 442.329 392.674 438.655 393.258C439.039 402.191 433.136 402.195 425.502 401.19C410.451 410.849 400.566 407.379 385.499 403.749C379.005 404.101 369.237 403.747 362.417 403.748L314.958 403.749C315.704 399.601 314.789 398.472 311.579 396.057C317.031 396.037 323.612 396.305 328.926 396.057Z"/><path fill="#1484F2" transform="scale(2 2)" d="M328.926 396.057C336.854 398.9 335.743 396.434 342.599 393.245C361.16 385.907 371.615 393.177 385.499 403.749C379.005 404.101 369.237 403.747 362.417 403.748L314.958 403.749C315.704 399.601 314.789 398.472 311.579 396.057C317.031 396.037 323.612 396.305 328.926 396.057Z"/><path fill="#75B2F3" transform="scale(2 2)" d="M425.502 401.19C429.055 397.891 434.317 395.37 438.655 393.258C439.039 402.191 433.136 402.195 425.502 401.19Z"/><path fill="#1484F2" transform="scale(2 2)" d="M231.555 397.141L231.895 397.062C234.276 396.496 237.032 394.924 239.359 393.907C262.585 383.759 274.793 398.823 283.429 396.057C289.88 396.201 298.696 395.705 304.745 396.057C302.261 398.501 301.184 400.148 301.809 403.749C292.827 404.091 281.273 403.747 272.031 403.748L211.686 403.749L211.682 403.457C211.606 399.646 210.741 398.505 208.179 396.057C213.671 395.594 222.83 396.645 227.981 396.057C229.201 396.461 230.299 396.838 231.555 397.141Z"/><path transform="scale(2 2)" d="M227.981 396.057C222.537 389.005 227.326 385.908 233.448 382.983C244.085 377.9 255.489 377.295 266.997 379.193C274.455 380.477 292.493 385.805 283.429 396.057C274.793 398.823 262.585 383.759 239.359 393.907C237.032 394.924 234.276 396.496 231.895 397.062L231.555 397.141C230.299 396.838 229.201 396.461 227.981 396.057Z"/><path fill="#FEC302" transform="scale(2 2)" d="M218.57 159.828C215.342 151.848 221.058 150.628 227.255 148.029C288.385 122.389 358.976 159.691 379.263 221.034C384.88 237.911 385.959 249.892 385.499 267.877C399.112 265.716 417.665 279.722 407.74 288.361C397.949 290.237 399.888 281.491 391.546 279.947C390.43 279.741 382.118 280.029 380.198 280.032L363.294 280.04C331.92 280.029 306.969 265.669 298.419 233.356C297.237 228.891 297.445 224.324 296.484 219.89C295.078 213.4 267.185 227.831 261.457 230.243L261.186 230.354L261.604 230.611C261.308 231.433 247.61 240.14 245.489 241.692C243.262 246.926 240.132 246.745 235.909 244.009C232.398 248.093 229.061 255.829 226.464 258.849C216.847 252.59 219.394 268.899 202.811 267.877C198.584 268.03 193.77 267.893 189.501 267.885L166.01 267.877C164.339 267.925 162.884 267.92 161.211 267.877C161.391 264.72 161.058 261.406 161.587 258.262L161.651 257.894L161.211 257.367C135.913 264.387 165.702 200.586 170.443 193.283C173.695 188.276 177.257 188.382 181.833 191.932C184.594 186.842 188.138 182.46 192.408 178.565C183.689 170.631 200.012 158.294 206.471 166.235C207.84 165.739 216.198 160.972 218.57 159.828Z"/><path transform="scale(2 2)" d="M218.57 159.828C215.342 151.848 221.058 150.628 227.255 148.029C288.385 122.389 358.976 159.691 379.263 221.034C384.88 237.911 385.959 249.892 385.499 267.877C399.112 265.716 417.665 279.722 407.74 288.361C397.949 290.237 399.888 281.491 391.546 279.947C390.43 279.741 382.118 280.029 380.198 280.032L363.294 280.04C331.92 280.029 306.969 265.669 298.419 233.356C297.237 228.891 297.445 224.324 296.484 219.89C295.078 213.4 267.185 227.831 261.457 230.243L261.186 230.354C258.491 229.314 256.421 227.378 255.488 224.616C255.461 212.885 289.891 205.961 298.302 205.514C300.055 206.656 308.067 213.631 308.082 215.199C308.285 236.187 318.24 254.697 337.855 263.586C349.502 268.864 360.298 267.9 372.661 267.877C377.63 192.726 304.835 129.857 233.264 158.849C230.329 160.038 227.353 161.734 224.295 162.51L223.937 162.599C221.229 162.015 220.545 161.632 218.57 159.828Z"/><path transform="scale(2 2)" d="M161.211 257.367C135.913 264.387 165.702 200.586 170.443 193.283C173.695 188.276 177.257 188.382 181.833 191.932C183.634 197.368 180.53 198.829 178.687 203.199C171.795 214.68 167.349 227.911 165.128 241.079C164.354 245.663 164.484 251.83 162.69 255.738C162.087 256.146 161.668 256.784 161.211 257.367Z"/><path fill="#F59400" transform="scale(2 2)" d="M172.461 267.877C173.15 257.719 174.052 248.294 177.815 238.76C178.639 243.944 184.84 246.761 188.039 243.051C189.022 247.375 187.935 262.24 188.039 267.877C190.299 267.873 201.547 267.671 202.811 267.877C198.584 268.03 193.77 267.893 189.501 267.885L166.01 267.877L166.54 267.877C168.756 267.771 170.246 267.768 172.461 267.877Z"/><defs><linearGradient id="gradient_0" gradientUnits="userSpaceOnUse" x1="165.05917" y1="233.20692" x2="177.42892" y2="238.63487"><stop offset="0" stop-color="#FFD064"/><stop offset="1" stop-color="#F7E3A4"/></linearGradient></defs><path fill="url(#gradient_0)" transform="scale(2 2)" d="M178.687 203.199C178.984 203.506 179.303 203.638 179.213 204.031C174.555 224.373 166.92 244.882 166.54 266L166.54 267.877L166.01 267.877C164.339 267.925 162.884 267.92 161.211 267.877C161.391 264.72 161.058 261.406 161.587 258.262L161.651 257.894L161.211 257.367C161.668 256.784 162.087 256.146 162.69 255.738C164.484 251.83 164.354 245.663 165.128 241.079C167.349 227.911 171.795 214.68 178.687 203.199Z"/><path fill="#F8DCA9" transform="scale(2 2)" d="M162.69 255.738L162.821 256.038C161.128 258.217 161.754 263.217 161.747 266C164.58 265.875 165.04 267.557 166.54 266L166.54 267.877L166.01 267.877C164.339 267.925 162.884 267.92 161.211 267.877C161.391 264.72 161.058 261.406 161.587 258.262L161.651 257.894L161.211 257.367C161.668 256.784 162.087 256.146 162.69 255.738Z"/><path transform="scale(2 2)" d="M177.815 238.76C178.64 235.327 180.088 227.258 183.405 225.457C187.792 223.075 191.066 226.023 192.408 230.354C191.402 234.893 190.936 239.482 188.039 243.051C184.84 246.761 178.639 243.944 177.815 238.76Z"/><path transform="scale(2 2)" d="M192.408 178.565C183.689 170.631 200.012 158.294 206.471 166.235C208.181 174.194 199.063 181.149 192.408 178.565Z"/><path fill="white" transform="scale(2 2)" d="M255.488 224.616C256.421 227.378 258.491 229.314 261.186 230.354L261.604 230.611C261.308 231.433 247.61 240.14 245.489 241.692C245.258 238.604 244.593 237.949 242.465 235.8C247.02 231.309 251.507 228.452 255.488 224.616Z"/><path fill="#F59400" transform="scale(2 2)" d="M239.31 235.8C240.384 235.721 241.391 235.772 242.465 235.8C244.593 237.949 245.258 238.604 245.489 241.692C243.262 246.926 240.132 246.745 235.909 244.009C234.693 240.291 236.133 237.87 239.31 235.8Z"/><path transform="scale(2 2)" d="M263.63 164.586C268.532 163.035 272.623 166.361 271.665 171.482C270.339 177.507 261.34 176.451 256.729 177.115C237.025 179.954 219.34 190.837 206.676 206.022C204.14 209.064 201.663 213.718 198.24 215.958C192.544 217.814 187.331 212.639 191.054 206.709C205.03 184.444 236.425 162.903 263.63 164.586Z"/><path fill="#BCDEF6" transform="scale(2 2)" d="M261.186 230.354L261.457 230.243C267.185 227.831 295.078 213.4 296.484 219.89C297.445 224.324 297.237 228.891 298.419 233.356C306.969 265.669 331.92 280.029 363.294 280.04L380.198 280.032C382.118 280.029 390.43 279.741 391.546 279.947C399.888 281.491 397.949 290.237 407.74 288.361L407.758 288.677C408.028 294.082 406.79 310.187 407.917 314.43L409.509 314.732C388.291 316.708 388.714 306.306 373.376 300.017C359.664 294.394 342.807 295.064 330.204 303.259C318.13 311.11 320.545 314.165 304.352 314.535C289.006 314.886 286.436 305.189 274.427 299.942C261.876 294.458 242.419 295.248 230.934 303.147C219.804 310.801 220.408 313.894 205.794 314.35C190.798 314.817 187.62 305.049 175.373 299.881C162.801 294.576 144.082 295.092 132.727 303.073C124.936 308.55 124.326 310.956 115.044 314.732C111.624 313.919 111.602 310.633 110.928 307.574C111.378 306.28 111.991 305.296 111.728 304.069C106.627 306.863 102.903 303.963 101.577 298.876C102.74 294.282 107.275 289.694 110.199 285.833C123.428 268.36 121.52 267.852 142.968 267.871L161.211 267.877C162.884 267.92 164.339 267.925 166.01 267.877L189.501 267.885C193.77 267.893 198.584 268.03 202.811 267.877C219.394 268.899 216.847 252.59 226.464 258.849C229.061 255.829 232.398 248.093 235.909 244.009C240.132 246.745 243.262 246.926 245.489 241.692C247.61 240.14 261.308 231.433 261.604 230.611L261.186 230.354Z"/><path transform="scale(2 2)" d="M202.811 267.877C219.394 268.899 216.847 252.59 226.464 258.849C229.785 262.445 229.445 265.132 226.878 269.056C218.406 282.007 205.198 280.037 191.36 280.035L155.123 280.021C151.602 280.02 132.147 279.431 129.939 281.364C126.243 284.599 114.06 299.869 111.728 304.069C106.627 306.863 102.903 303.963 101.577 298.876C102.74 294.282 107.275 289.694 110.199 285.833C123.428 268.36 121.52 267.852 142.968 267.871L161.211 267.877C162.884 267.92 164.339 267.925 166.01 267.877L189.501 267.885C193.77 267.893 198.584 268.03 202.811 267.877Z"/><path transform="scale(2 2)" d="M115.044 314.732C124.326 310.956 124.936 308.55 132.727 303.073C144.082 295.092 162.801 294.576 175.373 299.881C187.62 305.049 190.798 314.817 205.794 314.35C220.408 313.894 219.804 310.801 230.934 303.147C242.419 295.248 261.876 294.458 274.427 299.942C286.436 305.189 289.006 314.886 304.352 314.535C320.545 314.165 318.13 311.11 330.204 303.259C342.807 295.064 359.664 294.394 373.376 300.017C388.714 306.306 388.291 316.708 409.509 314.732C425.029 311.765 426.136 300.251 443.978 299.236C450.751 298.85 453.117 308.694 446.952 310.811C442.106 312.475 440.241 310.895 435.969 314.732C434.5 314.815 425.393 322.104 423.225 323.33C411.451 329.989 392.432 328.11 381.672 320.701C372.135 314.135 368.89 308.828 356.003 308.537C335.819 308.08 333.885 321.189 317.525 325.521C306.212 328.517 292.098 327.328 282.344 320.565C272.322 313.616 271.6 309.155 257.042 308.748C234.89 308.127 235.209 320.87 218.05 325.408C185.791 333.939 180.688 308.747 157.55 308.569C136.527 308.407 135.749 321.445 119.418 325.818C108.564 328.725 95.061 327.787 85.698 321.209C81.9205 318.556 78.7229 315.2 74.6999 312.879L74.4431 312.732C69.8412 310.142 63.8073 313.553 61.9182 307.001C61.0051 303.834 63.4961 300.118 66.6796 299.671C85.1615 297.072 89.0659 317.788 115.044 314.732Z"/><path transform="scale(2 2)" d="M122.952 199.837C129.561 198.336 146.146 210.546 131.056 215.421C128.955 214.623 124.354 211.854 122.221 212.402C108.94 215.811 113.398 224.979 109.549 230.041C107.669 232.515 103.071 232.214 100.864 230.353C96.7347 226.869 100.623 220.783 93.7436 215.421C87.1242 211.085 85.1031 212.533 78.4535 215.078C72.4653 217.371 63.469 203.723 83.5438 200.237C90.931 199.235 99.1006 203.815 104.714 208.127C111.332 203.368 114.728 201.097 122.952 199.837Z"/><path transform="scale(2 2)" d="M366.747 102.099C374.182 101.041 382.015 105.163 386.87 110.562C393.473 102.03 414.918 96.6536 418.452 109.752C414.946 121.325 408.104 110.275 397.741 116.776C388.388 124.587 396.685 132.827 385.499 134.166C379.421 131.837 380.912 129.038 380.194 123.699C378.282 109.479 361.45 117.247 357.751 114.512C349.684 108.58 359.636 102.826 366.747 102.099Z"/><path transform="scale(2 2)" d="M201.399 396.057C204.267 395.252 205.434 395.224 208.179 396.057C210.741 398.505 211.606 399.646 211.682 403.457L211.686 403.749C210.356 407.823 208.769 408.425 204.887 409.377C201.092 408.413 199.749 407.491 198.24 403.749L198.221 402.894C198.182 399.835 199.329 398.148 201.399 396.057Z"/><path transform="scale(2 2)" d="M304.745 396.057C307.557 395.223 308.873 395.311 311.579 396.057C314.789 398.472 315.704 399.601 314.958 403.749C312.967 410.887 305.15 410.316 301.809 403.749C301.184 400.148 302.261 398.501 304.745 396.057Z"/></svg>