<?xml version="1.0" encoding="utf-8" ?><svg xmlns="http://www.w3.org/2000/svg" xmlns:xlink="http://www.w3.org/1999/xlink" width="1024" height="1024" viewBox="0 0 1024 1024"><path fill="#BCDEF6" transform="scale(2 2)" d="M184.865 102.256L185.083 101.968C202.095 79.8155 232.507 68.3143 259.9 69.6279C264.996 69.8723 271.521 70.3204 271.621 76.8884C271.777 87.2014 261.239 84.2282 255.28 84.2304C236.719 84.2372 216.999 90.9257 203.852 104.163C205.085 110.348 207.141 117.202 208.636 123.438L215.654 152.318C216.862 157.436 222.307 182.802 224.242 185.784C227.393 172.503 227.707 153.845 234.405 142.757C232.936 140.295 231.777 137.528 230.364 134.977C225.296 125.827 238.182 113.156 245.325 132.404C253.913 129.168 258.678 129.459 267.167 132.404C268.52 128.877 269.858 124.684 273.609 123.151C277.414 121.597 282.085 123.585 283.405 127.509C284.969 132.157 280.419 138.52 278.23 142.757C282.443 148.253 287.058 167.652 284.835 172.653C283.723 175.156 281.581 176.187 279.197 177.176C279.934 180.326 281.118 192.794 282.088 194.337C284.309 194.183 285.483 194.141 287.622 195.14C288.774 192.733 290.17 185.304 290.802 182.417C294.575 165.18 299.166 148.137 303.367 131.004L307.157 115.907C307.908 112.799 308.819 108.378 309.806 105.446C305.881 101.748 302.029 98.7509 297.291 96.0249C294.4 94.4464 290.43 93.4857 287.936 91.394C283.082 87.3002 286.604 77.7435 292.665 78.5525C310.349 80.9123 317.126 96.1748 330.886 101.929C344.74 107.723 377.85 120.908 387.102 130.986C406.813 152.454 401.125 169.138 402.705 195.11C402.97 199.47 400.103 202.459 396.202 203.926L395.768 204.092L395.768 220.045C406.737 221.252 403.606 237.798 403.836 246.718L405.596 307.548C405.803 314.648 408.007 323.946 399.749 326.211C399.328 329.683 396.357 344.16 396.511 344.381L398.211 344.636C402.945 345.84 404.159 347.799 405.476 352.315C399.021 377.212 382.4 373.824 361.994 374.377C362.308 380.353 362.157 387.249 361.982 393.277C361.564 407.674 364.927 421.236 354.151 432.796C343.155 444.593 332.41 443.194 318.058 443.178L290.773 443.163C286.084 443.159 280.815 443.03 276.186 443.17C274.459 443.648 248.576 443.001 245.881 442.879C243.285 442.76 239.745 443.612 237.311 443.17C234.402 443.324 229.926 443.162 226.853 443.161L188.962 443.195C171.054 443.208 155.707 439.33 150.417 418.889C148.538 411.627 146.218 393.842 156.436 391.54C156.629 391.484 157.747 391.364 158.017 391.33C157.961 391.464 158.217 376.655 158.214 376.641L157.494 376.428C153.677 376.371 153.305 374.452 150.448 374.277C139.287 373.525 130.855 376.574 120.452 370.419C105.006 361.281 106.145 346.638 106.911 331.015C107.127 326.611 110.382 324.905 114.302 324.043L115.342 323.795C114.893 318.552 115.635 311.05 115.121 306.936L114.302 306.671C105.432 304.956 106.425 298.295 106.768 291.127C108.049 264.34 107.09 237.556 108.148 210.761C108.304 206.813 111.34 204.7 114.965 204.092C115.255 203.441 115.627 189.769 115.779 187.597C112.584 186.922 108.761 183.856 108.837 180.362C109.382 155.439 116.317 130.967 140.445 119.044C147.479 115.946 178.84 101.147 184.865 102.256ZM345.557 128.769L346.631 129.039C348.18 128.702 348.56 128.324 349.518 127.03C347.295 125.964 344.848 124.723 342.578 123.821C343.553 125.369 344.746 127.161 345.557 128.769Z"/><path transform="scale(2 2)" d="M184.865 102.256L185.083 101.968C202.095 79.8155 232.507 68.3143 259.9 69.6279C264.996 69.8723 271.521 70.3204 271.621 76.8884C271.777 87.2014 261.239 84.2282 255.28 84.2304C236.719 84.2372 216.999 90.9257 203.852 104.163C205.085 110.348 207.141 117.202 208.636 123.438L215.654 152.318C216.862 157.436 222.307 182.802 224.242 185.784C227.393 172.503 227.707 153.845 234.405 142.757C232.936 140.295 231.777 137.528 230.364 134.977C225.296 125.827 238.182 113.156 245.325 132.404C253.913 129.168 258.678 129.459 267.167 132.404C268.52 128.877 269.858 124.684 273.609 123.151C277.414 121.597 282.085 123.585 283.405 127.509C284.969 132.157 280.419 138.52 278.23 142.757C282.443 148.253 287.058 167.652 284.835 172.653C283.723 175.156 281.581 176.187 279.197 177.176C279.934 180.326 281.118 192.794 282.088 194.337C284.309 194.183 285.483 194.141 287.622 195.14C294.397 200.115 293.233 217.902 295.321 227.017C299.441 220.304 310.917 195.791 320.711 202.689C328.738 209.874 318.582 219.308 313.829 226.321L279.25 276.945C277.079 280.118 273.774 285.576 271.29 288.07C262.631 296.451 246.339 295.983 239.524 285.601C226.671 266.016 213.091 246.895 199.74 227.697L182.256 202.757C167.858 182.548 166.201 184.861 181.122 161.195C158.875 149.21 156.976 149.594 167.885 127.03L167.681 126.686C167.995 126.008 167.982 126.201 168.066 125.499C167.981 125.52 161.888 126.104 161.924 126.108C106.54 145.923 137.148 185.986 115.779 187.597C112.584 186.922 108.761 183.856 108.837 180.362C109.382 155.439 116.317 130.967 140.445 119.044C147.479 115.946 178.84 101.147 184.865 102.256Z"/><path fill="#FEC302" transform="scale(2 2)" d="M228.375 242.027C231.584 235.982 232.981 224.342 234.195 217.136L241.304 175.492C242.584 168.125 243.045 154.262 248.362 148.494C252.011 144.534 257.754 143.963 262.275 146.733C274.044 153.943 263.846 177.588 278.889 177.187L279.197 177.176C279.934 180.326 281.118 192.794 282.088 194.337C279.456 195.064 276.21 197.992 276.496 200.807C277.986 215.486 280.438 230.3 282.088 244.963C280.212 248.644 261.579 276.952 259.476 278.118C257.218 279.37 254.427 278.505 252.144 277.772C244.282 267.238 235.751 253.222 228.375 242.027Z"/><path fill="#FEC302" transform="scale(2 2)" d="M176.934 141.99C183.841 127.705 192.173 115.039 203.852 104.163C205.085 110.348 207.141 117.202 208.636 123.438L215.654 152.318C216.862 157.436 222.307 182.802 224.242 185.784C224.177 187.819 222.731 195.232 222.323 197.692L217.372 227.017C206.538 212.649 196.939 196.684 186.092 182.573C189.313 176.891 192.509 171.238 195.907 165.666C203.971 152.481 186.563 147.053 176.934 141.99Z"/><path fill="white" transform="scale(2 2)" d="M161.924 126.108C164.589 124.921 168.252 123.381 170.768 122.037C169.822 123.7 168.876 125.397 167.885 127.03L167.681 126.686C167.995 126.008 167.982 126.201 168.066 125.499C167.981 125.52 161.888 126.104 161.924 126.108Z"/><path transform="scale(2 2)" d="M346.764 359.273L346.758 280.083C346.759 276.056 346.06 265.538 348.773 262.514C352.708 258.129 361.795 259.487 361.944 266.628C361.997 269.213 362.031 272.211 362.014 274.929L361.994 337.624C361.809 344.734 361.59 352.165 361.994 359.273C369.026 359.293 381.826 360.838 386.664 356.041C391.431 351.315 389.537 344.42 398.211 344.636C402.945 345.84 404.159 347.799 405.476 352.315C399.021 377.212 382.4 373.824 361.994 374.377C362.308 380.353 362.157 387.249 361.982 393.277C361.564 407.674 364.927 421.236 354.151 432.796C343.155 444.593 332.41 443.194 318.058 443.178L290.773 443.163C286.084 443.159 280.815 443.03 276.186 443.17C274.459 443.648 248.576 443.001 245.881 442.879C243.285 442.76 239.745 443.612 237.311 443.17C234.402 443.324 229.926 443.162 226.853 443.161L188.962 443.195C171.054 443.208 155.707 439.33 150.417 418.889C148.538 411.627 146.218 393.842 156.436 391.54C170.165 392.916 162.866 407.859 165.612 416.465C175.693 410.658 175.922 410.619 187.47 410.637L248.571 410.65C248.523 405.117 247.026 394.853 255.624 394.699C264.462 394.54 263.647 402.678 263.569 409.01C264.01 411.909 268.885 410.648 271.079 410.63L315.345 410.617C341.029 410.394 330.201 379.922 336.662 368.827C338.592 365.512 343.024 360.364 346.764 359.273Z"/><path fill="#53B9F2" transform="scale(2 2)" d="M346.764 359.273L346.773 394.915C346.769 414.753 348.962 427.979 325.316 428.038C310.859 428.074 296.439 427.97 281.981 428.094C270.029 428.197 263.873 420.309 263.569 409.01C264.01 411.909 268.885 410.648 271.079 410.63L315.345 410.617C341.029 410.394 330.201 379.922 336.662 368.827C338.592 365.512 343.024 360.364 346.764 359.273Z"/><path fill="#53B9F2" transform="scale(2 2)" d="M165.612 416.465C175.693 410.658 175.922 410.619 187.47 410.637L248.571 410.65C246.586 426.306 238.037 428.02 223.621 428.033L190.068 428.034C178.785 428.024 170.416 428.836 165.612 416.465Z"/><path fill="#FEC302" transform="scale(2 2)" d="M255.803 431.438C262.12 438.635 267.27 440.696 276.186 443.17C274.459 443.648 248.576 443.001 245.881 442.879C243.285 442.76 239.745 443.612 237.311 443.17C245.272 439.773 249.923 438.51 255.803 431.438Z"/><path transform="scale(2 2)" d="M309.806 105.446C305.881 101.748 302.029 98.7509 297.291 96.0249C294.4 94.4464 290.43 93.4857 287.936 91.394C283.082 87.3002 286.604 77.7435 292.665 78.5525C310.349 80.9123 317.126 96.1748 330.886 101.929C344.74 107.723 377.85 120.908 387.102 130.986C406.813 152.454 401.125 169.138 402.705 195.11C402.97 199.47 400.103 202.459 396.202 203.926L395.768 204.092C385.865 202.474 387.508 196.981 387.253 189.282C386.543 167.816 389.751 143.767 364.45 133.666C360.292 131.639 353.757 128.596 349.518 127.03C347.295 125.964 344.848 124.723 342.578 123.821C343.553 125.369 344.746 127.161 345.557 128.769C355.801 148.407 345.07 150.833 331.934 162.423L332.14 162.771C335.408 168.236 349.797 185.076 331.934 185.784C327.289 190.639 324.741 198.352 320.711 202.689C310.917 195.791 299.441 220.304 295.321 227.017C293.233 217.902 294.397 200.115 287.622 195.14C288.774 192.733 290.17 185.304 290.802 182.417C294.575 165.18 299.166 148.137 303.367 131.004L307.157 115.907C307.908 112.799 308.819 108.378 309.806 105.446Z"/><path fill="#FEC302" transform="scale(2 2)" d="M309.806 105.446C317.595 112.97 330.011 130.47 334.928 140.723C330.164 144.987 314.685 155.315 314.593 160.755C314.518 165.16 326.89 183.336 331.934 185.784C327.289 190.639 324.741 198.352 320.711 202.689C310.917 195.791 299.441 220.304 295.321 227.017C293.233 217.902 294.397 200.115 287.622 195.14C288.774 192.733 290.17 185.304 290.802 182.417C294.575 165.18 299.166 148.137 303.367 131.004L307.157 115.907C307.908 112.799 308.819 108.378 309.806 105.446Z"/><path fill="#53B9F2" transform="scale(2 2)" d="M364.45 133.666C389.751 143.767 386.543 167.816 387.253 189.282C387.508 196.981 385.865 202.474 395.768 204.092L395.768 220.045C406.737 221.252 403.606 237.798 403.836 246.718L405.596 307.548C405.803 314.648 408.007 323.946 399.749 326.211C399.328 329.683 396.357 344.16 396.511 344.381L398.211 344.636C389.537 344.42 391.431 351.315 386.664 356.041C381.826 360.838 369.026 359.293 361.994 359.273C361.59 352.165 361.809 344.734 361.994 337.624L361.994 341.318C380.108 332.025 374.992 308.64 374.992 290.658L374.995 186.411C374.999 168.998 376.422 154.213 367.406 138.451C366.706 137.226 364.677 134.673 364.45 133.666Z"/><path transform="scale(2 2)" d="M395.768 220.045C406.737 221.252 403.606 237.798 403.836 246.718L405.596 307.548C405.803 314.648 408.007 323.946 399.749 326.211C387.762 326.99 390.56 314.948 389.999 306.959C388.938 291.847 389.56 276.587 389.031 261.428L388.433 241.143C388.13 232.666 384.986 221.444 395.768 220.045Z"/><path transform="scale(2 2)" d="M150.246 359.273L150.252 276.862C150.252 273.741 150.175 270.68 150.327 267.512C150.766 258.384 163.687 257.988 165.081 266.36C165.567 269.277 165.17 275.2 165.171 278.404L165.171 344.627C165.169 353.777 168.76 374.761 157.494 376.428C153.677 376.371 153.305 374.452 150.448 374.277C139.287 373.525 130.855 376.574 120.452 370.419C105.006 361.281 106.145 346.638 106.911 331.015C107.127 326.611 110.382 324.905 114.302 324.043C132.643 325.945 110.422 356.414 133.264 359.081C138.756 359.722 144.696 359.29 150.246 359.273Z"/><path transform="scale(2 2)" d="M114.965 204.092C118.797 204.401 122.816 205.953 122.785 210.472C122.674 226.409 123.153 242.406 122.284 258.324C121.734 271.666 122.933 285.43 121.924 298.799C121.666 303.499 118.971 306.036 114.302 306.671C105.432 304.956 106.425 298.295 106.768 291.127C108.049 264.34 107.09 237.556 108.148 210.761C108.304 206.813 111.34 204.7 114.965 204.092Z"/><path transform="scale(2 2)" d="M232.331 352.315C238.434 352.425 240.904 354.156 241.519 360.498C236.674 374.896 205.747 390.556 192.379 394.311C188.433 395.419 182.74 396.789 179.036 394.471C175.581 392.478 175.036 387.169 177.214 383.987C179.618 380.478 186.101 380.353 190.021 379.165C202.621 375.368 214.704 368.616 224.047 359.308C227.019 356.347 227.93 353.113 232.331 352.315Z"/><path transform="scale(2 2)" d="M221.591 315.792C236.071 314.505 229.472 329.519 225.32 336.696C218.556 348.387 205.176 359.887 192.023 363.225C183.978 364.286 179.327 354.705 186.254 350.018C188.49 348.506 191.525 347.558 193.974 346.333C213.801 336.446 213.597 318.982 221.591 315.792Z"/><path transform="scale(2 2)" d="M242.572 335.34C248.534 307.318 263.857 320.774 260.542 329.361C258.57 334.57 257.505 342.14 250.829 342.924C245.859 342.666 243.215 340.236 242.572 335.34Z"/><path fill="#53B9F2" transform="scale(2 2)" d="M232.331 352.315C235.275 348.337 241.747 339.901 242.572 335.34C243.215 340.236 245.859 342.666 250.829 342.924C246.082 343.315 245.705 355.281 241.519 360.498C240.904 354.156 238.434 352.425 232.331 352.315Z"/></svg>