<?xml version="1.0" encoding="utf-8" ?><svg xmlns="http://www.w3.org/2000/svg" xmlns:xlink="http://www.w3.org/1999/xlink" width="1024" height="1024" viewBox="0 0 1024 1024"><path fill="#FEC302" transform="scale(2 2)" d="M275.066 104.796C263.81 102.81 251.107 103.56 239.769 103.574C236.302 103.578 233.158 99.1454 233.684 96.0826C235.196 87.27 243.995 89.5206 250.576 89.2333C326.43 88.338 394.868 127.566 428.397 196.854C433.43 207.255 429.114 217.441 421.687 225.463C425.512 228.282 428.164 230.324 431.449 233.833C453.959 257.875 441.299 303.015 407.218 307.612L404.507 307.978C403.753 309.968 402.811 316.496 402.374 318.938L399.127 336.349C398.108 342.07 397.929 349.756 389.865 348.937C388.041 354.179 387.47 362.266 385.414 367.062C391.837 370.091 391.052 374.338 389.107 380.039C384.121 394.653 378.757 406.95 363.818 413.758C355.187 417.692 347.171 416.759 338.025 418.152C283.394 426.12 238.072 425.715 184.047 419.936L167.827 418.084C150.627 416.065 136.497 412.415 128.287 394.648C125.051 387.644 124.004 379.298 122.154 371.79C120.837 365.043 116.316 356.859 124.889 353.42C123.766 349.094 121.55 339.116 121.58 334.957C108.195 338.428 109.615 318.261 106.648 307.978C66.0327 302.228 56.449 252.078 88.3583 226.809C87.9896 212.486 73.0422 218.565 88.159 188.357C105.542 153.621 136.524 124.802 171.662 108.493C173.413 107.834 176.883 105.657 178.621 105.505C188.217 104.663 191.283 115.989 181.348 119.829C147.242 133.011 104.899 173.845 95.299 208.29C96.6119 212.805 98.9792 213.844 101.973 216.779L102.315 217.118C114.102 220.324 115.799 210.145 119.772 202.843C123.028 196.859 133.81 178.624 139.464 175.152C137.479 171.328 137.54 168.189 140.823 165.103C170.001 137.678 207.703 121.786 247.602 119.157C253.473 118.77 258.414 117.007 262.369 122.488C276.79 126.607 288.27 115.111 275.066 104.796ZM83.6732 265.903C85.4292 272.664 92.4039 278.244 99.6188 275.434C108.627 271.926 102.816 262.449 108.359 256.097C113.777 249.888 122.808 248.618 119.469 238.088C117.184 230.708 108.58 231.822 102.993 234.196C90.897 239.887 82.575 252.325 83.6732 265.903Z"/><path fill="#BCDEF6" transform="scale(2 2)" d="M278.012 323.297C278.22 323.26 278.922 323.145 279.133 323.021C298.565 311.581 278.943 282.907 298.459 272.7C303.334 270.15 309.001 272.398 313.636 274.257C315.929 278.466 318.564 281.296 322.708 283.815C324.927 298.679 353.377 303.55 364.258 289.246C365.08 288.166 366.915 286.059 367.864 285.451C368.817 288.336 369.665 290.183 371.198 292.823C376.935 300.34 381.501 302.674 389.865 306.236C388.353 317.132 385.641 327.888 383.836 338.742C382.9 344.366 384.203 347.186 389.865 348.937C388.041 354.179 387.47 362.266 385.414 367.062C391.837 370.091 391.052 374.338 389.107 380.039C384.121 394.653 378.757 406.95 363.818 413.758C355.187 417.692 347.171 416.759 338.025 418.152C283.394 426.12 238.072 425.715 184.047 419.936L167.827 418.084C150.627 416.065 136.497 412.415 128.287 394.648C125.051 387.644 124.004 379.298 122.154 371.79C120.837 365.043 116.316 356.859 124.889 353.42C123.766 349.094 121.55 339.116 121.58 334.957C128.443 330.781 124.186 321.938 122.843 315.426C123.652 314.237 141.105 314.716 148.092 298.185C150.103 293.427 150.568 287.515 156.371 285.799C164.933 283.267 166.172 291.091 172.766 294.451C184.387 300.373 199.131 297.373 205.736 285.499C211.927 274.369 214.619 267.258 228.196 275.552C227.875 290.427 225.45 312.738 235.877 323.457C245.947 333.809 261.11 334.924 272.971 326.917C274.346 325.989 276.607 323.913 278.012 323.297Z"/><path fill="#6CBEF7" transform="scale(2 2)" d="M371.198 292.823C376.935 300.34 381.501 302.674 389.865 306.236C388.353 317.132 385.641 327.888 383.836 338.742C382.9 344.366 384.203 347.186 389.865 348.937C388.041 354.179 387.47 362.266 385.414 367.062C391.837 370.091 391.052 374.338 389.107 380.039C384.121 394.653 378.757 406.95 363.818 413.758C355.187 417.692 347.171 416.759 338.025 418.152C283.394 426.12 238.072 425.715 184.047 419.936L167.827 418.084C150.627 416.065 136.497 412.415 128.287 394.648C125.051 387.644 124.004 379.298 122.154 371.79C120.837 365.043 116.316 356.859 124.889 353.42C137.858 351.934 136.427 379.3 141.923 390.271C149.478 389.831 161.495 391.701 169.261 392.729C218.748 399.282 268.992 396.782 318.386 390.625C332.855 388.821 351.146 389.331 357.416 372.29C364.505 353.023 369.386 315.211 371.198 292.823Z"/><path transform="scale(2 2)" d="M124.889 353.42C137.858 351.934 136.427 379.3 141.923 390.271C149.661 402.822 160.142 402.748 172.906 404.221C189.514 406.136 206.193 408.07 222.878 409.182C260.936 411.718 296.289 409.145 334.116 404.331C341.897 403.341 353.297 403.723 359.998 399.806C377.188 389.757 371.242 364.414 385.414 367.062C391.837 370.091 391.052 374.338 389.107 380.039C384.121 394.653 378.757 406.95 363.818 413.758C355.187 417.692 347.171 416.759 338.025 418.152C283.394 426.12 238.072 425.715 184.047 419.936L167.827 418.084C150.627 416.065 136.497 412.415 128.287 394.648C125.051 387.644 124.004 379.298 122.154 371.79C120.837 365.043 116.316 356.859 124.889 353.42Z"/><path transform="scale(2 2)" d="M150.299 323.297C162.551 322.776 161.117 348.667 166.211 359.498C176.888 382.197 205.29 369.412 203.192 383.864C202.755 387.326 200.803 389.147 197.668 390.271C193.273 390.886 179.899 387.872 175.647 386.172C153.852 377.463 151.609 362.302 147.245 342.767C145.979 335.905 141.445 326.824 150.299 323.297Z"/><path transform="scale(2 2)" d="M275.066 104.796C263.81 102.81 251.107 103.56 239.769 103.574C236.302 103.578 233.158 99.1454 233.684 96.0826C235.196 87.27 243.995 89.5206 250.576 89.2333C326.43 88.338 394.868 127.566 428.397 196.854C433.43 207.255 429.114 217.441 421.687 225.463C425.512 228.282 428.164 230.324 431.449 233.833C453.959 257.875 441.299 303.015 407.218 307.612L404.507 307.978C403.753 309.968 402.811 316.496 402.374 318.938L399.127 336.349C398.108 342.07 397.929 349.756 389.865 348.937C384.203 347.186 382.9 344.366 383.836 338.742C385.641 327.888 388.353 317.132 389.865 306.236C381.501 302.674 376.935 300.34 371.198 292.823C369.665 290.183 368.817 288.336 367.864 285.451C366.915 286.059 365.08 288.166 364.258 289.246C353.377 303.55 324.927 298.679 322.708 283.815C318.564 281.296 315.929 278.466 313.636 274.257C309.001 272.398 303.334 270.15 298.459 272.7C278.943 282.907 298.565 311.581 279.133 323.021C278.922 323.145 278.22 323.26 278.012 323.297C276.607 323.913 274.346 325.989 272.971 326.917C261.11 334.924 245.947 333.809 235.877 323.457C225.45 312.738 227.875 290.427 228.196 275.552C214.619 267.258 211.927 274.369 205.736 285.499C199.131 297.373 184.387 300.373 172.766 294.451C166.172 291.091 164.933 283.267 156.371 285.799C150.568 287.515 150.103 293.427 148.092 298.185C141.105 314.716 123.652 314.237 122.843 315.426C124.186 321.938 128.443 330.781 121.58 334.957C108.195 338.428 109.615 318.261 106.648 307.978C66.0327 302.228 56.449 252.078 88.3583 226.809C87.9896 212.486 73.0422 218.565 88.159 188.357C105.542 153.621 136.524 124.802 171.662 108.493C173.413 107.834 176.883 105.657 178.621 105.505C188.217 104.663 191.283 115.989 181.348 119.829C147.242 133.011 104.899 173.845 95.299 208.29C96.6119 212.805 98.9792 213.844 101.973 216.779L102.315 217.118C102.177 223.179 102.846 228.27 102.993 234.196C90.897 239.887 82.575 252.325 83.6732 265.903C80.8839 282.359 104.857 302.404 123.937 289.278C133.242 282.876 129.027 273.379 136.324 266.144C143.178 259.06 155.583 257.733 163.442 263.903C167.882 267.388 169.589 273.509 176.466 272.923C184.18 272.265 184.2 265.224 187.258 260.045C197.895 242.229 222.957 240.588 235.838 256.969C249.393 274.206 235.474 304.549 247.321 314.575C252.839 319.246 261.367 318.888 266.517 313.902C272.254 308.307 271.528 301.388 271.512 294.036L271.468 278.539C271.452 272.978 270.968 267.502 273.041 262.185C281.714 239.945 315.625 240.6 324.192 261.496C326.485 267.089 326.135 271.546 333.877 272.417C345.969 273.805 345.679 259.793 361.877 261.472C376.604 262.998 379.22 270.779 382.582 282.57C384.719 290.066 393.81 293.57 400.976 293.645C405.684 274.514 408.99 258.031 398.659 239.059C391.741 226.353 385.684 230.588 394.049 215.386C396.751 210.475 394.892 202.747 393.392 197.695C383.562 164.581 347.695 132.525 318.305 116.524C316.738 115.671 315.31 115.174 314.778 113.377C302.616 110.299 287.657 104.372 275.066 104.796Z"/><path fill="#F9AB02" transform="scale(2 2)" d="M314.778 113.377C358.081 128.461 392.658 157.785 413.479 198.89C420.566 212.88 410.455 209.827 409.135 222.356C407.104 241.62 405.779 229.573 417.776 240.59C437.843 257.322 428.067 292.344 400.976 293.645C405.684 274.514 408.99 258.031 398.659 239.059C391.741 226.353 385.684 230.588 394.049 215.386C396.751 210.475 394.892 202.747 393.392 197.695C383.562 164.581 347.695 132.525 318.305 116.524C316.738 115.671 315.31 115.174 314.778 113.377Z"/><path fill="#6CBEF7" transform="scale(2 2)" d="M121.58 306.236C132.049 301.942 139.567 296.779 143.585 285.548C145.943 278.956 147.887 267.247 157.379 278.492C168.307 291.928 188.948 289.874 196.516 274.177C197.875 271.359 198.944 268.196 200.728 265.629C209.41 253.744 225.918 260.121 228.196 275.552C214.619 267.258 211.927 274.369 205.736 285.499C199.131 297.373 184.387 300.373 172.766 294.451C166.172 291.091 164.933 283.267 156.371 285.799C150.568 287.515 150.103 293.427 148.092 298.185C141.105 314.716 123.652 314.237 122.843 315.426C121.96 311.63 121.537 310.153 121.58 306.236Z"/><path fill="#6CBEF7" transform="scale(2 2)" d="M357.267 275.552C361.078 275.294 363.716 275.238 366.531 278.297C366.897 280.904 367.171 282.878 367.864 285.451C366.915 286.059 365.08 288.166 364.258 289.246C353.377 303.55 324.927 298.679 322.708 283.815C338.356 291.013 346.839 286.731 357.267 275.552Z"/><path fill="#6CBEF7" transform="scale(2 2)" d="M278.012 323.297C286.44 310.398 285.592 308.999 285.559 293.924L285.523 278.007C285.499 265.96 290.154 254.669 305.03 260.961C310.586 263.311 311.805 269.062 313.636 274.257C309.001 272.398 303.334 270.15 298.459 272.7C278.943 282.907 298.565 311.581 279.133 323.021C278.922 323.145 278.22 323.26 278.012 323.297Z"/><path transform="scale(2 2)" d="M139.464 175.152C137.479 171.328 137.54 168.189 140.823 165.103C170.001 137.678 207.703 121.786 247.602 119.157C253.473 118.77 258.414 117.007 262.369 122.488C265.14 134.073 255.707 132.902 247.942 133.44C212.019 135.928 177.512 150.215 151.284 175.077C147.5 178.663 143.398 178.877 139.464 175.152Z"/><path transform="scale(2 2)" d="M235.194 190.565C236.681 190.659 238.623 191.174 239.732 191.978C251.809 200.056 260.449 199.343 272.129 191.53C277.697 187.805 288.955 195.02 278.012 204.789C244.16 225.613 215.956 193.784 235.194 190.565Z"/><path transform="scale(2 2)" d="M189.85 167.85C209.984 161.369 220.746 196.303 202.975 191.804C197.782 190.49 200.112 184.813 195.358 182.1L195.044 181.924C184.335 179.054 189.261 192.086 180.856 192.241C165.794 192.519 173.706 168.556 189.85 167.85Z"/><path transform="scale(2 2)" d="M318.176 167.85C331.844 167.008 344.338 185.732 334.015 191.006C324.119 196.063 326.756 184.276 319.471 181.924C314.284 181.167 314.183 185.526 311.958 188.931C307.618 195.483 295.852 191.294 300.906 179.402C304.044 172.021 310.534 168.692 318.176 167.85Z"/><path fill="#F9AB02" transform="scale(2 2)" d="M257.937 271.658C258.776 271.83 260.06 272.087 260.532 272.903C261.155 273.98 261.737 304.002 260.174 307.978C259.309 308.028 257.132 308.163 257.168 306.857C257.296 302.117 256.057 274.179 257.937 271.658Z"/><path transform="scale(2 2)" d="M424.787 116.267C436.968 115.258 438.992 128.754 419.472 133.602C410.235 136.657 406.356 123.398 414.886 119.919C418.199 118.567 421.36 117.35 424.787 116.267Z"/><path transform="scale(2 2)" d="M387.176 80.0532C397.23 78.0467 396.978 99.897 387.176 103.405C374.543 103.456 377.29 82.1256 387.176 80.0532Z"/><path transform="scale(2 2)" d="M208.961 94.5022C212.982 93.8595 216.756 96.618 217.364 100.644C217.973 104.671 215.182 108.421 211.15 108.995C207.167 109.561 203.472 106.811 202.871 102.834C202.271 98.8558 204.989 95.1372 208.961 94.5022Z"/></svg>