<?xml version="1.0" encoding="utf-8" ?><svg xmlns="http://www.w3.org/2000/svg" xmlns:xlink="http://www.w3.org/1999/xlink" width="1024" height="1024" viewBox="0 0 1024 1024"><path fill="#BCDEF6" transform="scale(2 2)" d="M278.926 126.508C283.475 115.758 291.779 104.917 300.833 97.5857C316.754 84.6974 326.469 84.2589 330.316 61.6673C330.837 58.6113 331.024 50.7568 334.758 50.0689C350.636 47.1442 337.641 78.626 334.196 84.0944C323.551 100.99 300.126 106.69 291.682 126.508L306.102 126.497C316.321 126.503 323.513 126.285 331.253 133.953L371.288 173.432C387.021 188.627 382.76 195.581 382.765 216.855L382.767 230.853C382.767 236.627 384.041 241.304 377.387 243.649C374.087 243.338 375.665 250.999 374.773 255.781C385.826 253.075 382.727 271.494 382.738 278.55L382.766 424.384C382.789 447.317 379.473 458.861 353.271 458.657L209.922 458.616C194.725 458.617 178.446 455.401 176.959 436.145C176.367 428.484 173.518 408.088 181.76 405.296C182.405 403.773 181.473 390.004 181.76 386.757C175.871 383 157.877 378.161 164.629 369.25C161.306 367.667 153.953 364.374 150.736 363.185C149.445 365.586 148.106 366.518 145.725 367.628C120.566 357.135 127.539 324.845 138.973 333.4C140.241 330.028 143.258 323.419 145.725 320.858C142.904 319.576 142.415 318.135 141.565 315.398C142.771 311.98 145.85 306.483 148.842 304.337C151.702 303.973 152.461 303.943 154.864 305.728C157.055 300.691 159.816 296.926 161.707 291.38C159.907 290.181 157.875 287.148 158.864 285.082C164.42 273.472 176.886 254.629 180.593 243.649C180.262 242.234 180.448 225.698 180.593 223.226C175.685 218.716 176.639 213.571 176.76 207.361C177.248 182.443 179.078 184.236 194.663 167.925C200.432 162.279 205.509 152.827 212.935 159.05C215.813 155.207 218.101 152.659 221.905 149.601C216.692 143.225 225.701 136.371 230.362 132.605C239.072 125.564 249.379 126.485 259.841 126.49L278.926 126.508Z"/><path fill="#FEC302" transform="scale(2 2)" d="M202.589 213.611C215.015 209.269 222.522 216.924 233.454 221.878C239.606 224.666 248.058 227.476 248.583 234.355C250.014 234.55 250.264 234.546 251.698 234.355C250.794 220.824 270.869 227.062 270.291 243.681L270.232 245.123C280.776 250.013 291.181 252.855 295.593 264.353C296.905 270.378 296.235 274.358 293.226 279.799L236.778 384.102C219.559 415.611 206.53 398.437 181.76 386.757C175.871 383 157.877 378.161 164.629 369.25C161.306 367.667 153.953 364.374 150.736 363.185C149.445 365.586 148.106 366.518 145.725 367.628C120.566 357.135 127.539 324.845 138.973 333.4C140.241 330.028 143.258 323.419 145.725 320.858C142.904 319.576 142.415 318.135 141.565 315.398C142.771 311.98 145.85 306.483 148.842 304.337C151.702 303.973 152.461 303.943 154.864 305.728C157.055 300.691 159.816 296.926 161.707 291.38C159.907 290.181 157.875 287.148 158.864 285.082C164.42 273.472 176.886 254.629 180.593 243.649C182.01 241.955 183.337 239.353 184.405 237.379L189.705 227.542C193.301 220.805 195.145 216.71 202.589 213.611Z"/><path transform="scale(2 2)" d="M251.698 234.355C250.794 220.824 270.869 227.062 270.291 243.681L270.232 245.123C280.776 250.013 291.181 252.855 295.593 264.353C296.905 270.378 296.235 274.358 293.226 279.799L236.778 384.102C219.559 415.611 206.53 398.437 181.76 386.757C175.871 383 157.877 378.161 164.629 369.25C166.166 368.463 166.782 368.167 168.421 367.628C176.542 369.937 197.021 381.895 205.849 386.278C213.388 389.872 217.882 394.2 223.398 384.671C226.357 379.559 229.141 374.255 231.945 369.085L245.318 344.402C258.176 320.721 271.259 297.139 283.633 273.195C289.741 261.376 265.486 258.061 258.857 250.939C257.102 246.171 259.839 243.589 258.38 239.929C257.694 238.205 253.37 237.805 251.698 234.355Z"/><path transform="scale(2 2)" d="M202.589 213.611C215.015 209.269 222.522 216.924 233.454 221.878C239.606 224.666 248.058 227.476 248.583 234.355C247.854 237.041 246.732 238.148 244.284 239.57C231.957 238.195 210.589 214.39 202.612 228.111C198.329 235.408 194.374 242.877 190.368 250.326L175.272 277.902C171.721 284.46 169.909 293.239 161.707 291.38C159.907 290.181 157.875 287.148 158.864 285.082C164.42 273.472 176.886 254.629 180.593 243.649C182.01 241.955 183.337 239.353 184.405 237.379L189.705 227.542C193.301 220.805 195.145 216.71 202.589 213.611Z"/><path transform="scale(2 2)" d="M248.583 234.355C250.014 234.55 250.264 234.546 251.698 234.355C253.37 237.805 257.694 238.205 258.38 239.929C259.839 243.589 257.102 246.171 258.857 250.939C257.294 254.781 255.74 257.988 253.746 261.656C265.913 271.589 230.779 289.277 219.422 260.882C214.311 248.103 227.191 230.141 232.008 245.123C235.809 243.006 241.374 241.986 244.284 239.57C246.732 238.148 247.854 237.041 248.583 234.355Z"/><path fill="white" transform="scale(2 2)" d="M248.583 234.355C250.014 234.55 250.264 234.546 251.698 234.355C253.37 237.805 257.694 238.205 258.38 239.929C259.839 243.589 257.102 246.171 258.857 250.939C257.294 254.781 255.74 257.988 253.746 261.656C247.007 258.726 245.704 266.253 239.039 265.115C225.307 262.768 230.95 251.423 232.008 245.123C235.809 243.006 241.374 241.986 244.284 239.57C246.732 238.148 247.854 237.041 248.583 234.355Z"/><path transform="scale(2 2)" d="M145.725 367.628C120.566 357.135 127.539 324.845 138.973 333.4C142.18 338.034 138.627 341.782 140.23 347.691C142.572 356.326 151.144 354.56 150.736 363.185C149.445 365.586 148.106 366.518 145.725 367.628Z"/><path transform="scale(2 2)" d="M148.842 304.337C151.702 303.973 152.461 303.943 154.864 305.728C158.942 312.911 151.419 322.754 145.725 320.858C142.904 319.576 142.415 318.135 141.565 315.398C142.771 311.98 145.85 306.483 148.842 304.337Z"/><path transform="scale(2 2)" d="M167.097 330.065C171.1 330.362 172.141 331.683 173.455 335.254C173.037 336.537 172.47 337.792 171.942 339.037C173.815 340.102 175.682 341.121 177.574 342.149C183.129 331.593 202.823 345.265 189.644 350.945C191.44 353.877 190.672 355.619 188.159 357.761C183.113 360.455 166.294 349.119 160.535 346.166C153.887 342.758 153.131 336.009 161.796 334.177C164.445 332.179 162.975 330.994 167.097 330.065Z"/><path transform="scale(2 2)" d="M199.669 354.786C205.126 354.551 227.442 366.272 212.13 371.609C205.21 371.635 183.655 359.217 199.669 354.786Z"/><path transform="scale(2 2)" d="M278.926 126.508C283.475 115.758 291.779 104.917 300.833 97.5857C316.754 84.6974 326.469 84.2589 330.316 61.6673C330.837 58.6113 331.024 50.7568 334.758 50.0689C350.636 47.1442 337.641 78.626 334.196 84.0944C323.551 100.99 300.126 106.69 291.682 126.508L306.102 126.497C316.321 126.503 323.513 126.285 331.253 133.953L371.288 173.432C387.021 188.627 382.76 195.581 382.765 216.855L382.767 230.853C382.767 236.627 384.041 241.304 377.387 243.649C369.017 241.664 371.238 233.381 371.224 226.464C371.099 216.586 371.213 206.502 371.224 196.609C370.251 195.427 365.941 186 365.991 184.356C358.656 177.615 324.028 141.043 317.393 138.91C312.534 137.348 293.038 138.074 286.402 138.082C284.542 144.285 283.421 149.575 283.192 156.073C317.632 163.762 300.629 212.528 270.115 200.939C250.131 193.35 249.862 166.155 271.567 157.031C271.46 153.762 271.655 151.742 272.17 148.507C272.91 144.954 273.62 141.581 274.604 138.082L258.613 138.062C234.804 138.035 242.653 139.243 228.368 150.728C225.749 150.842 224.29 150.972 221.905 149.601C216.692 143.225 225.701 136.371 230.362 132.605C239.072 125.564 249.379 126.485 259.841 126.49L278.926 126.508Z"/><path fill="#84CEF5" transform="scale(2 2)" d="M365.991 184.356C369.767 188.088 371.768 191.018 371.224 196.609C370.251 195.427 365.941 186 365.991 184.356Z"/><path fill="white" transform="scale(2 2)" d="M283.192 168.027C301.539 173.383 283.605 203.321 268.863 186.11C265.328 180.063 266.07 174.107 271.567 169.631C272.518 173.969 274.66 186.037 282.376 178.513C284.652 176.294 283.387 171.198 283.192 168.027Z"/><path transform="scale(2 2)" d="M374.773 255.781C385.826 253.075 382.727 271.494 382.738 278.55L382.766 424.384C382.789 447.317 379.473 458.861 353.271 458.657L209.922 458.616C194.725 458.617 178.446 455.401 176.959 436.145C176.367 428.484 173.518 408.088 181.76 405.296C188.357 406.577 188.266 409.899 188.223 415.795L188.111 428.147C188.015 437.608 188.695 444.469 199.669 447.347C199.719 444.714 202.728 423.331 203.868 422.194C207.688 428.972 211.723 432.816 219.938 433.516C221.53 437.126 226.3 443.802 228.368 447.347C237.404 447.567 247.453 447.348 256.553 447.347L344.102 447.352C366.321 447.359 371.268 450.783 371.236 424.329L371.199 271.073C371.179 265.259 369.441 259.247 374.773 255.781Z"/><path fill="#BCDEF6" transform="scale(2 2)" d="M199.669 447.347C199.719 444.714 202.728 423.331 203.868 422.194C207.688 428.972 211.723 432.816 219.938 433.516C221.53 437.126 226.3 443.802 228.368 447.347C219.289 447.34 208.542 447.649 199.669 447.347Z"/><path fill="#84CEF5" transform="scale(2 2)" d="M295.593 264.353C300.862 267.141 305.285 272.621 307.143 278.32C310.499 288.614 303.944 295.432 299.207 303.959L253.735 386.607C244.713 403.391 244.047 413.789 222.862 413.66C221.671 414.979 217.335 419.718 216.601 420.98C223.01 423.501 234.302 418.763 234.58 428.33C232.528 435.163 225.827 433.366 219.938 433.516C211.723 432.816 207.688 428.972 203.868 422.194C202.728 423.331 199.719 444.714 199.669 447.347C188.695 444.469 188.015 437.608 188.111 428.147L188.223 415.795C188.266 409.899 188.357 406.577 181.76 405.296C182.405 403.773 181.473 390.004 181.76 386.757C206.53 398.437 219.559 415.611 236.778 384.102L293.226 279.799C296.235 274.358 296.905 270.378 295.593 264.353Z"/><path transform="scale(2 2)" d="M207.939 410.625C215.45 412.394 211.521 416.289 216.601 420.98C223.01 423.501 234.302 418.763 234.58 428.33C232.528 435.163 225.827 433.366 219.938 433.516C211.723 432.816 207.688 428.972 203.868 422.194C201.743 416.71 201.47 412.379 207.939 410.625Z"/><path fill="#84CEF5" transform="scale(2 2)" d="M365.991 231.198C367.748 229.551 369.406 228.048 371.224 226.464C371.238 233.381 369.017 241.664 377.387 243.649C374.087 243.338 375.665 250.999 374.773 255.781C369.441 259.247 371.179 265.259 371.199 271.073L371.236 424.329C371.268 450.783 366.321 447.359 344.102 447.352L256.553 447.347C247.453 447.348 237.404 447.567 228.368 447.347C226.3 443.802 221.53 437.126 219.938 433.516C225.827 433.366 232.528 435.163 234.58 428.33L250.742 428.33C253.74 436.894 270.955 435.495 272.17 427.066L272.345 427.962C273.096 428.281 289.933 429.999 290.407 427.066C290.563 429.989 291.737 433.25 295.078 433.317C306.354 433.542 332.314 434.825 341.359 432.762C343.379 434.819 365.858 436.951 365.984 426.899C366.069 420.166 366 413.199 365.996 406.369L365.991 231.198Z"/><path fill="#84CEF5" transform="scale(2 2)" d="M228.368 150.728C242.653 139.243 234.804 138.035 258.613 138.062L274.604 138.082C273.62 141.581 272.91 144.954 272.17 148.507C254.676 146.6 247.532 151.543 235.529 163.592L220.245 179.104C210.9 188.749 198.937 198.147 202.589 213.611C195.145 216.71 193.301 220.805 189.705 227.542L184.405 237.379C183.337 239.353 182.01 241.955 180.593 243.649C180.262 242.234 180.448 225.698 180.593 223.226C175.685 218.716 176.639 213.571 176.76 207.361C177.248 182.443 179.078 184.236 194.663 167.925C200.432 162.279 205.509 152.827 212.935 159.05C215.813 155.207 218.101 152.659 221.905 149.601C224.29 150.972 225.749 150.842 228.368 150.728Z"/><path transform="scale(2 2)" d="M180.593 223.226C175.685 218.716 176.639 213.571 176.76 207.361C177.248 182.443 179.078 184.236 194.663 167.925C200.432 162.279 205.509 152.827 212.935 159.05C218.072 169.089 192.072 180.997 189.343 191.571C186.558 202.364 192.997 224.005 180.593 223.226Z"/><path transform="scale(2 2)" d="M342.238 418.221C342.253 415.198 341.201 409.112 343.279 406.907C345.477 404.498 349.451 403.742 351.928 406.184C358.084 412.255 352.475 428.782 341.359 432.762C332.314 434.825 306.354 433.542 295.078 433.317C291.737 433.25 290.563 429.989 290.407 427.066C292.428 419.894 300.912 422.152 307.427 422.183L328.388 422.221C333.947 422.23 339.028 423.58 342.238 418.221Z"/><path transform="scale(2 2)" d="M250.742 428.33C250.567 418.592 270.203 420.268 272.17 427.066C270.955 435.495 253.74 436.894 250.742 428.33Z"/><path transform="scale(2 2)" d="M346.647 201.765C351.005 201.438 353.28 204.6 353.552 208.476C353.909 213.544 354.199 253.47 353.387 255.923C352.809 257.668 351.187 258.616 349.622 259.341C347.046 259.701 344.035 259.119 342.806 256.531C341.214 253.178 342.017 206.524 342.644 205.011C343.365 203.271 345.033 202.469 346.647 201.765Z"/><path transform="scale(2 2)" d="M347.439 360.033C357.307 359.636 354.522 382.411 353.241 385.855C352.552 387.705 350.576 388.472 348.899 389.163C341.057 389.876 342.203 382.159 342.204 376.975L342.238 364.013C343.689 361.486 344.681 360.794 347.439 360.033Z"/><path transform="scale(2 2)" d="M346.647 273.551C348.966 273.172 351.816 273.994 352.969 276.202C354.269 278.693 356.704 299.624 349.622 302.415C347.025 302.923 344.227 302.407 343.016 299.746C341.351 296.087 339.2 276.94 346.647 273.551Z"/><path transform="scale(2 2)" d="M347.439 317.049C349.78 317.098 352.042 317.871 353.091 320.193C354.816 324.009 356.573 342.136 348.899 345.363C346.28 345.38 343.325 344.553 342.634 341.651C341.329 336.168 339.349 318.892 347.439 317.049Z"/></svg>