<?xml version="1.0" encoding="utf-8" ?><svg xmlns="http://www.w3.org/2000/svg" xmlns:xlink="http://www.w3.org/1999/xlink" width="512" height="512" viewBox="0 0 512 512"><path fill="#FEC302" d="M84.3431 130.17C90.7308 130.978 91.5727 133.664 91.5163 139.589L203.718 139.589C216.507 164.846 223.44 169.935 245.093 186.658C284.151 216.822 302.217 247.534 302.224 296.144L302.184 335.853C302.181 341.416 302.942 344.07 308.707 345.274L308.724 360.653C308.728 362.901 308.854 366.257 308.707 368.418C327.057 372.683 297.764 410.91 293.463 418.059L282.195 436.852C273.017 452.189 271.163 455.751 251.571 455.726L238.476 455.663C202.723 455.37 207.432 411.697 236.1 412.255C239.312 404.893 241.912 400.569 246.151 393.645C236.396 388.753 234.203 387.517 226.694 379.781C210.97 401.618 196.616 428.336 181.852 451.323C177.658 457.853 169.111 455.686 161.929 455.685L147.252 455.724C139.805 455.73 134.189 456.148 127.839 451.522C110.545 438.924 118.048 415.517 141.634 412.255L141.644 378.042C141.639 352.088 143.869 343.543 130.53 321.429C124.847 312.009 122.103 302.574 120.63 291.779C102.145 291.938 83.5964 287.866 79.4273 266.763C77.8842 258.953 74.4418 233.626 85.7605 231.925C85.7712 224.439 85.8565 216.81 85.7605 209.336C75.9971 208.931 78.5151 197.368 78.5094 189.995L78.5017 147.924C78.5045 141.458 76.2878 132.124 84.3431 130.17Z"/><path d="M85.7605 231.925C93.0339 233.782 91.5938 236.774 91.5161 242.906C91.2616 262.981 91.1571 282.956 119.729 278.815C119.621 273.335 121.526 246.766 128.745 246.07C141.294 244.861 134.836 260.006 134.155 263.795C131.303 279.059 132.109 298.613 140.016 312.281C152.824 334.423 154.424 340.016 154.425 366.164L154.417 407.247C154.414 436.048 143.103 419.091 134.982 427.244C131.042 430.892 131.019 437.091 135.005 440.691C138.265 443.636 145.982 442.731 150.371 442.729L171.981 442.715L203.96 391.307C207.805 385.08 215.024 374.609 218.118 368.418C207.792 351.36 205.363 331.424 209.803 312.089C211.105 305.024 224.315 303.504 221.853 317.701C217.469 342.972 226.541 372.075 251.994 382.199C260.303 385.258 265.229 387.825 258.962 397.236C255.283 402.762 251.746 408.307 249.076 414.408C240.391 432.79 240.207 419.955 230.595 426.165C223.514 430.741 225.896 441.895 234.239 442.728C238.213 443.125 243.173 442.5 247.248 442.726C268.427 442.789 264.286 442.025 274.756 424.329L290.758 397.494C293.196 393.423 299.648 384.054 301.216 380.033C303.246 374.827 299.332 369.632 308.707 368.418C327.057 372.683 297.764 410.91 293.463 418.059L282.195 436.852C273.017 452.189 271.163 455.751 251.571 455.726L238.476 455.663C202.723 455.37 207.432 411.697 236.1 412.255C239.312 404.893 241.912 400.569 246.151 393.645C236.396 388.753 234.203 387.517 226.694 379.781C210.97 401.618 196.616 428.336 181.852 451.323C177.658 457.853 169.111 455.686 161.929 455.685L147.252 455.724C139.805 455.73 134.189 456.148 127.839 451.522C110.545 438.924 118.048 415.517 141.634 412.255L141.644 378.042C141.639 352.088 143.869 343.543 130.53 321.429C124.847 312.009 122.103 302.574 120.63 291.779C102.145 291.938 83.5964 287.866 79.4273 266.763C77.8842 258.953 74.4418 233.626 85.7605 231.925Z"/><path d="M84.3431 130.17C90.7308 130.978 91.5727 133.664 91.5163 139.589L91.5622 203.967C91.5447 206.7 88.0953 208.505 85.7605 209.336C75.9971 208.931 78.5151 197.368 78.5094 189.995L78.5017 147.924C78.5045 141.458 76.2878 132.124 84.3431 130.17Z"/><path d="M221.618 201.294C226.37 201.174 230.423 205.15 234.073 207.936C246.948 217.762 266.84 241.431 270.825 257.974C270.033 261.503 268.961 262.984 265.563 264.36C259.925 265.093 258.652 261.388 256.744 257.05C249.435 240.431 237.148 225.674 222.253 215.311C218.675 212.822 217.236 212.018 216.116 207.678C216.958 204.135 218.079 202.365 221.618 201.294Z"/><path d="M178.365 162.036C184.655 161.509 187.252 169.624 191.601 173.096C197.238 177.406 213.483 187.65 199.54 193.158C191.839 192.561 161.167 168.212 178.365 162.036Z"/><path fill="#BCDEF6" d="M327.161 60.2109C326.867 56.3465 329.742 52.9672 333.604 52.6385C337.465 52.3098 340.871 55.1543 341.234 59.0129C342.341 61.6962 350.384 61.207 353.525 68.6188C356.658 76.0103 354.018 85.5564 346.058 88.4088C339.696 90.6885 332.901 88.5639 329.398 96.005C325.996 102.731 332.461 113.836 319.043 119.563C312.226 122.62 301.456 116.926 297.915 126.163C290.768 144.801 286.891 140.839 266.918 140.83L233.882 140.819C231.722 140.825 221.067 141.017 219.325 141.5C213.021 132.951 213.653 115.123 208.386 112.701C205.007 111.147 201.436 112.579 199.966 115.99C197.737 121.968 201.472 133.927 203.718 139.589L91.5163 139.589C91.5727 133.664 90.7308 130.978 84.3431 130.17C83.6655 125.434 84.2591 111.818 84.3431 106.536C77.0762 105.198 78.435 98.5137 78.4885 92.9599L78.5119 81.4999C78.5146 75.7457 78.1657 69.0609 78.6543 63.3759C79.0403 58.8848 91.6256 51.1432 91.5163 71.2511C97.7765 64.2238 101.102 62.6401 109.6 59.9951C113.507 50.6076 122.557 51.0003 126.08 59.9951L327.161 60.2109Z"/><path d="M84.3431 106.536C77.0762 105.198 78.435 98.5137 78.4885 92.9599L78.5119 81.4999C78.5146 75.7457 78.1657 69.0609 78.6543 63.3759C79.0403 58.8848 91.6256 51.1432 91.5163 71.2511L91.5283 89.2489C91.5318 96.8123 93.5676 104.537 84.3431 106.536Z"/><path fill="#6BB9FC" d="M327.161 60.2109C326.867 56.3465 329.742 52.9672 333.604 52.6385C337.465 52.3098 340.871 55.1543 341.234 59.0129C341.603 62.9212 338.713 66.38 334.802 66.713C330.89 67.0459 327.458 64.1253 327.161 60.2109Z"/><path d="M308.707 250.664C362.987 247.919 379.202 197.881 360.815 151.77C358.954 146.805 355.495 142.81 353.167 138.114C342.769 116.841 373.378 86.3224 395.429 107.081C405.262 115.892 413.614 145.217 416.234 157.658C417.412 163.252 419.816 169.859 412.761 172.564C412.346 178.877 413.306 187.532 412.761 193.158C425.088 196.963 415.27 222.957 412.118 231.478C397.594 270.732 357.359 299.556 315.378 300.526L315.407 332.707C315.361 339.305 316.645 343.761 308.707 345.274C302.942 344.07 302.181 341.416 302.184 335.853L302.224 296.144C302.217 247.534 284.151 216.822 245.093 186.658C223.44 169.935 216.507 164.846 203.718 139.589C201.472 133.927 197.737 121.968 199.966 115.99C201.436 112.579 205.007 111.147 208.386 112.701C213.653 115.123 213.021 132.951 219.325 141.5C224.841 151.646 234.162 162.548 243.544 169.355C266.568 186.06 303.849 220.823 308.707 250.664Z"/><path fill="#FEC302" d="M312.831 263.311C313.786 263.293 314.725 263.222 315.675 263.122C373.161 257.043 393.124 198.649 373.552 148.901C371.455 143.571 364.64 132.973 364.358 129.58C363.41 118.154 377.237 107.549 386.739 116.879C393.712 123.725 400.564 146.498 402.795 156.255C404.226 162.517 403.185 173.539 412.439 172.6L412.761 172.564C412.346 178.877 413.306 187.532 412.761 193.158C407.565 193.632 405.811 196.838 405.506 201.607C402.51 248.562 361.5 285.789 315.378 287.811C315.091 278.664 314.556 272.173 312.831 263.311Z"/><path d="M385.047 58.1011C404.821 56.0065 434.106 74.3252 432.718 96.6047C430.931 99.4298 429.871 100.572 426.381 100.83C416.347 100.453 422.768 78.669 393.599 71.7254C388.267 70.6005 379.345 73.2956 378.342 65.3618C377.749 60.6667 380.992 58.5943 385.047 58.1011Z"/><path d="M395.203 303.092C401.713 302.246 405.146 311.296 398.291 315.382C392.066 319.092 371.698 332.107 365.276 333.784C357.588 333.769 355.216 324.999 362.641 320.678C368.109 317.496 390.552 303.621 395.203 303.092Z"/><path d="M419.697 277.812C423.482 277.561 425.545 280.873 426.381 284.053C425.231 288.715 423.745 293.491 418.679 294.791C407.993 294.741 410.625 279.438 419.697 277.812Z"/></svg>