<?xml version="1.0" encoding="utf-8" ?><svg xmlns="http://www.w3.org/2000/svg" xmlns:xlink="http://www.w3.org/1999/xlink" width="1024" height="1024" viewBox="0 0 1024 1024"><path fill="#BCDEF6" transform="scale(2 2)" d="M147.501 198.443C163.553 190.461 179.435 189.318 196.183 195.976C203.559 198.909 205.937 203.6 213.416 197.213C218.73 198.52 223.843 206.645 227.696 209.848C243.644 207.526 243.548 240.267 249.05 250.86L254.157 260.876C261.281 275.02 258.083 286.883 241.643 289.481L241.639 303.334C241.649 304.925 242.254 306.907 242.188 308.007C240.849 330.367 220.512 332.007 203.251 331.127C203.255 334.606 203.322 338.285 203.251 341.747C232.595 348.869 278.166 357.975 280.466 395.434C280.806 400.464 283.111 432.027 277.306 433.72C271.003 435.558 260.294 434.031 253.675 434.547C248.133 434.979 245.399 432.392 244.42 427.232C241.2 427.348 226.707 427.69 224.384 426.971C224.502 429.73 223.084 432.328 220.698 433.72C218.312 435.112 215.352 435.069 213.008 433.607C210.665 432.146 209.323 429.507 209.523 426.752C206.924 427.355 191.289 427.674 189.112 426.731C188.78 427.084 188.878 426.903 188.754 427.232C188.07 431.805 184.874 434.436 180.454 434.476L85.2072 434.529C69.4836 434.567 67.7511 435.925 68.0225 417.789C68.1392 409.994 67.4976 402.054 68.8374 394.342C72.6389 374.336 87.7003 358.832 106.899 353.061C113.171 351.175 118.193 349.334 122.409 355.957C125.065 353.44 137.258 347.18 140.661 346.396C140.669 337.455 140.45 327.961 140.661 319.102C133.631 314.548 106.012 293.897 116.506 283.815C114.38 277.15 111.773 268.353 111.766 261.407C121.301 254.801 108.045 217.595 147.501 198.443Z"/><path transform="scale(2 2)" d="M227.696 209.848C243.644 207.526 243.548 240.267 249.05 250.86L254.157 260.876C261.281 275.02 258.083 286.883 241.643 289.481L241.639 303.334C241.649 304.925 242.254 306.907 242.188 308.007C240.849 330.367 220.512 332.007 203.251 331.127C203.255 334.606 203.322 338.285 203.251 341.747C232.595 348.869 278.166 357.975 280.466 395.434C280.806 400.464 283.111 432.027 277.306 433.72C271.003 435.558 260.294 434.031 253.675 434.547C248.133 434.979 245.399 432.392 244.42 427.232C246.803 416.646 257.013 419.67 266.012 419.675C266.039 405.512 268.709 385.442 255.524 375.965C242.715 366.758 224.893 363.052 209.976 358.362C200.681 355.44 188.259 355.421 188.736 342.291C188.922 336.723 188.172 330.969 189.529 325.534C195.923 305.538 229.45 329.786 227.733 303.282C227.727 297.926 227.721 292.258 227.645 286.938C227.397 264.378 243.268 280.237 243.474 272.26C243.566 268.721 234.367 253.51 232.43 250.221C231.697 248.977 230.097 233.62 227.429 227.512C224.459 220.411 219.463 215.649 227.696 209.848Z"/><path transform="scale(2 2)" d="M188.754 427.232C188.07 431.805 184.874 434.436 180.454 434.476L85.2072 434.529C69.4836 434.567 67.7511 435.925 68.0225 417.789C68.1392 409.994 67.4976 402.054 68.8374 394.342C72.6389 374.336 87.7003 358.832 106.899 353.061C113.171 351.175 118.193 349.334 122.409 355.957C123.305 359.755 121.949 362.849 119.515 365.781L119.515 365.781C98.2053 383.907 100.939 393.713 100.984 419.675L173.241 419.665C180.302 419.658 186.978 418.166 188.754 427.232Z"/><path fill="#7DB5E1" transform="scale(2 2)" d="M82.7602 419.675C82.73 404.94 81.0729 392.69 91.1213 380.746C98.7761 371.648 107.778 366.946 119.515 365.781L119.515 365.781C98.2053 383.907 100.939 393.713 100.984 419.675L82.7602 419.675Z"/><path fill="#7DB5E1" transform="scale(2 2)" d="M147.501 198.443C147.098 200.617 143.582 203.108 142.28 205.089C122.72 234.871 132.507 279.996 159.766 301.811C171.98 311.844 171.036 307.54 170.78 324.913C170.608 336.534 172.248 351.179 155.849 349.153C152.854 352.785 149.716 354.303 145.06 352.782C142.381 351.147 141.356 349.365 140.661 346.396C140.669 337.455 140.45 327.961 140.661 319.102C133.631 314.548 106.012 293.897 116.506 283.815C114.38 277.15 111.773 268.353 111.766 261.407C121.301 254.801 108.045 217.595 147.501 198.443Z"/><path transform="scale(2 2)" d="M116.506 283.815C120.532 281.613 124.023 281.191 126.84 285.384C133.447 295.29 141.273 301.999 151.36 307.952C154.109 309.574 155.72 311.251 155.777 314.55C155.947 324.222 156.868 339.984 155.849 349.153C152.854 352.785 149.716 354.303 145.06 352.782C142.381 351.147 141.356 349.365 140.661 346.396C140.669 337.455 140.45 327.961 140.661 319.102C133.631 314.548 106.012 293.897 116.506 283.815Z"/><path transform="scale(2 2)" d="M209.523 426.752C209.808 422.818 213.113 419.79 217.056 419.848C221 419.906 224.214 423.03 224.384 426.971C224.502 429.73 223.084 432.328 220.698 433.72C218.312 435.112 215.352 435.069 213.008 433.607C210.665 432.146 209.323 429.507 209.523 426.752Z"/><path fill="#7DB5E1" transform="scale(2 2)" d="M140.661 346.396C141.356 349.365 142.381 351.147 145.06 352.782C137.388 354.739 131.333 358.313 124.523 362.247C122.714 363.291 121.692 364.842 119.515 365.781L119.515 365.781C121.949 362.849 123.305 359.755 122.409 355.957C125.065 353.44 137.258 347.18 140.661 346.396Z"/><path fill="#FEC302" transform="scale(2 2)" d="M284.017 218.833L283.645 218.756C264.349 214.641 245.405 199.906 242.47 179.368C240.56 166.009 241.169 138.767 241.683 124.334C242.513 101.025 261.072 80.0997 284.384 77.3649C289.425 76.7735 295.116 77.0422 300.136 77.0462L374.197 77.0561C383.881 77.0547 397.659 76.4087 406.801 78.3507C443.302 86.1047 453.451 140.257 432.426 134.053C432.21 135.948 432.549 137.454 432.426 139.172C442.089 139.968 443.519 163.941 432.426 165.375L432.426 179.184C437.222 180.979 439.031 184.873 437.208 189.621C428.121 213.294 410.447 218.97 387.86 218.848L332.419 218.833C326.439 228.368 303.942 249.284 294.72 249.481C283.608 249.717 283.998 239.539 284.017 232.017L284.017 218.833ZM429.841 131.799C428.054 128.035 428.74 125.247 428.395 121.239C427.019 105.233 413.42 92.1702 397.331 91.5228C389.691 91.2154 382.11 91.2953 374.465 91.2927L306.975 91.2971C291.663 91.2788 267.181 90.7563 261.375 109.459C278.48 97.436 284.484 99.7631 304.573 99.7559L381.276 99.7544C395.777 99.7602 413.067 100.355 416.182 119.508C417.129 125.33 415.126 133.317 422.481 135.387C425.427 136.164 428.168 133.906 429.841 131.799Z"/><path transform="scale(2 2)" d="M284.017 218.833L283.645 218.756C264.349 214.641 245.405 199.906 242.47 179.368C240.56 166.009 241.169 138.767 241.683 124.334C242.513 101.025 261.072 80.0997 284.384 77.3649C289.425 76.7735 295.116 77.0422 300.136 77.0462L374.197 77.0561C383.881 77.0547 397.659 76.4087 406.801 78.3507C443.302 86.1047 453.451 140.257 432.426 134.053C431.502 133.341 430.701 132.584 429.841 131.799C428.054 128.035 428.74 125.247 428.395 121.239C427.019 105.233 413.42 92.1702 397.331 91.5228C389.691 91.2154 382.11 91.2953 374.465 91.2927L306.975 91.2971C291.663 91.2788 267.181 90.7563 261.375 109.459C259.199 111.323 257.861 116.451 257.216 119.178C269.634 139.663 246.844 186.562 284.07 195.892C293.411 198.658 304.513 194.127 310.55 202.999C313.743 207.691 310.674 215.997 313.593 218.833C315.578 216.471 322.491 205.491 322.528 205.47C326.168 203.4 340.509 204.401 345.009 204.403L381.56 204.433C397.7 204.466 413.184 205.282 422.235 188.112C425.196 182.495 424.773 178.946 432.426 179.184C437.222 180.979 439.031 184.873 437.208 189.621C428.121 213.294 410.447 218.97 387.86 218.848L332.419 218.833C326.439 228.368 303.942 249.284 294.72 249.481C283.608 249.717 283.998 239.539 284.017 232.017L284.017 218.833Z"/><path fill="#E69A09" transform="scale(2 2)" d="M257.216 119.178C269.634 139.663 246.844 186.562 284.07 195.892C293.411 198.658 304.513 194.127 310.55 202.999C313.743 207.691 310.674 215.997 313.593 218.833C307.581 223.757 305.896 226.637 298.539 231.534C298.371 226.213 299.609 211.256 297.185 207.515C293.396 201.667 261.531 207.546 256.584 175.873C255.499 168.922 256.152 161.224 256.144 154.182L256.125 137.469C256.122 131.833 255.929 124.579 257.216 119.178Z"/><path transform="scale(2 2)" d="M432.426 139.172C442.089 139.968 443.519 163.941 432.426 165.375C427.318 165.057 424.582 161.192 424.963 156.414C425.611 148.272 421.978 140.791 432.426 139.172Z"/><path transform="scale(2 2)" d="M294.647 127.819C297.892 127.647 302.837 127.81 306.206 127.811L359.952 127.816C364.548 127.816 376.823 127.177 380.459 128.59C385.863 130.69 385.873 139.465 378.462 142.025C376.225 142.325 372.081 142.045 369.63 142.034L316.609 142.026C312.469 142.027 296.325 142.527 292.725 141.315C288.543 139.908 286.171 130.026 294.647 127.819Z"/><path transform="scale(2 2)" d="M295.573 153.423C301.3 153.427 329.014 152.821 332.159 153.942C338.35 156.149 338.671 164.856 330.962 167.985C320.533 168.714 306.901 168.157 296.361 167.883C288.088 167.668 285.865 155.102 295.573 153.423Z"/><path transform="scale(2 2)" d="M111.766 261.407C94.2693 266.095 102.19 234.512 104.706 227.012C117.045 190.232 159.176 168.065 196.251 180.742C204.718 183.637 217.333 186.386 213.416 197.213C205.937 203.6 203.559 198.909 196.183 195.976C179.435 189.318 163.553 190.461 147.501 198.443C108.045 217.595 121.301 254.801 111.766 261.407Z"/></svg>