<?xml version="1.0" encoding="utf-8" ?><svg xmlns="http://www.w3.org/2000/svg" xmlns:xlink="http://www.w3.org/1999/xlink" width="1024" height="1024" viewBox="0 0 1024 1024"><path transform="scale(2 2)" d="M305.688 175.251C305.74 170.404 304.461 148.54 307.456 145.43C310.756 142.005 317.58 143.581 318.223 148.49C318.648 151.737 318.496 155.386 318.492 158.688L318.48 175.251C348.503 175.681 355.176 171.669 367.68 201.82L395.052 201.803C402.094 201.792 411.562 199.541 413.429 207.829C418.785 209.129 424.096 211.036 429.456 212.188C431.628 209.794 432.621 208.551 434.48 205.997C436.597 208.567 439.867 211.4 441.429 213.409C440.125 214.735 438.806 216.105 437.478 217.402C438.475 220.689 445.222 226.358 447.25 229.721C457.319 229.549 458.927 239.763 458.938 248.025C458.959 263.556 450.475 274.915 437.478 282.579C442.903 290.517 449.237 293.552 447.002 306.57C445.72 313.701 441.012 321.172 434.48 314.287C431.847 317.687 429.711 320.444 426.492 323.316C438.577 329.701 413.231 349.104 408.296 353.564C395.069 365.52 382.386 365.681 365.521 365.632L256.335 365.621C252.238 365.622 244.244 365.908 240.489 365.623C238.389 364.091 236.846 362.462 236.601 359.724L236.413 359.321C231.663 359.555 227.911 359.867 223.016 359.724C222.544 362.744 221.656 363.661 219.442 365.623C217.057 365.797 213.504 365.636 211.018 365.633L175.951 365.64C165.114 365.651 153.427 365.585 144.486 358.377C137.413 352.676 111.745 327.199 106.213 318.796C93.4958 299.474 107.97 280.489 129.379 277.254C133.345 274.256 139.636 267.99 143.4 264.429L164.902 244.391C152.485 244.443 140.836 246.55 140.59 229.721L68.5231 229.728C60.8667 229.729 50.0438 230.548 52.117 219.509C54.76 213.181 62.161 214.632 67.8134 214.696L140.59 214.73C140.915 202.308 145.654 198.636 158.036 198.693L170.193 198.766C179.091 198.827 179.721 198.4 187.688 194.003C193.968 190.538 218.229 175.998 223.411 175.347C230.253 174.488 243.688 172.899 244.55 182.269C248.727 182.587 255.501 182.237 259.964 182.269C261.591 172.403 271.29 175.239 279.771 175.242L305.688 175.251ZM169.826 340.26C173.324 343.308 177.748 349.513 180.945 353.165L204.935 353.156C212.495 353.157 221.698 350.763 223.016 359.724C227.911 359.867 231.663 359.555 236.413 359.321L236.601 359.724C236.846 362.462 238.389 364.091 240.489 365.623C244.244 365.908 252.238 365.622 256.335 365.621L365.521 365.632C382.386 365.681 395.069 365.52 408.296 353.564C413.231 349.104 438.577 329.701 426.492 323.316C429.711 320.444 431.847 317.687 434.48 314.287C429.991 303.604 444.917 290.336 413.014 290.34L286.053 290.364C281.748 290.368 273.246 290.673 269.417 289.688C267.161 287.493 266.715 285.527 266.393 282.579C262.712 282.798 256.575 282.595 252.757 282.579C252.817 285.605 252.553 287.438 250.266 289.688C246.856 290.594 239.641 290.371 235.879 290.368L157.236 290.35C155.827 290.296 154.152 290.342 152.719 290.35C150.571 293.117 148.738 295.527 146.782 298.431C148.034 298.796 148.301 298.889 149.428 299.535C153.781 303.273 151.989 308.742 146.782 310.62C148.385 313.68 151.237 318.39 153.444 320.946C154.324 321.921 156.545 324.247 157.236 325.19C158.551 326.84 166.393 335.237 166.53 335.958C165.442 335.429 164.22 335.239 163.023 335.413C160.578 335.766 158.595 337.572 158.013 339.972C157.432 342.373 158.369 344.885 160.381 346.319C162.392 347.752 165.073 347.817 167.152 346.484C169.231 345.15 170.29 342.686 169.826 340.26Z"/><path fill="#BCDEF6" transform="scale(2 2)" d="M250.266 289.688C254.159 289.801 266.26 290.183 269.417 289.688C273.246 290.673 281.748 290.368 286.053 290.364L413.014 290.34C444.917 290.336 429.991 303.604 434.48 314.287C431.847 317.687 429.711 320.444 426.492 323.316C438.577 329.701 413.231 349.104 408.296 353.564C395.069 365.52 382.386 365.681 365.521 365.632L256.335 365.621C252.238 365.622 244.244 365.908 240.489 365.623C238.389 364.091 236.846 362.462 236.601 359.724L236.413 359.321C231.663 359.555 227.911 359.867 223.016 359.724C221.698 350.763 212.495 353.157 204.935 353.156L180.945 353.165C177.748 349.513 173.324 343.308 169.826 340.26C169.468 338.386 168.246 336.792 166.53 335.958C166.393 335.237 158.551 326.84 157.236 325.19C156.545 324.247 154.324 321.921 153.444 320.946C151.237 318.39 148.385 313.68 146.782 310.62C151.989 308.742 153.781 303.273 149.428 299.535C148.301 298.889 148.034 298.796 146.782 298.431C148.738 295.527 150.571 293.117 152.719 290.35C154.152 290.342 155.827 290.296 157.236 290.35L235.879 290.368C239.641 290.371 246.856 290.594 250.266 289.688ZM279.394 331.152C284.058 330.364 287.195 325.94 286.396 321.278C285.597 316.617 281.166 313.49 276.506 314.3C271.862 315.107 268.748 319.521 269.544 324.167C270.34 328.813 274.747 331.937 279.394 331.152ZM358.639 331.297C363.074 330.12 365.706 325.561 364.508 321.132C363.309 316.703 358.738 314.093 354.315 315.312C349.921 316.523 347.332 321.057 348.522 325.457C349.712 329.856 354.234 332.467 358.639 331.297ZM200.386 331.396C204.991 330.745 208.205 326.498 207.581 321.889C206.957 317.281 202.728 314.042 198.116 314.64C193.467 315.243 190.196 319.514 190.825 324.159C191.455 328.805 195.744 332.052 200.386 331.396Z"/><path transform="scale(2 2)" d="M236.601 359.724C237.123 352.424 242.999 353.167 248.473 353.163L362.366 353.175C401.469 353.174 391.951 349.085 419.052 325.297C421.903 322.795 422.884 323.05 426.492 323.316C438.577 329.701 413.231 349.104 408.296 353.564C395.069 365.52 382.386 365.681 365.521 365.632L256.335 365.621C252.238 365.622 244.244 365.908 240.489 365.623C238.389 364.091 236.846 362.462 236.601 359.724Z"/><path fill="#7FCDFE" transform="scale(2 2)" d="M152.719 290.35C154.152 290.342 155.827 290.296 157.236 290.35C155.592 293.284 149.537 296.832 149.428 299.535C148.301 298.889 148.034 298.796 146.782 298.431C148.738 295.527 150.571 293.117 152.719 290.35Z"/><path transform="scale(2 2)" d="M276.038 301.482C287.732 300.455 298.068 309.048 299.194 320.734C300.319 332.42 291.813 342.828 280.137 344.051C268.321 345.29 257.762 336.659 256.623 324.834C255.484 313.008 264.203 302.521 276.038 301.482ZM279.394 331.152C284.058 330.364 287.195 325.94 286.396 321.278C285.597 316.617 281.166 313.49 276.506 314.3C271.862 315.107 268.748 319.521 269.544 324.167C270.34 328.813 274.747 331.937 279.394 331.152Z"/><path transform="scale(2 2)" d="M353.417 302.28C365.005 300.62 375.743 308.674 377.394 320.264C379.045 331.853 370.982 342.585 359.391 344.226C347.813 345.866 337.096 337.815 335.447 326.238C333.798 314.661 341.841 303.938 353.417 302.28ZM358.639 331.297C363.074 330.12 365.706 325.561 364.508 321.132C363.309 316.703 358.738 314.093 354.315 315.312C349.921 316.523 347.332 321.057 348.522 325.457C349.712 329.856 354.234 332.467 358.639 331.297Z"/><path transform="scale(2 2)" d="M197.744 301.875C209.36 301.085 219.435 309.82 220.299 321.43C221.162 333.04 212.491 343.171 200.887 344.108C189.178 345.054 178.937 336.288 178.065 324.573C177.193 312.858 186.024 302.673 197.744 301.875ZM200.386 331.396C204.991 330.745 208.205 326.498 207.581 321.889C206.957 317.281 202.728 314.042 198.116 314.64C193.467 315.243 190.196 319.514 190.825 324.159C191.455 328.805 195.744 332.052 200.386 331.396Z"/><path transform="scale(2 2)" d="M399.23 300.874C406.681 300.828 415.074 298.688 417.514 307.232C415.404 314.157 411.138 313.484 405.188 313.359C401.046 313.353 395.231 313.727 391.286 313.079C387.309 312.427 379.815 300.88 399.23 300.874Z"/><path fill="#FEC302" transform="scale(2 2)" d="M191.888 238.05C192.362 230.607 189.039 222.423 195.918 218.614C207.516 212.192 219.177 205.339 231.264 199.911C236.24 197.677 253.461 198.725 259.411 198.729L331.321 198.694C342.208 198.746 342.511 197.434 352.403 201.723L352.629 201.82C354.053 203.769 355.507 206.913 356.623 209.119L363.017 221.833C365.393 226.497 370.656 231.775 364.575 236.333C360.625 239.293 334.627 238.06 328.811 238.059L225.437 238.042C218.311 238.045 207.823 238.422 200.952 238.05C199.735 237.868 193.565 238.034 191.888 238.05Z"/><path transform="scale(2 2)" d="M287.857 205.997C289.134 206.021 291.792 206.192 293.1 206.106C303.179 205.442 303.97 217.747 294.749 218.734C291.073 218.785 285.925 219.481 282.888 217.247C278.062 213.698 280.635 206.532 287.857 205.997Z"/><path transform="scale(2 2)" d="M315.656 205.997C318.453 205.95 324.038 205.651 326.465 206.63C332.79 209.181 331.298 216.576 325.399 218.734C324.209 218.689 321.063 218.468 319.716 218.599C308.837 219.66 307.621 207.738 315.656 205.997Z"/><path fill="#FEC302" transform="scale(2 2)" d="M434.48 205.997C436.597 208.567 439.867 211.4 441.429 213.409C440.125 214.735 438.806 216.105 437.478 217.402C438.475 220.689 445.222 226.358 447.25 229.721C439.769 236.223 445.652 238.801 446.462 246.308C448.167 262.115 432.176 275.239 417.514 276.686L396.176 257.02C388.698 250.192 385.365 246.093 375.621 242.42C385.025 232.279 379.013 224.686 373.933 214.73C379.428 214.655 406.949 215.462 409.446 214.056C411.806 212.727 412.661 210.257 413.429 207.829C418.785 209.129 424.096 211.036 429.456 212.188C431.628 209.794 432.621 208.551 434.48 205.997Z"/><path transform="scale(2 2)" d="M434.48 205.997C436.597 208.567 439.867 211.4 441.429 213.409C440.125 214.735 438.806 216.105 437.478 217.402C436.105 218.67 434.421 220.494 433.08 221.861C430.789 219.506 428.563 217.285 426.492 214.73C427.725 213.869 428.558 213.405 429.456 212.188C431.628 209.794 432.621 208.551 434.48 205.997Z"/><path fill="#FEC302" transform="scale(2 2)" d="M181.943 259.119C189.422 265 192.932 263.501 202.441 263.494L311.592 263.478C327.437 263.473 352.532 262.387 367.976 265.327C371.687 266.033 384.01 273.411 384.029 276.839L383.527 277.254L283.33 277.24C278.246 277.231 267.437 275.63 266.393 282.579C262.712 282.798 256.575 282.595 252.757 282.579C250 275.376 240.553 277.227 233.696 277.238L164.902 277.254C165.291 275.662 179.519 261.916 181.943 259.119Z"/><defs><linearGradient id="gradient_0" gradientUnits="userSpaceOnUse" x1="272.48584" y1="244.91542" x2="273.17233" y2="279.24136"><stop offset="0" stop-color="#F79306"/><stop offset="1" stop-color="#FBB308"/></linearGradient></defs><path fill="url(#gradient_0)" transform="scale(2 2)" d="M180.945 246.072C188.447 254.767 188.795 252.914 199.735 252.887L349.6 252.86C370.331 252.847 373.174 252.032 389.397 268.169C392.552 271.307 396.039 274.225 399.23 277.254L383.527 277.254L384.029 276.839C384.01 273.411 371.687 266.033 367.976 265.327C352.532 262.387 327.437 263.473 311.592 263.478L202.441 263.494C192.932 263.501 189.422 265 181.943 259.119C179.519 261.916 165.291 275.662 164.902 277.254C159.118 277.211 153.205 278.231 147.519 277.254C154.425 273.381 174.271 252.689 180.945 246.072Z"/><path fill="#FBA707" transform="scale(2 2)" d="M244.55 182.269C248.727 182.587 255.501 182.237 259.964 182.269C261.461 187.446 263.652 188.279 268.831 188.325L319.428 188.286C337.589 188.284 345.468 183.674 352.629 201.82L352.403 201.723C342.511 197.434 342.208 198.746 331.321 198.694L259.411 198.729C253.461 198.725 236.24 197.677 231.264 199.911C219.177 205.339 207.516 212.192 195.918 218.614C189.039 222.423 192.362 230.607 191.888 238.05C193.565 238.034 199.735 237.868 200.952 238.05C199.53 238.241 191.985 238.062 190.247 238.05C188.409 236.269 186.83 234.696 184.803 233.113C184.698 225.531 184.802 217.697 184.803 210.094C197.391 202.839 211.091 195.549 224.051 188.882C230.633 185.496 240.655 193.728 244.55 182.269Z"/><path fill="#0498FC" transform="scale(2 2)" d="M180.945 353.165C152.663 353.302 154.791 351.593 137.068 333.526L124.44 320.676C119.841 315.929 114.658 311.758 114.59 304.745C114.448 290.048 127.543 290.312 137.599 290.326L152.719 290.35C150.571 293.117 148.738 295.527 146.782 298.431C148.034 298.796 148.301 298.889 149.428 299.535C153.781 303.273 151.989 308.742 146.782 310.62C148.385 313.68 151.237 318.39 153.444 320.946C154.324 321.921 156.545 324.247 157.236 325.19C158.551 326.84 166.393 335.237 166.53 335.958C165.442 335.429 164.22 335.239 163.023 335.413C160.578 335.766 158.595 337.572 158.013 339.972C157.432 342.373 158.369 344.885 160.381 346.319C162.392 347.752 165.073 347.817 167.152 346.484C169.231 345.15 170.29 342.686 169.826 340.26C173.324 343.308 177.748 349.513 180.945 353.165Z"/><path transform="scale(2 2)" d="M146.782 310.62C142.848 310.536 138.802 310.778 134.882 310.567C126.012 310.09 126.665 298.27 135.635 298.399C139.203 298.451 143.194 298.403 146.782 298.431C148.034 298.796 148.301 298.889 149.428 299.535C153.781 303.273 151.989 308.742 146.782 310.62Z"/><path fill="white" transform="scale(2 2)" d="M143.256 328.633C143.322 326.614 144.348 324.747 146.017 323.609C147.685 322.47 149.797 322.196 151.702 322.87C153.533 323.519 154.965 324.972 155.587 326.812C156.399 329.214 155.7 331.869 153.81 333.56C151.921 335.251 149.205 335.652 146.907 334.579C144.609 333.507 143.173 331.167 143.256 328.633Z"/><path fill="#363C47" transform="scale(2 2)" d="M140.59 214.73C140.653 216.476 140.687 217.769 140.59 219.509L58.8441 219.552C56.8643 219.573 53.9034 219.428 52.117 219.509C54.76 213.181 62.161 214.632 67.8134 214.696L140.59 214.73Z"/><path fill="#FBA707" transform="scale(2 2)" d="M154.344 211.06L172.26 211.06C172.251 213.772 172.557 230.818 171.991 231.89L171.062 231.937L153.444 231.937C153.151 229.691 153.178 212.749 153.733 211.254L154.344 211.06Z"/></svg>