<?xml version="1.0" encoding="utf-8" ?><svg xmlns="http://www.w3.org/2000/svg" xmlns:xlink="http://www.w3.org/1999/xlink" width="1024" height="1024" viewBox="0 0 1024 1024"><path transform="scale(2 2)" d="M114.078 272.54C103.944 272.297 107.257 254.227 107.241 246.286L107.172 206.423C107.088 187.629 122.958 185.339 137.064 185.331L331.565 185.333C346.611 185.332 367.954 183.652 367.25 206.277C389.341 206.233 406.289 204.582 423.728 222.344C453.782 252.955 436.689 293.858 409.765 320.162C391.067 338.429 369.377 348.311 343.285 348.544C333.799 359.699 318.681 374.727 304.968 380.382C326.768 380.634 349.13 380.396 370.967 380.391L389.071 380.369C394.748 380.362 405.972 378.647 405.683 387.25C405.395 395.873 388.189 392.629 381.855 392.849C359.976 420.217 357.359 428.318 321.163 428.267L151.864 428.266C122.379 428.278 111.41 417.072 94.5843 392.849C89.0733 392.712 83.3092 393.21 77.8791 392.619C70.3086 391.796 70.7199 380.541 78.4591 380.354C81.9438 380.27 85.3937 380.346 88.8773 380.37L169.809 380.382C164.546 377.261 129.013 357.373 147.616 350.796C144.459 347.567 141.738 343.058 138.521 339.638C127.211 360.047 108.678 301.353 108.611 293.473C108.574 289.159 112.743 288.148 116.214 288.294C115.477 283.761 114.51 277.008 114.078 272.54ZM364.57 303.767C371.414 301.081 378.785 294.895 383.979 289.652C393.678 279.806 411.71 253.653 389.603 246.976C386.219 245.954 371.56 246.489 367.25 246.481L367.261 271.062C367.253 283.749 366.312 291.64 364.57 303.767Z"/><path fill="#FEC302" transform="scale(2 2)" d="M164.688 237.453L164.663 225.624C164.623 219.968 163.328 212.905 171.545 212.881C178.601 212.861 176.664 227.731 176.785 232.275L269.728 232.267C277.096 232.266 288.924 229.855 286.59 241.471C289.159 241.803 296.07 241.366 299.344 241.471C303.873 247.346 321.35 247.666 319.077 236.034L355.211 236.034L355.218 267.618C355.217 275.158 355.431 283.427 354.526 290.852C348.618 339.269 305.972 380.469 256.518 380.406L223.332 380.385C221.286 380.388 218.623 380.267 216.64 380.425C197.46 382.174 174.905 370.602 160.389 359.288C156.459 356.225 152.693 350.997 147.616 350.796C144.459 347.567 141.738 343.058 138.521 339.638C127.211 360.047 108.678 301.353 108.611 293.473C108.574 289.159 112.743 288.148 116.214 288.294C115.477 283.761 114.51 277.008 114.078 272.54C121.22 270.958 119.389 263.321 119.39 257.703L119.375 237.453C126.864 237.442 134.53 237.348 142.004 237.453L164.688 237.453Z"/><path transform="scale(2 2)" d="M164.688 237.453L164.663 225.624C164.623 219.968 163.328 212.905 171.545 212.881C178.601 212.861 176.664 227.731 176.785 232.275L269.728 232.267C277.096 232.266 288.924 229.855 286.59 241.471C282.63 246.526 277.263 244.779 270.969 244.765L176.785 244.746L176.785 257.531C196.472 259.391 191.6 286.013 192.255 298.884C193.543 324.199 160.8 331.75 152.047 307.749C149.961 299.654 151.71 289.706 151.047 281.623C150.195 271.246 153.955 260.631 164.688 257.531L164.688 237.453Z"/><path fill="#3882A4" transform="scale(2 2)" d="M169.809 268.302C183.698 267.025 180.48 283.099 180.272 292.803C180.119 299.924 181.411 305.721 174.563 309.865C160.992 313.36 163.047 296.764 163.013 288.638C163.211 280.612 160.43 271.765 169.809 268.302Z"/><path transform="scale(2 2)" d="M138.521 339.638C127.211 360.047 108.678 301.353 108.611 293.473C108.574 289.159 112.743 288.148 116.214 288.294C120.895 290.406 120.807 294.353 121.955 298.916C124.479 308.953 128.498 318.662 133.37 327.78C135.552 331.865 139.053 334.749 138.521 339.638Z"/><path transform="scale(2 2)" d="M330.65 284.767C350.448 283.682 325.676 345.743 281.308 358.489C275.067 359.255 272.144 352.3 275.861 348.244C277.24 346.739 284.761 344.151 287.243 342.88C306.026 333.262 321.406 315.315 324.999 294.16C325.823 289.306 325.501 286.501 330.65 284.767Z"/><path fill="white" transform="scale(2 2)" d="M146.121 197.47L327.093 197.465C334.259 197.463 341.534 197.362 348.703 197.632C356.896 197.94 355.245 209.133 355.238 214.534L355.211 236.034L319.077 236.034C321.35 247.666 303.873 247.346 299.344 241.471C296.07 241.366 289.159 241.803 286.59 241.471C288.924 229.855 277.096 232.266 269.728 232.267L176.785 232.275C176.664 227.731 178.601 212.861 171.545 212.881C163.328 212.905 164.623 219.968 164.663 225.624L164.688 237.453L142.004 237.453C141.957 228.067 142.082 218.597 143.564 209.315C144.178 205.474 145.584 201.482 146.077 197.81L146.121 197.47Z"/><path transform="scale(2 2)" d="M299.344 241.471C295.21 230.579 314.723 228.92 319.077 236.034C321.35 247.666 303.873 247.346 299.344 241.471Z"/><path fill="#BCDEF6" transform="scale(2 2)" d="M119.375 237.453L119.358 217.365C119.351 192.911 124.11 197.409 146.121 197.47L146.077 197.81C145.584 201.482 144.178 205.474 143.564 209.315C142.082 218.597 141.957 228.067 142.004 237.453C134.53 237.348 126.864 237.442 119.375 237.453Z"/><path fill="#BCDEF6" transform="scale(2 2)" d="M109.805 392.849L131.126 392.84C134.97 392.832 139.496 392.685 143.284 392.849L367.25 392.849C345.713 418.313 342.853 416.025 312.218 416.022L162.996 416.015C133.922 416.064 128.77 416.467 109.805 392.849Z"/><path fill="#2E9BE9" transform="scale(2 2)" d="M109.805 392.849L131.126 392.84C134.97 392.832 139.496 392.685 143.284 392.849C144.023 408.219 155.074 409.518 162.996 416.015C133.922 416.064 128.77 416.467 109.805 392.849Z"/><path fill="#BCDEF6" transform="scale(2 2)" d="M367.25 218.372C387.092 218.335 399.416 216.182 415.336 231.121C451.979 265.506 397.51 330.619 358.813 334.662C356.975 335.184 354.031 335.449 352.135 335.586C352.514 334.692 352.905 333.895 353.332 333.022C355.465 328.838 357.569 324.098 359.685 320.083C383.2 309.441 399.096 297.397 409.477 272.231C415.891 256.683 411.43 243.029 395.658 236.352C389.748 233.85 374.368 234.724 367.25 234.74L367.25 218.372Z"/><path fill="#A8D9FC" transform="scale(2 2)" d="M353.332 333.022L353.865 333.15L354.961 332.381L355.484 332.477C356.152 333.466 355.324 333.971 354.548 334.547L354.729 334.804C356.479 334.857 357.52 334.311 358.813 334.662C356.975 335.184 354.031 335.449 352.135 335.586C352.514 334.692 352.905 333.895 353.332 333.022Z"/><path transform="scale(2 2)" d="M180.906 79.0166C190.667 78.3628 205.551 108.124 187.04 125.87C184.216 128.577 179.418 131.247 177.67 134.843C170.355 149.727 197.936 161.493 180.906 165.564C168.714 167.431 155.775 136.451 172.337 121.918C179.011 116.061 183.901 114.163 184.369 104.621C184.833 95.1488 176.827 92.6574 174.563 85.1187C175.665 80.644 176.575 79.9213 180.906 79.0166Z"/><path transform="scale(2 2)" d="M240.947 79.0166C251.345 77.5094 265.793 108.007 248.414 124.998C244.605 128.799 239.095 131.075 237.686 136.665C233.888 151.742 256.549 159.145 242.288 165.564C230.697 167.89 216.14 137.498 233.463 121.639C236.306 119.036 239.738 117.051 241.865 113.816C252.938 97.1594 231.191 90.4615 236.775 81.497C237.747 79.9362 239.197 79.3603 240.947 79.0166Z"/><path transform="scale(2 2)" d="M300.217 79.0166C301.359 78.9716 302.934 79.1042 303.837 79.7909C318.481 90.9145 320.041 113.839 306.363 126.367C303.312 129.162 300.075 131.159 297.95 134.642C291.258 145.605 304.53 152.226 306.388 159.29C305.364 162.734 304.878 164.179 301.357 165.564C294.751 166.687 288.133 155.285 286 150.087C277.48 129.316 296.267 122.922 302.685 111.211C310.211 94.9611 284.332 83.9741 300.217 79.0166Z"/></svg>