<?xml version="1.0" encoding="utf-8" ?><svg xmlns="http://www.w3.org/2000/svg" xmlns:xlink="http://www.w3.org/1999/xlink" width="1024" height="1024" viewBox="0 0 1024 1024"><defs><linearGradient id="gradient_0" gradientUnits="userSpaceOnUse" x1="387.33551" y1="234.29494" x2="143.90982" y2="285.07608"><stop offset="0" stop-color="#8BCAF4"/><stop offset="1" stop-color="#D2E9F5"/></linearGradient></defs><path fill="url(#gradient_0)" transform="scale(2 2)" d="M345.608 415.411C350.664 423.837 337.894 429.478 332.119 432.939C231.849 493.025 101.112 416.412 103.691 299.854C105.5 218.079 181.359 120.54 234.663 65.3987C248.059 51.5401 269.896 56.1061 282.305 69.474C317.397 107.256 350.595 147.309 374.127 193.488C377.526 200.158 380.857 204.688 373.972 210.591C377.002 217.778 378.693 225.739 382.044 232.755C391.82 226.834 395.697 240.155 397.345 247.093C396.279 251.077 395.851 252.892 391.79 254.641C393.335 259.63 395.64 271.708 395.792 277.11C400.929 275.711 404.814 278.299 405.988 283.396C415.042 322.69 399.909 363.393 376.023 394.45C371.5 400.331 366.28 407.046 358.427 400.226C355.142 404.795 349.677 411.472 345.608 415.411ZM172.362 385.857L172.736 385.688C172.813 385.021 161.634 369.349 161.073 366.613C161.611 366.621 162.35 368.496 162.923 369.139C163.646 369.949 165.567 370.564 166.044 371.123C171.902 377.978 174.467 382.241 181.122 388.649L181.378 388.612C180.509 387.428 179.485 386.36 178.491 385.276L178.647 384.933C164.061 368.833 154.664 355.681 148.838 333.801C148.189 331.364 147.662 328.781 146.885 326.401L146.807 326.169C145.605 318.707 142.509 311.197 153.248 309.156C152.946 304.434 153.718 289.842 154.875 285.27C144.233 285.475 145.485 275.868 147.491 268.654C156.473 236.356 171.732 206.095 189.325 177.686C193.838 170.9 197.337 161.594 207.145 166.082C207.508 163.935 217.614 151.038 220.05 149.228C215.229 143.851 216.791 139.724 221.454 135.007C224.462 131.965 227.784 126.928 231.519 124.941C232.763 121.385 239.918 113.953 242.707 110.783L259.502 91.6734C263.14 87.7706 265.682 83.9116 268.678 79.5186C261.316 72.1894 251.346 71.7982 244.009 79.4923C194.25 131.682 119.385 227.753 120.243 305.133C120.881 362.585 161.408 412.27 214.976 430.452C214.704 427.658 208.712 424.136 206.511 422.314C194.288 412.199 180.638 399.488 172.362 385.857Z"/><path fill="#83AAC2" transform="scale(2 2)" d="M146.807 281.92C146.782 283.738 145.84 287.597 145.545 289.78C144.515 297.395 145.026 306.993 143.735 314.337C142.7 310.513 144.486 287.722 146.807 281.92Z"/><path fill="#BCDEF6" transform="scale(2 2)" d="M231.519 124.941C232.763 121.385 239.918 113.953 242.707 110.783L259.502 91.6734C281.359 119.684 303.664 144.181 322.559 175.157C348.64 217.916 374.587 260.6 367.799 313.496C367.6 315.065 367.203 318.158 366.614 319.516C358.608 370.036 320.112 407.431 267.052 406.53C264.916 399.633 259.946 399.657 253.823 399.68C230.569 399.769 210.918 390.814 193.486 375.899C179.05 363.344 169.16 345.553 164.053 327.248C161.782 319.111 163.284 311.076 153.248 309.156C152.946 304.434 153.718 289.842 154.875 285.27C144.233 285.475 145.485 275.868 147.491 268.654C156.473 236.356 171.732 206.095 189.325 177.686C193.838 170.9 197.337 161.594 207.145 166.082C207.508 163.935 217.614 151.038 220.05 149.228C215.229 143.851 216.791 139.724 221.454 135.007C224.462 131.965 227.784 126.928 231.519 124.941Z"/><path fill="#FEC302" transform="scale(2 2)" d="M193.486 375.899C193.649 374.526 193.549 367.913 193.506 366.349C192.389 325.317 217.912 297.836 250.172 275.228C253.864 272.641 261.067 267.248 264.811 265.328C270.888 290.946 295.234 314.45 322.449 311.575C327.617 310.842 329.821 304.43 328.221 299.895C341.426 303.121 357.453 309.386 366.614 319.516C358.608 370.036 320.112 407.431 267.052 406.53C264.916 399.633 259.946 399.657 253.823 399.68C230.569 399.769 210.918 390.814 193.486 375.899Z"/><path transform="scale(2 2)" d="M233.426 316.237C242.613 314.952 262.074 318.756 253.172 331.536C246.83 339.614 232.04 325.17 219.031 341.675C207.179 357.988 190.461 340.761 213.709 323.024C219.579 318.545 226.185 316.622 233.426 316.237Z"/><path transform="scale(2 2)" d="M154.875 285.27C144.233 285.475 145.485 275.868 147.491 268.654C156.473 236.356 171.732 206.095 189.325 177.686C193.838 170.9 197.337 161.594 207.145 166.082C214.493 173.008 209.264 177.699 205.124 184.264C189.065 209.732 174.879 236.814 165.806 265.605C163.201 273.873 163.873 282.478 154.875 285.27Z"/><path transform="scale(2 2)" d="M264.811 265.328C259.311 240.938 281.01 245.994 280.611 258.292C280.045 275.735 300.039 292.62 316.738 294.572C322.601 295.258 324.598 294.487 328.221 299.895C329.821 304.43 327.617 310.842 322.449 311.575C295.234 314.45 270.888 290.946 264.811 265.328Z"/><path transform="scale(2 2)" d="M231.519 124.941C255.252 122.332 234.042 158.189 220.05 149.228C215.229 143.851 216.791 139.724 221.454 135.007C224.462 131.965 227.784 126.928 231.519 124.941Z"/><path transform="scale(2 2)" d="M345.608 415.411C350.664 423.837 337.894 429.478 332.119 432.939C231.849 493.025 101.112 416.412 103.691 299.854C105.5 218.079 181.359 120.54 234.663 65.3987C248.059 51.5401 269.896 56.1061 282.305 69.474C317.397 107.256 350.595 147.309 374.127 193.488C377.526 200.158 380.857 204.688 373.972 210.591C361.667 215.4 358.425 199.591 353.299 190.065C332.498 151.405 299.454 111.594 268.678 79.5186C261.316 72.1894 251.346 71.7982 244.009 79.4923C194.25 131.682 119.385 227.753 120.243 305.133C120.881 362.585 161.408 412.27 214.976 430.452C249.095 442.506 291.093 437.744 322.132 419.384C329.701 414.907 339.194 405.54 345.608 415.411Z"/><path transform="scale(2 2)" d="M153.248 309.156C163.284 311.076 161.782 319.111 164.053 327.248C169.16 345.553 179.05 363.344 193.486 375.899C210.918 390.814 230.569 399.769 253.823 399.68C259.946 399.657 264.916 399.633 267.052 406.53C267.005 411.821 264.848 416.09 258.904 416.209C224.758 416.895 203.342 406.077 178.647 384.933C164.061 368.833 154.664 355.681 148.838 333.801C148.189 331.364 147.662 328.781 146.885 326.401L146.807 326.169C145.605 318.707 142.509 311.197 153.248 309.156Z"/><path transform="scale(2 2)" d="M395.792 277.11C400.929 275.711 404.814 278.299 405.988 283.396C415.042 322.69 399.909 363.393 376.023 394.45C371.5 400.331 366.28 407.046 358.427 400.226C354.067 394.078 357.852 390.24 361.736 385.398C383.209 358.622 396.832 324.07 390.576 289.47C389.507 283.557 389.458 279.69 395.792 277.11Z"/><path transform="scale(2 2)" d="M382.044 232.755C391.82 226.834 395.697 240.155 397.345 247.093C396.279 251.077 395.851 252.892 391.79 254.641C381.451 257.648 374.694 240.376 382.044 232.755Z"/></svg>