<?xml version="1.0" encoding="utf-8" ?><svg xmlns="http://www.w3.org/2000/svg" xmlns:xlink="http://www.w3.org/1999/xlink" width="1024" height="1024" viewBox="0 0 1024 1024"><path fill="#FEC302" transform="scale(2 2)" d="M399.439 148.886C364.482 110.558 299.689 112.608 264.804 150.266C258.23 157.363 242.916 151.286 255.989 137.821C299.012 94.4733 374.468 95.4827 414.18 142.865C417.249 146.527 420.186 150.404 423.043 154.277C427.729 156.381 436.605 169.365 439.187 174.101C450.941 195.665 452.296 210.096 452.296 233.375L452.293 291.132C452.306 312.194 451.61 325.183 442.749 344.706C414.794 406.301 343.028 424.722 286.987 389.055L287.4 388.507C288.145 388.422 288.361 388.442 289.057 388.15L289.268 387.429C286.079 386.102 282.594 384.377 279.414 382.921C273.205 379.034 258.986 372.498 264.757 363.506C260.447 356.314 265.95 353.844 271.667 351.489C259.153 332.701 253.996 307.409 254.096 284.957L254.095 229.53C254.091 190.233 263.067 157.512 302.65 139.995C329.473 128.571 369.135 133.048 394.355 146.162C395.986 147.01 397.77 148.285 399.439 148.886ZM433.966 318.128C431.568 318.565 430.487 318.494 428.066 318.128C427.613 320.466 426.171 327.23 424.955 329.117C426.708 330.649 427.914 331.526 428.85 333.708C430.339 330.793 432.507 322.071 433.966 318.128ZM365.398 195.986C355.786 194.704 327.555 192.049 322.187 196.156C312.24 204.058 313.383 223.708 313.376 235.158L313.377 280.988C313.385 293.405 313.171 307.631 317.505 319.396C318.027 320.812 319.088 323.014 319.406 324.373L339.815 324.388C351.09 324.394 357.773 326.553 363.817 315.208C369.472 304.593 369.022 292.515 369.012 280.858L369.012 229.499C369.011 216.446 369.278 208.664 365.398 195.986ZM297.538 333.708C297.626 354.971 327.774 352.844 341.178 353.165C367.595 353.797 381.928 348.609 392.368 322.065C397.944 308.035 397.752 293.989 397.749 279.257L397.758 227.325C397.762 209.132 396.358 190.527 376.592 182.993C383.169 199.779 383.857 209.739 383.808 227.497L383.807 279.963C383.836 301.404 381.759 337.073 353.796 339.183C347.331 339.67 339.662 339.231 333.036 339.245L318.887 339.283C307.671 339.313 306.96 339.792 297.538 333.708Z"/><path transform="scale(2 2)" d="M399.439 148.886C364.482 110.558 299.689 112.608 264.804 150.266C258.23 157.363 242.916 151.286 255.989 137.821C299.012 94.4733 374.468 95.4827 414.18 142.865C417.249 146.527 420.186 150.404 423.043 154.277C423.934 156.677 425.976 159.808 427.251 162.13C438.672 182.937 439.75 201.807 439.76 224.926L439.766 251.661C439.766 255.395 440.281 275.721 439.31 278.177C437.943 281.635 434.976 282.775 431.547 282.94C427.992 282.269 424.999 280.13 424.967 276.159C424.632 234.383 432.693 180.298 399.439 148.886Z"/><path fill="#BCDEF6" transform="scale(2 2)" d="M423.043 154.277C427.729 156.381 436.605 169.365 439.187 174.101C450.941 195.665 452.296 210.096 452.296 233.375L452.293 291.132C452.306 312.194 451.61 325.183 442.749 344.706C414.794 406.301 343.028 424.722 286.987 389.055L287.4 388.507C288.145 388.422 288.361 388.442 289.057 388.15L289.268 387.429C324.588 402.11 371.402 398.559 401.296 373.484C406.136 369.425 411.739 367.889 407.691 359.756L413.849 354.209C415.023 352.621 416.119 351.295 416.581 349.354C418.649 349.901 419.444 349.911 421.518 349.354C424.775 343.914 429.392 341.825 428.85 333.708C430.339 330.793 432.507 322.071 433.966 318.128C440.745 313.274 442.08 299.864 431.547 297.609L431.547 282.94C434.976 282.775 437.943 281.635 439.31 278.177C440.281 275.721 439.766 255.395 439.766 251.661L439.76 224.926C439.75 201.807 438.672 182.937 427.251 162.13C425.976 159.808 423.934 156.677 423.043 154.277Z"/><path fill="white" transform="scale(2 2)" d="M421.518 349.354C421.577 350.267 417.37 355.527 416.581 356.546C415.707 355.359 415.278 354.626 413.849 354.209C415.023 352.621 416.119 351.295 416.581 349.354C418.649 349.901 419.444 349.911 421.518 349.354Z"/><path transform="scale(2 2)" d="M264.757 363.506C271.208 356.128 277.049 364.135 283.068 367.626C315.771 386.596 361.999 386.362 391.763 361.675C397.714 356.739 400.593 353.605 407.691 359.756C411.739 367.889 406.136 369.425 401.296 373.484C371.402 398.559 324.588 402.11 289.268 387.429C286.079 386.102 282.594 384.377 279.414 382.921C273.205 379.034 258.986 372.498 264.757 363.506Z"/><path transform="scale(2 2)" d="M416.581 349.354C404.729 344.661 414.391 325.705 424.955 329.117C426.708 330.649 427.914 331.526 428.85 333.708C429.392 341.825 424.775 343.914 421.518 349.354C419.444 349.911 418.649 349.901 416.581 349.354Z"/><path transform="scale(2 2)" d="M431.547 297.609C442.08 299.864 440.745 313.274 433.966 318.128C431.568 318.565 430.487 318.494 428.066 318.128C420.723 313.38 422.162 298.707 431.547 297.609Z"/><path transform="scale(2 2)" d="M297.538 333.708C296.526 332.261 295.136 331.013 294.062 329.602C283.557 315.793 282.712 299.026 282.734 282.478L282.74 231.787C282.739 218.666 282.278 203.921 286.644 191.394C297.393 161.026 306.589 164.305 333.522 163.639C354.436 163.122 366.111 160.909 376.592 182.993C383.169 199.779 383.857 209.739 383.808 227.497L383.807 279.963C383.836 301.404 381.759 337.073 353.796 339.183C347.331 339.67 339.662 339.231 333.036 339.245L318.887 339.283C307.671 339.313 306.96 339.792 297.538 333.708ZM365.398 195.986C355.786 194.704 327.555 192.049 322.187 196.156C312.24 204.058 313.383 223.708 313.376 235.158L313.377 280.988C313.385 293.405 313.171 307.631 317.505 319.396C318.027 320.812 319.088 323.014 319.406 324.373L339.815 324.388C351.09 324.394 357.773 326.553 363.817 315.208C369.472 304.593 369.022 292.515 369.012 280.858L369.012 229.499C369.011 216.446 369.278 208.664 365.398 195.986Z"/><path fill="#BCDEF6" transform="scale(2 2)" d="M319.406 324.373C313.392 324.501 308.916 325.356 305.087 319.692C297.18 307.996 297.542 294.571 297.534 281.185L297.535 230.683C297.53 218.089 297.021 205.232 301.777 193.353C310.127 172.498 316.77 179.644 335.984 178.522C355.198 178.598 357.921 174.755 365.398 195.986C355.786 194.704 327.555 192.049 322.187 196.156C312.24 204.058 313.383 223.708 313.376 235.158L313.377 280.988C313.385 293.405 313.171 307.631 317.505 319.396C318.027 320.812 319.088 323.014 319.406 324.373Z"/><path fill="#FEC302" transform="scale(2 2)" d="M79.2608 226.915C60.3942 217.065 52.2449 198.508 61.5079 178.63C65.5775 169.896 72.3282 165.095 79.4565 159.151L116.88 127.048C121.843 122.703 126.72 118.323 131.97 114.398C154.374 97.6502 181.832 107.565 190.648 133.682C207.023 142.576 205.444 159.954 205.445 175.441L205.463 364.678C205.463 368.162 205.511 371.72 205.361 375.168C204.066 404.889 165.129 419.878 147.694 394.629C136.222 390.054 130.416 389.35 122.783 377.144C118.354 370.062 115.451 348.696 117.803 340.504C119.52 333.643 129.519 333.878 131.88 339.839C134.614 346.741 130.11 357.921 134.916 367.544C140.902 368.803 145.577 367.368 145.602 360.444L145.609 239.888C145.611 232.767 145.657 225.673 145.499 218.554C145.32 210.487 137.625 209.574 132.523 214.518L132.536 237.575C132.541 240.512 132.921 245.589 132.437 248.104C131.38 253.594 117.461 259.609 117.485 241.387C117.29 240.314 117.426 239.076 117.485 237.968L114.802 238.771C104.011 241.888 82.6952 238.917 79.2608 226.915ZM82.1557 211.416C81.6805 189.104 95.0896 183.366 110.973 170.024L129.368 154.28C141.035 144.318 161.141 121.044 176.562 138.004C174.35 123.038 158.112 118.803 145.425 123.317C140.757 124.978 113.416 149.872 107.581 154.854L88.6219 171.015C75.6707 182.114 62.6258 196.994 82.1557 211.416ZM114.69 220.912C115.648 221.7 116.34 221.894 117.485 222.33C117.583 221.287 117.501 219.461 117.485 218.357L114.69 220.912Z"/><path fill="#BCDEF6" transform="scale(2 2)" d="M190.648 133.682C207.023 142.576 205.444 159.954 205.445 175.441L205.463 364.678C205.463 368.162 205.511 371.72 205.361 375.168C204.066 404.889 165.129 419.878 147.694 394.629C136.222 390.054 130.416 389.35 122.783 377.144C118.354 370.062 115.451 348.696 117.803 340.504C119.52 333.643 129.519 333.878 131.88 339.839C134.614 346.741 130.11 357.921 134.916 367.544C142.436 387.513 175.181 383.045 176.325 360.928C176.733 353.056 176.561 345.205 176.554 337.336L176.544 270.661C176.486 263.202 174.761 255.913 184.094 254.346C184.288 250.393 184.113 244.537 184.094 240.504C193.964 238.398 191.291 227.489 191.294 219.223L191.29 159.012C191.287 150.174 191.499 142.495 190.648 133.682Z"/><path transform="scale(2 2)" d="M184.094 254.346C187.896 255.409 191.388 257.738 191.363 262.09L191.297 343.9C191.302 352.119 192.021 361.899 189.796 369.715C184.453 388.484 166.08 396.978 147.694 394.629C136.222 390.054 130.416 389.35 122.783 377.144C118.354 370.062 115.451 348.696 117.803 340.504C119.52 333.643 129.519 333.878 131.88 339.839C134.614 346.741 130.11 357.921 134.916 367.544C142.436 387.513 175.181 383.045 176.325 360.928C176.733 353.056 176.561 345.205 176.554 337.336L176.544 270.661C176.486 263.202 174.761 255.913 184.094 254.346Z"/><path transform="scale(2 2)" d="M79.2608 226.915C60.3942 217.065 52.2449 198.508 61.5079 178.63C65.5775 169.896 72.3282 165.095 79.4565 159.151L116.88 127.048C121.843 122.703 126.72 118.323 131.97 114.398C154.374 97.6502 181.832 107.565 190.648 133.682C191.499 142.495 191.287 150.174 191.29 159.012L191.294 219.223C191.291 227.489 193.964 238.398 184.094 240.504C174.801 239.463 176.508 231.64 176.548 224.479L176.556 161.187C176.555 154.061 176.882 144.83 176.562 138.004C174.35 123.038 158.112 118.803 145.425 123.317C140.757 124.978 113.416 149.872 107.581 154.854L88.6219 171.015C75.6707 182.114 62.6258 196.994 82.1557 211.416C103.997 222.323 108.108 199.596 120.512 199.232C131.972 198.896 132.269 206.623 132.523 214.518L132.536 237.575C132.541 240.512 132.921 245.589 132.437 248.104C131.38 253.594 117.461 259.609 117.485 241.387C117.29 240.314 117.426 239.076 117.485 237.968L114.802 238.771C104.011 241.888 82.6952 238.917 79.2608 226.915ZM114.69 220.912C115.648 221.7 116.34 221.894 117.485 222.33C117.583 221.287 117.501 219.461 117.485 218.357L114.69 220.912Z"/><path fill="#BCDEF6" transform="scale(2 2)" d="M79.2608 226.915C91.9138 230.612 104.43 230.131 114.69 220.912C115.648 221.7 116.34 221.894 117.485 222.33C117.37 228.625 117.478 235.076 117.485 241.387C117.29 240.314 117.426 239.076 117.485 237.968L114.802 238.771C104.011 241.888 82.6952 238.917 79.2608 226.915Z"/><path transform="scale(2 2)" d="M232.464 197.538C238.4 196.985 241.867 201.3 241.159 206.881C239.111 223.028 240.127 239.472 240.009 255.711C240.077 282.255 238.547 304.016 249.075 329.323C252.421 337.366 263.797 349.016 251.586 354.209C239.893 355.596 231.352 325.632 229.204 316.801C224.509 297.498 225.511 278.245 225.51 258.532C225.51 250.619 224.051 206.067 227.736 200.377C228.809 198.721 230.61 197.958 232.464 197.538Z"/><path transform="scale(2 2)" d="M445.585 367.544C457.288 366.715 453.777 381.466 454.282 388.792C454.819 396.59 451.671 403.761 446.23 409.281C437.612 418.025 426.935 416.33 415.562 416.28C408.608 416.235 403.121 410.585 407.435 404.729C411.796 398.807 423.516 402.288 430.18 401.177C448.303 397.912 431.713 369.666 445.585 367.544Z"/><path transform="scale(2 2)" d="M82.1557 95.0819C88.6162 95.0505 110.668 92.1312 104.349 106.546C103.655 108.128 100.78 110.173 99.0561 110.22C73.9959 110.902 73.8814 106.027 74.0008 132.062C72.7597 143.141 58.9664 141.541 59.125 132.413C59.4403 114.261 58.122 96.5959 82.1557 95.0819Z"/><path transform="scale(2 2)" d="M123.414 270.769C126.816 270.501 130.571 271.593 131.908 275.091C132.966 277.859 132.986 311.953 131.813 314.556C130.719 316.982 128.955 317.896 126.571 318.721C123.457 318.88 119.498 317.91 118.25 314.645C116.458 309.955 117.133 276.704 118.065 274.796C119.248 272.377 120.985 271.569 123.414 270.769Z"/><path transform="scale(2 2)" d="M241.583 164.525C247.33 164.136 249.96 166.775 251.586 171.974C249.824 176.987 249.069 180.256 244.307 182.993C231.052 184.041 233.086 167.639 241.583 164.525Z"/></svg>