<?xml version="1.0" encoding="utf-8" ?><svg xmlns="http://www.w3.org/2000/svg" xmlns:xlink="http://www.w3.org/1999/xlink" width="1024" height="1024" viewBox="0 0 1024 1024"><path fill="#68C3FB" transform="scale(2 2)" d="M247.69 157.306C243.404 153.322 231.682 143.067 236.936 137.85C243.191 131.64 252.123 143.511 255.695 148.631C258.941 145.575 263.713 139.113 266.877 137.017C271.043 134.258 276.815 137.51 276.336 142.499C275.954 146.475 266.807 154.555 264.1 158.142L401.133 318.452C407.307 325.707 414.98 334.091 420.676 341.636C428.323 339.633 436.295 336.705 443.951 334.478C440.372 330.184 433.326 323.09 440.01 318.226C445.76 314.041 452.042 324.135 454.646 328.374C465.579 344.739 435.59 349.657 425.723 352.714L425.723 384.769C430.454 384.716 438.703 383.631 438.698 391.129C438.693 398.855 429.197 397.337 423.754 397.329L389.197 397.329C382.819 397.334 375.741 399.459 373.941 391.53L373.69 391.069C372.572 390.633 364.546 391.054 362.591 390.996C362.663 392.602 362.083 394.17 360.984 395.343C359.884 396.516 358.357 397.195 356.75 397.227C355.102 397.26 353.514 396.609 352.362 395.429C351.211 394.249 350.6 392.645 350.673 390.999C348.486 391.139 340.323 391.139 338.904 391.53C338.591 394.669 336.237 397.457 333.04 397.446L80.8044 397.31C74.0224 396.969 70.8574 390.93 74.9537 386.843C77.9209 383.882 82.767 384.727 86.637 384.769L86.637 352.235C75.3032 347.872 54.9223 348.274 55.3866 333.059C55.7829 327.087 70.2373 306.909 74.3004 323.416C73.2271 328.385 70.0902 330.082 67.9973 334.478C75.6771 336.529 84.9635 338.217 91.968 341.636C97.1761 334.278 106.396 318.121 115.472 323.416C118.453 320.258 121.145 316.487 124.215 313.363C117.361 306.187 128.067 298.496 133.26 292.485L234.719 173.125C239.025 168.035 243.722 162.66 247.69 157.306ZM247.69 176.86C249.334 178.394 252.363 182.332 253.937 184.235L391.648 345.666C394.417 348.882 398.083 352.65 400.591 355.925C400.636 365.517 400.488 375.196 400.591 384.769C405.624 385.061 408.471 384.813 413.256 384.769L413.256 351.419C409.273 347.01 405.244 342.046 401.377 337.479L271.129 184.844C266.509 179.387 260.602 172.088 255.695 167.098C253.121 170.25 250.012 173.628 247.69 176.86Z"/><path transform="scale(2 2)" d="M249.432 250.561C249.432 246.547 247.874 233.759 252.142 231.549C264.763 225.015 262.184 244.595 262.203 249.33C263.846 251.664 265.091 254.775 266.489 257.321C284.065 289.333 314.809 316.955 349.499 329.127C357.535 331.528 359.325 347.227 338.118 338.242L338.109 370.104C338.109 375.081 337.827 387.346 338.904 391.53C338.591 394.669 336.237 397.457 333.04 397.446L80.8044 397.31C74.0224 396.969 70.8574 390.93 74.9537 386.843C77.9209 383.882 82.767 384.727 86.637 384.769L86.637 352.235C75.3032 347.872 54.9223 348.274 55.3866 333.059C55.7829 327.087 70.2373 306.909 74.3004 323.416C73.2271 328.385 70.0902 330.082 67.9973 334.478C75.6771 336.529 84.9635 338.217 91.968 341.636C97.1761 334.278 106.396 318.121 115.472 323.416C121.939 333.36 104.722 342.221 98.8316 352.235L98.8316 384.769L164.834 384.794C167.625 384.822 170.749 385.076 173.473 384.769L173.473 338.242C170.105 338.893 166.429 340.167 163.486 340.691C157.366 341.781 154.305 335.001 157.515 330.639C159.32 328.186 168.789 326.627 171.764 325.081C209.285 309.709 227.931 283.886 249.432 250.561Z"/><path fill="#C2C6C7" transform="scale(2 2)" d="M255.695 287.158C256.169 287.618 258.546 295.1 258.967 296.262C270.229 327.347 286.301 358.88 306.951 384.769L257.625 384.769L205.943 384.769C227.616 354.45 244.314 322.705 255.695 287.158Z"/><path fill="#FEC302" transform="scale(2 2)" d="M244.439 281.175L244.597 281.303C244.386 282.674 243.699 284.44 243.198 285.858C230.756 321.086 213.681 355.419 190.144 384.568C189.43 385.451 186.95 384.934 185.916 384.769C185.599 384.156 185.918 337.835 185.916 332.818C187.127 331.941 188.276 331.25 189.601 330.559C215.092 317.271 227.42 302.707 244.439 281.175Z"/><path fill="#FEC302" transform="scale(2 2)" d="M266.926 281.175C267.511 281.67 271.2 286.627 272.087 287.688C289.4 308.406 302.284 318.544 325.84 332.818L325.84 384.769C322.817 386.224 319.562 380.611 317.908 378.503C298.428 353.675 275.299 312.248 266.926 281.175Z"/><path transform="scale(2 2)" d="M247.69 157.306C243.404 153.322 231.682 143.067 236.936 137.85C243.191 131.64 252.123 143.511 255.695 148.631C258.941 145.575 263.713 139.113 266.877 137.017C271.043 134.258 276.815 137.51 276.336 142.499C275.954 146.475 266.807 154.555 264.1 158.142L401.133 318.452C407.307 325.707 414.98 334.091 420.676 341.636C428.323 339.633 436.295 336.705 443.951 334.478C440.372 330.184 433.326 323.09 440.01 318.226C445.76 314.041 452.042 324.135 454.646 328.374C465.579 344.739 435.59 349.657 425.723 352.714L425.723 384.769C430.454 384.716 438.703 383.631 438.698 391.129C438.693 398.855 429.197 397.337 423.754 397.329L389.197 397.329C382.819 397.334 375.741 399.459 373.941 391.53C374.6 381.624 392.777 384.748 400.591 384.769C405.624 385.061 408.471 384.813 413.256 384.769L413.256 351.419C409.273 347.01 405.244 342.046 401.377 337.479L271.129 184.844C266.509 179.387 260.602 172.088 255.695 167.098C253.121 170.25 250.012 173.628 247.69 176.86C246.103 178.304 242.466 182.944 240.866 184.866L142.953 300.056C138.106 305.622 131.494 317.348 124.215 313.363C117.361 306.187 128.067 298.496 133.26 292.485L234.719 173.125C239.025 168.035 243.722 162.66 247.69 157.306Z"/><path transform="scale(2 2)" d="M350.673 390.999C350.815 387.811 353.44 385.299 356.631 385.299C359.821 385.298 362.448 387.809 362.591 390.996C362.663 392.602 362.083 394.17 360.984 395.343C359.884 396.516 358.357 397.195 356.75 397.227C355.102 397.26 353.514 396.609 352.362 395.429C351.211 394.249 350.6 392.645 350.673 390.999Z"/><path fill="#FEC302" transform="scale(2 2)" d="M373.941 138.747C363.152 141.062 365.385 129.033 368.064 122.708C382.516 88.5848 430.695 94.2607 436.589 130.996C437.378 135.911 434.553 138.936 429.779 139.363C426.432 156.466 419.138 157.671 406.013 163.018C402.768 160.915 400.806 161.124 397.661 163.018C385.114 160.829 375.732 151.452 373.941 138.747Z"/><path transform="scale(2 2)" d="M373.941 138.747C363.152 141.062 365.385 129.033 368.064 122.708C382.516 88.5848 430.695 94.2607 436.589 130.996C437.378 135.911 434.553 138.936 429.779 139.363C424.37 137.858 424.841 133.45 423.711 128.976C420.121 114.614 402.045 107.839 389.608 115.512C375.989 123.915 381.263 134.684 374.253 138.577L373.941 138.747Z"/><path transform="scale(2 2)" d="M397.661 163.018C400.806 161.124 402.768 160.915 406.013 163.018C408.403 165.655 407.852 168.718 407.821 172.123C407.676 188.152 389.444 174.734 397.661 163.018Z"/><path transform="scale(2 2)" d="M446.893 126.786C453.272 126.377 456.092 127.995 455.72 134.799C454.84 136.482 453.95 137.428 452.662 138.747C451.326 138.877 450.891 138.974 449.562 138.747C436.976 138.988 437.74 127.266 446.893 126.786Z"/><path transform="scale(2 2)" d="M352.117 126.786C363.628 125.416 366.593 135.422 357.871 138.747C345.024 139.175 344.025 129.886 352.117 126.786Z"/><path transform="scale(2 2)" d="M400.591 80.2958C408.907 79.0451 410.116 91.9083 402.972 94.8031C395.703 95.9344 391.143 84.0471 400.591 80.2958Z"/></svg>