<?xml version="1.0" encoding="utf-8" ?><svg xmlns="http://www.w3.org/2000/svg" xmlns:xlink="http://www.w3.org/1999/xlink" width="1024" height="1024" viewBox="0 0 1024 1024"><path fill="#FEC302" transform="scale(2 2)" d="M257.011 62.414C257.816 63.7634 257.776 65.0533 258.192 66.5153C259.989 72.8295 266.518 70.5638 267.524 64.4375C271.624 69.9299 269.98 80.2907 270.004 87.2546C274.213 87.7927 275.678 87.6467 279.83 87.2546C288.454 88.576 289.296 94.8083 289.736 101.94C294.244 97.7442 308.169 83.2552 312.41 81.7089C315.426 82.4103 318.473 83.9645 317.473 87.5741C316.021 92.8167 286.917 116.74 279.83 125.738C280.62 126.775 280.794 126.997 281.807 127.805C282.583 128.382 283.748 129.192 284.455 129.794C295.794 119.283 306.807 108.403 317.943 97.6804C322.167 93.6132 324.995 95.7637 326.381 100.757C325.049 104.519 317.334 111.119 314.165 114.185L296.634 131.443C294.891 133.163 290.85 136.699 289.736 138.443L289.739 168.506C289.742 173.106 289.98 179.168 289.736 183.583C288.508 185.56 282.517 191.16 280.249 193.7C273.747 200.099 269.302 202.614 270.007 212.084C270.388 217.198 271.722 227.823 279.123 220.491C280.16 218.808 280.183 218.209 280.249 216.255C293.088 203.492 305.739 190.198 319.031 177.858C324.418 172.858 329.507 179.54 325.718 184.254C323.004 187.63 318.928 191.091 315.756 194.191L296.965 212.855C295.315 214.503 290.86 218.773 289.736 220.491L289.736 294.976C286.45 294.96 283.11 294.913 279.83 294.976C279.817 300.448 279.596 307.169 279.83 312.502C285.004 312.524 311 310.126 299.029 322.484C294.242 322.825 285.038 322.475 279.83 322.484C279.604 325.622 279.854 330.036 279.83 333.296L287.748 333.296C287.766 335.882 287.886 339.534 287.748 342.039C285.408 344.926 282.33 347.266 279.984 350.166C272.166 359.833 263.589 376.33 261.725 388.214C261.097 392.212 260.113 407.165 256.27 409.485L256.279 285.094C256.281 270.81 258.077 268.364 245.485 259.703C245.259 263.569 246.594 270.34 244.08 273.383C242.507 275.288 238.791 275.454 237.042 273.548C234.887 271.199 235.459 266.429 235.485 263.357C230.552 258.879 208.911 245.793 222.639 240.563C224.678 241.351 225.252 241.705 226.931 242.964C226.598 241.15 226.188 239.742 225.148 238.22C233.288 232.084 251.858 218.661 257.011 211.187C257.144 208.648 256.749 206.999 256.27 204.523C255.997 200.302 256.263 192.86 256.263 188.322L256.264 101.08C256.262 95.9285 255.861 64.8921 257.011 62.414Z"/><path fill="#FDB911" transform="scale(2 2)" d="M280.249 216.255C293.088 203.492 305.739 190.198 319.031 177.858C324.418 172.858 329.507 179.54 325.718 184.254C323.004 187.63 318.928 191.091 315.756 194.191L296.965 212.855C295.315 214.503 290.86 218.773 289.736 220.491L289.736 294.976C286.45 294.96 283.11 294.913 279.83 294.976C279.802 293.222 280.2 288.898 279.83 287.764C282.087 284.015 281.924 282.184 279.83 278.482C280.273 277.47 279.842 269.71 279.84 267.791L279.835 239.386C279.835 236.127 280.62 222.691 279.123 220.491C280.16 218.808 280.183 218.209 280.249 216.255Z"/><path fill="#FDB911" transform="scale(2 2)" d="M284.455 129.794C295.794 119.283 306.807 108.403 317.943 97.6804C322.167 93.6132 324.995 95.7637 326.381 100.757C325.049 104.519 317.334 111.119 314.165 114.185L296.634 131.443C294.891 133.163 290.85 136.699 289.736 138.443L289.739 168.506C289.742 173.106 289.98 179.168 289.736 183.583C288.508 185.56 282.517 191.16 280.249 193.7C279.627 187.746 279.826 180.713 279.824 174.654L279.867 143.146C279.863 141.494 280.072 137.351 279.123 136.406C279.291 133.82 279.353 132.366 279.83 129.794C279.724 128.123 279.683 127.422 279.83 125.738C280.62 126.775 280.794 126.997 281.807 127.805C282.583 128.382 283.748 129.192 284.455 129.794Z"/><path fill="#FEC302" transform="scale(2 2)" d="M279.83 125.738C280.62 126.775 280.794 126.997 281.807 127.805C282.583 128.382 283.748 129.192 284.455 129.794C283.56 130.928 282.862 131.526 281.807 132.486C281.459 133.104 280.414 133.923 279.83 134.445L279.83 129.794C279.724 128.123 279.683 127.422 279.83 125.738Z"/><path fill="#FFD573" transform="scale(2 2)" d="M281.807 127.805C282.583 128.382 283.748 129.192 284.455 129.794C283.56 130.928 282.862 131.526 281.807 132.486C281.632 130.933 281.501 129.335 281.807 127.805Z"/><path transform="scale(2 2)" d="M312.41 81.7089C315.426 82.4103 318.473 83.9645 317.473 87.5741C316.021 92.8167 286.917 116.74 279.83 125.738C279.683 127.422 279.724 128.123 279.83 129.794C279.353 132.366 279.291 133.82 279.123 136.406C270.771 143.862 269.703 133.579 269.449 127.603C269.138 120.293 274.775 116.52 279.83 111.802C283.033 108.572 286.678 105.234 289.736 101.94C294.244 97.7442 308.169 83.2552 312.41 81.7089Z"/><path transform="scale(2 2)" d="M222.639 240.563C224.678 241.351 225.252 241.705 226.931 242.964C229.666 246.093 244.989 257.989 245.485 259.703C245.259 263.569 246.594 270.34 244.08 273.383C242.507 275.288 238.791 275.454 237.042 273.548C234.887 271.199 235.459 266.429 235.485 263.357C230.552 258.879 208.911 245.793 222.639 240.563Z"/><path transform="scale(2 2)" d="M279.83 312.502C285.004 312.524 311 310.126 299.029 322.484C294.242 322.825 285.038 322.475 279.83 322.484C278.537 322.565 277.358 322.516 276.067 322.484C269.549 318.539 272.155 312.226 279.83 312.502Z"/><path fill="#FDB911" transform="scale(2 2)" d="M279.83 87.2546C288.454 88.576 289.296 94.8083 289.736 101.94C286.678 105.234 283.033 108.572 279.83 111.802C279.644 110.245 279.596 87.9601 279.83 87.2546Z"/><path transform="scale(2 2)" d="M276.067 289.379C266.731 286.942 271.181 274.2 279.83 278.482C281.924 282.184 282.087 284.015 279.83 287.764C278.16 288.752 277.883 288.816 276.067 289.379Z"/><path fill="#FDB911" transform="scale(2 2)" d="M362.532 265.165C376.168 268.979 375.715 287.823 357.009 290.581C355.881 293.493 354.542 296.318 353.886 299.33C366.699 303.79 356.913 314.433 352.952 324.11C344.189 345.591 334.188 361.674 308.302 360.239C307.599 365.178 304.631 366.9 301.119 370.059C287.436 382.368 288.768 397.485 288.77 414.395L288.781 447.584C285.131 447.984 276.839 447.928 273.32 447.584L273.32 414.069C268.961 418.087 265.634 423.325 260.034 424.559C250.862 421.53 254.319 416.338 256.27 409.485C260.113 407.165 261.097 392.212 261.725 388.214C263.589 376.33 272.166 359.833 279.984 350.166C282.33 347.266 285.408 344.926 287.748 342.039C287.886 339.534 287.766 335.882 287.748 333.296C330.149 331.721 332.136 312.358 346.33 280.773C353.422 295.75 361.479 271.683 362.532 265.165Z"/><path transform="scale(2 2)" d="M343.831 307.53C347.639 307.473 348.744 309.187 349.828 312.502C347.639 322.183 343.895 332.707 336.586 339.586C324.93 350.557 315.02 350.042 300.098 349.76C293.807 348.751 292.701 342.204 299.029 339.568C315.264 340.378 330.725 340.895 336.719 320.749C337.985 316.493 339.096 309.156 343.831 307.53Z"/><path transform="scale(2 2)" d="M292.353 354.275C293.533 354.322 294.918 354.601 295.804 355.389C302.344 361.209 293.747 364.437 290.546 367.887C284.811 373.983 282.253 381.249 281.9 389.546C281.656 395.253 283.704 403.19 277.361 405.009C263.741 404.495 273.257 363.082 292.353 354.275Z"/><path fill="#FDB911" transform="scale(2 2)" d="M159.761 195.864C157.338 197.972 154.032 198.863 151.963 195.733C148.032 188.841 135.505 165.187 135.198 160.177C133.869 138.45 167.082 138.739 161.938 151.825L161.823 152.11C162.117 153.262 167.909 162.475 168.864 163.915C175.198 157.664 177.892 164.906 180.643 170.293C183.547 175.98 192.139 194.31 196.578 197.595C200.436 200.45 207.837 199.043 212.307 199.011L234.129 198.976C239.287 198.975 249.579 197.016 249.86 204.523C251.986 204.568 254.151 204.653 256.27 204.523C256.749 206.999 257.144 208.648 257.011 211.187C251.858 218.661 233.288 232.084 225.148 238.22C219.335 232.572 214.107 231.885 206.366 232.223C202.594 240.595 181.965 233.917 176.237 230.375C170.651 226.92 163.394 219.286 161.823 212.844C162.501 209.404 162.883 208.726 166.236 207.668C165.455 205.833 160.852 197.197 159.761 195.864Z"/><path transform="scale(2 2)" d="M168.864 163.915C175.198 157.664 177.892 164.906 180.643 170.293C183.547 175.98 192.139 194.31 196.578 197.595C200.436 200.45 207.837 199.043 212.307 199.011L234.129 198.976C239.287 198.975 249.579 197.016 249.86 204.523C249.164 206.176 248.318 207.88 246.493 208.49C244.685 209.094 202.79 209.102 199.216 208.688C185.407 207.089 181.355 193.274 175.872 182.594C173.246 177.478 169.685 172.027 168.073 166.521L168.864 163.915Z"/><path transform="scale(2 2)" d="M159.761 195.864C157.338 197.972 154.032 198.863 151.963 195.733C148.032 188.841 135.505 165.187 135.198 160.177C133.869 138.45 167.082 138.739 161.938 151.825L161.823 152.11C160.389 153.253 159.892 153.689 158.247 154.515C141.61 149.601 143.62 158.008 150.197 170.656L157.172 184.168C159.146 187.959 162.048 191.682 159.761 195.864Z"/><path transform="scale(2 2)" d="M166.236 207.668C168.739 207.907 169.819 208.087 171.166 210.516C185.031 235.517 207.535 219.211 206.366 232.223C202.594 240.595 181.965 233.917 176.237 230.375C170.651 226.92 163.394 219.286 161.823 212.844C162.501 209.404 162.883 208.726 166.236 207.668Z"/><path fill="#BCDEF6" transform="scale(2 2)" d="M273.32 447.584C276.839 447.928 285.131 447.984 288.781 447.584C293.289 447.397 299.128 447.576 303.764 447.575L379.602 447.654C390.887 447.66 388.39 459.058 382.057 458.91C375.201 458.75 368.34 458.777 361.469 458.777L224.794 458.782C220.516 458.794 216.194 458.853 211.92 458.74C204.186 458.531 203.919 446.963 212.38 447.472C213.631 447.547 215.249 447.57 216.5 447.578L273.32 447.584Z"/><path transform="scale(2 2)" d="M346.33 280.773C347.644 275.259 356.465 263.551 350.163 259.683C341.081 254.108 338.504 265.579 335.813 271.714L322.607 302.397C321.667 304.598 318.931 311.783 317.666 313.257C314.562 316.875 307.552 313.619 310.114 307.359C316.099 292.727 322.5 278.543 328.686 264C332.187 255.771 335.137 248.605 345.467 248.212C355.171 247.948 362.364 255.594 362.532 265.165C361.479 271.683 353.422 295.75 346.33 280.773Z"/><path fill="#BCDEF6" transform="scale(2 2)" d="M91.8326 396.063C111.218 395.364 132.819 395.734 152.188 396.26C155.005 396.336 156.52 397.66 158.247 399.734C157.835 405.608 157.243 407.216 151.202 407.734L111.49 407.745C104.872 407.745 97.7862 407.891 91.2072 407.558C83.9909 407.193 82.904 396.968 91.8326 396.063Z"/><path transform="scale(2 2)" d="M289.736 183.583C296.372 178.378 304.928 167.292 310.877 163.485C315.643 160.434 320.943 167.042 317.028 170.963C304.806 183.205 292.272 195.233 280.249 207.668C280.24 210.356 280.151 213.614 280.249 216.255C280.183 218.209 280.16 218.808 279.123 220.491C271.722 227.823 270.388 217.198 270.007 212.084C269.302 202.614 273.747 200.099 280.249 193.7C282.517 191.16 288.508 185.56 289.736 183.583Z"/><path transform="scale(2 2)" d="M203.331 292.766C208.105 292.489 210.875 297.149 213.977 300.24L229.108 315.577C234.383 320.952 240.085 326.176 244.806 332.022C246.532 335.749 246.618 346.444 241.638 348.63C233.565 350.536 235.281 339.908 235.485 335.178C230.833 331.628 202.062 303.202 200.124 299.556C198.512 296.523 200.685 294.082 203.331 292.766Z"/><path transform="scale(2 2)" d="M257.011 62.414C253.351 57.3595 245.902 58.6341 245.608 65.349C245.416 69.7401 245.505 73.7119 245.55 78.404C245.604 84.1156 236.141 90.8002 235.426 74.2207C235.388 66.2843 234.718 57.4932 242.212 52.419C252.483 45.4648 266.336 52.1723 267.524 64.4375C266.518 70.5638 259.989 72.8295 258.192 66.5153C257.776 65.0533 257.816 63.7634 257.011 62.414Z"/><path transform="scale(2 2)" d="M239.704 101.94C244.235 101.607 245.255 104.583 245.45 108.31C245.667 112.489 245.903 145.49 245.003 147.487C244.312 149.02 243.161 149.596 241.638 150.112C239.698 150.282 236.723 149.66 235.948 147.595C235.2 145.604 235.217 112.109 235.454 107.465C235.628 104.059 236.432 103.114 239.704 101.94Z"/><path fill="#FEC302" transform="scale(2 2)" d="M130.714 87.2546C135.303 87.0061 163.102 85.6228 165.413 89.6582C167.5 93.3015 165.957 96.0386 162.616 98.0615C160.95 98.3981 132.821 98.1606 131.07 97.7804C125.788 96.634 126.821 89.5025 130.714 87.2546Z"/><path transform="scale(2 2)" d="M239.704 366.057C241.711 366.315 243.918 366.794 244.707 368.964C245.873 372.173 246.104 400.058 244.698 403.008C243.861 404.763 242.452 405.372 240.688 405.921C238.401 405.662 237.736 405.352 236 403.889C234.602 400.132 235.43 377.069 235.422 371.384C235.417 368.245 236.569 366.688 239.704 366.057Z"/><path fill="#BCDEF6" transform="scale(2 2)" d="M154.039 447.584C161.932 447.208 170.415 447.765 178.356 447.623C185.267 447.499 186.298 457.358 178.879 458.78C174.204 458.788 154.893 459.584 151.918 457.753C147.419 454.984 149.037 448.376 154.039 447.584Z"/><path fill="#FEC302" transform="scale(2 2)" d="M353.886 204.523C364.56 203.371 364.589 214.427 358.143 214.812C353.491 215.089 348.559 214.918 343.831 214.896C330.101 215.508 331.795 204.328 341.716 204.501C345.605 204.569 349.84 204.506 353.886 204.523Z"/><path fill="#BCDEF6" transform="scale(2 2)" d="M185.559 396.063C190.234 396.023 194.594 396.168 199.341 396.063C204.99 402.235 202.066 407.381 194.063 407.734C189.56 407.71 184.329 407.96 179.923 407.734C174.089 401.547 178.044 396.467 185.559 396.063Z"/><path fill="#BCDEF6" transform="scale(2 2)" d="M409.96 447.584C413.985 447.464 419.247 447.457 423.261 447.584C428.029 451.056 428.216 458.228 421.26 458.78C416.89 458.74 410.611 459.104 406.511 458.78C405.508 457.89 405.052 457.284 404.214 456.257C403.152 450.72 404.274 448.201 409.96 447.584Z"/><path fill="#FDB911" transform="scale(2 2)" d="M382.714 159.537C388.822 159.356 400.671 157.458 398.597 167.159C398.303 168.536 396.168 169.67 394.908 170.118C389.31 170.542 377.047 171.621 379.31 162.994C379.824 161.035 380.798 160.228 382.714 159.537Z"/><path fill="#FDB911" transform="scale(2 2)" d="M411.157 159.537C414.319 159.508 421.735 159.011 423.98 160.559C428.118 163.411 426.555 169.368 421.26 170.118C415.766 170.082 407.892 172.129 406.511 164.983C407.017 161.751 407.673 159.967 411.157 159.537Z"/><path transform="scale(2 2)" d="M238.827 292.766C248.039 291.188 246.984 306.132 241.638 308.498C233.696 310.783 232.906 294.749 238.827 292.766Z"/><path transform="scale(2 2)" d="M239.704 166.521C248.224 166.281 247.779 179.842 241.638 181.506C234.447 181.436 234.678 174.386 236 169.081C237.327 167.432 237.683 167.117 239.704 166.521Z"/></svg>