<?xml version="1.0" encoding="utf-8" ?><svg xmlns="http://www.w3.org/2000/svg" xmlns:xlink="http://www.w3.org/1999/xlink" width="512" height="512" viewBox="0 0 512 512"><path fill="#BCDEF6" d="M251.125 151.476C260.855 160.741 270.249 171.004 280.01 180.247C283.254 183.319 287.334 180.839 290.15 178.284C293.379 182.036 296.73 185.319 300.278 188.734C309.543 183.873 321.799 196.392 315.174 205.296L322.69 213.077C323.578 213.992 325.68 216.039 326.312 216.901C316.481 226.238 332.488 235.52 339.417 242.885C350.34 253.921 361.128 265.299 372.32 276.036L372.677 276.378C365.737 282.857 351.629 289.748 356.331 299.315C354.085 301.716 347.542 307.734 344.772 309.067C353.667 316.515 344.564 322.613 339.203 327.202L234.56 417.907C219.754 430.968 197.971 456.246 177.775 435.823L158.268 416.204C150.385 408.405 143.458 399.198 154.374 389.146C178.681 366.764 149.461 334.667 125.916 351.25C123.419 353.008 121.584 355.556 119.212 357.462C105.657 367.296 94.3575 349.744 85.4541 340.907L67.205 322.842C59.6102 315.231 53.7025 310.707 53.4552 299C52.9423 285.851 60.5695 279.059 69.6779 271.605C72.0857 269.635 74.506 267.114 77.8698 267.153C81.3076 267.192 86.5875 270.688 85.8676 274.68C84.1552 284.175 68.4786 287.282 68.224 298.043C68.0445 305.631 80.649 315.222 86.0093 320.45C94.2352 328.472 102.445 336.833 110.72 344.752C113.28 341.347 116.132 339.364 119.74 337.104C109.371 327.61 97.1396 314.729 87.1147 304.436C84.4013 301.65 83.4812 297.33 86.6166 294.323C94.2868 286.966 102.412 280.142 110.491 273.259L191.627 203.087C211.556 185.915 231.521 169.071 251.125 151.476ZM164.519 401.075C170.897 406.677 176.745 413.684 182.962 419.604C190.656 426.929 194.758 432.785 204.684 423.45C196.618 415.597 187.886 408.001 180.42 399.564C203.532 384.438 193.167 338.784 162.218 338.675C179.527 352.547 185.686 375.127 171.032 393.768C169.054 396.284 166.456 398.591 164.519 401.075Z"/><path d="M344.772 309.067C353.667 316.515 344.564 322.613 339.203 327.202L234.56 417.907C219.754 430.968 197.971 456.246 177.775 435.823L158.268 416.204C150.385 408.405 143.458 399.198 154.374 389.146C178.681 366.764 149.461 334.667 125.916 351.25C123.419 353.008 121.584 355.556 119.212 357.462C105.657 367.296 94.3575 349.744 85.4541 340.907L67.205 322.842C59.6102 315.231 53.7025 310.707 53.4552 299C52.9423 285.851 60.5695 279.059 69.6779 271.605C72.0857 269.635 74.506 267.114 77.8698 267.153C81.3076 267.192 86.5875 270.688 85.8676 274.68C84.1552 284.175 68.4786 287.282 68.224 298.043C68.0445 305.631 80.649 315.222 86.0093 320.45C94.2352 328.472 102.445 336.833 110.72 344.752C113.28 341.347 116.132 339.364 119.74 337.104C136.492 328.788 146.907 330.376 162.218 338.675C179.527 352.547 185.686 375.127 171.032 393.768C169.054 396.284 166.456 398.591 164.519 401.075C170.897 406.677 176.745 413.684 182.962 419.604C190.656 426.929 194.758 432.785 204.684 423.45C209.961 419.183 215.571 414.18 220.757 409.724L322.786 321.132C329.71 315.077 335.766 305.927 344.772 309.067Z"/><path d="M300.278 188.734C309.543 183.873 321.799 196.392 315.174 205.296C304.469 212.98 292.537 197.129 300.278 188.734Z"/><path d="M249.596 191.525C254.963 190.98 260.431 195.596 258.516 201.075C257.148 204.986 250.556 209.69 247.262 212.495L190.565 261.484C197.974 268.708 205.694 271.485 208.039 283.381C212.073 306.592 181.928 327.673 177.868 309.717C175.693 300.096 195.57 299.905 192.984 286.777L192.915 286.44C190.928 280.201 184.023 276.067 178.996 271.839C169.605 278.525 150.714 303.496 142.652 289.27C140.822 286.041 143.919 282.026 146.472 279.784L234.962 202.953C238.564 199.805 245.334 193.018 249.596 191.525Z"/><path d="M319.94 274.068C325.717 274.335 330.561 278.897 327.353 285.048C326.197 287.266 320.206 291.638 317.961 293.596L264.207 340.368C261.245 342.927 255.525 348.736 252.081 349.789C247.067 349.841 243.217 346.776 243.332 341.617C243.447 336.523 250.943 331.525 254.623 328.288L304.538 285.124C308.375 281.862 314.893 274.843 319.94 274.068Z"/><path d="M268.912 270.094C275.493 270.618 279.469 277.704 275.553 281.846C270.497 287.192 263.207 292.901 257.701 297.67L246.955 306.952C243.977 309.53 241.926 312.139 237.933 312.874C231.359 312.689 227.09 306.226 231.286 300.63C233.062 298.261 236.141 295.932 238.422 293.947L252.624 281.749C257.236 277.761 262.633 270.929 268.912 270.094Z"/><path d="M254.684 234.822C260.161 235.244 265.086 240.858 261.752 246.246C259.856 249.31 236.821 269.821 231.707 271.067C225.893 270.91 220.493 265.37 224.325 259.622C226.507 256.348 249.523 235.818 254.684 234.822Z"/><path fill="#FEC302" d="M241.855 142.282C236.544 147.182 229.929 152.487 224.369 157.261L141.905 228.992C139.905 230.739 137.942 232.565 135.865 234.206C128.041 240.388 118.994 229.568 126.167 222.861C129.373 219.864 132.8 217.017 136.125 214.15L292.498 78.3685C310.054 63.4003 319.04 58.7088 337.22 75.9955L348.471 86.7374C355.474 93.3669 365.859 99.7747 363.326 110.954C361.763 119.902 355.91 119.746 352.36 124.36C342.148 137.632 350.276 157.44 366.546 160.555C385.965 164.272 387.518 146.039 402.752 148.349C409.154 149.32 416.263 158.359 420.761 162.667L441.641 182.906C451.736 192.738 461.672 200.34 458.144 216.333C455.58 227.957 445.217 234.403 436.663 241.692L379.855 290.38C373.157 296.101 364.193 307.654 356.331 299.315C351.629 289.748 365.737 282.857 372.677 276.378L372.32 276.036C361.128 265.299 350.34 253.921 339.417 242.885C332.488 235.52 316.481 226.238 326.312 216.901C325.68 216.039 323.578 213.992 322.69 213.077L315.174 205.296C321.799 196.392 309.543 183.873 300.278 188.734C296.73 185.319 293.379 182.036 290.15 178.284C287.334 180.839 283.254 183.319 280.01 180.247C270.249 171.004 260.855 160.741 251.125 151.476L241.855 142.282ZM326.312 86.2127C316.388 76.7328 314.231 79.4607 304.634 87.7175L267.68 119.515C263.223 123.368 257.178 128.341 253.018 132.383C256.315 135.922 259.364 138.909 262.812 142.282C264.823 139.139 271.414 133.866 274.515 131.186L316.587 94.8737C319.783 92.1048 323.15 88.7467 326.312 86.2127ZM382.404 174.488C392.308 181.924 400.305 180.422 408.83 172.241C406.412 169.899 402.236 165.65 399.655 163.631C395.016 168.423 388.975 172.823 382.404 174.488Z"/><path d="M241.855 142.282C236.544 147.182 229.929 152.487 224.369 157.261L141.905 228.992C139.905 230.739 137.942 232.565 135.865 234.206C128.041 240.388 118.994 229.568 126.167 222.861C129.373 219.864 132.8 217.017 136.125 214.15L292.498 78.3685C310.054 63.4003 319.04 58.7088 337.22 75.9955L348.471 86.7374C355.474 93.3669 365.859 99.7747 363.326 110.954C361.763 119.902 355.91 119.746 352.36 124.36C342.148 137.632 350.276 157.44 366.546 160.555C385.965 164.272 387.518 146.039 402.752 148.349C409.154 149.32 416.263 158.359 420.761 162.667L441.641 182.906C451.736 192.738 461.672 200.34 458.144 216.333C455.58 227.957 445.217 234.403 436.663 241.692L379.855 290.38C373.157 296.101 364.193 307.654 356.331 299.315C351.629 289.748 365.737 282.857 372.677 276.378L372.32 276.036C361.128 265.299 350.34 253.921 339.417 242.885C332.488 235.52 316.481 226.238 326.312 216.901C334.025 213.195 337.204 219.082 342.251 224.266L384.34 266.46C389.814 261.462 395.046 257.231 400.63 252.433L424.147 232.101C443.414 215.678 453.137 214.444 430.331 192.996C423.05 186.149 415.907 179.291 408.83 172.241C406.412 169.899 402.236 165.65 399.655 163.631C395.016 168.423 388.975 172.823 382.404 174.488C343.813 184.634 317.156 138.208 342.723 112.263C344.206 110.759 346.615 109.109 348.346 107.809C341.87 100.956 332.052 92.9087 326.312 86.2127C316.388 76.7328 314.231 79.4607 304.634 87.7175L267.68 119.515C263.223 123.368 257.178 128.341 253.018 132.383C256.315 135.922 259.364 138.909 262.812 142.282C271.058 149.537 283.246 161.335 290.265 169.571C292.592 172.388 291.956 175.39 290.15 178.284C287.334 180.839 283.254 183.319 280.01 180.247C270.249 171.004 260.855 160.741 251.125 151.476L241.855 142.282Z"/><path d="M109.963 239.304C118.127 239.125 120.874 248.768 114.119 253.588C109.679 256.756 106.024 262.324 100.318 263.501C91.7949 263.993 89.1755 253.784 96.1667 249.016C100.385 246.139 104.742 240.387 109.963 239.304Z"/></svg>