<?xml version="1.0" encoding="utf-8" ?><svg xmlns="http://www.w3.org/2000/svg" xmlns:xlink="http://www.w3.org/1999/xlink" width="1024" height="1024" viewBox="0 0 1024 1024"><path transform="scale(2 2)" d="M266.623 76.641C269.095 69.6343 275.62 71.0585 282.19 70.9686C293.201 70.818 305.559 66.9536 313.775 76.6964C317.495 81.1065 324.496 95.7885 327.404 101.605C338.28 123.358 304.873 134.771 295.246 148.393C295.434 157.777 295.089 161.296 288.684 168.758C293.16 177.857 297.383 187.303 301.68 196.495L347.883 293.294C350.732 299.364 345.958 304.551 343.014 310.486L332.578 331.438C330.846 334.869 325.488 347.116 322.962 348.463C317.936 351.145 311.655 345.035 307.22 342.788C311.821 371.829 314.734 371.136 293.221 392.436L258.744 426.895C240.922 444.743 233.129 445.782 214.272 427.056L178.33 391.445C159.131 372.298 160.969 370.197 167.807 345.2L184.422 283.921C186.183 277.692 186.48 268.05 193.306 266.609C194.194 266.486 196.221 258.625 196.603 257.431C190.143 253.201 193.635 247.41 195.387 240.824L200.472 222.137C205.235 204.483 209.903 186.268 215.022 168.758C209.132 160.358 207.963 157.312 209.386 147.201C193.725 135.376 163.839 122.958 178.057 99.2931C187.771 83.1251 184.404 70.7205 210.908 71.2446C224.063 71.5048 237.126 70.8506 250.259 71.4786C253.78 71.647 255.017 73.4919 255.889 76.641C259.089 76.6493 263.848 76.2118 266.352 77.7702L266.623 76.641ZM198.903 272.512C197.286 279.913 194.98 287.954 193.032 295.359L179.692 345.586C172.906 371.93 169.013 366.526 190.178 387.037C192.258 386.315 189.417 382.738 188.765 381.74C181.115 370.017 185.588 364.997 188.689 352.477C184.796 348.728 187.579 349.067 186.799 344.066C186.822 344.215 186.296 343.088 186.305 343.06C186.968 340.84 189.003 339.756 189.624 336.81L189.717 336.356C190.099 336.509 190.381 337.663 190.763 338.336C191.901 338.19 192.157 336.522 193.306 335.233C193.92 334.161 197.204 321.479 197.768 319.419L209.574 275.396C211.271 269.115 213.03 261.467 215.022 255.42C213.449 252.097 206.524 256.581 208.203 252.081C210.12 251.557 215.202 249.566 216.558 249.995C221.6 226.699 229.842 195.651 237.459 173.559C235.894 173.701 234.13 173.882 232.608 173.559C230.353 173.516 228.259 173.506 226.004 173.559C224.099 177.936 221.628 188.107 220.206 193.285L209.622 232.369C207.782 239.3 205.625 248.887 203.236 255.42C202.899 261.346 199.633 266.774 198.903 272.512ZM226.004 141.638C218.375 143.949 217.27 161.453 228.533 161.93C223.2 155.366 226.096 145.99 232.608 141.638L226.004 141.638ZM253.799 173.559C258.539 192.23 264.843 209.08 268.255 228.662L268.742 229.445C270.936 228.293 268.771 223.197 274.502 224.531L274.8 224.603C274.745 223.756 274.683 223.546 275.004 222.73C274.578 211.639 265.755 184.947 262.637 173.559C259.912 173.538 256.479 173.441 253.799 173.559ZM200.684 104.801C202.173 100.321 203.169 98.3142 206.439 94.9695C206.982 89.5688 212.566 86.0205 216.558 82.9896C209.732 82.2377 199.324 81.1551 195.81 88.8521C184.788 112.99 179.139 110.839 200.684 126.272C200.842 125.603 200.738 124.982 200.684 124.29C198.281 117.448 194.844 111.677 200.684 104.801Z"/><path fill="white" transform="scale(2 2)" d="M215.022 255.42C213.449 252.097 206.524 256.581 208.203 252.081C210.12 251.557 215.202 249.566 216.558 249.995C215.827 252.105 215.481 253.247 215.022 255.42Z"/><path fill="#BCDEF6" transform="scale(2 2)" d="M232.608 173.559C235.471 173.538 238.504 173.463 241.352 173.559C254.041 207.632 263.401 251.984 263.593 287.877C263.616 292.176 263.034 313.29 264.031 315.496C264.737 317.058 291.924 333.471 295.246 335.233C294.802 340.132 296.025 345.867 296.817 350.791C294.803 352.199 292.863 354.295 291.142 356.063L226.004 422.356C214.496 412.36 200.898 398.466 190.178 387.037C192.258 386.315 189.417 382.738 188.765 381.74C181.115 370.017 185.588 364.997 188.689 352.477C184.796 348.728 187.579 349.067 186.799 344.066C186.822 344.215 186.296 343.088 186.305 343.06C186.968 340.84 189.003 339.756 189.624 336.81L189.717 336.356C190.099 336.509 190.381 337.663 190.763 338.336C191.901 338.19 192.157 336.522 193.306 335.233C193.92 334.161 197.204 321.479 197.768 319.419L209.574 275.396C211.271 269.115 213.03 261.467 215.022 255.42C215.481 253.247 215.827 252.105 216.558 249.995C221.6 226.699 229.842 195.651 237.459 173.559C235.894 173.701 234.13 173.882 232.608 173.559Z"/><path fill="white" transform="scale(2 2)" d="M188.689 352.477C184.796 348.728 187.579 349.067 186.799 344.066C186.822 344.215 186.296 343.088 186.305 343.06C186.968 340.84 189.003 339.756 189.624 336.81L189.717 336.356C190.099 336.509 190.381 337.663 190.763 338.336C191.901 338.19 192.157 336.522 193.306 335.233C191.928 341.046 190.056 346.696 188.689 352.477Z"/><path transform="scale(2 2)" d="M197.556 356.266C204.68 355.815 227.437 384.62 233.675 391.324C236.715 395.315 243.97 401.067 235.015 405.326C229.631 406.187 222.478 395.947 218.76 391.998L203.708 375.826C199.266 371.038 186.768 361.137 197.556 356.266Z"/><path fill="#BCDEF6" transform="scale(2 2)" d="M255.889 76.641C259.089 76.6493 263.848 76.2118 266.352 77.7702L266.623 76.641C266.832 86.6806 284.23 82.5326 291.322 82.1009C305.695 81.2257 305.428 84.6442 311.247 97.0926C303.699 105.473 287.672 123.188 278.642 129.933L233.169 129.929C224.643 129.992 219.921 129.057 214.015 136.277C210.558 133.335 206.691 131.009 203.236 128.173C202.406 127.603 201.499 126.885 200.684 126.272C200.842 125.603 200.738 124.982 200.684 124.29C198.281 117.448 194.844 111.677 200.684 104.801C202.173 100.321 203.169 98.3142 206.439 94.9695C206.982 89.5688 212.566 86.0205 216.558 82.9896L239.6 82.9953C246.711 83.0122 255.329 85.5482 255.889 76.641Z"/><path transform="scale(2 2)" d="M206.439 94.9695C221.799 83.7599 232.208 96.4183 224.973 101.283C221.241 103.791 214.225 100.58 212.689 106.814C210.762 114.633 201.054 113.289 200.726 105.753L200.684 104.801C202.173 100.321 203.169 98.3142 206.439 94.9695Z"/><path fill="white" transform="scale(2 2)" d="M200.684 124.29C201.518 125.092 203.361 126.712 203.559 127.784L203.236 128.173C202.406 127.603 201.499 126.885 200.684 126.272C200.842 125.603 200.738 124.982 200.684 124.29Z"/><path fill="#00A9F2" transform="scale(2 2)" d="M226.004 422.356L291.142 356.063C292.863 354.295 294.803 352.199 296.817 350.791C299.798 368.782 301.454 367.152 288.294 380.796L243.897 425.353C237.615 431.575 231.243 427.676 226.004 422.356Z"/><path fill="#00A9F2" transform="scale(2 2)" d="M311.247 97.0926C318.695 110.381 320.989 111.065 307.564 121.863C302.098 126.259 295.538 131.539 290.394 136.277C286.609 132.503 284.118 130.548 278.642 129.933C287.672 123.188 303.699 105.473 311.247 97.0926Z"/><path fill="#BCDEF6" transform="scale(2 2)" d="M203.236 255.42C202.899 261.346 199.633 266.774 198.903 272.512C198.551 269.151 196.344 267.507 193.306 266.609C194.194 266.486 196.221 258.625 196.603 257.431C199.55 258.251 201.083 257.288 203.236 255.42Z"/><path fill="#FEC302" transform="scale(2 2)" d="M262.637 173.559C267.92 173.56 273.372 173.63 278.642 173.559C279.437 178.231 287.786 194.044 290.415 199.712L323.158 269.329C327.463 278.374 332.464 287.844 336.608 296.882C330.825 309.203 324.041 323.303 317.468 335.233L279.252 312.163C277.781 311.312 276.43 310.437 275.004 309.516C274.839 306.188 274.993 301.605 275.004 298.181C275.148 272.814 272.344 253.072 268.255 228.662L268.742 229.445C270.936 228.293 268.771 223.197 274.502 224.531L274.8 224.603C274.745 223.756 274.683 223.546 275.004 222.73C274.578 211.639 265.755 184.947 262.637 173.559Z"/><path fill="white" transform="scale(2 2)" d="M275.004 222.73C280.054 241.9 281.467 269.889 281.095 289.288C281.049 291.681 280.957 299.304 280.482 301.567C280.465 304.766 280.084 309.064 279.252 312.163C277.781 311.312 276.43 310.437 275.004 309.516C274.839 306.188 274.993 301.605 275.004 298.181C275.148 272.814 272.344 253.072 268.255 228.662L268.742 229.445C270.936 228.293 268.771 223.197 274.502 224.531L274.8 224.603C274.745 223.756 274.683 223.546 275.004 222.73Z"/><path fill="#FEC302" transform="scale(2 2)" d="M226.004 141.638C235.421 141.323 246.583 141.638 256.17 141.635L268.731 141.636C276.308 141.64 283.09 140.388 283.243 150.284C283.319 155.251 283.022 161.381 276.797 161.662C263.156 162.277 242.023 163.073 228.533 161.93C223.2 155.366 226.096 145.99 232.608 141.638L226.004 141.638Z"/></svg>