<svg xmlns="http://www.w3.org/2000/svg" viewBox="0 0 100 100">
  <g stroke="#222" stroke-width="3" stroke-linecap="round" stroke-linejoin="round" fill="none">
    <!-- Head -->
    <circle cx="50" cy="57" r="36"/>
    <!-- Left ear -->
    <polygon points="18,28 14,50 30,50"/>
    <!-- Right ear -->
    <polygon points="82,28 86,50 70,50"/>
    <!-- Eyes -->
    <circle cx="38" cy="52" r="5"/>
    <circle cx="62" cy="52" r="5"/>
    <!-- Pupils -->
    <circle cx="39" cy="53" r="2.5" fill="#222"/>
    <circle cx="63" cy="53" r="2.5" fill="#222"/>
    <!-- Nose -->
    <path d="M46,64 Q50,68 54,64 L50,60 Z"/>
    <!-- Mouth -->
    <path d="M44,70 Q50,77 56,70"/>
    <!-- Forehead stripes -->
    <path d="M38,25 Q36,36 34,40"/>
    <path d="M50,21 Q50,33 50,37"/>
    <path d="M62,25 Q64,36 66,40"/>
    <!-- Whiskers left -->
    <line x1="13" y1="64" x2="42" y2="66"/>
    <line x1="13" y1="71" x2="42" y2="71"/>
    <!-- Whiskers right -->
    <line x1="58" y1="66" x2="87" y2="64"/>
    <line x1="58" y1="71" x2="87" y2="71"/>
  </g>
</svg>
