<?xml version="1.0" encoding="utf-8" ?><svg xmlns="http://www.w3.org/2000/svg" xmlns:xlink="http://www.w3.org/1999/xlink" width="1024" height="1024" viewBox="0 0 1024 1024"><path transform="scale(2 2)" d="M238.993 88.9476C246.128 86.4266 251.594 82.7137 256.873 77.4934C283.156 51.5049 299.223 97.2916 288.439 117.21C284.311 124.835 280.814 126.321 274.841 131.492C278.913 143.133 275.724 153.465 284.133 162.874C288.257 167.489 289.964 174.008 289.862 180.283C297.831 183.764 316.053 195.125 318.448 203.901C316.837 208.539 315.628 209.608 310.738 209.914C305.275 207.519 297.368 197.844 288.888 193.235C286.989 200.737 285.885 202.301 282.655 209.033C288.211 212.141 325.121 244.031 306.511 247.374C299.189 248.689 289.374 224.711 274.841 219.323C272.176 220.721 271.036 221.979 268.816 224.068C274.975 239.067 273.789 247.887 287.804 261.277C295.303 268.441 317.543 276.455 327.697 282.533C347.845 294.595 363.933 312.562 373.43 334.054C375.826 339.475 382.294 352.558 373.798 355.769C373.722 360.581 374.266 365.116 374.096 369.925C382.357 368.948 381.764 382.638 393.787 374.717C404.136 367.898 397.471 356.707 393.88 348.209L384.541 325.771C377.708 309.754 371.412 298.711 375.045 280.138C379.057 259.629 396.638 244.529 417.565 243.531C436.682 242.62 447.766 271.747 426.146 282.515C422.745 284.207 418.086 283.786 415.42 286.664C409.839 292.688 414.882 300.027 417.453 306.27L430.058 336.089C432.2 341.154 435.446 347.868 436.809 353.034C444.02 380.373 423.184 410.132 395.093 413.109C389.84 413.666 384.299 413.503 378.997 413.494C376.119 435.536 370.217 441.556 346.661 441.604L328.765 441.594C321.511 441.578 313.257 441.971 306.253 441.261C287.314 439.339 282.49 416.644 293.53 401.463C284.791 397.276 271.897 394.814 262.621 398.498C262.717 427.114 258.034 437.203 226.316 436.277C221.919 436.149 214.771 436.88 210.493 436.042C185.22 431.097 184.123 393.546 210.045 388.394C210.038 381.52 210.236 374.19 210.045 367.381C204.351 367.469 198.665 365.984 193.382 363.998C191.619 369.121 191.012 374.697 190.058 380.078L185.019 408.87C180.246 435.624 174.009 436.035 147.707 436.345C137.617 436.463 130.079 436.872 122.173 429.378C107.517 415.487 116.019 388.463 136.502 388.394C136.501 383.509 135.92 356.107 137.124 353.792C138.095 351.924 140.41 351.256 142.263 350.653L142.306 339.607C142.326 338.045 142.477 333.937 142.263 332.658C139.189 332.151 136.673 330.743 136.102 327.524C134.229 316.966 138.375 269.037 143.321 264.766C144.881 263.419 146.933 263.446 148.861 263.622C149.178 261.511 151.179 256.741 152.09 254.796C146.848 250.373 143.815 243.69 143.211 236.924C132.646 233.881 123.378 227.3 115.949 219.323C108.624 224.26 101.52 231.556 96.6695 238.875C93.2414 244.048 93.7587 247.373 87.3145 249.403C67.4046 244.595 102.852 213.363 108.961 209.033C106.168 203.189 104.887 199.58 103.445 193.235C94.3208 196.319 86.0488 207.991 79.5813 209.033C76.7857 208.658 75.1223 208.194 73.9835 205.352C70.4711 196.585 96.1383 182.337 102.247 180.283C102.147 165.853 107.416 160.947 113.307 149.158C115.034 145.703 116.847 135.591 117.696 131.492C109.69 125.88 101.774 120.95 99.3332 110.557C96.7189 99.4237 101.2 73.7955 115.762 70.3807C129.7 67.112 143.055 90.1733 152.469 88.4692C163.095 86.5458 185.941 73.3393 189.479 87.5031C194.363 87.4873 201.063 87.2591 205.819 87.5031C209.289 75.5152 231.147 85.6331 238.993 88.9476ZM180.304 273.559C195.583 281.133 216.538 276.749 220.583 259.271L222.293 259.271C235.62 258.434 245.387 250.648 246.633 236.924L252.139 234C254.25 233.056 256.006 232.199 258.055 231.126C262.245 245.528 265.16 254.275 275.317 266.188C275.344 275.38 275.082 281.763 271.053 290.482C269.699 293.413 267.748 295.373 266.87 298.565C267.321 300.708 267.738 302.599 269.78 303.774C281.21 310.355 286.917 282.983 287.263 276.14C293.473 279.244 301.23 282.587 307.083 285.864C312.48 311.153 296.977 321.159 298.055 326.813C298.642 330.333 302.066 332.542 305.549 331.662C316.576 328.874 320.856 302.456 320.744 293.123C328.026 297.515 333.302 301.893 339.97 306.907C340.363 317.102 339.079 325.795 332.669 334.01C331.058 336.075 328.833 338.003 327.963 340.475C326.204 345.471 332.989 352.913 341.035 343.468C346.685 336.393 350.241 329.857 351.404 320.874C357.648 329.169 362.896 338.969 365.373 349.08C366.524 353.782 368.259 356.674 373.798 355.769C382.294 352.558 375.826 339.475 373.43 334.054C363.933 312.562 347.845 294.595 327.697 282.533C317.543 276.455 295.303 268.441 287.804 261.277C273.789 247.887 274.975 239.067 268.816 224.068C271.036 221.979 272.176 220.721 274.841 219.323C289.374 224.711 299.189 248.689 306.511 247.374C325.121 244.031 288.211 212.141 282.655 209.033C285.885 202.301 286.989 200.737 288.888 193.235C297.368 197.844 305.275 207.519 310.738 209.914C315.628 209.608 316.837 208.539 318.448 203.901C316.053 195.125 297.831 183.764 289.862 180.283C289.964 174.008 288.257 167.489 284.133 162.874C275.724 153.465 278.913 143.133 274.841 131.492C280.814 126.321 284.311 124.835 288.439 117.21C299.223 97.2916 283.156 51.5049 256.873 77.4934C251.594 82.7137 246.128 86.4266 238.993 88.9476C231.147 85.6331 209.289 75.5152 205.819 87.5031C201.063 87.2591 194.363 87.4873 189.479 87.5031C185.941 73.3393 163.095 86.5458 152.469 88.4692C143.055 90.1733 129.7 67.112 115.762 70.3807C101.2 73.7955 96.7189 99.4237 99.3332 110.557C101.774 120.95 109.69 125.88 117.696 131.492C116.847 135.591 115.034 145.703 113.307 149.158C107.416 160.947 102.147 165.853 102.247 180.283C96.1383 182.337 70.4711 196.585 73.9835 205.352C75.1223 208.194 76.7857 208.658 79.5813 209.033C86.0488 207.991 94.3208 196.319 103.445 193.235C104.887 199.58 106.168 203.189 108.961 209.033C102.852 213.363 67.4046 244.595 87.3145 249.403C93.7587 247.373 93.2414 244.048 96.6695 238.875C101.52 231.556 108.624 224.26 115.949 219.323C123.378 227.3 132.646 233.881 143.211 236.924C143.815 243.69 146.848 250.373 152.09 254.796C155.118 256.989 158.118 259.392 161.816 260.254C162.402 261.438 169.362 266.565 170.742 267.422L170.742 267.422C165.735 281.061 156.895 330.071 169.349 341.954C167.73 336.791 169.778 332.517 175.588 332.658C172.816 314.143 174.703 291.433 180.304 273.559ZM317.318 406.001C324.33 406.778 335.46 421.564 339.745 416.173C350.176 403.049 351.742 372.451 328.635 371.695C329.722 377.698 330.289 381.936 332.801 387.638C334.3 391.041 337.029 395.086 337.817 398.498C335.192 410.831 320.518 402.29 316.9 405.341L317.318 406.001ZM262.621 368.188C275.914 372.79 288.715 375.617 302.586 377.772C304.581 378.082 316.847 380.906 317.318 379.577C317.022 375.993 316.619 372.346 316.257 368.763C303.268 368.401 282.239 364.349 270.205 360.347C267.793 359.545 265.018 358.461 262.621 358.049C262.572 361.477 262.527 364.762 262.621 368.188ZM317.318 406.001C304.957 396.861 287.992 428.485 310.738 429.313C310.718 428.684 308.637 425.314 308.402 423.902C306.983 415.402 313.226 411.733 319.607 408.719C318.849 407.958 318.009 406.856 317.318 406.001ZM225.027 401.463C219.726 400.651 212.884 398.898 208.278 402.419C199.936 408.796 202.787 422.512 213.511 424.059C213.153 422.568 211.642 421.719 211.519 417.871C211.104 404.922 225.634 404.328 225.027 401.463ZM145.763 400.733C143.15 400.68 140.515 400.449 137.923 400.432C126.45 400.354 124.094 413.065 131.438 421.213C131.747 420.38 131.773 418.682 131.904 417.746C133.462 406.539 142.588 404.202 152.09 403.332C149.798 402.517 147.63 402.297 145.763 400.733ZM407.893 258.563C390.26 263.855 382.079 286.019 388.138 302.541C393.446 317.014 400.445 331.453 406.038 345.887C410.984 358.65 416.285 368.12 405.565 381.164C405.991 381.041 406.459 380.915 406.826 380.649C422.503 369.268 417.917 358.108 412.262 343.597C407.224 331.758 402.161 319.838 397.453 307.867C390.482 290.145 395.626 280.491 404.925 264.67C405.707 263.339 407.652 259.966 407.893 258.563Z"/><path transform="scale(2 2)" d="M238.993 88.9476C246.128 86.4266 251.594 82.7137 256.873 77.4934C283.156 51.5049 299.223 97.2916 288.439 117.21C284.311 124.835 280.814 126.321 274.841 131.492C278.913 143.133 275.724 153.465 284.133 162.874C288.257 167.489 289.964 174.008 289.862 180.283C297.831 183.764 316.053 195.125 318.448 203.901C316.837 208.539 315.628 209.608 310.738 209.914C305.275 207.519 297.368 197.844 288.888 193.235C286.989 200.737 285.885 202.301 282.655 209.033C288.211 212.141 325.121 244.031 306.511 247.374C299.189 248.689 289.374 224.711 274.841 219.323C272.176 220.721 271.036 221.979 268.816 224.068C274.975 239.067 273.789 247.887 287.804 261.277C295.303 268.441 317.543 276.455 327.697 282.533C347.845 294.595 363.933 312.562 373.43 334.054C375.826 339.475 382.294 352.558 373.798 355.769C368.259 356.674 366.524 353.782 365.373 349.08C362.896 338.969 357.648 329.169 351.404 320.874C350.241 329.857 346.685 336.393 341.035 343.468C332.989 352.913 326.204 345.471 327.963 340.475C328.833 338.003 331.058 336.075 332.669 334.01C339.079 325.795 340.363 317.102 339.97 306.907C333.302 301.893 328.026 297.515 320.744 293.123C320.856 302.456 316.576 328.874 305.549 331.662C302.066 332.542 298.642 330.333 298.055 326.813C296.977 321.159 312.48 311.153 307.083 285.864C301.23 282.587 293.473 279.244 287.263 276.14C286.917 282.983 281.21 310.355 269.78 303.774C267.738 302.599 267.321 300.708 266.87 298.565C267.748 295.373 269.699 293.413 271.053 290.482C275.082 281.763 275.344 275.38 275.317 266.188C265.16 254.275 262.245 245.528 258.055 231.126C256.006 232.199 254.25 233.056 252.139 234L246.633 236.924C245.387 250.648 235.62 258.434 222.293 259.271L220.583 259.271C216.538 276.749 195.583 281.133 180.304 273.559L180.304 273.559C178.368 271.917 173.166 268.91 170.742 267.422L170.742 267.422C169.362 266.565 162.402 261.438 161.816 260.254C158.118 259.392 155.118 256.989 152.09 254.796C146.848 250.373 143.815 243.69 143.211 236.924C132.646 233.881 123.378 227.3 115.949 219.323C108.624 224.26 101.52 231.556 96.6695 238.875C93.2414 244.048 93.7587 247.373 87.3145 249.403C67.4046 244.595 102.852 213.363 108.961 209.033C106.168 203.189 104.887 199.58 103.445 193.235C94.3208 196.319 86.0488 207.991 79.5813 209.033C76.7857 208.658 75.1223 208.194 73.9835 205.352C70.4711 196.585 96.1383 182.337 102.247 180.283C102.147 165.853 107.416 160.947 113.307 149.158C115.034 145.703 116.847 135.591 117.696 131.492C109.69 125.88 101.774 120.95 99.3332 110.557C96.7189 99.4237 101.2 73.7955 115.762 70.3807C129.7 67.112 143.055 90.1733 152.469 88.4692C163.095 86.5458 185.941 73.3393 189.479 87.5031C194.363 87.4873 201.063 87.2591 205.819 87.5031C209.289 75.5152 231.147 85.6331 238.993 88.9476ZM251.095 96.9489C252.567 98.4391 253.276 99.0146 254.039 100.998C256.758 102.991 261.074 108.681 262.621 111.763C266.878 102.562 268.792 96.9742 263.647 87.5031C259.777 91.7857 256.033 94.0634 251.095 96.9489ZM222.293 139.349C222.031 141.701 221.86 143.413 223.199 145.488L223.985 145.753C234.879 149.444 233.497 133.949 225.027 136.818C224.276 137.554 222.766 138.732 222.293 139.349ZM124.874 86.3096C122.75 84.2518 118.128 79.6364 115.839 84.2243C111.786 92.3492 107.58 105.546 114.583 113.106C120.713 109.228 122.461 93.8672 124.874 86.3096Z"/><path fill="#FEC302" transform="scale(2 2)" d="M189.479 87.5031C194.363 87.4873 201.063 87.2591 205.819 87.5031C207 92.6992 207.907 93.3904 213.236 94.2403C221.912 95.6242 230.728 98.2058 238.366 102.621C241.34 104.323 244.479 107.185 247.78 108.097C252.501 107.088 253.454 105.732 254.039 100.998C256.758 102.991 261.074 108.681 262.621 111.763C263.354 113.485 264.3 115.849 265.312 117.353C255.962 119.978 258.68 124.931 261.618 131.505C266.846 143.205 264.517 156.621 270.506 165.498C273.114 169.362 276.213 171.443 277.154 175.802C268.824 173.748 240.011 166.675 241.319 181.47C240.589 181.94 227.143 181.662 224.017 181.47C226.196 163.109 209.256 162.378 196.457 162.421C181.798 162.471 165.833 161.529 167.142 181.47C161.366 181.479 154.524 181.249 148.861 181.47C153.402 166.856 120.316 174.278 114.583 175.802C116.344 165.449 121.381 162.3 124.86 153.053C127.993 144.726 128.331 135.476 131.782 126.884C139.712 107.141 155.01 99.6174 174.202 94.9582C181.434 93.2025 186.475 95.5562 189.479 87.5031ZM222.293 139.349C222.031 141.701 221.86 143.413 223.199 145.488L223.985 145.753C234.879 149.444 233.497 133.949 225.027 136.818C224.276 137.554 222.766 138.732 222.293 139.349Z"/><path transform="scale(2 2)" d="M193.382 103.729C199.451 102.985 233.506 105.925 231.86 115.854C230.104 126.451 220.365 120.079 214.595 118.329C209.003 116.633 204.043 116.037 198.813 115.752C185.813 115.562 178.05 117.531 166.182 122.053C159.209 124.709 148.616 104.882 193.382 103.729Z"/><path transform="scale(2 2)" d="M155.4 131.613C161.77 131.14 167.318 135.917 167.798 142.286C168.277 148.655 163.507 154.209 157.139 154.696C150.76 155.183 145.195 150.404 144.715 144.025C144.234 137.645 149.02 132.086 155.4 131.613Z"/><path transform="scale(2 2)" d="M225.027 136.818C231.797 123.973 252.016 136.244 243.458 149.259C237.796 157.869 225.826 154.844 223.199 145.488L223.985 145.753C234.879 149.444 233.497 133.949 225.027 136.818Z"/><path transform="scale(2 2)" d="M167.142 181.47C165.833 161.529 181.798 162.471 196.457 162.421C209.256 162.378 226.196 163.109 224.017 181.47C222.308 195.143 214.872 203.822 201.702 207.93L201.702 234C201.761 237.096 202.2 241.489 200.191 243.961C198.064 246.619 193.442 246.922 191.038 244.519C188.604 242.085 189.419 235.716 189.479 232.433L189.479 207.93C177.242 202.921 169.156 194.99 167.142 181.47Z"/><path fill="#3E3B3B" transform="scale(2 2)" d="M181.651 185.576C175.994 177.068 182.559 171.628 191.651 174.926C194.93 174.919 209.095 174.113 211.039 176.237C215.756 181.389 205.396 197.381 194.666 196.192C189.618 195.633 182.84 190.868 181.651 185.576Z"/><path fill="white" transform="scale(2 2)" d="M181.651 185.576C175.994 177.068 182.559 171.628 191.651 174.926C197.702 181.183 190.864 190.898 181.651 185.576Z"/><path fill="#BCDEF6" transform="scale(2 2)" d="M148.861 181.47C154.524 181.249 161.366 181.479 167.142 181.47C169.156 194.99 177.242 202.921 189.479 207.93L189.479 232.433C189.331 232.749 189.45 232.56 189.005 232.906C175.769 231.675 166.876 230.391 154 227.326C142.99 222.911 136.511 223.24 127.1 213.002C132.951 211.27 138.082 209.731 144.219 209.094C151.782 208.309 152.346 193.277 136.962 197.565C130.778 198.855 125.493 201.168 119.584 202.993C116.673 197.833 115.856 194.235 114.583 188.504C125.3 184.311 144.609 187.311 148.861 181.47Z"/><path fill="#BCDEF6" transform="scale(2 2)" d="M224.017 181.47C227.143 181.662 240.589 181.94 241.319 181.47C242.443 182.819 243.686 184.115 245.092 185.176C253.141 185.551 260.757 185.185 268.816 186.407C266.284 190.764 264.563 195.307 262.161 199.592C234.143 191.809 241.841 208.894 248.233 209.493C250.685 209.826 253.563 210.239 255.881 210.683C248.461 218.838 243.251 220.242 236.01 226.2L235.636 226.313C221.969 230.503 218.321 234.206 201.702 234L201.702 207.93C214.872 203.822 222.308 195.143 224.017 181.47Z"/><path fill="#5BBAF2" transform="scale(2 2)" d="M201.702 234C218.321 234.206 221.969 230.503 235.636 226.313L236.01 226.2L237.037 226.2C231.131 232.163 239.523 252.825 212.606 245.131C205.956 248.152 201.64 257.598 190.739 254.286C184.423 252.652 183.545 240.832 176.123 244.033C172.088 245.773 170.323 249.737 163.831 247.337C152.134 243.012 157.674 232.508 154 227.326C166.876 230.391 175.769 231.675 189.005 232.906C189.45 232.56 189.331 232.749 189.479 232.433C189.419 235.716 188.604 242.085 191.038 244.519C193.442 246.922 198.064 246.619 200.191 243.961C202.2 241.489 201.761 237.096 201.702 234Z"/><path fill="#5BBAF2" transform="scale(2 2)" d="M263.647 87.5031C267.2 85.1713 271.337 78.0322 275.039 84.9998C281.231 96.6557 281.845 111.752 270.042 119.831C268.489 118.944 266.972 118.013 265.312 117.353C264.3 115.849 263.354 113.485 262.621 111.763C266.878 102.562 268.792 96.9742 263.647 87.5031Z"/><path fill="#5BBAF2" transform="scale(2 2)" d="M214.991 258.563C216.989 258.89 218.566 259.09 220.583 259.271C216.538 276.749 195.583 281.133 180.304 273.559L180.304 273.559C181.041 270.616 182.718 267.107 183.17 264.56C195.419 270.178 205.228 266.089 214.991 258.563Z"/><path fill="#5BBAF2" transform="scale(2 2)" d="M268.816 186.407C271.457 187.226 274.442 187.863 277.154 188.504C275.601 194.684 274.666 197.44 271.273 202.993C267.901 201.338 265.783 200.649 262.161 199.592C264.563 195.307 266.284 190.764 268.816 186.407Z"/><path fill="#BCDEF6" transform="scale(2 2)" d="M174.252 259.271C176.752 257.937 179.727 262.498 183.17 264.56C182.718 267.107 181.041 270.616 180.304 273.559C178.368 271.917 173.166 268.91 170.742 267.422L170.742 267.422C171.87 264.51 172.937 262.109 174.252 259.271Z"/><path fill="#5BBAF2" transform="scale(2 2)" d="M255.881 210.683C258.91 211.461 259.784 211.727 262.621 213.002C251.634 222.482 246.909 221.286 237.037 226.2L236.01 226.2C243.251 220.242 248.461 218.838 255.881 210.683Z"/><path fill="#BD9A1C" transform="scale(2 2)" d="M161.816 260.254C167.116 260.969 169.221 261.125 174.252 259.271C172.937 262.109 171.87 264.51 170.742 267.422C169.362 266.565 162.402 261.438 161.816 260.254Z"/><path fill="#5BBAF2" transform="scale(2 2)" d="M124.874 86.3096C129.118 89.6705 135.065 94.5268 139.796 96.9489C131.141 103.669 125.692 109.399 121.426 119.831C118.71 117.72 116.437 116.038 114.583 113.106C120.713 109.228 122.461 93.8672 124.874 86.3096Z"/><defs><linearGradient id="gradient_0" gradientUnits="userSpaceOnUse" x1="294.44254" y1="431.26941" x2="286.19485" y2="230.57079"><stop offset="0" stop-color="#FDBD04"/><stop offset="1" stop-color="#FFD709"/></linearGradient></defs><path fill="url(#gradient_0)" transform="scale(2 2)" d="M252.139 234C254.25 233.056 256.006 232.199 258.055 231.126C262.245 245.528 265.16 254.275 275.317 266.188C275.344 275.38 275.082 281.763 271.053 290.482C269.699 293.413 267.748 295.373 266.87 298.565C267.321 300.708 267.738 302.599 269.78 303.774C281.21 310.355 286.917 282.983 287.263 276.14C293.473 279.244 301.23 282.587 307.083 285.864C312.48 311.153 296.977 321.159 298.055 326.813C298.642 330.333 302.066 332.542 305.549 331.662C316.576 328.874 320.856 302.456 320.744 293.123C328.026 297.515 333.302 301.893 339.97 306.907C340.363 317.102 339.079 325.795 332.669 334.01C331.058 336.075 328.833 338.003 327.963 340.475C326.204 345.471 332.989 352.913 341.035 343.468C346.685 336.393 350.241 329.857 351.404 320.874C357.648 329.169 362.896 338.969 365.373 349.08C366.524 353.782 368.259 356.674 373.798 355.769C373.722 360.581 374.266 365.116 374.096 369.925C367.845 373.798 370.789 376.367 370.225 382.019C369.159 392.231 367.836 402.426 366.532 412.611C364.503 428.465 361.601 429.47 346.482 429.346L317.124 429.349C315.952 429.354 311.612 429.48 310.738 429.313C310.718 428.684 308.637 425.314 308.402 423.902C306.983 415.402 313.226 411.733 319.607 408.719C318.849 407.958 318.009 406.856 317.318 406.001L317.318 406.001C324.33 406.778 335.46 421.564 339.745 416.173C350.176 403.049 351.742 372.451 328.635 371.695C328.353 368.072 329.577 362.081 327.025 359.2C324.822 356.714 320.112 356.53 317.84 359.039C315.746 361.35 316.231 365.822 316.257 368.763C303.268 368.401 282.239 364.349 270.205 360.347C267.793 359.545 265.018 358.461 262.621 358.049C262.597 355.68 262.514 350.474 262.754 348.604C263.609 341.954 255.786 338.606 251.963 343.06C249.228 346.246 250.282 359.275 250.285 363.583L250.27 399.166C250.299 424.843 248.928 424.14 221.41 424.092C219.43 424.088 215.239 424.305 213.511 424.059C213.153 422.568 211.642 421.719 211.519 417.871C211.104 404.922 225.634 404.328 225.027 401.463C231.102 401.537 240.11 399.25 234.038 391.514C231.798 388.66 225.798 388.771 222.293 388.394L222.293 366.527C224.348 367.024 226.286 367.487 228.431 367.881C236.763 369.413 238.558 357.958 231.175 355.769C236.293 330.234 229.819 294.745 225.027 269.6C224.356 266.459 223.561 262.098 222.293 259.271C235.62 258.434 245.387 250.648 246.633 236.924L252.139 234Z"/><path fill="#FEC302" transform="scale(2 2)" d="M246.633 236.924L252.139 234C254.997 248.357 239.989 269.428 225.027 269.6C224.356 266.459 223.561 262.098 222.293 259.271C235.62 258.434 245.387 250.648 246.633 236.924Z"/><path fill="#FEC302" transform="scale(2 2)" d="M152.09 254.796C155.118 256.989 158.118 259.392 161.816 260.254C162.402 261.438 169.362 266.565 170.742 267.422L170.742 267.422C165.735 281.061 156.895 330.071 169.349 341.954L169.574 342.262C173.52 347.757 174.878 352.695 181.651 356.538L174.626 397.294C171.603 415.22 173.76 426.44 151.412 424.044C145.9 423.453 135.937 425.701 131.438 421.213C131.747 420.38 131.773 418.682 131.904 417.746C133.462 406.539 142.588 404.202 152.09 403.332C149.798 402.517 147.63 402.297 145.763 400.733C148.846 400.637 152.351 401.416 155.016 399.468C161.994 394.37 155.984 389.03 148.44 388.394L148.44 368.763C151.91 368.808 157.962 369.512 160.632 366.973C163.11 364.71 162.981 360.371 160.553 358.129C158.024 355.794 152.157 356.508 148.861 356.538C147.65 352.755 146.386 351.27 142.263 350.653L142.306 339.607C142.326 338.045 142.477 333.937 142.263 332.658C139.189 332.151 136.673 330.743 136.102 327.524C134.229 316.966 138.375 269.037 143.321 264.766C144.881 263.419 146.933 263.446 148.861 263.622C149.178 261.511 151.179 256.741 152.09 254.796Z"/><path transform="scale(2 2)" d="M142.263 332.658C139.189 332.151 136.673 330.743 136.102 327.524C134.229 316.966 138.375 269.037 143.321 264.766C144.881 263.419 146.933 263.446 148.861 263.622C151.677 264.874 152.395 266.053 154 268.608C149.417 284.219 148.384 300.692 148.212 316.879C148.15 322.603 149.758 331.448 142.263 332.658Z"/><path fill="#BCDEF6" transform="scale(2 2)" d="M220.583 259.271L222.293 259.271C223.561 262.098 224.356 266.459 225.027 269.6C229.819 294.745 236.293 330.234 231.175 355.769C226.413 355.005 219.207 347.942 216.52 344.139C216.29 337.825 219.046 321.668 207.382 326.188C191.978 324.172 198.27 341.887 197.212 352.391C192.637 349.884 189.992 348.314 186.106 344.725C181.955 340.891 180.86 334.338 175.588 332.658C172.816 314.143 174.703 291.433 180.304 273.559C195.583 281.133 216.538 276.749 220.583 259.271Z"/><path fill="#5BBAF2" transform="scale(2 2)" d="M262.621 368.188C275.914 372.79 288.715 375.617 302.586 377.772C304.581 378.082 316.847 380.906 317.318 379.577C318.553 381.854 319.975 389.009 321.525 392.507C316.211 392.463 311.425 392.244 306.192 393.351C291.658 385.963 279.103 382.837 262.621 385.305L262.621 368.188Z"/><path fill="#5BBAF2" transform="scale(2 2)" d="M197.212 352.391C198.27 341.887 191.978 324.172 207.382 326.188C203.467 329.38 204.271 333.855 204.263 338.402C204.246 348.131 204.641 348.604 210.045 355.769C205.503 354.656 201.7 353.765 197.212 352.391Z"/><path fill="#FEC302" transform="scale(2 2)" d="M407.893 258.563C415.747 253.987 428.719 256.616 424.803 267.069C422.198 274.548 408.714 269.283 402.302 284.517C399.363 291.499 400.509 298.106 403.341 304.866C407.859 315.654 425.241 351.429 425.97 361.788C427.052 377.154 416.621 393.213 402.335 398.831C395.132 401.664 387.755 401.557 380.27 401.463C380.729 397.359 381.152 393.149 381.736 389.07C396.034 389.471 395.305 388.25 405.565 381.164C405.991 381.041 406.459 380.915 406.826 380.649C422.503 369.268 417.917 358.108 412.262 343.597C407.224 331.758 402.161 319.838 397.453 307.867C390.482 290.145 395.626 280.491 404.925 264.67C405.707 263.339 407.652 259.966 407.893 258.563Z"/></svg>