<?xml version="1.0" encoding="utf-8" ?><svg xmlns="http://www.w3.org/2000/svg" xmlns:xlink="http://www.w3.org/1999/xlink" width="1024" height="1024" viewBox="0 0 1024 1024"><path transform="scale(2 2)" d="M125.925 380.142C118.539 388.395 113.037 380.622 108.236 375.073C18.9177 271.842 66.2743 106.704 199.726 69.055C253.697 53.8292 309.612 63.311 356.358 94.0753C361.867 97.7003 367.677 101.063 363.924 108.797C368.169 112.136 373.097 117.997 377.281 120.788C380.964 117.841 386.323 118.358 389.374 121.954C392.426 125.551 392.064 130.922 388.557 134.077C391.807 137.966 396.425 144.343 399.473 147.703C407.327 142.216 411.471 150.867 414.841 156.556C441.269 201.169 450.509 263.666 430.751 312.526C441.323 325.911 447.963 340.391 449.841 357.466C450.682 365.117 452.857 373.69 442.443 375.396L441.411 375.541C439.817 377.951 440.134 391.479 434.437 397.836C437.153 399.258 438.83 402.096 438.766 405.162C438.702 408.227 436.908 410.993 434.135 412.301C431.362 413.609 428.087 413.235 425.681 411.335C422.855 416.404 412.418 426.625 407.203 429.043C409.704 433.811 408.424 438.769 403.291 440.953C376.736 452.253 345.709 450.413 321.766 433.763C319.612 432.266 317.207 430.479 314.933 429.219L314.611 429.043C309.327 430.1 304.519 431.547 299.329 432.855C258.508 443.143 215.306 440.322 176.271 424.561C171.141 422.489 170.224 417.066 172.432 412.418C169.315 411.576 155.629 404.689 153.661 402.404C152.219 405.133 149.35 406.803 146.265 406.709C143.18 406.615 140.418 404.773 139.145 401.962C137.871 399.151 138.309 395.86 140.273 393.48C135.944 389.707 129.078 384.59 125.925 380.142Z"/><path fill="white" transform="scale(2 2)" d="M259.268 114.776C299.278 117.228 340.967 139.383 362.682 173.675C360.84 174.848 366.096 184.74 366.981 187.379C372.482 203.773 372.795 221.598 369.505 238.479C368.963 241.265 367.75 245.6 367.717 248.329C366.417 250.435 365.793 252.175 365.689 254.681C364.769 255.94 363.621 260.129 362.934 261.961C360.619 268.128 350.822 282.754 350.263 285.978C319.203 294.514 297.25 313.712 288.907 345.972C287.964 349.617 287.478 353.429 286.489 357.079C279.051 358.595 269.448 366.912 257.646 367.435C251.774 362.638 244.201 364.796 243.277 372.451C241.197 373.344 205.177 370.81 195.689 370.974C193.617 371.01 189.22 370.316 187.383 370.663C147.924 354.448 118.048 303.347 115.435 262.203C121.205 262.23 143.64 264.776 135.091 248.724C133.047 244.887 120.398 246.11 115.435 246.133C114.686 223.732 125.268 194.813 136.922 176.411C141.186 169.678 147.139 162.355 136.549 157.875C139.993 154.196 145.497 147.039 149.542 144.112C153.445 151.678 158.584 150.851 164.326 146.023C185.143 128.523 215.812 115.371 243.277 114.776C243.257 119.405 242.92 125.504 243.391 129.915C244.575 141.007 260.809 139.395 259.346 127.108C259.051 124.634 259.217 117.477 259.268 114.776Z"/><path transform="scale(2 2)" d="M249.951 161.562C259.551 161.018 259.273 169.088 259.278 176.243L259.268 233.65C265.254 236.237 268.617 240.562 271.597 246.133L298.444 246.122C303.393 246.122 313.122 245.094 316.796 248.555C320.954 252.472 318.484 260.962 312.255 261.779C308.189 262.312 304.701 262.216 300.586 262.216L282.883 262.203C279.099 262.168 275.38 262.141 271.597 262.203C259.04 291.935 217.117 272.085 231.218 243.805C233.432 239.365 238.52 235.128 243.277 233.65L243.258 173.111C243.216 167.137 243.202 163.45 249.951 161.562Z"/><path fill="#FEC302" transform="scale(2 2)" d="M249.648 248.389C253.103 247.912 256.29 250.328 256.765 253.783C257.24 257.238 254.824 260.424 251.368 260.898C247.915 261.372 244.731 258.957 244.256 255.503C243.781 252.05 246.195 248.865 249.648 248.389Z"/><path fill="#70BAEE" transform="scale(2 2)" d="M125.925 380.142C118.539 388.395 113.037 380.622 108.236 375.073C18.9177 271.842 66.2743 106.704 199.726 69.055C253.697 53.8292 309.612 63.311 356.358 94.0753C361.867 97.7003 367.677 101.063 363.924 108.797C368.169 112.136 373.097 117.997 377.281 120.788C380.964 117.841 386.323 118.358 389.374 121.954C392.426 125.551 392.064 130.922 388.557 134.077C391.807 137.966 396.425 144.343 399.473 147.703C395.381 151.041 395.409 154.881 398.16 159.153C421.797 195.859 434.585 258.184 417.777 300.263C410.93 295.78 407.009 293.271 399.473 289.842C425.847 183.329 332.8 80.519 223.286 101.051C200.028 105.411 178.439 115.304 159.425 129.328C153.758 133.489 147.88 136.297 149.542 144.112C145.497 147.039 139.993 154.196 136.549 157.875C130.633 156.769 129.56 159.036 126.563 163.431C100.488 201.654 92.3087 250.059 105.131 294.604C121.077 350.005 170.751 393.215 227.891 401.003C252.362 404.338 269.184 401.031 292.309 397.648C295.326 404.004 298.063 409.388 302.538 414.974C264.515 426.19 221.289 425.603 184.675 410.265C179.906 408.266 175.86 407.566 172.432 412.418C169.315 411.576 155.629 404.689 153.661 402.404C152.219 405.133 149.35 406.803 146.265 406.709C143.18 406.615 140.418 404.773 139.145 401.962C137.871 399.151 138.309 395.86 140.273 393.48C135.944 389.707 129.078 384.59 125.925 380.142Z"/><path transform="scale(2 2)" d="M125.925 380.142C118.539 388.395 113.037 380.622 108.236 375.073C18.9177 271.842 66.2743 106.704 199.726 69.055C253.697 53.8292 309.612 63.311 356.358 94.0753C361.867 97.7003 367.677 101.063 363.924 108.797C361.105 111.391 357.148 114.092 353.376 111.308C290.577 64.9522 200.367 66.8957 140.906 118.031C67.0739 179.888 57.1672 289.668 119.329 363.149C123.992 368.662 130.154 372.494 125.925 380.142Z"/><path transform="scale(2 2)" d="M377.281 120.788C380.964 117.841 386.323 118.358 389.374 121.954C392.426 125.551 392.064 130.922 388.557 134.077C386.197 136.2 382.869 136.872 379.87 135.832C376.87 134.791 374.674 132.203 374.135 129.074C373.597 125.945 374.802 122.771 377.281 120.788Z"/><path transform="scale(2 2)" d="M140.273 393.48C142.913 390.28 147.545 389.596 150.997 391.897C154.448 394.198 155.599 398.737 153.661 402.404C152.219 405.133 149.35 406.803 146.265 406.709C143.18 406.615 140.418 404.773 139.145 401.962C137.871 399.151 138.309 395.86 140.273 393.48Z"/><path fill="#FEC302" transform="scale(2 2)" d="M407.203 429.043C400.569 421.995 396.659 426.358 389.029 428.84C344.018 443.481 297.985 407.093 302.782 359.727C306.217 323.557 339.614 296.775 375.75 300.607C406.513 303.57 431.614 329.73 434.108 360.342C434.599 366.378 433.376 375.019 442.443 375.396L441.411 375.541C439.817 377.951 440.134 391.479 434.437 397.836C437.153 399.258 438.83 402.096 438.766 405.162C438.702 408.227 436.908 410.993 434.135 412.301C431.362 413.609 428.087 413.235 425.681 411.335C422.855 416.404 412.418 426.625 407.203 429.043Z"/><path transform="scale(2 2)" d="M425.681 411.335C422.406 408.75 421.638 404.096 423.909 400.596C426.179 397.096 430.741 395.9 434.437 397.836C437.153 399.258 438.83 402.096 438.766 405.162C438.702 408.227 436.908 410.993 434.135 412.301C431.362 413.609 428.087 413.235 425.681 411.335Z"/><path transform="scale(2 2)" d="M367.717 318.084C371.471 318.227 375.47 320.865 375.78 324.617C376.72 335.994 375.937 348.424 376.171 359.818C382.357 359.999 396.29 358.377 401.11 361.543C407.23 365.564 404.303 375.247 396.968 376.273C389.422 377.164 374.764 376.491 367.108 376.178C358.525 375.827 359.892 366.953 359.891 360.888L359.878 332.664C359.818 325.611 358.637 319.419 367.717 318.084Z"/><path fill="#BCDEF6" transform="scale(2 2)" d="M362.682 173.675C376.164 190.02 388.368 226.236 387.487 246.133C381.51 246.106 372.403 244.89 367.717 248.329C367.75 245.6 368.963 241.265 369.505 238.479C372.795 221.598 372.482 203.773 366.981 187.379C366.096 184.74 360.84 174.848 362.682 173.675Z"/><path fill="#BCDEF6" transform="scale(2 2)" d="M365.689 254.681C368.028 265.345 378.709 262.07 387.487 262.203C387.205 270.567 385.817 277.797 384.25 285.978C376.486 282.596 358.622 284.242 350.263 285.978C350.822 282.754 360.619 268.128 362.934 261.961C363.621 260.129 364.769 255.94 365.689 254.681Z"/><path fill="#BCDEF6" transform="scale(2 2)" d="M286.489 357.079C286.202 367.015 286.186 371.237 287.356 381.149C278.519 383.299 269.428 384.721 260.345 385.234C260.312 379.395 261.497 371.627 257.646 367.435C269.448 366.912 279.051 358.595 286.489 357.079Z"/><path fill="#70BAEE" transform="scale(2 2)" d="M187.383 370.663C189.22 370.316 193.617 371.01 195.689 370.974C205.177 370.81 241.197 373.344 243.277 372.451C243.691 374.238 243.284 383.431 243.277 385.784C225.978 386.264 202.248 379.521 187.383 370.663Z"/></svg>