<?xml version="1.0" encoding="utf-8" ?><svg xmlns="http://www.w3.org/2000/svg" xmlns:xlink="http://www.w3.org/1999/xlink" width="1024" height="1024" viewBox="0 0 1024 1024"><path fill="#BCDEF6" transform="scale(2 2)" d="M220.468 308.685C219.93 306.637 219.333 305.276 218.616 303.323L194.818 237.45C192.821 231.73 190.472 224.951 188.272 219.265C178.396 193.734 211.548 175.554 227.672 197.567C229.819 200.498 232.139 208.195 233.484 211.923L242.233 236.717C256.096 227.386 268.769 230.29 278.364 243.313C291.116 232.365 306.565 236.306 313.858 250.762C323.179 241.4 341.724 243.125 347.648 254.573C350.433 259.955 370.591 299.998 350.324 294.071C350.325 294.813 356.08 311.283 356.706 312.464C358.445 308.592 361.844 306.278 366.075 308.239C370.265 310.18 371.47 318.665 373.104 322.582C379.095 341.878 377.712 362.829 370.669 381.661C369.111 385.827 365.854 391.233 364.775 394.52C365.369 397.613 366.077 400.322 366.873 403.367C379.65 402.364 381.655 410.727 383.996 420.796C385.683 428.056 387.862 435.411 382.084 441.815C377.806 446.557 368.133 450.312 364.775 442.368C361.352 443.112 346.76 446.827 344.521 446.746C347.016 456.635 334.597 456.947 327.701 458.686L295.101 466.887C280.114 470.684 260.594 478.839 252.784 458.16C248.264 446.192 245.152 434.701 258.156 426.606C257.405 423.156 256.092 418.94 255.145 415.435C251.62 414.067 247.994 413.002 244.441 411.704C215.642 401.183 191.889 374.085 186.774 343.561C188.644 338.667 190.132 336.71 195.75 337.073C195.398 335.785 183.166 323.305 181.228 321.299C175.413 325.711 171.647 322.182 167.045 318.079C147.871 299.533 174.555 262.229 202.263 290.251L220.468 308.685Z"/><path transform="scale(2 2)" d="M220.468 308.685C219.93 306.637 219.333 305.276 218.616 303.323L194.818 237.45C192.821 231.73 190.472 224.951 188.272 219.265C178.396 193.734 211.548 175.554 227.672 197.567C229.819 200.498 232.139 208.195 233.484 211.923L242.233 236.717C256.096 227.386 268.769 230.29 278.364 243.313C291.116 232.365 306.565 236.306 313.858 250.762C323.179 241.4 341.724 243.125 347.648 254.573C350.433 259.955 370.591 299.998 350.324 294.071C340.975 286.892 341.888 253.306 326.027 258.174C322.22 260.137 320.683 261.688 319.561 265.939C321.287 270.203 323.541 273.611 320.344 277.822C304.809 292.582 309.03 246.188 291.092 250.762C278.059 256.228 287.265 267.645 289.645 277.822C290.232 284.129 283.116 287.954 278.618 283.369C277.183 281.907 275.792 277.007 275.063 274.868L269.524 258.871C266.703 250.861 265.59 243.135 255.145 244.288C240.912 249.416 255.96 272.509 259.44 283.863C260.998 290.857 250.671 293.489 247.68 288.391C245.278 284.296 243.481 277.888 241.83 273.4L220.674 214.856C218.111 207.799 217.271 200.887 208.158 201.023C207.633 202.537 206.33 205.991 206.858 207.376L242.446 303.597C244.649 309.657 247.573 315.923 248.632 322.273C249.092 325.033 245.959 333.887 243.182 334.626C237.574 347.405 227.587 333.993 222.307 328.972C211.328 318.377 200.642 307.484 189.686 296.862C184.61 291.941 179.985 292.18 175.305 297.654C167.985 310.578 189.149 309.734 181.228 321.299C175.413 325.711 171.647 322.182 167.045 318.079C147.871 299.533 174.555 262.229 202.263 290.251L220.468 308.685Z"/><path fill="#77C3F2" transform="scale(2 2)" d="M208.158 201.023C207.633 202.537 206.33 205.991 206.858 207.376L242.446 303.597C244.649 309.657 247.573 315.923 248.632 322.273C249.092 325.033 245.959 333.887 243.182 334.626C243.232 331.209 237.177 316.215 235.668 312.026L204.006 224.366C201.054 215.993 194.666 203.795 208.158 201.023Z"/><path transform="scale(2 2)" d="M186.774 343.561C188.644 338.667 190.132 336.71 195.75 337.073C198.685 338.772 199.453 339.296 200.307 342.702C209.431 379.067 231.024 395.325 265.207 404.178C268.377 414.001 272.296 425.349 274.954 435.258C267.195 437.719 259.881 436.93 263.337 446.978L263.746 448.144C266.508 447.883 269.988 446.861 272.749 446.158L287.263 442.368C304.65 436.515 331.207 431.472 349.278 427.556C350.638 427.253 351.921 426.955 353.272 426.606C359.267 425.46 364.354 423.845 370.629 422.903C376.451 443.241 362.381 427.835 364.775 442.368C361.352 443.112 346.76 446.827 344.521 446.746C347.016 456.635 334.597 456.947 327.701 458.686L295.101 466.887C280.114 470.684 260.594 478.839 252.784 458.16C248.264 446.192 245.152 434.701 258.156 426.606C257.405 423.156 256.092 418.94 255.145 415.435C251.62 414.067 247.994 413.002 244.441 411.704C215.642 401.183 191.889 374.085 186.774 343.561Z"/><path fill="#FEC302" transform="scale(2 2)" d="M353.272 426.606C359.267 425.46 364.354 423.845 370.629 422.903C376.451 443.241 362.381 427.835 364.775 442.368C361.352 443.112 346.76 446.827 344.521 446.746C342.51 443.509 340.249 441.941 336.393 442.922C317.601 447.705 298.793 452.458 279.99 457.215C268.619 460.091 266.464 458.609 263.746 448.144C266.508 447.883 269.988 446.861 272.749 446.158L287.263 442.368C304.65 436.515 331.207 431.472 349.278 427.556C350.638 427.253 351.921 426.955 353.272 426.606Z"/><path transform="scale(2 2)" d="M356.706 312.464C358.445 308.592 361.844 306.278 366.075 308.239C370.265 310.18 371.47 318.665 373.104 322.582C379.095 341.878 377.712 362.829 370.669 381.661C369.111 385.827 365.854 391.233 364.775 394.52C365.369 397.613 366.077 400.322 366.873 403.367C379.65 402.364 381.655 410.727 383.996 420.796C385.683 428.056 387.862 435.411 382.084 441.815C377.806 446.557 368.133 450.312 364.775 442.368C362.381 427.835 376.451 443.241 370.629 422.903C370.045 420.65 369.577 418.744 369.137 416.447C365.054 416.813 362.391 417.285 358.55 415.435C354.569 411.717 353.57 403.636 351.402 398.643C349.562 394.406 350.852 391.673 353.067 387.862C364.879 367.535 367.15 342.229 358.526 320.284C357.5 317.672 356.732 315.316 356.706 312.464Z"/><path fill="#77C3F2" transform="scale(2 2)" d="M175.305 297.654C185.554 305.386 199.595 320.964 208.836 330.317C213.699 335.24 218.136 339.091 210.675 344.894C224.926 393.115 270.17 392.474 272.675 397.385C277.777 408.619 284.114 430.479 287.263 442.368L272.749 446.158C269.988 446.861 266.508 447.883 263.746 448.144L263.337 446.978C259.881 436.93 267.195 437.719 274.954 435.258C272.296 425.349 268.377 414.001 265.207 404.178C231.024 395.325 209.431 379.067 200.307 342.702C199.453 339.296 198.685 338.772 195.75 337.073C195.398 335.785 183.166 323.305 181.228 321.299C189.149 309.734 167.985 310.578 175.305 297.654Z"/><path fill="#DBEAF2" transform="scale(2 2)" d="M326.027 258.174C341.888 253.306 340.975 286.892 350.324 294.071C350.325 294.813 356.08 311.283 356.706 312.464C356.732 315.316 357.5 317.672 358.526 320.284C367.15 342.229 364.879 367.535 353.067 387.862C350.852 391.673 349.562 394.406 351.402 398.643C353.57 403.636 354.569 411.717 358.55 415.435C362.391 417.285 365.054 416.813 369.137 416.447C369.577 418.744 370.045 420.65 370.629 422.903C364.354 423.845 359.267 425.46 353.272 426.606C351.921 426.955 350.638 427.253 349.278 427.556C347.915 417.566 339.753 402.337 339.944 393.676C340.075 387.789 343.526 383.738 346.008 378.695C360.684 347.78 350.023 326.943 339.599 297.392C336.445 288.45 327.171 266.07 326.027 258.174Z"/><path fill="white" transform="scale(2 2)" d="M358.55 415.435C362.391 417.285 365.054 416.813 369.137 416.447C369.577 418.744 370.045 420.65 370.629 422.903C364.354 423.845 359.267 425.46 353.272 426.606L353.1 426.351C360.49 423.16 363.582 427.388 362.826 420.059C360.323 418.37 360.055 416.784 358.629 415.875L358.55 415.435Z"/><path fill="#DBEAF2" transform="scale(2 2)" d="M255.145 244.288C265.59 243.135 266.703 250.861 269.524 258.871L275.063 274.868C275.792 277.007 277.183 281.907 278.618 283.369C283.116 287.954 290.232 284.129 289.645 277.822C302.674 274.634 297.679 296.035 281.621 295.515C271.685 295.193 269.29 287.2 266.587 279.333C264.668 273.626 254.817 248.202 255.145 244.288Z"/><path fill="#DBEAF2" transform="scale(2 2)" d="M291.092 250.762C309.03 246.188 304.809 292.582 320.344 277.822C327.852 281.768 322.581 290.385 315.744 290.708C303.246 291.338 300.619 280.225 297.468 270.77C295.396 264.551 291.059 257.365 291.092 250.762Z"/><path fill="#FEC302" transform="scale(2 2)" d="M161.373 109.115C151.713 106.383 153.995 95.6247 156.655 87.9819C169.484 50.5205 225.561 53.8418 232.004 93.3091C233.499 102.468 232.22 115.479 232.484 125.049C254.09 133.439 251.299 161.72 229.007 166.387C223.236 167.595 218.094 166.924 217.607 159.761L217.364 159.488C211.301 159.885 205.366 159.771 199.29 159.761C200.484 188.654 156.996 191.17 154.82 162.839C154.236 155.231 155.092 147.125 154.73 139.446C154.467 133.835 153.704 126.744 161.373 126.161C161.389 121.134 161.656 113.93 161.373 109.115Z"/><path transform="scale(2 2)" d="M161.373 109.115C151.713 106.383 153.995 95.6247 156.655 87.9819C169.484 50.5205 225.561 53.8418 232.004 93.3091C233.499 102.468 232.22 115.479 232.484 125.049C254.09 133.439 251.299 161.72 229.007 166.387C223.236 167.595 218.094 166.924 217.607 159.761C219.117 149.63 237.162 156.653 233.857 143.054C231.035 131.436 219.077 147.74 219.146 123.875L219.152 108.88C219.169 96.2859 219.618 86.2249 207.476 78.6141C192.297 69.324 171.06 78.4645 168.583 96.3814C167.648 103.145 169.666 107.31 161.373 109.115Z"/><path transform="scale(2 2)" d="M161.373 126.161C163.372 126.719 165.616 127.356 166.758 129.251C172.39 138.589 161.529 165.427 174.941 169.26C186.48 172.557 184.608 158.397 189.438 155.294C193.76 152.518 197.675 155.81 199.29 159.761C200.484 188.654 156.996 191.17 154.82 162.839C154.236 155.231 155.092 147.125 154.73 139.446C154.467 133.835 153.704 126.744 161.373 126.161Z"/><path fill="white" transform="scale(2 2)" d="M191.961 90.4008C195.63 89.0734 199.678 90.9914 200.974 94.6717C202.27 98.3519 200.317 102.383 196.626 103.648C192.979 104.897 189.007 102.973 187.726 99.3368C186.446 95.7007 188.336 91.7123 191.961 90.4008Z"/><path transform="scale(2 2)" d="M131.084 155.763C144.961 155.359 131.947 179.952 153.935 189.867C161.607 193.327 161.645 200.866 153.654 203.24C139.371 204.083 126.158 180.031 125.374 166.958C125.033 161.274 125.122 157.785 131.084 155.763Z"/><path transform="scale(2 2)" d="M291.092 84.3332C298.023 83.4302 299.019 89.4469 298.999 94.7568C312.172 94.7038 315.556 107.939 298.999 108.251C299.284 112.348 298.945 116.453 294.384 117.926C287.709 119.353 285.786 113.708 285.64 108.251C269.981 107.657 272.819 94.5157 285.64 94.7568C285.586 89.3416 285.266 86.3973 291.092 84.3332Z"/><path transform="scale(2 2)" d="M270.442 164.78C280.147 163.484 277.566 176.802 274.854 182.445C270.958 190.551 264.413 195.33 256.174 198.296C252.507 198.983 249.654 196.974 248.598 193.392C246.933 187.89 253.288 185.528 256.833 183.407C267.434 177.067 260.689 167.798 270.442 164.78Z"/><path transform="scale(2 2)" d="M236.605 40.7457C242.385 40.7109 255.773 55.6236 256.331 58.7203C257.068 62.8163 254.7 65.9703 250.728 66.8743C246.105 67.0951 219.472 46.6244 236.605 40.7457Z"/><path transform="scale(2 2)" d="M149.878 40.7457C170.611 38.1723 147.205 63.9363 140.953 65.7114C135.345 66.2602 130.885 62.3547 133.255 56.3127C134.353 53.5149 147.225 41.5532 149.878 40.7457Z"/></svg>