<?xml version="1.0" encoding="utf-8" ?><svg xmlns="http://www.w3.org/2000/svg" xmlns:xlink="http://www.w3.org/1999/xlink" width="1024" height="1024" viewBox="0 0 1024 1024"><path transform="scale(2 2)" d="M244.324 83.1365C256.634 82.5683 271.884 83.0637 284.024 85.3065C286.486 85.7611 288.127 88.5644 289.136 90.641C290.993 89.7197 293.094 88.8158 295.139 88.4177C304.673 86.5612 339.147 102.775 347.864 108.816C351.304 111.201 351.992 114.388 352.706 118.256C355.09 118.032 359.167 117.565 361.17 119.015C372.333 127.092 382.283 137.22 391.049 147.831C394.324 151.796 393.903 154.547 393.252 159.255C401.782 159.084 402.947 163.612 406.699 170.113C412.558 180.265 417.478 190.677 421.057 201.848C423.974 210.955 425.675 213.069 420.11 221.595C422.275 222.575 424.225 223.705 425.695 225.627C430.843 232.362 434.192 280.299 421.691 289.345C422.267 290.918 422.949 292.536 423.361 294.158C425.438 302.354 408.255 348.93 394.574 352.549C395.632 363.05 370.388 385.012 363.13 391.142C359.137 394.515 356.542 393.701 351.787 393.138C350.908 401.657 348.956 401.537 342.083 405.645C330.806 412.386 318.913 417.092 306.551 421.42C298.72 424.162 297.291 423.661 289.941 420.054C285.033 429.48 274.479 427.92 264.953 429.13C253.107 428.952 241.652 429.156 229.925 426.84C225.913 426.048 224.15 422.99 221.839 420.054C211.497 430.274 171.527 408.624 163.597 401.888C161.135 399.797 160.726 397.427 160.459 394.374C151.343 394.125 150.094 391.92 143.319 386.274C135.45 379.716 117.315 363.771 118.407 352.549C116.567 351.912 114.519 351.349 112.818 350.401C104.902 345.987 93.6161 318.329 90.5571 307.342C88.4438 299.751 87.6099 296.619 91.7241 289.345C89.2046 287.986 86.751 286.526 85.245 283.987C80.7603 276.427 81.8642 238.157 84.5301 228.944C85.6259 225.157 88.4694 223.378 91.7241 221.595C89.8199 219.077 87.8437 216.186 87.8241 212.896C87.7688 203.605 104.184 168.415 111.013 161.82C113.583 159.339 116.462 159.201 119.824 159.255C119.364 156.649 118.895 153.809 119.537 151.196C121.184 144.492 143.333 123.48 149.564 119.799C152.714 117.938 156.083 118.279 159.483 119.124C159.466 115.719 160.178 112.197 162.846 109.849C169.382 104.093 204.721 87.1527 213.583 88.1828C216.708 88.546 219.919 90.3269 222.812 91.529C225.258 82.3935 236.642 84.5243 244.035 83.1908L244.324 83.1365ZM262.097 344.187C311.134 340.813 348.15 298.325 344.774 249.289C341.399 200.253 298.91 163.238 249.874 166.615C200.84 169.992 163.827 212.478 167.202 261.512C170.578 310.546 213.063 347.561 262.097 344.187ZM380.395 155.379C371.672 147.102 365.247 138.527 354.991 131.282C352.538 132.185 349.989 133.251 347.471 133.877C348.507 135.199 350.807 137.063 352.137 138.322C361.074 146.784 369.513 157.443 377.799 164.996C378.573 161.29 379.265 158.962 380.395 155.379Z"/><path fill="#BCDEF6" transform="scale(2 2)" d="M233.393 98.4964C243.672 96.9952 268.524 96.1914 278.728 98.4964C283.013 109.399 288.631 115.126 296.936 102.613C307.112 103.692 331.82 114.31 339.761 120.714C338.673 127.725 337.853 134.015 347.471 133.877C348.507 135.199 350.807 137.063 352.137 138.322C361.074 146.784 369.513 157.443 377.799 164.996C376.241 174.581 385.891 173.473 391.931 172.033C397.415 180.199 408.548 202.766 409.969 212.462L409.785 212.748C403.028 223.03 396.177 225.426 414.217 233.737C416.735 247.406 415.87 264.261 414.217 277.966C400.438 282.812 400.257 288.974 409.969 297.5C404.847 314.375 400.816 323.652 391.931 338.565C384.534 336.535 380.756 336.618 377.799 344.76C377.562 348.177 378.895 350.322 380.395 353.326C371.97 364.96 364.446 370.891 354.411 380.217C350.857 378.548 349.22 377.42 345.192 377.828C341.853 379.136 339.524 380.392 338.785 384.221C338.339 387.362 338.373 388.534 338.785 391.687C328.047 398.11 318.98 403.005 306.775 406.544C302.085 408.785 296.972 410.306 294.067 405.221C290.148 400.62 284.163 400.957 281.44 406.544C280.753 408.673 280.074 411.601 278.213 413.022C272.677 417.249 241.87 414.763 234.323 413.653C232.939 410.164 231.668 407.689 228.859 405.221C226.199 403.736 225.84 403.604 222.812 403.383C217.726 404.232 217.148 405.815 214.099 409.626C202.09 407.231 184.447 397.513 173.788 391.687C175.025 387.927 176.178 384.135 173.919 380.417C169.278 372.778 162.727 377.577 157.557 379.167C152.234 375.686 136.309 360.714 133.054 354.399C132.48 352.098 136.333 349.576 136.895 347.996C139.69 340.136 132.03 333.844 124.616 338.105C116.597 342.714 104.038 303.953 102.636 299.044C107.416 290.182 116.316 283.046 97.2137 276.988C97.5282 261.862 96.3839 250.756 98.0965 234.492C109.996 229.489 113.752 222.935 101.753 213.436C104.843 200.953 113.793 182.784 120.739 172.033C133.51 174.869 136.059 166.722 133.457 155.379C136.534 150.465 151.862 134.088 157.557 132.454C164.301 133.91 163.604 137.068 171.556 133.877C173.612 127.312 176.575 131.376 172.423 120.714C182.885 112.679 199.981 106.78 212.275 102.613C213.83 103.503 215.009 104.325 216.481 105.353C225.996 112.914 229.957 109.076 233.393 98.4964ZM262.097 344.187C311.134 340.813 348.15 298.325 344.774 249.289C341.399 200.253 298.91 163.238 249.874 166.615C200.84 169.992 163.827 212.478 167.202 261.512C170.578 310.546 213.063 347.561 262.097 344.187Z"/><path fill="#49ADE8" transform="scale(2 2)" d="M212.275 102.613C213.83 103.503 215.009 104.325 216.481 105.353C199.003 114.346 186.66 121.744 171.556 135.175C139.029 162.143 117.556 211.052 116.516 252.562C114.913 316.539 156.337 376.984 215.591 400.243C217.619 401.039 221.079 402.254 222.812 403.383C217.726 404.232 217.148 405.815 214.099 409.626C202.09 407.231 184.447 397.513 173.788 391.687C175.025 387.927 176.178 384.135 173.919 380.417C169.278 372.778 162.727 377.577 157.557 379.167C152.234 375.686 136.309 360.714 133.054 354.399C132.48 352.098 136.333 349.576 136.895 347.996C139.69 340.136 132.03 333.844 124.616 338.105C116.597 342.714 104.038 303.953 102.636 299.044C107.416 290.182 116.316 283.046 97.2137 276.988C97.5282 261.862 96.3839 250.756 98.0965 234.492C109.996 229.489 113.752 222.935 101.753 213.436C104.843 200.953 113.793 182.784 120.739 172.033C133.51 174.869 136.059 166.722 133.457 155.379C136.534 150.465 151.862 134.088 157.557 132.454C164.301 133.91 163.604 137.068 171.556 133.877C173.612 127.312 176.575 131.376 172.423 120.714C182.885 112.679 199.981 106.78 212.275 102.613Z"/><path fill="#49ADE8" transform="scale(2 2)" d="M228.859 405.221C234.005 405.421 238.479 406.856 243.505 407.431C256.087 408.87 268.925 408.4 281.44 406.544C280.753 408.673 280.074 411.601 278.213 413.022C272.677 417.249 241.87 414.763 234.323 413.653C232.939 410.164 231.668 407.689 228.859 405.221Z"/><path fill="#EBF1F4" transform="scale(2 2)" d="M377.799 344.76C377.562 348.177 378.895 350.322 380.395 353.326C371.97 364.96 364.446 370.891 354.411 380.217C350.857 378.548 349.22 377.42 345.192 377.828C345.497 376.551 368.218 355.525 371.936 351.278C373.6 349.378 375.979 346.328 377.799 344.76Z"/><path fill="#EBF1F4" transform="scale(2 2)" d="M297.878 403.383C300.105 401.781 311.36 398.103 314.965 396.306C319.231 394.179 335.046 382.545 338.785 384.221C338.339 387.362 338.373 388.534 338.785 391.687C328.047 398.11 318.98 403.005 306.775 406.544C302.085 408.785 296.972 410.306 294.067 405.221C294.698 404.627 296.975 403.755 297.878 403.383Z"/><path fill="white" transform="scale(2 2)" d="M297.878 403.383C296.43 405.505 296.073 404.01 299.981 404.5L299.813 404.815C295.769 412.554 304.972 405.21 306.766 406.357L306.775 406.544C302.085 408.785 296.972 410.306 294.067 405.221C294.698 404.627 296.975 403.755 297.878 403.383Z"/><path fill="#FEC302" transform="scale(2 2)" d="M146.469 221.595C138.412 214.548 151.691 196.165 156.383 189.241C180.694 153.366 219.381 134.386 262.126 136.1C267.721 136.325 274.896 135.911 275.912 142.989C279.801 143.927 288.422 146.322 291.927 147.757C292.983 145.238 295.367 143.527 298.092 143.333C300.817 143.139 303.419 144.495 304.822 146.839C306.225 149.183 306.19 152.117 304.731 154.427C309.019 156.618 314.113 158.976 317.812 161.937C323.962 154.662 330.434 161.604 335.67 166.27C384.97 210.203 389.69 286.555 345.663 335.95C325.645 358.409 295.763 374.021 265.527 375.674C256.493 376.168 225.807 378.274 225.74 365.517L225.74 364.683C220.816 362.862 216.258 361.298 211.252 359.689C207.006 368.469 193.349 363.528 198.203 352.549C195.281 351.417 191.278 348.424 188.681 346.51C187.605 345.835 187.371 345.655 186.471 344.76C179.363 349.966 175.11 344.157 170.459 339.375C146.114 314.347 134.379 279.378 137.18 244.727C137.598 239.555 138.418 237.072 143.74 235.444C143.898 233.327 145.894 224.015 146.469 221.595ZM262.097 344.187C311.134 340.813 348.15 298.325 344.774 249.289C341.399 200.253 298.91 163.238 249.874 166.615C200.84 169.992 163.827 212.478 167.202 261.512C170.578 310.546 213.063 347.561 262.097 344.187Z"/><path transform="scale(2 2)" d="M317.812 161.937C323.962 154.662 330.434 161.604 335.67 166.27C384.97 210.203 389.69 286.555 345.663 335.95C325.645 358.409 295.763 374.021 265.527 375.674C256.493 376.168 225.807 378.274 225.74 365.517L225.74 364.683C228.638 358.662 231.86 359.443 237.485 360.504C270.124 366.66 298.851 358.672 324.257 337.676C340.622 324.258 349.975 309.068 357.226 289.345C371.765 247.478 357.188 200.105 322.521 172.796C317.929 169.369 316.493 167.808 317.812 161.937Z"/><path transform="scale(2 2)" d="M146.469 221.595C138.412 214.548 151.691 196.165 156.383 189.241C180.694 153.366 219.381 134.386 262.126 136.1C267.721 136.325 274.896 135.911 275.912 142.989C274.393 153.057 266.111 149.493 258.677 149.428C232.581 148.762 207.611 157.515 187.702 174.555C176.217 184.409 167.325 195.549 160.545 209.153C157.244 215.777 156.044 225.871 146.469 221.595Z"/><path transform="scale(2 2)" d="M143.74 235.444C153.38 236.505 150.786 243.779 150.497 250.966C149.36 279.318 159.989 308.136 179.546 328.718C184.907 334.359 190.369 336.13 186.471 344.76C179.363 349.966 175.11 344.157 170.459 339.375C146.114 314.347 134.379 279.378 137.18 244.727C137.598 239.555 138.418 237.072 143.74 235.444Z"/><path fill="#EEA004" transform="scale(2 2)" d="M187.702 174.555C188.769 176.639 183.78 181.73 182.569 183.7C167.727 207.85 158.366 228.166 158.584 257.685C158.749 280.034 165.096 302.352 177.569 321.017C184.445 331.305 192.733 333.664 188.681 346.51C187.605 345.835 187.371 345.655 186.471 344.76C190.369 336.13 184.907 334.359 179.546 328.718C159.989 308.136 149.36 279.318 150.497 250.966C150.786 243.779 153.38 236.505 143.74 235.444C143.898 233.327 145.894 224.015 146.469 221.595C156.044 225.871 157.244 215.777 160.545 209.153C167.325 195.549 176.217 184.409 187.702 174.555Z"/><path fill="#FBE779" transform="scale(2 2)" d="M322.521 172.796C357.188 200.105 371.765 247.478 357.226 289.345C355.517 288.462 353.651 283.171 352.706 281.088C358.943 239.988 350.133 205.097 316.276 177.896C318.976 176.348 320.678 175.404 322.521 172.796Z"/><path fill="#F9D846" transform="scale(2 2)" d="M324.257 337.676L323.511 336.86C323.009 335.273 324.126 333.934 325.049 332.744C340.201 313.228 343.26 301.926 352.504 281.527L352.706 281.088C353.651 283.171 355.517 288.462 357.226 289.345C349.975 309.068 340.622 324.258 324.257 337.676Z"/><path transform="scale(2 2)" d="M198.203 352.549C205.974 345.914 213.495 352.368 211.252 359.689C207.006 368.469 193.349 363.528 198.203 352.549Z"/><path transform="scale(2 2)" d="M291.927 147.757C292.983 145.238 295.367 143.527 298.092 143.333C300.817 143.139 303.419 144.495 304.822 146.839C306.225 149.183 306.19 152.117 304.731 154.427C302.72 157.612 298.602 158.724 295.26 156.984C291.918 155.243 290.469 151.231 291.927 147.757Z"/><path transform="scale(2 2)" d="M249.874 166.615C298.91 163.238 341.399 200.253 344.774 249.289C348.15 298.325 311.134 340.813 262.097 344.187C213.063 347.561 170.578 310.546 167.202 261.512C163.827 212.478 200.84 169.992 249.874 166.615ZM271.531 211.875C277.411 203.659 287.434 196.797 292.973 189.381C266.631 175.412 244.521 177.367 218.93 189.381C224.69 196.862 235.524 204.354 240.899 211.875C248.746 207.866 263.007 208.822 271.531 211.875ZM254.885 246.865C249.975 247.462 246.485 251.935 247.1 256.843C247.715 261.751 252.201 265.224 257.107 264.591C261.987 263.961 265.438 259.504 264.826 254.621C264.215 249.739 259.77 246.271 254.885 246.865ZM240.899 299.811C233.769 307.282 225.67 314.162 218.93 321.966C242.646 333.772 269.396 334.843 292.973 321.966C285.629 314.916 277.335 307.263 270.527 299.811C262.332 303.577 249.273 302.676 240.899 299.811ZM181.428 248.749L211.252 248.749C212.682 239.65 221.937 224.272 229.608 219.302C222.677 212.337 214.421 204.479 207.884 197.313C193.701 206.268 181.807 232.09 181.428 248.749ZM181.428 262.499C182.566 277.037 188.527 291.448 197.662 302.843C200.614 306.525 205.502 310.824 207.884 314.172C213.211 307.676 222.534 298.656 228.859 292.806C221.18 284.128 211.853 275.212 211.252 262.499L181.428 262.499ZM304.181 197.313C297.419 204.309 288.842 212.22 282.567 219.302C289.243 223.904 301.788 240.456 300.306 248.749C304.695 249.009 308.504 248.801 312.875 248.77L330.832 248.749C327.632 226.132 321.063 212.899 304.181 197.313ZM330.832 262.499C328.158 262.67 323.755 262.524 320.967 262.517L300.306 262.499C299.599 274.131 291.547 285.812 282.567 292.806C288.251 299.33 297.832 308.446 304.181 314.172C318.902 298.595 328.572 284.52 330.832 262.499Z"/><path fill="#FEC302" transform="scale(2 2)" d="M240.899 211.875C248.746 207.866 263.007 208.822 271.531 211.875C269.048 218.997 276.355 224.644 282.567 219.302C289.243 223.904 301.788 240.456 300.306 248.749C288.675 248.828 290.708 263.037 300.306 262.499C299.599 274.131 291.547 285.812 282.567 292.806C275.723 287.108 267.204 291.508 270.527 299.811C262.332 303.577 249.273 302.676 240.899 299.811C242.366 291.035 235.049 286.001 228.859 292.806C221.18 284.128 211.853 275.212 211.252 262.499C219.655 261.447 220.796 250.46 211.252 248.749C212.682 239.65 221.937 224.272 229.608 219.302C235.324 224.788 242.906 219.338 240.899 211.875ZM257.107 264.591C261.987 263.961 265.438 259.504 264.826 254.621C264.215 249.739 259.77 246.271 254.885 246.865C249.975 247.462 246.485 251.935 247.1 256.843C247.715 261.751 252.201 265.224 257.107 264.591Z"/><path transform="scale(2 2)" d="M252.694 233.443C265.012 231.636 276.443 240.212 278.153 252.544C279.864 264.875 271.199 276.239 258.854 277.853C246.645 279.45 235.434 270.9 233.742 258.704C232.05 246.508 240.511 235.23 252.694 233.443ZM257.107 264.591C261.987 263.961 265.438 259.504 264.826 254.621C264.215 249.739 259.77 246.271 254.885 246.865C249.975 247.462 246.485 251.935 247.1 256.843C247.715 261.751 252.201 265.224 257.107 264.591Z"/></svg>