<?xml version="1.0" encoding="utf-8" ?><svg xmlns="http://www.w3.org/2000/svg" xmlns:xlink="http://www.w3.org/1999/xlink" width="512" height="512" viewBox="0 0 512 512"><path d="M171.54 141.605C147.09 100.805 208.432 66.5248 231.214 105.486L232.065 106.969C243.476 101.548 267.266 102.632 280.134 106.969C298.676 71.7323 360.336 90.1157 341.414 139.18C347.297 161.043 350.148 156.514 360.85 171.161C378.376 195.149 368.884 219.187 349.732 237.386C356.985 257.344 360.705 278.86 357.42 300.073L357.755 299.936C369.647 294.988 378.513 286.908 392.747 287.01C419.493 287.202 433.659 317.843 417.82 338.79C408.807 350.71 389.692 365.805 378.737 377.29C401.736 379.555 397.849 410.454 376.543 408.059C372.288 407.581 369.307 405.871 365.548 405.127C363.171 410.335 361.077 415.061 355.252 417.094C346.764 420.055 338.069 415.589 335.648 407.026L335.202 407.178C331.645 408.419 328.164 410.602 324.715 412.149C270.455 436.481 228.045 432.63 177.241 405.95C170.647 422.411 152.979 421.419 145.884 405.127C138.696 407.327 133.102 409.625 125.866 405.867C112.257 398.801 116.04 379.647 132.918 377.29C120.544 362.945 97.9972 347.591 90.5502 329.95C85.2983 317.509 89.9684 302.375 99.8636 293.628C116.102 279.309 141.014 290.708 155.742 301.55C155.722 299.185 155.868 298.515 156.865 296.263C158.545 294.234 159.162 294.292 161.773 293.649C167.676 295.546 166.944 298.913 167.663 304.248C169.748 319.707 180.107 353.322 192.175 364.445C192.73 362.959 193.418 362.1 194.442 360.95C180.598 329.666 174.126 302.073 178.261 267.168C178.705 263.418 179.913 251.787 180.88 248.587C178.309 247.252 173.892 244.976 171.54 243.373C170.311 248.822 170.227 256.446 163.683 257.802C154.647 254.402 159.223 244.735 161.773 237.386L161.515 237.017C159.24 233.802 156.096 230.771 153.587 227.617C138.419 208.548 136.579 182.866 155.899 165.85C168.018 155.176 165.132 156.448 171.54 141.605ZM158.767 215.335C164.134 225.497 178.941 236.92 189.857 240.319L190.246 240.439C189.674 239.328 184.856 235.393 183.624 234.222C176.15 227.122 171.076 219.304 167.743 209.568C164.005 211.281 161.861 212.574 158.767 215.335ZM202.155 145.255C214.885 144.508 224.604 133.591 223.874 120.86C223.145 108.129 212.241 98.3941 199.509 99.1063C186.752 99.82 176.994 110.749 177.726 123.505C178.457 136.262 189.4 146.004 202.155 145.255ZM314.42 144.812C327.015 143.038 335.782 131.382 333.992 118.789C332.201 106.196 320.534 97.444 307.943 99.2504C295.375 101.053 286.643 112.695 288.43 125.265C290.217 137.835 301.848 146.583 314.42 144.812ZM244.33 115.11C240.804 115.617 238.145 116.127 234.72 117.095C235.437 123.718 234.914 127.358 232.859 133.707C237.03 131.01 245.498 120.276 244.33 115.11ZM125.326 299.215C109.166 293.266 94.3016 312.429 101.15 326.27C105.366 334.791 127.646 357.075 135.45 363.475C134.944 361.999 131.637 358.008 130.545 356.213C119.778 338.884 98.464 313.647 125.326 299.215ZM385.519 299.215C379.051 301.295 360.64 310.816 354.69 314.641C353.833 318.196 352.994 321.79 352.073 325.325C354.386 326.05 387.523 305.537 387.423 300.814C386.935 299.984 386.341 299.73 385.519 299.215ZM187.56 153.222C185.265 152.172 182.724 150.98 180.88 149.239C177.371 154.521 177.088 159.271 173.18 164.546C163.675 177.376 148.98 179.963 153.796 203.872L153.973 204.725C156.853 202.849 161.38 200.018 164.656 198.987C164.695 192.92 166.744 185.271 170.895 180.688C181.321 169.177 183.241 168.946 187.56 153.222Z"/><path fill="#9BD1FB" d="M167.743 209.568C187.681 201.688 209.49 203.321 228.65 212.611C242.286 219.223 239.781 221.633 255.783 222.722C279.415 224.33 294.871 193.374 339.233 207.669C336.499 214.659 330.784 222.429 325.192 227.451C321.258 230.985 314.824 233.869 317.739 240.648C318.554 242.544 320.609 244.254 322.747 244.351C322.673 248.446 325.195 250.946 329.242 251.23L329.264 251.718C329.53 256.955 330.917 262.583 331.429 267.952C333.454 289.229 330.644 310.191 322.704 330.056C317.252 343.698 311.54 349.767 329.242 351.009C325.864 356.654 319.26 363.509 320.913 370.029C323.002 378.266 333.638 385.727 335.648 393.341C323.029 386.879 304.504 369.002 300.784 396.993C300.332 400.392 299.172 402.078 295.497 400.294C295.379 393.762 296.839 384.445 291.735 379.433C285.162 372.979 279.003 380.221 275.129 378.384C273.923 377.812 274.024 373.831 275.085 373.034C277.937 370.918 281.624 369.985 284.865 368.433C305.694 358.457 312.452 332.325 315.664 311.362C316.551 306.899 317.201 299.997 310.599 300.264C299.077 300.729 308.21 342.792 281.061 357.993C275.026 361.372 267.236 361.828 264.318 369.083C258.677 383.302 269.049 393.878 284.473 387.72C284.54 399.22 281.516 406.758 294.062 412.032C262.633 419.805 249.327 418.056 219.525 412.032C230.118 402.972 227.224 400.752 226.351 389.648C233.209 389.596 240.521 390.968 245.878 385.491C251.69 379.549 251.019 370.368 244.971 364.867C241.574 361.777 237.43 360.826 233.232 359.28C219.534 354.234 212.565 333.001 209.735 319.514C209.062 316.305 207.577 304.933 206.295 302.707C204.553 299.682 199.516 299.014 197.215 301.757C194.241 305.3 196.835 312.955 197.627 316.974C201.403 336.126 208.752 360.192 227.826 369.316C229.723 370.223 241.913 373.285 238.038 377.114C234.464 380.645 216.466 374.133 214.95 388.713C214.538 392.679 217.568 398.663 214.41 401.627C211.218 404.623 211.154 395.401 210.951 394.116C208.88 380.994 192.756 378.191 185.358 388.746L184.725 389.648C183.96 388.622 184.642 388.369 183.113 387.513L182.83 386.375C183.998 374.257 196.764 375.348 192.175 364.445C192.73 362.959 193.418 362.1 194.442 360.95C180.598 329.666 174.126 302.073 178.261 267.168C178.705 263.418 179.913 251.787 180.88 248.587C183.25 249.787 184.963 250.691 187.56 251.23C193.288 249.296 196.35 244.245 190.246 240.439C189.674 239.328 184.856 235.393 183.624 234.222C176.15 227.122 171.076 219.304 167.743 209.568Z"/><path d="M275.682 260.591C292.795 259.297 292.999 274.718 276.438 278.408C259.626 280.913 257.385 262.924 275.682 260.591Z"/><path fill="#0096FB" d="M329.242 251.23C332.312 248.95 337.044 245.696 340.564 244.351C350.75 275.739 349.14 304.739 336.402 335.627C334.532 340.158 332.005 346.994 329.242 351.009C311.54 349.767 317.252 343.698 322.704 330.056C330.644 310.191 333.454 289.229 331.429 267.952C330.917 262.583 329.53 256.955 329.264 251.718L329.242 251.23Z"/><path fill="#0096FB" d="M339.233 207.669C344.804 209.63 349.782 212.028 354.69 215.335C344.957 225.787 343.785 229.289 329.937 237.904C326.863 239.817 324.214 240.793 322.747 244.351C320.609 244.254 318.554 242.544 317.739 240.648C314.824 233.869 321.258 230.985 325.192 227.451C330.784 222.429 336.499 214.659 339.233 207.669Z"/><path fill="#BCDEF6" d="M182.83 386.375L183.113 387.513C184.642 388.369 183.96 388.622 184.725 389.648C183.456 391.192 183.055 392.451 182.3 394.285C182.395 391.057 181.982 389.591 182.83 386.375Z"/><path fill="#FED009" d="M244.33 115.11C253.787 113.161 268.12 114.422 277.244 117.095C274.613 140.543 296.279 160.42 319.544 154.556C325.126 153.14 327.978 151.452 332.804 148.195C336.546 162.717 341.385 166.143 350.481 175.674C358.717 184.305 358.667 193.839 358.427 204.725C352.558 201.535 347.007 198.607 340.564 196.675C318.555 190.937 296.491 193.468 276.36 204.033C253.374 216.098 255.559 213.924 232.723 202.538C212.328 192.369 186.004 190.211 164.656 198.987C164.695 192.92 166.744 185.271 170.895 180.688C181.321 169.177 183.241 168.946 187.56 153.222C206.485 160.288 224.746 151.977 232.859 133.707C237.03 131.01 245.498 120.276 244.33 115.11Z"/><path fill="#FEC302" d="M319.544 154.556C325.126 153.14 327.978 151.452 332.804 148.195C336.546 162.717 341.385 166.143 350.481 175.674C358.717 184.305 358.667 193.839 358.427 204.725C352.558 201.535 347.007 198.607 340.564 196.675C344.01 192.267 331.673 172.34 328.571 168.77C321.816 160.994 323.547 161.62 319.544 154.556Z"/><path d="M265.662 162.333C283.286 160.544 287.276 178.278 271.293 180.971C252.683 183.645 248.643 164.82 265.662 162.333Z"/><path d="M192.175 169.1C204.851 168.366 203.715 184.946 187.56 186.95C173.719 187.444 176.271 170.664 192.175 169.1Z"/><path fill="#FEC302" d="M385.519 299.215C407.385 293.287 422.15 317.512 407.152 334.139C403.974 337.662 400.121 341.024 396.659 344.299L375.095 365.06C371.953 368.043 363.694 374.438 362.604 378.256C362.756 383.846 366.319 384.749 370.876 386.375C369.811 388.716 367.989 391.285 366.444 393.341C352.984 392.856 356.824 404.611 351.436 407.244C347.992 408.927 346.192 402.386 345.499 400.294C347.263 396.339 347.695 395.541 347.038 391.2C345.61 386.076 343.152 381.867 339.233 378.256C341.382 375.996 344.502 373.332 346.871 371.102L364.846 354.462C367.491 352.053 375.306 345.757 376.246 342.475C377.439 338.312 371.599 333.983 367.406 337.206C364.602 339.362 362.027 341.916 359.322 344.423L341.245 360.983C339.593 362.485 333.847 368.617 331.876 368.33C331.645 366.88 336.552 360.392 337.566 358.644C343.82 347.864 348.332 337.132 352.073 325.325C354.386 326.05 387.523 305.537 387.423 300.814C386.935 299.984 386.341 299.73 385.519 299.215Z"/><path fill="#FED009" d="M347.038 391.2C349.04 388.811 349.869 386.431 351.492 383.99C352.17 382.97 360.906 377.129 362.026 377.355L362.604 378.256C362.756 383.846 366.319 384.749 370.876 386.375C369.811 388.716 367.989 391.285 366.444 393.341C352.984 392.856 356.824 404.611 351.436 407.244C347.992 408.927 346.192 402.386 345.499 400.294C347.263 396.339 347.695 395.541 347.038 391.2Z"/><path fill="#FED009" d="M125.326 299.215C136.618 301.081 148.284 310.895 158.767 315.591C159.297 329.649 171.053 354.208 179.273 366.853C171.141 360.76 163.291 354.449 155.603 347.803C152.658 345.258 144.941 336.132 140.797 336.714C137.901 337.121 135.223 340.263 135.842 343.246C137.129 349.444 165.649 371.019 174.49 377.29C173.459 379.804 171.544 388.023 171.235 388.578C170.606 389.71 167.655 389.763 166.611 392.502C164.866 397.08 170.098 403.595 163.479 406.194C155.714 409.243 157.161 394.852 149.239 393.683C143.317 392.809 130.987 400.949 128.861 393.369C126.703 385.677 146.892 388.06 150.027 381.112C152.71 375.167 138.857 367.917 135.45 363.475C134.944 361.999 131.637 358.008 130.545 356.213C119.778 338.884 98.464 313.647 125.326 299.215Z"/><path d="M190.387 107.945C195.093 106.806 199.828 109.713 200.943 114.424C202.058 119.136 199.128 123.856 194.411 124.948C189.726 126.032 185.046 123.127 183.939 118.448C182.832 113.769 185.713 109.075 190.387 107.945Z"/><path d="M318.879 107.867C321.936 107.514 324.948 108.832 326.762 111.318C328.577 113.804 328.914 117.074 327.646 119.879C326.377 122.683 323.698 124.588 320.633 124.866C315.973 125.289 311.84 121.887 311.36 117.233C310.88 112.579 314.231 108.405 318.879 107.867Z"/><path fill="#FB9F00" d="M370.876 386.375C374.355 387.548 390.753 390.626 380.251 396.811C377.972 398.153 368.945 394.321 366.444 393.341C367.989 391.285 369.811 388.716 370.876 386.375Z"/><path fill="#FED009" d="M196.773 393.341C200.958 393.579 200.595 403.141 201.601 407.026C200.008 406.51 198.332 405.773 196.773 405.127C194.7 404.473 192.298 403.467 190.246 402.667C192.602 398.682 192.203 395.229 196.773 393.341Z"/><path fill="#FED009" d="M313.323 392.347C314.97 393.221 321.993 398.881 323.833 400.294C321.657 401.035 319.915 401.767 317.816 402.667C315.783 403.516 311.759 404.672 309.565 405.127C311.457 400.187 311.96 397.308 313.323 392.347Z"/><path d="M159.545 267.259C163.668 267.138 164.71 267.565 166.749 271.17C166.787 275.779 167.674 279.695 162.674 281.862C159.985 282.622 159.172 282.23 156.865 280.932C154.217 276.217 154.693 270.071 159.545 267.259Z"/></svg>