<?xml version="1.0" encoding="utf-8" ?><svg xmlns="http://www.w3.org/2000/svg" xmlns:xlink="http://www.w3.org/1999/xlink" width="1024" height="1024" viewBox="0 0 1024 1024"><path fill="#BCDEF6" transform="scale(2 2)" d="M164.215 93.0024C161.043 83.0991 177.901 80.6801 185.044 78.7891C236.045 65.2861 304.383 64.8358 352.907 89.2705C359.945 92.8144 362.561 93.4448 369.403 96.343C397.89 108.39 401.973 147.517 376.96 165.426C373.872 167.638 366.559 169.316 366.313 172.999C365.792 180.774 366.146 189.58 366.14 197.416C415.424 194.744 431.318 252.142 413.602 253.622C413.129 254.7 413.937 269.479 413.602 272.236C417.496 272.973 420.259 274.637 420.282 279.074L420.257 386.049C420.253 400.482 420.579 413.167 402.743 417.754C402.858 431.674 400.474 440.67 384.268 440.72L367.49 440.713C347.22 440.669 346.551 436.32 340.207 418.479C333.526 418.634 326.375 418.479 319.664 418.47L172.428 418.479C159.107 443.252 166.476 439.938 137.834 441.382C127.753 441.891 114.255 442.875 111.061 430.495C110.055 426.6 110.357 422.087 109.232 418.479C100.97 414.372 92.5262 408.871 92.2717 398.32C91.9357 384.387 92.12 370.389 92.1817 356.449C92.2074 350.662 95.9115 349.043 101.12 350.588L101.255 350.352C98.9127 348.958 99.777 340.893 99.6324 338.432C99.4627 335.545 101.445 336.384 101.12 334.393C89.5131 338.003 92.0924 321.262 92.1013 314.662L92.1126 259.044C92.0915 252.031 91.6604 244.288 92.8684 237.424C96.4365 217.152 113.615 200.686 134.022 198.008C137.555 197.545 141.661 197.686 145.329 197.416L145.329 172.251C140.264 169.581 135.59 167.176 131.327 163.195C98.9109 132.984 134.568 85.8107 148.063 99.4624C151.676 97.3628 160.181 93.6502 164.215 93.0024Z"/><path fill="#FEC302" transform="scale(2 2)" d="M164.215 93.0024C161.043 83.0991 177.901 80.6801 185.044 78.7891C236.045 65.2861 304.383 64.8358 352.907 89.2705C359.945 92.8144 362.561 93.4448 369.403 96.343C397.89 108.39 401.973 147.517 376.96 165.426C373.872 167.638 366.559 169.316 366.313 172.999C365.792 180.774 366.146 189.58 366.14 197.416C415.424 194.744 431.318 252.142 413.602 253.622C406.757 252.702 407.405 247.385 407.091 242.248C406.564 233.646 402.789 226.857 396.891 220.752C384.881 208.317 371.166 209.996 355.367 210.029L157.768 210.033C141.997 210.019 127.561 207.709 115.281 220.121C101.981 233.565 104.425 248.226 104.425 265.542L104.447 313.356C104.45 318.54 104.777 325.786 104.018 330.883C103.833 332.127 101.51 333.82 101.12 334.393C89.5131 338.003 92.0924 321.262 92.1013 314.662L92.1126 259.044C92.0915 252.031 91.6604 244.288 92.8684 237.424C96.4365 217.152 113.615 200.686 134.022 198.008C137.555 197.545 141.661 197.686 145.329 197.416L145.329 172.251C140.264 169.581 135.59 167.176 131.327 163.195C98.9109 132.984 134.568 85.8107 148.063 99.4624C151.676 97.3628 160.181 93.6502 164.215 93.0024Z"/><path transform="scale(2 2)" d="M164.215 93.0024C161.043 83.0991 177.901 80.6801 185.044 78.7891C236.045 65.2861 304.383 64.8358 352.907 89.2705C359.945 92.8144 362.561 93.4448 369.403 96.343C397.89 108.39 401.973 147.517 376.96 165.426C373.872 167.638 366.559 169.316 366.313 172.999C365.792 180.774 366.146 189.58 366.14 197.416C415.424 194.744 431.318 252.142 413.602 253.622C406.757 252.702 407.405 247.385 407.091 242.248C406.564 233.646 402.789 226.857 396.891 220.752C384.881 208.317 371.166 209.996 355.367 210.029L157.768 210.033C141.997 210.019 127.561 207.709 115.281 220.121C101.981 233.565 104.425 248.226 104.425 265.542L104.447 313.356C104.45 318.54 104.777 325.786 104.018 330.883C103.833 332.127 101.51 333.82 101.12 334.393C89.5131 338.003 92.0924 321.262 92.1013 314.662L92.1126 259.044C92.0915 252.031 91.6604 244.288 92.8684 237.424C96.4365 217.152 113.615 200.686 134.022 198.008C137.555 197.545 141.661 197.686 145.329 197.416L145.329 172.251C140.264 169.581 135.59 167.176 131.327 163.195C98.9109 132.984 134.568 85.8107 148.063 99.4624C150.436 106.339 144.801 107.795 140.278 111.386C124.717 123.74 128.032 148.723 144.981 157.958C149.575 160.461 155.083 162.132 156.717 167.762C157.965 172.062 157.308 191.364 157.302 197.416L303.809 197.416C303.95 197.333 335.574 197.416 338.303 197.416C338.302 193.307 337.811 168.113 338.569 166.402C339.501 164.296 346.741 160.968 349.001 159.104C363.73 146.957 364.787 121.853 350.627 108.88C339.408 98.6008 309.859 90.4871 295.605 87.0528C292.808 86.3789 284.35 86.4854 283.437 83.2271L283.138 83.2423C279.847 83.3852 276.352 82.9709 273.022 82.7598C239.735 80.6506 205.743 83.91 174.288 95.4058C169.596 97.1207 167.46 96.6045 164.215 93.0024Z"/><path fill="#FEA602" transform="scale(2 2)" d="M283.437 83.2271C304.202 86.6957 319.437 87.6839 339.972 96.7649C349.777 101.095 349.739 104.33 361.065 106.705C384.01 111.515 388.501 147.751 366.587 156.75C353.626 162.072 353.55 168.956 353.565 181.115L353.592 197.416L320.318 197.421C315.271 197.421 308.754 197.621 303.809 197.416C303.95 197.333 335.574 197.416 338.303 197.416C338.302 193.307 337.811 168.113 338.569 166.402C339.501 164.296 346.741 160.968 349.001 159.104C363.73 146.957 364.787 121.853 350.627 108.88C339.408 98.6008 309.859 90.4871 295.605 87.0528C292.808 86.3789 284.35 86.4854 283.437 83.2271Z"/><path transform="scale(2 2)" d="M261.944 103.241C282.161 101.451 313.225 113.108 331.017 124.144C335.59 126.981 334.479 133.6 328.288 135.541C324.613 135.614 321.465 132.891 318.424 131.158C300.951 121.2 281.271 116.369 261.28 115.305C255.133 114.978 253.575 104.282 261.944 103.241Z"/><path transform="scale(2 2)" d="M215.547 107.295C223.416 106.22 225.79 115.678 219.755 118.668C215.489 120.782 209.012 122.561 204.34 124.067C198.93 125.201 195.411 118.585 197.667 114.842C199.966 111.027 210.996 108.635 215.547 107.295Z"/><path transform="scale(2 2)" d="M181.058 125.919C184.432 125.193 187.762 127.315 188.529 130.679C189.295 134.044 187.213 137.4 183.858 138.207C181.652 138.737 179.33 138.041 177.78 136.383C176.231 134.725 175.692 132.361 176.371 130.196C177.049 128.03 178.84 126.396 181.058 125.919Z"/><path transform="scale(2 2)" d="M413.602 272.236C417.496 272.973 420.259 274.637 420.282 279.074L420.257 386.049C420.253 400.482 420.579 413.167 402.743 417.754C402.858 431.674 400.474 440.67 384.268 440.72L367.49 440.713C347.22 440.669 346.551 436.32 340.207 418.479C333.526 418.634 326.375 418.479 319.664 418.47L172.428 418.479C159.107 443.252 166.476 439.938 137.834 441.382C127.753 441.891 114.255 442.875 111.061 430.495C110.055 426.6 110.357 422.087 109.232 418.479C100.97 414.372 92.5262 408.871 92.2717 398.32C91.9357 384.387 92.12 370.389 92.1817 356.449C92.2074 350.662 95.9115 349.043 101.12 350.588C106.109 354.745 104.454 361.103 104.445 367.481L104.409 388.348C104.362 410.984 112.606 406.213 130.985 406.216L370.364 406.218C372.902 406.197 376.273 406.041 378.744 406.22C389.211 405.746 408.485 410.08 407.739 393.768C407.443 387.283 407.726 379.672 407.718 373.111L407.715 287.285C407.672 280.979 405.594 273.8 413.602 272.236Z"/><path fill="#508AAB" transform="scale(2 2)" d="M121.262 418.479L158.36 418.479C157.032 421.071 155.926 423.73 154.774 426.403L153.49 429.141C149.031 429.146 126.141 429.669 123.473 428.376C122.357 426.849 121.659 420.815 121.262 418.479Z"/><path fill="#508AAB" transform="scale(2 2)" d="M353.592 418.479L390.28 418.479C390.297 421.282 390.615 424.825 389.496 427.325C387.644 428.776 380.339 428.262 377.673 428.259L357.385 428.234C355.975 425.255 354.682 421.583 353.592 418.479Z"/><path fill="#5CBBFB" transform="scale(2 2)" d="M355.367 210.029C371.166 209.996 384.881 208.317 396.891 220.752C402.789 226.857 406.564 233.646 407.091 242.248C407.405 247.385 406.757 252.702 413.602 253.622C413.129 254.7 413.937 269.479 413.602 272.236C405.594 273.8 407.672 280.979 407.715 287.285L407.718 373.111C407.726 379.672 407.443 387.283 407.739 393.768C408.485 410.08 389.211 405.746 378.744 406.22C385.82 398.365 384.45 392.642 384.433 382.775L384.441 261.411C384.442 253.699 384.823 245.027 383.938 237.576C382.355 224.244 368.624 210.999 355.367 210.029Z"/><path transform="scale(2 2)" d="M143.644 368.231L273.097 368.224C281.468 368.287 283.078 378.863 275.258 380.492C273.685 380.682 265.391 380.498 263.305 380.497L146.812 380.481C134.321 379.087 136.93 369.982 143.644 368.231Z"/><path transform="scale(2 2)" d="M153.49 229.338C175.706 226.841 187.33 256.194 170.463 270.344C163.816 275.921 153.929 270.5 163.493 259.462C175.205 243.47 146.289 232.241 144.59 252.415C144.393 254.755 144.527 257.482 144.517 259.875L144.516 301.123C144.627 317.157 132.747 312.982 132.315 306.264C132.118 303.217 132.194 300.397 132.202 297.459L132.206 261.112C132.184 245.496 133.651 231.665 153.49 229.338Z"/><path transform="scale(2 2)" d="M331.683 368.231L356.848 368.226C360.304 368.22 364.592 367.947 367.938 368.214C374.971 368.775 375.676 380.081 367.313 380.492L341.4 380.496C338.59 380.501 332.519 380.884 330.073 380.476C323.479 379.377 322.745 368.184 331.683 368.231Z"/><path transform="scale(2 2)" d="M136.534 327.309C146.734 326.369 147.289 341.166 140.117 344.409C130.17 346.621 129.175 330.36 136.534 327.309Z"/><path transform="scale(2 2)" d="M302.272 368.388C304.507 367.797 306.888 368.454 308.503 370.108C310.118 371.762 310.719 374.157 310.075 376.377C309.431 378.598 307.642 380.3 305.392 380.833C301.976 381.641 298.545 379.555 297.691 376.15C296.838 372.745 298.879 369.286 302.272 368.388Z"/></svg>