<?xml version="1.0" encoding="utf-8" ?><svg xmlns="http://www.w3.org/2000/svg" xmlns:xlink="http://www.w3.org/1999/xlink" width="1024" height="1024" viewBox="0 0 1024 1024"><path fill="#BCDEF6" transform="scale(2 2)" d="M284.336 85.5906C287.492 76.1726 294.758 68.6055 303.567 64.115C337.198 46.9718 379.636 82.9082 393.341 111.9C398.696 123.017 401.08 134.952 402.118 147.172C402.652 153.446 404.533 158.956 396.645 160.544C397.469 165.593 397.972 173.121 397.797 178.259C399.365 178.68 403.326 180.414 403.796 181.962C405.913 188.938 407.662 218.622 405.362 225.083C401.542 235.815 394.178 240.546 383.827 243.705C380.797 258.374 382.855 281.901 376.094 294.932C363.317 319.555 365.264 375.308 365.573 403.008C365.657 411.827 367.115 422.034 366.069 430.526C363.193 453.888 325.962 459.08 330.088 442.252C326.048 442.48 313.756 440.256 309.753 439.17C307.872 441.85 307.464 442.299 304.473 443.303C279.415 438.277 262.209 434.282 235.357 435.301C228.65 435.555 224.529 438.333 220.826 431.308C216.814 432.03 207.032 432.963 203.254 432.497C204.629 441.931 190.053 444.9 186.718 437.632C179.757 438.983 170.806 439.146 164.656 440.724C161.576 437.65 160.356 438.063 156.246 438.502C164.986 420.403 160.876 331.063 158.347 310.771C157.38 303.012 150.693 300.616 148.678 293.663C141.203 258.681 137.697 222.529 138.188 186.762C139.756 170.531 151.108 160.834 167.25 160.544C167.542 153.582 167.703 150.35 162.684 144.889C145.619 126.493 132.039 149.997 124.252 142.639C114.672 133.589 142.873 116.447 167.25 132.072C168.307 120.113 170.754 112.532 180.159 104.343C192.573 93.5337 213.697 93.6963 225.265 105.608C232.957 85.0535 249.498 70.3011 272.829 79.0943C277.052 80.6859 280.618 83.1828 284.336 85.5906ZM225.265 133.255L225.26 180.655C225.427 185.089 226.072 190.541 232 189.809C239.042 188.939 237.754 180.483 237.708 175.425L237.668 161.975C253.97 159.342 248.428 141.622 251.642 130.788C256.2 115.424 270.455 111.569 284.336 115.711C284.26 113.95 284.189 112.69 284.336 110.932L284.357 111.164C284.685 115.234 284.326 123.946 284.329 128.462L284.345 167.028C284.346 174.654 281.424 188.636 291.131 188.753C300.563 188.867 295.413 169.488 296.817 168.138C296.985 170.736 298.141 174.264 300.208 170.236C305.858 175.508 331.57 185.002 333.901 173.084C338.004 173.128 346.016 171.126 350.241 170.236C350.72 177.22 350.228 186.274 350.238 193.517C350.279 223.164 350.343 253.843 341.648 282.466C339.954 288.042 337.326 293.673 335.787 299.26C328.561 325.498 327.701 369.963 328.262 397.776C328.599 414.469 331.288 427.898 309.753 434.316C310.214 436.447 310.443 437.049 309.753 439.17C313.756 440.256 326.048 442.48 330.088 442.252C325.962 459.08 363.193 453.888 366.069 430.526C367.115 422.034 365.657 411.827 365.573 403.008C365.264 375.308 363.317 319.555 376.094 294.932C382.855 281.901 380.797 258.374 383.827 243.705C394.178 240.546 401.542 235.815 405.362 225.083C407.662 218.622 405.913 188.938 403.796 181.962C403.326 180.414 399.365 178.68 397.797 178.259C397.972 173.121 397.469 165.593 396.645 160.544C404.533 158.956 402.652 153.446 402.118 147.172C401.08 134.952 398.696 123.017 393.341 111.9C379.636 82.9082 337.198 46.9718 303.567 64.115C294.758 68.6055 287.492 76.1726 284.336 85.5906C280.618 83.1828 277.052 80.6859 272.829 79.0943C249.498 70.3011 232.957 85.0535 225.265 105.608C213.697 93.6963 192.573 93.5337 180.159 104.343C170.754 112.532 168.307 120.113 167.25 132.072C142.873 116.447 114.672 133.589 124.252 142.639C132.039 149.997 145.619 126.493 162.684 144.889C167.703 150.35 167.542 153.582 167.25 160.544L167.23 182.374C167.23 186.366 166.92 191.075 167.709 194.863C168.564 198.966 175.991 200.056 178.028 196.88C181.438 191.563 179.038 181.761 179.75 175.436C179.955 177.256 179.795 180.283 179.75 182.197C203.648 181.251 179.467 149.507 204.455 134.465C211.398 130.285 217.855 131.349 225.265 133.255Z"/><path transform="scale(2 2)" d="M284.336 85.5906C287.492 76.1726 294.758 68.6055 303.567 64.115C337.198 46.9718 379.636 82.9082 393.341 111.9C398.696 123.017 401.08 134.952 402.118 147.172C402.652 153.446 404.533 158.956 396.645 160.544C397.469 165.593 397.972 173.121 397.797 178.259C399.365 178.68 403.326 180.414 403.796 181.962C405.913 188.938 407.662 218.622 405.362 225.083C401.542 235.815 394.178 240.546 383.827 243.705C380.797 258.374 382.855 281.901 376.094 294.932C363.317 319.555 365.264 375.308 365.573 403.008C365.657 411.827 367.115 422.034 366.069 430.526C363.193 453.888 325.962 459.08 330.088 442.252C326.048 442.48 313.756 440.256 309.753 439.17C310.443 437.049 310.214 436.447 309.753 434.316C331.288 427.898 328.599 414.469 328.262 397.776C327.701 369.963 328.561 325.498 335.787 299.26C337.326 293.673 339.954 288.042 341.648 282.466C350.343 253.843 350.279 223.164 350.238 193.517C350.228 186.274 350.72 177.22 350.241 170.236C346.016 171.126 338.004 173.128 333.901 173.084C331.57 185.002 305.858 175.508 300.208 170.236C299.108 169.494 298.095 169.034 296.817 168.138C295.413 169.488 300.563 188.867 291.131 188.753C281.424 188.636 284.346 174.654 284.345 167.028L284.329 128.462C284.326 123.946 284.685 115.234 284.357 111.164L284.336 110.932C283.262 87.0225 243.591 79.5771 238.118 108.043C235.945 119.341 237.417 149.846 237.668 161.975L237.708 175.425C237.754 180.483 239.042 188.939 232 189.809C226.072 190.541 225.427 185.089 225.26 180.655L225.265 133.255C225.184 103.725 179.962 97.2412 179.767 135.462C179.709 147.027 178.745 164.54 179.75 175.436C179.038 181.761 181.438 191.563 178.028 196.88C175.991 200.056 168.564 198.966 167.709 194.863C166.92 191.075 167.23 186.366 167.23 182.374L167.25 160.544C167.542 153.582 167.703 150.35 162.684 144.889C145.619 126.493 132.039 149.997 124.252 142.639C114.672 133.589 142.873 116.447 167.25 132.072C168.307 120.113 170.754 112.532 180.159 104.343C192.573 93.5337 213.697 93.6963 225.265 105.608C232.957 85.0535 249.498 70.3011 272.829 79.0943C277.052 80.6859 280.618 83.1828 284.336 85.5906ZM347.227 122.024C336.5 101.016 306.062 102.251 298.309 125.181C294.366 136.841 297.585 155.988 309.753 161.975C308.804 149.32 305.666 137.045 315.839 126.916C330.478 112.34 342.782 123.055 347.227 122.024ZM296.817 105.608C299.03 102.592 300.907 102.022 303.496 99.653C310.18 83.8082 332.712 79.4145 348.071 84.165C350.384 84.8803 355.671 87.27 357.706 87.4726C336.298 68.883 297.53 63.947 294.04 98.1351C295.173 100.524 296.098 103.063 296.817 105.608Z"/><path fill="#13A3EC" transform="scale(2 2)" d="M350.241 170.236L351.931 170.236C352.682 175.48 352.759 180.826 352.965 186.125L353.731 208.033C354.213 223.797 353.597 236.287 371.307 242.439C368.67 255.676 368.308 269.607 366.417 282.946C365.698 288.021 362.546 292.861 360.607 297.504C352.16 318.406 351.769 382.53 352.706 404.438L353.32 417.256C354.556 448.3 339.117 433.383 330.088 442.252C326.048 442.48 313.756 440.256 309.753 439.17C310.443 437.049 310.214 436.447 309.753 434.316C331.288 427.898 328.599 414.469 328.262 397.776C327.701 369.963 328.561 325.498 335.787 299.26C337.326 293.673 339.954 288.042 341.648 282.466C350.343 253.843 350.279 223.164 350.238 193.517C350.228 186.274 350.72 177.22 350.241 170.236Z"/><path fill="#FEC302" transform="scale(2 2)" d="M303.496 99.653C310.18 83.8082 332.712 79.4145 348.071 84.165C350.384 84.8803 355.671 87.27 357.706 87.4726C379.179 102.514 388.281 127.535 390.124 152.806C390.46 157.36 391.72 159.988 396.645 160.544C397.469 165.593 397.972 173.121 397.797 178.259C395.101 179.806 393.848 180.199 392.767 183.092C390.75 193.078 396.38 210.754 393.425 221.33C389.638 234.882 366.332 236.041 366.448 216.971C366.051 201.701 365.784 130.171 359.761 118.563C349.32 95.8208 325.066 89.2517 303.496 99.653Z"/><path fill="#FEC302" transform="scale(2 2)" d="M309.753 161.975C308.804 149.32 305.666 137.045 315.839 126.916C330.478 112.34 342.782 123.055 347.227 122.024C352.229 131.068 352.722 159.257 351.931 170.236L350.241 170.236C346.016 171.126 338.004 173.128 333.901 173.084C332.329 162.593 319.668 168.061 309.753 161.975Z"/><path transform="scale(2 2)" d="M220.826 431.308C220.13 425.285 223.217 423.459 228.687 423.019C240.486 422.071 304.45 422.95 309.753 434.316C310.214 436.447 310.443 437.049 309.753 439.17C307.872 441.85 307.464 442.299 304.473 443.303C279.415 438.277 262.209 434.282 235.357 435.301C228.65 435.555 224.529 438.333 220.826 431.308Z"/><path transform="scale(2 2)" d="M186.718 437.632C184.445 427.966 198.577 424.416 203.254 432.497C204.629 441.931 190.053 444.9 186.718 437.632Z"/><path transform="scale(2 2)" d="M227.373 204.28C234.054 203.918 244.851 204.564 250.865 207.55C254.958 209.584 253.365 218.377 247.936 218.678C244.422 218.873 241.403 217.651 237.961 217.328C211.246 214.819 189.215 227.134 172.608 247.102C169.15 251.373 164.939 261.599 158.28 256.63C151.198 251.345 159.855 242.467 163.616 237.878C180.132 217.723 201.928 206.454 227.373 204.28Z"/><path transform="scale(2 2)" d="M114.48 156.273C126.825 155.482 119.656 170.679 118.776 178.343C115.963 202.847 117.758 273.655 128.575 297.351C129.251 298.832 132.333 303.934 132.581 305.416C133.712 312.16 138.154 333.398 129.694 335.789C118.187 337.892 122.315 318.284 120.571 310.408C119.808 306.963 116.109 302.191 115.285 298.485C104.853 267.5 100.574 185.841 110.381 159.381C111.137 157.394 112.57 156.872 114.48 156.273Z"/><path transform="scale(2 2)" d="M164.656 440.724C171.197 451.528 153.109 451.718 147.186 451.395C126.334 450.261 124.517 432.827 125.185 417.143C126.008 397.814 125.967 378.5 124.739 359.191C124.449 354.275 137.194 344.898 137.913 366.338C138.482 383.269 138.459 400.304 138.095 417.24C137.695 435.821 136.797 438.098 156.246 438.502C160.356 438.063 161.576 437.65 164.656 440.724Z"/></svg>