<?xml version="1.0" encoding="utf-8" ?><svg xmlns="http://www.w3.org/2000/svg" xmlns:xlink="http://www.w3.org/1999/xlink" width="1024" height="1024" viewBox="0 0 1024 1024"><path fill="#FEC302" transform="scale(2 2)" d="M268.651 80.99C269.051 77.112 272.45 74.2471 276.34 74.509C280.23 74.7709 283.214 78.0656 283.09 81.9623C286.464 81.94 296.064 82.1868 298.917 81.7828C301.59 92.109 313.827 88.7487 323.428 88.74L356.995 88.7216C358.774 88.7199 366.064 88.5547 367.414 88.7343C371.655 95.7422 370.68 97.8393 370.665 105.75L370.642 348.496C374.386 348.437 376.603 348.957 380.262 349.614C380.463 345.226 380.268 339.905 380.262 335.395L380.248 307.95C380.249 303.072 380.116 297.878 380.367 293.021C380.661 287.307 388.653 285.516 392.114 289.721C394.659 292.625 393.864 299.155 393.856 303.034L393.828 342.764C393.843 348.836 395.998 361.549 386.599 361.385C370.165 374.287 366.738 399.636 379.665 416.117C385.208 423.183 390.661 421.452 393.831 427.278C393.941 435.108 390.508 436.2 383.565 436.249L355.169 436.247C347.047 436.242 335.007 439.091 334.051 428.759C331.626 428.908 319.009 429.141 317.302 428.771C317.551 431.338 316.324 433.825 314.134 435.188C311.944 436.551 309.171 436.554 306.978 435.197C304.785 433.839 303.551 431.356 303.794 428.788C298.223 428.732 291.97 429.01 286.52 428.759C286.564 433.191 283.498 436.308 279.048 436.346L176.426 436.255C169.644 436.263 160.662 436.636 154.134 435.668C135.665 432.929 119.251 415.987 118.341 397.138C118.143 393.024 118.236 388.314 118.236 384.114L118.223 152.338C118.254 147.081 120.528 145.19 125.72 144.988C125.499 140.466 125.779 134.69 125.72 129.98C107.693 129.791 120.798 81.6843 155.244 75.5352C160.927 74.5207 168.125 74.8502 173.944 74.8496L230.123 74.85C238.4 74.8343 251.493 71.7886 252.963 81.7828C255.174 81.7575 267.122 81.7998 268.488 81.5706L268.651 80.99ZM354.058 422.363C356.783 422.35 364.975 422.092 367.414 422.363C366.481 420.295 365.1 418.279 364.028 416.245C354.404 397.994 357.715 379.215 367.414 362.196C365.175 361.88 357.369 361.932 355.093 362.196C344.396 384.471 344.571 398.859 354.058 422.363Z"/><path transform="scale(2 2)" d="M125.72 144.988C135.4 147.62 131.723 166.696 131.714 175.873L131.71 359.018C144.156 349.406 150.539 348.345 166.034 348.496L302.562 348.5C325.044 348.5 348.217 348.203 370.642 348.496C374.386 348.437 376.603 348.957 380.262 349.614C380.463 345.226 380.268 339.905 380.262 335.395L380.248 307.95C380.249 303.072 380.116 297.878 380.367 293.021C380.661 287.307 388.653 285.516 392.114 289.721C394.659 292.625 393.864 299.155 393.856 303.034L393.828 342.764C393.843 348.836 395.998 361.549 386.599 361.385C370.165 374.287 366.738 399.636 379.665 416.117C385.208 423.183 390.661 421.452 393.831 427.278C393.941 435.108 390.508 436.2 383.565 436.249L355.169 436.247C347.047 436.242 335.007 439.091 334.051 428.759C331.626 428.908 319.009 429.141 317.302 428.771C317.551 431.338 316.324 433.825 314.134 435.188C311.944 436.551 309.171 436.554 306.978 435.197C304.785 433.839 303.551 431.356 303.794 428.788C298.223 428.732 291.97 429.01 286.52 428.759C286.564 433.191 283.498 436.308 279.048 436.346L176.426 436.255C169.644 436.263 160.662 436.636 154.134 435.668C135.665 432.929 119.251 415.987 118.341 397.138C118.143 393.024 118.236 388.314 118.236 384.114L118.223 152.338C118.254 147.081 120.528 145.19 125.72 144.988ZM354.058 422.363C356.783 422.35 364.975 422.092 367.414 422.363C366.481 420.295 365.1 418.279 364.028 416.245C354.404 397.994 357.715 379.215 367.414 362.196C365.175 361.88 357.369 361.932 355.093 362.196C344.396 384.471 344.571 398.859 354.058 422.363Z"/><path fill="#BCDEF6" transform="scale(2 2)" d="M158.599 362.196L355.093 362.196C344.396 384.471 344.571 398.859 354.058 422.363C356.783 422.35 364.975 422.092 367.414 422.363C365.102 422.661 361.738 422.433 359.298 422.402L346.718 422.32C340.478 422.264 336.05 421.494 334.051 428.759C331.626 428.908 319.009 429.141 317.302 428.771C317.551 431.338 316.324 433.825 314.134 435.188C311.944 436.551 309.171 436.554 306.978 435.197C304.785 433.839 303.551 431.356 303.794 428.788C298.223 428.732 291.97 429.01 286.52 428.759C284.247 419.831 274.129 422.35 266.261 422.356L163.258 422.363C162.834 421.34 159.344 418.152 158.447 416.878C145.479 398.457 149.716 380.432 158.599 362.196Z"/><path transform="scale(2 2)" d="M303.794 428.788C304.124 425.307 307.044 422.647 310.54 422.643C314.036 422.638 316.964 425.292 317.302 428.771C317.551 431.338 316.324 433.825 314.134 435.188C311.944 436.551 309.171 436.554 306.978 435.197C304.785 433.839 303.551 431.356 303.794 428.788Z"/><path transform="scale(2 2)" d="M191.012 385.494L315.518 385.484C320.853 385.48 326.076 385.451 331.503 385.552C340.719 385.723 340.815 398.176 331.524 399.09L207.044 399.094C201.573 399.097 196.278 399.097 190.655 398.983C181.205 398.793 181.452 385.997 191.012 385.494Z"/><path fill="#0DA8F1" transform="scale(2 2)" d="M163.258 422.363C120.954 421.743 123.681 362.871 158.599 362.196C149.716 380.432 145.479 398.457 158.447 416.878C159.344 418.152 162.834 421.34 163.258 422.363Z"/><path fill="#FEAB02" transform="scale(2 2)" d="M125.72 129.98C134.889 125.614 130.982 124.031 132.676 114.459C136.112 95.034 150.11 89.5052 167.024 88.7343C165.785 91.5794 166.372 102.566 166.334 105.981L166.039 297.454C166.041 314.133 165.711 331.918 166.034 348.496C150.539 348.345 144.156 349.406 131.71 359.018L131.714 175.873C131.723 166.696 135.4 147.62 125.72 144.988C125.499 140.466 125.779 134.69 125.72 129.98Z"/><path transform="scale(2 2)" d="M152.087 116.022C159.398 115.377 160.733 118.721 160.741 124.956L160.757 244.88C160.756 250.899 161.305 287.285 160.385 290.172C159.587 292.677 157.702 294.012 155.474 295.154C152.355 295.821 148.755 294.676 147.521 291.477C146.35 288.443 146.966 264.172 146.966 259.15L146.965 154.702C146.964 145.887 143.323 118.939 152.087 116.022Z"/><path transform="scale(2 2)" d="M153.369 305.837C158.425 306.321 161.314 309.452 160.754 314.366C159.875 322.08 163.843 332.69 154.567 335.787C145.349 336.105 146.895 326.744 146.936 320.343C146.978 313.922 145.588 307.272 153.369 305.837Z"/><path transform="scale(2 2)" d="M125.72 129.98C107.693 129.791 120.798 81.6843 155.244 75.5352C160.927 74.5207 168.125 74.8502 173.944 74.8496L230.123 74.85C238.4 74.8343 251.493 71.7886 252.963 81.7828C251.593 90.554 243.978 88.744 236.951 88.7441L167.024 88.7343C150.11 89.5052 136.112 95.034 132.676 114.459C130.982 124.031 134.889 125.614 125.72 129.98Z"/><path transform="scale(2 2)" d="M268.651 80.99C269.051 77.112 272.45 74.2471 276.34 74.509C280.23 74.7709 283.214 78.0656 283.09 81.9623C283.007 84.6093 281.484 86.9995 279.121 88.1947C276.758 89.3899 273.931 89.1996 271.749 87.6983C269.567 86.197 268.379 83.6244 268.651 80.99Z"/><path fill="#BCDEF6" transform="scale(2 2)" d="M280 201.366C273.228 200.569 272.469 195.655 273.101 189.781C274.947 172.615 287.448 170.226 301.246 170.229L328.13 170.243C351.194 170.126 360.085 176.998 357.623 201.92C357.253 205.666 353.31 207.528 349.915 207.506C349.76 212.719 349.94 218.15 349.915 223.394C353.162 223.168 356.712 224.792 357.567 228.18C358.519 231.947 358.263 258.755 357.581 263.403C355.487 277.667 338.576 282.455 327.577 274.832C305.498 259.529 311.849 275.116 293.644 279.561C284.516 281.789 275.335 274.768 273.423 265.898C272.524 261.726 272.905 257.066 272.911 252.808L272.942 234.02C272.954 225.604 269.916 216.788 280 214.98C280.129 210.582 280.019 205.792 280 201.366Z"/><path transform="scale(2 2)" d="M280 214.98C288.678 216.837 286.57 225.688 286.548 232.479L286.509 253.24C286.515 277.493 294.555 260.225 307.998 255.584C324.871 249.758 335.749 270.138 342.895 264.416C349.38 259.222 337.341 227.011 349.915 223.394C353.162 223.168 356.712 224.792 357.567 228.18C358.519 231.947 358.263 258.755 357.581 263.403C355.487 277.667 338.576 282.455 327.577 274.832C305.498 259.529 311.849 275.116 293.644 279.561C284.516 281.789 275.335 274.768 273.423 265.898C272.524 261.726 272.905 257.066 272.911 252.808L272.942 234.02C272.954 225.604 269.916 216.788 280 214.98Z"/><path transform="scale(2 2)" d="M280 201.366C273.228 200.569 272.469 195.655 273.101 189.781C274.947 172.615 287.448 170.226 301.246 170.229L328.13 170.243C351.194 170.126 360.085 176.998 357.623 201.92C357.253 205.666 353.31 207.528 349.915 207.506C334.678 203.237 356.451 183.63 331.238 183.87L321.319 183.872C312.45 183.865 303.233 183.707 294.663 183.941C280.262 184.333 293.355 197.7 280 201.366Z"/><path transform="scale(2 2)" d="M192.095 301.046C197.41 301.002 226.754 300.394 229.567 301.873C235.575 305.034 233.116 313.289 227.207 314.732L204.888 314.75C200.633 314.749 196.587 314.804 192.222 314.602C183.486 314.198 183.146 302.107 192.095 301.046Z"/><path transform="scale(2 2)" d="M236.097 135.256L257.283 135.247C260.698 135.249 270.601 134.755 273.317 135.788C279.27 138.051 278.906 145.958 272.923 148.927C262.396 149.586 248.523 149.055 237.729 148.9C228.94 148.774 227.012 137.756 236.097 135.256Z"/><path transform="scale(2 2)" d="M290.814 135.256C295.12 135.239 314.294 134.611 316.962 135.969C323.155 139.122 321.426 147.182 315.29 148.927L300.091 148.951C297.175 148.954 294.432 148.997 291.451 148.844C282.553 148.385 282.507 136.624 290.814 135.256Z"/><path transform="scale(2 2)" d="M254.976 301.046C258.353 301.02 262.549 300.831 265.832 301.152C274.89 302.038 274.182 314.61 264.511 314.732C260.108 314.702 252.451 315.708 248.964 313.055C243.18 308.652 246.638 301.418 254.976 301.046Z"/><path transform="scale(2 2)" d="M298.917 81.7828C299.764 77.6271 302.318 74.7634 306.853 74.7737L356.414 74.8401C384.886 74.8289 394.012 76.8238 393.853 106.666L393.824 186.66C393.824 191.573 394.42 208.145 393.454 211.349C391.708 217.139 383.498 218.22 381.025 212.293C378.95 207.319 380.278 186.855 380.267 180.458L380.272 117.635C380.271 104.184 385.032 87.1924 367.414 88.7343C366.064 88.5547 358.774 88.7199 356.995 88.7216L323.428 88.74C313.827 88.7487 301.59 92.109 298.917 81.7828Z"/><path transform="scale(2 2)" d="M385.69 233.28C388.941 233.108 391.762 234.563 393.225 237.587C394.484 240.19 397.229 266.883 388.803 270.376C385.824 271.155 381.843 270.137 380.811 266.851C379.84 263.756 379.848 238.285 381.045 236.199C382.041 234.464 383.895 233.83 385.69 233.28Z"/></svg>