<?xml version="1.0" encoding="utf-8" ?><svg xmlns="http://www.w3.org/2000/svg" xmlns:xlink="http://www.w3.org/1999/xlink" width="1024" height="1024" viewBox="0 0 1024 1024"><path fill="#BCDEF6" transform="scale(2 2)" d="M179.144 87.5392C179.295 77.7781 186.055 78.5677 193.627 78.6576C215.014 78.9117 239.276 87.0292 256.182 100.192C260.002 96.802 263.902 94.5437 268.266 92.0351C306.587 70.002 353.971 76.3529 383.536 109.947C418.491 149.668 405.637 203.613 384.489 246.595C372.721 270.513 372.648 264.964 370.219 292.201C366.847 330.031 359.14 367.926 347.08 403.911C345.42 408.865 344.21 414.198 341.916 418.816C332.362 438.051 306.402 440.122 292.807 424.349C285.48 416.187 285.073 407.009 285.507 396.624C285.787 389.921 283.189 382.566 291.787 380.368C291.039 375.989 290.16 368.674 290.057 364.292C287.13 364.645 282.708 363.348 282.105 360.074C278.998 343.221 275.646 326.368 267.446 311.063C258.117 293.649 254.556 293.439 245.386 310.877C233.935 332.5 229.261 356.954 226.958 381.09C225.872 392.475 228.482 407.447 223.651 417.546C211.297 443.371 176.69 439.816 167.64 413.959C157.945 380.894 149.813 347.269 144.59 313.206C144.076 309.853 147.413 307.29 150.318 306.515C150.144 305.078 148.901 290.848 148.734 290.627L147.016 290.453C136.133 287.435 143.27 275.28 137.936 267.024C118.538 237 106.824 201.286 106.717 165.402C106.696 158.519 111.291 155.596 117.721 157.99C117.25 149.533 118.604 138.452 122.997 131.039C117.956 129.339 106.55 127.899 112.171 118.669C115.719 112.843 138.832 119.179 146.295 92.5418C147.567 88.2665 148.254 75.322 157.978 81.2985C161.416 83.4115 161.6 89.7375 162.59 93.5588C166.558 89.4328 173.345 86.2361 179.144 87.5392Z"/><path fill="#FEC302" transform="scale(2 2)" d="M122.997 131.039C117.956 129.339 106.55 127.899 112.171 118.669C115.719 112.843 138.832 119.179 146.295 92.5418C147.567 88.2665 148.254 75.322 157.978 81.2985C161.416 83.4115 161.6 89.7375 162.59 93.5588C166.558 89.4328 173.345 86.2361 179.144 87.5392C180.179 90.4404 182.46 92.4065 185.593 92.4484C196.243 92.5908 210.048 93.2327 220.073 97.5448C223.697 106.62 222.652 110.203 222.692 119.565C217.063 121.057 214.098 125.998 217.782 131.039C211.226 140.344 204.323 145.052 193.01 147.218C186.203 148.521 175.474 144.269 173.387 148.28C168.839 155.345 174.341 160.888 170.24 168.892C161.25 186.436 143.953 170.671 149.412 199.07C152.96 217.042 160.299 234.365 169.933 249.902C175.696 259.196 187.765 267.963 177.672 278.923C164.671 289.331 160.347 277.275 154.05 271.75C154.558 279.651 158.368 289.556 147.016 290.453C136.133 287.435 143.27 275.28 137.936 267.024C118.538 237 106.824 201.286 106.717 165.402C106.696 158.519 111.291 155.596 117.721 157.99C117.25 149.533 118.604 138.452 122.997 131.039Z"/><path transform="scale(2 2)" d="M122.997 131.039C117.956 129.339 106.55 127.899 112.171 118.669C115.719 112.843 138.832 119.179 146.295 92.5418C147.567 88.2665 148.254 75.322 157.978 81.2985C161.416 83.4115 161.6 89.7375 162.59 93.5588C165.308 104.029 173.518 112.07 183.833 115.169C185.577 115.694 190.059 115.956 191.283 116.638C198.75 120.798 195.413 129.083 187.627 129.969C159.997 133.116 164.929 161.719 156.033 163.679C151.619 164.651 147.688 161.898 147.243 157.389C146.103 145.83 134.639 132.895 122.997 131.039Z"/><path fill="#FEC302" transform="scale(2 2)" d="M154.05 109.665C158.909 114.253 160.59 117.619 167.281 123.013C160.3 127.599 159.033 130.009 154.313 135.757L154.05 136.074C149.568 130.511 145.886 126.818 139.725 123.013C147.143 118.155 148.449 116 154.05 109.665Z"/><path transform="scale(2 2)" d="M147.016 290.453C136.133 287.435 143.27 275.28 137.936 267.024C118.538 237 106.824 201.286 106.717 165.402C106.696 158.519 111.291 155.596 117.721 157.99C119.67 160.395 120.783 161.568 120.761 164.84C120.571 192.821 127.907 220.37 140.82 245.121C144.677 252.513 149.445 259.114 153.425 266.357C153.877 267.206 153.76 270.425 154.05 271.75C154.558 279.651 158.368 289.556 147.016 290.453Z"/><path transform="scale(2 2)" d="M179.144 87.5392C179.295 77.7781 186.055 78.5677 193.627 78.6576C215.014 78.9117 239.276 87.0292 256.182 100.192C260.002 96.802 263.902 94.5437 268.266 92.0351C306.587 70.002 353.971 76.3529 383.536 109.947C418.491 149.668 405.637 203.613 384.489 246.595C372.721 270.513 372.648 264.964 370.219 292.201C366.847 330.031 359.14 367.926 347.08 403.911C345.42 408.865 344.21 414.198 341.916 418.816C332.362 438.051 306.402 440.122 292.807 424.349C285.48 416.187 285.073 407.009 285.507 396.624C285.787 389.921 283.189 382.566 291.787 380.368C301.85 381.25 300.111 394.501 299.483 402.557C297.844 423.59 326.629 428.98 331.411 407.224C344.349 369.534 353.134 330.365 356.455 290.622C357.611 276.796 357.073 267.675 364.218 254.869C386.135 215.588 407.387 160.718 374.928 120.948C348.274 88.2914 298.49 83.6185 266.336 109.665C275.419 113.597 273.451 108.361 281.146 108.861C286.676 109.221 288.412 118.17 282.5 121.673C264.701 132.218 256.462 117.214 245.028 109.507C237.386 104.328 228.935 100.106 220.073 97.5448C210.048 93.2327 196.243 92.5908 185.593 92.4484C182.46 92.4065 180.179 90.4404 179.144 87.5392Z"/><path transform="scale(2 2)" d="M154.05 271.75C160.347 277.275 164.671 289.331 177.672 278.923C178.323 281.07 178.649 287.136 179.028 289.844C184.474 328.678 191.312 366.973 203.535 404.365C204.355 406.873 206.518 413.817 208.13 415.518C211.833 411.002 212.547 408.144 212.427 402.327C211.77 370.497 217.505 335.751 231.675 307.212C241.885 286.741 255.904 273.072 273.872 294.304C279.905 303.038 305.756 358.427 290.057 364.292C287.13 364.645 282.708 363.348 282.105 360.074C278.998 343.221 275.646 326.368 267.446 311.063C258.117 293.649 254.556 293.439 245.386 310.877C233.935 332.5 229.261 356.954 226.958 381.09C225.872 392.475 228.482 407.447 223.651 417.546C211.297 443.371 176.69 439.816 167.64 413.959C157.945 380.894 149.813 347.269 144.59 313.206C144.076 309.853 147.413 307.29 150.318 306.515C150.144 305.078 148.901 290.848 148.734 290.627L147.016 290.453C158.368 289.556 154.558 279.651 154.05 271.75Z"/><path fill="#76CCF5" transform="scale(2 2)" d="M154.05 271.75C160.347 277.275 164.671 289.331 177.672 278.923C178.323 281.07 178.649 287.136 179.028 289.844C184.474 328.678 191.312 366.973 203.535 404.365C204.355 406.873 206.518 413.817 208.13 415.518C200.128 424.637 185.025 422.56 181.304 410.464C171.486 378.539 164.339 345.734 158.527 312.859C157.684 308.093 154.768 306.651 150.318 306.515C150.144 305.078 148.901 290.848 148.734 290.627L147.016 290.453C158.368 289.556 154.558 279.651 154.05 271.75Z"/><path fill="#76CCF5" transform="scale(2 2)" d="M273.872 294.304C312.9 279.977 322.511 362.793 321.923 386.75C321.73 394.995 320.95 401.981 320.424 409.984C324.266 409.193 327.9 407.965 331.411 407.224C326.629 428.98 297.844 423.59 299.483 402.557C300.111 394.501 301.85 381.25 291.787 380.368C291.039 375.989 290.16 368.674 290.057 364.292C305.756 358.427 279.905 303.038 273.872 294.304Z"/><path transform="scale(2 2)" d="M222.692 119.565C227.534 119.711 250.486 135.044 255.766 138.218C264.922 143.721 258.591 152.838 252.671 151.931C250.427 151.588 222.084 135.036 217.782 131.039C214.098 125.998 217.063 121.057 222.692 119.565Z"/><path transform="scale(2 2)" d="M324.09 112.805C341.66 111.417 362.071 129.224 369.008 144.27C380.05 168.218 370.975 194.563 364.394 218.408C363.703 220.915 361.555 222.635 359.23 223.566C346.399 225.925 352.936 209.755 354.154 204.63C358.658 185.696 365.332 166.336 355.206 147.882C350.201 138.763 343.133 131.741 333.063 128.267C326.945 126.156 316.004 126.649 319.275 116.726C319.968 114.705 322.177 113.507 324.09 112.805Z"/><path transform="scale(2 2)" d="M343.762 235.301C356.696 233.586 351.979 251.276 343.762 255.175C330.159 257.292 335.353 238.6 343.762 235.301Z"/></svg>