<?xml version="1.0" encoding="utf-8" ?><svg xmlns="http://www.w3.org/2000/svg" xmlns:xlink="http://www.w3.org/1999/xlink" width="1024" height="1024" viewBox="0 0 1024 1024"><path fill="#BCDEF6" transform="scale(2 2)" d="M265.97 77.4015C272.219 83.8939 282.388 99.4137 291.165 93.3378C295.354 98.507 301.074 102.513 305.037 107.749C313.93 101.611 319.455 111.135 325.745 117.36L345.337 136.866C350.564 142.14 356.465 147.274 360.923 152.938C369.685 164.069 362.307 183.498 349.002 186.618C342.005 188.26 327.483 187.397 319.75 187.437L319.75 204.809C333.978 209.064 356.458 227.472 365.619 238.266C370.473 243.986 382.903 257.046 370.898 262.479C375.715 270.778 376.505 275.272 379.764 283.601C386.558 281.535 389.782 285.72 391.388 291.789C396.761 312.079 396.632 333.63 392.526 354.136C390.948 362.014 387.234 367.672 378.804 363.9C377.618 370.889 373.269 381.702 369.285 387.687C372.469 388.993 374.481 392.167 374.303 395.604C374.126 399.041 371.798 401.991 368.496 402.962C365.195 403.933 361.64 402.713 359.63 399.92C356.991 406.947 349.339 415.061 342.703 418.486C347.035 423.181 345.17 428.341 339.985 431.305C327.666 438.346 314.998 444.832 302.71 451.93C297.717 454.815 294.641 454.019 289.027 454.003L246.823 453.999C237.313 453.996 225.778 456.992 222.601 446.671C222.913 445.478 223.257 444.015 223.609 442.856C218.808 442.677 205.218 433.398 200.664 430.71C197.113 427.604 192.664 426.214 189.047 423.665C186.967 422.607 185.082 421.353 183.12 420.098C183.859 420.126 183.629 420.173 184.32 419.986L184.408 419.501C183.723 418.619 183.458 418.33 183.12 417.279C182.962 417.078 181.234 415.503 180.808 415.039C135.481 365.585 131.86 286.096 184.171 240.704C185.961 239.15 189.73 235.732 191.754 234.973L191.754 222.53C190.422 223.073 189.116 223.548 187.766 224.039C182.871 222.786 178.337 219.214 180.406 213.384C181.614 209.982 188.374 207.212 191.754 205.762C191.738 200.663 192.117 192.138 191.754 187.437C182.769 187.153 172.158 188.105 163.36 186.676C150.755 183.615 143.497 168.579 148.796 156.757C150.591 152.753 171.201 131.097 176.716 126.826C181.695 123.117 188.595 126.166 188.819 132.5C189.005 137.763 168.002 156.567 163.73 160.92C158.444 166.305 163.617 173.325 171.197 172.274C173.258 171.399 176.138 167.839 177.808 166.137L255.98 87.1994C258.391 84.7775 263.542 79.327 265.97 77.4015ZM206.671 254.91C211.426 261.115 214.481 259.921 219.326 254.91L219.332 217.392C219.331 203.287 223.706 189.651 206.671 187.437L206.655 246.985C206.65 249.382 206.51 252.592 206.671 254.91Z"/><path fill="#FEC302" transform="scale(2 2)" d="M265.97 77.4015C272.219 83.8939 282.388 99.4137 291.165 93.3378C295.354 98.507 301.074 102.513 305.037 107.749C313.93 101.611 319.455 111.135 325.745 117.36L345.337 136.866C350.564 142.14 356.465 147.274 360.923 152.938C369.685 164.069 362.307 183.498 349.002 186.618C342.005 188.26 327.483 187.397 319.75 187.437L319.75 204.809C333.978 209.064 356.458 227.472 365.619 238.266C370.473 243.986 382.903 257.046 370.898 262.479C361.97 263.892 359.055 254.196 353.576 247.777C343.833 236.363 332.428 229.197 319.75 221.663C320.005 227.942 319.723 233.794 311.556 233.639C311.559 239.799 311.69 246.423 311.556 252.542C303.389 252.696 301.495 264.442 294.276 256.631C285.998 248.381 277.633 240.185 269.265 232.027C263.013 225.949 252.636 225.251 245.237 229.806C240.243 232.88 224.038 249.915 219.503 254.722L219.326 254.91L219.332 217.392C219.331 203.287 223.706 189.651 206.671 187.437C205.367 166.883 183.497 174.145 171.197 172.274C173.258 171.399 176.138 167.839 177.808 166.137L255.98 87.1994C258.391 84.7775 263.542 79.327 265.97 77.4015Z"/><path transform="scale(2 2)" d="M305.037 107.749C313.93 101.611 319.455 111.135 325.745 117.36L345.337 136.866C350.564 142.14 356.465 147.274 360.923 152.938C369.685 164.069 362.307 183.498 349.002 186.618C342.005 188.26 327.483 187.397 319.75 187.437L319.75 204.809C333.978 209.064 356.458 227.472 365.619 238.266C370.473 243.986 382.903 257.046 370.898 262.479C361.97 263.892 359.055 254.196 353.576 247.777C343.833 236.363 332.428 229.197 319.75 221.663C320.005 227.942 319.723 233.794 311.556 233.639C309.188 233.116 306.472 231.698 305.575 229.329C304.69 226.994 304.786 190.178 305.126 185.61C306.005 173.792 315.584 172.189 325.726 172.244L337.398 172.311C347.003 172.36 353.745 166.848 346.665 159.387C333.338 145.341 319.248 131.991 305.603 118.258C302.206 114.839 303.028 111.577 305.037 107.749Z"/><path transform="scale(2 2)" d="M191.754 187.437C182.769 187.153 172.158 188.105 163.36 186.676C150.755 183.615 143.497 168.579 148.796 156.757C150.591 152.753 171.201 131.097 176.716 126.826C181.695 123.117 188.595 126.166 188.819 132.5C189.005 137.763 168.002 156.567 163.73 160.92C158.444 166.305 163.617 173.325 171.197 172.274C183.497 174.145 205.367 166.883 206.671 187.437L206.655 246.985C206.65 249.382 206.51 252.592 206.671 254.91C211.426 261.115 214.481 259.921 219.326 254.91L219.503 254.722C224.038 249.915 240.243 232.88 245.237 229.806C252.636 225.251 263.013 225.949 269.265 232.027C277.633 240.185 285.998 248.381 294.276 256.631C301.495 264.442 303.389 252.696 311.556 252.542C328.944 256.635 308.688 283.918 288.308 271.642C280.381 266.867 260.892 242.046 255.974 242.229C245.576 242.617 221.991 292.392 197.843 268.381C191.738 262.311 191.728 254.83 191.733 246.806L191.754 234.973L191.754 222.53C190.422 223.073 189.116 223.548 187.766 224.039C182.871 222.786 178.337 219.214 180.406 213.384C181.614 209.982 188.374 207.212 191.754 205.762C191.738 200.663 192.117 192.138 191.754 187.437Z"/><path transform="scale(2 2)" d="M223.609 442.856C225.831 438.799 228.845 438.464 233.07 438.48L278.09 438.504C282.634 438.502 291.917 438.88 296.35 438.095C298.883 437.646 328.285 420.472 331.762 418.498C335.981 416.08 338.55 415.144 342.703 418.486C347.035 423.181 345.17 428.341 339.985 431.305C327.666 438.346 314.998 444.832 302.71 451.93C297.717 454.815 294.641 454.019 289.027 454.003L246.823 453.999C237.313 453.996 225.778 456.992 222.601 446.671C222.913 445.478 223.257 444.015 223.609 442.856Z"/><path transform="scale(2 2)" d="M379.764 283.601C386.558 281.535 389.782 285.72 391.388 291.789C396.761 312.079 396.632 333.63 392.526 354.136C390.948 362.014 387.234 367.672 378.804 363.9C371.962 357.182 377.241 351.958 378.489 343.363C380.749 327.799 380.285 311.226 376.314 295.983C374.797 290.159 374.166 287.178 379.764 283.601Z"/><path transform="scale(2 2)" d="M359.63 399.92C357.518 396.984 357.606 393.004 359.847 390.165C362.088 387.326 365.938 386.315 369.285 387.687C372.469 388.993 374.481 392.167 374.303 395.604C374.126 399.041 371.798 401.991 368.496 402.962C365.195 403.933 361.64 402.713 359.63 399.92Z"/><path fill="white" transform="scale(2 2)" d="M183.12 417.279C184.539 418.413 189.033 421.909 189.047 423.665C186.967 422.607 185.082 421.353 183.12 420.098C183.859 420.126 183.629 420.173 184.32 419.986L184.408 419.501C183.723 418.619 183.458 418.33 183.12 417.279Z"/><path transform="scale(2 2)" d="M140.95 252.542C153.591 251.974 148.189 264.752 145.495 270.533L139.397 283.417C133.552 295.608 132.954 294.311 133.341 307.977L133.837 330.688C134.032 337.754 136.854 348.754 127.541 350.862C120.473 351.526 118.253 346.165 118.324 340.211C118.505 324.845 117.381 309.351 117.855 294.026C117.892 292.828 121.289 285.916 121.957 284.493L127.696 272.068C130.973 264.893 133.115 254.157 140.95 252.542Z"/><path transform="scale(2 2)" d="M248.236 73.3372C240.157 71.3586 239.288 62.6822 246.043 58.8714C252.701 55.1151 263.224 55.9148 269.441 60.526C272.48 62.7795 291.849 82.0907 293.018 84.4462C294.607 87.6458 293.238 90.8314 291.165 93.3378C282.388 99.4137 272.219 83.8939 265.97 77.4015C259.907 68.9016 256.237 71.5964 248.236 73.3372Z"/><path transform="scale(2 2)" d="M200.664 430.71C204.096 439.339 197.792 445.46 188.892 440.925C181.403 437.109 149.532 420.338 156.481 408.942C162.081 399.758 169.58 409.313 173.949 413.133C176.848 415.668 179.961 417.902 183.12 420.098C185.082 421.353 186.967 422.607 189.047 423.665C192.664 426.214 197.113 427.604 200.664 430.71Z"/><path transform="scale(2 2)" d="M228.701 75.6055C234.065 74.7534 240.491 79.5673 237.897 85.2898C236.974 87.3259 210.105 115.279 206.671 116.669C199.761 118.126 195.037 112.718 196.992 107.224C200.007 102.431 224.333 77.7022 228.701 75.6055Z"/><path transform="scale(2 2)" d="M164.41 224.039C175.036 222.118 175.95 237.656 164.41 241.378C153.473 243.14 152.505 226.765 164.41 224.039Z"/><path transform="scale(2 2)" d="M137.405 373.498C141.578 372.555 145.725 375.17 146.674 379.341C147.623 383.512 145.015 387.663 140.845 388.619C136.666 389.576 132.504 386.961 131.553 382.781C130.602 378.601 133.224 374.442 137.405 373.498Z"/></svg>