<?xml version="1.0" encoding="utf-8" ?><svg xmlns="http://www.w3.org/2000/svg" xmlns:xlink="http://www.w3.org/1999/xlink" width="1024" height="1024" viewBox="0 0 1024 1024"><path fill="#FEC302" transform="scale(2 2)" d="M277.531 150.15C285.135 176.321 272.697 204.152 248.128 215.945C223.559 227.739 194.064 220.034 178.401 197.732C162.738 175.429 165.5 145.071 184.932 125.962C204.364 106.853 234.764 104.599 256.801 120.633C266.792 127.902 274.084 138.285 277.531 150.15Z"/><path transform="scale(2 2)" d="M256.801 120.633C266.792 127.902 274.084 138.285 277.531 150.15L277.412 150.376C275.024 154.828 272.008 155.537 267.744 152.949C264.964 147.879 264.17 143.13 260.454 137.052C257.779 131.76 245.927 126.653 256.801 120.633Z"/><path fill="#FED664" transform="scale(2 2)" d="M201.727 126.528C211.617 125.9 207.622 134.2 202.017 138.92C196.022 143.968 193.42 153.935 189.08 155.148C184.614 154.904 183.457 153.999 181.964 149.961C184.521 141.84 193.685 129.906 201.727 126.528Z"/><path transform="scale(2 2)" d="M177.911 152.031C180.885 151.993 202.163 167.561 189.08 171.926C184.487 172.086 164.173 156.359 177.911 152.031Z"/><path transform="scale(2 2)" d="M204.671 178.017C208.434 177.885 226.607 191.55 214.514 196.325C209.852 196.818 202.277 188.794 200.29 185.465C199.988 181.308 200.473 179.346 204.671 178.017Z"/><path fill="#FED664" transform="scale(2 2)" d="M219.231 119.325C228.06 118.189 229.704 128.564 219.231 130.164C210.996 131.278 208.986 121.145 219.231 119.325Z"/><path transform="scale(2 2)" d="M282.2 215.769C282.19 208.617 281.519 199.842 283.301 193.056C287.269 177.953 307.182 172.719 318.19 183.781C321.345 186.952 322.6 189.954 324.585 193.896C338.178 201.014 334.28 207.391 334.736 220.425C359.012 223.072 355.497 246.287 355.22 265.033C355.23 268.09 355.392 272.659 355.22 275.593C354.465 276.827 353.519 278.371 352.033 278.842C343.514 281.377 344.321 272.468 344.332 267.163L344.379 248.988C344.385 246.219 344.671 241.776 344.161 239.117C342.389 229.894 328.462 228.364 325.201 237.35C324.008 240.64 324.581 247.932 324.587 251.81L324.594 279.754C324.624 285.503 326.43 290.459 320.99 293.753C310.524 293.951 313.748 280.749 313.747 272.463L313.75 223.626C313.741 218.17 314.465 199.147 313.063 195.187C309.758 185.854 296.339 186.103 293.583 195.938C292.582 199.508 293.234 207.474 293.236 211.65L293.246 252.795C293.246 257.557 297.06 286.454 285.248 280.305C278.286 276.681 284.824 239.061 281.251 229.478C278.326 221.63 265.297 221.332 263.027 229.615C261.832 233.973 262.465 244.874 262.467 250.003L262.477 320.659C262.488 326.199 263.971 335.245 257.715 338.019C255.258 339.108 252.743 339.952 250.222 338.435C244.693 335.108 234.333 310.47 228.087 303.753C220.648 295.753 206.948 305.64 211.152 315.343C212.719 318.958 215.205 322.182 217.289 325.514L230.563 346.69C240.302 362.542 250.023 379.79 260.307 395.155C261.605 396.882 263.937 398.038 265.721 399.12C272.732 403.371 281.748 415.858 279.632 424.278C278.937 427.043 274.973 429.074 272.355 427.849C267.212 425.443 269.509 418.341 266.009 413.68C261.846 408.135 256.607 407.638 252.239 402.699C250.243 399.849 246.824 393.872 244.897 390.714L209.014 332.331C207.017 329.062 203.823 324.94 202.328 321.757C193.929 303.876 209.307 285.315 228.42 291.702C236.606 294.438 247.757 313.696 251.754 322.025L251.744 241.992C251.717 235.493 250.897 228.809 254.18 222.961C260.062 212.486 272.292 210.2 282.2 215.769Z"/><path fill="#BCDEF6" transform="scale(2 2)" d="M324.585 193.896C338.178 201.014 334.28 207.391 334.736 220.425C330.808 220.382 328.265 221.336 324.585 222.508C324.708 213.085 324.585 203.352 324.585 193.896Z"/><path transform="scale(2 2)" d="M361.758 461.926C351.246 463.93 353.737 450.425 353.649 443.907C353.433 427.832 351.68 412.814 364.53 400.557C378.723 387.02 377.543 389.05 377.517 370.086L377.524 273.204C378.127 261.544 360.775 267.799 363.589 257.509C365.886 249.111 380.326 256.168 383.57 260.586C385.393 263.069 386.826 265.28 388.331 267.829C399.928 273.653 396.924 285.896 396.905 297.109L396.903 371.691C396.901 379.112 397.039 386.874 396.625 394.246C395.404 415.98 377.553 416.781 374.686 433.219C372.992 442.929 377.808 463.591 365.031 458.04C364.249 459.893 363.247 460.611 361.758 461.926Z"/><path fill="#BCDEF6" transform="scale(2 2)" d="M388.331 267.829C399.928 273.653 396.924 285.896 396.905 297.109L396.903 371.691C396.901 379.112 397.039 386.874 396.625 394.246C395.404 415.98 377.553 416.781 374.686 433.219C372.992 442.929 377.808 463.591 365.031 458.04C365.254 455.776 365.066 451.512 365.056 449.051L365.007 431.201C364.99 411.097 368.754 413.264 380.283 400.97C389.36 391.29 388.345 380.792 388.338 368.778L388.329 292.304C388.331 284.591 388.658 275.332 388.331 267.829Z"/><path transform="scale(2 2)" d="M193.229 215.769C198.432 215.996 215.643 234.549 219.231 238.885C218.648 243.123 218.047 244.954 213.702 246.057C208.496 245.748 194.646 229.915 190.293 225.712C186.044 221.61 188.052 217.394 193.229 215.769Z"/><path transform="scale(2 2)" d="M178.775 47.2834C185.194 46.8311 199.525 62.8633 201.727 66.785C202.029 70.191 201.215 71.8089 198.025 73.1877C191.825 73.8927 178.087 58.5495 175.865 54.4924C174.24 51.5269 176.149 48.6938 178.775 47.2834Z"/><path transform="scale(2 2)" d="M119.202 80.077C123.716 79.3134 134.216 92.1429 137.463 95.5416C141.02 99.265 140.225 102.823 135.445 104.78C129.751 105.665 119.408 92.5417 115.354 88.2162C112.831 85.5245 114.525 80.5692 119.202 80.077Z"/><path transform="scale(2 2)" d="M214.514 80.077C215.315 80.1294 243.814 98.8082 227.808 103.469C223.125 103.68 211.911 91.2518 210.108 88.2356C207.758 84.3026 210.093 80.5913 214.514 80.077Z"/><path fill="#BCDEF6" transform="scale(2 2)" d="M355.22 265.033C357.466 265.774 359.855 267.643 360.92 269.769C362.144 272.214 362.193 296.27 361.238 298.86C360.41 301.106 356.995 300.763 355.22 300.218C355.3 296.57 355.257 294.308 352.033 292.145C352.155 291.864 352.173 279.428 352.033 278.842C353.519 278.371 354.465 276.827 355.22 275.593C355.392 272.659 355.23 268.09 355.22 265.033Z"/><path transform="scale(2 2)" d="M151.459 111.513C156.176 111.231 171.309 124.425 159.628 128.753C154.324 128.817 139.888 115.939 151.459 111.513Z"/><path transform="scale(2 2)" d="M274.306 442.575C281.46 442.701 282.34 460.267 274.306 461.926C266.858 461.079 265.763 443.97 274.306 442.575Z"/><path transform="scale(2 2)" d="M355.22 300.218C355.492 310.203 347.065 309.755 345.09 305.711C342.277 299.952 343.929 289.815 352.033 292.145C355.257 294.308 355.3 296.57 355.22 300.218Z"/><path transform="scale(2 2)" d="M230.838 251.756C237.948 251.217 245.875 262.798 236.491 266.258C230.278 266.885 220.396 256.087 230.838 251.756Z"/></svg>