<?xml version="1.0" encoding="utf-8" ?><svg xmlns="http://www.w3.org/2000/svg" xmlns:xlink="http://www.w3.org/1999/xlink" width="1024" height="1024" viewBox="0 0 1024 1024"><path fill="white" transform="scale(2 2)" d="M132.917 227.839C123.595 219.369 139.966 213.641 146.954 207.787C159.98 196.875 166.638 204.606 177.418 212.622L225.735 248.455C233.143 253.813 242.781 259.099 242.21 269.628C241.607 280.764 233.268 285.815 223.253 286.52C223.427 292.869 225.893 310.777 215.765 306.58C215.586 308.206 215.734 320.541 215.765 320.656C219.625 319.396 221.148 320.385 223.253 323.629L223.262 362.018C223.264 368.003 223.482 375.441 223.253 381.287C231.333 381.647 248.829 380.077 255.834 381.776C259.787 385.251 259.146 391.433 253.195 391.402L82.9705 391.239C74.0644 391.218 76.1005 381.449 80.3408 381.318C85.0193 381.173 89.7983 381.282 94.5014 381.287C94.4772 375.964 92.6396 366.033 98.1319 363.733C98.1645 359.822 97.6951 352.364 98.4829 348.761L98.1319 348.53C93.3838 346.184 94.4962 340.32 94.494 335.781L94.4964 297.386C94.505 293.822 94.3597 290.047 94.5014 286.52C79.5042 286.842 70.4444 270.831 79.175 258.914C82.2398 254.731 103.478 240.742 109.258 236.474C112.708 233.926 115.796 234.475 117.844 238.388C122.507 234.673 128.156 231.673 132.917 227.839Z"/><path transform="scale(2 2)" d="M132.917 227.839C123.595 219.369 139.966 213.641 146.954 207.787C159.98 196.875 166.638 204.606 177.418 212.622L225.735 248.455C233.143 253.813 242.781 259.099 242.21 269.628C241.607 280.764 233.268 285.815 223.253 286.52C223.427 292.869 225.893 310.777 215.765 306.58C211.513 302.692 213.376 288.066 213.355 282.091C207.953 276.831 195.822 268.781 189.113 263.847L168.849 249.021C165.73 246.753 162.035 243.804 158.845 241.831L138.055 257.017C126.983 265.263 115.504 274.052 104.336 282.091L104.349 336.275C104.35 342.807 105.703 346.778 98.1319 348.53C93.3838 346.184 94.4962 340.32 94.494 335.781L94.4964 297.386C94.505 293.822 94.3597 290.047 94.5014 286.52C79.5042 286.842 70.4444 270.831 79.175 258.914C82.2398 254.731 103.478 240.742 109.258 236.474C112.708 233.926 115.796 234.475 117.844 238.388C122.507 234.673 128.156 231.673 132.917 227.839Z"/><path fill="#FEC302" transform="scale(2 2)" d="M132.917 227.839C141.023 228.938 151.143 213.268 158.828 212.477C161.921 212.159 172.21 221.234 175.024 223.28L213.337 251.66C219.714 256.423 236.379 263.86 231.022 273.007C224.072 280.968 216.81 271.495 209.699 266.756C194.409 255.68 178.553 242.786 162.917 232.442C156.684 228.32 145.459 239.396 140.08 243.291L109.453 265.936C103.354 270.519 94.6835 280.452 87.6696 274.356C81.975 267.447 88.3095 263.473 93.4562 259.763L108.584 248.99C112.418 246.236 118.119 243.738 117.844 238.388C122.507 234.673 128.156 231.673 132.917 227.839Z"/><path fill="#EE9804" transform="scale(2 2)" d="M87.6696 274.356C89.3609 273.353 91.2887 271.562 92.9338 270.361C109.032 258.339 126.092 246.426 142.209 234.567C157.796 223.098 158.341 220.216 175.116 233.836C183.313 240.492 222.286 270.48 231.022 273.007C224.072 280.968 216.81 271.495 209.699 266.756C194.409 255.68 178.553 242.786 162.917 232.442C156.684 228.32 145.459 239.396 140.08 243.291L109.453 265.936C103.354 270.519 94.6835 280.452 87.6696 274.356Z"/><path transform="scale(2 2)" d="M130.776 374.01L130.748 355.804C130.737 344.819 129.986 336.466 138.26 327.861C149.308 316.371 167.396 315.58 178.83 326.919C187.7 335.715 187.29 344.713 187.29 356.246L187.276 373.237L187.603 373.821C193.283 375.07 206.722 373.547 213.355 374.01C213.351 365.216 211.001 325.322 215.765 320.656C219.625 319.396 221.148 320.385 223.253 323.629L223.262 362.018C223.264 368.003 223.482 375.441 223.253 381.287C231.333 381.647 248.829 380.077 255.834 381.776C259.787 385.251 259.146 391.433 253.195 391.402L82.9705 391.239C74.0644 391.218 76.1005 381.449 80.3408 381.318C85.0193 381.173 89.7983 381.282 94.5014 381.287C94.4772 375.964 92.6396 366.033 98.1319 363.733C101.657 363.907 103.536 364.885 104.336 368.469C104.66 370.098 104.448 372.311 104.336 374.01C111.21 374.397 123.786 374.642 130.776 374.01Z"/><path fill="#4CB2F4" transform="scale(2 2)" d="M187.276 373.237L187.603 373.821C193.283 375.07 206.722 373.547 213.355 374.01C213.242 376.46 213.309 378.84 213.355 381.287L187.276 381.287C187.306 378.585 187.301 375.938 187.276 373.237Z"/><path fill="#BCDEF6" transform="scale(2 2)" d="M104.336 368.469C104.66 370.098 104.448 372.311 104.336 374.01C111.21 374.397 123.786 374.642 130.776 374.01L130.776 381.287L104.336 381.287C104.245 377.841 104.113 371.791 104.336 368.469Z"/><path fill="#4CB2F4" transform="scale(2 2)" d="M140.507 381.287L140.501 358.262C140.501 354.335 140.486 350.455 140.576 346.51C140.95 330.037 159.847 323.349 171.51 333.622C180.883 343.209 177.464 361.197 177.521 374.01C177.766 375.622 177.582 379.514 177.521 381.287L140.507 381.287Z"/><path fill="#0893EB" transform="scale(2 2)" d="M140.507 381.287L140.501 358.262C140.501 354.335 140.486 350.455 140.576 346.51C140.95 330.037 159.847 323.349 171.51 333.622C165.122 334.105 158.714 328.93 151.108 336.862C142.456 345.603 146.449 362.083 145.536 374.01C155.926 374.013 167.204 374.237 177.521 374.01C177.766 375.622 177.582 379.514 177.521 381.287L140.507 381.287Z"/><path transform="scale(2 2)" d="M152.608 347.062C161.25 347.17 159.837 359.733 154.071 361.803C146.135 361.807 146.248 348.516 152.608 347.062Z"/><path transform="scale(2 2)" d="M157.316 268.792C166.012 267.958 173.885 273.809 174.327 282.97C174.598 288.594 175.597 298.408 171.51 302.432C168.444 302.581 164.461 302.452 161.325 302.432C146.562 302.389 145.215 305.254 144.376 291.241C143.725 280.356 144.931 271.592 157.316 268.792Z"/><path fill="#0893EB" transform="scale(2 2)" d="M158.845 278.262C166.172 278.057 164.527 287.503 164.478 292.449L160.069 292.449L154.071 292.449C154 286.529 152.59 280.971 158.845 278.262Z"/><path fill="#BCDEF6" transform="scale(2 2)" d="M346.03 255.45C350.789 257.801 359.54 263.804 364.508 266.821L405.281 291.173C410.463 294.301 416.334 298.579 421.336 301.333C421.561 308.892 421.545 323.001 420.637 329.998C425.186 334.661 430.801 338.879 435.137 343.724C438.085 347.018 433.452 354.677 425.877 348.53C425.644 351.244 425.796 353.982 425.877 356.708L425.898 372.006C425.924 374.945 426.142 378.438 425.877 381.287C431.552 381.127 441.508 382.858 434.311 390.3C430.416 391.711 411.224 391.711 407.249 390.3C405.445 389.209 404.97 388.94 404.16 387.025C400.868 387.702 392.734 386.937 388.994 387.025C388.373 379.7 381.306 381.106 375.988 381.287C375.329 371.864 380.507 352.509 369.708 349.082C369.76 347.862 369.718 346.507 369.708 345.276C368.562 344.014 366.796 342.787 365.203 342.158C364.532 342.226 363.95 342.183 363.28 342.158C361.316 341.066 360.85 340.636 359.524 338.933L358.839 338.386C354.812 335.182 346.852 326.947 342.964 323.115L330.775 310.959C327.044 307.3 323.416 303.931 319.832 300.116C309.347 310.823 298.122 321.685 287.383 332.157L277.877 341.472C274.895 344.393 268.432 352.436 264.361 346.287C261.255 341.595 272.215 332.261 275.91 330.175L276.229 329.998C275.422 326.657 275.491 301.917 276.229 298.437C279.964 294.398 288.754 289.694 293.827 286.656L312.32 275.404C321.661 269.658 336.142 259.577 346.03 255.45Z"/><path fill="#FEC302" transform="scale(2 2)" d="M394.966 318.834C400.992 324.88 421.955 343.026 425.877 348.53C425.644 351.244 425.796 353.982 425.877 356.708L425.898 372.006C425.924 374.945 426.142 378.438 425.877 381.287C431.552 381.127 441.508 382.858 434.311 390.3C430.416 391.711 411.224 391.711 407.249 390.3C405.445 389.209 404.97 388.94 404.16 387.025C400.868 387.702 392.734 386.937 388.994 387.025C388.373 379.7 381.306 381.106 375.988 381.287C375.329 371.864 380.507 352.509 369.708 349.082C369.76 347.862 369.718 346.507 369.708 345.276C372.828 343.803 393.86 321.982 394.966 318.834Z"/><path transform="scale(2 2)" d="M407.249 381.287C407.241 375.861 406.666 351.027 407.612 347.601C408.861 343.081 414.6 343.779 416.785 348.53C420.379 350.586 422.628 354.901 425.877 356.708L425.898 372.006C425.924 374.945 426.142 378.438 425.877 381.287C431.552 381.127 441.508 382.858 434.311 390.3C430.416 391.711 411.224 391.711 407.249 390.3C405.445 389.209 404.97 388.94 404.16 387.025C404.127 384.394 405.039 382.766 407.249 381.287Z"/><path fill="#EE9804" transform="scale(2 2)" d="M416.785 348.53C420.379 350.586 422.628 354.901 425.877 356.708L425.898 372.006C425.924 374.945 426.142 378.438 425.877 381.287L416.785 381.287L416.785 348.53Z"/><path transform="scale(2 2)" d="M387.414 354.041C395.122 354.266 396.117 363.37 388.994 366.292C380.951 366.612 380.287 355.589 387.414 354.041Z"/><path transform="scale(2 2)" d="M319.832 288.606C325.736 290.385 351.273 317.451 357.411 323.613C358.774 324.981 359.638 325.897 360.726 327.517C367.685 321.726 373.589 314.493 380.188 308.349C392.277 297.095 390.714 300.714 402.532 312.395L420.637 329.998C425.186 334.661 430.801 338.879 435.137 343.724C438.085 347.018 433.452 354.677 425.877 348.53C421.955 343.026 400.992 324.88 394.966 318.834C393.86 321.982 372.828 343.803 369.708 345.276C368.562 344.014 366.796 342.787 365.203 342.158C364.532 342.226 363.95 342.183 363.28 342.158C361.316 341.066 360.85 340.636 359.524 338.933L358.839 338.386C354.812 335.182 346.852 326.947 342.964 323.115L330.775 310.959C327.044 307.3 323.416 303.931 319.832 300.116C309.347 310.823 298.122 321.685 287.383 332.157L277.877 341.472C274.895 344.393 268.432 352.436 264.361 346.287C261.255 341.595 272.215 332.261 275.91 330.175L276.229 329.998C278.561 326.703 282.192 323.37 285.126 320.479L299.512 306.526C304.052 302.124 314.258 290.331 319.832 288.606Z"/><path fill="#FEDF31" transform="scale(2 2)" d="M365.203 342.158C365.393 341.908 365.916 341.502 366.187 341.278C374.106 335.131 383.396 322.685 391.545 315.32L394.966 318.834C393.86 321.982 372.828 343.803 369.708 345.276C368.562 344.014 366.796 342.787 365.203 342.158Z"/><path fill="#FEC302" transform="scale(2 2)" d="M388.994 313.095C389.938 313.846 390.667 314.509 391.545 315.32C383.396 322.685 374.106 335.131 366.187 341.278C365.916 341.502 365.393 341.908 365.203 342.158C364.532 342.226 363.95 342.183 363.28 342.158C361.316 341.066 360.85 340.636 359.524 338.933C366.702 339.308 384.236 318.515 388.994 313.095Z"/><path transform="scale(2 2)" d="M348.798 304.393C342.307 303.878 341.956 297.375 346.041 295.527C350.9 293.33 361.056 294.404 357.71 302.432C367.87 306.323 361.709 314.244 355.271 310.484C352.581 308.914 352.744 306.997 351.303 304.626C351.247 304.541 349.17 304.526 348.798 304.393Z"/><path fill="#4CB2F4" transform="scale(2 2)" d="M357.71 302.432C367.87 306.323 361.709 314.244 355.271 310.484C352.581 308.914 352.744 306.997 351.303 304.626C351.247 304.541 349.17 304.526 348.798 304.393C352.671 303.931 353.795 305.35 357.71 302.432Z"/><path fill="#FEC302" transform="scale(2 2)" d="M341.077 113.69C341.057 109.07 339.849 95.5791 343.294 93.1576C353.182 86.2089 350.915 110.35 350.897 113.69C353.027 113.717 355.073 113.549 356.797 115.031C358.056 116.113 388.923 171.063 391.754 176.84C395.116 183.702 388.966 185.595 383.427 185.403L383.441 214.289C383.444 220.237 385.99 233.379 377.453 232.687C376.874 237.772 377.919 247.069 377.453 252.568C370.331 248.737 363.43 244.133 356.339 240.19C340.212 231.224 347.311 233.228 332.496 241.481C326.7 244.71 321.017 248.619 315.114 251.592C314.846 246.093 315.15 238.439 315.114 232.687C306.246 233.701 308.734 222.357 308.68 216.913L308.623 185.403C302.85 185.456 299.441 185.739 298.453 179.016C301.276 171.572 312.415 153.99 316.825 146.864C319.89 141.911 324.536 143.717 326.69 148.372C328.749 144.167 336.74 131.732 337.007 129.047C335.873 129.68 335.343 129.991 334.096 130.414C324.025 127.628 331.605 119.316 334.93 113.69C337.131 113.46 338.882 113.587 341.077 113.69ZM330.748 209.886C317.093 223.077 359.681 219.168 362.76 218.968C369.434 218.535 369.217 211.365 363.28 209.886C360.569 211.091 333.249 211.089 330.748 209.886Z"/><path transform="scale(2 2)" d="M341.077 113.69C341.057 109.07 339.849 95.5791 343.294 93.1576C353.182 86.2089 350.915 110.35 350.897 113.69C353.027 113.717 355.073 113.549 356.797 115.031C358.056 116.113 388.923 171.063 391.754 176.84C395.116 183.702 388.966 185.595 383.427 185.403L383.441 214.289C383.444 220.237 385.99 233.379 377.453 232.687C376.063 231.911 373.84 230.475 373.802 228.679C373.481 213.455 373.733 198.185 373.669 182.951C373.65 178.35 375.332 176.333 380.099 176.676C378.762 173.058 375.626 167.763 373.691 164.287L358.529 137.451C356.453 133.765 352.299 126.815 350.897 123.242L341.077 123.242C339.724 124.974 338.114 127.158 337.007 129.047C335.873 129.68 335.343 129.991 334.096 130.414C324.025 127.628 331.605 119.316 334.93 113.69C337.131 113.46 338.882 113.587 341.077 113.69Z"/><path transform="scale(2 2)" d="M298.453 179.016C301.276 171.572 312.415 153.99 316.825 146.864C319.89 141.911 324.536 143.717 326.69 148.372C325.267 154.279 314.382 169.527 311.063 176.676C316.166 176.317 318.367 177.376 318.388 182.963C318.442 197.572 318.395 212.187 318.417 226.795C318.422 230.033 317.544 230.744 315.114 232.687C306.246 233.701 308.734 222.357 308.68 216.913L308.623 185.403C302.85 185.456 299.441 185.739 298.453 179.016Z"/><path transform="scale(2 2)" d="M330.748 201.227L330.718 190.912C330.703 185.2 330.172 180.079 334.581 175.658C340.787 169.434 350.449 169.266 356.686 175.546C361.211 180.101 360.74 185.423 360.741 191.276L360.726 201.227C363.467 202.223 363.901 202.602 365.203 205.155C364.581 206.93 364.06 208.168 363.28 209.886C360.569 211.091 333.249 211.089 330.748 209.886C328.51 207.623 326.313 202.6 330.748 201.227Z"/><path fill="#0893EB" transform="scale(2 2)" d="M340.216 201.227C340.195 196.669 339.52 187.444 341.213 183.49C343.179 178.895 349.33 180.312 350.897 185.403C351.289 189.217 350.873 196.861 350.897 201.227C349.606 201.422 342.046 201.24 340.216 201.227Z"/><path fill="#4CB2F4" transform="scale(2 2)" d="M344.019 201.227C343.953 192.747 342.725 189.798 350.897 185.403C351.289 189.217 350.873 196.861 350.897 201.227C348.694 200.947 346.247 201.114 344.019 201.227Z"/><path fill="#BCDEF6" transform="scale(2 2)" d="M285.715 345.276C287.066 344.261 291.167 339.563 292.73 338.124C299.337 332.039 318.393 311.29 323.079 308.691C330.801 317.066 342.055 326.911 350.464 334.768C353.707 337.798 356.281 341.774 359.253 344.987L359.524 345.276C360.859 343.872 361.691 343.21 363.28 342.158C363.95 342.183 364.532 342.226 365.203 342.158C366.796 342.787 368.562 344.014 369.708 345.276C369.718 346.507 369.76 347.862 369.708 349.082C380.507 352.509 375.329 371.864 375.988 381.287C381.306 381.106 388.373 379.7 388.994 387.025C387.481 390.261 386.147 391.354 382.53 391.32L288.161 391.25C282.767 391.251 275.934 392.191 270.861 390.3C268.213 385.42 270.002 381.52 275.727 381.287C275.117 374.767 275.34 362.548 275.821 356.309C275.878 355.568 277.594 353.368 278.108 352.667C279.021 352.386 280 352.234 280.509 351.486C280.67 347.279 281.808 346.307 285.715 345.276Z"/><path transform="scale(2 2)" d="M363.28 342.158C363.95 342.183 364.532 342.226 365.203 342.158C366.796 342.787 368.562 344.014 369.708 345.276C369.718 346.507 369.76 347.862 369.708 349.082C380.507 352.509 375.329 371.864 375.988 381.287C381.306 381.106 388.373 379.7 388.994 387.025C387.481 390.261 386.147 391.354 382.53 391.32L288.161 391.25C282.767 391.251 275.934 392.191 270.861 390.3C268.213 385.42 270.002 381.52 275.727 381.287C275.117 374.767 275.34 362.548 275.821 356.309C275.878 355.568 277.594 353.368 278.108 352.667C279.021 352.386 280 352.234 280.509 351.486C280.67 347.279 281.808 346.307 285.715 345.276C294.078 347.706 290.318 367.843 290.319 376.298L290.319 381.287L359.524 381.287C359.507 378.058 359.758 373.127 359.524 370.066C359.738 362.153 359.519 353.279 359.524 345.276C360.859 343.872 361.691 343.21 363.28 342.158Z"/><path fill="#EE9804" transform="scale(2 2)" d="M369.708 349.082C380.507 352.509 375.329 371.864 375.988 381.287C373.788 381.02 371.907 381.147 369.708 381.287L369.708 349.082Z"/><path fill="#BCDEF6" transform="scale(2 2)" d="M280.509 351.486L280.509 376.298C280.457 378.067 280.417 379.523 280.509 381.287L275.727 381.287L275.727 381.287C275.117 374.767 275.34 362.548 275.821 356.309C275.878 355.568 277.594 353.368 278.108 352.667C279.021 352.386 280 352.234 280.509 351.486Z"/><path fill="#4CB2F4" transform="scale(2 2)" d="M275.727 376.298C277.502 376.169 278.723 376.222 280.509 376.298C280.457 378.067 280.417 379.523 280.509 381.287L275.727 381.287L275.727 376.298Z"/><path fill="#4CB2F4" transform="scale(2 2)" d="M359.524 380.627C359.404 378.79 358.766 371.37 359.524 370.066C359.758 373.127 359.507 378.058 359.524 381.287L290.319 381.287L290.319 376.298L345.271 376.344C351.67 376.408 351.698 377.843 355.125 373.273L355.279 373.625C353.567 379.112 342.089 375.952 337.69 376.789C335.427 377.219 335.553 379.181 334.978 380.815C337.074 381.504 355.694 380.56 359.524 380.627Z"/><path transform="scale(2 2)" d="M307.961 351.486C300.849 350.802 298.686 342.378 311.697 342.053C324.324 341.738 323.852 350.511 315.114 351.486C312.91 355.305 316.324 355.473 308.623 355.271C308.189 353.702 308.127 353.09 307.961 351.486Z"/><path fill="white" transform="scale(2 2)" d="M307.961 351.486L315.114 351.486C312.91 355.305 316.324 355.473 308.623 355.271C308.189 353.702 308.127 353.09 307.961 351.486Z"/><path transform="scale(2 2)" d="M334.93 360.259C348.88 357.805 351.501 367.26 344.019 369.438C338.927 369.669 325.028 370.803 330.966 361.819C331.787 360.577 333.388 360.421 334.93 360.259Z"/><path transform="scale(2 2)" d="M334.93 342.158C336.686 342.065 338.557 342.197 340.408 342.115C348.742 341.745 350.557 350.997 343.011 351.486C323.703 352.547 328.578 342.615 334.93 342.158Z"/><path transform="scale(2 2)" d="M305.956 360.259C309.368 360.219 312.784 360.128 316.193 360.243C321.839 360.434 322.288 366.418 318.401 369.438C313.503 369.597 301.95 371.304 302.71 363.894C302.911 361.928 304.201 360.979 305.956 360.259Z"/><path transform="scale(2 2)" d="M315.114 251.592C321.017 248.619 326.7 244.71 332.496 241.481C347.311 233.228 340.212 231.224 356.339 240.19C363.43 244.133 370.331 248.737 377.453 252.568C394.286 263.029 411.489 272.959 428.355 283.365C433.591 286.595 433.222 297.966 426.839 301.333C421.018 299.286 421.197 296.193 421.336 290.732L372.996 261.636C363.991 256.24 354.369 250.236 345.234 245.169C340.97 247.48 336.54 250.442 332.369 252.997L283.34 282.615C279.805 284.781 273.891 288.209 270.861 290.732C272.315 305.354 260.009 306.217 261.122 292.299C261.392 288.921 260.782 287.358 261.891 284.282C264.683 281.85 271.171 278.658 274.495 276.422C287.486 267.679 302.327 260.523 315.114 251.592Z"/><path transform="scale(2 2)" d="M253.054 156.265C262.863 155.729 261.139 171.82 255.834 174.249C246.597 174.313 246.921 158.788 253.054 156.265Z"/><path transform="scale(2 2)" d="M254.852 122.108C261.783 122.842 262.207 138.606 254.852 139.899C253.968 140.055 252.937 139.946 252.027 139.899C248.159 135.88 246.282 122.791 254.852 122.108Z"/><path transform="scale(2 2)" d="M266.541 142.501C272.371 142.376 276.827 141.087 278.899 147.59C278.065 150.675 277.305 151.942 274.121 152.741C271.452 152.774 265.96 153.179 263.903 151.835C259.239 148.79 261.657 143.522 266.541 142.501Z"/><path transform="scale(2 2)" d="M236.016 142.501C251.173 141.407 248.545 152.534 240.812 152.741L232.686 152.741C230.47 150.961 230.316 150.245 229.68 147.59C230.733 143.384 231.848 142.553 236.016 142.501Z"/></svg>