<?xml version="1.0" encoding="utf-8" ?><svg xmlns="http://www.w3.org/2000/svg" xmlns:xlink="http://www.w3.org/1999/xlink" width="1024" height="1024" viewBox="0 0 1024 1024"><path fill="#FEC302" transform="scale(2 2)" d="M145.75 210.75C153.394 211.062 163.113 210.757 170.983 210.756L238.095 210.733C254.967 210.72 269.349 213.628 280.273 228.467C287.363 238.098 287.627 244.872 303.584 244.181C316.772 243.611 331.945 245.269 344.86 243.695C365.779 241.144 369.703 204.966 343.394 201.46C333.571 200.182 319.046 201.513 308.646 201.288C282.397 200.211 282.205 159.798 310.626 159.602C321.116 159.529 331.682 159.402 342.206 159.547C389.249 160.196 431.788 194.629 445.931 238.887C448.06 245.557 449.715 248.082 443.838 252.836C444.474 256.246 445.975 265.223 446.015 268.58C449.524 269.632 451.738 270.756 451.931 274.829C452.41 284.969 452.697 304.064 449.562 312.802C441.378 335.618 423.555 341.497 401.543 341.43C400.517 345.076 399.572 348.815 398.055 352.292C377.799 398.693 312.036 390.761 300.468 340.557L236.441 340.557C235.003 344.354 234.116 348.294 232.477 352.028C212.452 397.641 145.763 390.451 135.336 341.43C130.908 341.476 124.332 341.657 120.097 341.131C96.3279 337.949 80.1789 317.655 79.9359 294.08C79.8884 289.478 81.3205 286.661 86.0404 285.458C85.7672 280.447 86.3602 275.643 86.0404 270.708C73.182 263.837 94.2235 231.097 102.785 224.567C103.014 215.028 101.486 189.294 103.774 181.139C108.211 165.331 128.575 160.726 139.864 172.348C146.712 179.397 145.774 186.795 145.766 195.781L145.75 210.75Z"/><path transform="scale(2 2)" d="M446.015 268.58C449.524 269.632 451.738 270.756 451.931 274.829C452.41 284.969 452.697 304.064 449.562 312.802C441.378 335.618 423.555 341.497 401.543 341.43C400.517 345.076 399.572 348.815 398.055 352.292C377.799 398.693 312.036 390.761 300.468 340.557L236.441 340.557C235.003 344.354 234.116 348.294 232.477 352.028C212.452 397.641 145.763 390.451 135.336 341.43C130.908 341.476 124.332 341.657 120.097 341.131C96.3279 337.949 80.1789 317.655 79.9359 294.08C79.8884 289.478 81.3205 286.661 86.0404 285.458C89.0776 285.779 92.967 287.491 92.7581 291.134C91.2537 317.366 110.374 329.973 134.179 328.481C137.974 281.087 195.912 262.573 224.642 298.378C231.659 307.122 236.155 317.267 236.441 328.481L299.653 328.481C305.739 263.843 398.105 265.61 402.308 328.481C404.351 328.515 406.415 328.578 408.453 328.481C417.807 328.612 424.59 326.089 431.205 319.412C449.485 301.305 430.053 273.327 446.015 268.58Z"/><path fill="#BCDEF6" transform="scale(2 2)" d="M152.564 350.511C141.057 335.597 147.731 310.177 162.807 299.688C181.516 286.672 205.229 291.913 217.677 310.195C236.195 340.714 211.754 376.915 176.754 368.57C166.998 366.244 157.389 359.365 152.564 350.511Z"/><path fill="#6CB6EC" transform="scale(2 2)" d="M217.677 310.195C236.195 340.714 211.754 376.915 176.754 368.57C166.998 366.244 157.389 359.365 152.564 350.511C154.383 350.802 157.74 352.798 159.569 353.669C183.215 364.925 217.57 347.556 217.913 321.051C217.955 317.742 217.176 313.05 217.677 310.195Z"/><path transform="scale(2 2)" d="M184.376 319.09C188.512 318.319 192.742 319.83 195.452 323.048C198.162 326.265 198.934 330.691 197.472 334.635C196.01 338.579 192.54 341.433 188.388 342.107C182.072 343.131 176.107 338.884 175.008 332.58C173.909 326.277 178.086 320.262 184.376 319.09Z"/><path fill="#BCDEF6" transform="scale(2 2)" d="M317.765 350.719C307.753 333.654 312.274 311.781 328.23 300.082C344.186 288.384 366.405 290.652 379.669 305.333C389.54 316.26 392.331 331.853 386.862 345.526C381.392 359.198 368.617 368.564 353.933 369.668C339.249 370.771 325.217 363.42 317.765 350.719Z"/><path fill="#6CB6EC" transform="scale(2 2)" d="M379.669 305.333C389.54 316.26 392.331 331.853 386.862 345.526C381.392 359.198 368.617 368.564 353.933 369.668C339.249 370.771 325.217 363.42 317.765 350.719C319.298 350.864 323.489 353.108 325.01 353.862C355.558 368.998 384.38 347.123 381.358 315.51C381.031 312.085 379.824 308.668 379.669 305.333Z"/><path transform="scale(2 2)" d="M350.541 319.69C356.77 318.895 362.463 323.304 363.25 329.534C364.038 335.764 359.621 341.452 353.39 342.231C347.17 343.01 341.495 338.603 340.709 332.383C339.922 326.164 344.323 320.484 350.541 319.69Z"/><path transform="scale(2 2)" d="M145.75 210.75C153.394 211.062 163.113 210.757 170.983 210.756L238.095 210.733C254.967 210.72 269.349 213.628 280.273 228.467C287.363 238.098 287.627 244.872 303.584 244.181C316.772 243.611 331.945 245.269 344.86 243.695C365.779 241.144 369.703 204.966 343.394 201.46C333.571 200.182 319.046 201.513 308.646 201.288C282.397 200.211 282.205 159.798 310.626 159.602C321.116 159.529 331.682 159.402 342.206 159.547C389.249 160.196 431.788 194.629 445.931 238.887C448.06 245.557 449.715 248.082 443.838 252.836C435.885 255.608 434.739 243.825 432.734 238.564C419.449 203.705 382.954 173.036 344.852 172.243L320.651 172.225C314.847 172.225 299.959 170.743 301.15 180.878C302.268 190.389 311.275 188.926 317.918 188.931L333.751 188.912C338.974 188.902 344.328 188.677 349.411 189.888C373.275 195.568 382.75 225.785 366.8 244.31C353.863 259.336 338.327 256.494 320.693 256.468L306.566 256.484C287.476 256.553 280.254 253.61 269.908 235.717C262.015 222.067 239.848 223.268 226.855 223.267L156.363 223.27C150.103 223.266 142.092 222.897 135.984 223.413C116.934 225.024 99.2018 239.833 95.6393 258.89C94.2225 266.104 95.285 271.431 86.0404 270.708C73.182 263.837 94.2235 231.097 102.785 224.567C103.014 215.028 101.486 189.294 103.774 181.139C108.211 165.331 128.575 160.726 139.864 172.348C146.712 179.397 145.774 186.795 145.766 195.781L145.75 210.75Z"/><path fill="#6CB6EC" transform="scale(2 2)" d="M115.366 216.108L115.339 196.125C115.326 187.689 114.327 176.621 126.443 178.604C136.561 181.654 133.276 201.799 133.017 210.75C129.619 211.604 125.248 212.545 122.023 213.623L115.366 216.108Z"/><path fill="#BCDEF6" transform="scale(2 2)" d="M115.366 216.108L115.339 196.125C115.326 187.689 114.327 176.621 126.443 178.604C125.719 180.678 122.783 183.874 122.618 185.218C121.585 193.611 122.011 205.301 122.023 213.623L115.366 216.108Z"/><path fill="#FBA906" transform="scale(2 2)" d="M344.852 172.243C382.954 173.036 419.449 203.705 432.734 238.564C434.739 243.825 435.885 255.608 443.838 252.836C444.474 256.246 445.975 265.223 446.015 268.58C430.053 273.327 449.485 301.305 431.205 319.412C424.59 326.089 417.807 328.612 408.453 328.481C408.923 327.546 409.851 326.239 410.508 325.376C421.219 311.285 421.186 301.494 421.121 284.364C420.955 276.108 421.5 267.144 420.473 258.949C415.79 221.569 382.88 180.544 344.852 172.243Z"/><path transform="scale(2 2)" d="M343.949 128.378C381.299 125.556 431.328 153.924 454.04 181.553C456.412 184.438 461.01 189.014 462.752 192.056C462.785 196.123 462.026 198.235 457.909 199.66C451.909 200.926 450.304 196.55 446.995 192.39C423.289 162.531 385.274 143.16 347.256 141.097C336.709 140.524 335.76 130.794 343.949 128.378Z"/><path transform="scale(2 2)" d="M75.2557 224.567C82.2601 223.5 89.7879 233.47 75.3436 237.755C64.4795 240.978 59.4324 255.439 65.5648 264.866C67.3893 267.661 69.3473 268.611 70.2267 271.974L70.3144 272.323C69.6351 275.437 69.201 277.209 66.0945 278.617C49.6375 282.637 38.6702 232.199 75.2557 224.567Z"/><path transform="scale(2 2)" d="M308.945 130.821C312.964 130.449 314.811 131.667 316.736 135.101C317.027 142.699 313.017 142.967 306.602 144.206C296.867 146.087 289.099 149.369 280.05 152.96C274.699 154.251 268.943 149.09 272.502 143.785C276.447 137.906 301.736 132.166 308.945 130.821Z"/><path transform="scale(2 2)" d="M258.132 357.011C262.457 356.973 279.779 356.272 282.694 357.861C289.069 361.337 286.075 368.8 280.05 370.202C275.489 370.21 257.449 371.046 254.437 368.972C249.898 365.848 250.763 357.853 258.132 357.011Z"/></svg>