<?xml version="1.0" encoding="utf-8" ?><svg xmlns="http://www.w3.org/2000/svg" xmlns:xlink="http://www.w3.org/1999/xlink" width="1024" height="1024" viewBox="0 0 1024 1024"><path fill="#BCDEF6" transform="scale(2 2)" d="M113.415 293.319C98.7425 284.666 102.255 276.535 109.637 264.331L118.128 250.034C122.716 242.19 127.222 233.134 131.9 225.608C138.353 215.228 151.526 212.748 161.673 219.335C167.269 222.968 176.783 241.692 180.516 248.299C187.996 261.44 208.076 282.921 186.026 293.319C190.038 300.444 198.682 310.194 187.542 314.501C191.234 317.79 195.841 323.164 198.307 327.492C211.19 320.202 216.793 347.619 199.632 356.651C194.133 359.545 188.993 359.037 183.067 359.024L168.683 359.006L168.683 379.75L269.039 379.75L269.733 379.445C273.046 374.439 276.386 372.257 277.967 366.02C283.384 344.656 264.411 340.196 261.803 334.33C256.6 336.67 254.743 334.938 251.143 331.05C247.141 326.061 228.343 313.477 244.678 308.795C244.67 307.954 242.119 302.23 241.644 300.659C240.463 296.747 240.277 293.082 239.436 289.195L239.376 288.925C236.478 292.298 233.739 293.878 229.419 291.89C221.823 288.396 226.873 263.825 229.553 258.38C232.674 252.041 240.678 254.08 242.623 260.782C246.092 256.479 249.239 249.32 254.093 246.09C252.769 245.523 250.722 244.186 250.041 242.937C243.028 230.003 283.525 215.874 276.9 235.739C283.462 235.732 291.077 235.496 297.435 236.668C302.022 239.169 306.373 238.385 311.481 238.367L397.767 238.352C402.481 238.352 417.334 237.638 420.993 238.887C425.948 240.577 427.933 247.177 425.208 251.491C421.074 258.038 409.727 250.122 406.957 260.01L406.74 260.782C402.068 260.8 392.081 261.143 387.956 260.782C388.019 263.829 386.51 268.282 383.136 268.625C372.786 269.619 362.176 268.873 351.759 269.174C344.889 269.372 336.427 270.657 337.069 260.782C335.27 260.69 320.569 260.596 319.659 260.89L319.449 262.066C318.212 269.022 313.485 268.752 307.754 268.682L294.282 268.583C291.218 268.563 286.938 268.33 284.02 268.92C274.85 270.833 269.739 283.434 275.084 291.182C279.257 297.23 290.889 303.815 287.101 311.501C294.603 313.776 298.486 318.053 305.144 321.455C317.692 327.867 330.835 331.908 344.609 334.665C348.502 335.444 354.568 335.38 357.569 338.282C357.413 334.276 359.12 330.089 363.712 329.901C370.053 329.641 426.137 330.563 408.819 347.852C415.094 350.212 417.87 356.164 421.921 359.006C438.797 349.558 446.639 406.252 426.885 396.814C426.478 402.639 424.017 408.558 421.162 413.596C426.002 418.58 423.011 422.942 418.806 426.784C412.229 432.793 389.24 447.486 385.906 431.291C381.26 432.162 372.641 432.832 367.77 432.796C367.153 438.868 362.978 439.479 357.987 439.496L331.625 439.501C323.803 439.508 312.417 442.276 312.82 431.291L312.608 430.743C308.87 431.684 299.865 431.404 295.644 431.431L295.409 432.796C293.718 440.748 288.941 439.501 282.414 439.509L252.251 439.511C245.725 439.507 233.833 441.388 236.206 431.013C232.431 430.919 223.68 430.805 220.035 431.179C219.698 431.918 219.887 432.234 219.697 432.796C218.261 442.463 196.835 442.718 195.528 432.796C190.392 432.868 183.774 432.92 178.686 432.667L178.428 433.01C177.764 437.074 175.223 439.555 170.984 439.525C159.187 439.443 147.386 439.497 135.589 439.514C94.2 439.574 93.766 381.164 130.642 379.75L130.642 359.006C116.154 359.309 95.9732 362.408 90.2526 346.181C87.5733 338.582 89.4416 320.776 101.468 327.492C104.932 323.067 107.709 318.832 111.008 314.501C101.889 307.136 109.012 301.564 113.415 293.319ZM158.837 236.668C155.766 233.01 154.466 226.976 147.089 229.571C144.236 230.575 142.973 233.111 141.874 235.739C144.091 244.979 153.475 242.471 158.837 236.668Z"/><path fill="#FEC302" transform="scale(2 2)" d="M113.415 293.319C98.7425 284.666 102.255 276.535 109.637 264.331L118.128 250.034C122.716 242.19 127.222 233.134 131.9 225.608C138.353 215.228 151.526 212.748 161.673 219.335C167.269 222.968 176.783 241.692 180.516 248.299C187.996 261.44 208.076 282.921 186.026 293.319C190.038 300.444 198.682 310.194 187.542 314.501C191.234 317.79 195.841 323.164 198.307 327.492C193.223 330.978 195.979 334.741 197.023 339.148C194.939 348.326 184.275 345.346 176.077 345.345L111.991 345.342C107.305 345.337 105.11 345.995 102.731 341.27C103.182 335.971 105.376 332.064 101.468 327.492C104.932 323.067 107.709 318.832 111.008 314.501C101.889 307.136 109.012 301.564 113.415 293.319ZM158.837 236.668C155.766 233.01 154.466 226.976 147.089 229.571C144.236 230.575 142.973 233.111 141.874 235.739C144.091 244.979 153.475 242.471 158.837 236.668Z"/><path transform="scale(2 2)" d="M113.415 293.319C98.7425 284.666 102.255 276.535 109.637 264.331L118.128 250.034C122.716 242.19 127.222 233.134 131.9 225.608C138.353 215.228 151.526 212.748 161.673 219.335C167.269 222.968 176.783 241.692 180.516 248.299C187.996 261.44 208.076 282.921 186.026 293.319C190.038 300.444 198.682 310.194 187.542 314.501C185.44 314.537 182.838 314.263 181.536 312.368C178.908 308.545 170.066 293.659 168.514 289.381C166.297 283.267 172.484 277.927 179.816 282.224C180.948 281.686 182.266 280.784 183.346 280.098C177.539 267.099 162.662 248.347 158.837 236.668C155.766 233.01 154.466 226.976 147.089 229.571C144.236 230.575 142.973 233.111 141.874 235.739C134.191 250.444 125.166 264.526 116.809 278.874C117.98 280.301 118.78 281.112 120.296 282.224C125.523 278.168 130.628 279.946 132.119 286.664C130.709 292.142 124.407 300.075 121.872 305.648C119.474 310.922 117.323 314.827 111.008 314.501C101.889 307.136 109.012 301.564 113.415 293.319Z"/><path transform="scale(2 2)" d="M130.642 359.006C116.154 359.309 95.9732 362.408 90.2526 346.181C87.5733 338.582 89.4416 320.776 101.468 327.492C105.376 332.064 103.182 335.971 102.731 341.27C105.11 345.995 107.305 345.337 111.991 345.342L176.077 345.345C184.275 345.346 194.939 348.326 197.023 339.148C195.979 334.741 193.223 330.978 198.307 327.492C211.19 320.202 216.793 347.619 199.632 356.651C194.133 359.545 188.993 359.037 183.067 359.024L168.683 359.006L168.683 379.75L269.039 379.75L284.174 379.773C285.866 379.778 288.823 379.666 290.395 379.787C305.914 380.981 313.183 364.3 302.988 353.15C299.542 349.404 291.454 349.579 291.784 343.242C292.999 319.905 343.253 358.753 311.937 386.678C303.043 394.591 293.298 393.353 282.136 393.344L158.036 393.325C152.126 393.321 130.855 392.629 126.685 394.123C110.364 399.968 116.278 424.707 132.962 425.712C141.783 426.243 151.999 425.77 160.95 425.765C167.428 425.762 177.702 423.96 178.428 433.01C177.764 437.074 175.223 439.555 170.984 439.525C159.187 439.443 147.386 439.497 135.589 439.514C94.2 439.574 93.766 381.164 130.642 379.75L130.642 359.006Z"/><path fill="#CF701E" transform="scale(2 2)" d="M145.098 359.006L155.095 359.006C155.09 361.531 155.346 378.756 154.867 379.685L154.062 379.75L144.009 379.75C144.02 377.053 143.697 360.345 144.245 359.167L145.098 359.006Z"/><path transform="scale(2 2)" d="M287.101 311.501C276.174 321.831 260.816 296.837 259.547 287.745C257.386 272.266 267.459 257.044 283.406 255.189C289.499 254.758 295.709 255.145 301.851 255.161C308.563 255.18 318.472 252.575 319.449 262.066C318.212 269.022 313.485 268.752 307.754 268.682L294.282 268.583C291.218 268.563 286.938 268.33 284.02 268.92C274.85 270.833 269.739 283.434 275.084 291.182C279.257 297.23 290.889 303.815 287.101 311.501Z"/><path transform="scale(2 2)" d="M236.206 431.013C236.94 427.809 238.503 425.946 242.105 425.928C258.159 425.851 274.574 425.245 290.572 426.261C293.471 426.446 295.119 430.153 295.409 432.796C293.718 440.748 288.941 439.501 282.414 439.509L252.251 439.511C245.725 439.507 233.833 441.388 236.206 431.013Z"/><path transform="scale(2 2)" d="M357.569 338.282C357.413 334.276 359.12 330.089 363.712 329.901C370.053 329.641 426.137 330.563 408.819 347.852C402.903 351.177 401.107 348.09 395.359 346.242C387.553 343.733 379.734 343.484 371.629 343.72C364.563 343.926 361.052 344.96 357.569 338.282Z"/><path transform="scale(2 2)" d="M312.82 431.291C313.668 429.22 314.669 427.197 316.864 426.309C319.244 425.346 355.288 425.55 360.375 425.813C364.874 426.046 367.085 428.178 367.77 432.796C367.153 438.868 362.978 439.479 357.987 439.496L331.625 439.501C323.803 439.508 312.417 442.276 312.82 431.291Z"/><path transform="scale(2 2)" d="M337.069 260.782C338.326 256.651 340.072 255.505 344.19 255.235C348.861 254.929 380.43 254.693 383.217 255.586C385.644 256.364 387.128 258.492 387.956 260.782C388.019 263.829 386.51 268.282 383.136 268.625C372.786 269.619 362.176 268.873 351.759 269.174C344.889 269.372 336.427 270.657 337.069 260.782Z"/><path transform="scale(2 2)" d="M421.921 359.006C438.797 349.558 446.639 406.252 426.885 396.814C420.857 391.466 426.789 381.374 421.231 370.373C419.049 366.052 417.725 362.594 421.921 359.006Z"/><path transform="scale(2 2)" d="M385.906 431.291C388.193 423.08 399.115 424.877 406.351 419.261C411.491 415.271 413.699 408.967 421.162 413.596C426.002 418.58 423.011 422.942 418.806 426.784C412.229 432.793 389.24 447.486 385.906 431.291Z"/><path transform="scale(2 2)" d="M239.376 288.925C236.478 292.298 233.739 293.878 229.419 291.89C221.823 288.396 226.873 263.825 229.553 258.38C232.674 252.041 240.678 254.08 242.623 260.782C241.35 266.969 239.977 269.982 239.455 276.709C239.171 280.364 239.726 286.147 239.376 288.925Z"/><path transform="scale(2 2)" d="M244.678 308.795C246.531 309.016 248.335 309.355 249.71 310.757C255.03 316.187 271.601 326.943 261.803 334.33C256.6 336.67 254.743 334.938 251.143 331.05C247.141 326.061 228.343 313.477 244.678 308.795Z"/><path transform="scale(2 2)" d="M254.093 246.09C252.769 245.523 250.722 244.186 250.041 242.937C243.028 230.003 283.525 215.874 276.9 235.739C274.102 238.387 257.737 246.67 254.093 246.09Z"/><path transform="scale(2 2)" d="M195.528 432.796C197.282 422.003 218.575 422.881 219.697 432.796C218.261 442.463 196.835 442.718 195.528 432.796Z"/><path transform="scale(2 2)" d="M387.956 160.954C381.665 154.474 382.662 147.559 387.105 140.574C391.26 134.043 394.696 126.88 398.685 120.248C403.714 111.884 415.141 111.06 421.66 118.111C425.285 122.032 430.339 132.709 433.376 137.668C438.917 146.72 440.113 152.032 433.594 160.954C436.785 164.961 437.843 168.702 440.268 172.935C442.233 175.681 444.825 177.288 446.018 180.641C453.17 200.743 430.164 201.879 417.499 201.873C417.494 204.319 417.15 223.735 417.831 224.296C419.186 225.413 422.632 225.373 424.409 225.818C445.844 231.175 444.598 264.606 422.553 268.146C415.78 269.233 407.094 269.563 406.74 260.782L406.957 260.01C409.727 250.122 421.074 258.038 425.208 251.491C427.933 247.177 425.948 240.577 420.993 238.887C417.334 237.638 402.481 238.352 397.767 238.352L311.481 238.367C306.373 238.385 302.022 239.169 297.435 236.668C290.434 222.812 306.754 224.728 314.584 224.734L403.893 224.75C403.755 217.183 404.09 209.363 403.893 201.873C393.336 201.909 376.602 204.144 374.543 189.892C373.521 182.816 376.884 178.108 382.246 173.96C382.206 169.552 385.349 164.446 387.956 160.954Z"/><path fill="#FEC302" transform="scale(2 2)" d="M410.752 127.142C413.1 128.255 422.673 145.679 423.888 150.441L423.613 150.478C409.604 152.256 422.829 167.337 425.666 173.039L425.876 173.468C417.941 183.935 433.183 184.513 433.496 186.603C431.568 188.973 414.474 188.011 410.752 188.008L394.632 188.004C393.069 187.997 389.228 188.146 388.171 187.08L388.255 186.571C391.743 183.334 402.043 183.092 395.663 173.774L395.45 173.468C398.963 167.059 413.278 151.374 397.429 150.441C399.801 145.23 407.454 131.69 410.752 127.142Z"/><path fill="#FEC302" transform="scale(2 2)" d="M97.4994 139.304C90.8149 137.631 90.0478 133.954 89.7575 127.39C88.4899 98.7302 124.535 84.8278 144.195 103.884C149.104 108.642 155.056 114.771 148.838 121.118C152.836 135.958 141.315 150.325 127.45 154.118C125.905 154.541 124.467 154.699 122.896 154.356C113.771 154.113 100.161 148.754 97.4994 139.304Z"/><path transform="scale(2 2)" d="M97.4994 139.304C90.8149 137.631 90.0478 133.954 89.7575 127.39C88.4899 98.7302 124.535 84.8278 144.195 103.884C149.104 108.642 155.056 114.771 148.838 121.118C140.868 124.872 140.126 119.27 136.078 114.633C127.12 104.372 109.26 107.182 104.35 120.172C101.915 126.613 105.066 130.228 103.563 135.771C101.573 138.283 100.508 138.572 97.4994 139.304Z"/><path fill="#BCDEF6" transform="scale(2 2)" d="M103.563 135.771C107.798 137.925 119.099 150.371 122.896 154.356C113.771 154.113 100.161 148.754 97.4994 139.304C100.508 138.572 101.573 138.283 103.563 135.771Z"/><path transform="scale(2 2)" d="M236.206 197.558C243.832 197.265 247.146 206.732 237.196 212.178C225.063 218.818 215.048 228.622 205.813 238.754C205.139 239.494 203.349 239.783 202.3 239.995C196.414 240.265 193.107 233.714 196.194 228.94C202.146 219.734 227.21 199.518 236.206 197.558Z"/><path transform="scale(2 2)" d="M265.91 188.008L290.524 187.997C299.136 187.996 308.799 185.366 311.425 194.816C310.147 199.619 308.53 201.535 303.458 201.873L278.182 201.876C273.681 201.874 269.322 201.926 264.769 201.664C257.164 201.228 255.525 189.042 265.91 188.008Z"/><path transform="scale(2 2)" d="M334.703 188.008C338.012 187.71 351.434 187.702 354.208 188.839C359.684 191.083 359.489 199.897 351.993 201.873C347.399 202.088 335.149 202.815 331.189 200.553C325.558 197.335 327.753 189.162 334.703 188.008Z"/><path transform="scale(2 2)" d="M158.837 139.304C167.074 138.71 177.059 152.269 166.64 156.76C158.223 158.256 147.836 144.192 158.837 139.304Z"/><path transform="scale(2 2)" d="M163.349 92.5192C175.951 91.5574 171.714 106.85 162.263 109.728C149.287 110.45 153.972 95.8122 163.349 92.5192Z"/><path transform="scale(2 2)" d="M119.727 70.7676C130.522 70.2637 130.916 85.8708 122.896 88.7689C112.376 91.4392 111.107 73.4674 119.727 70.7676Z"/><path transform="scale(2 2)" d="M119.727 158.763C129.88 158.022 130.239 173.758 122.896 176.635C112.232 178.393 109.71 161.998 119.727 158.763Z"/><path transform="scale(2 2)" d="M76.9985 90.2548C85.5208 89.9935 93.9182 101.811 83.5092 106.372C77.7727 107.234 73.1053 102.238 71.5998 97.1462C72.5346 93.2717 73.0557 91.6141 76.9985 90.2548Z"/><path transform="scale(2 2)" d="M79.4183 135.771C84.3263 135.512 86.1935 138.711 87.3289 142.871L87.245 143.216C86.109 147.76 83.2482 149.099 79.4183 151.403C67.6731 152.37 67.7709 140.115 79.4183 135.771Z"/></svg>