<?xml version="1.0" encoding="utf-8" ?><svg xmlns="http://www.w3.org/2000/svg" xmlns:xlink="http://www.w3.org/1999/xlink" width="1024" height="1024" viewBox="0 0 1024 1024"><path transform="scale(2 2)" d="M260.51 117.746C241.08 117.392 220.384 117.746 200.855 117.749L185.267 117.753C179.564 117.755 170.072 119.298 169.549 111.607C168.946 102.749 179.174 104.369 184.426 104.395L324.131 104.409C333.06 104.415 342.107 104.401 351.031 104.299C356.993 104.577 366.124 117.889 344.9 117.773L278.036 117.746C276.282 119.637 274.205 122.371 272.505 124.423L256.968 143.436C254.255 146.75 251.234 150.692 248.323 153.749C252.604 156.351 254.13 159.191 251.824 163.854C258.832 164.068 266.222 164.24 273.22 163.854C265.789 151.497 284.064 154.133 289.457 153.756C313.05 151.642 313.594 162.508 320.957 179.989L369.476 179.997C401.482 179.996 421.811 180.128 421.827 217.524L421.858 296.397C421.824 301.673 419.684 303.242 414.801 304.388C414.619 310.005 415.077 316.314 414.801 321.721C430.222 326.475 417.493 347.293 404.252 351.297C404.347 366.931 399.669 381.307 380.66 381.274L367.847 381.294C365.373 381.318 361.517 381.473 359.138 381.247L359.36 381.552C362.948 386.435 371.413 391.555 371.021 397.665C370.743 402.01 364.106 405.129 360.846 402.113C354.102 395.876 346.849 388.153 340.913 381.247L317.975 381.202C310.57 381.241 294.745 383.944 295.259 373.026C290.272 373.198 284.12 372.992 279.07 372.896L278.837 374.095C277.876 382.863 268.473 380.902 262.046 380.862L171.754 380.848C164.667 387.65 158.069 395.417 150.83 402.089C147.096 405.531 140.064 401.454 139.983 396.788C139.81 391.653 148.745 384.542 152.289 380.848C144.228 380.637 124.81 382.387 118.264 378.936C108.494 373.786 108.832 360.322 105.7 350.921L105.599 350.626C95.8281 346.629 83.3878 329.421 96.0288 324.184C95.6177 319.752 96.3541 313.195 96.0288 308.391C89.2069 306.105 90.0555 301.336 90.0188 295.266L90.0121 219.143C90.0167 202.677 94.3518 184.67 113.885 181.018C122.916 179.329 134.563 179.997 143.962 179.998L191.602 179.989C199.75 161.728 197.754 153.677 219.893 153.737L231.287 153.749C237.521 147.054 256.218 124.997 260.51 117.746Z"/><path transform="scale(2 2)" d="M222.444 337.752C217.673 329.437 218.982 323.328 218.999 313.973L219.103 226.994C219.124 218.414 225.76 210.01 234.567 209.651C248.172 209.097 262.674 209.534 276.319 209.502C295.472 209.458 293.417 231.364 293.415 244.034L293.403 309.56C293.403 318.838 294.908 329.21 290.646 337.752L320.942 337.74C329.5 337.736 339.549 334.913 340.913 345.809C346.067 345.799 351.838 345.675 356.942 345.809C356.988 336.721 364.182 337.71 370.611 337.723L390.165 337.761C419.542 337.82 398.985 324.969 414.801 321.721C430.222 326.475 417.493 347.293 404.252 351.297C404.347 366.931 399.669 381.307 380.66 381.274L367.847 381.294C365.373 381.318 361.517 381.473 359.138 381.247L359.36 381.552C362.948 386.435 371.413 391.555 371.021 397.665C370.743 402.01 364.106 405.129 360.846 402.113C354.102 395.876 346.849 388.153 340.913 381.247L317.975 381.202C310.57 381.241 294.745 383.944 295.259 373.026C290.272 373.198 284.12 372.992 279.07 372.896L278.837 374.095C277.876 382.863 268.473 380.902 262.046 380.862L171.754 380.848C164.667 387.65 158.069 395.417 150.83 402.089C147.096 405.531 140.064 401.454 139.983 396.788C139.81 391.653 148.745 384.542 152.289 380.848C144.228 380.637 124.81 382.387 118.264 378.936C108.494 373.786 108.832 360.322 105.7 350.921L105.599 350.626C95.8281 346.629 83.3878 329.421 96.0288 324.184C103.056 323.889 104.443 327.065 104.849 333.385C109.807 339.486 118.135 337.772 125.217 337.767L222.444 337.752Z"/><path fill="#4FAAE1" transform="scale(2 2)" d="M414.801 321.721C430.222 326.475 417.493 347.293 404.252 351.297C404.347 366.931 399.669 381.307 380.66 381.274L367.847 381.294C365.373 381.318 361.517 381.473 359.138 381.247L359.36 381.552C362.948 386.435 371.413 391.555 371.021 397.665C370.743 402.01 364.106 405.129 360.846 402.113C354.102 395.876 346.849 388.153 340.913 381.247L317.975 381.202C310.57 381.241 294.745 383.944 295.259 373.026C290.272 373.198 284.12 372.992 279.07 372.896L278.837 374.095C278.362 363.868 262.326 366.93 254.468 366.933L124.476 366.938C123.212 361.699 121.88 356.515 120.534 351.297L321.875 351.28C329.191 351.281 337.138 353.994 340.913 345.809C346.067 345.799 351.838 345.675 356.942 345.809C356.988 336.721 364.182 337.71 370.611 337.723L390.165 337.761C419.542 337.82 398.985 324.969 414.801 321.721Z"/><path transform="scale(2 2)" d="M414.801 321.721C430.222 326.475 417.493 347.293 404.252 351.297C404.347 366.931 399.669 381.307 380.66 381.274L367.847 381.294C365.373 381.318 361.517 381.473 359.138 381.247L359.36 381.552C362.948 386.435 371.413 391.555 371.021 397.665C370.743 402.01 364.106 405.129 360.846 402.113C354.102 395.876 346.849 388.153 340.913 381.247L317.975 381.202C310.57 381.241 294.745 383.944 295.259 373.026C297.847 364.099 308.068 366.939 316.455 366.947L374.877 366.956C389.034 366.994 390.488 365.489 390.302 351.297C385.373 351.567 379.346 351.146 374.302 351.306C366.747 351.205 360.667 354.007 356.942 345.809C356.988 336.721 364.182 337.71 370.611 337.723L390.165 337.761C419.542 337.82 398.985 324.969 414.801 321.721Z"/><path fill="#BCDEF6" transform="scale(2 2)" d="M263.305 222.636C267.891 222.596 279.052 220.806 280.063 226.64C280.063 235.011 280.182 243.657 280.063 252.002C280.075 258.649 280.208 265.761 280.063 272.367L280.07 310.14C280.068 328.869 284.635 337.897 262.076 337.765C250.165 337.312 232.425 342.338 232.427 325.092L232.466 314.532L232.466 297.207L232.466 272.367L232.466 263.03C231.44 252.391 232.788 239.507 232.296 228.311C231.97 220.903 239.957 222.601 244.988 222.611L263.305 222.636Z"/><path fill="white" transform="scale(2 2)" d="M263.305 222.636C267.891 222.596 279.052 220.806 280.063 226.64C280.063 235.011 280.182 243.657 280.063 252.002C278.353 252.504 232.995 295.456 232.466 297.207L232.466 272.367L232.466 263.03C231.44 252.391 232.788 239.507 232.296 228.311C231.97 220.903 239.957 222.601 244.988 222.611L263.305 222.636Z"/><path fill="#BCDEF6" transform="scale(2 2)" d="M232.466 272.367C234.425 271.161 240.143 265.207 242.137 263.216L260.842 244.539C265.312 240.012 275.129 229.527 280.063 226.64C280.063 235.011 280.182 243.657 280.063 252.002C278.353 252.504 232.995 295.456 232.466 297.207L232.466 272.367Z"/><path fill="#BCDEF6" transform="scale(2 2)" d="M232.466 263.03C231.44 252.391 232.788 239.507 232.296 228.311C231.97 220.903 239.957 222.601 244.988 222.611L263.305 222.636C256.566 230.807 246.217 239.403 238.575 247.103C236.839 248.852 234.453 251.41 232.466 252.77C232.489 255.248 232.684 260.8 232.466 263.03Z"/><path fill="white" transform="scale(2 2)" d="M232.466 297.207C232.995 295.456 278.353 252.504 280.063 252.002C280.075 258.649 280.208 265.761 280.063 272.367C277.086 273.061 276.286 275.492 273.22 277.184C264.245 270.934 261.769 279.65 261.824 286.979C260.043 287.779 256.842 291.163 255.287 292.682L241.061 306.659C238.487 309.181 235.415 312.572 232.466 314.532L232.466 297.207Z"/><path transform="scale(2 2)" d="M261.824 286.979C261.769 279.65 264.245 270.934 273.22 277.184C276.721 281.472 278.484 302.773 267.385 301.551C260.675 300.811 261.773 292.039 261.824 286.979Z"/><defs><linearGradient id="gradient_0" gradientUnits="userSpaceOnUse" x1="265.07712" y1="184.39754" x2="252.88591" y2="347.56384"><stop offset="0" stop-color="#FFA309"/><stop offset="1" stop-color="#FED709"/></linearGradient></defs><path fill="url(#gradient_0)" transform="scale(2 2)" d="M103.945 209.438C106.68 197.188 114.168 194.162 125.054 193.463L389.925 193.497C399.71 193.547 406.436 199.928 408.037 209.438C399.951 209.534 380.397 205.904 380.882 217.17L365.864 217.17C356.411 206.753 348.063 209.314 335.005 209.46C327.065 209.548 318.711 207.856 312.305 213.794C303.541 221.917 306.223 242.444 306.296 253.88C306.382 267.469 303.842 286.906 323.671 286.986L408.037 286.979C407.977 294.483 406.032 301.78 414.801 304.388C414.619 310.005 415.077 316.314 414.801 321.721C398.985 324.969 419.542 337.82 390.165 337.761L370.611 337.723C364.182 337.71 356.988 336.721 356.942 345.809C351.838 345.675 346.067 345.799 340.913 345.809C339.549 334.913 329.5 337.736 320.942 337.74L290.646 337.752C294.908 329.21 293.403 318.838 293.403 309.56L293.415 244.034C293.417 231.364 295.472 209.458 276.319 209.502C262.674 209.534 248.172 209.097 234.567 209.651C225.76 210.01 219.124 218.414 219.103 226.994L218.999 313.973C218.982 323.328 217.673 329.437 222.444 337.752L125.217 337.767C118.135 337.772 109.807 339.486 104.849 333.385C104.443 327.065 103.056 323.889 96.0288 324.184C95.6177 319.752 96.3541 313.195 96.0288 308.391C106.822 308.2 103.975 295.171 103.945 286.979L181.246 286.987C193.409 286.986 205.664 285.741 205.739 270.085C205.802 256.865 205.767 243.582 205.759 230.355C205.746 207.014 190.19 209.614 171.873 209.437C159.911 209.322 155.415 208.017 146.422 216.496C141.957 216.199 133.666 216.511 128.86 216.496C126.188 205.337 111.946 210.906 103.945 209.438Z"/><path fill="#9E9D9D" transform="scale(2 2)" d="M251.824 163.854C258.832 164.068 266.222 164.24 273.22 163.854C276.594 168.902 293.178 166.759 299.506 166.776C302.882 169.356 305.317 175.999 306.305 179.989L205.756 179.989C207.718 176.323 210.197 169.356 212.56 166.776L235.65 166.789C242.202 166.791 247.052 168.308 251.824 163.854Z"/><path fill="white" transform="scale(2 2)" d="M128.86 216.496C133.666 216.511 141.957 216.199 146.422 216.496C141.955 223.875 142.69 229.015 142.733 237.459C133.021 242.085 109.806 272.851 103.945 273.494C103.719 272.867 103.944 257.692 103.945 255.891C104.566 252.856 130.474 229.99 134.673 223.345C131.252 221.352 129.249 222.006 127.569 220.907C128.606 219.228 128.651 218.401 128.86 216.496Z"/><path fill="#BCDEF6" transform="scale(2 2)" d="M365.864 217.17L380.882 217.17L380.882 217.978C385.174 225.71 398.818 223.225 407.39 222.636C404.237 223.304 379.879 249.045 376.762 252.259C375.494 253.567 369.032 259.301 368.566 260.23L368.566 228.819C368.788 223.415 368.2 221.994 365.864 217.17Z"/><path fill="white" transform="scale(2 2)" d="M365.864 217.17L380.882 217.17L380.882 217.978C379.164 219.941 370.547 228.966 368.812 229.337L368.566 228.819C368.788 223.415 368.2 221.994 365.864 217.17Z"/><path fill="white" transform="scale(2 2)" d="M407.39 222.636L407.86 222.833C408.196 224.096 408.041 238.524 408.037 240.885C404.525 243.831 376.43 271.062 375.492 273.494C373.193 273.533 370.867 273.504 368.566 273.494C368.452 269.256 368.563 264.51 368.566 260.23C369.032 259.301 375.494 253.567 376.762 252.259C379.879 249.045 404.237 223.304 407.39 222.636Z"/><path fill="#BCDEF6" transform="scale(2 2)" d="M103.945 273.494C109.806 272.851 133.021 242.085 142.733 237.459L142.718 256.22C142.714 261.516 142.288 268.571 143.633 273.494L103.945 273.494Z"/><path fill="#BCDEF6" transform="scale(2 2)" d="M375.492 273.494C376.43 271.062 404.525 243.831 408.037 240.885L408.037 273.494L375.492 273.494Z"/><path fill="#BCDEF6" transform="scale(2 2)" d="M103.945 223.345C110.638 223.105 122.355 225.353 127.569 220.907C129.249 222.006 131.252 221.352 134.673 223.345C130.474 229.99 104.566 252.856 103.945 255.891L103.945 223.345Z"/><path fill="white" transform="scale(2 2)" d="M156.294 255.891L156.282 237.479C156.254 223.786 154.515 222.493 168.985 222.624C174.801 222.677 183.282 223.036 188.898 222.653L189.118 222.636C194.33 225.136 192.54 234.338 192.568 239.639L192.582 259.032C192.583 264.162 194.507 273.143 187.997 273.404C184.084 273.561 161.442 274.32 158.672 272.367C154.765 269.105 156.252 260.612 156.294 255.891Z"/><path fill="#BCDEF6" transform="scale(2 2)" d="M158.672 272.367C168.25 265.042 185.177 243.096 192.568 239.639L192.582 259.032C192.583 264.162 194.507 273.143 187.997 273.404C184.084 273.561 161.442 274.32 158.672 272.367Z"/><path fill="#BCDEF6" transform="scale(2 2)" d="M156.294 255.891L156.282 237.479C156.254 223.786 154.515 222.493 168.985 222.624C174.801 222.677 183.282 223.036 188.898 222.653L189.118 222.636C188.072 224.215 186.367 225.64 184.966 226.939C181.15 230.476 156.703 253.196 156.294 255.891Z"/><path fill="white" transform="scale(2 2)" d="M319.896 257.799L319.886 237.825C319.886 234.224 319.343 226.167 321.383 223.549C322.014 222.737 349.926 220.37 355.079 224.943C355.455 229.153 355.05 238.005 355.079 242.702L355.079 273.494L323.072 273.494C318.018 273.164 319.856 262.107 319.896 257.799Z"/><path fill="#BCDEF6" transform="scale(2 2)" d="M319.896 257.799L319.886 237.825C319.886 234.224 319.343 226.167 321.383 223.549C322.014 222.737 349.926 220.37 355.079 224.943C351.026 226.22 345.771 232.088 342.594 235.219L327.254 250.437C325.865 251.794 320.208 256.372 319.896 257.799Z"/><path fill="#BCDEF6" transform="scale(2 2)" d="M355.079 242.702L355.079 273.494L323.072 273.494C324.213 272.255 325.988 270.729 327.294 269.591C336.224 261.811 345.947 249.083 355.079 242.702Z"/></svg>