<?xml version="1.0" encoding="utf-8" ?><svg xmlns="http://www.w3.org/2000/svg" xmlns:xlink="http://www.w3.org/1999/xlink" width="1024" height="1024" viewBox="0 0 1024 1024"><path fill="#FEC302" transform="scale(2 2)" d="M183.79 114.668C180.569 108.27 183.348 105.887 188.126 101.766C218.985 75.1474 270.453 83.2747 289.364 120.006C334.254 116.394 364.137 166.687 343.977 205.909C352.77 213.086 358.48 218.802 362.559 229.754C364.882 235.994 367.868 245.468 358.006 246.467C357.641 252.302 358.795 258.54 358.006 264.278C364.207 265.93 365.746 269.329 363.899 275.273C357.807 294.879 339.769 310.744 319.484 314.066C313.173 315.1 305.966 314.768 299.501 314.768L271.398 314.754C268.151 318.324 263.181 322.824 260.395 326.12C260.439 332.573 261.977 341.568 257.734 346.747C257.727 350.023 257.504 366.866 258.102 368.87L258.376 369.128C246.985 370.069 249.814 383.725 258.376 383.84L257.777 384.17C257.215 387.525 257.573 401.626 257.734 405.513C269.326 408.254 264.1 432.42 264.702 443.249L367.784 443.232C372.353 443.228 376.912 443.178 381.476 443.309C390.685 443.574 390.955 456.881 381.716 457.334C379.228 457.437 376.51 457.374 373.944 457.374L156.619 457.349C145.703 457.135 146.741 443.721 153.566 443.323C159.487 442.978 166.123 443.245 172.241 443.248L213.267 443.249C213.506 429.581 215.338 414.347 214.535 401.242C205.054 396.653 188.999 391.979 181.055 386.951C167.546 378.4 168.104 356.421 180.601 360.269C188.881 362.818 182.396 371.411 188.332 375.058C191.77 377.172 211.32 384.879 215.364 385.913L215.748 386.008C215.557 379.194 215.992 372.167 216.285 365.341L217.549 335.784C208.161 335.603 187.997 339.653 185.003 329.446C178.296 329.438 170.437 329.698 163.879 329.446C161.765 345.775 105.583 333.375 99.6716 289.896C96.9933 270.197 102.683 257.907 113.71 242.907C105.228 213.143 125.518 175.082 156.249 172.362C156.585 164.051 155.495 128.364 170.251 130.903C172.791 126.415 179.139 117.014 183.79 114.668Z"/><path transform="scale(2 2)" d="M244.041 237.891C245.257 234.603 246.319 229.916 249.668 228.225C254.692 225.688 260.796 228.646 261.219 234.364C261.396 237.333 259.07 239.782 259.025 242.725C258.973 246.368 258.993 250.048 258.992 253.691L258.997 274.882C265.046 269.882 267.388 264.617 275.934 263.183C287.845 261.184 296.758 268.69 298.6 280.261C302.003 280.157 305.609 279.445 308.281 281.998C311.259 284.587 311.407 289.882 308.567 292.6C305.51 295.525 296.797 294.521 292.737 294.495L285.665 300.974C310.772 301.295 334.247 303.306 348.132 276.739C351.201 270.866 350.295 264.919 358.006 264.278C364.207 265.93 365.746 269.329 363.899 275.273C357.807 294.879 339.769 310.744 319.484 314.066C313.173 315.1 305.966 314.768 299.501 314.768L271.398 314.754C268.151 318.324 263.181 322.824 260.395 326.12C260.439 332.573 261.977 341.568 257.734 346.747C257.727 350.023 257.504 366.866 258.102 368.87L258.376 369.128C246.985 370.069 249.814 383.725 258.376 383.84L257.777 384.17C257.215 387.525 257.573 401.626 257.734 405.513C269.326 408.254 264.1 432.42 264.702 443.249L367.784 443.232C372.353 443.228 376.912 443.178 381.476 443.309C390.685 443.574 390.955 456.881 381.716 457.334C379.228 457.437 376.51 457.374 373.944 457.374L156.619 457.349C145.703 457.135 146.741 443.721 153.566 443.323C159.487 442.978 166.123 443.245 172.241 443.248L213.267 443.249C213.506 429.581 215.338 414.347 214.535 401.242C205.054 396.653 188.999 391.979 181.055 386.951C167.546 378.4 168.104 356.421 180.601 360.269C188.881 362.818 182.396 371.411 188.332 375.058C191.77 377.172 211.32 384.879 215.364 385.913L215.748 386.008C215.557 379.194 215.992 372.167 216.285 365.341L217.549 335.784C208.161 335.603 187.997 339.653 185.003 329.446C187.474 319.958 193.407 321.742 201.451 321.742L218.324 321.757L218.324 311.394C214.873 307.049 190.82 284.161 186.984 281.751C182.796 281.644 178.353 282.116 174.212 281.58C167.697 280.735 162.217 266.666 181.709 267.73C183.778 255.594 192.319 244.899 205.806 249.844C211.396 251.894 214.895 256.017 219.135 260.081L219.145 247.785C219.156 241.422 216.786 237.399 216.88 234.47C217.179 225.178 233.115 227.016 232.295 237.891L244.041 237.891Z"/><path fill="#BCDEF6" transform="scale(2 2)" d="M233.007 251.982L245.202 251.982C245.228 259.228 244.361 287.346 246.146 292.077C252.563 309.081 272.986 278.397 278.176 276.653C281.184 275.642 286.57 279.095 284.395 282.355C277.145 293.223 252.954 308.587 246.972 319.91C245.675 322.365 245.709 340.432 246.705 343.242C248.458 348.192 253.452 348.569 257.734 346.747C257.727 350.023 257.504 366.866 258.102 368.87L258.376 369.128C246.985 370.069 249.814 383.725 258.376 383.84L257.777 384.17C257.215 387.525 257.573 401.626 257.734 405.513C248.878 406.497 250.677 415.621 250.708 422.277L250.727 443.249L244.041 443.249L234.01 443.249L227.756 443.249C227.678 438.382 227.965 433.895 228.144 429.051L231.95 321.917C232.176 316.774 232.587 309.934 232.295 304.913C224.083 294.517 205.303 279.482 195.207 269.126C198.374 251.426 216.943 282.311 225.341 282.44C236.846 282.618 233.021 259.489 233.007 251.982Z"/><path fill="#61B0F1" transform="scale(2 2)" d="M234.01 421.181C235.28 419.673 236.858 418.117 238.934 418.003C246.736 417.575 243.655 436.765 244.041 443.249L234.01 443.249C234.032 437.235 233.627 426.753 234.01 421.181Z"/><path fill="#FEDE51" transform="scale(2 2)" d="M183.79 114.668C189.678 121.17 194.466 114.494 199.187 110.785C211.897 100.802 230.639 97.3873 246.132 101.767C246.059 101.84 245.315 102.574 245.315 102.574C204.326 103.262 178.757 140.861 186.334 179.319C188.429 189.564 182.329 191.907 173.68 192.75C153.292 194.738 137.234 214.451 143.058 234.882C148.78 255.286 146.838 244.917 137.059 258.282C123.828 276.364 126.471 299.97 141.151 316.378C142.173 317.521 144.697 319.464 142.799 320.693C150.7 322.559 163.57 318.984 163.879 329.446C161.765 345.775 105.583 333.375 99.6716 289.896C96.9933 270.197 102.683 257.907 113.71 242.907C105.228 213.143 125.518 175.082 156.249 172.362C156.585 164.051 155.495 128.364 170.251 130.903C172.791 126.415 179.139 117.014 183.79 114.668Z"/><path transform="scale(2 2)" d="M156.249 172.362C156.585 164.051 155.495 128.364 170.251 130.903C178.967 134.984 173.928 141.472 171.955 148.231C169.679 156.025 169.793 164.991 171.268 172.918C173.72 186.098 166.288 183.75 157.852 185.826C136.073 191.184 120.815 214.947 126.676 236.957C129.397 252.116 132.193 242.215 121.623 256.031C104.424 278.51 114.524 313.528 142.799 320.693C150.7 322.559 163.57 318.984 163.879 329.446C161.765 345.775 105.583 333.375 99.6716 289.896C96.9933 270.197 102.683 257.907 113.71 242.907C105.228 213.143 125.518 175.082 156.249 172.362Z"/><path transform="scale(2 2)" d="M183.79 114.668C180.569 108.27 183.348 105.887 188.126 101.766C218.985 75.1474 270.453 83.2747 289.364 120.006C334.254 116.394 364.137 166.687 343.977 205.909C352.77 213.086 358.48 218.802 362.559 229.754C364.882 235.994 367.868 245.468 358.006 246.467C351.03 245.982 351.292 239.781 349.225 234.547C342.808 218.3 329.67 215.993 327.568 211.522C325.388 206.887 330.55 201.266 332.37 197.273C344.863 169.718 326.519 135.91 295.492 133.872C279.736 132.837 284.86 138.052 275.996 124.2C269.484 113.418 258.209 105.032 246.132 101.767C230.639 97.3873 211.897 100.802 199.187 110.785C194.466 114.494 189.678 121.17 183.79 114.668Z"/><path transform="scale(2 2)" d="M352.465 64.3274C383.052 62.0711 409.1 86.9725 406.35 117.862C403.685 147.796 365.372 174.129 360.636 153.721C362.508 145.559 370.471 146.541 376.645 142.831C389.334 134.933 394.791 119.96 391.683 105.905C385.604 78.4193 350.926 68.0894 332.005 89.2929C326.251 95.741 316.365 91.1783 319.84 82.6845C324.084 72.2717 342.356 65.75 352.465 64.3274Z"/><path transform="scale(2 2)" d="M258.376 369.128C266.204 367.05 282.194 362.666 289.275 359.385C295.253 356.616 290.541 348.442 297.218 346.418C312.058 342.005 310.421 367.221 291.895 373.588C286.131 375.569 263.032 383.609 258.376 383.84C249.814 383.725 246.985 370.069 258.376 369.128Z"/><path transform="scale(2 2)" d="M354.193 96.305C373.94 95.1094 382.645 119.299 369.618 124.239C360.826 124.63 362.226 118.876 361.166 113.053C360.356 108.602 349.865 111.481 348.425 105.422C347.64 100.447 349.67 97.3295 354.193 96.305Z"/><path transform="scale(2 2)" d="M120.992 153.721C133.365 152.051 129.473 168.032 118.423 172.362C106.051 174.005 108.54 157.14 120.992 153.721Z"/><path transform="scale(2 2)" d="M399.053 173.579C411.457 171.464 409.289 187.44 397.836 191.798C386.244 194.04 386.991 178.947 399.053 173.579Z"/><path transform="scale(2 2)" d="M120.992 443.249C134.44 441.611 136.863 454.388 126.027 457.366C108.611 457.269 113.128 443.808 120.992 443.249Z"/></svg>