<?xml version="1.0" encoding="utf-8" ?><svg xmlns="http://www.w3.org/2000/svg" xmlns:xlink="http://www.w3.org/1999/xlink" width="512" height="512" viewBox="0 0 512 512"><path d="M87.2526 224.63C83.6428 224.276 81.6539 221.801 81.6242 218.237C81.5266 206.548 81.5772 194.87 81.563 183.178C81.5467 169.661 89.6898 159.465 102.551 155.025C111.387 151.974 122.051 152.933 131.375 152.947L237.739 152.996C241.233 153.031 242.431 154.926 243.394 157.941C242.467 162.032 241.394 163.159 237.384 163.711C242.84 164.831 246.7 161.584 251.874 161.836C254.913 161.985 259.609 164.984 262.974 163.711C260.085 161.938 259.547 159.885 259.773 156.65C262.994 151.046 270.077 152.933 276.264 152.939L342.694 152.952C357.173 152.948 371.307 151.51 383.931 160.262C406.331 175.791 410.747 201.354 414.772 225.88C418.111 228.721 421.346 231.649 424.633 234.552C435.278 243.954 432.773 247.952 432.763 261.303L432.75 288.016C442.354 293.284 440.563 298.552 440.864 307.89C441.128 316.077 441.153 324.634 431.442 328.147C417.364 331.168 401.777 327.74 388.224 329.279L388.024 329.696C385.551 334.902 382.913 349.476 374.524 344.688C373.631 344.179 372.601 342.546 372.194 341.605C368.16 345.465 364.934 348.869 359.265 350.21C358.877 365.327 320.615 357.934 314.238 329.279C292.493 329.659 269.61 329.283 247.8 329.279L220.761 329.278C216.796 329.28 211.345 329.501 207.578 329.279C204.627 337.484 203.447 339.424 197.835 345.919C200.015 346.096 203.969 345.949 206.285 345.942L287.624 345.918C307.849 345.84 300.405 356.549 295.281 356.765C292.798 356.869 290.324 356.804 287.833 356.803L118.717 356.81C114.559 357.254 102.86 345.961 127.464 345.923L144.135 345.919C139.107 340.452 136.605 336.572 134.997 329.279C121.02 328.428 106.482 332.159 94.5008 323.132C83.3774 315.148 80.5926 303.279 81.596 290.264C82.0271 284.673 79.1721 278.668 87.2526 277.433C87.5726 274.785 87.5615 264.55 87.2526 261.943C79.7024 260.197 77.7221 242.092 87.2526 240.179C87.1735 235.018 87.3228 229.813 87.2526 224.63Z"/><path fill="#BCDEF6" d="M87.2526 224.63C83.6428 224.276 81.6539 221.801 81.6242 218.237C81.5266 206.548 81.5772 194.87 81.563 183.178C81.5467 169.661 89.6898 159.465 102.551 155.025C111.387 151.974 122.051 152.933 131.375 152.947L237.739 152.996C241.233 153.031 242.431 154.926 243.394 157.941C242.467 162.032 241.394 163.159 237.384 163.711C242.84 164.831 246.7 161.584 251.874 161.836C254.913 161.985 259.609 164.984 262.974 163.711C272.279 163.353 283.829 163.715 293.31 163.711L293.31 176.558L293.31 296.315L227.332 296.313C218.737 296.313 207.431 297.295 199.409 296.315C185.516 285.208 174.345 278.139 155.362 286.657C149.12 289.458 147.078 292.14 142.093 296.315C136.652 304.856 134.939 308.253 133.894 318.264C107.459 318.294 90.4207 321.264 92.2373 287.244C92.5159 282.024 92.4202 279.232 87.2526 277.433C87.5726 274.785 87.5615 264.55 87.2526 261.943C79.7024 260.197 77.7221 242.092 87.2526 240.179C87.1735 235.018 87.3228 229.813 87.2526 224.63Z"/><path fill="white" d="M87.2526 224.63C83.6428 224.276 81.6539 221.801 81.6242 218.237C81.5266 206.548 81.5772 194.87 81.563 183.178C81.5467 169.661 89.6898 159.465 102.551 155.025C111.387 151.974 122.051 152.933 131.375 152.947L237.739 152.996C241.233 153.031 242.431 154.926 243.394 157.941C242.467 162.032 241.394 163.159 237.384 163.711C242.84 164.831 246.7 161.584 251.874 161.836C254.913 161.985 259.609 164.984 262.974 163.711C272.279 163.353 283.829 163.715 293.31 163.711L293.31 176.558C242.676 176.547 191.991 176.703 141.361 176.431C136.647 176.405 115.701 176.803 112.448 175.772C112.476 168.315 114.106 167.568 119.799 163.711C108.688 163.043 92.4659 168.125 92.2691 181.597C92.0833 194.313 92.4748 207.121 92.187 219.827C92.1221 222.69 89.6721 224.011 87.2526 224.63Z"/><path d="M87.2526 224.63C83.6428 224.276 81.6539 221.801 81.6242 218.237C81.5266 206.548 81.5772 194.87 81.563 183.178C81.5467 169.661 89.6898 159.465 102.551 155.025C111.387 151.974 122.051 152.933 131.375 152.947L237.739 152.996C241.233 153.031 242.431 154.926 243.394 157.941C242.467 162.032 241.394 163.159 237.384 163.711C235.516 163.476 228.676 163.698 226.369 163.705L119.799 163.711C108.688 163.043 92.4659 168.125 92.2691 181.597C92.0833 194.313 92.4748 207.121 92.187 219.827C92.1221 222.69 89.6721 224.011 87.2526 224.63Z"/><path fill="#FEC302" d="M87.2526 224.63C89.6721 224.011 92.1221 222.69 92.187 219.827C92.4748 207.121 92.0833 194.313 92.2691 181.597C92.4659 168.125 108.688 163.043 119.799 163.711C114.106 167.568 112.476 168.315 112.448 175.772L112.441 260.943C112.436 279.602 119.093 298.722 142.093 296.315C136.652 304.856 134.939 308.253 133.894 318.264C107.459 318.294 90.4207 321.264 92.2373 287.244C92.5159 282.024 92.4202 279.232 87.2526 277.433C87.5726 274.785 87.5615 264.55 87.2526 261.943C79.7024 260.197 77.7221 242.092 87.2526 240.179C87.1735 235.018 87.3228 229.813 87.2526 224.63Z"/><path d="M87.2526 240.179C92.6301 241.653 92.2089 244.453 92.2968 249.433C92.4058 255.611 93.4671 259.543 87.2526 261.943C79.7024 260.197 77.7221 242.092 87.2526 240.179Z"/><defs><linearGradient id="gradient_0" gradientUnits="userSpaceOnUse" x1="325.20218" y1="312.82126" x2="375.24188" y2="330.2673"><stop offset="0" stop-color="#3D5A7D"/><stop offset="1" stop-color="#6586A7"/></linearGradient></defs><path fill="url(#gradient_0)" d="M359.265 350.21C356.93 347.002 354.394 345.895 350.397 346.227C316.992 349.001 314.339 295.559 348.854 294.27C351.215 305.99 366.823 298.661 370.903 318.033C372.881 325.773 367.798 331.115 374.946 332.882C373.224 335.842 371.617 338.068 372.194 341.605C368.16 345.465 364.934 348.869 359.265 350.21Z"/><path d="M349.377 307.709C356.985 307.061 363.701 312.648 364.448 320.247C365.196 327.846 359.697 334.635 352.109 335.482C347.11 336.04 342.199 333.866 339.252 329.79C336.305 325.715 335.779 320.369 337.875 315.797C339.971 311.226 344.365 308.136 349.377 307.709Z"/><path fill="#3F5F86" d="M349.588 318.814C350.545 318.396 351.653 318.526 352.487 319.154C353.321 319.781 353.753 320.81 353.616 321.845C353.479 322.88 352.795 323.762 351.826 324.151C350.359 324.741 348.689 324.044 348.078 322.585C347.466 321.127 348.139 319.447 349.588 318.814Z"/><path fill="#FEC302" d="M293.31 296.315L293.31 318.264L208.342 318.264C207.08 308.681 204.931 304.124 199.409 296.315C207.431 297.295 218.737 296.313 227.332 296.313L293.31 296.315Z"/><path fill="#BCDEF6" d="M348.854 294.27C369.089 292.381 384.266 315.122 374.946 332.882C367.798 331.115 372.881 325.773 370.903 318.033C366.823 298.661 351.215 305.99 348.854 294.27Z"/><path fill="#FEC302" d="M304.052 176.952C307.049 177.046 331.141 176.364 332.277 177.804C333.77 179.697 338.275 177.528 340.541 178.711C317.308 178.484 316.318 189.223 316.052 209.3C315.803 228.055 320.587 234.565 339.851 234.517L403.309 234.495L408.118 234.495C410.032 235.373 421.334 245.337 421.993 246.729C422.262 249.257 422.002 256.395 421.998 259.404L421.993 288.016C413.174 287.628 407.403 291.132 406.977 300.558L406.977 318.264L388.224 318.264C388.027 313.717 386.862 310.274 385.436 306.026C369.675 274.909 328.905 275.102 315.408 307.276C313.982 311.692 313.505 313.735 312.901 318.264C310.021 318.197 306.948 318.254 304.052 318.264L304.052 307.276L304.052 176.952Z"/><path fill="#FDD808" d="M403.309 234.495L408.118 234.495C410.032 235.373 421.334 245.337 421.993 246.729C421.641 249.227 421.99 255.166 421.993 258.143C398.673 258.527 403.812 253.986 403.309 234.495Z"/><path fill="#F58402" d="M406.977 306.026C406.874 304.783 406.518 301.584 406.977 300.558L406.977 318.264L388.224 318.264C388.027 313.717 386.862 310.274 385.436 306.026C387.456 306.156 390.535 306.041 392.665 306.037L406.977 306.026Z"/><path fill="#F58402" d="M304.052 307.276L315.408 307.276C313.982 311.692 313.505 313.735 312.901 318.264C310.021 318.197 306.948 318.254 304.052 318.264L304.052 307.276Z"/><path d="M323.561 244.307C327.971 244.272 338.917 243.417 342.046 245.615C345.283 247.887 344.949 254.323 338.851 254.855C334.259 254.875 323.362 255.743 319.996 253.367C316.616 250.982 317.941 245.005 323.561 244.307Z"/><path fill="#26A9F3" d="M383.818 223.689L348.906 223.681C343.534 223.688 337.964 223.938 332.64 223.462C323.845 222.675 326.911 205.188 326.574 199.473C325.839 186.961 339.621 189.219 347.813 189.218L374.946 189.229L394.433 189.229C399.632 201.126 402.669 210.711 404.076 223.689L383.818 223.689Z"/><path fill="#88CEF8" d="M374.946 189.229L394.433 189.229C399.632 201.126 402.669 210.711 404.076 223.689L383.818 223.689C381.379 210.625 378.182 201.603 374.946 189.229Z"/><defs><linearGradient id="gradient_1" gradientUnits="userSpaceOnUse" x1="145.0666" y1="322.86575" x2="196.51218" y2="317.30124"><stop offset="0" stop-color="#446386"/><stop offset="1" stop-color="#6180A3"/></linearGradient></defs><path fill="url(#gradient_1)" d="M165.935 294.555C180.104 291.815 193.814 301.075 196.563 315.243C199.314 329.42 190.05 343.142 175.873 345.89C161.696 348.637 147.976 339.37 145.231 325.192C142.486 311.014 151.756 297.296 165.935 294.555Z"/><path fill="#BCDEF6" d="M165.935 294.555C180.104 291.815 193.814 301.075 196.563 315.243C189.396 325.577 192.225 299.805 169.233 300.558C168.019 298.751 166.481 296.663 165.935 294.555Z"/><path d="M168.778 307.539C176.397 306.547 183.377 311.92 184.365 319.54C185.354 327.159 179.978 334.137 172.358 335.122C164.743 336.107 157.77 330.735 156.782 323.12C155.794 315.505 161.163 308.53 168.778 307.539Z"/><path fill="#3F5F86" d="M169.519 318.452C170.541 318.077 171.686 318.288 172.506 319.004C173.327 319.72 173.691 320.826 173.457 321.889C173.223 322.952 172.428 323.803 171.383 324.109C169.842 324.559 168.221 323.707 167.718 322.182C167.215 320.656 168.012 319.007 169.519 318.452Z"/><path fill="#FDD808" d="M304.052 163.711L340.264 163.704C359.937 163.706 374.653 161.092 388.224 178.711L340.541 178.711C338.275 177.528 333.77 179.697 332.277 177.804C331.141 176.364 307.049 177.046 304.052 176.952L304.052 163.711Z"/><path fill="#FEC302" d="M417.835 318.264C417.797 307.45 413.784 297.698 424.683 298.142C432.586 298.401 430.196 302.057 430.247 310.03C430.286 316.275 430.422 318.403 423.793 318.264L417.835 318.264Z"/><path fill="#F58402" d="M417.835 318.264C417.797 307.45 413.784 297.698 424.683 298.142L424.091 298.437C423.574 300.376 423.784 315.154 423.793 318.264L417.835 318.264Z"/><path d="M77.8334 345.919C83.9835 346.11 92.811 344.031 95.735 350.21C95.8708 353.84 95.3239 354.856 92.2548 356.811L89.3821 356.811C85.7794 356.793 82.2054 356.876 78.5391 356.874C70.7584 356.87 69.7939 350.478 74.8462 345.919C75.8365 345.909 76.8415 345.919 77.8334 345.919Z"/></svg>