<?xml version="1.0" encoding="utf-8" ?><svg xmlns="http://www.w3.org/2000/svg" xmlns:xlink="http://www.w3.org/1999/xlink" width="1024" height="1024" viewBox="0 0 1024 1024"><path transform="scale(2 2)" d="M344.984 108.301C355.206 107.697 352.339 120.74 352.332 128.506L352.315 160.251C369.517 159.714 366.812 170.461 366.746 183.436L383.747 183.411C398.079 183.311 404.372 182.592 403.751 200.215C403.466 208.291 404.458 216.329 393.525 217.366L393.536 244.871C393.589 250.699 393.85 260.036 393.525 265.71C412.229 266.086 408.702 283.357 409.4 295.724C410.702 318.804 406.792 329.203 388.06 343.241C382.926 344.989 378.131 346.987 372.861 348.441C366.878 348.188 359.452 348.807 353.183 348.809L58.3167 348.798C55.4797 348.797 48.8583 349.476 46.8127 347.332C45.0345 345.468 44.1304 340.806 46.5248 338.789C49.8735 335.967 53.6972 337.215 57.6449 337.216L92.0457 337.219C97.9985 337.168 100.623 336.844 106.911 337.229C103.087 327.231 91.4075 308.056 85.6771 297.98C77.4507 283.514 75.6942 269.451 95.2358 265.71L95.2358 252.463C86.0499 252.26 77.2702 254.104 69.9755 247.046C58.1082 235.563 64.9392 213.554 82.4907 214.143C91.9009 214.458 101.352 215.482 110.79 216.074L144.642 218.394C170.611 220.157 181.533 221.138 181.518 250.518L181.497 265.71L262.755 265.71L262.755 217.366C250.896 217.445 251.378 207.899 251.497 199.292C251.741 181.806 257.702 183.414 272.159 183.423L291.231 183.436L291.224 159.174C291.222 155.039 291.149 150.971 291.359 146.827C291.601 142.081 302.475 135.908 302.553 151.423L302.51 183.436C310.074 183.427 317.701 183.537 325.254 183.436C325.226 168.758 323.047 160.035 340.758 160.251L340.743 127.619C340.741 120.374 338.473 111.975 344.984 108.301ZM90.9704 281.683C91.6725 287.593 96.7101 294.427 99.5928 299.648L115.056 327.672C116.688 330.675 118.808 334.252 120.311 337.229L124.475 337.229C121.321 329.562 97.5974 289.344 97.5557 286.018C97.5019 281.711 115.927 283.342 118.633 283.342L228.811 283.347C241.91 283.349 255.867 283.607 268.902 283.349C268.065 282.655 267.123 283.542 265.951 282.312C266.129 281.679 274.093 279.944 275.238 279.959C277.175 279.985 277.865 278.794 279.597 277.946L279.795 277.852C277.079 277.286 270.323 277.583 267.29 277.756L267.053 277.516L100.357 277.494C98.4417 277.481 95.7252 277.352 93.883 277.516C92.4323 279 91.8403 279.697 90.9704 281.683ZM274.251 265.71L280.623 265.71L280.623 224.246L312.559 224.246C314.058 223.721 315.659 224.351 316.521 223.419C316.578 219.751 316.787 219.63 319.369 217.366L300.238 217.379C297.973 217.39 293.196 217.654 291.231 217.366C285.662 217.26 279.841 217.351 274.251 217.366L274.251 265.71ZM381.743 224.246C381.707 221.32 383.246 217.31 379.56 217.366C375.051 218.089 365.857 216.472 361.794 217.835C361.67 220.227 364.273 219.151 360.802 224.246C363.212 224.221 365.582 223.896 367.881 224.246L381.743 224.246ZM262.755 195.274C263.376 199.701 263.425 201.286 262.755 205.684C265.405 205.828 267.907 205.863 270.561 205.684C272.408 202.504 272.448 198.445 270.561 195.274C267.637 194.874 265.701 195.04 262.755 195.274ZM84.7659 240.578C83.7701 235.781 83.5173 233.768 85.9751 229.489C86.3227 228.797 87.5152 227.041 87.9964 226.291C72.0529 222.927 72.6403 241.12 84.7659 240.578ZM143.758 252.463L106.911 252.463L106.911 265.71L131.693 265.693C135.056 265.694 140.541 265.506 143.758 265.71C144.062 262.52 143.733 255.989 143.758 252.463ZM155.25 265.71C156.747 265.729 158.255 265.77 159.75 265.71C159.978 262.367 159.755 256.039 159.75 252.463C158.253 252.457 156.745 252.438 155.25 252.463L155.25 265.71ZM355.506 171.906C349.899 171.896 342.277 171.643 336.802 171.906C336.696 175.668 336.78 179.655 336.802 183.436L355.506 183.436L355.506 171.906Z"/><path fill="#FEC302" transform="scale(2 2)" d="M267.053 277.516L379.764 277.505C384.868 277.502 394.1 276.027 397.397 279.657C397.412 280.89 397.442 282.117 397.397 283.349L397.42 300.058C397.427 306.912 397.997 313.184 394.814 319.443C384.229 340.257 363.057 337.249 343.599 337.233L124.475 337.229C121.321 329.562 97.5974 289.344 97.5557 286.018C97.5019 281.711 115.927 283.342 118.633 283.342L228.811 283.347C241.91 283.349 255.867 283.607 268.902 283.349C268.065 282.655 267.123 283.542 265.951 282.312C266.129 281.679 274.093 279.944 275.238 279.959C277.175 279.985 277.865 278.794 279.597 277.946L279.795 277.852C277.079 277.286 270.323 277.583 267.29 277.756L267.053 277.516Z"/><path fill="white" transform="scale(2 2)" d="M267.053 277.516L379.764 277.505C384.868 277.502 394.1 276.027 397.397 279.657C397.412 280.89 397.442 282.117 397.397 283.349C393.622 283.661 384.471 283.349 380.178 283.348L293.444 283.337C285.972 283.336 276.088 283.681 268.902 283.349C268.065 282.655 267.123 283.542 265.951 282.312C266.129 281.679 274.093 279.944 275.238 279.959C277.175 279.985 277.865 278.794 279.597 277.946L279.795 277.852C277.079 277.286 270.323 277.583 267.29 277.756L267.053 277.516Z"/><path transform="scale(2 2)" d="M138.424 311.814C132.268 311.466 124.93 298.977 148.394 299.455C153.98 299.569 157.441 299.276 158.939 305.457C168.824 305.575 165.834 316.08 159.1 316.151C154.36 316.201 146.63 316.454 142.064 315.715C140.472 314.784 139.274 314.026 138.189 312.472L138.188 311.99L138.424 311.814Z"/><path fill="#FAF6E0" transform="scale(2 2)" d="M158.939 305.457C168.824 305.575 165.834 316.08 159.1 316.151C154.36 316.201 146.63 316.454 142.064 315.715C140.472 314.784 139.274 314.026 138.189 312.472L138.188 311.99L138.424 311.814C145.766 311.811 157.72 314.594 158.939 305.457Z"/><path transform="scale(2 2)" d="M313.635 311.814C309.172 311.837 301.404 311.637 303.514 303.481C304.57 299.398 324.635 294.722 327.33 305.457C336.524 305.85 334.506 316.52 325.999 315.715C324.172 315.951 315.025 315.729 312.559 315.715C311.316 313.161 310.346 312.218 313.635 311.814Z"/><path fill="white" transform="scale(2 2)" d="M327.33 305.457C336.524 305.85 334.506 316.52 325.999 315.715C324.989 314.387 324.009 313.108 322.956 311.814C325.755 310.457 326.634 308.256 327.33 305.457Z"/><path fill="#FFE266" transform="scale(2 2)" d="M313.635 311.814C316.74 311.751 319.852 311.701 322.956 311.814C324.009 313.108 324.989 314.387 325.999 315.715C324.172 315.951 315.025 315.729 312.559 315.715C311.316 313.161 310.346 312.218 313.635 311.814Z"/><path transform="scale(2 2)" d="M363.494 311.814C354.692 312.66 353.444 300.463 361.625 299.527C368.692 298.719 376.371 297.809 380.194 304.125C383.208 305.204 384.734 306.202 385.859 309.382C384.825 313.421 383.024 316.48 378.307 315.715C372.711 315.173 364.793 318.249 363.494 311.814Z"/><path fill="white" transform="scale(2 2)" d="M380.194 304.125C383.208 305.204 384.734 306.202 385.859 309.382C384.825 313.421 383.024 316.48 378.307 315.715C377.297 314.585 376.055 313.19 375.454 311.814C379.293 310.552 380.294 307.883 380.194 304.125Z"/><path fill="#FFE266" transform="scale(2 2)" d="M363.494 311.814C367.324 311.814 371.729 312.083 375.454 311.814C376.055 313.19 377.297 314.585 378.307 315.715C372.711 315.173 364.793 318.249 363.494 311.814Z"/><path transform="scale(2 2)" d="M255.627 311.814C250.666 311.874 242.537 311.439 245.88 302.494C247.016 299.454 266.341 295.138 268.902 305.457C275.342 303.059 278.642 317.333 267.053 315.715L254.767 315.715C253.565 314.246 253.226 313.501 252.343 311.814C253.447 311.85 254.524 311.828 255.627 311.814Z"/><path fill="white" transform="scale(2 2)" d="M268.902 305.457C275.342 303.059 278.642 317.333 267.053 315.715C266.424 315.095 265.172 312.688 264.688 311.814C267.32 310.024 268.358 308.59 268.902 305.457Z"/><path fill="#FFE266" transform="scale(2 2)" d="M255.627 311.814C258.605 311.759 261.767 311.991 264.688 311.814C265.172 312.688 266.424 315.095 267.053 315.715L254.767 315.715C253.565 314.246 253.226 313.501 252.343 311.814C253.447 311.85 254.524 311.828 255.627 311.814Z"/><path transform="scale(2 2)" d="M197.954 311.814C190.783 310.629 187.244 303.79 194.899 299.999C197.113 298.903 203.044 299.686 205.846 299.459C211.371 299.012 212.69 300.534 214.311 305.457C223.075 305.379 221.096 316.858 212.073 316.299C208.578 316.082 199.091 316.967 197.854 312.07L197.954 311.814Z"/><path fill="white" transform="scale(2 2)" d="M214.311 305.457C223.075 305.379 221.096 316.858 212.073 316.299C208.578 316.082 199.091 316.967 197.854 312.07L197.954 311.814C204.535 311.861 212.274 313.673 214.311 305.457Z"/><path fill="#FEC302" transform="scale(2 2)" d="M291.231 217.366C297.163 217.199 303.676 217.36 309.663 217.363L368.31 217.35C371.225 217.346 376.896 217.168 379.56 217.366C375.051 218.089 365.857 216.472 361.794 217.835C361.67 220.227 364.273 219.151 360.802 224.246C363.212 224.221 365.582 223.896 367.881 224.246L381.743 224.246L381.743 265.71L353.531 265.71C353.549 255.256 354.275 246.214 346.307 238.206C337.418 229.271 322.493 228.361 313.508 237.547C305.419 245.817 306.879 255.199 306.916 265.71L280.623 265.71L280.623 224.246L312.559 224.246C314.058 223.721 315.659 224.351 316.521 223.419C316.578 219.751 316.787 219.63 319.369 217.366L300.238 217.379C297.973 217.39 293.196 217.654 291.231 217.366Z"/><path fill="white" transform="scale(2 2)" d="M291.231 217.366C297.163 217.199 303.676 217.36 309.663 217.363L368.31 217.35C371.225 217.346 376.896 217.168 379.56 217.366C375.051 218.089 365.857 216.472 361.794 217.835C361.67 220.227 364.273 219.151 360.802 224.246C363.212 224.221 365.582 223.896 367.881 224.246L312.559 224.246C314.058 223.721 315.659 224.351 316.521 223.419C316.578 219.751 316.787 219.63 319.369 217.366L300.238 217.379C297.973 217.39 293.196 217.654 291.231 217.366Z"/><path fill="#51759F" transform="scale(2 2)" d="M270.561 195.274C279.001 194.945 289.502 195.274 298.178 195.275L361.022 195.273C370.854 195.274 382.539 195.579 392.244 195.274L392.244 205.684L281.397 205.701C279.388 205.704 272.051 205.882 270.561 205.684C272.408 202.504 272.448 198.445 270.561 195.274Z"/><path fill="#27416E" transform="scale(2 2)" d="M87.9964 226.291C90.1045 226.215 94.4325 226.681 96.6843 226.867L143.632 230.442C150.778 230.995 164.105 230.323 167.926 236.933C168.73 237.958 169.109 239.322 169.549 240.578L94.5893 240.596C91.7441 240.604 87.5376 240.741 84.7659 240.578C83.7701 235.781 83.5173 233.768 85.9751 229.489C86.3227 228.797 87.5152 227.041 87.9964 226.291Z"/><path fill="#51759F" transform="scale(2 2)" d="M87.9964 226.291C90.1045 226.215 94.4325 226.681 96.6843 226.867L143.632 230.442C150.778 230.995 164.105 230.323 167.926 236.933C164.898 236.621 161.278 234.329 157.655 233.929C143.833 232.404 129.833 231.925 115.974 231.021L98.1199 229.845C94.7454 229.625 89.2105 229.118 85.9751 229.489C86.3227 228.797 87.5152 227.041 87.9964 226.291Z"/><path fill="#FAF6E0" transform="scale(2 2)" d="M318.571 265.71C318.533 259.543 317.269 249.317 322.15 245.143C327.679 240.416 334.842 242.521 339.237 247.519C340.235 248.958 341.229 250.331 342.077 251.867L342.077 265.71L325.999 265.71C323.536 265.765 321.038 265.725 318.571 265.71Z"/><path fill="#51759F" transform="scale(2 2)" d="M339.237 247.519C340.235 248.958 341.229 250.331 342.077 251.867L342.077 265.71L325.999 265.71C325.935 258.424 327.819 251.199 336.802 251.867C336.875 250.022 338.1 248.713 339.237 247.519Z"/><path fill="white" transform="scale(2 2)" d="M339.237 247.519C340.235 248.958 341.229 250.331 342.077 251.867C340.429 251.695 338.483 251.813 336.802 251.867C336.875 250.022 338.1 248.713 339.237 247.519Z"/><path fill="#27416E" transform="scale(2 2)" d="M159.75 252.463C163.336 252.624 165.946 252.736 169.549 252.463L169.549 265.71L159.75 265.71C159.978 262.367 159.755 256.039 159.75 252.463Z"/><path fill="#70B2E7" transform="scale(2 2)" d="M388.06 343.241C394.54 345.262 423.141 341.032 430.806 343.978C431.642 345.908 432.194 347.35 434.149 348.441C437.117 349.156 438.124 348.625 440.651 348.806C440.216 349.258 439.648 349.487 439.011 349.375C435.214 348.71 435.918 350.847 434.058 352.905C434.99 353.175 435.038 353.424 434.961 354.4C439.145 356.241 445.224 348.257 442.72 355.377C440.985 359.145 429.374 379.146 427.274 380.742C429.396 382.443 430.48 384.544 430.806 387.245C439.649 392.088 436.495 402.232 429.34 403.504C426.062 404.087 421.823 403.897 418.427 403.893L128.103 403.872C116.745 403.874 97.1941 406.174 87.9964 399.112C85.84 398.4 80.3436 392.553 80.6959 390.044C76.3028 386.364 72.6129 386.977 70.5363 381.494C71.2271 375.076 75.3126 374.281 80.6959 376.175C80.4081 372.752 73.03 360.886 71.3958 355.377C73.6782 355.634 78.6533 355.396 81.2366 355.391L170.988 355.377C172.198 355.265 173.764 355.308 175.008 355.309L431.62 354.627C432.71 353.127 434.94 350.799 434.772 349.258L434.436 349.007C431.383 349.399 426.928 348.823 423.614 348.814L393.012 348.801C389.977 348.802 375.684 349.735 374.661 348.441C373.906 348.357 374.103 348.88 372.861 348.441C378.131 346.987 382.926 344.989 388.06 343.241Z"/><path fill="#BCDEF6" transform="scale(2 2)" d="M388.06 343.241C394.54 345.262 423.141 341.032 430.806 343.978C431.642 345.908 432.194 347.35 434.149 348.441C437.117 349.156 438.124 348.625 440.651 348.806C440.216 349.258 439.648 349.487 439.011 349.375C435.214 348.71 435.918 350.847 434.058 352.905C434.99 353.175 435.038 353.424 434.961 354.4C439.145 356.241 445.224 348.257 442.72 355.377C440.985 359.145 429.374 379.146 427.274 380.742C412.057 378.903 414.921 384.253 399.469 375.647C392.412 371.717 382.745 370.46 374.824 371.926C367.224 373.333 364.164 380.182 356.787 381.307C338.777 384.054 340.268 374.879 329.071 372.219C305.261 366.56 301.741 383.126 285.101 381.753C272.118 380.682 273.169 369.605 252.122 371.889C234.546 373.797 231.228 392.375 209.101 376.668C200.126 370.298 186.338 369.902 176.7 375.062C160.394 383.792 161.226 386.262 144.156 375.676C135.37 370.228 121.164 369.755 112.143 375.194C100.049 382.487 94.4752 386 80.6959 376.175C80.4081 372.752 73.03 360.886 71.3958 355.377C73.6782 355.634 78.6533 355.396 81.2366 355.391L170.988 355.377C172.198 355.265 173.764 355.308 175.008 355.309L431.62 354.627C432.71 353.127 434.94 350.799 434.772 349.258L434.436 349.007C431.383 349.399 426.928 348.823 423.614 348.814L393.012 348.801C389.977 348.802 375.684 349.735 374.661 348.441C373.906 348.357 374.103 348.88 372.861 348.441C378.131 346.987 382.926 344.989 388.06 343.241Z"/><path fill="#BCDEF6" transform="scale(2 2)" d="M388.06 343.241C394.54 345.262 423.141 341.032 430.806 343.978C431.642 345.908 432.194 347.35 434.149 348.441C431.641 349.246 424.046 348.822 421.134 348.815L397.271 348.799C393.52 348.8 376.989 349.681 374.661 348.441C373.906 348.357 374.103 348.88 372.861 348.441C378.131 346.987 382.926 344.989 388.06 343.241Z"/><path fill="white" transform="scale(2 2)" d="M434.149 348.441C437.117 349.156 438.124 348.625 440.651 348.806C440.216 349.258 439.648 349.487 439.011 349.375C435.214 348.71 435.918 350.847 434.058 352.905C434.99 353.175 435.038 353.424 434.961 354.4C439.145 356.241 445.224 348.257 442.72 355.377C434.429 354.767 428.903 355.367 420.817 355.383L185.125 355.372C182.62 355.374 172.883 355.797 170.988 355.377C172.198 355.265 173.764 355.308 175.008 355.309L431.62 354.627C432.71 353.127 434.94 350.799 434.772 349.258L434.436 349.007C431.383 349.399 426.928 348.823 423.614 348.814L393.012 348.801C389.977 348.802 375.684 349.735 374.661 348.441C376.989 349.681 393.52 348.8 397.271 348.799L421.134 348.815C424.046 348.822 431.641 349.246 434.149 348.441Z"/><path transform="scale(2 2)" d="M80.6959 376.175C94.4752 386 100.049 382.487 112.143 375.194C121.164 369.755 135.37 370.228 144.156 375.676C161.226 386.262 160.394 383.792 176.7 375.062C186.338 369.902 200.126 370.298 209.101 376.668C231.228 392.375 234.546 373.797 252.122 371.889C273.169 369.605 272.118 380.682 285.101 381.753C301.741 383.126 305.261 366.56 329.071 372.219C340.268 374.879 338.777 384.054 356.787 381.307C364.164 380.182 367.224 373.333 374.824 371.926C382.745 370.46 392.412 371.717 399.469 375.647C414.921 384.253 412.057 378.903 427.274 380.742C429.396 382.443 430.48 384.544 430.806 387.245C427.746 396.941 413.006 391.679 405.775 393.173C395.711 388.044 394.154 384.354 382.768 383.176C374.264 382.296 369.947 388.345 362.965 391.576C357.417 393.988 343.071 394.211 337.656 390.754C329.849 385.771 328.63 383.296 318.97 383.164C313.549 382.924 308.76 384.659 304.461 387.973C295.427 394.936 279.815 394.88 270.751 388.039C265.536 384.103 261.824 383.445 255.466 383.178C245.759 382.772 243.46 387.857 236.09 391.328C215.036 400.567 208.704 383.654 192.563 383.188C182.631 382.901 180.531 387.791 172.351 391.573C150.467 401.293 142.802 383.33 127.162 383.197C110.84 383.057 109.417 401.511 80.6959 390.044C76.3028 386.364 72.6129 386.977 70.5363 381.494C71.2271 375.076 75.3126 374.281 80.6959 376.175Z"/><defs><linearGradient id="gradient_0" gradientUnits="userSpaceOnUse" x1="250.99197" y1="410.01367" x2="249.61433" y2="378.19177"><stop offset="0" stop-color="#A5CBF0"/><stop offset="1" stop-color="#CEE5F7"/></linearGradient></defs><path fill="url(#gradient_0)" transform="scale(2 2)" d="M80.6959 390.044C109.417 401.511 110.84 383.057 127.162 383.197C142.802 383.33 150.467 401.293 172.351 391.573C180.531 387.791 182.631 382.901 192.563 383.188C208.704 383.654 215.036 400.567 236.09 391.328C243.46 387.857 245.759 382.772 255.466 383.178C261.824 383.445 265.536 384.103 270.751 388.039C279.815 394.88 295.427 394.936 304.461 387.973C308.76 384.659 313.549 382.924 318.97 383.164C328.63 383.296 329.849 385.771 337.656 390.754C343.071 394.211 357.417 393.988 362.965 391.576C369.947 388.345 374.264 382.296 382.768 383.176C394.154 384.354 395.711 388.044 405.775 393.173L405.99 393.409C409.071 393.496 415.898 393.321 418.558 393.672L418.527 394.003C414.5 395.537 421.204 403.101 411.796 402.669C408.64 402.932 407.899 399.395 405.709 398.009C396.449 392.148 383.724 385.778 373.791 393.225C373.582 393.382 371.03 395.062 370.801 395.149C358.542 405.697 347.967 399.053 336.343 395.265L335.982 395.149C327.884 389.87 323.15 388.779 313.083 390.325C308.174 391.078 306.132 394.026 302.51 396.019C294.282 401.114 282.739 401.543 274.251 396.804C261.286 388.741 257.34 386.531 243.313 395.149C240.512 397.548 236.816 399.116 233.235 399.91C228.983 400.918 222.655 401.074 218.439 399.91C217.191 399.613 215.594 399.351 214.311 399.112C200.42 388.406 189.707 386.296 174.661 397.667C172.028 399.656 165.373 401.182 162.045 401.363C146.818 402.628 142.768 392.46 131.33 390.729C115.874 388.39 112.885 402.649 92.9892 399.831C91.9018 399.677 88.8543 398.97 87.9964 399.112C85.84 398.4 80.3436 392.553 80.6959 390.044Z"/><path fill="#BCDEF6" transform="scale(2 2)" d="M214.311 399.112C217.363 396.457 229.489 398.515 233.913 397.818C236.377 397.43 242.226 392.851 243.578 393.271C243.947 395.337 236.985 397.132 236.416 398.125L236.809 398.378C238.234 398.323 241.998 395.723 243.197 394.845L243.313 395.149C240.512 397.548 236.816 399.116 233.235 399.91C228.983 400.918 222.655 401.074 218.439 399.91C217.191 399.613 215.594 399.351 214.311 399.112Z"/><path fill="#CBDDF7" transform="scale(2 2)" d="M218.439 399.91C219.95 398.607 230.706 398.926 232.903 399.507L233.235 399.91C228.983 400.918 222.655 401.074 218.439 399.91Z"/><path fill="#BCDEF6" transform="scale(2 2)" d="M274.251 396.804L274.574 396.416C278.036 395.127 277.984 397.65 278.625 397.676C287.003 398.018 295.142 399.2 302.28 395.735L302.51 396.019C294.282 401.114 282.739 401.543 274.251 396.804Z"/><path fill="#BCDEF6" transform="scale(2 2)" d="M335.982 395.149C337.876 393.624 343.284 393.9 343.009 397.742C344.049 398.115 349.019 399.762 349.873 399.933C361.818 402.322 368.1 395.21 370.801 395.149C358.542 405.697 347.967 399.053 336.343 395.265L335.982 395.149Z"/><path transform="scale(2 2)" d="M407.425 108.301C423.264 108.604 407.962 146.508 385.751 134.435C383.708 133.324 381.746 131.652 379.56 130.909C368.648 132.961 376.005 141.699 367.881 145.152C349.783 148.236 368.46 104.319 390.984 123.558C392.602 124.698 394.91 124.771 396.663 124.208C405.839 121.259 397.782 110.55 407.425 108.301Z"/><path transform="scale(2 2)" d="M430.806 343.978C430.312 335.126 438.412 337.188 444.434 337.065C449.871 336.955 457.301 337.13 462.748 337.107C466.778 337.09 469.128 344.965 465.388 347.453C462.26 350.321 445.341 348.522 440.651 348.806C438.124 348.625 437.117 349.156 434.149 348.441C432.194 347.35 431.642 345.908 430.806 343.978Z"/></svg>