<?xml version="1.0" encoding="utf-8" ?><svg xmlns="http://www.w3.org/2000/svg" xmlns:xlink="http://www.w3.org/1999/xlink" width="1024" height="1024" viewBox="0 0 1024 1024"><path fill="#FEC302" transform="scale(2 2)" d="M141.445 156.084C147.233 149.608 156.072 141.296 162.352 135.025L228.293 69.2164C231.471 66.1095 235.146 61.8018 238.558 59.2137C264.277 39.7077 287.962 73.6263 304.58 90.2704L383.523 169.179C388.216 173.825 395.337 180.253 399.168 185.132C406.95 195.041 405.908 212.354 396.731 221.049L343.28 274.573C340.428 277.396 335.094 283.153 331.925 284.835C329.532 284.07 328.27 283.702 326.448 281.823C324.225 284.499 321.482 287.308 318.633 289.323C320.56 291.419 321.056 292.569 321.438 295.502C320.059 297.582 314.124 303.45 312.059 305.55L291.85 325.831C288.623 329.061 283.461 333.905 280.75 337.304L280.767 440.198C280.78 447.895 283.413 457.175 275.159 459.347C273.47 458.91 272.884 458.734 271.346 457.874C270.459 456.415 270.165 455.84 269.745 454.135C264.583 454.134 258.032 454.372 252.992 454.135L242.455 454.135C241.757 457.591 240.47 458.411 237.283 459.347C233.158 458.44 231.838 457.358 231.708 452.909C231.477 444.994 231.59 437.063 231.596 429.145C231.599 423.819 231.313 419.387 238.117 419.236C238.22 415.004 237.899 410.604 238.117 406.42C228.139 406.303 231.575 388.558 231.575 380.832L231.588 337.304C225.546 331.729 217.974 323.828 212.19 317.935L115.968 221.527C100.444 205.686 107.193 190.253 120.506 177.088L130.824 166.954C132.7 168.424 136.031 171.701 137.777 173.424C140.979 169.482 144.09 166.054 146.65 161.547C144.809 159.731 143.077 158.099 141.445 156.084Z"/><path transform="scale(2 2)" d="M231.588 337.304C225.546 331.729 217.974 323.828 212.19 317.935L115.968 221.527C100.444 205.686 107.193 190.253 120.506 177.088L130.824 166.954C132.7 168.424 136.031 171.701 137.777 173.424L138.29 174.251C137.973 175.355 136.09 176.751 135.121 177.694L127.667 185.087C110.232 202.593 118.811 209.12 132.787 222.889L225.998 316.446C235.11 325.62 249.931 346.724 264.496 336.991C269.437 333.69 274.236 328.182 278.495 323.89L304.031 297.979C308.717 293.305 311.784 287.69 318.633 289.323C320.56 291.419 321.056 292.569 321.438 295.502C320.059 297.582 314.124 303.45 312.059 305.55L291.85 325.831C288.623 329.061 283.461 333.905 280.75 337.304L280.767 440.198C280.78 447.895 283.413 457.175 275.159 459.347C273.47 458.91 272.884 458.734 271.346 457.874C270.459 456.415 270.165 455.84 269.745 454.135C264.583 454.134 258.032 454.372 252.992 454.135L242.455 454.135C241.757 457.591 240.47 458.411 237.283 459.347C233.158 458.44 231.838 457.358 231.708 452.909C231.477 444.994 231.59 437.063 231.596 429.145C231.599 423.819 231.313 419.387 238.117 419.236C238.22 415.004 237.899 410.604 238.117 406.42C228.139 406.303 231.575 388.558 231.575 380.832L231.588 337.304Z"/><path fill="#3874A3" transform="scale(2 2)" d="M242.455 346.791C254.01 351.516 258.307 351.298 269.745 346.791L269.745 360.086L269.745 454.135C264.583 454.134 258.032 454.372 252.992 454.135L242.455 454.135C241.757 457.591 240.47 458.411 237.283 459.347C233.158 458.44 231.838 457.358 231.708 452.909C231.477 444.994 231.59 437.063 231.596 429.145C231.599 423.819 231.313 419.387 238.117 419.236C238.22 415.004 237.899 410.604 238.117 406.42C241.918 405.814 242.455 401.041 242.465 398.026L242.455 346.791Z"/><path fill="#65A6DC" transform="scale(2 2)" d="M255.757 360.086C260.447 360.294 265.352 359.598 269.745 360.086L269.745 454.135C264.583 454.134 258.032 454.372 252.992 454.135C253.887 454.065 254.853 454.117 255.757 454.135C256.076 444.496 255.761 432.662 255.76 422.86L255.757 360.086Z"/><path transform="scale(2 2)" d="M238.117 419.236C239.584 419.852 241.367 420.364 241.99 421.99C243.024 424.688 242.459 449.455 242.455 454.135C241.757 457.591 240.47 458.411 237.283 459.347C233.158 458.44 231.838 457.358 231.708 452.909C231.477 444.994 231.59 437.063 231.596 429.145C231.599 423.819 231.313 419.387 238.117 419.236Z"/><path transform="scale(2 2)" d="M141.445 156.084C147.233 149.608 156.072 141.296 162.352 135.025L228.293 69.2164C231.471 66.1095 235.146 61.8018 238.558 59.2137C264.277 39.7077 287.962 73.6263 304.58 90.2704L383.523 169.179C388.216 173.825 395.337 180.253 399.168 185.132C406.95 195.041 405.908 212.354 396.731 221.049L343.28 274.573C340.428 277.396 335.094 283.153 331.925 284.835C329.532 284.07 328.27 283.702 326.448 281.823C324.526 277.766 325.9 276.359 328.804 273.408C344.502 257.457 360.74 242.118 376.441 226.166L384.962 217.532C399.131 203.26 395.686 196.397 383.685 184.543L337.344 138.338C314.239 115.239 291.276 91.353 267.565 68.8416C262.982 63.9625 251.072 62.9095 245.845 67.2611C238.614 73.2814 230.57 81.9908 223.798 88.8117L158.409 154.235C155.812 156.821 151.828 160.819 149.002 163.02L148.679 163.268C147.866 162.412 147.624 162.243 146.65 161.547C144.809 159.731 143.077 158.099 141.445 156.084Z"/><path fill="white" transform="scale(2 2)" d="M196.843 138.972C200.876 134.54 205.659 129.977 209.923 125.695L244.813 90.6323C248.35 87.6535 255.102 77.8809 260.457 83.7214C265.088 88.7727 269.76 93.6143 274.609 98.4547L355.273 179.999C366.154 191.068 379.922 200.445 365.463 214.882L296.669 283.652C289.34 290.898 281.479 298.278 274.316 305.587C268.351 311.767 258.533 325.991 249.405 317.547C243.933 312.484 238.776 306.976 233.529 301.677L159.923 227.338C151.5 218.852 132.556 205.493 143.589 191.967C146.525 188.366 149.928 185.28 153.229 182.049L186.754 148.824C189.715 145.877 193.789 141.567 196.843 138.972Z"/><path fill="#BCDEF6" transform="scale(2 2)" d="M274.316 305.587C268.351 311.767 258.533 325.991 249.405 317.547C243.933 312.484 238.776 306.976 233.529 301.677L159.923 227.338C151.5 218.852 132.556 205.493 143.589 191.967C146.525 188.366 149.928 185.28 153.229 182.049L186.754 148.824C189.715 145.877 193.789 141.567 196.843 138.972C196.624 142.57 193.862 150.938 193.026 155.506C191.77 163.716 188.747 171.727 187.489 179.83C180.593 224.231 210.42 252.026 240.32 279.751C253.943 292.383 258 296.559 274.316 305.587Z"/><path transform="scale(2 2)" d="M224.635 139.821C233.009 139.742 235.668 145.392 236.232 152.805C265.222 152.784 294.574 147.806 316.502 170.69C335.134 190.133 337.794 222.633 321.061 244.074C318.437 247.435 314.594 251.014 311.509 254.128L299.679 266.184C287.225 278.874 269.806 305.395 251.229 284.835C238.208 268.476 251.756 256.744 262.449 245.881L280.984 227.108C288.991 219.049 292.932 215.277 290.444 202.863C287.557 190.798 274.145 192.414 265.081 192.417L236.232 192.431C235.944 207.599 224.054 207.05 214.529 197.431L204.551 187.255C195.093 177.718 185.834 173.621 199.007 161.111C204.606 155.693 217.503 140.845 224.635 139.821Z"/><path fill="#BCDEF6" transform="scale(2 2)" d="M217.394 158.238C220.094 155.205 222.725 152.281 226.052 149.894C226.144 153.463 226.026 156.931 226.052 160.475L226.252 160.733C229.438 164.769 238.273 163.308 242.908 163.293L263.826 163.252C269.254 163.252 275.037 163.065 280.427 163.763C305.733 167.041 324.134 189.548 321.251 215.126C319.382 231.706 312.994 237.636 302.037 248.782L288.296 262.722C282.649 268.444 277.222 274.63 271.346 280.092C257.862 284.907 251.434 270.002 261.249 262.043C262.397 261.113 264.019 259.282 265.126 258.184L286.705 236.494C294.419 228.776 300.548 224.542 301.565 212.49C302.369 202.952 300.329 196.24 294.342 188.784C288.975 184.419 284.385 182.019 277.371 181.898C261.874 181.629 246.341 181.804 230.843 181.777C224.353 181.765 226.004 189.466 226.052 193.949C222.492 191.162 218.777 187.145 215.856 183.672C211.762 179.472 207.498 175.675 203.53 171.596C208.158 167.41 212.779 162.582 217.394 158.238Z"/><path fill="#65A6DC" transform="scale(2 2)" d="M294.342 188.784C304.978 190.747 309.611 217.942 301.301 229.274C298.677 232.853 295.146 235.406 291.968 238.467C283.947 246.195 273.558 255.941 266.313 264.293C260.19 271.35 265.639 276.004 271.346 280.092C257.862 284.907 251.434 270.002 261.249 262.043C262.397 261.113 264.019 259.282 265.126 258.184L286.705 236.494C294.419 228.776 300.548 224.542 301.565 212.49C302.369 202.952 300.329 196.24 294.342 188.784Z"/><path fill="#65A6DC" transform="scale(2 2)" d="M203.53 171.596C208.158 167.41 212.779 162.582 217.394 158.238C217.237 160.62 215.391 163 214.807 165.409C212.44 175.188 214.907 176.082 215.856 183.672C211.762 179.472 207.498 175.675 203.53 171.596Z"/></svg>