<?xml version="1.0" encoding="utf-8" ?><svg xmlns="http://www.w3.org/2000/svg" xmlns:xlink="http://www.w3.org/1999/xlink" width="1024" height="1024" viewBox="0 0 1024 1024"><path fill="white" transform="scale(2 2)" d="M158.901 88.6913C152.32 71.5496 180.844 72.827 191.559 71.6251C239.81 66.2121 322.639 65.6262 366.659 86.1321C382.409 93.4693 399.124 106.973 383.198 123.812C382.925 128.549 373.578 147.333 374.555 150.805C381.251 143.23 391.764 143.815 391.821 153.265C391.88 162.997 372.205 171.642 365.074 174.579C364.391 177.331 362.129 185.855 360.058 187.364C365.814 193.145 362.582 197.366 360.011 203.297C354.266 216.552 346.405 228.696 337.857 240.297C334.382 245.067 326.349 255.698 324.145 260.508C335.3 263.246 355.238 272.264 351.762 286.503C348.142 301.325 323.045 307.038 310.543 310.176C310.094 314.042 307.765 325.107 307.828 327.804C313.147 329.069 325.681 317.79 332.988 320.355C337.048 321.513 338.963 326.814 337.908 330.637C335.406 339.704 307.782 345.693 299.934 347.611C297.246 351.598 295.688 354.941 292.593 358.952C278.733 376.895 264.058 383.896 244.495 392.432C225.849 400.567 210.888 418.068 208.739 438.716C207.715 448.555 206.017 461.373 192.82 451.754C171.502 435.393 160.782 408.808 177.895 385.236C184.503 376.135 189.673 372.273 200.018 372.78C206.748 367.808 212.6 360.983 216.693 353.703C204.202 351.901 188.538 349.272 178.195 342.346C158.406 329.094 170.616 313.555 188.031 307.462C197.678 304.087 202.786 303.049 212.564 301.125C211.443 296.582 209.124 290.691 206.885 286.575C203.335 279.988 196.373 271.904 209.459 267.892L209.059 267.641C204.897 264.999 192.394 254.813 191.352 250.091C183.49 255.595 180.41 251.301 175.439 246.69C168.928 240.65 147.172 220.696 158.901 212.208C154.837 208.037 148.326 198.756 147.108 193.159C136 195.636 136.043 183.306 135.179 175.854C125.746 171.909 110.803 167.083 105.276 157.333C103.391 154.007 105.924 147.775 109.67 146.417C115.929 144.148 122.073 151.882 128.743 154.697C128.606 149.75 121.224 144.892 123.665 131.924C120.584 129.511 116.406 127.23 113.38 124.769C98.4156 112.597 104.161 98.9812 119.067 90.4094C126.15 86.3362 136.278 82.9093 136.804 94.9578L137.047 95.4942C137.255 95.4836 150.897 90.4726 152.887 89.9271C154.485 89.489 157.854 89.0494 158.901 88.6913ZM344.837 196.486C334.036 219.407 316.525 236.787 306.952 256.724C301.036 256.606 291.427 254.15 286.768 258.133C283.303 261.096 283.548 267.549 286.915 270.502C290.446 273.831 295.511 272.768 299.934 272.895C297.238 282.722 296.845 285.778 295.444 295.634C284.415 297.999 267.484 298.501 255.855 299.443C253.708 299.514 251.207 299.473 249.127 299.954C241.573 301.7 235.862 317.836 257.711 316.528C257.717 323.112 257.821 331.827 256.673 338.286C245.847 338.367 235.395 337.653 224.815 337.673C232.739 313.666 233.119 291.923 216.535 270.591C214.698 268.228 212.211 268.047 209.459 267.892C196.373 271.904 203.335 279.988 206.885 286.575C209.124 290.691 211.443 296.582 212.564 301.125C202.786 303.049 197.678 304.087 188.031 307.462C170.616 313.555 158.406 329.094 178.195 342.346C188.538 349.272 204.202 351.901 216.693 353.703C212.6 360.983 206.748 367.808 200.018 372.78C189.673 372.273 184.503 376.135 177.895 385.236C160.782 408.808 171.502 435.393 192.82 451.754C206.017 461.373 207.715 448.555 208.739 438.716C210.888 418.068 225.849 400.567 244.495 392.432C264.058 383.896 278.733 376.895 292.593 358.952C295.688 354.941 297.246 351.598 299.934 347.611C307.782 345.693 335.406 339.704 337.908 330.637C338.963 326.814 337.048 321.513 332.988 320.355C325.681 317.79 313.147 329.069 307.828 327.804C307.765 325.107 310.094 314.042 310.543 310.176C323.045 307.038 348.142 301.325 351.762 286.503C355.238 272.264 335.3 263.246 324.145 260.508C326.349 255.698 334.382 245.067 337.857 240.297C346.405 228.696 354.266 216.552 360.011 203.297C362.582 197.366 365.814 193.145 360.058 187.364C362.129 185.855 364.391 177.331 365.074 174.579C359.08 176.44 353.433 178.097 347.318 179.595C349.02 181.432 343.272 193.48 344.837 196.486Z"/><path transform="scale(2 2)" d="M158.901 88.6913C152.32 71.5496 180.844 72.827 191.559 71.6251C239.81 66.2121 322.639 65.6262 366.659 86.1321C382.409 93.4693 399.124 106.973 383.198 123.812C382.925 128.549 373.578 147.333 374.555 150.805C369.252 154.928 359.993 158.72 353.389 160.471C354.16 156.807 361.539 139.262 360.058 136.564C321.045 150.545 284.743 150.43 244.594 151.405C223.395 151.634 198.322 150.723 177.308 146.864C176.334 154.624 176.307 160.022 176.338 167.896C164.628 166.028 149.89 163.33 138.735 158.949C135.033 157.358 132.521 156.898 128.743 154.697C128.606 149.75 121.224 144.892 123.665 131.924C120.584 129.511 116.406 127.23 113.38 124.769C98.4156 112.597 104.161 98.9812 119.067 90.4094C126.15 86.3362 136.278 82.9093 136.804 94.9578L137.047 95.4942C137.255 95.4836 150.897 90.4726 152.887 89.9271C154.485 89.489 157.854 89.0494 158.901 88.6913Z"/><path fill="#8CBDED" transform="scale(2 2)" d="M158.901 88.6913C160.123 90.0701 163.079 92.4201 165.074 92.1532C186.861 89.2431 211.222 85.5091 233.273 85.5397C265.529 85.5846 349.523 84.4484 373.021 110.243L373.261 110.509C364.723 118.69 356.703 118.836 348.178 123.812C342.503 124.677 337.306 126.131 331.715 127.246C281.798 137.195 193.28 138.456 145.612 122.492C138.257 119.924 126.659 115.34 121.618 109.515C126.873 105.009 136.214 102.146 136.804 94.9578L137.047 95.4942C137.255 95.4836 150.897 90.4726 152.887 89.9271C154.485 89.489 157.854 89.0494 158.901 88.6913Z"/><path fill="#BCDEF6" transform="scale(2 2)" d="M145.612 122.492C147.108 119.278 156.288 116.166 159.595 114.954C198.414 100.722 306.712 103.526 344.391 120.891C345.886 121.58 347.265 122.402 348.178 123.812C342.503 124.677 337.306 126.131 331.715 127.246C281.798 137.195 193.28 138.456 145.612 122.492Z"/><path fill="#FEC302" transform="scale(2 2)" d="M123.665 131.924C128.514 133.975 133.764 136.365 138.735 137.957C151.572 141.959 164.001 144.79 177.308 146.864C176.334 154.624 176.307 160.022 176.338 167.896C164.628 166.028 149.89 163.33 138.735 158.949C135.033 157.358 132.521 156.898 128.743 154.697C128.606 149.75 121.224 144.892 123.665 131.924Z"/><path fill="#BCDEF6" transform="scale(2 2)" d="M123.665 131.924C128.514 133.975 133.764 136.365 138.735 137.957C138.517 144.401 139.49 152.823 138.735 158.949C135.033 157.358 132.521 156.898 128.743 154.697C128.606 149.75 121.224 144.892 123.665 131.924Z"/><path fill="#BCDEF6" transform="scale(2 2)" d="M383.198 123.812C382.925 128.549 373.578 147.333 374.555 150.805C369.252 154.928 359.993 158.72 353.389 160.471C354.16 156.807 361.539 139.262 360.058 136.564C369.269 132.141 374.356 130.535 383.198 123.812Z"/><path transform="scale(2 2)" d="M347.318 179.595C353.433 178.097 359.08 176.44 365.074 174.579C364.391 177.331 362.129 185.855 360.058 187.364C365.814 193.145 362.582 197.366 360.011 203.297C354.266 216.552 346.405 228.696 337.857 240.297C334.382 245.067 326.349 255.698 324.145 260.508C335.3 263.246 355.238 272.264 351.762 286.503C348.142 301.325 323.045 307.038 310.543 310.176C310.094 314.042 307.765 325.107 307.828 327.804C313.147 329.069 325.681 317.79 332.988 320.355C337.048 321.513 338.963 326.814 337.908 330.637C335.406 339.704 307.782 345.693 299.934 347.611C297.246 351.598 295.688 354.941 292.593 358.952C278.733 376.895 264.058 383.896 244.495 392.432C225.849 400.567 210.888 418.068 208.739 438.716C207.715 448.555 206.017 461.373 192.82 451.754C171.502 435.393 160.782 408.808 177.895 385.236C184.503 376.135 189.673 372.273 200.018 372.78C206.748 367.808 212.6 360.983 216.693 353.703C204.202 351.901 188.538 349.272 178.195 342.346C158.406 329.094 170.616 313.555 188.031 307.462C197.678 304.087 202.786 303.049 212.564 301.125C211.443 296.582 209.124 290.691 206.885 286.575C203.335 279.988 196.373 271.904 209.459 267.892C212.211 268.047 214.698 268.228 216.535 270.591C233.119 291.923 232.739 313.666 224.815 337.673C235.395 337.653 245.847 338.367 256.673 338.286C257.821 331.827 257.717 323.112 257.711 316.528C235.862 317.836 241.573 301.7 249.127 299.954C251.207 299.473 253.708 299.514 255.855 299.443C267.484 298.501 284.415 297.999 295.444 295.634C296.845 285.778 297.238 282.722 299.934 272.895C295.511 272.768 290.446 273.831 286.915 270.502C283.548 267.549 283.303 261.096 286.768 258.133C291.427 254.15 301.036 256.606 306.952 256.724C316.525 236.787 334.036 219.407 344.837 196.486C343.272 193.48 349.02 181.432 347.318 179.595ZM234.996 377.934C237.411 376.901 239.927 375.97 242.383 375.029C242.387 374.268 241.875 368.707 241.822 368.941L241.358 368.703C240.554 369.782 235.156 377.157 234.996 377.934ZM275.487 353.703C273.24 354.119 269.939 354.403 267.515 354.777C268.035 356.354 267.91 358.67 268.784 359.939C271.139 357.924 273.258 355.853 275.487 353.703ZM186.165 327.293C188.033 328.494 189.333 329.073 191.352 330.018C197.636 332.582 200.656 333.367 207.268 334.769C208.668 331.885 213.278 321.027 212.755 318.282L212.564 318.157C205.619 318.665 191.701 323.229 186.165 327.293ZM326.68 287.826C329.333 286.63 332.248 285.321 334.399 283.315C328.748 279.735 323.185 277.744 316.862 275.796C310.976 292.311 309.091 294.951 326.68 287.826Z"/><path fill="#FEC302" transform="scale(2 2)" d="M216.693 353.703C225.108 354.628 239.484 356.009 247.838 355.539C246.243 361.151 242.753 364.691 241.358 368.703C240.554 369.782 235.156 377.157 234.996 377.934C213.563 389.81 199.513 404.325 193.018 428.399C185.144 416.075 183.607 402.621 195.685 392.186C200.999 387.594 211.699 379.111 200.018 372.78C206.748 367.808 212.6 360.983 216.693 353.703Z"/><path fill="white" transform="scale(2 2)" d="M257.711 316.528C269.633 315.545 281.411 314.38 293.296 313.052C291.856 322.893 291.347 325.227 288.312 334.769C282.539 334.435 262.866 337.4 256.673 338.286C257.821 331.827 257.717 323.112 257.711 316.528Z"/><path fill="white" transform="scale(2 2)" d="M247.838 355.539C254.666 355.748 261.218 354.607 267.515 354.777C268.035 356.354 267.91 358.67 268.784 359.939C259.468 367.828 253.25 370.458 242.383 375.029C242.387 374.268 241.875 368.707 241.822 368.941L241.358 368.703C242.753 364.691 246.243 361.151 247.838 355.539Z"/><path fill="#BCDEF6" transform="scale(2 2)" d="M347.318 179.595C353.433 178.097 359.08 176.44 365.074 174.579C364.391 177.331 362.129 185.855 360.058 187.364C350.516 183.044 348.387 189.034 344.837 196.486C343.272 193.48 349.02 181.432 347.318 179.595Z"/><path fill="#FEC302" transform="scale(2 2)" d="M152.854 180.678C163.017 182.931 173.238 184.149 183.436 186.041C186.09 199.765 206.398 223.217 216.575 231.503C240.65 251.106 252.613 265.816 255.855 299.443C253.708 299.514 251.207 299.473 249.127 299.954C241.573 301.7 235.862 317.836 257.711 316.528C257.717 323.112 257.821 331.827 256.673 338.286C245.847 338.367 235.395 337.653 224.815 337.673C232.739 313.666 233.119 291.923 216.535 270.591C214.698 268.228 212.211 268.047 209.459 267.892L209.059 267.641C204.897 264.999 192.394 254.813 191.352 250.091C183.49 255.595 180.41 251.301 175.439 246.69C168.928 240.65 147.172 220.696 158.901 212.208C154.837 208.037 148.326 198.756 147.108 193.159C153.609 191.189 153.855 186.323 152.854 180.678Z"/><path transform="scale(2 2)" d="M158.901 212.208C162.756 209.517 167.792 210.454 170.102 214.136C174.38 221.125 179.335 227.017 185.307 232.6C194.432 241.129 193.96 239.143 191.352 250.091C183.49 255.595 180.41 251.301 175.439 246.69C168.928 240.65 147.172 220.696 158.901 212.208Z"/><path transform="scale(2 2)" d="M135.179 175.854C125.746 171.909 110.803 167.083 105.276 157.333C103.391 154.007 105.924 147.775 109.67 146.417C115.929 144.148 122.073 151.882 128.743 154.697C132.521 156.898 135.033 157.358 138.735 158.949C149.89 163.33 164.628 166.028 176.338 167.896C197.241 171.251 217.78 171.88 238.761 173.563C248.273 174.326 247.703 189.953 237.596 190.286C222.333 191.318 198.751 187.74 183.436 186.041C173.238 184.149 163.017 182.931 152.854 180.678C153.855 186.323 153.609 191.189 147.108 193.159C136 195.636 136.043 183.306 135.179 175.854Z"/><path transform="scale(2 2)" d="M374.555 150.805C381.251 143.23 391.764 143.815 391.821 153.265C391.88 162.997 372.205 171.642 365.074 174.579C359.08 176.44 353.433 178.097 347.318 179.595C341.422 180.887 322.654 185.379 317.673 183.045C311.52 180.162 312.128 169.938 318.571 167.644C322.243 166.337 326.53 166.411 330.372 165.762C338.114 164.454 345.878 162.772 353.389 160.471C359.993 158.72 369.252 154.928 374.555 150.805Z"/><path transform="scale(2 2)" d="M121.618 302.085C127.811 301.53 138.098 302.291 142.18 307.095C145.081 310.51 144.409 315.976 140.962 318.788C136.162 322.704 131.611 319.44 126.382 319.041C114.262 318.117 100.896 327.241 100.271 340.064C100.154 342.466 100.403 344.995 100.214 347.375L100.193 347.611C96.9102 358.917 83.29 356.088 82.6951 345.837C81.3665 322.945 98.7605 303.576 121.618 302.085Z"/><path transform="scale(2 2)" d="M332.269 401.86L350.77 401.852C354.705 401.863 360.355 401.617 364.004 402.474C370.284 403.949 372.334 412.344 367.463 416.629C363.505 420.111 356.023 419 351.063 418.964L331.02 418.985C327.129 418.987 323.496 419.056 319.637 418.712C309.227 417.784 309.931 402.728 320.213 402.052C324.281 401.785 328.208 401.853 332.269 401.86Z"/><path transform="scale(2 2)" d="M135.179 358.126C141.337 357.9 148.061 362.124 146.057 368.486C142.542 379.642 130.415 371.095 123.888 380.097C118.75 387.184 126.326 393.89 116.586 398.79C97.0787 403.825 99.6619 359.099 135.179 358.126Z"/><path transform="scale(2 2)" d="M410.894 188.405C426.082 187.706 429.841 224.355 398.696 225.479C391.93 225.059 387.152 219.169 390.395 212.65C394.235 204.928 401.92 213.385 405.705 204.014C402.241 197.469 399.945 188.851 410.894 188.405Z"/><path transform="scale(2 2)" d="M395.961 275.796C402.092 275.201 414.953 275.594 421.065 275.99C430.793 276.621 432.293 289.751 422.153 292.015C417.136 292.092 396.24 292.92 392.32 290.85C386.585 287.823 387.076 277.765 395.961 275.796Z"/></svg>