<?xml version="1.0" encoding="utf-8" ?><svg xmlns="http://www.w3.org/2000/svg" xmlns:xlink="http://www.w3.org/1999/xlink" width="1024" height="1024" viewBox="0 0 1024 1024"><path fill="#FEC302" transform="scale(2 2)" d="M165.6 175.587C158.177 172.527 162.18 162.48 163.354 155.894L172.447 105.482C173.478 99.865 174.386 92.6688 176.51 87.5277C182.512 72.9988 204.828 76.2415 217.692 76.2546L297.844 76.2481C334.161 76.2042 334.726 76.5884 340.565 108.862L370.583 268.655C371.593 274.177 376.336 287.863 366.591 288.414C366.138 295.892 367.969 300.603 368.696 307.597C379.135 303.767 379.577 315.862 380.864 322.777L384.065 339.73C387.043 354.972 392.827 378.034 393.759 393.232C394.669 408.073 382.466 414.714 369.487 414.794C369.305 417.082 369.183 419.511 368.696 421.742L295.835 421.742C297.91 421.171 295.153 418.611 295.69 416.591C298.202 407.151 316.498 416.464 317.538 392.257C324.335 379.609 330.938 402.347 330.837 366.633C326.663 366.735 321.706 366.722 317.538 366.633L209.69 366.633C205.186 378.278 189.667 367.845 183.47 383.595C178.364 396.912 186.148 410.541 173.912 421.742L138.011 421.742C138.246 420.977 135.731 418.007 135.396 415.647C113.453 403.575 117.949 393.841 122.281 371.618L147.529 238.746C150.081 225.77 152.378 212.726 155.146 199.784C155.93 196.115 158.494 194.747 161.897 194.393C162.68 188.738 164.571 181.528 165.6 175.587ZM218.305 106.001L292.809 106.001L293.316 105.823C293.512 104.453 291.442 92.4452 291.142 89.9591C284.232 89.6419 274.305 89.9584 267.202 89.9587L219.85 89.9591C219.188 95.0946 218.739 100.811 218.305 106.001Z"/><path transform="scale(2 2)" d="M161.897 194.393C173.052 196.527 166.702 211.216 165.067 219.68L138.355 359.548C137.037 366.609 131.556 389.591 132.31 395.073C133.531 403.958 149.647 404.045 155.021 400.604C167.706 392.48 152.281 369.697 169.582 357.504C176.401 352.698 183.759 353.223 191.654 353.239L314.154 353.254C335.145 353.245 349.465 349.522 350.743 376.919C351.007 382.586 351.92 392.415 352.851 397.977C353.655 402.783 364.338 401.346 368.311 401.591C383.379 402.521 380.019 392.512 377.872 382.433C373.91 362.374 370.72 342.181 366.734 322.125C365.489 315.864 363.197 312.033 368.696 307.597C379.135 303.767 379.577 315.862 380.864 322.777L384.065 339.73C387.043 354.972 392.827 378.034 393.759 393.232C394.669 408.073 382.466 414.714 369.487 414.794C369.305 417.082 369.183 419.511 368.696 421.742L295.835 421.742C297.91 421.171 295.153 418.611 295.69 416.591C298.202 407.151 316.498 416.464 317.538 392.257C324.335 379.609 330.938 402.347 330.837 366.633C326.663 366.735 321.706 366.722 317.538 366.633L209.69 366.633C205.186 378.278 189.667 367.845 183.47 383.595C178.364 396.912 186.148 410.541 173.912 421.742L138.011 421.742C138.246 420.977 135.731 418.007 135.396 415.647C113.453 403.575 117.949 393.841 122.281 371.618L147.529 238.746C150.081 225.77 152.378 212.726 155.146 199.784C155.93 196.115 158.494 194.747 161.897 194.393Z"/><path fill="#31B0F4" transform="scale(2 2)" d="M317.538 366.633C324.786 366.428 335.508 364.008 336.846 372.307C341.646 402.09 332.172 415.414 369.487 414.794C369.305 417.082 369.183 419.511 368.696 421.742L295.835 421.742C297.91 421.171 295.153 418.611 295.69 416.591C298.202 407.151 316.498 416.464 317.538 392.257C324.335 379.609 330.938 402.347 330.837 366.633C326.663 366.735 321.706 366.722 317.538 366.633Z"/><path fill="#31B0F4" transform="scale(2 2)" d="M135.396 415.647C138.517 415.46 143.569 415.518 146.765 415.668C159.806 416.674 172.861 407.091 173.766 393.566C174.463 383.144 170.023 365.857 184.998 366.453C193.217 366.78 201.464 366.517 209.69 366.633C205.186 378.278 189.667 367.845 183.47 383.595C178.364 396.912 186.148 410.541 173.912 421.742L138.011 421.742C138.246 420.977 135.731 418.007 135.396 415.647Z"/><path transform="scale(2 2)" d="M165.6 175.587C158.177 172.527 162.18 162.48 163.354 155.894L172.447 105.482C173.478 99.865 174.386 92.6688 176.51 87.5277C182.512 72.9988 204.828 76.2415 217.692 76.2546L297.844 76.2481C334.161 76.2042 334.726 76.5884 340.565 108.862L370.583 268.655C371.593 274.177 376.336 287.863 366.591 288.414C356.808 287.364 357.699 274.482 355.999 265.661L328.59 119.458L183.636 119.458C180.747 136.586 177.292 154.149 174.048 171.237C173.249 175.442 169.311 176.002 165.6 175.587ZM218.305 106.001L292.809 106.001L293.316 105.823C293.512 104.453 291.442 92.4452 291.142 89.9591C284.232 89.6419 274.305 89.9584 267.202 89.9587L219.85 89.9591C219.188 95.0946 218.739 100.811 218.305 106.001Z"/><path fill="#BCDEF6" transform="scale(2 2)" d="M304.909 89.9591C322.886 90.0848 323.08 86.5091 326.358 106.001C320.791 106.278 312.915 106.013 307.201 106.001L304.909 89.9591Z"/><path fill="#BCDEF6" transform="scale(2 2)" d="M194.524 89.9591C198.339 89.7695 201.878 89.8727 205.701 89.9591C205.764 95.2155 205.255 100.733 204.92 106.001C202.66 106.077 200.39 106.027 198.128 106.001L186.62 106.001C187.123 100.227 187.379 90.9933 194.524 89.9591Z"/><path transform="scale(2 2)" d="M254.039 172.284C254.718 172.109 256.03 172.019 256.746 172.025C279.525 172.211 286.276 192.472 295.42 209.519L326.649 267.834C328.141 270.643 329.763 273.501 331.005 276.434C337.494 291.808 327.254 310.429 311.255 314.196C305.668 315.511 296.383 314.988 290.345 314.986L259.125 314.97L224.291 314.978C217.532 314.977 206.558 315.517 200.497 314.014C189.279 311.232 179.155 299.193 179.256 287.452C179.358 275.51 183.957 270.217 189.422 259.893L208.682 224.103C219.629 203.898 228.764 173.404 254.039 172.284Z"/><path fill="white" transform="scale(2 2)" d="M255.253 185.349C270.157 185.149 273.875 198.376 279.935 209.352L314.275 272.674C319.243 281.945 323.513 288.433 314.156 297.546C308.238 303.311 296.65 301.668 288.683 301.668L257.125 301.655L209.05 301.606C199.873 302.392 190.859 292.719 192.705 283.685C193.662 278.998 200.011 268.654 202.663 263.759L235.979 201.735C241.285 192.042 243.194 186.411 255.253 185.349Z"/><path transform="scale(2 2)" d="M254.039 211.8C273.414 209.919 266.078 234.176 265.289 246.627C264.915 252.523 264.969 257.536 258.177 259.486C246.35 261.46 246.514 246.634 246.282 238.32C246.003 228.295 240.289 215.22 254.039 211.8Z"/><path transform="scale(2 2)" d="M254.009 271.821C256.293 271.095 258.791 271.652 260.549 273.281C262.307 274.909 263.055 277.357 262.506 279.69C261.957 282.023 260.196 283.881 257.896 284.554C254.396 285.578 250.724 283.596 249.659 280.109C248.594 276.621 250.534 272.926 254.009 271.821Z"/><path transform="scale(2 2)" d="M295.835 421.742L368.696 421.742L402.56 421.725C408.292 421.723 414.051 421.626 419.774 421.856C428.041 422.189 428.54 434.461 420.567 435.162C418.595 435.336 416.503 435.255 414.51 435.255L275.788 435.258C272.208 435.257 263.672 435.991 260.886 433.849C256.692 430.626 257.686 422.622 263.741 421.931C267.233 421.533 270.83 421.724 274.417 421.726L295.835 421.742Z"/><path transform="scale(2 2)" d="M138.011 421.742L173.912 421.742C177.216 421.773 183.011 421.189 185.71 423.109C190.461 426.491 188.894 434.81 182.617 435.131C177.687 435.384 172.709 435.263 167.775 435.264L108.597 435.254C103.412 435.254 98.2018 435.313 93.0341 435.062C84.763 434.66 84.2156 422.205 92.805 421.791C97.2579 421.576 102.11 421.751 106.624 421.751L138.011 421.742Z"/><path transform="scale(2 2)" d="M233.707 385.253C256.855 383.146 252.76 405.459 241.193 400.699C239.369 399.948 238.075 399.188 236.171 398.555C224.484 401.264 228.024 409.828 225.333 415.994C223.685 419.771 218.943 420.253 215.579 418.53C212.862 417.138 212.335 412.927 211.693 410.068C208.288 403.529 202.674 406.153 197.622 408.335C189.767 411.727 185.529 398.156 193.484 394.645C201.975 391.132 209.536 391.242 217.301 395.995L217.592 395.575C221.731 389.625 226.626 386.535 233.707 385.253Z"/></svg>